<?xml version="1.0" encoding="UTF-8"?><svg id="Warstwa_3" xmlns="http://www.w3.org/2000/svg" viewBox="0 0 211.82 39.03"><defs><style>.cls-1{fill:#fff;}.cls-2{fill:#e42e26;}</style></defs><path class="cls-1" d="m8.14,26.9c-1.38,0-2.61-.34-3.7-1.02-1.09-.68-1.94-1.67-2.57-2.96s-.94-2.86-.94-4.7.31-3.41.94-4.7c.62-1.3,1.48-2.28,2.57-2.96,1.09-.68,2.32-1.02,3.7-1.02s2.63.34,3.71,1.02c1.08.68,1.93,1.67,2.56,2.96.62,1.3.94,2.86.94,4.7s-.31,3.41-.94,4.7-1.48,2.28-2.56,2.96c-1.08.68-2.32,1.02-3.71,1.02Zm0-3.29c.66,0,1.23-.18,1.72-.55s.87-.95,1.15-1.75.42-1.83.42-3.1-.14-2.29-.42-3.1c-.28-.8-.66-1.38-1.15-1.75s-1.06-.55-1.72-.55-1.2.18-1.69.55c-.49.37-.87.95-1.15,1.75-.28.8-.42,1.83-.42,3.1s.14,2.3.42,3.1c.28.8.66,1.38,1.15,1.75.49.37,1.05.55,1.69.55Z"/><path class="cls-1" d="m17.06,30.3l1.58-5.76.53,2.16c-.69,0-1.25-.2-1.69-.6-.44-.4-.66-.95-.66-1.66s.22-1.26.67-1.68,1-.62,1.66-.62,1.22.21,1.66.64c.43.42.65.98.65,1.67,0,.21-.02.41-.05.61s-.09.44-.18.72c-.09.28-.23.64-.42,1.07l-1.37,3.46h-2.38Z"/><path class="cls-1" d="m25.51,26.61l6.77-15.31,1.01,1.68h-9.05l1.73-1.82v4.56h-3.46v-5.9h13.46v2.52l-6.24,14.28h-4.22Z"/><path class="cls-1" d="m44.26,26.9c-1.41,0-2.64-.21-3.7-.64-1.06-.42-1.88-1.02-2.47-1.8-.59-.78-.89-1.68-.89-2.72s.29-1.92.88-2.65c.58-.73,1.4-1.28,2.46-1.66,1.06-.38,2.3-.56,3.72-.56s2.69.19,3.76.56c1.06.38,1.89.93,2.47,1.66.58.73.88,1.61.88,2.65s-.3,1.95-.89,2.72c-.59.78-1.42,1.38-2.48,1.8-1.06.42-2.31.64-3.73.64Zm0-8.06c-1.3,0-2.43-.18-3.4-.53s-1.72-.87-2.26-1.55c-.54-.68-.8-1.49-.8-2.44,0-.99.27-1.84.82-2.56s1.3-1.26,2.28-1.66c.98-.39,2.1-.59,3.36-.59s2.43.2,3.4.59c.97.39,1.73.94,2.28,1.66.55.71.83,1.56.83,2.56s-.27,1.76-.8,2.44c-.54.68-1.29,1.2-2.27,1.55-.98.35-2.12.53-3.43.53Zm0,5.21c.98,0,1.75-.22,2.32-.65.57-.43.85-1.02.85-1.78s-.29-1.34-.85-1.76c-.57-.42-1.34-.64-2.32-.64s-1.72.21-2.28.64c-.56.42-.84,1.01-.84,1.76s.28,1.34.84,1.78c.56.43,1.32.65,2.28.65Zm0-7.49c.82,0,1.46-.18,1.93-.55.47-.37.71-.87.71-1.51s-.24-1.19-.73-1.56-1.12-.55-1.91-.55-1.39.18-1.87.55c-.48.37-.72.89-.72,1.56s.23,1.14.7,1.51c.46.37,1.1.55,1.9.55Z"/><path class="cls-2" d="m109.68,24.73v-11.2h4.9c1.22,0,2.28.24,3.2.7.92.47,1.63,1.12,2.14,1.95s.77,1.81.77,2.94-.26,2.1-.77,2.94c-.51.84-1.23,1.49-2.14,1.96-.92.47-1.98.7-3.2.7h-4.9Zm2.08-1.76h2.72c.84,0,1.57-.16,2.18-.48.61-.32,1.09-.77,1.42-1.34s.5-1.25.5-2.02-.17-1.45-.5-2.02-.81-1.02-1.42-1.34c-.61-.32-1.34-.48-2.18-.48h-2.72v7.68Z"/><path class="cls-2" d="m127.71,24.89c-1.54,0-2.74-.43-3.61-1.3-.87-.86-1.3-2.11-1.3-3.74v-6.32h2.08v6.24c0,1.15.25,1.99.74,2.51.5.52,1.2.78,2.1.78s1.61-.26,2.1-.78c.49-.52.74-1.36.74-2.51v-6.24h2.05v6.32c0,1.63-.43,2.88-1.3,3.74-.87.86-2.07,1.3-3.59,1.3Z"/><path class="cls-2" d="m134.67,24.73v-1.39l7.23-8.83.24.78h-7.36v-1.76h9.23v1.39l-7.23,8.83-.26-.78h7.7v1.76h-9.55Zm4.78-12.3c-.33,0-.6-.11-.82-.32-.21-.21-.32-.49-.32-.82s.11-.6.32-.82c.21-.21.49-.32.82-.32s.59.11.81.32c.22.21.33.49.33.82s-.11.6-.33.82c-.22.21-.49.32-.81.32Z"/><path class="cls-2" d="m148.88,24.73v-4.43l.46,1.28-4.86-8.05h2.22l3.9,6.48h-1.25l3.94-6.48h2.05l-4.86,8.05.48-1.28v4.43h-2.08Z"/><path class="cls-2" d="m163.2,22.99h6.32v1.74h-8.4v-11.2h8.18v1.74h-6.1v7.71Zm-.16-4.8h5.57v1.71h-5.57v-1.71Z"/><path class="cls-2" d="m173.92,24.73h-2.08v-11.2h8.18v1.74h-6.1v9.46Zm-.18-6.05h5.58v1.76h-5.58v-1.76Z"/><path class="cls-2" d="m184.11,22.99h6.32v1.74h-8.4v-11.2h8.18v1.74h-6.1v7.71Zm-.16-4.8h5.57v1.71h-5.57v-1.71Z"/><path class="cls-2" d="m192.75,24.73v-11.2h2.08v11.2h-2.08Zm1.86-2.64l-.11-2.46,5.87-6.1h2.34l-4.88,5.18-1.15,1.26-2.06,2.11Zm5.95,2.64l-4.29-5.1,1.38-1.52,5.34,6.62h-2.43Z"/><path class="cls-2" d="m205.97,24.73v-9.44h-3.71v-1.76h9.5v1.76h-3.71v9.44h-2.08Z"/><path class="cls-1" d="m96.01,20.37l-9.65,10.84c-.35.38-.75.68-1.19.88-.45.21-.92.31-1.42.31-.94,0-1.74-.31-2.38-.93s-.97-1.38-.97-2.29c0-.5.1-.97.29-1.43.19-.46.47-.87.83-1.23l2.63-2.63h-17.25c-.98,0-1.81-.33-2.49-1.01s-1.01-1.51-1.01-2.51.34-1.81,1.01-2.49c.68-.68,1.51-1.01,2.49-1.01h17.25l-2.63-3.02c-.37-.4-.65-.81-.84-1.24-.19-.43-.28-.85-.28-1.28,0-.81.33-1.51,1-2.1.66-.59,1.45-.88,2.36-.88.51,0,.99.11,1.44.32.45.21.84.5,1.16.88l9.65,10.82Z"/></svg>