<svg id="Warstwa_1" data-name="Warstwa 1" xmlns="http://www.w3.org/2000/svg" viewBox="0 0 210.5 100"><defs><style>.cls-1{fill:#fff;}</style></defs><title>logo_PF_white</title><path class="cls-1" d="M117.87,31.8A13.08,13.08,0,0,0,97.66,21.46c-.11.07-.26.19-.4.3l-.13.1h0a9.91,9.91,0,0,1-1.72-2.06l0-.05a9.71,9.71,0,0,1-1.46-4.88l0,.07a13.93,13.93,0,0,0-.94,5.7A13.08,13.08,0,0,0,113.15,31a4.2,4.2,0,0,0,.53-.4,9.28,9.28,0,0,1,1.41,1.59l0,0a9.85,9.85,0,0,1,1.77,5.29v.08A13.81,13.81,0,0,0,117.87,31.8Z"/><path class="cls-1" d="M113.78,33.16l-.33-.43,0,0a14.59,14.59,0,0,1-6.74,2,14.74,14.74,0,0,1-15.39-14,15.75,15.75,0,0,1,5-12.21l-.11.06a19.92,19.92,0,0,0,9.2,37.56s7,.3,9.26-5.27A8,8,0,0,0,113.78,33.16Z"/><path class="cls-1" d="M105.44,6.29c-2.76.2-7.74,1-9.39,5.56a8.08,8.08,0,0,0,1,7.42l.33.42a14.74,14.74,0,0,1,22.15,12,15.7,15.7,0,0,1-5,12.22l0,0a19.91,19.91,0,0,0-9-37.68Z"/><path class="cls-1" d="M7.25,62.22h6.84c3.92,0,5.73-1.12,5.73-3.19S18,55.82,14.09,55.82H7.25ZM3.77,53.85H15.26c5.23,0,8,1.93,8,5.18s-2.81,5.18-8,5.15h-8v7.16H3.77Z"/><path class="cls-1" d="M28,71.34h3.12V58.67H28Zm0-15h3.11V53.85H28Z"/><path class="cls-1" d="M49.87,63.79c-.15-2-2.39-3.56-5.48-3.56-3.27,0-5.21,1.63-5.44,3.56Zm3,3.52C52,70.12,49,71.65,44.76,71.65c-6.07,0-8.93-2.82-9.11-6.69,0-3.78,3.75-6.58,8.93-6.58,6.72,0,8.77,4.21,8.6,7.24H39c-.1,2.21,1.78,4.17,5.92,4.17,2.57,0,4.37-.81,4.91-2.48Z"/><path class="cls-1" d="M57,58.68H60v2.66H60c1.51-2,3.6-3,7-3v2.22c-5.05,0-6.88,1.9-6.88,5.11v5.64H57Z"/><path class="cls-1" d="M70,58.68h2.94v2.66H73c1.5-2,3.6-3,7-3v2.22c-5,0-6.88,1.9-6.88,5.11v5.64H70Z"/><path class="cls-1" d="M95.61,63.79c-.15-2-2.39-3.56-5.48-3.56-3.27,0-5.22,1.63-5.44,3.56Zm3,3.52c-.86,2.81-3.85,4.34-8.13,4.34-6,0-8.91-2.82-9.1-6.69,0-3.78,3.75-6.58,8.94-6.58,6.7,0,8.76,4.21,8.59,7.24H84.69c-.1,2.21,1.77,4.17,5.91,4.17,2.58,0,4.37-.81,4.93-2.48Z"/><polygon class="cls-1" points="114.33 53.85 131.57 53.85 131.57 55.82 117.83 55.82 117.83 61.38 129.87 61.38 129.87 63.33 117.83 63.33 117.83 71.34 114.33 71.34 114.33 53.85"/><path class="cls-1" d="M147.4,64.81c-1.23.57-3.56.59-5.66.84s-3.83.73-3.83,2.28c0,1.37,1.78,1.86,3.69,1.86,4.11,0,5.8-1.71,5.8-2.86Zm5.07,6.48a6.22,6.22,0,0,1-2.25.35c-1.62,0-2.63-.6-2.63-2a10.87,10.87,0,0,1-6.71,2c-3.45,0-6.27-1-6.27-3.56,0-2.87,3.2-3.47,6.43-3.9,3.45-.44,6.39-.27,6.39-1.85,0-1.83-2.24-2.11-4.23-2.11-2.63,0-4.59.53-4.74,2.4h-3.11c.18-3.12,3.82-4.25,8-4.25,3.4,0,7.12.52,7.12,3.49v6.51c0,1,0,1.42,1,1.42a5.83,5.83,0,0,0,1-.11Z"/><path class="cls-1" d="M165,60.22c-4.19,0-5.8,2.4-5.8,4.77s1.68,4.8,6,4.8,5.69-2.43,5.69-4.9-1.84-4.67-5.87-4.67m-8.83-6.37h3.13V60.4h.07c1-1.4,3.46-2,6.07-2,5.84,0,8.74,3.11,8.74,6.68s-2.86,6.6-8.67,6.6c-1.95,0-4.74-.5-6.14-2h-.07v1.69H156.2Z"/><path class="cls-1" d="M178.5,58.68h2.95v2.66h.08c1.49-2,3.6-3,7-3v2.22c-5,0-6.87,1.9-6.87,5.11v5.64H178.5Z"/><path class="cls-1" d="M204.12,63.79c-.14-2-2.39-3.56-5.47-3.56-3.27,0-5.22,1.63-5.43,3.56Zm3,3.52c-.85,2.81-3.85,4.34-8.11,4.34-6.07,0-8.93-2.82-9.12-6.69,0-3.78,3.76-6.58,8.93-6.58,6.72,0,8.77,4.21,8.59,7.24h-14.2c-.13,2.21,1.75,4.17,5.91,4.17,2.56,0,4.37-.81,4.92-2.48Z"/><polygon class="cls-1" points="27.04 81.26 30.67 81.26 36.96 92.43 43.26 81.26 46.89 81.26 46.89 94.55 44.38 94.55 44.38 83.49 44.32 83.49 38.09 94.55 35.83 94.55 29.61 83.49 29.55 83.49 29.55 94.55 27.04 94.55 27.04 81.26"/><path class="cls-1" d="M61.16,91.5c-.42,1.24-1.79,1.88-3.74,1.88-3.16,0-4.58-1.49-4.5-3.17H63.73c.13-2.33-1.42-5.51-6.53-5.51-3.94,0-6.79,2.12-6.79,5s2.32,5.06,6.93,5.06c3.23,0,5.53-1.15,6.17-3.27Zm-5.95-7.9H57l3.66-2.66h-3Zm-2.29,5.21c.17-1.47,1.65-2.71,4.13-2.71s4.05,1.21,4.16,2.71Z"/><path class="cls-1" d="M79.36,81.26H77v4.95h0c-1.07-1.14-3.19-1.51-4.67-1.51-4.41,0-6.59,2.29-6.59,5s2.21,5.06,6.65,5.06c2,0,3.82-.46,4.61-1.52h0v1.3h2.37ZM68.19,89.82c0-1.88,1.1-3.72,4.33-3.72s4.56,1.75,4.56,3.65-1.23,3.63-4.42,3.63S68.19,91.63,68.19,89.82Z"/><path class="cls-1" d="M83.44,94.55h2.37V84.92H83.44Zm0-11.36h2.37V81.26H83.44Z"/><path class="cls-1" d="M99.57,88C99.21,86.8,98,86.09,96,86.09c-3.43,0-4.49,1.81-4.49,3.77,0,1.77,1.2,3.52,4.22,3.52,2.29,0,3.65-.9,4-2.35h2.42c-.53,2.35-2.73,3.74-6.35,3.74-4.42,0-6.77-2-6.77-4.91s2.24-5.16,6.82-5.16c3.26,0,5.88,1,6.21,3.31Z"/><path class="cls-1" d="M117.83,93.28a3.21,3.21,0,0,1-.72.1c-.76,0-.76-.34-.76-1.08v-5c0-2.25-2.82-2.64-5.41-2.64-3.21,0-6,.84-6.12,3.22h2.38c.11-1.41,1.59-1.83,3.59-1.83,1.51,0,3.22.23,3.22,1.61,0,1.19-2.23,1.08-4.86,1.41-2.46.32-4.89.78-4.89,3,0,1.92,2.15,2.7,4.78,2.7a8.08,8.08,0,0,0,5.08-1.49c0,1,.78,1.49,2,1.49a4.45,4.45,0,0,0,1.7-.26ZM114,91.2c0,.87-1.29,2.18-4.42,2.18-1.44,0-2.78-.38-2.78-1.42s1.34-1.54,2.9-1.73a17.51,17.51,0,0,0,4.3-.65Z"/><path class="cls-1" d="M120.32,84.92h2.23v1.42h.06a6.36,6.36,0,0,1,4.66-1.64c1.76,0,3.38.47,4,1.64a6.32,6.32,0,0,1,4.52-1.64c2.88,0,4.8.8,4.8,2.79v7.06h-2.38V88.24c0-1.19-.46-2.14-2.79-2.14s-3.76,1-3.76,2.45v6h-2.38V88.24c0-1.25-.58-2.14-2.71-2.14-2.81,0-3.85,1.73-3.85,2.45v6h-2.37Z"/><path class="cls-1" d="M154.38,91.5c-.42,1.24-1.79,1.88-3.74,1.88-3.16,0-4.58-1.49-4.49-3.17H157c.14-2.33-1.42-5.51-6.53-5.51-3.94,0-6.79,2.12-6.79,5s2.32,5.06,6.93,5.06c3.23,0,5.53-1.15,6.17-3.27Zm-8.23-2.69c.16-1.47,1.64-2.71,4.13-2.71s4.05,1.21,4.16,2.71Z"/><path class="cls-1" d="M159.69,84.92h2.23v1.53H162a5.85,5.85,0,0,1,4.69-1.75c3.8,0,5,1.45,5,3.52v6.33h-2.37V88c0-1.17-1.11-1.93-2.93-1.93-2.88,0-4.27,1.28-4.27,3v5.44h-2.37Z"/><path class="cls-1" d="M178.79,84.92h2.87v1.4h-2.87v6c0,.72.3.85,1.79.85h1.08v1.4h-1.81c-2.46,0-3.44-.34-3.44-2.1V86.32H174v-1.4h2.46V82h2.38Z"/></svg>