<svg xmlns="http://www.w3.org/2000/svg" viewBox="0 0 40 40"><defs><style>.cls-1{fill:#1c3e7a;}.cls-2{fill:#60a1d8;}</style></defs><title>obrazek_3</title><g id="Warstwa_1" data-name="Warstwa 1"><path class="cls-1" d="M23.44,15.2l-.16,0-.07,0L23.06,15l0-.08v-.1l0-.1,0,0,0,0a.5.5,0,0,0,.27,0l.14,0a3,3,0,0,1,.55-.15h.06l.06,0,.05,0,0,.05,0,.19v.07c-.17.18-.37.07-.5.11h-.05l-.08.06-.09.06-.07.09Z"/><path class="cls-1" d="M22.15,15.7l0,.07-.09.08L22,15.9l-.07,0h-.07l-.05,0a1,1,0,0,1-.19-.38l0-.1c-.24-.43.41-.18.64-.38l.05,0,.06,0,.1,0,0,0,.1-.14.05-.05c.18-.12.34.08.36.24v.07c.12.28,0,.48-.38.43h-.08l-.06,0-.05,0-.2.12Z"/><path class="cls-1" d="M20.29,16.44l-.24.1-.24.11-.21.17-.1.09-.11.09h-.15c-.2-.2,0-.51-.23-.73l0-.05,0-.1.12-.21.05,0,.07,0h.45a.88.88,0,0,0,.28-.06l.09,0,.62-.2.1,0,.09-.05a.58.58,0,0,1,.5-.13.44.44,0,0,1,.18.63l-.07.08-.12,0-.12,0a3.32,3.32,0,0,0-.78.21Z"/><path class="cls-1" d="M16.39,18.11l-.15.21,0,.06a.45.45,0,0,1-.31.32l-.07,0c-.29.2-.55-.08-.8-.18l-.08,0c-.32-.1-.12-.56.13-.68l.09-.05c.44-.23.95-.25,1.36-.5l.12-.07a4.37,4.37,0,0,1,.59-.33l.12-.06c.2-.18.45-.29.67-.47l.11-.07.26-.11.13,0a.5.5,0,0,1,.4.69l-.08.13a11.78,11.78,0,0,1-1.41.54l-.14.07c-.23.11-.46.24-.68.36l-.15.1Z"/><path class="cls-1" d="M26.1,17.36l-.08,0c-.12.06-.36.14-.39-.06l0-.09v-.08l0-.16v-.08c-.06-.39.41-.13.6-.15s.55-.22.81-.06l.09.07,0,.22-.08.1a.41.41,0,0,1-.27.1,1.32,1.32,0,0,0-.61.16"/><path class="cls-1" d="M24.65,17.6l-.09,0a6.14,6.14,0,0,0-.59.25l-.07,0-.23.1H23.6l-.05-.07,0-.08,0-.08,0-.07c-.18-.28-.13-.73.26-.71l.09,0h.32a1.19,1.19,0,0,0,.83-.16L25,16.8l.07,0a.24.24,0,0,1,.35.14l0,.09c-.06.17.09.27,0,.42s-.26.17-.43.16h-.35Z"/><path class="cls-1" d="M21.72,18.16l-.21,0c-.24.05-.44.21-.67.26l-.07,0c-.17.06-.39.2-.59.08l-.05,0c-.06-.06-.08-.15,0-.31l0-.06,0-.06V18a4.29,4.29,0,0,1-.16-.43c0-.16.15-.21.3-.18h.15l.07,0,.08,0a2.73,2.73,0,0,0,.64,0,4.17,4.17,0,0,0,.71-.05l.28,0h.08l.16,0,.15,0,.08,0a.5.5,0,0,1,.59.07l0,.07,0,.22,0,.08c0,.12,0,.31-.07.39s-.38,0-.51,0-.29,0-.44,0l-.62,0"/><path class="cls-1" d="M18.4,18.7a1.74,1.74,0,0,0-.34.05l-.41.17a7.11,7.11,0,0,0-.8.34,1.09,1.09,0,0,1-.81.24h-.1a.47.47,0,0,1-.39-.3.65.65,0,0,1,.17-.34l.09-.07a1.69,1.69,0,0,1,.8-.16,1.91,1.91,0,0,0,.82-.17c.26-.11.55-.17.81-.29l.08,0a4.53,4.53,0,0,1,1.18-.49h.12a.31.31,0,0,1,.28.09.48.48,0,0,1,0,.66l-.1.09a2.07,2.07,0,0,1-1.11.16l-.12,0Z"/><path class="cls-1" d="M27.55,20a.5.5,0,0,0-.27.07c-.1.07-.28.21-.38.06a1.07,1.07,0,0,1,0-.4c0-.12,0-.31.09-.37l.09,0a1.52,1.52,0,0,0,.87.07H28a.32.32,0,0,1,.34.26l0,.08c0,.28-.26.38-.48.27h-.33Z"/><path class="cls-1" d="M25.91,20.19a1.26,1.26,0,0,0-.51,0l-.42.15c-.41.16-.33-.31-.37-.56s-.11-.36.05-.47l.35,0a1.79,1.79,0,0,0,.4.09,2.68,2.68,0,0,0,.75,0,1.67,1.67,0,0,1,.44-.06c.28,0,.23.33.23.53l0,.08,0,.08a.3.3,0,0,1-.32.21h-.1l-.46-.08"/><path class="cls-1" d="M22.69,20.19a2.67,2.67,0,0,0-1,0,1.24,1.24,0,0,1-.45.11h-.09l-.07,0c-.15-.11-.14-.28-.1-.46l0-.11c.07-.21,0-.36,0-.56l.05-.07c.23-.22.62.07.85.16a1.7,1.7,0,0,0,.55.13,5.46,5.46,0,0,0,.56,0,8.51,8.51,0,0,0,1,0,.46.46,0,0,1,.57.37v.1a.52.52,0,0,1-.38.48,2.14,2.14,0,0,1-.49-.07,4.41,4.41,0,0,0-.81-.05Z"/><path class="cls-1" d="M18.51,20.13a15.5,15.5,0,0,0-1.76.32c-.23,0-.69.26-.91.14l-.07-.05-.07-.07,0-.09a1.42,1.42,0,0,0,0-.28V20c-.1-.33.07-.47.29-.49h.14a7,7,0,0,0,3-.22,2.59,2.59,0,0,1,1.62-.14l.08.07.07.11,0,.12v.19l0,.08,0,.08c-.09.25-.44.2-.61.38l-.09,0a.9.9,0,0,1-.46,0l-.15,0a4.45,4.45,0,0,0-1,0"/><path class="cls-1" d="M26.84,22.83a1.75,1.75,0,0,0-.33.05c-.1,0-.18.1-.28.1s-.12-.25-.11-.34,0-.39.09-.45.23,0,.33.07a.9.9,0,0,0,.43.09.43.43,0,0,1,.37.14l.05.26c-.05.1-.22.08-.32.08Z"/><path class="cls-1" d="M25.21,22.8h-.09a1.07,1.07,0,0,0-.47,0l-.06,0-.14,0h-.07c-.23-.09-.21-.38-.09-.64s0-.25.1-.35.28.1.38.14a1.74,1.74,0,0,0,.75.11.8.8,0,0,1,.46.06.38.38,0,0,1,.11.37c0,.25-.18.32-.41.31l-.47-.05"/><path class="cls-1" d="M22.56,22.43a2.32,2.32,0,0,0-.38-.07H22.1c-.23,0-.43.12-.69.1h-.09c-.15,0-.28,0-.32-.16l0-.09v-.17l.05-.22,0-.07c0-.19-.06-.37.09-.53s.41-.15.64,0a3,3,0,0,0,.9.43,4.76,4.76,0,0,0,.66.08,1.42,1.42,0,0,0,.29,0h.3l.26.12a.84.84,0,0,1-.07.6c-.11.25-.32.2-.55.15s-.68-.1-1-.19"/><path class="cls-1" d="M18.68,21.8a9.84,9.84,0,0,0-1.8,0l-.14,0-.13,0-.12.06c-.24.09-.54.29-.79,0a.58.58,0,0,1-.1-.36v-.13c0-.27,0-.57.15-.72s.5,0,.78.1a6.37,6.37,0,0,0,2.17.3h.16a3.77,3.77,0,0,0,1.3-.07l.15,0a.77.77,0,0,1,.57.11l.09.11a.62.62,0,0,1-.36.77.88.88,0,0,1-.64,0l-.13,0a6.26,6.26,0,0,0-1.16-.22"/><path class="cls-1" d="M22,25.51a1.74,1.74,0,0,0-.72-.05c-.11,0-.28.07-.36-.05s.06-.25.13-.33a.4.4,0,0,0,.12-.36c0-.36.36-.16.52,0a1.23,1.23,0,0,0,.37.21c.25.1.68.14.68.5s-.43.25-.62.16l0,0Z"/><path class="cls-1" d="M19.51,24.94a2.12,2.12,0,0,0-.75-.06.39.39,0,0,1-.42-.15l0-.12a1,1,0,0,0,.28-.82l.19-.12h.12a2,2,0,0,1,.7.46,1.5,1.5,0,0,0,.92.26.48.48,0,0,1,.32.13l.06,0,0,.05,0,.13v.17l0,.14-.07.13-.06.07c-.38.35-.89-.21-1.27-.32"/><path class="cls-1" d="M17.79,24.66h-.22c-.17-.11-.32-.24-.5-.34s-.5-.26-.73-.42a2.15,2.15,0,0,0-.87-.46l-.09,0a.75.75,0,0,1-.37-.27l0-.08,0-.08,0-.09v-.19l0-.09a.56.56,0,0,1,.22-.24l.08-.05a.73.73,0,0,1,.56,0c.18.07.25.24.37.39a1.59,1.59,0,0,0,.29.29,2.09,2.09,0,0,0,.87.49h.31c.31,0,.81,0,.75.49V24a.53.53,0,0,1-.18.55l-.12,0h-.23Z"/><path class="cls-1" d="M14.18,18.78a.4.4,0,0,1-.27-.47l.07,0c.1,0,.3-.06.39,0l.07.06,0,.11a.36.36,0,0,1-.19.27l-.08,0Z"/><path class="cls-1" d="M13.63,19.27l-.15,0a.62.62,0,0,1-.39-.37.34.34,0,0,1,.32-.46c.32,0,.94.35.54.68a.61.61,0,0,1-.32.18"/><path class="cls-1" d="M15.2,19.63l-.22.05a1.63,1.63,0,0,1-.49.05H14.4c-.21,0-.67,0-.62-.36l0-.07c.13-.15.33-.27.49-.42l.07-.07c.15-.16.3-.3.53-.22a.81.81,0,0,1,.44.39.58.58,0,0,1,0,.54Z"/><path class="cls-1" d="M14.33,20.82c-.31.05-.63.06-.79-.21a1,1,0,0,1,0-.6.42.42,0,0,1,.4-.32l.1,0,.09,0a1.27,1.27,0,0,0,.34,0h.3c.26,0,.51-.12.73.07l0,.06c0,.21.1.41-.09.62a.8.8,0,0,1-.63.23c-.14,0-.32.05-.5.08"/><path class="cls-1" d="M13.14,20.3c-.18-.05-.38-.1-.44-.31l0-.08a.62.62,0,0,1,0-.33l0-.08c.11-.26.32-.47.56-.26l.06,0,0,0,.14.11a1,1,0,0,1-.06.73l-.1.11-.15.06Z"/><path class="cls-1" d="M13.41,20.41l-.1,0-.09,0a.28.28,0,0,0-.38.21.77.77,0,0,0,.29.77c.32.32.72.78,1.14.32l.06-.06c.15-.15.36-.35.31-.55s-.36-.15-.55-.13h-.2c-.22-.06-.52-.22-.49-.45Z"/><path class="cls-1" d="M14.73,22.57c-.35.06-.52-.48-.45-.75s.28-.28.35-.47,0-.27.13-.4a.56.56,0,0,1,.39-.19c.28,0,.4.09.38.36a2.44,2.44,0,0,0,0,.47c0,.15.12.32.07.47s-.31.2-.47.18l-.19.13-.12.18Z"/><path class="cls-1" d="M9.58,17.92H9a3.47,3.47,0,0,1-.57,0v.91c.32,0,.65,0,1,0h0a6.34,6.34,0,0,1,1.44.14,3.24,3.24,0,0,1,.84.4l.14.08.13.06.13,0,.14-.05.14-.07c.3-.2-.1-.61,0-.91l.06-.15.08-.16c.12-.15,0-.25-.17-.29-.39-.13-.86.1-1.25.12s-1,0-1.51,0"/><path class="cls-1" d="M11.28,19.63l-.15.05a1.81,1.81,0,0,1-.42.1l-.17,0-.15,0L10,19.9l-.12,0a1.44,1.44,0,0,1-.62,0l-.15,0a3.67,3.67,0,0,0-.74,0V21.2a16.87,16.87,0,0,1,2.14.23l.13,0c.29.15.49.5.91.53l.28.08a1.8,1.8,0,0,0,1.17,0l.08-.08.08-.1c.12-.21-.1-.42-.27-.67l-.1-.15a1.6,1.6,0,0,1-.23-.45l0-.12a1.15,1.15,0,0,1,0-.49l0-.17c0-.28-.06-.63-.41-.53s-.56.2-.88.29"/><path class="cls-2" d="M19.24,5.86a14,14,0,1,0,14,14,14,14,0,0,0-13.95-14m0,25a11,11,0,1,1,11-11,11,11,0,0,1-11,11"/><path class="cls-1" d="M19.74,4.67v5.38a9.78,9.78,0,0,1,0,19.53V35a15.15,15.15,0,0,0,0-30.29"/></g></svg>