<svg xmlns="http://www.w3.org/2000/svg" viewBox="0 0 40 40"><defs><style>.cls-1{fill:#fff;}.cls-2{fill:#60a1d8;}</style></defs><title>obrazek_4</title><g id="Warstwa_1" data-name="Warstwa 1"><path class="cls-1" d="M17.18,14.31c-2.61.95-5.09,2.42-5.09,5a3.87,3.87,0,0,0,.7,2.18,6.72,6.72,0,0,0,.66-.32,2.93,2.93,0,0,0,.66-.41c-.92-2.79,1.61-5.37,3.07-6.43"/><path class="cls-1" d="M19.7,22.57H20a2.16,2.16,0,0,0,2.32-1.9,1.72,1.72,0,0,0-.72-1.4,1.81,1.81,0,0,1,.12.73,2.86,2.86,0,0,1-2.05,2.59"/><path class="cls-1" d="M25.34,8.44h0a13.86,13.86,0,1,0,7.6,12.36,13.85,13.85,0,0,0-7.6-12.36m-4.77,3.65A30.48,30.48,0,0,0,23,8.23a8.3,8.3,0,0,1,1.21.44l.71.32a23.61,23.61,0,0,0-2.12,3.43c-.74,1.47-1.71,3.27-1.29,4.92.34,1.34,1.72,2.58,1.49,4-.29,1.76-2.88,2.14-4.29,1.9a4.37,4.37,0,0,1-3.45-2.79c-.61-1.82.68-3.44,1.85-4.67M18.86,34a17.68,17.68,0,0,0-2.45-5.08,19,19,0,0,1-1.65-3.16c-.37-.95-.68-1.93-1-2.88a5.16,5.16,0,0,0,.46-.29,8,8,0,0,0,4.42,2.73,6.25,6.25,0,0,0,4.22-.92,5.21,5.21,0,0,1-1,2.3c-.67.83-1.26,1-1.34,2.06a12.52,12.52,0,0,0,1.08,5,13.28,13.28,0,0,1-2.52.24Zm9.54-3.85a13,13,0,0,1-4.18,2.82c-.37.16-.75.29-1.13.42a6.93,6.93,0,0,1-.73-3.6,24.13,24.13,0,0,1,.94-3.48c.25-1.06.52-3.07.53-3.21h0c-.23.15-.46.31-.7.45a6.31,6.31,0,0,1-4.38,1.15,7.76,7.76,0,0,1-4.44-2.94c-.3.22-.75.49-.84.54a2.71,2.71,0,0,1-.52.22v.06l.19.51a29.72,29.72,0,0,0,2.38,5.61A19.23,19.23,0,0,1,18.23,34,13.17,13.17,0,0,1,20,7.71a12.39,12.39,0,0,1,2.35.38A35.37,35.37,0,0,1,20,11.82a42.74,42.74,0,0,1-3.65,3.85,5.87,5.87,0,0,0-1.91,4,4.44,4.44,0,0,0,2,3.39,5.6,5.6,0,0,0,4,.86,3.44,3.44,0,0,0,3.09-2.36c.41-1.5-.94-2.9-1.38-4.1-.6-1.69.56-3.67,1.48-5.37a24.11,24.11,0,0,1,1.77-2.77,12.68,12.68,0,0,1,2.93,2.21,13.14,13.14,0,0,1,.05,18.59l-.05,0"/><path class="cls-2" d="M19.3,4.41A16.3,16.3,0,1,0,35.61,20.7v0A16.3,16.3,0,0,0,19.3,4.37m0,29.16A12.86,12.86,0,1,1,32.16,20.66h0A12.84,12.84,0,0,1,19.35,33.56H19.3"/><path class="cls-1" d="M37,20A17.72,17.72,0,0,0,19.51,3"/><path class="cls-1" d="M19.51,3V9.28A11.42,11.42,0,0,1,30.7,20H37"/></g></svg>