<svg xmlns="http://www.w3.org/2000/svg" viewBox="0 0 40 40"><defs><style>.cls-1{fill:#60a1d8;}.cls-2{fill:#fff;}.cls-3{fill:#1c3e7a;}</style></defs><title>obrazek_2</title><g id="Warstwa_1" data-name="Warstwa 1"><path class="cls-1" d="M16.55,23l.28,0,.28,0a1.07,1.07,0,0,0,.27-.12l.12-.07.14-.06.16,0c.15.27-.14.53,0,.82l0,.06v.12a.29.29,0,0,1-.18.18l-.06,0h-.08l-.07,0-.08,0-.15-.06-.16-.05a.82.82,0,0,0-.31,0h-.1l-.7,0-.12,0-.11,0a.59.59,0,0,1-.55,0,.48.48,0,0,1,0-.71l.1-.06h.13l.13,0a3.6,3.6,0,0,0,.87,0Z"/><path class="cls-2" d="M16.55,23l0,.07.27,0a1.37,1.37,0,0,0,.28,0h0a1.45,1.45,0,0,0,.29-.13l0-.06,0,.06.13-.06.11-.05.13,0,0-.07-.07,0,0,.14c0,.12-.06.26-.06.42l.07.26.06,0-.07,0,0,0v.11h.07l-.07,0-.14.13,0,.07,0-.07-.06,0h0l-.07,0-.07,0h0l-.16-.05-.16-.05h0l-.2,0h-.24v0c-.21,0-.44,0-.69,0h0l-.12,0h0l-.12,0a1.22,1.22,0,0,1-.3.06l-.19-.05,0,.06.05-.06a.42.42,0,0,1-.14-.33.31.31,0,0,1,.12-.26l-.05-.06,0,.06.08-.05h.23v0l.26,0c.21,0,.42-.05.6,0h0l.17-.06,0-.07,0,.07,0-.07,0-.07-.15.05,0,.07V23h0c-.2,0-.41,0-.6,0l-.23,0h-.3l-.12.08h0a.48.48,0,0,0-.17.38.62.62,0,0,0,.19.45h0l.27.08a.89.89,0,0,0,.34-.07l0-.07,0,.07.11,0H16v0c.25,0,.47,0,.69,0h.11v0h.12l.16,0,0-.07,0,.07.15.05,0-.07,0,.07.16.06,0-.07,0,.07.08,0,.08,0h.12l.07,0h0a.4.4,0,0,0,.22-.24h0V23.6h0l0-.07h0l-.05-.18c0-.12.06-.26.06-.42l-.06-.22,0,0-.18,0h0l-.15.07h0l-.13.07h0l-.25.12h0l-.27,0-.28,0h0Z"/><path class="cls-1" d="M21,22.23a.67.67,0,0,0,.22-.19l0-.05a.48.48,0,0,1,.4-.25l.09,0c.35-.14.55.22.79.4l.07.05c.31.19,0,.61-.32.68l-.1,0c-.52.12-1.06,0-1.56.15l-.15,0a4.6,4.6,0,0,1-.7.2l-.13,0c-.27.14-.56.18-.83.32l-.14,0a1,1,0,0,1-.29,0h-.15a.53.53,0,0,1-.23-.82l.12-.12a13.88,13.88,0,0,1,1.61-.2l.16,0,.81-.19.19-.07Z"/><path class="cls-2" d="M21,22.23l0,.07a.83.83,0,0,0,.24-.21l0-.06h0a.43.43,0,0,1,.35-.21l.09,0h0l.13,0c.2,0,.37.25.59.42h0l.07.05.09.14c0,.15-.2.37-.38.4h0l-.1,0,0,.08,0-.08c-.49.13-1,0-1.56.16l0,.07,0-.07-.14,0h0a4.29,4.29,0,0,1-.7.2l-.13,0h0c-.24.13-.54.17-.83.31l0,.07,0-.07-.13,0,0,.07,0-.07-.27,0h0v0l-.14,0v.08l0-.07a.41.41,0,0,1-.29-.41.55.55,0,0,1,.09-.3l-.06,0,.05.05.12-.12-.05-.05,0,.07a11.31,11.31,0,0,1,1.6-.19h0l.16,0h0l.81-.19h0l.19-.07.1,0h0l0-.07,0-.07-.1,0h0l-.18.07,0,.07,0-.08-.8.2v0l-.16,0a11,11,0,0,0-1.62.2h0l-.13.13h0a.66.66,0,0,0-.12.38.57.57,0,0,0,.39.55h0l.15,0h0a1.06,1.06,0,0,0,.31-.05h0l.14,0h0c.26-.14.55-.18.83-.32l0-.07,0,.08.13,0,0-.07,0,.07a4.25,4.25,0,0,0,.71-.2l0-.07,0,.08.15,0h0c.47-.14,1,0,1.56-.15h0l.1,0,0-.07,0,.07a.65.65,0,0,0,.5-.55.32.32,0,0,0-.16-.27l-.07,0,0,.06,0-.06c-.19-.13-.36-.44-.68-.45l-.18,0,0,.07,0-.07h-.09a.56.56,0,0,0-.45.3l.07,0-.07,0,0,.05.07,0-.06,0-.19.16,0,.07,0-.07Z"/><path class="cls-1" d="M15.35,22.06l.23,0c.26-.05.47-.22.73-.28l.07,0c.19-.07.42-.22.64-.09l.05,0c.06.07.08.17,0,.34l0,.07,0,.06v.08a4.9,4.9,0,0,1,.18.46c0,.17-.17.22-.33.19h-.15l-.09,0-.08,0a3.19,3.19,0,0,0-.69,0c-.26,0-.51,0-.77.06l-.3.05h-.08l-.17,0-.16,0-.09,0c-.22.08-.45.14-.64-.07l0-.07,0-.25v-.08c0-.13,0-.33.07-.43s.41,0,.55,0,.32,0,.47,0,.45,0,.67,0"/><path class="cls-2" d="M15.35,22.06v.07l.23,0h0c.28-.05.49-.22.72-.27h0l.07,0h0a1.19,1.19,0,0,1,.42-.13l.15,0,0-.07L17,21.7l.06,0,0-.06-.05.06,0,.09L17,22l.07,0L17,22l0,.06,0,.07v.12h0a3.4,3.4,0,0,1,.18.46l.07,0h-.08c0,.09-.05.12-.16.13h-.23l-.07,0-.08,0h0a1.62,1.62,0,0,0-.31,0h-.4a5.12,5.12,0,0,0-.78.06l-.3,0h0l-.09,0-.17,0h0l-.16,0h0l-.1,0,0,.07,0-.07A.82.82,0,0,1,14,23a.32.32,0,0,1-.26-.12l-.06.05.07,0,0-.07,0-.24h0l0-.09-.07,0h.07v-.15a.28.28,0,0,1,.06-.21l.12,0c.12,0,.27,0,.38.05h0c.16,0,.31,0,.46,0s.44,0,.67,0h0V22c-.21,0-.44,0-.66,0s-.3,0-.45,0h0c-.07,0-.23-.05-.38-.05l-.22.07a.42.42,0,0,0-.11.32v.17h0l0,.08,0,.25h0l0,.08v0h0a.51.51,0,0,0,.38.17,1,1,0,0,0,.34-.08l.09,0,.15,0,.17,0v0h.09l0-.07,0,.07.29,0a4.87,4.87,0,0,1,.76-.06h.4a1.27,1.27,0,0,1,.28,0v-.07l0,.07.08,0h0l.09,0h.17v0H17l.21-.07.1-.21h0c-.06-.16-.11-.33-.18-.48l-.07,0h.08v-.06l0,0,0-.07h0l0-.21-.08-.2h0l-.06-.05h0l-.23-.06a1.38,1.38,0,0,0-.47.14l0,.07,0-.07-.08,0,0,.07,0-.07c-.28.06-.49.23-.72.27v0l-.23,0Z"/><path class="cls-1" d="M19,21.51a1.15,1.15,0,0,0,.37,0l.46-.12a4.65,4.65,0,0,0,.91-.22,1.23,1.23,0,0,1,.9-.12l.11,0a.54.54,0,0,1,.37.39.68.68,0,0,1-.24.32l-.12.06a1.61,1.61,0,0,1-.87,0A2,2,0,0,0,20,22c-.3.07-.61.09-.91.17l-.09,0a4.45,4.45,0,0,1-1.34.32h-.12a.35.35,0,0,1-.29-.15.52.52,0,0,1,.16-.7l.13-.07a2.25,2.25,0,0,1,1.21,0l.13,0Z"/><path class="cls-2" d="M19,21.51v.08l.27,0h.11c.17,0,.32-.09.47-.12a5.62,5.62,0,0,0,.92-.23,1.49,1.49,0,0,1,.6-.16l.25,0,.1,0,0-.07,0,.07a.45.45,0,0,1,.32.33h0l-.21.28.05,0,0-.06-.11.06,0,.06,0-.07a1,1,0,0,1-.39.07,3.13,3.13,0,0,1-.44,0l-.39,0a2.13,2.13,0,0,0-.55.07c-.28.08-.6.09-.91.17h0l-.09,0h0a4.39,4.39,0,0,1-1.31.31v0h-.13a.25.25,0,0,1-.23-.11l-.06,0,.07,0L17.21,22a.39.39,0,0,1,.19-.36l0-.07,0,.07.13-.07,0-.07,0,.07a1.09,1.09,0,0,1,.43-.08,4.54,4.54,0,0,1,.74.1h0l.14,0H19v-.15h-.14l-.13,0v0a5.6,5.6,0,0,0-.76-.1,1.46,1.46,0,0,0-.49.09h0l-.13.08h0a.53.53,0,0,0-.27.49.7.7,0,0,0,.07.31h0a.41.41,0,0,0,.34.17v0h.13A4.16,4.16,0,0,0,19,22.21l0-.07,0,.08.09,0,0-.07,0,.07c.29-.08.6-.09.91-.17a1.84,1.84,0,0,1,.51-.07,2.19,2.19,0,0,1,.36,0,3.57,3.57,0,0,0,.47,0,1.19,1.19,0,0,0,.45-.08h0l.12-.06h0a.73.73,0,0,0,.27-.37h0a.59.59,0,0,0-.41-.45h0l-.11,0a1.11,1.11,0,0,0-.3,0,1.65,1.65,0,0,0-.66.17,4.74,4.74,0,0,1-.9.22l-.46.12h-.08l-.27,0h0Z"/><path class="cls-1" d="M14.43,20a3,3,0,0,0,1.11,0,1.21,1.21,0,0,1,.47-.12h.11l.08,0c.16.11.14.3.1.49l0,.12c-.08.22,0,.39,0,.61l-.05.07c-.26.24-.68-.08-.92-.18a2,2,0,0,0-.59-.13c-.2,0-.41,0-.61,0a7.93,7.93,0,0,0-1.09,0,.49.49,0,0,1-.61-.4v-.11a.53.53,0,0,1,.4-.51,1.58,1.58,0,0,1,.53.07,3.72,3.72,0,0,0,.88.05Z"/><path class="cls-2" d="M14.43,20v.07c.19,0,.39,0,.59,0a1.44,1.44,0,0,0,.55-.08h0A1.29,1.29,0,0,1,16,19.9v0h0v0h.11l.06,0,0-.07-.05.06a.23.23,0,0,1,.1.22l0,.19,0,.12.07,0-.07,0,0,.2c0,.17.06.3.06.44h.08l-.06,0,0,.07.06,0-.05-.06-.18.07a2.16,2.16,0,0,1-.66-.26,2.15,2.15,0,0,0-.62-.14h-.05c-.2,0-.38,0-.56,0h-.07l-.67,0a2.19,2.19,0,0,0-.36,0h-.1a.38.38,0,0,1-.42-.34h0v-.11h0a.49.49,0,0,1,.35-.45h.07a2.65,2.65,0,0,1,.43.08,5.06,5.06,0,0,0,.77,0h.12v0h.19v-.15h-.31a4.73,4.73,0,0,1-.75-.05,2.79,2.79,0,0,0-.45-.08h-.1a.63.63,0,0,0-.47.59h0v.11h0a.53.53,0,0,0,.57.47h.13l.33,0,.67,0h.07c.2,0,.38,0,.56,0h.05a2,2,0,0,1,.57.13,2,2,0,0,0,.71.27.38.38,0,0,0,.28-.11h0l.05-.08v0c0-.18-.06-.31-.06-.44l0-.15h0l0-.12,0-.23a.39.39,0,0,0-.16-.34h0l-.08,0H16v0h0a1.26,1.26,0,0,0-.5.12l0,.07,0-.07a1.35,1.35,0,0,1-.5.07l-.58,0h0Z"/><path class="cls-1" d="M18.91,20.06A18,18,0,0,0,20.84,20c.25,0,.77-.2,1,0l.07.06.06.08,0,.1a1.42,1.42,0,0,0,0,.3v.11c.06.37-.14.5-.38.49l-.15,0a7.68,7.68,0,0,0-3.27-.16,2.86,2.86,0,0,1-1.76-.05l-.07-.1-.06-.11,0-.15v-.11l0-.09,0-.08,0-.09c.13-.24.5-.14.7-.32h.1a1,1,0,0,1,.49.09l.16.05a5.2,5.2,0,0,0,1.1.15"/><path class="cls-2" d="M18.91,20.06v.07h.2c.58,0,1.15-.07,1.73-.12.19,0,.48-.1.71-.1a.4.4,0,0,1,.24.06l0-.06,0,0,.06.06.05.06,0,.09.07,0-.07,0a1.24,1.24,0,0,0,0,.27v.16h0v.11c0,.23-.11.28-.28.29h0v0l-.15,0V21l0-.08a9.37,9.37,0,0,0-2.1-.27,6.28,6.28,0,0,0-1.21.12,5.76,5.76,0,0,1-.93.11,1.66,1.66,0,0,1-.77-.16l0,.07.06,0-.07-.09,0-.1,0-.12v-.1l0-.07,0-.07,0-.09-.07,0,.07,0c0-.09.14-.12.27-.15a.93.93,0,0,0,.41-.15l-.05-.06v.07h.1v0h.07a.85.85,0,0,1,.38.09h0l.17.05a4.79,4.79,0,0,0,1.12.15V20a4.46,4.46,0,0,1-1.08-.15l-.16,0,0,.07,0-.06a.91.91,0,0,0-.45-.11H17a.71.71,0,0,1-.34.12.5.5,0,0,0-.38.23h0l0,.09h0l0,.09h0l0,.09h0v.12h0l0,.15h0l.06.13h0l.08.1h0a1.87,1.87,0,0,0,.84.18,4.94,4.94,0,0,0,1-.12,6.82,6.82,0,0,1,1.18-.11,9.1,9.1,0,0,1,2.06.27h0l.15,0h0a.45.45,0,0,0,.3-.1.41.41,0,0,0,.13-.34v-.13h0v-.16l0-.23v0L22,20v0L22,19.93h0l-.07-.06h0a.55.55,0,0,0-.33-.09c-.26,0-.56.09-.72.1-.58.05-1.15.12-1.72.12h-.2Z"/><path class="cls-1" d="M14.44,18.19a2.07,2.07,0,0,0,.42.08h.08c.25,0,.46-.13.75-.11h.09c.16,0,.31,0,.35.17l0,.09v.19l-.06.23v.08c-.05.21.06.4-.1.57s-.45.16-.69,0a3.13,3.13,0,0,0-1-.46,4.06,4.06,0,0,0-.7-.09l-.32,0H13l-.29-.13a1,1,0,0,1,.08-.65c.13-.26.34-.21.59-.16s.74.11,1.1.2"/><path class="cls-2" d="M14.44,18.19l0,.08.43.08h.09v0H15c.23,0,.42-.12.63-.12h.15v0h.09c.11,0,.15,0,.18.11h0l0,.09v.17l-.06.23,0,.08h0v.32l-.07.21a.34.34,0,0,1-.25.13.59.59,0,0,1-.35-.14l0,.06,0-.06a3,3,0,0,0-1-.47,4.6,4.6,0,0,0-.71-.09l-.25,0H13v.07l0-.06-.28-.14,0,.07.08,0,0-.19a1,1,0,0,1,.1-.4c.07-.14.13-.16.24-.16a.89.89,0,0,1,.27,0c.37.07.74.12,1.09.21l0-.08,0-.07c-.37-.09-.74-.14-1.11-.21a2.58,2.58,0,0,0-.29,0,.38.38,0,0,0-.38.24,1.12,1.12,0,0,0-.11.47l0,.23v0l.32.14h.43l.23,0a4.84,4.84,0,0,1,.69.08,3.18,3.18,0,0,1,1,.45h0a.86.86,0,0,0,.44.17.44.44,0,0,0,.36-.18.42.42,0,0,0,.11-.31v-.29l-.07,0,.07,0,0-.08.05-.23h0l0-.1h0v-.1h0l0-.1h0a.3.3,0,0,0-.33-.23h-.2v0h0c-.26,0-.45.12-.63.12h-.15v0l-.4-.08Z"/><path class="cls-1" d="M18.63,18.88a9.76,9.76,0,0,0,1.95,0l.15,0,.13-.05.14-.06c.25-.1.58-.32.85,0a.72.72,0,0,1,.11.39v.14c0,.29.06.62-.16.78s-.54,0-.84-.11a6.81,6.81,0,0,0-2.33-.32h-.18a4.09,4.09,0,0,0-1.4.07l-.17,0a.81.81,0,0,1-.62-.11l-.09-.12a.69.69,0,0,1,.39-.84,1,1,0,0,1,.69,0l.14,0a6.43,6.43,0,0,0,1.25.24"/><path class="cls-2" d="M18.63,18.88V19c.31,0,.62,0,.92,0s.71,0,1.05-.05h0l.15,0h0l.15-.05h0L21,18.8l0-.06,0,.07a1.28,1.28,0,0,1,.51-.17l.26.11.05-.06-.06,0a.58.58,0,0,1,.09.34h0v.14h0c0,.11,0,.21,0,.31a.47.47,0,0,1-.14.41h0l-.18.09a2.47,2.47,0,0,1-.58-.23,7.06,7.06,0,0,0-2.36-.33h-.18v0a2,2,0,0,0-.42,0,7.65,7.65,0,0,0-1,.11h0l-.16,0v0h-.17a.58.58,0,0,1-.39-.11l-.05.06.06-.05-.09-.12-.06.05.07,0,0-.17a.67.67,0,0,1,.39-.56h0l.25,0a1.11,1.11,0,0,1,.37.07h0l.15,0,0-.07,0,.07a7.4,7.4,0,0,0,1.26.25v-.15a7,7,0,0,1-1.24-.24l-.14,0,0,.07,0-.07a1.36,1.36,0,0,0-.42-.08.71.71,0,0,0-.32.07l0,.06,0-.07a.84.84,0,0,0-.48.7l.05.24h0l.09.13h0a.68.68,0,0,0,.48.15h.19l.17,0h0a7.73,7.73,0,0,1,1-.11,1.72,1.72,0,0,1,.39,0h.19a6.84,6.84,0,0,1,2.31.32,2.35,2.35,0,0,0,.64.24.36.36,0,0,0,.29-.15L21.79,20l.05.06a.62.62,0,0,0,.2-.53c0-.1,0-.21,0-.31h0v-.13h0a.78.78,0,0,0-.12-.43h0a.5.5,0,0,0-.36-.15,1.53,1.53,0,0,0-.57.18h0l-.14.06-.12.05-.14,0v0c-.33,0-.68.05-1,.05s-.6,0-.9,0Z"/><path class="cls-1" d="M19.09,16.36l.12,0h.12c.2.08.39.19.61.26a8.45,8.45,0,0,1,.85.28,2.52,2.52,0,0,0,1,.31h.1a.78.78,0,0,1,.45.2l.06.08,0,.08.07.08,0,.11,0,.09v.1a.62.62,0,0,1-.18.31l-.08.06a.72.72,0,0,1-.58.16c-.21,0-.32-.2-.47-.34a2.35,2.35,0,0,0-.37-.24,2.23,2.23,0,0,0-1-.33l-.23,0-.1,0c-.32.09-.86.14-.9-.36l0-.09c-.06-.23-.1-.45.08-.62l.11-.05.16,0,.08,0Z"/><path class="cls-2" d="M19.09,16.36v.07h.23v-.08l0,.07c.2.08.39.19.61.26a7.05,7.05,0,0,1,.85.28,2.6,2.6,0,0,0,1,.31h.06v0h.1v0a.66.66,0,0,1,.41.19l.05-.06-.06.05.06.07,0,.08h0l.06.07,0,.08v.17h.07l-.07,0-.17.27.06.06-.05-.06-.08.06,0,.06,0-.06a.66.66,0,0,1-.42.15h-.11c-.17,0-.27-.17-.43-.31a2.86,2.86,0,0,0-1.45-.6h0l-.23,0h0l-.11,0h0a1.5,1.5,0,0,1-.37.05c-.24,0-.41-.06-.43-.34h0l0-.1a1.1,1.1,0,0,1-.05-.29.34.34,0,0,1,.11-.25l-.05-.06,0,.07.11-.05.15,0h0l.08,0h0l.07,0,0-.06v0l0-.07-.06,0-.07,0-.16,0h0l-.12.07h0a.46.46,0,0,0-.16.36,1.28,1.28,0,0,0,.06.33l0,.1.07,0h-.07a.51.51,0,0,0,.58.48,1.76,1.76,0,0,0,.41-.06l0-.07v.07l.1,0,.23,0v0a2.24,2.24,0,0,1,1,.33,2.21,2.21,0,0,1,.36.23,1,1,0,0,0,.5.35h.14a.85.85,0,0,0,.51-.18l.07-.07h0a.62.62,0,0,0,.2-.35h0v-.11h0v-.1h0l0-.1v0l-.08-.08-.05-.08h0l-.07-.07h0a.87.87,0,0,0-.5-.23h-.15a2.46,2.46,0,0,1-.94-.3c-.28-.12-.58-.19-.86-.28s-.39-.18-.61-.26h-.29Z"/><path class="cls-1" d="M23.49,22.14a.42.42,0,0,1,.29.5l-.07,0c-.11,0-.33.05-.43,0l-.08-.07,0-.11a.36.36,0,0,1,.21-.29l.09,0Z"/><path class="cls-2" d="M23.49,22.14l0,.07a.33.33,0,0,1,.24.35v.07h.07l0-.06-.08,0,0,.07V22.6l-.24,0-.14,0,0,.05,0-.05-.06-.06,0-.1-.07,0h.07a.33.33,0,0,1,.17-.23l0-.06,0,.07.07,0h0v-.07l0,.07,0-.07v-.08h-.05l-.11,0h0a.49.49,0,0,0-.25.36h0l.05.13v0l.08.07h0l.25.07.24,0h0l.09,0,0,0v-.13a.49.49,0,0,0-.36-.5h0Z"/><path class="cls-1" d="M24.08,21.61l.16,0a.74.74,0,0,1,.43.4.38.38,0,0,1-.35.5c-.35,0-1-.38-.58-.74a.54.54,0,0,1,.34-.19"/><path class="cls-2" d="M24.08,21.61v.07l.16,0v-.07l0,.07a.59.59,0,0,1,.38.36l0,.1a.29.29,0,0,1-.3.29h0a.85.85,0,0,1-.41-.13.38.38,0,0,1-.21-.28.24.24,0,0,1,.12-.19.57.57,0,0,1,.3-.18v-.15a.71.71,0,0,0-.39.21.41.41,0,0,0-.17.31.53.53,0,0,0,.28.41,1,1,0,0,0,.49.15h0a.44.44,0,0,0,.44-.44l0-.15a.8.8,0,0,0-.47-.45h0l-.17,0h0Z"/><path class="cls-1" d="M22.38,21.22l.24-.06a1.94,1.94,0,0,1,.53-.05h.09c.24,0,.73.05.68.39l0,.08c-.15.16-.36.28-.53.45l-.07.07c-.17.17-.33.33-.58.24a.86.86,0,0,1-.48-.42.63.63,0,0,1,0-.58Z"/><path class="cls-2" d="M22.38,21.22l0,.07.24-.06,0-.07,0,.08a2,2,0,0,1,.42-.06h.08v0l.09,0v0a3.2,3.2,0,0,1,.41.07c.14,0,.21.09.21.19v0l.08,0-.08,0v.08l.07,0-.06-.05c-.13.15-.34.27-.52.44l-.08.08h0c-.13.14-.24.24-.38.24l-.12,0a.8.8,0,0,1-.43-.38.94.94,0,0,1-.08-.32l.05-.19-.06,0,0,.06.17-.13-.05-.06,0,.07,0-.07,0-.06-.17.13h0a.52.52,0,0,0-.07.27.8.8,0,0,0,.1.38.92.92,0,0,0,.51.46l.17,0a.68.68,0,0,0,.49-.29l-.05-.05.05.05.07-.07L23.37,22l.05.05c.16-.16.38-.28.53-.45l0,0,0-.1h0v-.06a.36.36,0,0,0-.31-.34c-.16,0-.33-.05-.43-.07l-.1,0h-.1a2.13,2.13,0,0,0-.45.06h0l-.25.06h0Z"/><path class="cls-1" d="M23.32,19.93c.34-.05.68-.06.86.23a1.11,1.11,0,0,1,0,.65.45.45,0,0,1-.44.34l-.11,0h-.09a1.14,1.14,0,0,0-.37,0h-.33c-.27,0-.54.13-.77-.08l0-.07c0-.22-.11-.43.1-.66a.83.83,0,0,1,.67-.25,4.33,4.33,0,0,0,.54-.09"/><path class="cls-2" d="M23.32,19.93l0,.08a1.53,1.53,0,0,1,.3,0,.48.48,0,0,1,.47.22l0,.19a2.18,2.18,0,0,1,0,.4.4.4,0,0,1-.37.29v.07l0-.07-.12,0v.07l0-.07-.09,0,0,.08,0-.08a1.36,1.36,0,0,0-.3,0h-.1v0h-.34v0c-.16,0-.3.05-.43.05a.4.4,0,0,1-.29-.1l-.05.05.06,0-.05-.07-.06,0h.08c0-.12,0-.24,0-.34a.42.42,0,0,1,.1-.28.77.77,0,0,1,.62-.21c.17,0,.36-.06.56-.09l0-.08v-.07c-.2,0-.39.08-.53.09a.9.9,0,0,0-.73.27.52.52,0,0,0-.14.37c0,.13,0,.24,0,.34v0L22,21h0a.55.55,0,0,0,.39.14c.15,0,.3,0,.44-.05h.25v0h.17a1.26,1.26,0,0,1,.27,0h0l.09,0h0l.11,0h0a.52.52,0,0,0,.5-.41,1.65,1.65,0,0,0,.06-.43.46.46,0,0,0-.06-.26.66.66,0,0,0-.6-.3,1.84,1.84,0,0,0-.33,0Z"/><path class="cls-1" d="M24.6,20.5c.2.05.42.1.48.33l0,.09a.6.6,0,0,1,0,.35l0,.09c-.12.28-.34.5-.6.28l-.06,0-.06,0-.15-.11a1.09,1.09,0,0,1,.07-.79l.11-.12.15-.06Z"/><path class="cls-2" d="M24.6,20.5l0,.07c.2.05.38.1.43.28h0l0,.09.07,0-.08,0,0,.14,0,.17.07,0-.07,0,0,.09.07,0-.07,0c-.08.19-.21.33-.32.33l-.16-.08h0l-.07,0-.05,0-.14-.11-.05.06.07,0-.05-.23a1.58,1.58,0,0,1,.12-.5l-.07,0,0,.05.1-.1.12-.06h.05V20.5l0,.07,0-.07v-.08h-.08l-.17.08h0l-.12.13h0v0a1.64,1.64,0,0,0-.13.55.75.75,0,0,0,.06.29v0l.16.12h0l.06,0h0l.07,0,0-.07-.05.06.26.11c.23,0,.37-.21.46-.42h0l0-.1h0l0-.21,0-.19h0l0-.09-.07,0,.07,0c-.08-.27-.34-.33-.53-.38h0Z"/><path class="cls-1" d="M24.32,20.38l.1,0,.1,0a.31.31,0,0,0,.42-.23.85.85,0,0,0-.32-.83c-.35-.34-.78-.84-1.23-.35l-.06.07c-.17.16-.39.38-.33.6s.38.16.58.14h.22c.23.07.56.23.52.48Z"/><path class="cls-2" d="M24.32,20.38l0,.07.1,0h0l.11,0v-.07l0,.07.14,0a.4.4,0,0,0,.37-.31L25,20a1,1,0,0,0-.37-.71c-.24-.23-.52-.57-.88-.58a.68.68,0,0,0-.46.23h0l-.06.07.06,0,0,0a.92.92,0,0,0-.37.58v.09a.36.36,0,0,0,.38.22,2.16,2.16,0,0,0,.29,0v0h.12l.08,0v-.08l0,.07c.21.06.49.22.47.37v0h0v.14h.06l0-.07h.07v-.07h0v-.05c0-.3-.35-.44-.58-.51h-.25l-.27,0c-.14,0-.22,0-.23-.11v-.05c0-.15.17-.34.32-.47h0l.06-.07-.05,0,.05.06a.48.48,0,0,1,.35-.19c.25,0,.53.29.78.54a.9.9,0,0,1,.32.6l0,.15a.24.24,0,0,1-.22.2l-.09,0h0l-.11,0v.07l0-.07-.11,0v.07h0Z"/><path class="cls-1" d="M22.89,18.05c.38-.07.57.51.49.8s-.3.3-.38.51,0,.3-.14.44a.64.64,0,0,1-.42.2c-.3,0-.43-.1-.41-.38a3,3,0,0,0,0-.52c0-.16-.13-.34-.07-.5s.33-.22.5-.2l.21-.14.13-.19Z"/><path class="cls-2" d="M22.89,18.05v.07H23a.33.33,0,0,1,.26.18.83.83,0,0,1,.11.4v.13c0,.17-.28.26-.38.5s0,.31-.13.42a.59.59,0,0,1-.37.18h-.07c-.19,0-.25-.07-.26-.26v-.05c0-.11,0-.22,0-.34v-.19A2.26,2.26,0,0,1,22,18.7v-.08c0-.1.19-.15.35-.15h.1l.23-.15h0l.13-.19h.05l0-.07v0l0-.08-.08,0h0l-.15.21-.19.12,0,.07v-.08h-.09c-.17,0-.42,0-.49.25l0,.13a3,3,0,0,0,.08.41v.17c0,.11,0,.22,0,.33v.06a.44.44,0,0,0,.1.3.41.41,0,0,0,.31.11h.09a.7.7,0,0,0,.47-.24c.14-.17.1-.33.15-.46s.3-.25.38-.51l0-.17c0-.3-.16-.72-.52-.73h-.08Z"/><path class="cls-1" d="M28.45,23.07h.68a3.1,3.1,0,0,1,.62,0v-1c-.36,0-.71.05-1.06.05h0A6.82,6.82,0,0,1,27.09,22a3.82,3.82,0,0,1-.91-.44L26,21.49l-.14-.07h-.14l-.15.05-.15.07c-.32.22.11.66,0,1l-.06.17-.09.16c-.13.17,0,.28.18.32.42.14.92-.11,1.35-.13s1.09,0,1.63,0"/><path class="cls-2" d="M28.45,23.07v.07h.34l.22,0h.13l.25,0h.43V22h-.07c-.36,0-.72,0-1.06.06h0a7.19,7.19,0,0,1-1.54-.16,3.37,3.37,0,0,1-.9-.43l-.15-.07h0l-.14-.06h0l-.15,0h0l-.16.06h0l-.15.08h0a.35.35,0,0,0-.16.29c0,.22.14.44.13.62v.1h0l-.06.17-.09.16.07,0-.06,0-.06.16c0,.17.17.24.28.28a1,1,0,0,0,.3,0c.37,0,.76-.16,1.08-.17h.25c.43,0,.87,0,1.32,0h.05V23H28.4c-.44,0-.88,0-1.32,0h-.26c-.36,0-.74.17-1.07.17l-.26,0c-.09,0-.18-.1-.17-.13l0-.07h0l.09-.17h0l.07-.17-.07,0,.07,0,0-.16c0-.23-.13-.46-.13-.62l.09-.16,0-.07,0,.07.14-.07.13-.05.11,0,.12.06.15.08a3.62,3.62,0,0,0,.93.44,7.63,7.63,0,0,0,1.58.16h0l1.06-.06v-.07h-.08v1h.08V23h-.36l-.28,0,0,.08V23H29v0l-.23,0h-.34Z"/><path class="cls-1" d="M26.62,21.22l.16,0a1.56,1.56,0,0,1,.45-.11l.18,0,.17,0,.4-.07.13,0a1.51,1.51,0,0,1,.67,0L29,21a3.07,3.07,0,0,0,.8,0V19.53c-.78-.08-1.57-.1-2.32-.25l-.13-.05c-.32-.15-.54-.54-1-.57l-.3-.08a1.88,1.88,0,0,0-1.26,0l-.09.08-.08.11c-.14.23.1.45.29.72l.11.16a1.49,1.49,0,0,1,.24.49l0,.13a1.19,1.19,0,0,1,0,.53l0,.18c0,.3.07.68.45.57s.6-.22.95-.31"/><path class="cls-2" d="M26.62,21.22l0,.07.15-.05a1.66,1.66,0,0,1,.44-.11h0l.19,0,.16,0v0L28,21h0l.14,0h0l.25,0a1.74,1.74,0,0,1,.39.05l.16,0h0l.43,0a2.56,2.56,0,0,0,.39,0h.06V19.46h-.07a19,19,0,0,1-2.3-.25l0,.08,0-.08-.13,0,0,.07,0-.07c-.29-.13-.52-.53-1-.58v.08l0-.08-.3-.07a2.68,2.68,0,0,0-.75-.13,1.4,1.4,0,0,0-.56.11h0l-.1.09h0l-.09.12h0l-.05.18c0,.23.21.41.35.62l.06,0-.06,0,.1.16h0a1.7,1.7,0,0,1,.23.47l.07,0-.07,0,0,.12h0l0,.18a2,2,0,0,1,0,.32l0,.18v.14a.61.61,0,0,0,.09.35.35.35,0,0,0,.32.19l.14,0h0c.32-.11.6-.21.94-.31h0l0-.07,0-.07c-.35.09-.63.2-1,.31l0,.07,0-.07-.1,0a.22.22,0,0,1-.2-.11.61.61,0,0,1-.06-.28V21l0-.18c0-.11,0-.23,0-.34l0-.23-.07,0,.07,0,0-.13h0a2,2,0,0,0-.26-.52l-.06.05.06,0-.1-.16h0c-.15-.21-.32-.4-.32-.53l0-.1-.06,0,.06,0,.08-.1.08-.07-.05-.06,0,.07a1.27,1.27,0,0,1,.5-.1,2.93,2.93,0,0,1,.71.12l.3.08h0c.4,0,.61.39,1,.57h0l.14.05h0a19.83,19.83,0,0,0,2.32.25v-.07h-.08v1.41h.08l0-.07a2.1,2.1,0,0,1-.36,0l-.42,0v0l-.17,0a1.84,1.84,0,0,0-.41-.05,1,1,0,0,0-.29,0l0,.07v-.08l-.13,0h0l-.4.06-.17,0-.18,0v0a1.69,1.69,0,0,0-.48.12l-.15,0,0,.07,0-.07Z"/><path class="cls-1" d="M15.73,20.66a.65.65,0,0,0-.28.08c-.11.07-.3.22-.4.06a1.16,1.16,0,0,1,0-.42c0-.12,0-.32.1-.39h.09a1.66,1.66,0,0,0,.91.07h.09a.34.34,0,0,1,.36.28l0,.08c.05.29-.27.39-.51.28h-.34Z"/><path class="cls-2" d="M15.73,20.66v-.07a.59.59,0,0,0-.33.09l-.23.12-.05,0,0-.19v-.31c0-.1,0-.19.06-.2l0-.07v.08l.09,0V20l0,.07a2.87,2.87,0,0,0,.65.12.86.86,0,0,0,.3-.05l0-.07v.08l.09,0v0h0a.28.28,0,0,1,.27.22h0v.12c0,.13-.1.19-.24.2l-.17,0h-.37v.15h.33v-.07l0,.07.23.05a.41.41,0,0,0,.26-.09.3.3,0,0,0,.13-.26v-.07l0-.08h0a.41.41,0,0,0-.41-.34h0l-.1,0h0a.87.87,0,0,1-.26,0,3.07,3.07,0,0,1-.62-.12h0l-.11,0h0a.34.34,0,0,0-.14.33v.31l.05.27.18.11a.73.73,0,0,0,.32-.14.4.4,0,0,1,.24-.07Z"/><path class="cls-1" d="M13.84,20.76a1.35,1.35,0,0,0-.53,0,3.43,3.43,0,0,0-.45.16c-.43.16-.34-.33-.39-.59s-.11-.37,0-.49l.37,0a2.13,2.13,0,0,0,.42.1,3.49,3.49,0,0,0,.79,0,1.77,1.77,0,0,1,.46-.07c.29,0,.24.35.24.56l0,.08,0,.09a.32.32,0,0,1-.34.21h-.1l-.48-.08"/><path class="cls-2" d="M13.84,20.76v-.07l-.23,0a1.4,1.4,0,0,0-.34,0,4,4,0,0,0-.45.16l-.12,0c-.08,0-.1,0-.13-.17s0-.27,0-.39a1.41,1.41,0,0,1-.05-.27l.07-.15-.05-.06v.07l.37,0v-.08l0,.07a2,2,0,0,0,.44.1h.31a2.81,2.81,0,0,0,.5,0,2,2,0,0,1,.39-.07h.05l.14.09,0,.22v.17h.07l-.07,0,0,.08h0l0,.09.08,0-.08,0a.22.22,0,0,1-.23.17h0v0h-.1v.07l0-.07-.49-.08v.15a4,4,0,0,1,.48.08h.14a.39.39,0,0,0,.38-.27h0l0-.08,0-.09h0V20.3a.74.74,0,0,0-.05-.29.28.28,0,0,0-.26-.17h-.06c-.15,0-.29.05-.42.07a2.42,2.42,0,0,1-.47,0h-.3a1.92,1.92,0,0,1-.4-.09h0l-.38-.05h0l0,0a.32.32,0,0,0-.13.27,1.16,1.16,0,0,0,.05.29c0,.1,0,.26,0,.4a.29.29,0,0,0,.27.29l.18,0a3.89,3.89,0,0,1,.44-.16.92.92,0,0,1,.29,0l.21,0Z"/><path class="cls-1" d="M16.41,21.76l-.08,0c-.14.08-.39.21-.46,0l0-.1,0-.09,0-.18v-.09c-.12-.43.44-.21.66-.25s.59-.32.89-.18l.12.06a.52.52,0,0,1,0,.25l-.07.13a.44.44,0,0,1-.3.15,1.58,1.58,0,0,0-.66.26"/><path class="cls-2" d="M16.41,21.76l0-.06-.08.05,0,.06,0-.06-.26.1-.09-.07-.07,0,.07,0,0-.1h0l0-.09,0-.17v-.09h0l0-.08,0-.07.13,0,.37,0h.08a4.06,4.06,0,0,1,.7-.23l.15,0,0-.06,0,.06.12.07,0-.07-.08,0,0,.14v.08h.07l-.06,0-.08.13.07,0-.06-.05a.36.36,0,0,1-.24.13,1.49,1.49,0,0,0-.7.27l0,.06,0,.07a1.42,1.42,0,0,1,.63-.25.56.56,0,0,0,.34-.18h0l.08-.13v0h0v-.1l0-.18v0l-.14-.09h0l-.21-.05c-.28,0-.53.2-.73.23h0L16,21l-.21,0-.11.2,0,.12.08,0h-.08l0,.09h0l0,.18h0l0,.09,0,.1h0A.24.24,0,0,0,16,22a.91.91,0,0,0,.33-.12h0l.08-.05Z"/><path class="cls-1" d="M14.67,22.34l-.09.06a6.25,6.25,0,0,0-.6.4l-.07.06-.24.16h-.08L13.52,23l0-.08,0-.09,0-.08c-.27-.25-.32-.77.12-.84h.11l.09,0,.19,0H14a1.41,1.41,0,0,0,.89-.38l.06-.07.07-.06c.2-.12.34-.06.42.08l0,.09c0,.21.16.28.14.46s-.24.24-.44.28h-.08l-.11,0-.09,0-.11,0Z"/><path class="cls-2" d="M14.67,22.34l0-.06-.1,0h0c-.22.13-.4.27-.6.41h0l-.08.05-.21.15h0l0,0-.05-.07,0-.08,0-.08h0a.61.61,0,0,1-.18-.41.27.27,0,0,1,.26-.3v0h.11l.1,0,.19,0H14a1.52,1.52,0,0,0,.94-.4l-.06,0,.06,0,.06-.07.06-.06,0-.05,0,.06.16-.05.16.1.06,0-.07,0,.05.09.06,0-.07,0v.06c0,.22.15.3.14.4v0h0l-.13.15a.76.76,0,0,1-.25.06l-.09,0,0,.07v-.07l-.12,0h0l-.09,0h0l-.1,0h0l-.1.05h0l0,.06,0,.07.08,0,.09,0H15v0l.11,0h0l.09,0,0-.07,0,.07a1.74,1.74,0,0,0,.29-.07.41.41,0,0,0,.21-.26h0v0c0-.21-.16-.28-.14-.4v-.06l0-.11h0a.35.35,0,0,0-.29-.18l-.23.07h0l-.08.06h0l-.07.07h0a1.28,1.28,0,0,1-.85.35l0,.08v-.08h-.07l-.19,0h0l-.09,0H13.5a.42.42,0,0,0-.39.45.76.76,0,0,0,.22.52l.06-.06-.07,0,0,.08,0,.08h0l.06.08h0l.07.07,0,0h.13l.25-.17h0l.08-.06,0-.06,0,.06c.21-.14.39-.28.6-.4l0-.06,0,.06.1-.05,0-.07,0,.07Z"/><path class="cls-1" d="M16.28,23.24l-.17.05-.09,0a.39.39,0,0,1-.15-.26l0-.08V22.8l0-.11,0-.05,0,0a.48.48,0,0,0,.29,0l.15,0a3.39,3.39,0,0,1,.59-.18H17l.07,0,.05,0,0,.06,0,.21v.07c-.18.19-.4.09-.54.13h0l-.1.06-.09.07-.07.1Z"/><path class="cls-2" d="M16.28,23.24l0-.07-.14,0-.06,0,0,.07.05-.06L15.94,23h0l0-.08v-.1l0-.09v0l0,0-.06,0,0,.08.18,0,.16,0h0l.15,0,0-.07,0,.07a2.55,2.55,0,0,1,.58-.17v0h0l.05,0,0,0,0,0,0,.19v.06h.07l-.05,0a.37.37,0,0,1-.26.1h-.12l-.13,0,0,.07v-.07h-.06l-.11.07h0l-.09.07h0l-.08.11,0,.06.06,0,0-.07,0,.07.06.05.05-.06.06-.1.08-.06.08-.05h.24a.47.47,0,0,0,.37-.15v0l0-.09h0l0-.22h0l0-.07v0l-.06-.05h0l-.08,0h-.09a2.65,2.65,0,0,0-.61.17h0l-.15,0,0,.07v-.07h-.13l-.13,0h-.05l-.06.08h0l0,.05h0l0,.11h0v.13h0l0,.09.07,0-.08,0a.49.49,0,0,0,.19.3h0l.09.05h0l.2-.05h0v0Z"/><path class="cls-1" d="M14.8,23.91l-.06.08-.09.09-.06.06-.07,0h-.08l0,0a.89.89,0,0,1-.21-.41l0-.11c-.27-.46.44-.2.68-.42l.06,0,.06,0,.11,0,0,0,.11-.15,0-.05c.2-.13.36.08.39.25l0,.07c.13.3,0,.53-.41.48h-.08l-.07,0,0,0-.22.14Z"/><path class="cls-2" d="M14.8,23.91l-.06,0-.06.07L14.6,24l0,0-.05,0h0l0,0,0,.06,0-.06a.75.75,0,0,1-.19-.38l0-.1h0l-.05-.13,0-.05c.06,0,.19,0,.31,0a.61.61,0,0,0,.37-.12l-.05-.05,0,.07.06,0h0l.06,0,.1,0h0l.05,0h0l.11-.16,0-.05-.05-.05,0,.06.08,0c.08,0,.18.12.2.23h0l0,.08h0l0,.16c0,.14-.08.21-.28.22h-.2l-.07,0h0l-.06,0h0l-.22.15h0l-.05.05h0l.06,0,0,.06,0,0,.2-.13.05,0,0,0h.08v0h.11a.46.46,0,0,0,.31-.1.33.33,0,0,0,.12-.27l0-.22-.07,0,.07,0,0-.07-.07,0h.07a.39.39,0,0,0-.34-.36l-.17.06h0l-.05.06h0l-.1.15,0,0-.1,0h0l-.06,0-.06,0h0a.69.69,0,0,1-.4.1l-.23,0a.21.21,0,0,0-.14.19l.07.2.07,0-.07,0,0,.1a.85.85,0,0,0,.23.44h0l.06,0,0,0,.11,0h0l.07,0h0l.07-.07h0l.09-.09h0l.06-.08,0-.05,0,.06Z"/><path class="cls-1" d="M16.09,19.59a1.35,1.35,0,0,0-.4,0c-.12,0-.24.09-.36.07s-.09-.32-.06-.43,0-.47.2-.52a.48.48,0,0,1,.37.15,1.13,1.13,0,0,0,.5.19.54.54,0,0,1,.42.25v.31c-.09.11-.28.06-.4,0l-.28-.05"/><path class="cls-2" d="M16.09,19.59v-.07l-.28,0h-.14c-.13,0-.23.08-.31.08h0l0-.1,0-.24c0-.08,0-.2.05-.3s.06-.16.1-.16h0l.27.14a1.3,1.3,0,0,0,.52.21c.17,0,.31.07.37.2l.07,0h-.08v.31h.08l-.06-.05-.12,0-.21,0h0l-.28,0v.15l.28,0,.23,0,.24-.1v-.36h0v0a.58.58,0,0,0-.47-.28,1.17,1.17,0,0,1-.46-.18.67.67,0,0,0-.36-.17h-.08a.36.36,0,0,0-.21.28c0,.11,0,.24-.05.3a1.3,1.3,0,0,0,0,.27.22.22,0,0,0,.17.25h0a1.77,1.77,0,0,0,.33-.08h.12l.26,0Z"/><path class="cls-1" d="M14.15,19.24l-.1,0a1.22,1.22,0,0,0-.57-.08l-.07,0h-.17l-.08,0c-.26-.15-.18-.49,0-.78.08-.13,0-.3.18-.4s.32.17.42.24a2.3,2.3,0,0,0,.87.29,1,1,0,0,1,.55.15.46.46,0,0,1,.05.47c-.07.29-.28.35-.54.29s-.37-.1-.56-.15"/><path class="cls-2" d="M14.15,19.24l0-.07-.1,0a1.63,1.63,0,0,0-.47-.1l-.13,0v0h-.08l-.14,0-.07,0,0,.07,0-.07a.24.24,0,0,1-.12-.22,1,1,0,0,1,.17-.45l.08-.23L13.4,18h0l.14.08.17.17a2.32,2.32,0,0,0,.9.29,1.06,1.06,0,0,1,.51.14l.06.18,0,.21c-.06.2-.15.25-.3.25l-.16,0-.55-.14h0l0,.07,0,.07c.18.05.37.11.56.15l.19,0a.43.43,0,0,0,.45-.36l0-.25a.37.37,0,0,0-.11-.29,1.06,1.06,0,0,0-.58-.18,2.08,2.08,0,0,1-.84-.27L13.68,18a.38.38,0,0,0-.25-.13l-.11,0a.36.36,0,0,0-.15.23l-.05.19a1,1,0,0,0-.2.53.38.38,0,0,0,.2.35h0l.09,0h0l.18,0h0l.08,0h.1a2.36,2.36,0,0,1,.43.09l.1,0Z"/><path class="cls-1" d="M15.23,18.21a2,2,0,0,0,.19-.76c0-.12,0-.31.11-.38s.26.11.33.2a.45.45,0,0,0,.37.19c.38.06.11.41-.07.56a1.34,1.34,0,0,0-.3.36c-.14.25-.26.69-.64.63s-.19-.5-.06-.68l0,0Z"/><path class="cls-2" d="M15.23,18.21l.07,0a2.18,2.18,0,0,0,.19-.78v-.21l.06-.11h0l.22.18a.54.54,0,0,0,.4.22c.13,0,.13.05.14.08a.71.71,0,0,1-.24.34,1.43,1.43,0,0,0-.31.38,4.1,4.1,0,0,1-.22.41.35.35,0,0,1-.3.19h0c-.13,0-.14-.07-.15-.18a.77.77,0,0,1,.14-.39h0l0,0h0l.05-.08h0l-.07,0-.06,0-.05.07,0,0,.06,0-.06,0a.92.92,0,0,0-.17.48.3.3,0,0,0,.28.33h.07a.51.51,0,0,0,.43-.26c.09-.14.16-.3.22-.41a1,1,0,0,1,.28-.34.8.8,0,0,0,.29-.46c0-.12-.11-.21-.26-.23s-.19,0-.32-.17-.15-.23-.33-.23l-.09,0a.26.26,0,0,0-.15.22v.22a1.86,1.86,0,0,1-.17.72l.06,0-.06,0Z"/><path class="cls-1" d="M17.2,16.39a2.07,2.07,0,0,0,.77-.26.42.42,0,0,1,.47,0l.09.1a1.17,1.17,0,0,0,.08.93c0,.05,0,.2-.13.21l-.13,0a2.32,2.32,0,0,1-.89-.15,1.61,1.61,0,0,0-1,.14.62.62,0,0,1-.38,0l-.07,0-.06,0-.1-.11L15.79,17l0-.15v-.15l0-.1c.22-.51,1-.18,1.39-.24"/><path class="cls-2" d="M17.2,16.39v.08A2.12,2.12,0,0,0,18,16.2l.24-.09.17.05,0-.06-.05,0,.09.11.05-.05-.06,0a.83.83,0,0,0-.08.37,1.61,1.61,0,0,0,.15.62h0l0,.07-.05,0h0l-.13,0,0,.07V17.3h-.12a3.52,3.52,0,0,1-.74-.16,1.15,1.15,0,0,0-.31,0,2,2,0,0,0-.75.18l-.19,0-.13,0H16l-.05,0-.07-.09L15.86,17l0-.14v-.14l0-.09-.07,0,.07,0c.08-.2.24-.24.47-.25s.49.06.72.07h.14v-.15h-.12c-.2,0-.47-.06-.72-.07a.6.6,0,0,0-.61.34h0l0,.11h0v.16h0l0,.17h0l.06.18h0l.1.13h0l.07,0h0l.08,0,0-.07,0,.07.19,0a.66.66,0,0,0,.25-.05,1.75,1.75,0,0,1,.69-.17l.28,0a3.09,3.09,0,0,0,.77.17h.15l.13,0,0-.07v.07a.26.26,0,0,0,.2-.25V17.1a1.44,1.44,0,0,1-.14-.56.85.85,0,0,1,.06-.31l0,0-.12-.14h0L18.24,16a.55.55,0,0,0-.31.11,2.09,2.09,0,0,1-.74.25Z"/><path class="cls-1" d="M19.35,6A14.15,14.15,0,1,0,33.5,20.11,14.14,14.14,0,0,0,19.35,6m0,25.3A11.16,11.16,0,1,1,30.51,20.11,11.16,11.16,0,0,1,19.35,31.27"/><path class="cls-3" d="M20.4,4.81v5.4a9.79,9.79,0,1,1-11,10.31H4A15.17,15.17,0,1,0,20.4,4.81"/></g></svg>