<?xml version="1.0" encoding="UTF-8"?><svg id="Warstwa_3" xmlns="http://www.w3.org/2000/svg" viewBox="0 0 990 90"><defs><style>.cls-1{fill:#fff;}.cls-2{fill:#6b6b6b;}.cls-3{fill:#e42e26;}.cls-4{fill:#62a4d8;}</style></defs><path class="cls-1" d="m48.1,31.59c-1.28,0-2.5-.2-3.67-.59-1.17-.39-2.09-.9-2.76-1.52l.89-1.87c.64.56,1.46,1.02,2.45,1.39.99.37,2.02.55,3.1.55.98,0,1.77-.11,2.38-.34.61-.22,1.06-.53,1.34-.92.29-.39.43-.84.43-1.33,0-.58-.19-1.04-.56-1.39-.38-.35-.86-.64-1.46-.85-.6-.22-1.26-.4-1.98-.56-.72-.16-1.44-.35-2.17-.56-.73-.22-1.39-.49-1.99-.83-.6-.34-1.08-.79-1.45-1.36-.37-.57-.55-1.3-.55-2.2s.23-1.66.68-2.39c.46-.73,1.16-1.31,2.11-1.75.95-.44,2.16-.66,3.64-.66.98,0,1.94.13,2.9.38.96.26,1.79.62,2.5,1.1l-.79,1.92c-.72-.48-1.48-.83-2.28-1.04-.8-.22-1.58-.32-2.33-.32-.94,0-1.72.12-2.33.36-.61.24-1.05.56-1.33.96-.28.4-.42.85-.42,1.34,0,.59.19,1.06.56,1.42.38.35.86.63,1.46.84.6.21,1.26.4,1.98.56s1.44.36,2.17.56c.73.21,1.39.48,1.99.82s1.08.78,1.45,1.34c.37.56.55,1.28.55,2.16s-.23,1.64-.7,2.36c-.46.73-1.18,1.31-2.15,1.75-.97.44-2.19.66-3.66.66Z"/><path class="cls-1" d="m57.78,31.4V13.59h2.3v17.81h-2.3Zm1.87-3.07l.05-2.95,7.32-6.7h2.78l-5.62,5.52-1.25,1.06-3.29,3.07Zm7.85,3.07l-4.99-6.19,1.49-1.85,6.34,8.04h-2.83Z"/><path class="cls-1" d="m76.04,31.54c-.94,0-1.77-.16-2.48-.48s-1.26-.76-1.64-1.33c-.38-.57-.58-1.21-.58-1.93s.16-1.31.49-1.87c.33-.56.86-1.01,1.61-1.34s1.75-.5,3.01-.5h4.03v1.66h-3.94c-1.15,0-1.93.19-2.33.58-.4.38-.6.85-.6,1.39,0,.62.25,1.12.74,1.5.5.38,1.18.56,2.06.56s1.62-.19,2.27-.58c.65-.38,1.12-.94,1.4-1.68l.46,1.58c-.3.75-.84,1.35-1.61,1.79-.77.44-1.74.66-2.9.66Zm4.18-.14v-2.69l-.12-.5v-4.58c0-.98-.28-1.73-.85-2.27-.57-.54-1.42-.8-2.56-.8-.75,0-1.49.12-2.21.37-.72.25-1.33.58-1.82,1l-.96-1.73c.66-.53,1.44-.93,2.36-1.21s1.88-.42,2.89-.42c1.74,0,3.09.42,4.03,1.27.94.85,1.42,2.14,1.42,3.89v7.68h-2.18Z"/><path class="cls-1" d="m86.67,31.4V13.59h2.3v17.81h-2.3Z"/><path class="cls-1" d="m97.09,31.54c-.94,0-1.77-.16-2.48-.48s-1.26-.76-1.64-1.33c-.38-.57-.58-1.21-.58-1.93s.16-1.31.49-1.87c.33-.56.86-1.01,1.61-1.34s1.75-.5,3.01-.5h4.03v1.66h-3.94c-1.15,0-1.93.19-2.33.58-.4.38-.6.85-.6,1.39,0,.62.25,1.12.74,1.5.5.38,1.18.56,2.06.56s1.62-.19,2.27-.58c.65-.38,1.12-.94,1.4-1.68l.46,1.58c-.3.75-.84,1.35-1.61,1.79-.77.44-1.74.66-2.9.66Zm4.18-.14v-2.69l-.12-.5v-4.58c0-.98-.28-1.73-.85-2.27-.57-.54-1.42-.8-2.56-.8-.75,0-1.49.12-2.21.37-.72.25-1.33.58-1.82,1l-.96-1.73c.66-.53,1.44-.93,2.36-1.21s1.88-.42,2.89-.42c1.74,0,3.09.42,4.03,1.27.94.85,1.42,2.14,1.42,3.89v7.68h-2.18Z"/><path class="cls-1" d="m122.02,31.59c-1.28,0-2.46-.21-3.54-.64-1.08-.42-2.02-1.02-2.81-1.8-.79-.78-1.41-1.68-1.86-2.72-.45-1.04-.67-2.18-.67-3.43s.22-2.39.67-3.43c.45-1.04,1.07-1.95,1.87-2.72.8-.78,1.74-1.38,2.82-1.8,1.08-.42,2.26-.64,3.54-.64s2.49.22,3.59.66c1.1.44,2.03,1.09,2.8,1.96l-1.56,1.51c-.64-.67-1.36-1.17-2.16-1.5-.8-.33-1.66-.49-2.57-.49s-1.82.16-2.63.48c-.81.32-1.51.77-2.1,1.34s-1.05,1.26-1.38,2.05-.49,1.65-.49,2.58.16,1.79.49,2.58.79,1.48,1.38,2.05c.59.58,1.29,1.02,2.1,1.34.81.32,1.68.48,2.63.48s1.77-.16,2.57-.49,1.52-.84,2.16-1.52l1.56,1.51c-.77.86-1.7,1.52-2.8,1.97-1.1.45-2.3.67-3.61.67Z"/><path class="cls-1" d="m136.45,31.54c-1.28,0-2.42-.28-3.41-.84-.99-.56-1.78-1.33-2.35-2.32-.58-.98-.86-2.1-.86-3.35s.29-2.38.86-3.36,1.36-1.74,2.35-2.29c.99-.55,2.13-.83,3.41-.83s2.4.28,3.4.83c1,.55,1.78,1.31,2.35,2.28.57.97.85,2.09.85,3.37s-.29,2.38-.85,3.36c-.57.98-1.35,1.74-2.35,2.3-1,.56-2.13.84-3.4.84Zm0-2.02c.82,0,1.55-.18,2.2-.55.65-.37,1.16-.89,1.52-1.57.37-.68.55-1.47.55-2.36s-.18-1.7-.55-2.36-.88-1.18-1.52-1.55c-.65-.37-1.38-.55-2.2-.55s-1.54.18-2.18.55c-.64.37-1.15.88-1.54,1.55s-.58,1.45-.58,2.36.19,1.68.58,2.36c.38.68.9,1.2,1.54,1.57.64.37,1.37.55,2.18.55Z"/><path class="cls-1" d="m153.03,18.56c1.04,0,1.96.2,2.75.6.79.4,1.41,1.01,1.86,1.82s.67,1.85.67,3.1v7.32h-2.3v-7.06c0-1.23-.3-2.16-.9-2.78-.6-.62-1.44-.94-2.53-.94-.82,0-1.53.16-2.14.48s-1.08.79-1.4,1.42c-.33.62-.49,1.4-.49,2.33v6.55h-2.3V13.59h2.3v8.52l-.46-.91c.42-.83,1.06-1.48,1.92-1.94s1.87-.7,3.02-.7Z"/><path class="cls-1" d="m168.25,31.54c-1.36,0-2.56-.28-3.59-.84-1.03-.56-1.83-1.33-2.4-2.3-.57-.98-.85-2.1-.85-3.36s.28-2.38.83-3.36,1.31-1.74,2.28-2.29c.97-.55,2.06-.83,3.28-.83s2.32.27,3.26.82c.94.54,1.68,1.31,2.22,2.29.54.98.8,2.13.8,3.44,0,.1,0,.21-.01.34s-.02.25-.04.36h-10.82v-1.66h9.62l-.94.58c.02-.82-.15-1.54-.5-2.18-.35-.64-.84-1.14-1.45-1.5-.62-.36-1.33-.54-2.15-.54s-1.51.18-2.14.54c-.62.36-1.11.86-1.46,1.51-.35.65-.53,1.39-.53,2.22v.38c0,.85.2,1.6.59,2.27.39.66.94,1.18,1.64,1.55s1.51.55,2.42.55c.75,0,1.44-.13,2.05-.38s1.16-.64,1.62-1.15l1.27,1.49c-.58.67-1.29,1.18-2.15,1.54s-1.81.53-2.87.53Z"/><path class="cls-1" d="m184.06,18.56c1.04,0,1.96.2,2.75.6.79.4,1.41,1.01,1.86,1.82s.67,1.85.67,3.1v7.32h-2.3v-7.06c0-1.23-.3-2.16-.9-2.78-.6-.62-1.44-.94-2.53-.94-.82,0-1.53.16-2.14.48s-1.08.79-1.4,1.42c-.33.62-.49,1.4-.49,2.33v6.55h-2.3v-12.72h2.21v3.43l-.36-.91c.42-.83,1.06-1.48,1.92-1.94s1.87-.7,3.02-.7Z"/><path class="cls-1" d="m197.34,31.54c-.94,0-1.77-.16-2.48-.48s-1.26-.76-1.64-1.33c-.38-.57-.58-1.21-.58-1.93s.16-1.31.49-1.87c.33-.56.86-1.01,1.61-1.34s1.75-.5,3.01-.5h4.03v1.66h-3.94c-1.15,0-1.93.19-2.33.58-.4.38-.6.85-.6,1.39,0,.62.25,1.12.74,1.5.5.38,1.18.56,2.06.56s1.62-.19,2.27-.58c.65-.38,1.12-.94,1.4-1.68l.46,1.58c-.3.75-.84,1.35-1.61,1.79-.77.44-1.74.66-2.9.66Zm4.18-.14v-2.69l-.12-.5v-4.58c0-.98-.28-1.73-.85-2.27-.57-.54-1.42-.8-2.56-.8-.75,0-1.49.12-2.21.37-.72.25-1.33.58-1.82,1l-.96-1.73c.66-.53,1.44-.93,2.36-1.21s1.88-.42,2.89-.42c1.74,0,3.09.42,4.03,1.27.94.85,1.42,2.14,1.42,3.89v7.68h-2.18Z"/><path class="cls-1" d="m214.28,16.47l-3.26,1.82v-.46l3.26,1.82-.74,1.32-3.17-1.85.26-.17.02,3.58h-1.44l.02-3.58.26.17-3.17,1.85-.74-1.32,3.29-1.82v.46l-3.29-1.82.74-1.34,3.17,1.87-.26.17-.02-3.58h1.44l-.02,3.58-.26-.17,3.17-1.87.74,1.34Z"/><path class="cls-1" d="m112.24,56.6c1.02,0,1.93.2,2.71.6.78.4,1.4,1.01,1.84,1.82.44.82.66,1.85.66,3.1v7.32h-2.3v-7.06c0-1.23-.29-2.16-.86-2.78s-1.38-.94-2.42-.94c-.77,0-1.44.16-2.02.48s-1.02.79-1.33,1.42c-.31.62-.47,1.4-.47,2.33v6.55h-2.3v-7.06c0-1.23-.28-2.16-.85-2.78-.57-.62-1.38-.94-2.44-.94-.75,0-1.42.16-1.99.48-.58.32-1.02.79-1.34,1.42s-.48,1.4-.48,2.33v6.55h-2.3v-12.72h2.21v3.38l-.36-.86c.4-.83,1.02-1.48,1.85-1.94s1.8-.7,2.9-.7c1.22,0,2.26.3,3.14.9.88.6,1.46,1.51,1.73,2.72l-.94-.38c.38-.98,1.06-1.76,2.02-2.35s2.08-.89,3.36-.89Z"/><path class="cls-1" d="m125.41,69.58c-.94,0-1.77-.16-2.48-.48s-1.26-.76-1.64-1.33c-.38-.57-.58-1.21-.58-1.93s.16-1.31.49-1.87c.33-.56.86-1.01,1.61-1.34s1.75-.5,3.01-.5h4.03v1.66h-3.94c-1.15,0-1.93.19-2.33.58-.4.38-.6.85-.6,1.39,0,.62.25,1.12.74,1.5.5.38,1.18.56,2.06.56s1.62-.19,2.27-.58c.65-.38,1.12-.94,1.4-1.68l.46,1.58c-.3.75-.84,1.35-1.61,1.79-.77.44-1.74.66-2.9.66Zm4.18-.14v-2.69l-.12-.5v-4.58c0-.98-.28-1.73-.85-2.27-.57-.54-1.42-.8-2.56-.8-.75,0-1.49.12-2.21.37-.72.25-1.33.58-1.82,1l-.96-1.73c.66-.53,1.44-.93,2.36-1.21s1.88-.42,2.89-.42c1.74,0,3.09.42,4.03,1.27.94.85,1.42,2.14,1.42,3.89v7.68h-2.18Z"/><path class="cls-1" d="m134.73,63.94l-1.03-1.37,6.36-4.85,1.03,1.39-6.36,4.82Zm1.51,5.5v-17.81h2.3v17.81h-2.3Z"/><path class="cls-1" d="m143.65,74.24c-.61,0-1.2-.1-1.78-.3s-1.07-.49-1.49-.88l.98-1.73c.32.3.67.54,1.06.7.38.16.79.24,1.22.24.56,0,1.02-.14,1.39-.43s.71-.8,1.03-1.54l.79-1.75.24-.29,4.99-11.54h2.26l-6.17,13.99c-.37.9-.78,1.6-1.24,2.11s-.96.88-1.5,1.09c-.54.22-1.14.32-1.8.32Zm3.02-4.39l-5.81-13.13h2.4l4.94,11.33-1.54,1.8Z"/><path class="cls-1" d="m168.64,69.58c-1.36,0-2.56-.28-3.59-.84-1.03-.56-1.83-1.33-2.4-2.3-.57-.98-.85-2.1-.85-3.36s.28-2.38.83-3.36,1.31-1.74,2.28-2.29c.97-.55,2.06-.83,3.28-.83s2.32.27,3.26.82c.94.54,1.68,1.31,2.22,2.29.54.98.8,2.13.8,3.44,0,.1,0,.21-.01.34s-.02.25-.04.36h-10.82v-1.66h9.62l-.94.58c.02-.82-.15-1.54-.5-2.18-.35-.64-.84-1.14-1.45-1.5-.62-.36-1.33-.54-2.15-.54s-1.51.18-2.14.54c-.62.36-1.11.86-1.46,1.51-.35.65-.53,1.39-.53,2.22v.38c0,.85.2,1.6.59,2.27.39.66.94,1.18,1.64,1.55s1.51.55,2.42.55c.75,0,1.44-.13,2.05-.38s1.16-.64,1.62-1.15l1.27,1.49c-.58.67-1.29,1.18-2.15,1.54s-1.81.53-2.87.53Z"/><path class="cls-1" d="m175.84,58.61v-1.9h8.11v1.9h-8.11Zm2.16,10.82v-13.85c0-1.25.36-2.24,1.09-2.99.73-.74,1.76-1.12,3.11-1.12.5,0,.97.06,1.43.18.46.12.84.31,1.16.56l-.7,1.75c-.24-.19-.51-.34-.82-.44-.3-.1-.62-.16-.96-.16-.67,0-1.18.19-1.54.56s-.53.93-.53,1.67v1.7l.05,1.06v11.06h-2.3Z"/><path class="cls-1" d="m191.6,69.58c-1.36,0-2.56-.28-3.59-.84-1.03-.56-1.83-1.33-2.4-2.3-.57-.98-.85-2.1-.85-3.36s.28-2.38.83-3.36,1.31-1.74,2.28-2.29c.97-.55,2.06-.83,3.28-.83s2.32.27,3.26.82c.94.54,1.68,1.31,2.22,2.29.54.98.8,2.13.8,3.44,0,.1,0,.21-.01.34s-.02.25-.04.36h-10.82v-1.66h9.62l-.94.58c.02-.82-.15-1.54-.5-2.18-.35-.64-.84-1.14-1.45-1.5-.62-.36-1.33-.54-2.15-.54s-1.51.18-2.14.54c-.62.36-1.11.86-1.46,1.51-.35.65-.53,1.39-.53,2.22v.38c0,.85.2,1.6.59,2.27.39.66.94,1.18,1.64,1.55s1.51.55,2.42.55c.75,0,1.44-.13,2.05-.38s1.16-.64,1.62-1.15l1.27,1.49c-.58.67-1.29,1.18-2.15,1.54s-1.81.53-2.87.53Z"/><path class="cls-1" d="m200.63,69.44v-17.81h2.3v17.81h-2.3Zm1.87-3.07l.05-2.95,7.32-6.7h2.78l-5.62,5.52-1.25,1.06-3.29,3.07Zm7.85,3.07l-4.99-6.19,1.49-1.85,6.34,8.04h-2.83Z"/><path class="cls-1" d="m213.59,58.61v-1.9h8.11v1.9h-8.11Zm6.19,10.97c-1.28,0-2.27-.34-2.98-1.03-.7-.69-1.06-1.67-1.06-2.95v-11.66h2.3v11.57c0,.69.17,1.22.52,1.58s.84.55,1.48.55c.72,0,1.32-.2,1.8-.6l.72,1.66c-.35.3-.77.53-1.26.67-.49.14-1,.22-1.52.22Z"/><path class="cls-1" d="m237.64,69.63c-1.31,0-2.48-.34-3.52-1.01-1.03-.67-1.85-1.65-2.45-2.93-.6-1.28-.9-2.83-.9-4.66s.3-3.38.9-4.66c.6-1.28,1.42-2.26,2.45-2.93,1.03-.67,2.2-1.01,3.52-1.01s2.46.34,3.5,1.01c1.04.67,1.86,1.65,2.45,2.93s.89,2.83.89,4.66-.3,3.38-.89,4.66c-.59,1.28-1.41,2.26-2.45,2.93-1.04.67-2.21,1.01-3.5,1.01Zm0-2.14c.88,0,1.65-.24,2.32-.72.66-.48,1.18-1.2,1.56-2.16s.56-2.15.56-3.58-.19-2.62-.56-3.58-.9-1.68-1.56-2.16c-.66-.48-1.44-.72-2.32-.72s-1.66.24-2.33.72c-.67.48-1.2,1.2-1.57,2.16s-.56,2.15-.56,3.58.19,2.62.56,3.58.9,1.68,1.57,2.16c.67.48,1.45.72,2.33.72Z"/><path class="cls-1" d="m246.61,72.99l1.2-4.85.31,1.39c-.46,0-.85-.14-1.16-.43-.31-.29-.47-.68-.47-1.18s.16-.87.47-1.18c.31-.3.69-.46,1.14-.46s.84.16,1.13.47c.29.31.43.7.43,1.16,0,.16-.01.32-.04.47-.02.15-.06.33-.12.53-.06.2-.14.44-.25.73l-1.13,3.34h-1.51Z"/><path class="cls-1" d="m251.92,69.44v-1.63l6.84-6.6c.61-.58,1.06-1.08,1.36-1.52s.5-.85.6-1.22c.1-.38.16-.74.16-1.09,0-.86-.3-1.54-.91-2.04-.61-.5-1.5-.74-2.66-.74-.9,0-1.7.15-2.42.44s-1.34.76-1.87,1.38l-1.63-1.42c.64-.82,1.5-1.44,2.58-1.88,1.08-.44,2.27-.66,3.56-.66,1.17,0,2.18.19,3.05.56.86.38,1.53.92,2,1.62.47.7.71,1.54.71,2.5,0,.54-.07,1.08-.22,1.61-.14.53-.42,1.09-.82,1.68-.4.59-.98,1.26-1.73,1.99l-6.1,5.88-.58-.94h10.15v2.09h-12.07Z"/><rect class="cls-4" x="44.05" y="46.02" width="30.49" height="30.49"/><path class="cls-1" d="m441.68,69.58c-1.06,0-2.06-.14-3.01-.43-.95-.29-1.7-.64-2.24-1.06l.96-1.82c.54.37,1.22.68,2.02.94.8.26,1.62.38,2.45.38,1.07,0,1.84-.15,2.32-.46.47-.3.71-.73.71-1.27,0-.4-.14-.71-.43-.94-.29-.22-.67-.39-1.14-.5-.47-.11-1-.21-1.57-.3-.58-.09-1.15-.2-1.73-.34-.58-.14-1.1-.33-1.58-.58-.48-.25-.86-.59-1.15-1.03s-.43-1.03-.43-1.76.22-1.44.65-2.02c.43-.58,1.04-1.02,1.84-1.33.79-.31,1.73-.47,2.82-.47.83,0,1.68.1,2.53.3.86.2,1.56.48,2.1.85l-.98,1.82c-.58-.38-1.18-.65-1.8-.79-.62-.14-1.25-.22-1.87-.22-1.01,0-1.76.16-2.26.49s-.74.75-.74,1.26c0,.43.15.76.44,1,.3.23.68.41,1.15.54.47.13,1,.24,1.57.32.58.09,1.15.2,1.73.34s1.1.32,1.57.56c.47.24.86.58,1.15,1.01.3.43.44,1.01.44,1.73,0,.77-.22,1.43-.67,1.99-.45.56-1.08,1-1.9,1.31-.82.31-1.79.47-2.93.47Zm-1.68-14.71l3.26-3.12h2.93l-4.03,3.12h-2.16Z"/><path class="cls-1" d="m450.06,69.44v-12.72h2.21v3.46l-.22-.86c.35-.88.94-1.55,1.78-2.02s1.86-.7,3.07-.7v2.23c-.1-.02-.19-.02-.28-.02h-.25c-1.23,0-2.21.37-2.93,1.1-.72.74-1.08,1.8-1.08,3.19v6.34h-2.3Z"/><path class="cls-1" d="m465.27,69.58c-1.36,0-2.56-.28-3.59-.84-1.03-.56-1.83-1.33-2.4-2.3-.57-.98-.85-2.1-.85-3.36s.28-2.38.83-3.36,1.31-1.74,2.28-2.29c.97-.55,2.06-.83,3.28-.83s2.32.27,3.26.82c.94.54,1.68,1.31,2.22,2.29.54.98.8,2.13.8,3.44,0,.1,0,.21-.01.34s-.02.25-.04.36h-10.82v-1.66h9.62l-.94.58c.02-.82-.15-1.54-.5-2.18-.35-.64-.84-1.14-1.45-1.5-.62-.36-1.33-.54-2.15-.54s-1.51.18-2.14.54c-.62.36-1.11.86-1.46,1.51-.35.65-.53,1.39-.53,2.22v.38c0,.85.2,1.6.59,2.27.39.66.94,1.18,1.64,1.55s1.51.55,2.42.55c.75,0,1.44-.13,2.05-.38s1.16-.64,1.62-1.15l1.27,1.49c-.58.67-1.29,1.18-2.15,1.54s-1.81.53-2.87.53Z"/><path class="cls-1" d="m479.55,69.58c-1.23,0-2.33-.27-3.3-.82s-1.73-1.3-2.29-2.28c-.56-.98-.84-2.11-.84-3.41s.28-2.43.84-3.4c.56-.97,1.32-1.72,2.29-2.27.97-.54,2.07-.82,3.3-.82,1.07,0,2.04.24,2.9.72.86.48,1.56,1.2,2.08,2.16.52.96.78,2.16.78,3.6s-.25,2.64-.76,3.6-1.19,1.68-2.05,2.17c-.86.49-1.85.73-2.95.73Zm.19-2.02c.8,0,1.52-.18,2.17-.55.65-.37,1.16-.89,1.54-1.57.38-.68.56-1.47.56-2.36s-.19-1.7-.56-2.36-.89-1.18-1.54-1.55c-.65-.37-1.37-.55-2.17-.55s-1.54.18-2.18.55c-.64.37-1.15.88-1.54,1.55s-.58,1.45-.58,2.36.19,1.68.58,2.36c.38.68.9,1.2,1.54,1.57.64.37,1.37.55,2.18.55Zm4.34,1.87v-3.43l.14-2.95-.24-2.95v-8.47h2.3v17.81h-2.21Z"/><path class="cls-1" d="m497.46,56.6c1.04,0,1.96.2,2.75.6.79.4,1.41,1.01,1.86,1.82s.67,1.85.67,3.1v7.32h-2.3v-7.06c0-1.23-.3-2.16-.9-2.78-.6-.62-1.44-.94-2.53-.94-.82,0-1.53.16-2.14.48s-1.08.79-1.4,1.42c-.33.62-.49,1.4-.49,2.33v6.55h-2.3v-12.72h2.21v3.43l-.36-.91c.42-.83,1.06-1.48,1.92-1.94s1.87-.7,3.02-.7Z"/><path class="cls-1" d="m508.16,54.27c-.45,0-.82-.14-1.12-.43s-.44-.64-.44-1.06.15-.79.44-1.08.67-.43,1.12-.43.82.14,1.12.42c.3.28.44.63.44,1.04s-.14.8-.43,1.09c-.29.3-.66.44-1.13.44Zm-1.15,15.17v-12.72h2.3v12.72h-2.3Z"/><path class="cls-1" d="m525.82,69.58c-1.36,0-2.56-.28-3.59-.84-1.03-.56-1.83-1.33-2.4-2.3-.57-.98-.85-2.1-.85-3.36s.28-2.38.83-3.36,1.31-1.74,2.28-2.29c.97-.55,2.06-.83,3.28-.83s2.32.27,3.26.82c.94.54,1.68,1.31,2.22,2.29.54.98.8,2.13.8,3.44,0,.1,0,.21-.01.34s-.02.25-.04.36h-10.82v-1.66h9.62l-.94.58c.02-.82-.15-1.54-.5-2.18-.35-.64-.84-1.14-1.45-1.5-.62-.36-1.33-.54-2.15-.54s-1.51.18-2.14.54c-.62.36-1.11.86-1.46,1.51-.35.65-.53,1.39-.53,2.22v.38c0,.85.2,1.6.59,2.27.39.66.94,1.18,1.64,1.55s1.51.55,2.42.55c.75,0,1.44-.13,2.05-.38s1.16-.64,1.62-1.15l1.27,1.49c-.58.67-1.29,1.18-2.15,1.54s-1.81.53-2.87.53Z"/><path class="cls-1" d="m533.02,58.61v-1.9h8.11v1.9h-8.11Zm2.16,10.82v-13.85c0-1.25.36-2.24,1.09-2.99.73-.74,1.76-1.12,3.11-1.12.5,0,.97.06,1.43.18.46.12.84.31,1.16.56l-.7,1.75c-.24-.19-.51-.34-.82-.44-.3-.1-.62-.16-.96-.16-.67,0-1.18.19-1.54.56s-.53.93-.53,1.67v1.7l.05,1.06v11.06h-2.3Z"/><path class="cls-1" d="m548.79,69.58c-1.36,0-2.56-.28-3.59-.84-1.03-.56-1.83-1.33-2.4-2.3-.57-.98-.85-2.1-.85-3.36s.28-2.38.83-3.36,1.31-1.74,2.28-2.29c.97-.55,2.06-.83,3.28-.83s2.32.27,3.26.82c.94.54,1.68,1.31,2.22,2.29.54.98.8,2.13.8,3.44,0,.1,0,.21-.01.34s-.02.25-.04.36h-10.82v-1.66h9.62l-.94.58c.02-.82-.15-1.54-.5-2.18-.35-.64-.84-1.14-1.45-1.5-.62-.36-1.33-.54-2.15-.54s-1.51.18-2.14.54c-.62.36-1.11.86-1.46,1.51-.35.65-.53,1.39-.53,2.22v.38c0,.85.2,1.6.59,2.27.39.66.94,1.18,1.64,1.55s1.51.55,2.42.55c.75,0,1.44-.13,2.05-.38s1.16-.64,1.62-1.15l1.27,1.49c-.58.67-1.29,1.18-2.15,1.54s-1.81.53-2.87.53Z"/><path class="cls-1" d="m557.82,69.44v-17.81h2.3v17.81h-2.3Zm1.87-3.07l.05-2.95,7.32-6.7h2.78l-5.62,5.52-1.25,1.06-3.29,3.07Zm7.85,3.07l-4.99-6.19,1.49-1.85,6.34,8.04h-2.83Z"/><path class="cls-1" d="m570.78,58.61v-1.9h8.11v1.9h-8.11Zm6.19,10.97c-1.28,0-2.27-.34-2.98-1.03-.7-.69-1.06-1.67-1.06-2.95v-11.66h2.3v11.57c0,.69.17,1.22.52,1.58s.84.55,1.48.55c.72,0,1.32-.2,1.8-.6l.72,1.66c-.35.3-.77.53-1.26.67-.49.14-1,.22-1.52.22Z"/><path class="cls-1" d="m594.82,69.63c-1.31,0-2.48-.34-3.52-1.01-1.03-.67-1.85-1.65-2.45-2.93-.6-1.28-.9-2.83-.9-4.66s.3-3.38.9-4.66c.6-1.28,1.42-2.26,2.45-2.93,1.03-.67,2.2-1.01,3.52-1.01s2.46.34,3.5,1.01c1.04.67,1.86,1.65,2.45,2.93s.89,2.83.89,4.66-.3,3.38-.89,4.66c-.59,1.28-1.41,2.26-2.45,2.93-1.04.67-2.21,1.01-3.5,1.01Zm0-2.14c.88,0,1.65-.24,2.32-.72.66-.48,1.18-1.2,1.56-2.16s.56-2.15.56-3.58-.19-2.62-.56-3.58-.9-1.68-1.56-2.16c-.66-.48-1.44-.72-2.32-.72s-1.66.24-2.33.72c-.67.48-1.2,1.2-1.57,2.16s-.56,2.15-.56,3.58.19,2.62.56,3.58.9,1.68,1.57,2.16c.67.48,1.45.72,2.33.72Z"/><path class="cls-1" d="m603.8,72.99l1.2-4.85.31,1.39c-.46,0-.85-.14-1.16-.43-.31-.29-.47-.68-.47-1.18s.16-.87.47-1.18c.31-.3.69-.46,1.14-.46s.84.16,1.13.47c.29.31.43.7.43,1.16,0,.16-.01.32-.04.47-.02.15-.06.33-.12.53-.06.2-.14.44-.25.73l-1.13,3.34h-1.51Z"/><path class="cls-1" d="m614.55,69.63c-1.18,0-2.33-.18-3.44-.55-1.11-.37-2.02-.86-2.72-1.49l1.1-1.9c.56.53,1.29.96,2.18,1.3.9.34,1.85.5,2.86.5,1.28,0,2.26-.27,2.95-.82.69-.54,1.03-1.27,1.03-2.18,0-.62-.15-1.17-.46-1.63-.3-.46-.83-.82-1.57-1.07s-1.76-.37-3.06-.37h-3.82l.89-8.78h9.48v2.09h-8.59l1.25-1.18-.7,6.94-1.25-1.15h3.24c1.68,0,3.03.22,4.06.65s1.77,1.03,2.23,1.79c.46.76.7,1.64.7,2.63s-.23,1.84-.7,2.63c-.46.79-1.16,1.42-2.1,1.9-.94.47-2.12.71-3.56.71Z"/><rect class="cls-2" x="385.75" y="46.02" width="30.49" height="30.49"/><path class="cls-1" d="m805.08,69.58c-1.23,0-2.33-.27-3.3-.82s-1.73-1.3-2.29-2.28c-.56-.98-.84-2.11-.84-3.41s.28-2.43.84-3.4c.56-.97,1.32-1.72,2.29-2.27.97-.54,2.07-.82,3.3-.82,1.07,0,2.04.24,2.9.72.86.48,1.56,1.2,2.08,2.16.52.96.78,2.16.78,3.6s-.25,2.64-.76,3.6-1.19,1.68-2.05,2.17c-.86.49-1.85.73-2.95.73Zm.19-2.02c.8,0,1.52-.18,2.17-.55.65-.37,1.16-.89,1.54-1.57.38-.68.56-1.47.56-2.36s-.19-1.7-.56-2.36-.89-1.18-1.54-1.55c-.65-.37-1.37-.55-2.17-.55s-1.54.18-2.18.55c-.64.37-1.15.88-1.54,1.55s-.58,1.45-.58,2.36.19,1.68.58,2.36c.38.68.9,1.2,1.54,1.57.64.37,1.37.55,2.18.55Zm4.34,1.87v-3.43l.14-2.95-.24-2.95v-8.47h2.3v17.81h-2.21Z"/><path class="cls-1" d="m821.55,69.58c-1.09,0-2.04-.2-2.87-.6-.82-.4-1.46-1.01-1.92-1.84s-.68-1.86-.68-3.11v-7.32h2.3v7.06c0,1.25.3,2.18.9,2.81.6.62,1.44.94,2.53.94.8,0,1.5-.16,2.09-.49s1.05-.81,1.37-1.44.48-1.4.48-2.29v-6.58h2.3v12.72h-2.18v-3.43l.36.91c-.42.85-1.04,1.5-1.87,1.97s-1.77.7-2.81.7Z"/><path class="cls-1" d="m831.22,69.44v-1.49l8.16-10.13.46.79h-8.47v-1.9h10.32v1.51l-8.16,10.1-.53-.79h8.88v1.9h-10.66Zm5.33-15c-.4,0-.74-.14-1.01-.41-.27-.27-.41-.61-.41-1.01s.14-.74.41-1.01c.27-.27.61-.41,1.01-.41s.74.14,1.01.41.41.61.41,1.01-.14.74-.41,1.01c-.27.27-.61.41-1.01.41Z"/><path class="cls-1" d="m845.26,74.24c-.61,0-1.2-.1-1.78-.3s-1.07-.49-1.49-.88l.98-1.73c.32.3.67.54,1.06.7.38.16.79.24,1.22.24.56,0,1.02-.14,1.39-.43s.71-.8,1.03-1.54l.79-1.75.24-.29,4.99-11.54h2.26l-6.17,13.99c-.37.9-.78,1.6-1.24,2.11s-.96.88-1.5,1.09c-.54.22-1.14.32-1.8.32Zm3.02-4.39l-5.81-13.13h2.4l4.94,11.33-1.54,1.8Z"/><path class="cls-1" d="m870.24,69.58c-1.36,0-2.56-.28-3.59-.84-1.03-.56-1.83-1.33-2.4-2.3-.57-.98-.85-2.1-.85-3.36s.28-2.38.83-3.36,1.31-1.74,2.28-2.29c.97-.55,2.06-.83,3.28-.83s2.32.27,3.26.82c.94.54,1.68,1.31,2.22,2.29.54.98.8,2.13.8,3.44,0,.1,0,.21-.01.34s-.02.25-.04.36h-10.82v-1.66h9.62l-.94.58c.02-.82-.15-1.54-.5-2.18-.35-.64-.84-1.14-1.45-1.5-.62-.36-1.33-.54-2.15-.54s-1.51.18-2.14.54c-.62.36-1.11.86-1.46,1.51-.35.65-.53,1.39-.53,2.22v.38c0,.85.2,1.6.59,2.27.39.66.94,1.18,1.64,1.55s1.51.55,2.42.55c.75,0,1.44-.13,2.05-.38s1.16-.64,1.62-1.15l1.27,1.49c-.58.67-1.29,1.18-2.15,1.54s-1.81.53-2.87.53Z"/><path class="cls-1" d="m877.44,58.61v-1.9h8.11v1.9h-8.11Zm2.16,10.82v-13.85c0-1.25.36-2.24,1.09-2.99.73-.74,1.76-1.12,3.11-1.12.5,0,.97.06,1.43.18.46.12.84.31,1.16.56l-.7,1.75c-.24-.19-.51-.34-.82-.44-.3-.1-.62-.16-.96-.16-.67,0-1.18.19-1.54.56s-.53.93-.53,1.67v1.7l.05,1.06v11.06h-2.3Z"/><path class="cls-1" d="m893.21,69.58c-1.36,0-2.56-.28-3.59-.84-1.03-.56-1.83-1.33-2.4-2.3-.57-.98-.85-2.1-.85-3.36s.28-2.38.83-3.36,1.31-1.74,2.28-2.29c.97-.55,2.06-.83,3.28-.83s2.32.27,3.26.82c.94.54,1.68,1.31,2.22,2.29.54.98.8,2.13.8,3.44,0,.1,0,.21-.01.34s-.02.25-.04.36h-10.82v-1.66h9.62l-.94.58c.02-.82-.15-1.54-.5-2.18-.35-.64-.84-1.14-1.45-1.5-.62-.36-1.33-.54-2.15-.54s-1.51.18-2.14.54c-.62.36-1.11.86-1.46,1.51-.35.65-.53,1.39-.53,2.22v.38c0,.85.2,1.6.59,2.27.39.66.94,1.18,1.64,1.55s1.51.55,2.42.55c.75,0,1.44-.13,2.05-.38s1.16-.64,1.62-1.15l1.27,1.49c-.58.67-1.29,1.18-2.15,1.54s-1.81.53-2.87.53Z"/><path class="cls-1" d="m902.23,69.44v-17.81h2.3v17.81h-2.3Zm1.87-3.07l.05-2.95,7.32-6.7h2.78l-5.62,5.52-1.25,1.06-3.29,3.07Zm7.85,3.07l-4.99-6.19,1.49-1.85,6.34,8.04h-2.83Z"/><path class="cls-1" d="m915.19,58.61v-1.9h8.11v1.9h-8.11Zm6.19,10.97c-1.28,0-2.27-.34-2.98-1.03-.7-.69-1.06-1.67-1.06-2.95v-11.66h2.3v11.57c0,.69.17,1.22.52,1.58s.84.55,1.48.55c.72,0,1.32-.2,1.8-.6l.72,1.66c-.35.3-.77.53-1.26.67-.49.14-1,.22-1.52.22Z"/><path class="cls-1" d="m939.24,69.63c-1.31,0-2.48-.34-3.52-1.01-1.03-.67-1.85-1.65-2.45-2.93-.6-1.28-.9-2.83-.9-4.66s.3-3.38.9-4.66c.6-1.28,1.42-2.26,2.45-2.93,1.03-.67,2.2-1.01,3.52-1.01s2.46.34,3.5,1.01c1.04.67,1.86,1.65,2.45,2.93s.89,2.83.89,4.66-.3,3.38-.89,4.66c-.59,1.28-1.41,2.26-2.45,2.93-1.04.67-2.21,1.01-3.5,1.01Zm0-2.14c.88,0,1.65-.24,2.32-.72.66-.48,1.18-1.2,1.56-2.16s.56-2.15.56-3.58-.19-2.62-.56-3.58-.9-1.68-1.56-2.16c-.66-.48-1.44-.72-2.32-.72s-1.66.24-2.33.72c-.67.48-1.2,1.2-1.57,2.16s-.56,2.15-.56,3.58.19,2.62.56,3.58.9,1.68,1.57,2.16c.67.48,1.45.72,2.33.72Z"/><path class="cls-1" d="m948.22,72.99l1.2-4.85.31,1.39c-.46,0-.85-.14-1.16-.43-.31-.29-.47-.68-.47-1.18s.16-.87.47-1.18c.31-.3.69-.46,1.14-.46s.84.16,1.13.47c.29.31.43.7.43,1.16,0,.16-.01.32-.04.47-.02.15-.06.33-.12.53-.06.2-.14.44-.25.73l-1.13,3.34h-1.51Z"/><path class="cls-1" d="m960.34,69.63c-1.36,0-2.54-.2-3.53-.6-.99-.4-1.76-.97-2.3-1.72s-.82-1.62-.82-2.63.26-1.84.78-2.53c.52-.7,1.28-1.22,2.27-1.58.99-.36,2.19-.54,3.6-.54s2.61.18,3.61.54c1,.36,1.76.89,2.29,1.6.53.71.79,1.54.79,2.52s-.27,1.88-.82,2.63-1.32,1.32-2.33,1.72c-1.01.4-2.19.6-3.55.6Zm0-8.3c-1.28,0-2.37-.17-3.26-.52-.9-.34-1.58-.84-2.06-1.49-.48-.65-.72-1.42-.72-2.32,0-.94.25-1.76.76-2.44.5-.68,1.21-1.2,2.12-1.57.91-.37,1.97-.55,3.17-.55s2.28.18,3.19.55c.91.37,1.62.89,2.14,1.57.51.68.77,1.49.77,2.44,0,.9-.24,1.67-.72,2.32-.48.65-1.18,1.14-2.09,1.49s-2.01.52-3.29.52Zm0,6.36c1.34,0,2.4-.28,3.16-.83.76-.55,1.14-1.3,1.14-2.24s-.38-1.66-1.14-2.2c-.76-.54-1.81-.8-3.16-.8s-2.37.27-3.12.8-1.13,1.27-1.13,2.2.38,1.69,1.13,2.24,1.79.83,3.12.83Zm0-7.9c1.17,0,2.08-.24,2.75-.72.66-.48,1-1.14,1-1.97s-.34-1.51-1.03-1.99c-.69-.48-1.59-.72-2.71-.72s-2.01.24-2.68.72c-.66.48-1,1.14-1,1.99s.32,1.49.97,1.97c.65.48,1.55.72,2.7.72Z"/><rect class="cls-3" x="747.55" y="46.02" width="30.49" height="30.49"/></svg>