<?xml version="1.0" encoding="UTF-8"?><svg xmlns="http://www.w3.org/2000/svg" viewBox="0 0 888.19 691.49"><defs><style>.cls-1{fill:#fff;}.cls-2{fill:#518bc3;}.cls-2,.cls-3{stroke-width:2px;}.cls-2,.cls-3,.cls-4{stroke:#fff;stroke-miterlimit:10;}.cls-3{fill:#d60000;}.cls-5{stroke:#d60000;}.cls-5,.cls-6{stroke-linejoin:round;stroke-width:5px;}.cls-5,.cls-6,.cls-4{fill:none;}.cls-6{stroke:#518bc3;}</style></defs><g id="Warstwa_2"><line class="cls-4" x1="77.01" y1="610.74" x2="870.01" y2="610.74"/><path class="cls-1" d="m30.9,611.54v-.89h3.78v.89h-3.78Z"/><path class="cls-1" d="m40.45,615.09c-.78,0-1.47-.21-2.08-.61s-1.08-1-1.43-1.76c-.35-.76-.52-1.69-.52-2.76s.17-2,.52-2.77c.35-.76.82-1.35,1.43-1.76.61-.41,1.3-.61,2.08-.61s1.47.21,2.08.61c.61.41,1.08,1,1.44,1.76.35.77.53,1.69.53,2.77s-.18,2-.53,2.76c-.35.77-.83,1.35-1.44,1.76s-1.3.61-2.08.61Zm0-.95c.6,0,1.12-.16,1.56-.48.44-.32.79-.79,1.04-1.42.25-.62.38-1.38.38-2.29s-.12-1.67-.38-2.29c-.25-.62-.6-1.09-1.04-1.42-.44-.32-.96-.48-1.56-.48s-1.09.16-1.54.48c-.45.32-.8.79-1.05,1.42-.25.62-.38,1.38-.38,2.29s.12,1.67.38,2.29c.25.62.6,1.09,1.05,1.42.45.32.97.48,1.54.48Z"/><path class="cls-1" d="m46.6,615.08c-.21,0-.39-.08-.54-.23-.15-.15-.22-.34-.22-.56s.07-.42.22-.56c.15-.14.33-.22.54-.22s.39.07.54.22c.15.14.22.33.22.56s-.07.41-.22.56c-.15.15-.33.23-.54.23Z"/><path class="cls-1" d="m48.52,612.35v-.75l5.36-6.7h1.16l-5.31,6.7-.56-.17h8.13v.92h-8.76Zm5.7,2.66v-2.66l.03-.92v-2.34h1.01v5.92h-1.04Z"/><path class="cls-1" d="m62.26,615.09c-.78,0-1.47-.21-2.08-.61s-1.08-1-1.43-1.76c-.35-.76-.52-1.69-.52-2.76s.17-2,.52-2.77c.35-.76.82-1.35,1.43-1.76.61-.41,1.3-.61,2.08-.61s1.47.21,2.08.61c.61.41,1.08,1,1.44,1.76.35.77.53,1.69.53,2.77s-.18,2-.53,2.76c-.35.77-.83,1.35-1.44,1.76s-1.3.61-2.08.61Zm0-.95c.6,0,1.12-.16,1.56-.48.44-.32.79-.79,1.04-1.42.25-.62.38-1.38.38-2.29s-.12-1.67-.38-2.29c-.25-.62-.6-1.09-1.04-1.42-.44-.32-.96-.48-1.56-.48s-1.09.16-1.54.48c-.45.32-.8.79-1.05,1.42-.25.62-.38,1.38-.38,2.29s.12,1.67.38,2.29c.25.62.6,1.09,1.05,1.42.45.32.97.48,1.54.48Z"/><line class="cls-4" x1="77.01" y1="553.14" x2="870.01" y2="553.14"/><path class="cls-1" d="m32.74,553.94v-.89h3.78v.89h-3.78Z"/><path class="cls-1" d="m42.28,557.49c-.78,0-1.47-.21-2.08-.61s-1.08-1-1.43-1.76c-.35-.76-.52-1.69-.52-2.76s.17-2,.52-2.77c.35-.76.82-1.35,1.43-1.76.61-.41,1.3-.61,2.08-.61s1.47.21,2.08.61c.61.41,1.08,1,1.44,1.76.35.77.53,1.69.53,2.77s-.18,2-.53,2.76c-.35.77-.83,1.35-1.44,1.76s-1.3.61-2.08.61Zm0-.95c.6,0,1.12-.16,1.56-.48.44-.32.79-.79,1.04-1.42.25-.62.38-1.38.38-2.29s-.12-1.67-.38-2.29c-.25-.62-.6-1.09-1.04-1.42-.44-.32-.96-.48-1.56-.48s-1.09.16-1.54.48c-.45.32-.8.79-1.05,1.42-.25.62-.38,1.38-.38,2.29s.12,1.67.38,2.29c.25.62.6,1.09,1.05,1.42.45.32.97.48,1.54.48Z"/><path class="cls-1" d="m48.43,557.48c-.21,0-.39-.08-.54-.23-.15-.15-.22-.34-.22-.56s.07-.42.22-.56c.15-.14.33-.22.54-.22s.39.07.54.22c.15.14.22.33.22.56s-.07.41-.22.56c-.15.15-.33.23-.54.23Z"/><path class="cls-1" d="m53.87,557.49c-.73,0-1.42-.12-2.07-.35-.65-.24-1.17-.55-1.57-.95l.51-.82c.33.34.77.62,1.32.84s1.16.33,1.81.33c.84,0,1.48-.18,1.93-.55.45-.37.67-.86.67-1.47s-.22-1.11-.66-1.47c-.44-.37-1.13-.55-2.07-.55h-.72v-.77l3.12-3.91.14.4h-5.63v-.92h6.5v.74l-3.12,3.91-.51-.33h.39c1.21,0,2.12.27,2.72.81s.9,1.23.9,2.08c0,.57-.14,1.08-.4,1.53-.27.45-.68.81-1.22,1.07-.54.26-1.23.39-2.04.39Z"/><path class="cls-1" d="m63.14,557.49c-.9,0-1.65-.2-2.27-.6s-1.08-.98-1.4-1.73c-.32-.76-.48-1.66-.48-2.72,0-1.15.19-2.11.58-2.88.39-.78.93-1.36,1.62-1.75.69-.39,1.5-.59,2.41-.59.45,0,.89.04,1.3.13.41.09.78.23,1.1.42l-.42.84c-.26-.17-.56-.3-.9-.37s-.69-.11-1.07-.11c-1.09,0-1.96.35-2.61,1.04-.65.69-.97,1.73-.97,3.1,0,.21.01.47.04.79s.08.62.17.93l-.36-.27c.11-.5.31-.93.62-1.28s.69-.62,1.16-.8c.46-.18.97-.27,1.52-.27.67,0,1.27.12,1.78.38s.91.6,1.2,1.05c.29.45.43.99.43,1.6s-.15,1.17-.45,1.64-.71.83-1.23,1.08c-.52.25-1.11.38-1.77.38Zm-.04-.88c.48,0,.91-.09,1.28-.27.37-.18.66-.43.87-.76.21-.33.32-.72.32-1.16,0-.66-.23-1.19-.69-1.59-.46-.39-1.08-.59-1.86-.59-.52,0-.97.1-1.36.29-.39.19-.69.46-.91.79-.22.33-.33.71-.33,1.13,0,.37.1.71.3,1.05s.5.6.9.81c.4.21.89.31,1.47.31Z"/><line class="cls-4" x1="77.01" y1="495.54" x2="870.01" y2="495.54"/><path class="cls-1" d="m33.4,496.34v-.89h3.78v.89h-3.78Z"/><path class="cls-1" d="m42.94,499.89c-.78,0-1.47-.21-2.08-.61s-1.08-1-1.43-1.76c-.35-.76-.52-1.69-.52-2.76s.17-2,.52-2.77c.35-.76.82-1.35,1.43-1.76.61-.41,1.3-.61,2.08-.61s1.47.21,2.08.61c.61.41,1.08,1,1.44,1.76.35.77.53,1.69.53,2.77s-.18,2-.53,2.76c-.35.77-.83,1.35-1.44,1.76s-1.3.61-2.08.61Zm0-.95c.6,0,1.12-.16,1.56-.48.44-.32.79-.79,1.04-1.42.25-.62.38-1.38.38-2.29s-.12-1.67-.38-2.29c-.25-.62-.6-1.09-1.04-1.42-.44-.32-.96-.48-1.56-.48s-1.09.16-1.54.48c-.45.32-.8.79-1.05,1.42-.25.62-.38,1.38-.38,2.29s.12,1.67.38,2.29c.25.62.6,1.09,1.05,1.42.45.32.97.48,1.54.48Z"/><path class="cls-1" d="m49.09,499.88c-.21,0-.39-.08-.54-.23-.15-.15-.22-.34-.22-.56s.07-.42.22-.56c.15-.14.33-.22.54-.22s.39.07.54.22c.15.14.22.33.22.56s-.07.41-.22.56c-.15.15-.33.23-.54.23Z"/><path class="cls-1" d="m54.54,499.89c-.73,0-1.42-.12-2.07-.35-.65-.24-1.17-.55-1.57-.95l.51-.82c.33.34.77.62,1.32.84s1.16.33,1.81.33c.84,0,1.48-.18,1.93-.55.45-.37.67-.86.67-1.47s-.22-1.11-.66-1.47c-.44-.37-1.13-.55-2.07-.55h-.72v-.77l3.12-3.91.14.4h-5.63v-.92h6.5v.74l-3.12,3.91-.51-.33h.39c1.21,0,2.12.27,2.72.81s.9,1.23.9,2.08c0,.57-.14,1.08-.4,1.53-.27.45-.68.81-1.22,1.07-.54.26-1.23.39-2.04.39Z"/><path class="cls-1" d="m59.4,499.8v-.74l4.2-4.12c.38-.38.67-.71.87-.99s.32-.55.39-.8c.07-.25.1-.49.1-.71,0-.59-.2-1.05-.6-1.39-.4-.34-.99-.5-1.77-.5-.6,0-1.12.09-1.58.27-.46.18-.85.47-1.18.85l-.74-.63c.39-.46.9-.82,1.52-1.07.62-.25,1.3-.38,2.06-.38.68,0,1.28.11,1.78.33.5.22.89.53,1.16.95s.41.9.41,1.46c0,.33-.05.65-.14.97-.09.32-.26.65-.49,1-.24.35-.58.75-1.03,1.19l-3.86,3.78-.29-.4h6.27v.92h-7.09Z"/><line class="cls-4" x1="77.01" y1="437.94" x2="870.01" y2="437.94"/><path class="cls-1" d="m32.26,438.74v-.89h3.78v.89h-3.78Z"/><path class="cls-1" d="m41.8,442.29c-.78,0-1.47-.21-2.08-.61s-1.08-1-1.43-1.76c-.35-.76-.52-1.69-.52-2.76s.17-2,.52-2.77c.35-.76.82-1.35,1.43-1.76.61-.41,1.3-.61,2.08-.61s1.47.21,2.08.61c.61.41,1.08,1,1.44,1.76.35.77.53,1.69.53,2.77s-.18,2-.53,2.76c-.35.77-.83,1.35-1.44,1.76s-1.3.61-2.08.61Zm0-.95c.6,0,1.12-.16,1.56-.48.44-.32.79-.79,1.04-1.42.25-.62.38-1.38.38-2.29s-.12-1.67-.38-2.29c-.25-.62-.6-1.09-1.04-1.42-.44-.32-.96-.48-1.56-.48s-1.09.16-1.54.48c-.45.32-.8.79-1.05,1.42-.25.62-.38,1.38-.38,2.29s.12,1.67.38,2.29c.25.62.6,1.09,1.05,1.42.45.32.97.48,1.54.48Z"/><path class="cls-1" d="m47.95,442.28c-.21,0-.39-.08-.54-.23-.15-.15-.22-.34-.22-.56s.07-.42.22-.56c.15-.14.33-.22.54-.22s.39.07.54.22c.15.14.22.33.22.56s-.07.41-.22.56c-.15.15-.33.23-.54.23Z"/><path class="cls-1" d="m50.19,442.2v-.74l4.2-4.12c.38-.38.67-.71.87-.99s.32-.55.39-.8c.07-.25.1-.49.1-.71,0-.59-.2-1.05-.6-1.39-.4-.34-.99-.5-1.77-.5-.6,0-1.12.09-1.58.27-.46.18-.85.47-1.18.85l-.74-.63c.39-.46.9-.82,1.52-1.07.62-.25,1.3-.38,2.06-.38.68,0,1.28.11,1.78.33.5.22.89.53,1.16.95s.41.9.41,1.46c0,.33-.05.65-.14.97-.09.32-.26.65-.49,1-.24.35-.58.75-1.03,1.19l-3.86,3.78-.29-.4h6.27v.92h-7.09Z"/><path class="cls-1" d="m62.42,442.29c-.81,0-1.5-.12-2.09-.35-.58-.23-1.03-.57-1.34-1-.31-.44-.47-.96-.47-1.55s.15-1.07.46-1.48.75-.72,1.33-.95c.58-.22,1.29-.33,2.12-.33s1.52.11,2.11.33c.59.22,1.04.54,1.35.95.31.41.47.9.47,1.48s-.16,1.11-.48,1.55c-.32.44-.77.77-1.36,1-.59.23-1.29.35-2.09.35Zm0-5.07c-.75,0-1.39-.1-1.91-.3-.52-.2-.93-.49-1.21-.87-.28-.38-.42-.83-.42-1.37,0-.56.15-1.04.44-1.44.29-.4.71-.71,1.23-.92.53-.21,1.15-.32,1.86-.32s1.34.11,1.87.32c.53.21.95.52,1.25.92.3.4.45.88.45,1.44s-.14.98-.42,1.37c-.28.38-.69.67-1.22.87s-1.18.3-1.93.3Zm0,4.19c.9,0,1.6-.18,2.1-.55s.76-.86.76-1.49-.25-1.12-.76-1.48c-.51-.36-1.21-.54-2.1-.54s-1.59.18-2.09.54c-.5.36-.75.85-.75,1.48s.25,1.12.75,1.49,1.2.55,2.09.55Zm0-4.88c.79,0,1.41-.16,1.85-.49.44-.33.66-.76.66-1.31,0-.58-.23-1.03-.69-1.35-.46-.32-1.07-.48-1.83-.48s-1.37.16-1.82.48c-.45.32-.68.77-.68,1.34s.22,1,.66,1.33c.44.33,1.05.49,1.84.49Z"/><line class="cls-4" x1="77.01" y1="380.34" x2="870.01" y2="380.34"/><path class="cls-1" d="m32.26,381.14v-.89h3.78v.89h-3.78Z"/><path class="cls-1" d="m41.8,384.69c-.78,0-1.47-.21-2.08-.61s-1.08-1-1.43-1.76c-.35-.76-.52-1.69-.52-2.76s.17-2,.52-2.77c.35-.76.82-1.35,1.43-1.76.61-.41,1.3-.61,2.08-.61s1.47.21,2.08.61c.61.41,1.08,1,1.44,1.76.35.77.53,1.69.53,2.77s-.18,2-.53,2.76c-.35.77-.83,1.35-1.44,1.76s-1.3.61-2.08.61Zm0-.95c.6,0,1.12-.16,1.56-.48.44-.32.79-.79,1.04-1.42.25-.62.38-1.38.38-2.29s-.12-1.67-.38-2.29c-.25-.62-.6-1.09-1.04-1.42-.44-.32-.96-.48-1.56-.48s-1.09.16-1.54.48c-.45.32-.8.79-1.05,1.42-.25.62-.38,1.38-.38,2.29s.12,1.67.38,2.29c.25.62.6,1.09,1.05,1.42.45.32.97.48,1.54.48Z"/><path class="cls-1" d="m47.95,384.68c-.21,0-.39-.08-.54-.23-.15-.15-.22-.34-.22-.56s.07-.42.22-.56c.15-.14.33-.22.54-.22s.39.07.54.22c.15.14.22.33.22.56s-.07.41-.22.56c-.15.15-.33.23-.54.23Z"/><path class="cls-1" d="m50.19,384.6v-.74l4.2-4.12c.38-.38.67-.71.87-.99s.32-.55.39-.8c.07-.25.1-.49.1-.71,0-.59-.2-1.05-.6-1.39-.4-.34-.99-.5-1.77-.5-.6,0-1.12.09-1.58.27-.46.18-.85.47-1.18.85l-.74-.63c.39-.46.9-.82,1.52-1.07.62-.25,1.3-.38,2.06-.38.68,0,1.28.11,1.78.33.5.22.89.53,1.16.95s.41.9.41,1.46c0,.33-.05.65-.14.97-.09.32-.26.65-.49,1-.24.35-.58.75-1.03,1.19l-3.86,3.78-.29-.4h6.27v.92h-7.09Z"/><path class="cls-1" d="m58.08,381.95v-.75l5.36-6.7h1.16l-5.31,6.7-.56-.17h8.13v.92h-8.76Zm5.7,2.66v-2.66l.03-.92v-2.34h1.01v5.92h-1.04Z"/><line class="cls-4" x1="77.01" y1="322.74" x2="870.01" y2="322.74"/><path class="cls-1" d="m31.94,323.54v-.89h3.78v.89h-3.78Z"/><path class="cls-1" d="m41.49,327.09c-.78,0-1.47-.21-2.08-.61s-1.08-1-1.43-1.76c-.35-.76-.52-1.69-.52-2.76s.17-2,.52-2.77c.35-.76.82-1.35,1.43-1.76.61-.41,1.3-.61,2.08-.61s1.47.21,2.08.61c.61.41,1.08,1,1.44,1.76.35.77.53,1.69.53,2.77s-.18,2-.53,2.76c-.35.77-.83,1.35-1.44,1.76s-1.3.61-2.08.61Zm0-.95c.6,0,1.12-.16,1.56-.48.44-.32.79-.79,1.04-1.42.25-.62.38-1.38.38-2.29s-.12-1.67-.38-2.29c-.25-.62-.6-1.09-1.04-1.42-.44-.32-.96-.48-1.56-.48s-1.09.16-1.54.48c-.45.32-.8.79-1.05,1.42-.25.62-.38,1.38-.38,2.29s.12,1.67.38,2.29c.25.62.6,1.09,1.05,1.42.45.32.97.48,1.54.48Z"/><path class="cls-1" d="m47.64,327.08c-.21,0-.39-.08-.54-.23-.15-.15-.22-.34-.22-.56s.07-.42.22-.56c.15-.14.33-.22.54-.22s.39.07.54.22c.15.14.22.33.22.56s-.07.41-.22.56c-.15.15-.33.23-.54.23Z"/><path class="cls-1" d="m49.87,327v-.74l4.2-4.12c.38-.38.67-.71.87-.99s.32-.55.39-.8c.07-.25.1-.49.1-.71,0-.59-.2-1.05-.6-1.39-.4-.34-.99-.5-1.77-.5-.6,0-1.12.09-1.58.27-.46.18-.85.47-1.18.85l-.74-.63c.39-.46.9-.82,1.52-1.07.62-.25,1.3-.38,2.06-.38.68,0,1.28.11,1.78.33.5.22.89.53,1.16.95s.41.9.41,1.46c0,.33-.05.65-.14.97-.09.32-.26.65-.49,1-.24.35-.58.75-1.03,1.19l-3.86,3.78-.29-.4h6.27v.92h-7.09Z"/><path class="cls-1" d="m62.26,327.09c-.78,0-1.47-.21-2.08-.61s-1.08-1-1.43-1.76c-.35-.76-.52-1.69-.52-2.76s.17-2,.52-2.77c.35-.76.82-1.35,1.43-1.76.61-.41,1.3-.61,2.08-.61s1.47.21,2.08.61c.61.41,1.08,1,1.44,1.76.35.77.53,1.69.53,2.77s-.18,2-.53,2.76c-.35.77-.83,1.35-1.44,1.76s-1.3.61-2.08.61Zm0-.95c.6,0,1.12-.16,1.56-.48.44-.32.79-.79,1.04-1.42.25-.62.38-1.38.38-2.29s-.12-1.67-.38-2.29c-.25-.62-.6-1.09-1.04-1.42-.44-.32-.96-.48-1.56-.48s-1.09.16-1.54.48c-.45.32-.8.79-1.05,1.42-.25.62-.38,1.38-.38,2.29s.12,1.67.38,2.29c.25.62.6,1.09,1.05,1.42.45.32.97.48,1.54.48Z"/><line class="cls-4" x1="77.01" y1="265.14" x2="870.01" y2="265.14"/><path class="cls-1" d="m35.98,265.94v-.89h3.78v.89h-3.78Z"/><path class="cls-1" d="m45.53,269.49c-.78,0-1.47-.21-2.08-.61s-1.08-1-1.43-1.76c-.35-.76-.52-1.69-.52-2.76s.17-2,.52-2.77c.35-.76.82-1.35,1.43-1.76.61-.41,1.3-.61,2.08-.61s1.47.21,2.08.61c.61.41,1.08,1,1.44,1.76.35.77.53,1.69.53,2.77s-.18,2-.53,2.76c-.35.77-.83,1.35-1.44,1.76s-1.3.61-2.08.61Zm0-.95c.6,0,1.12-.16,1.56-.48.44-.32.79-.79,1.04-1.42.25-.62.38-1.38.38-2.29s-.12-1.67-.38-2.29c-.25-.62-.6-1.09-1.04-1.42-.44-.32-.96-.48-1.56-.48s-1.09.16-1.54.48c-.45.32-.8.79-1.05,1.42-.25.62-.38,1.38-.38,2.29s.12,1.67.38,2.29c.25.62.6,1.09,1.05,1.42.45.32.97.48,1.54.48Z"/><path class="cls-1" d="m51.68,269.48c-.21,0-.39-.08-.54-.23-.15-.15-.22-.34-.22-.56s.07-.42.22-.56c.15-.14.33-.22.54-.22s.39.07.54.22c.15.14.22.33.22.56s-.07.41-.22.56c-.15.15-.33.23-.54.23Z"/><path class="cls-1" d="m55.55,269.4v-9.67l.46.49h-2.84v-.92h3.42v10.11h-1.04Z"/><path class="cls-1" d="m63.14,269.49c-.9,0-1.65-.2-2.27-.6s-1.08-.98-1.4-1.73c-.32-.76-.48-1.66-.48-2.72,0-1.15.19-2.11.58-2.88.39-.78.93-1.36,1.62-1.75.69-.39,1.5-.59,2.41-.59.45,0,.89.04,1.3.13.41.09.78.23,1.1.42l-.42.84c-.26-.17-.56-.3-.9-.37s-.69-.11-1.07-.11c-1.09,0-1.96.35-2.61,1.04-.65.69-.97,1.73-.97,3.1,0,.21.01.47.04.79s.08.62.17.93l-.36-.27c.11-.5.31-.93.62-1.28s.69-.62,1.16-.8c.46-.18.97-.27,1.52-.27.67,0,1.27.12,1.78.38s.91.6,1.2,1.05c.29.45.43.99.43,1.6s-.15,1.17-.45,1.64-.71.83-1.23,1.08c-.52.25-1.11.38-1.77.38Zm-.04-.88c.48,0,.91-.09,1.28-.27.37-.18.66-.43.87-.76.21-.33.32-.72.32-1.16,0-.66-.23-1.19-.69-1.59-.46-.39-1.08-.59-1.86-.59-.52,0-.97.1-1.36.29-.39.19-.69.46-.91.79-.22.33-.33.71-.33,1.13,0,.37.1.71.3,1.05s.5.6.9.81c.4.21.89.31,1.47.31Z"/><line class="cls-4" x1="77.01" y1="207.54" x2="870.01" y2="207.54"/><path class="cls-1" d="m36.58,208.34v-.89h3.78v.89h-3.78Z"/><path class="cls-1" d="m46.12,211.89c-.78,0-1.47-.21-2.08-.61s-1.08-1-1.43-1.76c-.35-.76-.52-1.69-.52-2.76s.17-2,.52-2.77c.35-.76.82-1.35,1.43-1.76.61-.41,1.3-.61,2.08-.61s1.47.21,2.08.61c.61.41,1.08,1,1.44,1.76.35.77.53,1.69.53,2.77s-.18,2-.53,2.76c-.35.77-.83,1.35-1.44,1.76s-1.3.61-2.08.61Zm0-.95c.6,0,1.12-.16,1.56-.48.44-.32.79-.79,1.04-1.42.25-.62.38-1.38.38-2.29s-.12-1.67-.38-2.29c-.25-.62-.6-1.09-1.04-1.42-.44-.32-.96-.48-1.56-.48s-1.09.16-1.54.48c-.45.32-.8.79-1.05,1.42-.25.62-.38,1.38-.38,2.29s.12,1.67.38,2.29c.25.62.6,1.09,1.05,1.42.45.32.97.48,1.54.48Z"/><path class="cls-1" d="m52.27,211.88c-.21,0-.39-.08-.54-.23-.15-.15-.22-.34-.22-.56s.07-.42.22-.56c.15-.14.33-.22.54-.22s.39.07.54.22c.15.14.22.33.22.56s-.07.41-.22.56c-.15.15-.33.23-.54.23Z"/><path class="cls-1" d="m56.14,211.8v-9.67l.46.49h-2.84v-.92h3.42v10.11h-1.04Z"/><path class="cls-1" d="m59.4,211.8v-.74l4.2-4.12c.38-.38.67-.71.87-.99s.32-.55.39-.8c.07-.25.1-.49.1-.71,0-.59-.2-1.05-.6-1.39-.4-.34-.99-.5-1.77-.5-.6,0-1.12.09-1.58.27-.46.18-.85.47-1.18.85l-.74-.63c.39-.46.9-.82,1.52-1.07.62-.25,1.3-.38,2.06-.38.68,0,1.28.11,1.78.33.5.22.89.53,1.16.95s.41.9.41,1.46c0,.33-.05.65-.14.97-.09.32-.26.65-.49,1-.24.35-.58.75-1.03,1.19l-3.86,3.78-.29-.4h6.27v.92h-7.09Z"/><line class="cls-4" x1="77.01" y1="149.94" x2="870.01" y2="149.94"/><path class="cls-1" d="m31.2,150.74v-.89h3.78v.89h-3.78Z"/><path class="cls-1" d="m40.75,154.29c-.78,0-1.47-.21-2.08-.61s-1.08-1-1.43-1.76c-.35-.76-.52-1.69-.52-2.76s.17-2,.52-2.77c.35-.76.82-1.35,1.43-1.76.61-.41,1.3-.61,2.08-.61s1.47.21,2.08.61c.61.41,1.08,1,1.44,1.76.35.77.53,1.69.53,2.77s-.18,2-.53,2.76c-.35.77-.83,1.35-1.44,1.76s-1.3.61-2.08.61Zm0-.95c.6,0,1.12-.16,1.56-.48.44-.32.79-.79,1.04-1.42.25-.62.38-1.38.38-2.29s-.12-1.67-.38-2.29c-.25-.62-.6-1.09-1.04-1.42-.44-.32-.96-.48-1.56-.48s-1.09.16-1.54.48c-.45.32-.8.79-1.05,1.42-.25.62-.38,1.38-.38,2.29s.12,1.67.38,2.29c.25.62.6,1.09,1.05,1.42.45.32.97.48,1.54.48Z"/><path class="cls-1" d="m46.9,154.28c-.21,0-.39-.08-.54-.23-.15-.15-.22-.34-.22-.56s.07-.42.22-.56c.15-.14.33-.22.54-.22s.39.07.54.22c.15.14.22.33.22.56s-.07.41-.22.56c-.15.15-.33.23-.54.23Z"/><path class="cls-1" d="m53.05,154.29c-.78,0-1.47-.21-2.08-.61s-1.08-1-1.43-1.76c-.35-.76-.52-1.69-.52-2.76s.17-2,.52-2.77c.35-.76.82-1.35,1.43-1.76.61-.41,1.3-.61,2.08-.61s1.47.21,2.08.61c.61.41,1.08,1,1.44,1.76.35.77.53,1.69.53,2.77s-.18,2-.53,2.76c-.35.77-.83,1.35-1.44,1.76s-1.3.61-2.08.61Zm0-.95c.6,0,1.12-.16,1.56-.48.44-.32.79-.79,1.04-1.42.25-.62.38-1.38.38-2.29s-.12-1.67-.38-2.29c-.25-.62-.6-1.09-1.04-1.42-.44-.32-.96-.48-1.56-.48s-1.09.16-1.54.48c-.45.32-.8.79-1.05,1.42-.25.62-.38,1.38-.38,2.29s.12,1.67.38,2.29c.25.62.6,1.09,1.05,1.42.45.32.97.48,1.54.48Z"/><path class="cls-1" d="m62.42,154.29c-.81,0-1.5-.12-2.09-.35-.58-.23-1.03-.57-1.34-1-.31-.44-.47-.96-.47-1.55s.15-1.07.46-1.48.75-.72,1.33-.95c.58-.22,1.29-.33,2.12-.33s1.52.11,2.11.33c.59.22,1.04.54,1.35.95.31.41.47.9.47,1.48s-.16,1.11-.48,1.55c-.32.44-.77.77-1.36,1-.59.23-1.29.35-2.09.35Zm0-5.07c-.75,0-1.39-.1-1.91-.3-.52-.2-.93-.49-1.21-.87-.28-.38-.42-.83-.42-1.37,0-.56.15-1.04.44-1.44.29-.4.71-.71,1.23-.92.53-.21,1.15-.32,1.86-.32s1.34.11,1.87.32c.53.21.95.52,1.25.92.3.4.45.88.45,1.44s-.14.98-.42,1.37c-.28.38-.69.67-1.22.87s-1.18.3-1.93.3Zm0,4.19c.9,0,1.6-.18,2.1-.55s.76-.86.76-1.49-.25-1.12-.76-1.48c-.51-.36-1.21-.54-2.1-.54s-1.59.18-2.09.54c-.5.36-.75.85-.75,1.48s.25,1.12.75,1.49,1.2.55,2.09.55Zm0-4.88c.79,0,1.41-.16,1.85-.49.44-.33.66-.76.66-1.31,0-.58-.23-1.03-.69-1.35-.46-.32-1.07-.48-1.83-.48s-1.37.16-1.82.48c-.45.32-.68.77-.68,1.34s.22,1,.66,1.33c.44.33,1.05.49,1.84.49Z"/><line class="cls-4" x1="77.01" y1="92.34" x2="870.01" y2="92.34"/><path class="cls-1" d="m30.87,93.14v-.89h3.78v.89h-3.78Z"/><path class="cls-1" d="m40.42,96.69c-.78,0-1.47-.21-2.08-.61s-1.08-1-1.43-1.76c-.35-.76-.52-1.69-.52-2.76s.17-2,.52-2.77c.35-.76.82-1.35,1.43-1.76.61-.41,1.3-.61,2.08-.61s1.47.21,2.08.61c.61.41,1.08,1,1.44,1.76.35.77.53,1.69.53,2.77s-.18,2-.53,2.76c-.35.77-.83,1.35-1.44,1.76s-1.3.61-2.08.61Zm0-.95c.6,0,1.12-.16,1.56-.48.44-.32.79-.79,1.04-1.42.25-.62.38-1.38.38-2.29s-.12-1.67-.38-2.29c-.25-.62-.6-1.09-1.04-1.42-.44-.32-.96-.48-1.56-.48s-1.09.16-1.54.48c-.45.32-.8.79-1.05,1.42-.25.62-.38,1.38-.38,2.29s.12,1.67.38,2.29c.25.62.6,1.09,1.05,1.42.45.32.97.48,1.54.48Z"/><path class="cls-1" d="m46.57,96.68c-.21,0-.39-.08-.54-.23-.15-.15-.22-.34-.22-.56s.07-.42.22-.56c.15-.14.33-.22.54-.22s.39.07.54.22c.15.14.22.33.22.56s-.07.41-.22.56c-.15.15-.33.23-.54.23Z"/><path class="cls-1" d="m52.72,96.69c-.78,0-1.47-.21-2.08-.61s-1.08-1-1.43-1.76c-.35-.76-.52-1.69-.52-2.76s.17-2,.52-2.77c.35-.76.82-1.35,1.43-1.76.61-.41,1.3-.61,2.08-.61s1.47.21,2.08.61c.61.41,1.08,1,1.44,1.76.35.77.53,1.69.53,2.77s-.18,2-.53,2.76c-.35.77-.83,1.35-1.44,1.76s-1.3.61-2.08.61Zm0-.95c.6,0,1.12-.16,1.56-.48.44-.32.79-.79,1.04-1.42.25-.62.38-1.38.38-2.29s-.12-1.67-.38-2.29c-.25-.62-.6-1.09-1.04-1.42-.44-.32-.96-.48-1.56-.48s-1.09.16-1.54.48c-.45.32-.8.79-1.05,1.42-.25.62-.38,1.38-.38,2.29s.12,1.67.38,2.29c.25.62.6,1.09,1.05,1.42.45.32.97.48,1.54.48Z"/><path class="cls-1" d="m58.08,93.95v-.75l5.36-6.7h1.16l-5.31,6.7-.56-.17h8.13v.92h-8.76Zm5.7,2.66v-2.66l.03-.92v-2.34h1.01v5.92h-1.04Z"/><line class="cls-4" x1="77.01" y1="34.74" x2="870.01" y2="34.74"/><path class="cls-1" d="m30.86,35.54v-.89h3.78v.89h-3.78Z"/><path class="cls-1" d="m40.4,39.09c-.78,0-1.47-.21-2.08-.61s-1.08-1-1.43-1.76c-.35-.76-.52-1.69-.52-2.76s.17-2,.52-2.77c.35-.76.82-1.35,1.43-1.76.61-.41,1.3-.61,2.08-.61s1.47.21,2.08.61c.61.41,1.08,1,1.44,1.76.35.77.53,1.69.53,2.77s-.18,2-.53,2.76c-.35.77-.83,1.35-1.44,1.76s-1.3.61-2.08.61Zm0-.95c.6,0,1.12-.16,1.56-.48.44-.32.79-.79,1.04-1.42.25-.62.38-1.38.38-2.29s-.12-1.67-.38-2.29c-.25-.62-.6-1.09-1.04-1.42-.44-.32-.96-.48-1.56-.48s-1.09.16-1.54.48c-.45.32-.8.79-1.05,1.42-.25.62-.38,1.38-.38,2.29s.12,1.67.38,2.29c.25.62.6,1.09,1.05,1.42.45.32.97.48,1.54.48Z"/><path class="cls-1" d="m46.55,39.08c-.21,0-.39-.08-.54-.23-.15-.15-.22-.34-.22-.56s.07-.42.22-.56c.15-.14.33-.22.54-.22s.39.07.54.22c.15.14.22.33.22.56s-.07.41-.22.56c-.15.15-.33.23-.54.23Z"/><path class="cls-1" d="m52.7,39.09c-.78,0-1.47-.21-2.08-.61s-1.08-1-1.43-1.76c-.35-.76-.52-1.69-.52-2.76s.17-2,.52-2.77c.35-.76.82-1.35,1.43-1.76.61-.41,1.3-.61,2.08-.61s1.47.21,2.08.61c.61.41,1.08,1,1.44,1.76.35.77.53,1.69.53,2.77s-.18,2-.53,2.76c-.35.77-.83,1.35-1.44,1.76s-1.3.61-2.08.61Zm0-.95c.6,0,1.12-.16,1.56-.48.44-.32.79-.79,1.04-1.42.25-.62.38-1.38.38-2.29s-.12-1.67-.38-2.29c-.25-.62-.6-1.09-1.04-1.42-.44-.32-.96-.48-1.56-.48s-1.09.16-1.54.48c-.45.32-.8.79-1.05,1.42-.25.62-.38,1.38-.38,2.29s.12,1.67.38,2.29c.25.62.6,1.09,1.05,1.42.45.32.97.48,1.54.48Z"/><path class="cls-1" d="m62.26,39.09c-.78,0-1.47-.21-2.08-.61s-1.08-1-1.43-1.76c-.35-.76-.52-1.69-.52-2.76s.17-2,.52-2.77c.35-.76.82-1.35,1.43-1.76.61-.41,1.3-.61,2.08-.61s1.47.21,2.08.61c.61.41,1.08,1,1.44,1.76.35.77.53,1.69.53,2.77s-.18,2-.53,2.76c-.35.77-.83,1.35-1.44,1.76s-1.3.61-2.08.61Zm0-.95c.6,0,1.12-.16,1.56-.48.44-.32.79-.79,1.04-1.42.25-.62.38-1.38.38-2.29s-.12-1.67-.38-2.29c-.25-.62-.6-1.09-1.04-1.42-.44-.32-.96-.48-1.56-.48s-1.09.16-1.54.48c-.45.32-.8.79-1.05,1.42-.25.62-.38,1.38-.38,2.29s.12,1.67.38,2.29c.25.62.6,1.09,1.05,1.42.45.32.97.48,1.54.48Z"/><path class="cls-1" d="m16.67,569.38h-.74l-8.85-7.02.4-.12v7.03h-.92v-8.01h.74l8.85,7-.4.13v-7.31h.92v8.29Z"/><path class="cls-1" d="m9.02,549.73c0-.62.12-1.15.35-1.61.24-.46.59-.81,1.08-1.07.48-.25,1.09-.38,1.82-.38h4.4v1.03h-4.3c-.8,0-1.4.19-1.81.57-.41.38-.61.92-.61,1.61,0,.52.11.97.32,1.35.22.38.53.67.94.88.41.21.9.31,1.48.31h3.99v1.03h-4.3c-.8,0-1.4.19-1.81.58-.41.39-.61.92-.61,1.62,0,.51.11.96.32,1.34.22.38.53.68.94.89.41.21.9.31,1.48.31h3.99v1.02h-7.58v-.98h2.05l-.36.16c-.55-.23-.98-.6-1.29-1.12s-.47-1.12-.47-1.83c0-.74.19-1.37.56-1.89.37-.52.93-.86,1.67-1.01l-.16.4c-.62-.22-1.11-.61-1.5-1.18-.38-.56-.57-1.24-.57-2.03Z"/><path class="cls-1" d="m9.02,540.01c0-.62.12-1.16.35-1.62.24-.47.59-.83,1.08-1.1s1.09-.4,1.82-.4h4.4v1.03h-4.3c-.8,0-1.4.2-1.81.6-.41.4-.61.96-.61,1.68,0,.54.11,1.01.32,1.41.22.4.53.71.94.92.41.22.9.33,1.48.33h3.99v1.02h-7.58v-.98h2.08l-.39.16c-.55-.24-.98-.63-1.29-1.16s-.47-1.16-.47-1.89Z"/><path class="cls-1" d="m7.42,533.6c0,.21-.07.39-.22.53s-.32.22-.52.22-.37-.07-.51-.22-.21-.32-.21-.53.07-.39.2-.53.3-.22.5-.22.39.07.53.21c.14.14.22.32.22.54Zm9.26.52h-7.58v-1.02h7.58v1.02Z"/><path class="cls-1" d="m16.74,527.02c0,.79-.17,1.48-.5,2.08-.33.6-.79,1.06-1.37,1.4-.58.34-1.25.51-2,.51s-1.42-.16-1.99-.48c-.58-.32-1.03-.77-1.37-1.33-.33-.56-.5-1.2-.5-1.9s.16-1.35.48-1.9.77-.99,1.36-1.31c.58-.32,1.25-.48,2.01-.48.05,0,.1,0,.15,0,.05,0,.11,0,.17,0v6.6h-.77v-6.05l.3.4c-.55,0-1.04.12-1.46.35-.43.24-.76.56-1,.96s-.36.87-.36,1.4.12.99.36,1.4.58.74,1.01.97c.43.23.93.35,1.49.35h.16c.58,0,1.08-.13,1.52-.38.44-.26.78-.61,1.02-1.07.25-.46.37-.98.37-1.57,0-.46-.08-.89-.25-1.29-.16-.4-.41-.74-.75-1.03l.66-.58c.4.34.71.76.92,1.26.21.51.32,1.06.32,1.67Z"/><path class="cls-1" d="m7.42,520.93c0,.21-.07.39-.22.53s-.32.22-.52.22-.37-.07-.51-.22-.21-.32-.21-.53.07-.39.2-.53.3-.22.5-.22.39.07.53.21c.14.14.22.32.22.54Zm12.13,1.72c0,.31-.04.6-.12.89-.08.28-.21.52-.37.71l-.78-.36c.26-.31.39-.7.39-1.18,0-.4-.12-.71-.36-.93-.24-.22-.6-.33-1.07-.33h-8.14v-1.02h8.14c.7,0,1.26.19,1.68.57.42.38.63.93.63,1.65Z"/><path class="cls-1" d="m16.74,515.53c0,.62-.09,1.22-.27,1.78-.18.56-.4,1-.67,1.31l-.81-.46c.23-.31.43-.7.6-1.18.17-.48.25-.99.25-1.52,0-.72-.11-1.24-.34-1.56-.23-.32-.53-.48-.9-.48-.28,0-.5.09-.66.27-.16.18-.28.41-.36.7-.08.29-.15.61-.21.97s-.12.71-.2,1.06c-.08.35-.19.67-.34.96-.15.29-.35.52-.61.7-.26.18-.61.27-1.04.27s-.78-.12-1.11-.35c-.33-.23-.58-.57-.77-1.02-.19-.45-.28-.99-.28-1.64,0-.49.07-.98.2-1.47s.3-.9.51-1.21l.82.45c-.23.34-.4.7-.5,1.08-.1.38-.15.77-.15,1.16,0,.68.12,1.19.35,1.51.24.32.54.48.9.48.29,0,.51-.09.68-.27.16-.18.29-.41.38-.71.09-.29.17-.62.22-.97s.13-.7.21-1.05.19-.67.33-.97.34-.53.59-.71c.26-.18.59-.27,1-.27.44,0,.83.12,1.15.37.32.25.57.6.75,1.07.18.47.27,1.03.27,1.7Z"/><path class="cls-1" d="m16.67,511.34h-.68l-6.4-5.05.35-.22v5.18h-.85v-5.99h.66l6.41,5.04-.35.26v-5.4h.85v6.18Z"/><path class="cls-1" d="m16.74,500.05c0,.79-.17,1.48-.5,2.08-.33.6-.79,1.06-1.37,1.4-.58.34-1.25.51-2,.51s-1.42-.16-1.99-.48c-.58-.32-1.03-.77-1.37-1.33-.33-.56-.5-1.2-.5-1.9s.16-1.35.48-1.9.77-.99,1.36-1.31c.58-.32,1.25-.48,2.01-.48.05,0,.1,0,.15,0,.05,0,.11,0,.17,0v6.6h-.77v-6.05l.3.4c-.55,0-1.04.12-1.46.35-.43.24-.76.56-1,.96s-.36.87-.36,1.4.12.99.36,1.4.58.74,1.01.97c.43.23.93.35,1.49.35h.16c.58,0,1.08-.13,1.52-.38.44-.26.78-.61,1.02-1.07.25-.46.37-.98.37-1.57,0-.46-.08-.89-.25-1.29-.16-.4-.41-.74-.75-1.03l.66-.58c.4.34.71.76.92,1.26.21.51.32,1.06.32,1.67Z"/><path class="cls-1" d="m9.02,490.68c0-.62.12-1.16.35-1.62.24-.47.59-.83,1.08-1.1.48-.27,1.09-.4,1.82-.4h4.4v1.03h-4.3c-.8,0-1.4.2-1.81.6-.41.4-.61.96-.61,1.68,0,.54.11,1.01.32,1.41.22.4.53.71.94.92.41.22.9.33,1.48.33h3.99v1.02h-7.58v-.98h2.08l-.39.16c-.55-.24-.98-.62-1.29-1.15s-.47-1.16-.47-1.89Z"/><path class="cls-1" d="m7.42,484.26c0,.21-.07.39-.22.53s-.32.22-.52.22-.37-.07-.51-.22-.21-.32-.21-.53.07-.39.2-.54.3-.22.5-.22.39.07.53.21.22.32.22.54Zm9.26.52h-7.58v-1.03h7.58v1.03Z"/><path class="cls-1" d="m16.74,477.68c0,.79-.17,1.48-.5,2.08-.33.6-.79,1.06-1.37,1.4-.58.34-1.25.51-2,.51s-1.42-.16-1.99-.48c-.58-.32-1.03-.76-1.37-1.33-.33-.56-.5-1.2-.5-1.9s.16-1.35.48-1.9c.32-.55.77-.99,1.36-1.31.58-.32,1.25-.48,2.01-.48.05,0,.1,0,.15,0,.05,0,.11,0,.17,0v6.6h-.77v-6.05l.3.4c-.55,0-1.04.12-1.46.35-.43.24-.76.56-1,.96s-.36.87-.36,1.4.12.99.36,1.4.58.74,1.01.97c.43.23.93.35,1.49.35h.16c.58,0,1.08-.13,1.52-.38.44-.26.78-.61,1.02-1.07.25-.46.37-.98.37-1.57,0-.46-.08-.89-.25-1.29-.16-.4-.41-.74-.75-1.03l.66-.58c.4.34.71.76.92,1.26s.32,1.06.32,1.67Z"/><path class="cls-1" d="m9.02,458.92c0-.62.12-1.15.35-1.61.24-.46.59-.81,1.08-1.07s1.09-.38,1.82-.38h4.4v1.02h-4.3c-.8,0-1.4.19-1.81.57s-.61.92-.61,1.61c0,.52.11.97.32,1.35.22.38.53.67.94.88.41.21.9.31,1.48.31h3.99v1.03h-4.3c-.8,0-1.4.19-1.81.58s-.61.92-.61,1.62c0,.51.11.96.32,1.34.22.39.53.68.94.89.41.21.9.31,1.48.31h3.99v1.03h-7.58v-.98h2.05l-.36.16c-.55-.23-.98-.6-1.29-1.12s-.47-1.12-.47-1.83c0-.74.19-1.37.56-1.89.37-.52.93-.86,1.67-1.01l-.16.4c-.62-.22-1.11-.61-1.5-1.18-.38-.56-.57-1.24-.57-2.03Z"/><path class="cls-1" d="m7.42,452.56c0,.21-.07.39-.22.53s-.32.22-.52.22-.37-.07-.51-.22-.21-.32-.21-.53.07-.39.2-.54.3-.22.5-.22.39.07.53.21.22.32.22.54Zm9.26.52h-7.58v-1.03h7.58v1.03Z"/><path class="cls-1" d="m9.02,445.32c0-.62.12-1.16.35-1.62.24-.47.59-.83,1.08-1.1.48-.26,1.09-.4,1.82-.4h4.4v1.03h-4.3c-.8,0-1.4.2-1.81.6s-.61.96-.61,1.68c0,.54.11,1.01.32,1.41.22.4.53.71.94.92.41.22.9.32,1.48.32h3.99v1.03h-7.58v-.98h2.08l-.39.16c-.55-.24-.98-.63-1.29-1.16s-.47-1.16-.47-1.89Z"/><path class="cls-1" d="m16.74,439.33c0,.21-.08.39-.23.54-.15.15-.34.22-.56.22s-.42-.08-.56-.22c-.14-.15-.22-.33-.22-.54s.07-.39.22-.54.33-.22.56-.22.41.07.56.22c.15.15.23.33.23.54Z"/><path class="cls-1" d="m16.74,430.55c0,.62-.09,1.22-.27,1.78-.18.56-.4,1-.67,1.31l-.81-.46c.23-.31.43-.7.6-1.18.17-.48.25-.99.25-1.52,0-.72-.11-1.24-.34-1.56-.23-.32-.53-.48-.9-.48-.28,0-.5.09-.66.27-.16.18-.28.41-.36.7-.08.29-.15.61-.21.97-.06.36-.12.71-.2,1.06-.08.35-.19.67-.34.96-.15.29-.35.52-.61.7s-.61.27-1.04.27-.78-.12-1.11-.35c-.33-.23-.58-.57-.77-1.02-.19-.45-.28-.99-.28-1.64,0-.49.07-.98.2-1.47.13-.49.3-.9.51-1.21l.82.45c-.23.34-.4.7-.5,1.08-.1.39-.15.77-.15,1.16,0,.68.12,1.19.35,1.51.24.32.54.48.9.48.29,0,.51-.09.68-.27.16-.18.29-.41.38-.71.09-.29.17-.62.22-.97s.13-.7.21-1.05.19-.67.33-.97c.14-.29.34-.53.59-.71.26-.18.59-.27,1-.27.44,0,.83.12,1.15.37.32.25.57.6.75,1.07.18.47.27,1.03.27,1.7Z"/><path class="cls-1" d="m16.67,426.36h-.68l-6.4-5.05.35-.22v5.18h-.85v-5.99h.66l6.41,5.04-.35.26v-5.4h.85v6.18Z"/><path class="cls-1" d="m16.74,415.07c0,.79-.17,1.48-.5,2.08-.33.6-.79,1.06-1.37,1.4-.58.34-1.25.51-2,.51s-1.42-.16-1.99-.48c-.58-.32-1.03-.76-1.37-1.33-.33-.56-.5-1.2-.5-1.9s.16-1.35.48-1.9c.32-.55.77-.99,1.36-1.31.58-.32,1.25-.48,2.01-.48.05,0,.1,0,.15,0,.05,0,.11,0,.17,0v6.6h-.77v-6.05l.3.4c-.55,0-1.04.12-1.46.35-.43.24-.76.56-1,.96s-.36.87-.36,1.4.12.99.36,1.4.58.74,1.01.97c.43.23.93.35,1.49.35h.16c.58,0,1.08-.13,1.52-.38.44-.26.78-.61,1.02-1.07.25-.46.37-.98.37-1.57,0-.46-.08-.89-.25-1.29-.16-.4-.41-.74-.75-1.03l.66-.58c.4.34.71.76.92,1.26s.32,1.06.32,1.67Z"/><path class="cls-1" d="m16.67,409.57h-7.58v-.98h2.07l-.36.1c-.58-.21-1.02-.57-1.32-1.07-.3-.5-.46-1.12-.46-1.86h1s0,.08,0,.12c0,.04,0,.08,0,.12,0,.8.24,1.43.73,1.88.49.45,1.18.68,2.07.68h3.87v1.03Z"/><path class="cls-1" d="m16.74,400.88c0,.73-.17,1.39-.5,1.97-.33.58-.79,1.04-1.37,1.38-.58.34-1.25.5-2,.5s-1.43-.17-2.01-.5-1.03-.79-1.36-1.37-.49-1.24-.49-1.98.16-1.42.49-2c.33-.58.78-1.04,1.36-1.37s1.25-.5,2.01-.5,1.42.17,2,.5c.58.33,1.04.79,1.37,1.38.33.59.5,1.25.5,1.99Zm-.91,0c0-.55-.12-1.03-.37-1.46-.25-.42-.59-.76-1.04-1-.45-.25-.96-.37-1.55-.37s-1.12.12-1.56.37c-.44.25-.79.58-1.03,1-.25.42-.37.91-.37,1.44s.12,1.02.37,1.44.59.76,1.03,1.01c.44.25.96.38,1.56.38s1.1-.12,1.55-.38c.45-.25.79-.59,1.04-1.01.25-.42.37-.9.37-1.43Z"/><path class="cls-1" d="m16.67,394.91H5.96v-1.03h10.71v1.03Zm-1.96-.81l-1.31-.03-4.3-4.72v-1.26l3.19,3.34.49.58,1.93,2.09Zm1.96-5.07l-3.94,3.16-.79-.66,4.74-3.75v1.26Z"/><path class="cls-1" d="m16.74,383.45c0,.73-.17,1.39-.5,1.97s-.79,1.04-1.37,1.38c-.58.34-1.25.51-2,.51s-1.43-.17-2.01-.51-1.03-.79-1.36-1.37-.49-1.24-.49-1.98.16-1.42.49-2c.33-.58.78-1.04,1.36-1.37s1.25-.5,2.01-.5,1.42.17,2,.5c.58.33,1.04.79,1.37,1.38s.5,1.25.5,1.99Zm-.91,0c0-.55-.12-1.04-.37-1.46-.25-.42-.59-.76-1.04-1-.45-.25-.96-.37-1.55-.37s-1.12.12-1.56.37c-.44.25-.79.58-1.03,1s-.37.9-.37,1.44.12,1.02.37,1.45c.25.42.59.76,1.03,1.01.44.25.96.38,1.56.38s1.1-.12,1.55-.38c.45-.25.79-.59,1.04-1.01.25-.42.37-.9.37-1.43Z"/><path class="cls-1" d="m7.91,376.34l-1.79-1.98v-1.37l1.79,2.34v1.01Zm8.84-.89c0,.62-.09,1.22-.27,1.78-.18.56-.4,1-.67,1.31l-.81-.46c.23-.31.43-.7.6-1.18.17-.48.25-.99.25-1.52,0-.72-.11-1.24-.34-1.56-.23-.32-.53-.48-.9-.48-.28,0-.5.09-.66.27-.16.18-.28.41-.36.7-.08.29-.15.61-.21.97-.06.36-.12.71-.2,1.06-.08.35-.19.67-.34.96-.15.29-.35.52-.61.7s-.61.27-1.04.27-.78-.12-1.11-.35c-.33-.23-.58-.57-.77-1.02-.19-.45-.28-.99-.28-1.64,0-.49.07-.98.2-1.47.13-.49.3-.9.51-1.21l.82.45c-.23.34-.4.7-.5,1.08-.1.39-.15.77-.15,1.16,0,.68.12,1.19.35,1.51.24.32.54.48.9.48.29,0,.51-.09.68-.27.16-.18.29-.41.38-.71.09-.29.17-.62.22-.97s.13-.7.21-1.05.19-.67.33-.97c.14-.29.34-.53.59-.71.26-.18.59-.27,1-.27.44,0,.83.12,1.15.37.32.25.57.6.75,1.07.18.47.27,1.03.27,1.7Z"/><path class="cls-1" d="m16.74,367.29c0,.75-.17,1.42-.5,2.01s-.79,1.06-1.37,1.39c-.58.34-1.25.5-2,.5s-1.43-.17-2.01-.5c-.58-.34-1.03-.8-1.36-1.39s-.49-1.26-.49-2.01c0-.64.13-1.23.38-1.75.25-.52.63-.93,1.13-1.23l.52.77c-.38.26-.67.58-.85.97s-.27.8-.27,1.26c0,.54.12,1.03.37,1.46s.59.78,1.03,1.03c.44.25.96.38,1.56.38s1.12-.12,1.56-.38c.44-.25.79-.59,1.03-1.03.25-.43.37-.92.37-1.46,0-.45-.09-.87-.27-1.26-.18-.38-.46-.71-.84-.97l.52-.77c.49.3.86.71,1.12,1.23.25.52.38,1.1.38,1.75Z"/><path class="cls-1" d="m7.42,361.9c0,.21-.07.39-.22.53s-.32.22-.52.22-.37-.07-.51-.22-.21-.32-.21-.53.07-.39.2-.53.3-.22.5-.22.39.07.53.21c.14.14.22.32.22.54Zm9.26.52h-7.58v-1.02h7.58v1.02Z"/><path class="cls-1" d="m16.74,352.72c0,.63-.09,1.22-.27,1.78-.18.56-.4,1-.67,1.31l-.81-.46c.23-.31.43-.7.6-1.18.17-.48.25-.99.25-1.52,0-.72-.11-1.24-.34-1.56-.23-.32-.53-.48-.9-.48-.28,0-.5.09-.66.27-.16.18-.28.41-.36.7-.08.29-.15.61-.21.97-.06.36-.12.71-.2,1.06s-.19.67-.34.96c-.15.29-.35.52-.61.7-.26.18-.61.27-1.04.27s-.78-.12-1.11-.35c-.33-.23-.58-.57-.77-1.02-.19-.45-.28-.99-.28-1.64,0-.49.07-.98.2-1.47.13-.49.3-.89.51-1.21l.82.45c-.23.34-.4.7-.5,1.08-.1.38-.15.77-.15,1.15,0,.68.12,1.19.35,1.51.24.32.54.48.9.48.29,0,.51-.09.68-.27.16-.18.29-.41.38-.71.09-.29.17-.62.22-.97s.13-.7.21-1.05.19-.67.33-.97c.14-.29.34-.53.59-.71.26-.18.59-.27,1-.27.44,0,.83.12,1.15.37.32.24.57.6.75,1.07.18.47.27,1.03.27,1.7Z"/><path class="cls-1" d="m16.67,348.53h-.68l-6.4-5.05.35-.22v5.18h-.85v-5.99h.66l6.41,5.04-.35.26v-5.4h.85v6.18Z"/><path class="cls-1" d="m16.74,336.42c0,.65-.15,1.25-.46,1.78-.3.53-.74.95-1.31,1.26-.57.31-1.27.47-2.1.47s-1.53-.15-2.1-.46c-.57-.31-1.01-.73-1.31-1.26-.3-.53-.45-1.13-.45-1.79,0-.72.16-1.37.48-1.94s.77-1.02,1.36-1.35c.58-.33,1.25-.49,2.01-.49s1.44.16,2.02.49c.58.33,1.03.78,1.36,1.35s.49,1.22.49,1.94Zm2.73,3.91h-10.38v-.98h2.28l1.52.1,1.53-.14h5.05v1.02Zm-3.64-3.84c0-.54-.12-1.02-.37-1.44-.25-.42-.59-.76-1.04-1.01-.45-.25-.96-.38-1.55-.38s-1.1.12-1.54.38c-.44.25-.79.59-1.04,1.01-.25.42-.38.9-.38,1.44s.12,1.02.38,1.45c.25.43.6.77,1.04,1.01.44.25.96.37,1.54.37s1.1-.12,1.55-.37c.45-.25.79-.58,1.04-1.01.25-.43.37-.91.37-1.45Z"/><path class="cls-1" d="m16.67,325.83h-1.67l-.27.04h-2.8c-.64,0-1.14.18-1.49.54-.35.36-.52.9-.52,1.61,0,.49.08.96.25,1.4.16.44.38.82.65,1.13l-.77.46c-.33-.39-.58-.85-.76-1.39s-.27-1.11-.27-1.7c0-.98.24-1.74.73-2.27.49-.53,1.23-.8,2.22-.8h4.71v.98Zm.07,2.61c0,.57-.09,1.06-.28,1.48-.19.42-.45.74-.78.96-.33.22-.71.33-1.15.33-.39,0-.75-.09-1.08-.28-.32-.19-.58-.5-.78-.92-.2-.43-.3-1-.3-1.73v-2.61h.76v2.58c0,.73.13,1.24.39,1.52.26.28.58.43.97.43.43,0,.78-.17,1.04-.51.26-.34.39-.81.39-1.42s-.13-1.08-.4-1.49c-.26-.42-.65-.72-1.15-.92l.71-.23c.5.19.9.53,1.2,1,.3.48.45,1.08.45,1.8Z"/><path class="cls-1" d="m16.67,322.07h-7.58v-.98h2.07l-.36.1c-.58-.21-1.02-.57-1.32-1.07-.3-.5-.46-1.12-.46-1.86h1s0,.08,0,.12,0,.08,0,.12c0,.8.24,1.42.73,1.88.49.45,1.18.68,2.07.68h3.87v1.02Z"/><path class="cls-1" d="m19.55,316c0,.36-.06.7-.17,1.02-.12.32-.29.6-.52.83l-.77-.48c.18-.19.33-.4.43-.63.1-.23.15-.48.15-.76,0-.34-.09-.63-.28-.87-.19-.25-.52-.48-.99-.7l-1.11-.49-.16-.12-7.03-3.12v-1.01l8.49,3.8c.49.21.88.45,1.17.7.29.26.49.53.61.83.12.3.18.63.18,1Zm-2.66-2.02l-7.8,3.49v-1.07l6.96-3.09.84.66Z"/><path class="cls-1" d="m16.74,302.41c0,.63-.09,1.22-.27,1.78-.18.56-.4,1-.67,1.31l-.81-.46c.23-.31.43-.7.6-1.18.17-.48.25-.99.25-1.52,0-.72-.11-1.24-.34-1.56-.23-.32-.53-.48-.9-.48-.28,0-.5.09-.66.27-.16.18-.28.41-.36.7-.08.29-.15.61-.21.97s-.12.71-.2,1.06c-.08.35-.19.67-.34.96-.15.29-.35.52-.61.7-.26.18-.61.27-1.04.27s-.78-.12-1.11-.35c-.33-.23-.58-.57-.77-1.02-.19-.45-.28-.99-.28-1.64,0-.49.07-.98.2-1.47.13-.49.3-.9.51-1.21l.82.45c-.23.34-.4.7-.5,1.08-.1.39-.15.77-.15,1.16,0,.68.12,1.19.35,1.51.24.32.54.48.9.48.29,0,.51-.09.68-.27.16-.18.29-.41.38-.71.09-.29.17-.62.22-.97s.13-.7.21-1.05.19-.67.33-.97c.14-.29.34-.53.59-.71.26-.18.59-.27,1-.27.44,0,.83.12,1.15.37.32.25.57.6.75,1.07.18.47.27,1.03.27,1.7Z"/><path class="cls-1" d="m16.74,295.01c0,.71-.19,1.26-.58,1.65-.38.38-.93.58-1.63.58h-7.12v-1.02h7.06c.44,0,.78-.11,1.02-.34.24-.23.36-.55.36-.97,0-.45-.13-.83-.39-1.13l.74-.36c.18.2.32.45.4.73.09.28.13.58.13.87Zm-6.8,3.58h-.85v-4.69h.85v4.69Z"/><path class="cls-1" d="m16.67,286.79h-1.67l-.27.04h-2.8c-.64,0-1.14.18-1.49.54-.35.36-.52.9-.52,1.61,0,.49.08.96.25,1.4.16.44.38.82.65,1.13l-.77.46c-.33-.39-.58-.85-.76-1.39s-.27-1.11-.27-1.7c0-.98.24-1.74.73-2.27.49-.53,1.23-.8,2.22-.8h4.71v.98Zm.07,2.61c0,.57-.09,1.06-.28,1.48-.19.42-.45.74-.78.96-.33.22-.71.33-1.15.33-.39,0-.75-.09-1.08-.28-.32-.19-.58-.5-.78-.92-.2-.43-.3-1-.3-1.73v-2.61h.76v2.58c0,.73.13,1.24.39,1.52.26.28.58.43.97.43.43,0,.78-.17,1.04-.51.26-.34.39-.81.39-1.42s-.13-1.08-.4-1.49c-.26-.42-.65-.72-1.15-.92l.71-.23c.5.19.9.53,1.2,1,.3.48.45,1.08.45,1.8Z"/><path class="cls-1" d="m16.67,281.62l-7.58,2.86v-.98l7.03-2.6v.45l-7.03-2.67v-.88l7.03-2.64v.45l-7.03-2.64v-.94l7.58,2.87v.97l-6.61,2.54v-.3l6.61,2.56v.97Z"/><path class="cls-1" d="m16.74,267.6c0,.73-.17,1.39-.5,1.97-.33.58-.79,1.04-1.37,1.38-.58.34-1.25.51-2,.51s-1.43-.17-2.01-.51-1.03-.79-1.36-1.37-.49-1.24-.49-1.98.16-1.42.49-2,.78-1.04,1.36-1.37,1.25-.5,2.01-.5,1.42.17,2,.5c.58.33,1.04.79,1.37,1.38.33.59.5,1.25.5,1.99Zm-.91,0c0-.55-.12-1.03-.37-1.46-.25-.42-.59-.76-1.04-1-.45-.25-.96-.37-1.55-.37s-1.12.12-1.56.37c-.44.25-.79.58-1.03,1-.25.42-.37.9-.37,1.44s.12,1.02.37,1.44c.25.42.59.76,1.03,1.01.44.25.96.38,1.56.38s1.1-.12,1.55-.38c.45-.25.79-.59,1.04-1.01.25-.42.37-.9.37-1.43Z"/><path class="cls-1" d="m16.67,260.31l-7.58,2.86v-.98l7.03-2.6v.45l-7.03-2.67v-.88l7.03-2.64v.45l-7.03-2.64v-.94l7.58,2.87v.97l-6.61,2.54v-.3l6.61,2.56v.97Z"/><path class="cls-1" d="m16.74,246.16c0,.79-.17,1.48-.5,2.08-.33.6-.79,1.06-1.37,1.4-.58.34-1.25.51-2,.51s-1.42-.16-1.99-.48c-.58-.32-1.03-.77-1.37-1.33-.33-.56-.5-1.2-.5-1.9s.16-1.35.48-1.9.77-.99,1.36-1.31c.58-.32,1.25-.48,2.01-.48.05,0,.1,0,.15,0,.05,0,.11,0,.17,0v6.6h-.77v-6.05l.3.4c-.55,0-1.04.12-1.46.35-.43.24-.76.56-1,.96s-.36.87-.36,1.4.12.99.36,1.4c.24.41.58.74,1.01.97.43.23.93.35,1.49.35h.16c.58,0,1.08-.13,1.52-.38.44-.26.78-.61,1.02-1.07.25-.46.37-.98.37-1.57,0-.46-.08-.89-.25-1.29-.16-.4-.41-.74-.75-1.03l.66-.58c.4.34.71.76.92,1.26s.32,1.06.32,1.67Z"/><path class="cls-1" d="m7.42,240.06c0,.21-.07.39-.22.53s-.32.22-.52.22-.37-.07-.51-.22-.21-.32-.21-.53.07-.39.2-.53c.13-.14.3-.22.5-.22s.39.07.53.21.22.32.22.54Zm12.13,1.72c0,.31-.04.6-.12.89-.08.28-.21.52-.37.71l-.78-.36c.26-.31.39-.7.39-1.18,0-.4-.12-.71-.36-.93-.24-.22-.6-.33-1.07-.33h-8.14v-1.02h8.14c.7,0,1.26.19,1.68.57s.63.93.63,1.65Z"/><path class="cls-1" d="m19.47,231.17c-.88.53-1.89.94-3.04,1.23-1.15.29-2.39.44-3.72.44s-2.57-.15-3.73-.44c-1.16-.29-2.17-.71-3.02-1.23v-.98c.99.57,2.04.98,3.15,1.25,1.11.27,2.31.4,3.6.4s2.49-.13,3.6-.4c1.11-.26,2.16-.68,3.16-1.25v.98Z"/><path class="cls-1" d="m16.67,226.62l-7.58,2.86v-.98l7.03-2.6v.45l-7.03-2.67v-.88l7.03-2.64v.45l-7.03-2.64v-.94l7.58,2.87v.97l-6.61,2.54v-.3l6.61,2.56v.97Z"/><path class="cls-1" d="m9.02,202.22c0-.62.12-1.15.35-1.61.24-.46.59-.81,1.08-1.07.48-.25,1.09-.38,1.82-.38h4.4v1.02h-4.3c-.8,0-1.4.19-1.81.57-.41.38-.61.92-.61,1.61,0,.52.11.97.32,1.35.22.38.53.67.94.88.41.21.9.31,1.48.31h3.99v1.03h-4.3c-.8,0-1.4.19-1.81.58-.41.39-.61.92-.61,1.62,0,.51.11.96.32,1.34.22.39.53.68.94.89.41.21.9.31,1.48.31h3.99v1.02h-7.58v-.98h2.05l-.36.16c-.55-.23-.98-.6-1.29-1.12s-.47-1.12-.47-1.83c0-.74.19-1.37.56-1.89.37-.52.93-.86,1.67-1.01l-.16.4c-.62-.22-1.11-.61-1.5-1.18-.38-.56-.57-1.24-.57-2.03Z"/><path class="cls-1" d="m7.42,195.85c0,.21-.07.39-.22.53s-.32.22-.52.22-.37-.07-.51-.22-.21-.32-.21-.53.07-.39.2-.53c.13-.14.3-.22.5-.22s.39.07.53.21.22.32.22.54Zm9.26.52h-7.58v-1.02h7.58v1.02Z"/><path class="cls-1" d="m16.67,192.49H5.96v-1.02h10.71v1.02Z"/><path class="cls-1" d="m7.42,188.08c0,.21-.07.39-.22.53s-.32.22-.52.22-.37-.07-.51-.22-.21-.32-.21-.53.07-.39.2-.53c.13-.14.3-.22.5-.22s.39.07.53.21.22.32.22.54Zm9.26.52h-7.58v-1.02h7.58v1.02Z"/><path class="cls-1" d="m9.02,175.25c0-.62.12-1.15.35-1.61.24-.46.59-.81,1.08-1.07.48-.25,1.09-.38,1.82-.38h4.4v1.02h-4.3c-.8,0-1.4.19-1.81.57-.41.38-.61.92-.61,1.61,0,.52.11.97.32,1.35.22.38.53.67.94.88.41.21.9.31,1.48.31h3.99v1.03h-4.3c-.8,0-1.4.19-1.81.58-.41.39-.61.92-.61,1.62,0,.51.11.96.32,1.34.22.39.53.68.94.89.41.21.9.31,1.48.31h3.99v1.02h-7.58v-.98h2.05l-.36.16c-.55-.23-.98-.6-1.29-1.12s-.47-1.12-.47-1.83c0-.74.19-1.37.56-1.89.37-.52.93-.86,1.67-1.01l-.16.4c-.62-.22-1.11-.61-1.5-1.18-.38-.56-.57-1.24-.57-2.03Z"/><path class="cls-1" d="m16.74,166.18c0,.79-.17,1.48-.5,2.08-.33.6-.79,1.06-1.37,1.4-.58.34-1.25.51-2,.51s-1.42-.16-1.99-.48c-.58-.32-1.03-.77-1.37-1.33-.33-.56-.5-1.2-.5-1.9s.16-1.35.48-1.9.77-.99,1.36-1.31c.58-.32,1.25-.48,2.01-.48.05,0,.1,0,.15,0,.05,0,.11,0,.17,0v6.6h-.77v-6.05l.3.4c-.55,0-1.04.12-1.46.35-.43.24-.76.56-1,.96s-.36.87-.36,1.4.12.99.36,1.4c.24.41.58.74,1.01.97.43.23.93.35,1.49.35h.16c.58,0,1.08-.13,1.52-.38.44-.26.78-.61,1.02-1.07.25-.46.37-.98.37-1.57,0-.46-.08-.89-.25-1.29-.16-.4-.41-.74-.75-1.03l.66-.58c.4.34.71.76.92,1.26s.32,1.06.32,1.67Z"/><path class="cls-1" d="m16.74,158.28c0,.71-.19,1.26-.58,1.65-.38.38-.93.58-1.63.58h-7.12v-1.02h7.06c.44,0,.78-.11,1.02-.34.24-.23.36-.55.36-.97,0-.45-.13-.83-.39-1.13l.74-.36c.18.2.32.45.4.73.09.28.13.58.13.87Zm-6.8,3.58h-.85v-4.69h.85v4.69Z"/><path class="cls-1" d="m16.67,154.81h-7.58v-.98h2.07l-.36.1c-.58-.21-1.02-.57-1.32-1.07-.3-.5-.46-1.12-.46-1.86h1s0,.08,0,.12,0,.08,0,.12c0,.8.24,1.42.73,1.88.49.45,1.18.68,2.07.68h3.87v1.02Z"/><path class="cls-1" d="m16.67,144.95h-1.67l-.27.04h-2.8c-.64,0-1.14.18-1.49.54-.35.36-.52.9-.52,1.61,0,.49.08.96.25,1.4.16.44.38.82.65,1.13l-.77.46c-.33-.39-.58-.85-.76-1.39s-.27-1.11-.27-1.7c0-.98.24-1.74.73-2.27.49-.53,1.23-.8,2.22-.8h4.71v.98Zm.07,2.61c0,.57-.09,1.06-.28,1.48-.19.42-.45.74-.78.96-.33.22-.71.33-1.15.33-.39,0-.75-.09-1.08-.28-.32-.19-.58-.5-.78-.92-.2-.43-.3-1-.3-1.73v-2.61h.76v2.58c0,.73.13,1.24.39,1.52.26.28.58.43.97.43.43,0,.78-.17,1.04-.51.26-.34.39-.81.39-1.42s-.13-1.08-.4-1.49c-.26-.42-.65-.72-1.15-.92l.71-.23c.5.19.9.53,1.2,1,.3.48.45,1.08.45,1.8Z"/><path class="cls-1" d="m16.74,138.04c0,.75-.17,1.42-.5,2.01-.33.59-.79,1.06-1.37,1.39-.58.34-1.25.51-2,.51s-1.43-.17-2.01-.51-1.03-.8-1.36-1.39c-.33-.59-.49-1.26-.49-2.01,0-.65.13-1.23.38-1.75.25-.52.63-.93,1.13-1.23l.52.77c-.38.26-.67.58-.85.97-.18.39-.27.8-.27,1.26,0,.54.12,1.03.37,1.46s.59.77,1.03,1.03c.44.25.96.38,1.56.38s1.12-.12,1.56-.38c.44-.25.79-.59,1.03-1.03.25-.43.37-.92.37-1.46,0-.45-.09-.87-.27-1.26-.18-.38-.46-.71-.84-.97l.52-.77c.49.3.86.71,1.12,1.23.25.52.38,1.1.38,1.75Z"/><path class="cls-1" d="m9.02,129.3c0-.62.12-1.16.35-1.62.24-.47.59-.83,1.08-1.1s1.09-.4,1.82-.4h4.4v1.03h-4.3c-.8,0-1.4.2-1.81.6-.41.4-.61.96-.61,1.68,0,.54.11,1.01.32,1.41.22.4.53.71.94.92.41.22.9.33,1.48.33h3.99v1.02H5.96v-1.02h5.21l-.39.2c-.55-.24-.98-.63-1.29-1.16s-.47-1.16-.47-1.89Z"/><path class="cls-1" d="m19.47,123.28v.98c-.99-.58-2.04-1-3.16-1.26-1.11-.26-2.31-.4-3.6-.4s-2.49.13-3.6.4c-1.11.26-2.16.69-3.15,1.26v-.98c.86-.55,1.87-.97,3.02-1.26,1.16-.29,2.4-.43,3.73-.43s2.57.14,3.72.43c1.15.29,2.16.71,3.04,1.26Z"/><path class="cls-1" d="m286.41,674.22c-.76,0-1.46-.13-2.11-.38-.65-.25-1.2-.61-1.68-1.08s-.84-1.01-1.1-1.63c-.26-.62-.4-1.31-.4-2.05s.13-1.42.4-2.05c.26-.62.64-1.17,1.11-1.63.48-.46,1.04-.82,1.68-1.08s1.35-.38,2.11-.38,1.42.12,2.06.37c.64.25,1.19.61,1.63,1.1l-.68.68c-.41-.42-.87-.73-1.37-.92s-1.04-.28-1.62-.28c-.61,0-1.17.1-1.69.31s-.97.5-1.36.88c-.39.38-.69.82-.9,1.33-.22.51-.32,1.06-.32,1.67s.11,1.16.32,1.67c.22.5.52.95.9,1.33.38.38.84.67,1.36.88s1.08.31,1.69.31,1.12-.1,1.62-.29.96-.5,1.37-.92l.68.68c-.44.49-.99.86-1.63,1.11-.65.25-1.34.38-2.08.38Z"/><path class="cls-1" d="m291.1,674.13v-.68l5.05-6.4.22.35h-5.18v-.85h5.99v.66l-5.04,6.41-.26-.35h5.4v.85h-6.18Z"/><path class="cls-1" d="m301.44,674.2c-.57,0-1.06-.09-1.48-.28-.42-.19-.74-.45-.96-.78-.22-.33-.33-.71-.33-1.15,0-.39.09-.75.28-1.08.19-.32.5-.58.92-.78.43-.2,1-.3,1.73-.3h2.61v.76h-2.58c-.73,0-1.24.13-1.52.39-.28.26-.43.58-.43.97,0,.43.17.78.51,1.04.34.26.81.39,1.42.39s1.08-.13,1.49-.4c.42-.26.72-.65.92-1.15l.23.71c-.19.5-.53.9-1,1.2-.48.3-1.08.45-1.8.45Zm2.61-.07v-1.67l-.04-.27v-2.8c0-.64-.18-1.14-.54-1.49-.36-.35-.9-.52-1.61-.52-.49,0-.96.08-1.4.25-.44.16-.82.38-1.13.65l-.46-.77c.39-.33.85-.58,1.39-.76s1.11-.27,1.7-.27c.98,0,1.74.24,2.27.73.53.49.8,1.23.8,2.22v4.71h-.98Z"/><path class="cls-1" d="m309.86,674.2c-.63,0-1.22-.09-1.78-.27-.56-.18-1-.4-1.31-.67l.46-.81c.31.23.7.43,1.18.6.48.17.99.25,1.52.25.72,0,1.24-.11,1.56-.34.32-.23.48-.53.48-.9,0-.28-.09-.5-.27-.66-.18-.16-.41-.28-.7-.36-.29-.08-.61-.15-.97-.21s-.71-.12-1.06-.2c-.35-.08-.67-.19-.96-.34-.29-.15-.52-.35-.7-.61-.18-.26-.27-.61-.27-1.04s.12-.78.35-1.11c.23-.33.57-.58,1.02-.77.45-.19.99-.28,1.64-.28.49,0,.98.07,1.47.2.49.13.9.3,1.21.51l-.45.82c-.34-.23-.7-.4-1.08-.5-.39-.1-.77-.15-1.16-.15-.68,0-1.19.12-1.51.35-.32.24-.48.54-.48.9,0,.29.09.51.27.68.18.16.41.29.71.38.29.09.62.17.97.22s.7.13,1.05.21.67.19.97.33c.29.14.53.34.71.59.18.26.27.59.27,1,0,.44-.12.83-.37,1.15-.25.32-.6.57-1.07.75-.47.18-1.03.27-1.7.27Z"/><path class="cls-1" d="m321.74,674.2c-.73,0-1.39-.17-1.97-.5-.58-.33-1.04-.79-1.38-1.37-.34-.58-.51-1.25-.51-2s.17-1.43.51-2.01.79-1.03,1.37-1.36,1.24-.49,1.98-.49,1.42.16,2,.49,1.04.78,1.37,1.36.5,1.25.5,2.01-.17,1.42-.5,2c-.33.58-.79,1.04-1.38,1.37-.59.33-1.25.5-1.99.5Zm0-.91c.55,0,1.03-.12,1.46-.37.42-.25.76-.59,1-1.04.25-.45.37-.96.37-1.55s-.12-1.12-.37-1.56c-.25-.44-.58-.79-1-1.03-.42-.25-.9-.37-1.44-.37s-1.02.12-1.44.37c-.42.25-.76.59-1.01,1.03-.25.44-.38.96-.38,1.56s.12,1.1.38,1.55c.25.45.59.79,1.01,1.04.42.25.9.37,1.43.37Z"/><path class="cls-1" d="m330.73,674.2c-.72,0-1.37-.16-1.94-.49s-1.02-.78-1.35-1.36c-.33-.58-.49-1.25-.49-2.01s.16-1.44.49-2.02c.33-.58.78-1.03,1.35-1.35s1.22-.48,1.94-.48c.66,0,1.26.15,1.78.45.52.3.94.73,1.26,1.31.31.57.47,1.27.47,2.1s-.15,1.52-.46,2.09c-.31.58-.72,1.02-1.25,1.32-.52.3-1.12.46-1.8.46Zm.07-.91c.54,0,1.02-.12,1.45-.37.43-.25.77-.59,1.01-1.04.25-.45.37-.96.37-1.55s-.12-1.12-.37-1.56c-.25-.44-.58-.79-1.01-1.03s-.91-.37-1.45-.37-1.01.12-1.43.37c-.42.25-.76.59-1.01,1.03-.25.44-.38.96-.38,1.56s.12,1.1.38,1.55c.25.45.59.79,1.01,1.04.42.25.9.37,1.43.37Zm2.86.84v-2.28l.1-1.53-.14-1.53v-5.37h1.02v10.71h-.98Z"/><path class="cls-1" d="m350.75,666.47c.62,0,1.15.12,1.61.35.46.24.81.59,1.07,1.08.25.48.38,1.09.38,1.82v4.4h-1.02v-4.3c0-.8-.19-1.4-.57-1.81-.38-.41-.92-.61-1.61-.61-.52,0-.97.11-1.35.32-.38.22-.67.53-.88.94-.21.41-.31.9-.31,1.48v3.99h-1.03v-4.3c0-.8-.19-1.4-.58-1.81-.39-.41-.92-.61-1.62-.61-.51,0-.96.11-1.34.32-.39.22-.68.53-.89.94-.21.41-.31.9-.31,1.48v3.99h-1.02v-7.58h.98v2.05l-.16-.36c.23-.55.6-.98,1.12-1.29s1.12-.47,1.83-.47c.74,0,1.37.19,1.89.56.52.37.86.93,1.01,1.67l-.4-.16c.22-.62.61-1.11,1.18-1.5.56-.38,1.24-.57,2.03-.57Z"/><path class="cls-1" d="m359.69,674.2c-.73,0-1.39-.17-1.97-.5-.58-.33-1.04-.79-1.38-1.37-.34-.58-.51-1.25-.51-2s.17-1.43.51-2.01.79-1.03,1.37-1.36,1.24-.49,1.98-.49,1.42.16,2,.49,1.04.78,1.37,1.36.5,1.25.5,2.01-.17,1.42-.5,2c-.33.58-.79,1.04-1.38,1.37-.59.33-1.25.5-1.99.5Zm0-.91c.55,0,1.03-.12,1.46-.37.42-.25.76-.59,1-1.04.25-.45.37-.96.37-1.55s-.12-1.12-.37-1.56c-.25-.44-.58-.79-1-1.03-.42-.25-.9-.37-1.44-.37s-1.02.12-1.44.37c-.42.25-.76.59-1.01,1.03-.25.44-.38.96-.38,1.56s.12,1.1.38,1.55c.25.45.59.79,1.01,1.04.42.25.9.37,1.43.37Z"/><path class="cls-1" d="m375.13,666.47c.62,0,1.15.12,1.61.35.46.24.81.59,1.07,1.08.25.48.38,1.09.38,1.82v4.4h-1.02v-4.3c0-.8-.19-1.4-.57-1.81-.38-.41-.92-.61-1.61-.61-.52,0-.97.11-1.35.32-.38.22-.67.53-.88.94-.21.41-.31.9-.31,1.48v3.99h-1.03v-4.3c0-.8-.19-1.4-.58-1.81-.39-.41-.92-.61-1.62-.61-.51,0-.96.11-1.34.32-.39.22-.68.53-.89.94-.21.41-.31.9-.31,1.48v3.99h-1.02v-7.58h.98v2.05l-.16-.36c.23-.55.6-.98,1.12-1.29s1.12-.47,1.83-.47c.74,0,1.37.19,1.89.56.52.37.86.93,1.01,1.67l-.4-.16c.22-.62.61-1.11,1.18-1.5.56-.38,1.24-.57,2.03-.57Z"/><path class="cls-1" d="m384.19,674.2c-.79,0-1.48-.17-2.08-.5-.6-.33-1.06-.79-1.4-1.37-.34-.58-.51-1.25-.51-2s.16-1.42.48-1.99c.32-.58.77-1.03,1.33-1.37.56-.33,1.2-.5,1.9-.5s1.35.16,1.9.48.99.77,1.31,1.36c.32.58.48,1.25.48,2.01,0,.05,0,.1,0,.15,0,.05,0,.11,0,.17h-6.6v-.77h6.05l-.4.3c0-.55-.12-1.04-.35-1.46-.24-.43-.56-.76-.96-1s-.87-.36-1.4-.36-.99.12-1.4.36c-.41.24-.74.58-.97,1.01-.23.43-.35.93-.35,1.49v.16c0,.58.13,1.08.38,1.52.26.44.61.78,1.07,1.02.46.25.98.37,1.57.37.46,0,.89-.08,1.29-.25.4-.16.74-.41,1.03-.75l.58.66c-.34.4-.76.71-1.26.92s-1.06.32-1.67.32Z"/><path class="cls-1" d="m393.57,666.47c.62,0,1.16.12,1.62.35.47.24.83.59,1.1,1.08s.4,1.09.4,1.82v4.4h-1.03v-4.3c0-.8-.2-1.4-.6-1.81-.4-.41-.96-.61-1.68-.61-.54,0-1.01.11-1.41.32-.4.22-.71.53-.92.94-.22.41-.33.9-.33,1.48v3.99h-1.02v-7.58h.98v2.08l-.16-.39c.24-.55.63-.98,1.16-1.29s1.16-.47,1.89-.47Z"/><path class="cls-1" d="m398.27,667.4v-.85h4.69v.85h-4.69Zm3.58,6.8c-.71,0-1.26-.19-1.65-.58-.38-.38-.58-.93-.58-1.63v-7.12h1.02v7.06c0,.44.11.78.34,1.02.23.24.55.36.97.36.45,0,.83-.13,1.13-.39l.36.74c-.2.18-.45.32-.73.4-.28.09-.58.13-.87.13Z"/><path class="cls-1" d="m408.45,674.2c-.65,0-1.21-.12-1.69-.36-.48-.24-.85-.6-1.12-1.08-.26-.48-.4-1.08-.4-1.8v-4.4h1.02v4.29c0,.81.2,1.42.6,1.83.4.41.96.61,1.68.61.53,0,.99-.11,1.38-.33s.69-.53.9-.95c.21-.41.31-.91.31-1.49v-3.97h1.03v7.58h-.98v-2.08l.16.38c-.24.56-.61.99-1.12,1.31-.51.31-1.09.47-1.77.47Z"/><path class="cls-1" d="m420.35,674.13l-2.86-7.58h.98l2.6,7.03h-.45l2.67-7.03h.88l2.64,7.03h-.45l2.64-7.03h.94l-2.87,7.58h-.97l-2.54-6.61h.3l-2.56,6.61h-.97Z"/><path class="cls-1" d="m430.57,670.62l-.48-.62,3.49-2.63.46.64-3.48,2.61Zm1,3.51v-10.71h1.02v10.71h-1.02Z"/><path class="cls-1" d="m437.66,674.2c-.57,0-1.06-.09-1.48-.28-.42-.19-.74-.45-.96-.78-.22-.33-.33-.71-.33-1.15,0-.39.09-.75.28-1.08.19-.32.5-.58.92-.78.43-.2,1-.3,1.73-.3h2.61v.76h-2.58c-.73,0-1.24.13-1.52.39-.28.26-.43.58-.43.97,0,.43.17.78.51,1.04.34.26.81.39,1.42.39s1.08-.13,1.49-.4c.42-.26.72-.65.92-1.15l.23.71c-.19.5-.53.9-1,1.2-.48.3-1.08.45-1.8.45Zm2.61-.07v-1.67l-.04-.27v-2.8c0-.64-.18-1.14-.54-1.49-.36-.35-.9-.52-1.61-.52-.49,0-.96.08-1.4.25-.44.16-.82.38-1.13.65l-.46-.77c.39-.33.85-.58,1.39-.76s1.11-.27,1.7-.27c.98,0,1.74.24,2.27.73s.8,1.23.8,2.22v4.71h-.98Zm.06,3.18c-.48,0-.87-.12-1.16-.38-.29-.25-.43-.58-.43-1,0-.23.06-.47.18-.73.12-.26.33-.51.63-.76.3-.25.71-.49,1.23-.71l.48.39c-.46.2-.82.4-1.08.6-.25.2-.43.39-.53.58-.1.19-.15.37-.15.56,0,.27.09.47.27.61.18.13.4.2.67.2.16,0,.33-.02.48-.07.16-.05.3-.12.41-.2l.23.56c-.17.11-.36.19-.57.25s-.43.09-.66.09Z"/><path class="cls-1" d="m447.19,674.2c-.75,0-1.42-.17-2.01-.5s-1.06-.79-1.39-1.37c-.34-.58-.51-1.25-.51-2s.17-1.43.51-2.01.8-1.03,1.39-1.36,1.26-.49,2.01-.49c.65,0,1.23.13,1.75.38.52.25.93.63,1.23,1.13l-.76.52c-.26-.38-.58-.67-.97-.85s-.8-.27-1.26-.27c-.54,0-1.03.12-1.46.37-.43.25-.77.59-1.03,1.03-.25.44-.38.96-.38,1.56s.12,1.12.38,1.56c.25.44.59.79,1.03,1.03.43.25.92.37,1.46.37.45,0,.87-.09,1.26-.27.38-.18.71-.46.97-.84l.76.52c-.3.49-.71.86-1.23,1.12-.52.25-1.1.38-1.75.38Z"/><path class="cls-1" d="m451.24,674.13v-.68l5.05-6.4.22.35h-5.18v-.85h5.99v.66l-5.04,6.41-.26-.35h5.4v.85h-6.18Z"/><path class="cls-1" d="m462.53,674.2c-.79,0-1.48-.17-2.08-.5s-1.06-.79-1.4-1.37c-.34-.58-.51-1.25-.51-2s.16-1.42.48-1.99c.32-.58.76-1.03,1.33-1.37.56-.33,1.2-.5,1.9-.5s1.35.16,1.9.48.99.77,1.31,1.36c.32.58.48,1.25.48,2.01,0,.05,0,.1,0,.15,0,.05,0,.11,0,.17h-6.6v-.77h6.05l-.4.3c0-.55-.12-1.04-.35-1.46-.24-.43-.56-.76-.96-1s-.87-.36-1.4-.36-.99.12-1.4.36-.74.58-.97,1.01c-.23.43-.35.93-.35,1.49v.16c0,.58.13,1.08.38,1.52.26.44.61.78,1.07,1.02.46.25.98.37,1.57.37.46,0,.89-.08,1.29-.25.4-.16.74-.41,1.03-.75l.58.66c-.34.4-.76.71-1.26.92-.5.21-1.06.32-1.67.32Z"/><path class="cls-1" d="m471.9,666.47c.62,0,1.16.12,1.62.35.47.24.83.59,1.1,1.08s.4,1.09.4,1.82v4.4h-1.03v-4.3c0-.8-.2-1.4-.6-1.81-.4-.41-.96-.61-1.68-.61-.54,0-1.01.11-1.41.32-.4.22-.71.53-.92.94-.22.41-.33.9-.33,1.48v3.99h-1.02v-7.58h.98v2.08l-.16-.39c.24-.55.63-.98,1.16-1.29s1.16-.47,1.89-.47Z"/><path class="cls-1" d="m478.31,664.87c-.21,0-.39-.07-.53-.22s-.22-.32-.22-.52.07-.37.22-.51.32-.21.53-.21.39.07.53.2c.14.13.22.3.22.5s-.07.39-.21.53-.32.22-.54.22Zm-.52,9.26v-7.58h1.03v7.58h-1.03Z"/><path class="cls-1" d="m483.81,674.2c-.57,0-1.06-.09-1.48-.28-.42-.19-.74-.45-.96-.78s-.33-.71-.33-1.15c0-.39.09-.75.28-1.08.19-.32.5-.58.92-.78.43-.2,1-.3,1.73-.3h2.61v.76h-2.58c-.73,0-1.24.13-1.52.39-.28.26-.43.58-.43.97,0,.43.17.78.51,1.04.34.26.81.39,1.42.39s1.08-.13,1.49-.4c.42-.26.72-.65.92-1.15l.23.71c-.19.5-.53.9-1,1.2-.48.3-1.08.45-1.8.45Zm2.61-.07v-1.67l-.04-.27v-2.8c0-.64-.18-1.14-.54-1.49-.36-.35-.9-.52-1.61-.52-.49,0-.96.08-1.4.25-.44.16-.82.38-1.13.65l-.46-.77c.38-.33.85-.58,1.39-.76s1.11-.27,1.7-.27c.98,0,1.74.24,2.27.73s.8,1.23.8,2.22v4.71h-.98Z"/><path class="cls-1" d="m493.98,674.13v-10.71h1.03v10.71h-1.03Z"/><path class="cls-1" d="m501.08,674.2c-.79,0-1.48-.17-2.08-.5-.6-.33-1.06-.79-1.4-1.37-.34-.58-.5-1.25-.5-2s.16-1.42.48-1.99c.32-.58.77-1.03,1.33-1.37.56-.33,1.2-.5,1.9-.5s1.34.16,1.9.48.99.77,1.31,1.36c.32.58.48,1.25.48,2.01,0,.05,0,.1,0,.15,0,.05,0,.11,0,.17h-6.6v-.77h6.05l-.4.3c0-.55-.12-1.04-.35-1.46-.24-.43-.56-.76-.96-1s-.87-.36-1.4-.36-.99.12-1.4.36c-.41.24-.74.58-.97,1.01s-.35.93-.35,1.49v.16c0,.58.13,1.08.38,1.52.25.44.61.78,1.07,1.02.46.25.98.37,1.57.37.46,0,.89-.08,1.29-.25.4-.16.74-.41,1.03-.75l.58.66c-.34.4-.76.71-1.26.92-.51.21-1.06.32-1.67.32Z"/><path class="cls-1" d="m509.73,674.2c-.75,0-1.42-.17-2.01-.5s-1.06-.79-1.39-1.37c-.34-.58-.51-1.25-.51-2s.17-1.43.51-2.01.8-1.03,1.39-1.36,1.26-.49,2.01-.49c.65,0,1.23.13,1.75.38.52.25.93.63,1.23,1.13l-.76.52c-.26-.38-.58-.67-.97-.85s-.8-.27-1.26-.27c-.54,0-1.03.12-1.46.37-.43.25-.77.59-1.03,1.03-.25.44-.38.96-.38,1.56s.12,1.12.38,1.56c.25.44.59.79,1.03,1.03.43.25.92.37,1.46.37.45,0,.87-.09,1.26-.27.38-.18.71-.46.97-.84l.76.52c-.3.49-.71.86-1.23,1.12-.52.25-1.1.38-1.75.38Z"/><path class="cls-1" d="m513.77,674.13v-.68l5.05-6.4.22.35h-5.18v-.85h5.99v.66l-5.04,6.41-.26-.35h5.4v.85h-6.18Z"/><path class="cls-1" d="m525.07,674.2c-.79,0-1.48-.17-2.08-.5s-1.06-.79-1.4-1.37c-.34-.58-.51-1.25-.51-2s.16-1.42.48-1.99c.32-.58.76-1.03,1.33-1.37.56-.33,1.2-.5,1.9-.5s1.35.16,1.9.48.99.77,1.31,1.36c.32.58.48,1.25.48,2.01,0,.05,0,.1,0,.15,0,.05,0,.11,0,.17h-6.6v-.77h6.05l-.4.3c0-.55-.12-1.04-.35-1.46-.24-.43-.56-.76-.96-1s-.87-.36-1.4-.36-.99.12-1.4.36-.74.58-.97,1.01c-.23.43-.35.93-.35,1.49v.16c0,.58.13,1.08.38,1.52.26.44.61.78,1.07,1.02.46.25.98.37,1.57.37.46,0,.89-.08,1.29-.25.4-.16.74-.41,1.03-.75l.58.66c-.34.4-.76.71-1.26.92-.5.21-1.06.32-1.67.32Z"/><path class="cls-1" d="m534.44,666.47c.62,0,1.16.12,1.62.35.47.24.83.59,1.1,1.08s.4,1.09.4,1.82v4.4h-1.03v-4.3c0-.8-.2-1.4-.6-1.81s-.96-.61-1.68-.61c-.54,0-1.01.11-1.41.32-.4.22-.71.53-.92.94-.22.41-.33.9-.33,1.48v3.99h-1.03v-7.58h.98v2.08l-.16-.39c.24-.55.63-.98,1.16-1.29s1.16-.47,1.89-.47Z"/><path class="cls-1" d="m540.85,664.87c-.21,0-.39-.07-.53-.22s-.22-.32-.22-.52.07-.37.22-.51.32-.21.53-.21.39.07.53.2c.14.13.22.3.22.5s-.07.39-.21.53-.32.22-.54.22Zm-.52,9.26v-7.58h1.03v7.58h-1.03Z"/><path class="cls-1" d="m546.35,674.2c-.57,0-1.06-.09-1.48-.28-.42-.19-.74-.45-.96-.78s-.33-.71-.33-1.15c0-.39.09-.75.28-1.08.19-.32.5-.58.92-.78.43-.2,1-.3,1.73-.3h2.61v.76h-2.58c-.73,0-1.24.13-1.52.39-.28.26-.43.58-.43.97,0,.43.17.78.51,1.04.34.26.81.39,1.42.39s1.08-.13,1.49-.4c.42-.26.72-.65.92-1.15l.23.71c-.19.5-.53.9-1,1.2-.48.3-1.08.45-1.8.45Zm2.61-.07v-1.67l-.04-.27v-2.8c0-.64-.18-1.14-.54-1.49-.36-.35-.9-.52-1.61-.52-.49,0-.96.08-1.4.25-.44.16-.82.38-1.13.65l-.46-.77c.38-.33.85-.58,1.39-.76s1.11-.27,1.7-.27c.98,0,1.74.24,2.27.73s.8,1.23.8,2.22v4.71h-.98Z"/><path class="cls-1" d="m558.06,674.13l-2.86-7.58h.98l2.6,7.03h-.45l2.67-7.03h.88l2.64,7.03h-.45l2.64-7.03h.94l-2.87,7.58h-.97l-2.54-6.61h.3l-2.56,6.61h-.97Z"/><path class="cls-1" d="m582.46,666.47c.62,0,1.15.12,1.61.35.46.24.81.59,1.07,1.08.25.48.38,1.09.38,1.82v4.4h-1.02v-4.3c0-.8-.19-1.4-.57-1.81-.38-.41-.92-.61-1.61-.61-.52,0-.97.11-1.35.32-.38.22-.67.53-.88.94-.21.41-.31.9-.31,1.48v3.99h-1.03v-4.3c0-.8-.19-1.4-.58-1.81s-.92-.61-1.62-.61c-.51,0-.96.11-1.34.32-.38.22-.68.53-.89.94-.21.41-.31.9-.31,1.48v3.99h-1.03v-7.58h.98v2.05l-.16-.36c.23-.55.6-.98,1.12-1.29.51-.31,1.12-.47,1.83-.47.74,0,1.37.19,1.89.56.52.37.86.93,1.01,1.67l-.4-.16c.22-.62.61-1.11,1.18-1.5.56-.38,1.24-.57,2.03-.57Z"/><path class="cls-1" d="m588.83,664.87c-.21,0-.39-.07-.53-.22s-.22-.32-.22-.52.07-.37.22-.51.32-.21.53-.21.39.07.53.2c.14.13.22.3.22.5s-.07.39-.21.53-.32.22-.54.22Zm-.52,9.26v-7.58h1.03v7.58h-1.03Z"/><path class="cls-1" d="m595.42,674.2c-.79,0-1.48-.17-2.08-.5-.6-.33-1.06-.79-1.4-1.37-.34-.58-.5-1.25-.5-2s.16-1.42.48-1.99c.32-.58.77-1.03,1.33-1.37.56-.33,1.2-.5,1.9-.5s1.34.16,1.9.48.99.77,1.31,1.36c.32.58.48,1.25.48,2.01,0,.05,0,.1,0,.15,0,.05,0,.11,0,.17h-6.6v-.77h6.05l-.4.3c0-.55-.12-1.04-.35-1.46-.24-.43-.56-.76-.96-1s-.87-.36-1.4-.36-.99.12-1.4.36c-.41.24-.74.58-.97,1.01s-.35.93-.35,1.49v.16c0,.58.13,1.08.38,1.52.25.44.61.78,1.07,1.02.46.25.98.37,1.57.37.46,0,.89-.08,1.29-.25.4-.16.74-.41,1.03-.75l.58.66c-.34.4-.76.71-1.26.92-.51.21-1.06.32-1.67.32Z"/><path class="cls-1" d="m602.95,674.2c-.63,0-1.22-.09-1.78-.27-.56-.18-1-.4-1.31-.67l.46-.81c.31.23.7.43,1.18.6.48.17.99.25,1.52.25.72,0,1.24-.11,1.56-.34.32-.23.48-.53.48-.9,0-.28-.09-.5-.27-.66-.18-.16-.41-.28-.7-.36-.29-.08-.61-.15-.97-.21-.36-.06-.71-.12-1.06-.2-.35-.08-.67-.19-.96-.34-.29-.15-.52-.35-.7-.61s-.27-.61-.27-1.04.12-.78.35-1.11c.23-.33.57-.58,1.02-.77.45-.19.99-.28,1.64-.28.49,0,.98.07,1.47.2.49.13.9.3,1.21.51l-.45.82c-.34-.23-.7-.4-1.08-.5-.38-.1-.77-.15-1.16-.15-.68,0-1.19.12-1.51.35-.32.24-.48.54-.48.9,0,.29.09.51.27.68.18.16.41.29.71.38.29.09.62.17.97.22s.7.13,1.05.21.67.19.97.33c.29.14.53.34.71.59.18.26.27.59.27,1,0,.44-.12.83-.37,1.15-.25.32-.6.57-1.07.75-.47.18-1.03.27-1.7.27Z"/><path class="cls-1" d="m608.48,664.87c-.21,0-.39-.07-.53-.22s-.22-.32-.22-.52.07-.37.22-.51.32-.21.53-.21.39.07.53.2c.14.13.22.3.22.5s-.07.39-.21.53-.32.22-.54.22Zm-.52,9.26v-7.58h1.03v7.58h-1.03Z"/><path class="cls-1" d="m613.98,674.2c-.57,0-1.06-.09-1.48-.28-.42-.19-.74-.45-.96-.78-.22-.33-.33-.71-.33-1.15,0-.39.09-.75.28-1.08s.5-.58.92-.78,1-.3,1.73-.3h2.61v.76h-2.58c-.73,0-1.24.13-1.52.39-.28.26-.43.58-.43.97,0,.43.17.78.5,1.04s.81.39,1.42.39,1.08-.13,1.49-.4c.42-.26.72-.65.92-1.15l.23.71c-.19.5-.53.9-1,1.2-.48.3-1.08.45-1.8.45Zm2.61-.07v-1.67l-.04-.27v-2.8c0-.64-.18-1.14-.54-1.49-.36-.35-.9-.52-1.61-.52-.49,0-.96.08-1.4.25-.44.16-.82.38-1.13.65l-.46-.77c.39-.33.85-.58,1.39-.76s1.11-.27,1.7-.27c.98,0,1.74.24,2.27.73.53.49.8,1.23.8,2.22v4.71h-.98Zm.06,3.18c-.48,0-.87-.12-1.16-.38-.29-.25-.43-.58-.43-1,0-.23.06-.47.18-.73.12-.26.33-.51.63-.76.3-.25.71-.49,1.23-.71l.48.39c-.46.2-.82.4-1.08.6-.26.2-.43.39-.53.58-.1.19-.15.37-.15.56,0,.27.09.47.27.61.18.13.4.2.67.2.16,0,.33-.02.48-.07.16-.05.3-.12.41-.2l.23.56c-.17.11-.36.19-.57.25s-.43.09-.66.09Z"/><path class="cls-1" d="m623.51,674.2c-.75,0-1.42-.17-2.01-.5s-1.06-.79-1.39-1.37c-.34-.58-.51-1.25-.51-2s.17-1.43.51-2.01.8-1.03,1.39-1.36,1.26-.49,2.01-.49c.65,0,1.23.13,1.75.38.52.25.93.63,1.23,1.13l-.76.52c-.26-.38-.58-.67-.97-.85s-.8-.27-1.26-.27c-.54,0-1.03.12-1.46.37-.43.25-.77.59-1.03,1.03-.25.44-.38.96-.38,1.56s.12,1.12.38,1.56c.25.44.59.79,1.03,1.03.43.25.92.37,1.46.37.45,0,.87-.09,1.26-.27.38-.18.71-.46.97-.84l.76.52c-.3.49-.71.86-1.23,1.12-.52.25-1.1.38-1.75.38Z"/><path class="cls-1" d="m630.63,674.2c-.57,0-1.06-.09-1.48-.28-.42-.19-.74-.45-.96-.78s-.33-.71-.33-1.15c0-.39.09-.75.28-1.08.19-.32.5-.58.92-.78.43-.2,1-.3,1.73-.3h2.61v.76h-2.58c-.73,0-1.24.13-1.52.39-.28.26-.43.58-.43.97,0,.43.17.78.51,1.04.34.26.81.39,1.42.39s1.08-.13,1.49-.4c.42-.26.72-.65.92-1.15l.23.71c-.19.5-.53.9-1,1.2-.48.3-1.08.45-1.8.45Zm2.61-.07v-1.67l-.04-.27v-2.8c0-.64-.18-1.14-.54-1.49-.36-.35-.9-.52-1.61-.52-.49,0-.96.08-1.4.25-.44.16-.82.38-1.13.65l-.46-.77c.38-.33.85-.58,1.39-.76s1.11-.27,1.7-.27c.98,0,1.74.24,2.27.73s.8,1.23.8,2.22v4.71h-.98Z"/><path class="cls-1" d="m640.16,674.2c-.75,0-1.42-.17-2.01-.5s-1.06-.79-1.39-1.37c-.34-.58-.51-1.25-.51-2s.17-1.43.51-2.01.8-1.03,1.39-1.36,1.26-.49,2.01-.49c.65,0,1.23.13,1.75.38.52.25.93.63,1.23,1.13l-.76.52c-.26-.38-.58-.67-.97-.85s-.8-.27-1.26-.27c-.54,0-1.03.12-1.46.37-.43.25-.77.59-1.03,1.03-.25.44-.38.96-.38,1.56s.12,1.12.38,1.56c.25.44.59.79,1.03,1.03.43.25.92.37,1.46.37.45,0,.87-.09,1.26-.27.38-.18.71-.46.97-.84l.76.52c-.3.49-.71.86-1.23,1.12-.52.25-1.1.38-1.75.38Z"/><path class="cls-1" d="m648.9,666.47c.62,0,1.16.12,1.62.35.47.24.83.59,1.1,1.08.26.48.4,1.09.4,1.82v4.4h-1.02v-4.3c0-.8-.2-1.4-.6-1.81s-.96-.61-1.68-.61c-.54,0-1.01.11-1.41.32-.4.22-.71.53-.92.94-.22.41-.32.9-.32,1.48v3.99h-1.03v-10.71h1.03v5.21l-.2-.39c.24-.55.62-.98,1.16-1.29.53-.31,1.16-.47,1.89-.47Z"/><path class="cls-1" d="m79.07,642.17c-.78,0-1.47-.21-2.08-.61s-1.08-1-1.43-1.76c-.35-.76-.52-1.69-.52-2.76s.17-2,.52-2.77c.35-.76.82-1.35,1.43-1.76.61-.41,1.3-.61,2.08-.61s1.47.21,2.08.61c.61.41,1.08,1,1.44,1.76.35.77.53,1.69.53,2.77s-.18,2-.53,2.76c-.35.77-.83,1.35-1.44,1.76s-1.3.61-2.08.61Zm0-.95c.6,0,1.12-.16,1.56-.48.44-.32.79-.79,1.04-1.42.25-.62.38-1.38.38-2.29s-.12-1.67-.38-2.29c-.25-.62-.6-1.09-1.04-1.42-.44-.32-.96-.48-1.56-.48s-1.09.16-1.54.48c-.45.32-.8.79-1.05,1.42-.25.62-.38,1.38-.38,2.29s.12,1.67.38,2.29c.25.62.6,1.09,1.05,1.42.45.32.97.48,1.54.48Z"/><path class="cls-1" d="m98.53,634.43c.62,0,1.15.12,1.61.35.46.24.81.59,1.07,1.08.25.48.38,1.09.38,1.82v4.4h-1.02v-4.3c0-.8-.19-1.4-.57-1.81-.38-.41-.92-.61-1.61-.61-.52,0-.97.11-1.35.32-.38.22-.67.53-.88.94-.21.41-.31.9-.31,1.48v3.99h-1.03v-4.3c0-.8-.19-1.4-.58-1.81-.39-.41-.92-.61-1.62-.61-.51,0-.96.11-1.34.32-.39.22-.68.53-.89.94-.21.41-.31.9-.31,1.48v3.99h-1.02v-7.58h.98v2.05l-.16-.36c.23-.55.6-.98,1.12-1.29s1.12-.47,1.83-.47c.74,0,1.37.19,1.89.56.52.37.86.93,1.01,1.67l-.4-.16c.22-.62.61-1.11,1.18-1.5.56-.38,1.24-.57,2.03-.57Z"/><path class="cls-1" d="m104.9,632.82c-.21,0-.39-.07-.53-.22s-.22-.32-.22-.52.07-.37.22-.51.32-.21.53-.21.39.07.53.2c.14.13.22.3.22.5s-.07.39-.21.53-.32.22-.54.22Zm-.52,9.26v-7.58h1.02v7.58h-1.02Z"/><path class="cls-1" d="m111.49,642.15c-.79,0-1.48-.17-2.08-.5-.6-.33-1.06-.79-1.4-1.37-.34-.58-.51-1.25-.51-2s.16-1.42.48-1.99c.32-.58.77-1.03,1.33-1.37.56-.33,1.2-.5,1.9-.5s1.35.16,1.9.48.99.77,1.31,1.36c.32.58.48,1.25.48,2.01,0,.05,0,.1,0,.15,0,.05,0,.11,0,.17h-6.6v-.77h6.05l-.4.3c0-.55-.12-1.04-.35-1.46-.24-.43-.56-.76-.96-1s-.87-.36-1.4-.36-.99.12-1.4.36c-.41.24-.74.58-.97,1.01-.23.43-.35.93-.35,1.49v.16c0,.58.13,1.08.38,1.52.26.44.61.78,1.07,1.02.46.25.98.37,1.57.37.46,0,.89-.08,1.29-.25.4-.16.74-.41,1.03-.75l.58.66c-.34.4-.76.71-1.26.92s-1.06.32-1.67.32Z"/><path class="cls-1" d="m119.02,642.15c-.63,0-1.22-.09-1.78-.27-.56-.18-1-.4-1.31-.67l.46-.81c.31.23.7.43,1.18.6.48.17.99.25,1.52.25.72,0,1.24-.11,1.56-.34.32-.23.48-.53.48-.9,0-.28-.09-.5-.27-.66-.18-.16-.41-.28-.7-.36-.29-.08-.61-.15-.97-.21s-.71-.12-1.06-.2c-.35-.08-.67-.19-.96-.34-.29-.15-.52-.35-.7-.61-.18-.26-.27-.61-.27-1.04s.12-.78.35-1.11c.23-.33.57-.58,1.02-.77.45-.19.99-.28,1.64-.28.49,0,.98.07,1.47.2.49.13.9.3,1.21.51l-.45.82c-.34-.23-.7-.4-1.08-.5-.39-.1-.77-.15-1.16-.15-.68,0-1.19.12-1.51.35-.32.24-.48.54-.48.9,0,.29.09.51.27.68.18.16.41.29.71.38.29.09.62.17.97.22s.7.13,1.05.21.67.19.97.33c.29.14.53.34.71.59.18.26.27.59.27,1,0,.44-.12.83-.37,1.15-.25.32-.6.57-1.07.75-.47.18-1.03.27-1.7.27Z"/><path class="cls-1" d="m266.34,642.17c-.89,0-1.65-.2-2.27-.6s-1.08-.98-1.4-1.73c-.32-.76-.48-1.66-.48-2.72,0-1.15.19-2.11.58-2.88.39-.78.93-1.36,1.62-1.75.69-.39,1.5-.59,2.41-.59.45,0,.89.04,1.3.13s.78.23,1.1.42l-.42.84c-.26-.17-.56-.3-.9-.37s-.69-.11-1.07-.11c-1.09,0-1.96.35-2.61,1.04s-.97,1.73-.97,3.1c0,.21.01.47.04.79.02.31.08.62.17.93l-.36-.27c.11-.5.31-.93.62-1.28.31-.35.69-.62,1.16-.8.46-.18.97-.27,1.52-.27.67,0,1.27.12,1.78.38.51.25.91.6,1.2,1.05.29.45.43.99.43,1.6s-.15,1.17-.45,1.64c-.3.47-.71.83-1.23,1.08-.53.25-1.12.38-1.77.38Zm-.04-.88c.48,0,.91-.09,1.28-.27.37-.18.66-.43.87-.76.21-.33.32-.72.32-1.16,0-.66-.23-1.19-.69-1.59s-1.08-.59-1.86-.59c-.52,0-.97.1-1.36.29-.38.19-.69.46-.91.79-.22.33-.33.71-.33,1.13,0,.37.1.71.3,1.05s.5.6.9.81.89.31,1.47.31Z"/><path class="cls-1" d="m284.92,634.43c.62,0,1.15.12,1.61.35.46.24.81.59,1.07,1.08.25.48.38,1.09.38,1.82v4.4h-1.02v-4.3c0-.8-.19-1.4-.57-1.81-.38-.41-.92-.61-1.61-.61-.52,0-.97.11-1.35.32-.38.22-.67.53-.88.94-.21.41-.31.9-.31,1.48v3.99h-1.03v-4.3c0-.8-.19-1.4-.58-1.81s-.92-.61-1.62-.61c-.51,0-.96.11-1.34.32-.38.22-.68.53-.89.94-.21.41-.31.9-.31,1.48v3.99h-1.03v-7.58h.98v2.05l-.16-.36c.23-.55.6-.98,1.12-1.29.51-.31,1.12-.47,1.83-.47.74,0,1.37.19,1.89.56.52.37.86.93,1.01,1.67l-.4-.16c.22-.62.61-1.11,1.18-1.5.56-.38,1.24-.57,2.03-.57Z"/><path class="cls-1" d="m291.29,632.82c-.21,0-.39-.07-.53-.22s-.22-.32-.22-.52.07-.37.22-.51.32-.21.53-.21.39.07.53.2c.14.13.22.3.22.5s-.07.39-.21.53-.32.22-.54.22Zm-.52,9.26v-7.58h1.03v7.58h-1.03Z"/><path class="cls-1" d="m297.87,642.15c-.79,0-1.48-.17-2.08-.5-.6-.33-1.06-.79-1.4-1.37-.34-.58-.5-1.25-.5-2s.16-1.42.48-1.99c.32-.58.77-1.03,1.33-1.37.56-.33,1.2-.5,1.9-.5s1.34.16,1.9.48.99.77,1.31,1.36c.32.58.48,1.25.48,2.01,0,.05,0,.1,0,.15,0,.05,0,.11,0,.17h-6.6v-.77h6.05l-.4.3c0-.55-.12-1.04-.35-1.46-.24-.43-.56-.76-.96-1s-.87-.36-1.4-.36-.99.12-1.4.36c-.41.24-.74.58-.97,1.01s-.35.93-.35,1.49v.16c0,.58.13,1.08.38,1.52.25.44.61.78,1.07,1.02.46.25.98.37,1.57.37.46,0,.89-.08,1.29-.25.4-.16.74-.41,1.03-.75l.58.66c-.34.4-.76.71-1.26.92-.51.21-1.06.32-1.67.32Z"/><path class="cls-1" d="m305.41,642.15c-.63,0-1.22-.09-1.78-.27-.56-.18-1-.4-1.31-.67l.46-.81c.31.23.7.43,1.18.6.48.17.99.25,1.52.25.72,0,1.24-.11,1.56-.34.32-.23.48-.53.48-.9,0-.28-.09-.5-.27-.66-.18-.16-.41-.28-.7-.36-.29-.08-.61-.15-.97-.21-.36-.06-.71-.12-1.06-.2-.35-.08-.67-.19-.96-.34-.29-.15-.52-.35-.7-.61s-.27-.61-.27-1.04.12-.78.35-1.11c.23-.33.57-.58,1.02-.77.45-.19.99-.28,1.64-.28.49,0,.98.07,1.47.2.49.13.9.3,1.21.51l-.45.82c-.34-.23-.7-.4-1.08-.5-.38-.1-.77-.15-1.16-.15-.68,0-1.19.12-1.51.35-.32.24-.48.54-.48.9,0,.29.09.51.27.68.18.16.41.29.71.38.29.09.62.17.97.22s.7.13,1.05.21.67.19.97.33c.29.14.53.34.71.59.18.26.27.59.27,1,0,.44-.12.83-.37,1.15-.25.32-.6.57-1.07.75-.47.18-1.03.27-1.7.27Z"/><path class="cls-1" d="m448.41,642.08v-9.67l.46.49h-2.84v-.92h3.42v10.11h-1.04Z"/><path class="cls-1" d="m451.67,642.08v-.74l4.2-4.12c.38-.38.67-.71.87-.99s.32-.55.39-.8c.07-.25.1-.49.1-.71,0-.59-.2-1.05-.6-1.39-.4-.34-.99-.5-1.77-.5-.6,0-1.12.09-1.58.27-.46.18-.85.47-1.18.85l-.74-.63c.39-.46.9-.82,1.52-1.07.62-.25,1.3-.38,2.06-.38.68,0,1.28.11,1.78.33.5.22.89.53,1.16.95s.41.9.41,1.46c0,.33-.05.65-.14.97-.09.32-.25.65-.49,1-.24.35-.58.75-1.03,1.19l-3.86,3.78-.29-.4h6.27v.92h-7.09Z"/><path class="cls-1" d="m474,634.43c.62,0,1.15.12,1.61.35.46.24.81.59,1.07,1.08s.38,1.09.38,1.82v4.4h-1.03v-4.3c0-.8-.19-1.4-.57-1.81s-.92-.61-1.61-.61c-.52,0-.97.11-1.35.32-.38.22-.67.53-.88.94-.21.41-.31.9-.31,1.48v3.99h-1.03v-4.3c0-.8-.19-1.4-.58-1.81-.39-.41-.92-.61-1.62-.61-.51,0-.96.11-1.34.32-.39.22-.68.53-.89.94-.21.41-.31.9-.31,1.48v3.99h-1.02v-7.58h.98v2.05l-.16-.36c.23-.55.6-.98,1.12-1.29.52-.31,1.12-.47,1.83-.47.74,0,1.37.19,1.89.56.52.37.86.93,1.01,1.67l-.4-.16c.22-.62.61-1.11,1.18-1.5.56-.38,1.24-.57,2.03-.57Z"/><path class="cls-1" d="m480.37,632.82c-.21,0-.39-.07-.53-.22s-.22-.32-.22-.52.07-.37.22-.51.32-.21.53-.21.39.07.53.2.22.3.22.5-.07.39-.21.53-.32.22-.54.22Zm-.52,9.26v-7.58h1.02v7.58h-1.02Z"/><path class="cls-1" d="m486.95,642.15c-.79,0-1.48-.17-2.08-.5s-1.06-.79-1.4-1.37c-.34-.58-.51-1.25-.51-2s.16-1.42.48-1.99c.32-.58.76-1.03,1.33-1.37.56-.33,1.2-.5,1.9-.5s1.35.16,1.9.48.99.77,1.31,1.36c.32.58.48,1.25.48,2.01,0,.05,0,.1,0,.15,0,.05,0,.11,0,.17h-6.6v-.77h6.05l-.4.3c0-.55-.12-1.04-.35-1.46-.24-.43-.56-.76-.96-1s-.87-.36-1.4-.36-.99.12-1.4.36-.74.58-.97,1.01c-.23.43-.35.93-.35,1.49v.16c0,.58.13,1.08.38,1.52.26.44.61.78,1.07,1.02.46.25.98.37,1.57.37.46,0,.89-.08,1.29-.25.4-.16.74-.41,1.03-.75l.58.66c-.34.4-.76.71-1.26.92-.5.21-1.06.32-1.67.32Z"/><path class="cls-1" d="m494.49,642.15c-.62,0-1.22-.09-1.78-.27-.56-.18-1-.4-1.31-.67l.46-.81c.31.23.7.43,1.18.6.48.17.99.25,1.52.25.72,0,1.24-.11,1.56-.34.32-.23.48-.53.48-.9,0-.28-.09-.5-.27-.66-.18-.16-.41-.28-.7-.36-.29-.08-.61-.15-.97-.21-.36-.06-.71-.12-1.06-.2s-.67-.19-.96-.34c-.29-.15-.52-.35-.7-.61-.18-.26-.27-.61-.27-1.04s.12-.78.35-1.11.57-.58,1.02-.77c.45-.19.99-.28,1.64-.28.49,0,.98.07,1.47.2s.9.3,1.21.51l-.45.82c-.34-.23-.7-.4-1.08-.5-.39-.1-.77-.15-1.16-.15-.68,0-1.19.12-1.51.35-.32.24-.48.54-.48.9,0,.29.09.51.27.68.18.16.41.29.71.38.29.09.62.17.97.22s.7.13,1.05.21.67.19.97.33.53.34.71.59c.18.26.27.59.27,1,0,.44-.12.83-.37,1.15-.25.32-.6.57-1.07.75-.47.18-1.03.27-1.7.27Z"/><path class="cls-1" d="m634.67,642.08v-9.67l.46.49h-2.84v-.92h3.42v10.11h-1.04Z"/><path class="cls-1" d="m641.97,642.17c-.81,0-1.5-.12-2.09-.35-.58-.23-1.03-.57-1.34-1-.31-.44-.47-.96-.47-1.55s.15-1.07.46-1.48c.3-.41.75-.72,1.33-.95.58-.22,1.29-.33,2.12-.33s1.52.11,2.11.33c.59.22,1.04.54,1.35.95.31.41.47.9.47,1.48s-.16,1.11-.48,1.55c-.32.44-.77.77-1.36,1-.59.23-1.29.35-2.09.35Zm0-5.07c-.75,0-1.39-.1-1.91-.3s-.93-.49-1.21-.87c-.28-.38-.42-.83-.42-1.37,0-.56.15-1.04.44-1.44.29-.4.71-.71,1.23-.92.53-.21,1.15-.32,1.86-.32s1.34.11,1.87.32c.53.21.95.52,1.25.92.3.4.45.88.45,1.44s-.14.98-.42,1.37c-.28.38-.69.67-1.22.87s-1.18.3-1.93.3Zm0,4.19c.89,0,1.6-.18,2.1-.55.5-.37.76-.86.76-1.49s-.25-1.12-.76-1.48c-.51-.36-1.21-.54-2.1-.54s-1.59.18-2.09.54c-.5.36-.75.85-.75,1.48s.25,1.12.75,1.49,1.2.55,2.09.55Zm0-4.88c.79,0,1.41-.16,1.85-.49.44-.33.67-.76.67-1.31,0-.58-.23-1.03-.69-1.35-.46-.32-1.07-.48-1.83-.48s-1.37.16-1.82.48c-.45.32-.68.77-.68,1.34s.22,1,.66,1.33c.44.33,1.05.49,1.84.49Z"/><path class="cls-1" d="m661.27,634.43c.62,0,1.15.12,1.61.35.46.24.81.59,1.07,1.08.25.48.38,1.09.38,1.82v4.4h-1.03v-4.3c0-.8-.19-1.4-.57-1.81-.38-.41-.92-.61-1.61-.61-.52,0-.97.11-1.35.32-.38.22-.67.53-.88.94-.21.41-.31.9-.31,1.48v3.99h-1.03v-4.3c0-.8-.19-1.4-.58-1.81-.39-.41-.92-.61-1.62-.61-.51,0-.96.11-1.34.32-.38.22-.68.53-.89.94-.21.41-.31.9-.31,1.48v3.99h-1.02v-7.58h.98v2.05l-.16-.36c.23-.55.6-.98,1.12-1.29s1.12-.47,1.83-.47c.74,0,1.37.19,1.89.56.52.37.86.93,1.01,1.67l-.4-.16c.22-.62.61-1.11,1.18-1.5.56-.38,1.24-.57,2.03-.57Z"/><path class="cls-1" d="m667.64,632.82c-.21,0-.39-.07-.54-.22s-.22-.32-.22-.52.07-.37.22-.51.32-.21.54-.21.39.07.53.2c.14.13.22.3.22.5s-.07.39-.21.53-.32.22-.54.22Zm-.52,9.26v-7.58h1.02v7.58h-1.02Z"/><path class="cls-1" d="m674.22,642.15c-.79,0-1.48-.17-2.08-.5s-1.06-.79-1.4-1.37c-.34-.58-.5-1.25-.5-2s.16-1.42.48-1.99c.32-.58.77-1.03,1.33-1.37.56-.33,1.2-.5,1.9-.5s1.34.16,1.9.48c.55.32.99.77,1.31,1.36.32.58.48,1.25.48,2.01,0,.05,0,.1,0,.15,0,.05,0,.11,0,.17h-6.6v-.77h6.05l-.4.3c0-.55-.12-1.04-.35-1.46-.24-.43-.55-.76-.96-1s-.87-.36-1.4-.36-.99.12-1.4.36c-.41.24-.74.58-.97,1.01-.23.43-.35.93-.35,1.49v.16c0,.58.13,1.08.38,1.52.25.44.61.78,1.07,1.02.46.25.98.37,1.57.37.46,0,.89-.08,1.29-.25.4-.16.74-.41,1.03-.75l.58.66c-.34.4-.76.71-1.26.92s-1.06.32-1.67.32Z"/><path class="cls-1" d="m681.76,642.15c-.62,0-1.22-.09-1.78-.27-.56-.18-1-.4-1.31-.67l.46-.81c.31.23.7.43,1.18.6.48.17.99.25,1.52.25.72,0,1.24-.11,1.56-.34.32-.23.48-.53.48-.9,0-.28-.09-.5-.27-.66-.18-.16-.41-.28-.7-.36-.29-.08-.61-.15-.97-.21-.36-.06-.71-.12-1.06-.2-.35-.08-.67-.19-.96-.34-.29-.15-.52-.35-.7-.61s-.27-.61-.27-1.04.12-.78.35-1.11c.23-.33.57-.58,1.02-.77.45-.19.99-.28,1.64-.28.49,0,.98.07,1.47.2.49.13.9.3,1.21.51l-.45.82c-.34-.23-.7-.4-1.08-.5-.39-.1-.77-.15-1.16-.15-.68,0-1.19.12-1.51.35-.32.24-.48.54-.48.9,0,.29.09.51.27.68.18.16.41.29.71.38.29.09.62.17.97.22s.7.13,1.05.21.67.19.97.33c.29.14.53.34.71.59.18.26.27.59.27,1,0,.44-.12.83-.37,1.15-.25.32-.6.57-1.07.75-.47.18-1.03.27-1.7.27Z"/><path class="cls-1" d="m818,642.08v-.74l4.2-4.12c.38-.38.67-.71.87-.99s.32-.55.39-.8c.07-.25.1-.49.1-.71,0-.59-.2-1.05-.6-1.39-.4-.34-.99-.5-1.77-.5-.6,0-1.12.09-1.58.27s-.85.47-1.18.85l-.74-.63c.39-.46.9-.82,1.52-1.07.62-.25,1.3-.38,2.07-.38.68,0,1.28.11,1.78.33.5.22.89.53,1.16.95s.41.9.41,1.46c0,.33-.05.65-.14.97-.09.32-.26.65-.49,1-.24.35-.58.75-1.03,1.19l-3.86,3.78-.29-.4h6.27v.92h-7.09Z"/><path class="cls-1" d="m825.88,639.42v-.75l5.36-6.7h1.16l-5.31,6.7-.56-.17h8.13v.92h-8.76Zm5.7,2.66v-2.66l.03-.92v-2.34h1.01v5.92h-1.04Z"/><path class="cls-1" d="m849.53,634.43c.62,0,1.15.12,1.61.35.46.24.81.59,1.07,1.08s.38,1.09.38,1.82v4.4h-1.03v-4.3c0-.8-.19-1.4-.57-1.81s-.92-.61-1.61-.61c-.52,0-.97.11-1.35.32-.38.22-.67.53-.88.94-.21.41-.31.9-.31,1.48v3.99h-1.03v-4.3c0-.8-.19-1.4-.58-1.81-.39-.41-.92-.61-1.62-.61-.51,0-.96.11-1.34.32-.39.22-.68.53-.89.94-.21.41-.31.9-.31,1.48v3.99h-1.02v-7.58h.98v2.05l-.16-.36c.23-.55.6-.98,1.12-1.29.52-.31,1.12-.47,1.83-.47.74,0,1.37.19,1.89.56.52.37.86.93,1.01,1.67l-.4-.16c.22-.62.61-1.11,1.18-1.5.56-.38,1.24-.57,2.03-.57Z"/><path class="cls-1" d="m855.9,632.82c-.21,0-.39-.07-.53-.22s-.22-.32-.22-.52.07-.37.22-.51.32-.21.53-.21.39.07.53.2.22.3.22.5-.07.39-.21.53-.32.22-.54.22Zm-.52,9.26v-7.58h1.02v7.58h-1.02Z"/><path class="cls-1" d="m862.49,642.15c-.79,0-1.48-.17-2.08-.5s-1.06-.79-1.4-1.37c-.34-.58-.51-1.25-.51-2s.16-1.42.48-1.99c.32-.58.76-1.03,1.33-1.37.56-.33,1.2-.5,1.9-.5s1.35.16,1.9.48.99.77,1.31,1.36c.32.58.48,1.25.48,2.01,0,.05,0,.1,0,.15,0,.05,0,.11,0,.17h-6.6v-.77h6.05l-.4.3c0-.55-.12-1.04-.35-1.46-.24-.43-.56-.76-.96-1s-.87-.36-1.4-.36-.99.12-1.4.36-.74.58-.97,1.01c-.23.43-.35.93-.35,1.49v.16c0,.58.13,1.08.38,1.52.26.44.61.78,1.07,1.02.46.25.98.37,1.57.37.46,0,.89-.08,1.29-.25.4-.16.74-.41,1.03-.75l.58.66c-.34.4-.76.71-1.26.92-.5.21-1.06.32-1.67.32Z"/><path class="cls-1" d="m870.02,642.15c-.62,0-1.22-.09-1.78-.27-.56-.18-1-.4-1.31-.67l.46-.81c.31.23.7.43,1.18.6.48.17.99.25,1.52.25.72,0,1.24-.11,1.56-.34.32-.23.48-.53.48-.9,0-.28-.09-.5-.27-.66-.18-.16-.41-.28-.7-.36-.29-.08-.61-.15-.97-.21-.36-.06-.71-.12-1.06-.2s-.67-.19-.96-.34c-.29-.15-.52-.35-.7-.61-.18-.26-.27-.61-.27-1.04s.12-.78.35-1.11.57-.58,1.02-.77c.45-.19.99-.28,1.64-.28.49,0,.98.07,1.47.2s.9.3,1.21.51l-.45.82c-.34-.23-.7-.4-1.08-.5-.39-.1-.77-.15-1.16-.15-.68,0-1.19.12-1.51.35-.32.24-.48.54-.48.9,0,.29.09.51.27.68.18.16.41.29.71.38.29.09.62.17.97.22s.7.13,1.05.21.67.19.97.33.53.34.71.59c.18.26.27.59.27,1,0,.44-.12.83-.37,1.15-.25.32-.6.57-1.07.75-.47.18-1.03.27-1.7.27Z"/></g><g id="Warstwa_3"><polyline class="cls-6" points="90.76 33.07 466.85 357.49 838.71 487.94"/></g><g id="Warstwa_4"><polyline class="cls-5" points="93.3 33.07 452.45 178.76 663.37 198.24 839.56 137.26"/></g><g id="Warstwa_5"><rect class="cls-3" x="75.86" y="21.12" width="68.61" height="32.47" rx="12" ry="12"/><path class="cls-1" d="m99.23,41.71c-.78,0-1.47-.2-2.08-.61s-1.08-1-1.43-1.76c-.35-.77-.52-1.69-.52-2.77s.17-2,.52-2.77c.35-.77.82-1.35,1.43-1.76s1.3-.61,2.08-.61,1.47.2,2.08.61,1.08,1,1.44,1.76c.35.77.53,1.69.53,2.77s-.18,2-.53,2.77c-.35.77-.83,1.35-1.44,1.76s-1.3.61-2.08.61Zm0-.95c.6,0,1.12-.16,1.56-.48.44-.32.79-.79,1.04-1.42.25-.62.38-1.38.38-2.29s-.12-1.67-.38-2.29c-.25-.62-.6-1.09-1.04-1.42-.44-.32-.96-.48-1.56-.48s-1.09.16-1.54.48c-.45.32-.8.79-1.05,1.42-.25.62-.38,1.38-.38,2.29s.12,1.67.38,2.29c.25.62.6,1.09,1.05,1.42.45.32.97.48,1.54.48Z"/><path class="cls-1" d="m105.38,41.7c-.21,0-.39-.08-.54-.23-.15-.15-.22-.34-.22-.56s.07-.42.22-.56c.15-.14.33-.22.54-.22s.39.07.54.22c.15.14.22.33.22.56s-.07.41-.22.56c-.15.15-.33.23-.54.23Z"/><path class="cls-1" d="m111.54,41.71c-.78,0-1.47-.2-2.08-.61s-1.08-1-1.43-1.76c-.35-.77-.52-1.69-.52-2.77s.17-2,.52-2.77c.35-.77.82-1.35,1.43-1.76s1.3-.61,2.08-.61,1.47.2,2.08.61,1.08,1,1.44,1.76c.35.77.53,1.69.53,2.77s-.18,2-.53,2.77c-.35.77-.83,1.35-1.44,1.76s-1.3.61-2.08.61Zm0-.95c.6,0,1.12-.16,1.56-.48.44-.32.79-.79,1.04-1.42.25-.62.38-1.38.38-2.29s-.12-1.67-.38-2.29c-.25-.62-.6-1.09-1.04-1.42-.44-.32-.96-.48-1.56-.48s-1.09.16-1.54.48c-.45.32-.8.79-1.05,1.42-.25.62-.38,1.38-.38,2.29s.12,1.67.38,2.29c.25.62.6,1.09,1.05,1.42.45.32.97.48,1.54.48Z"/><path class="cls-1" d="m121.09,41.71c-.78,0-1.47-.2-2.08-.61s-1.08-1-1.43-1.76c-.35-.77-.52-1.69-.52-2.77s.17-2,.52-2.77c.35-.77.82-1.35,1.43-1.76s1.3-.61,2.08-.61,1.47.2,2.08.61,1.08,1,1.44,1.76c.35.77.53,1.69.53,2.77s-.18,2-.53,2.77c-.35.77-.83,1.35-1.44,1.76s-1.3.61-2.08.61Zm0-.95c.6,0,1.12-.16,1.56-.48.44-.32.79-.79,1.04-1.42.25-.62.38-1.38.38-2.29s-.12-1.67-.38-2.29c-.25-.62-.6-1.09-1.04-1.42-.44-.32-.96-.48-1.56-.48s-1.09.16-1.54.48c-.45.32-.8.79-1.05,1.42-.25.62-.38,1.38-.38,2.29s.12,1.67.38,2.29c.25.62.6,1.09,1.05,1.42.45.32.97.48,1.54.48Z"/><rect class="cls-3" x="427.1" y="163.43" width="68.61" height="32.47" rx="12" ry="12"/><path class="cls-1" d="m450.71,180.47v-.9h3.78v.9h-3.78Z"/><path class="cls-1" d="m460.25,184.02c-.78,0-1.47-.2-2.08-.61s-1.08-1-1.43-1.76c-.35-.77-.52-1.69-.52-2.77s.17-2,.52-2.77c.35-.77.82-1.35,1.43-1.76s1.3-.61,2.08-.61,1.47.2,2.08.61,1.08,1,1.44,1.76c.35.77.53,1.69.53,2.77s-.18,2-.53,2.77c-.35.77-.83,1.35-1.44,1.76s-1.3.61-2.08.61Zm0-.95c.6,0,1.12-.16,1.56-.48.44-.32.79-.79,1.04-1.42s.38-1.38.38-2.29-.12-1.67-.38-2.29c-.25-.62-.6-1.09-1.04-1.42-.44-.32-.96-.48-1.56-.48s-1.09.16-1.54.48c-.45.32-.8.79-1.05,1.42-.25.62-.38,1.38-.38,2.29s.12,1.67.38,2.29.6,1.09,1.05,1.42c.45.32.97.48,1.54.48Z"/><path class="cls-1" d="m466.41,184c-.21,0-.39-.08-.54-.23-.15-.15-.22-.34-.22-.56s.08-.42.22-.56c.15-.14.33-.22.54-.22s.39.07.54.22c.15.14.22.33.22.56s-.08.41-.22.56c-.15.15-.33.23-.54.23Z"/><path class="cls-1" d="m470.28,183.93v-9.67l.46.49h-2.84v-.92h3.42v10.11h-1.04Z"/><rect class="cls-3" x="620.23" y="175.85" width="68.61" height="32.47" rx="12" ry="12"/><path class="cls-1" d="m641.23,192.89v-.9h3.78v.9h-3.78Z"/><path class="cls-1" d="m650.78,196.44c-.78,0-1.47-.2-2.08-.61s-1.08-1-1.43-1.76c-.35-.77-.52-1.69-.52-2.77s.17-2,.52-2.77c.35-.77.82-1.35,1.43-1.76s1.3-.61,2.08-.61,1.47.2,2.08.61,1.08,1,1.44,1.76c.35.77.53,1.69.53,2.77s-.18,2-.53,2.77c-.35.77-.83,1.35-1.44,1.76s-1.3.61-2.08.61Zm0-.95c.6,0,1.12-.16,1.56-.48.44-.32.79-.79,1.04-1.42s.38-1.38.38-2.29-.12-1.67-.38-2.29c-.25-.62-.6-1.09-1.04-1.42-.44-.32-.96-.48-1.56-.48s-1.09.16-1.54.48c-.45.32-.8.79-1.05,1.42-.25.62-.38,1.38-.38,2.29s.12,1.67.38,2.29.6,1.09,1.05,1.42c.45.32.97.48,1.54.48Z"/><path class="cls-1" d="m656.93,196.43c-.21,0-.39-.08-.54-.23-.15-.15-.22-.34-.22-.56s.08-.42.22-.56c.15-.14.33-.22.54-.22s.39.07.54.22c.15.14.22.33.22.56s-.08.41-.22.56c-.15.15-.33.23-.54.23Z"/><path class="cls-1" d="m660.8,196.36v-9.67l.46.49h-2.84v-.92h3.42v10.11h-1.04Z"/><path class="cls-1" d="m666.01,196.36v-9.67l.46.49h-2.84v-.92h3.42v10.11h-1.04Z"/><rect class="cls-3" x="789.93" y="118.54" width="68.61" height="32.47" rx="12" ry="12"/><path class="cls-1" d="m807.16,135.57v-.9h3.78v.9h-3.78Z"/><path class="cls-1" d="m816.7,139.12c-.78,0-1.47-.2-2.08-.61s-1.08-1-1.43-1.76c-.35-.77-.52-1.69-.52-2.77s.17-2,.52-2.77c.35-.77.82-1.35,1.43-1.76s1.3-.61,2.08-.61,1.47.2,2.08.61,1.08,1,1.44,1.76c.35.77.53,1.69.53,2.77s-.18,2-.53,2.77c-.35.77-.83,1.35-1.44,1.76s-1.3.61-2.08.61Zm0-.95c.6,0,1.12-.16,1.56-.48.44-.32.79-.79,1.04-1.42.25-.62.38-1.38.38-2.29s-.12-1.67-.38-2.29c-.25-.62-.6-1.09-1.04-1.42-.44-.32-.96-.48-1.56-.48s-1.09.16-1.54.48c-.45.32-.8.79-1.05,1.42-.25.62-.38,1.38-.38,2.29s.12,1.67.38,2.29c.25.62.6,1.09,1.05,1.42.45.32.97.48,1.54.48Z"/><path class="cls-1" d="m822.85,139.11c-.21,0-.39-.08-.54-.23s-.22-.34-.22-.56.07-.42.22-.56.33-.22.54-.22.39.07.54.22.22.33.22.56-.07.41-.22.56-.33.23-.54.23Z"/><path class="cls-1" d="m829.01,139.12c-.78,0-1.47-.2-2.08-.61s-1.08-1-1.43-1.76c-.35-.77-.52-1.69-.52-2.77s.17-2,.52-2.77c.35-.77.82-1.35,1.43-1.76s1.3-.61,2.08-.61,1.47.2,2.08.61,1.08,1,1.44,1.76c.35.77.53,1.69.53,2.77s-.18,2-.53,2.77c-.35.77-.83,1.35-1.44,1.76s-1.3.61-2.08.61Zm0-.95c.6,0,1.12-.16,1.56-.48.44-.32.79-.79,1.04-1.42.25-.62.38-1.38.38-2.29s-.12-1.67-.38-2.29c-.25-.62-.6-1.09-1.04-1.42-.44-.32-.96-.48-1.56-.48s-1.09.16-1.54.48c-.45.32-.8.79-1.05,1.42-.25.62-.38,1.38-.38,2.29s.12,1.67.38,2.29c.25.62.6,1.09,1.05,1.42.45.32.97.48,1.54.48Z"/><path class="cls-1" d="m836.2,139.04l4.36-9.65.32.46h-6.25l.53-.51v2.4h-1.03v-2.82h7.42v.74l-4.23,9.37h-1.13Z"/><rect class="cls-2" x="427.1" y="340.75" width="68.61" height="32.47" rx="12" ry="12"/><path class="cls-1" d="m444.96,357.78v-.9h3.78v.9h-3.78Z"/><path class="cls-1" d="m454.5,361.34c-.78,0-1.47-.2-2.08-.61-.61-.41-1.08-1-1.43-1.76-.35-.77-.52-1.69-.52-2.76s.17-2,.52-2.76c.35-.77.82-1.35,1.43-1.76.61-.41,1.3-.61,2.08-.61s1.47.2,2.08.61c.61.41,1.08,1,1.44,1.76.35.76.53,1.69.53,2.76s-.18,2-.53,2.76-.83,1.35-1.44,1.76c-.61.41-1.3.61-2.08.61Zm0-.95c.6,0,1.12-.16,1.56-.48.44-.32.79-.79,1.04-1.42s.38-1.38.38-2.29-.12-1.67-.38-2.29c-.25-.62-.6-1.09-1.04-1.42-.44-.32-.96-.48-1.56-.48s-1.09.16-1.54.48c-.45.32-.8.79-1.05,1.42-.25.62-.38,1.38-.38,2.29s.12,1.67.38,2.29.6,1.09,1.05,1.42c.45.32.97.48,1.54.48Z"/><path class="cls-1" d="m460.65,361.32c-.21,0-.39-.08-.54-.23-.15-.15-.22-.34-.22-.56s.08-.42.22-.56c.15-.14.33-.22.54-.22s.39.07.54.22c.15.14.22.33.22.56s-.08.41-.22.56c-.15.15-.33.23-.54.23Z"/><path class="cls-1" d="m462.89,361.25v-.74l4.2-4.12c.38-.38.67-.71.87-.99s.32-.55.39-.8c.07-.25.1-.49.1-.71,0-.59-.2-1.05-.6-1.39-.4-.34-.99-.5-1.77-.5-.6,0-1.12.09-1.58.27-.46.18-.85.47-1.18.85l-.74-.63c.39-.46.9-.82,1.52-1.07.62-.25,1.3-.38,2.06-.38.68,0,1.28.11,1.78.33s.89.53,1.16.95.41.9.41,1.46c0,.33-.05.65-.14.97-.09.32-.25.65-.49,1-.24.35-.58.75-1.03,1.19l-3.86,3.78-.29-.4h6.27v.92h-7.09Z"/><path class="cls-1" d="m471.09,361.25v-.74l4.2-4.12c.38-.38.67-.71.87-.99s.32-.55.39-.8c.07-.25.1-.49.1-.71,0-.59-.2-1.05-.6-1.39-.4-.34-.99-.5-1.77-.5-.6,0-1.12.09-1.58.27-.46.18-.85.47-1.18.85l-.74-.63c.39-.46.9-.82,1.52-1.07.62-.25,1.3-.38,2.07-.38.68,0,1.28.11,1.78.33.5.22.89.53,1.16.95s.41.9.41,1.46c0,.33-.05.65-.14.97-.09.32-.26.65-.49,1-.24.35-.58.75-1.03,1.19l-3.86,3.78-.29-.4h6.27v.92h-7.09Z"/><rect class="cls-2" x="620.23" y="399.48" width="68.61" height="32.47" rx="12" ry="12"/><path class="cls-1" d="m637.8,416.51v-.9h3.78v.9h-3.78Z"/><path class="cls-1" d="m647.35,420.06c-.78,0-1.47-.2-2.08-.61s-1.08-1-1.43-1.76-.52-1.69-.52-2.76.17-2,.52-2.77.82-1.35,1.43-1.76,1.3-.61,2.08-.61,1.47.2,2.08.61,1.08,1,1.44,1.76.53,1.69.53,2.77-.18,2-.53,2.76-.83,1.35-1.44,1.76-1.3.61-2.08.61Zm0-.95c.6,0,1.12-.16,1.56-.48.44-.32.79-.79,1.04-1.42.25-.62.38-1.38.38-2.29s-.12-1.67-.38-2.29c-.25-.62-.6-1.09-1.04-1.42-.44-.32-.96-.48-1.56-.48s-1.09.16-1.54.48c-.45.32-.8.79-1.05,1.42-.25.62-.38,1.38-.38,2.29s.12,1.67.38,2.29c.25.62.6,1.09,1.05,1.42.45.32.97.48,1.54.48Z"/><path class="cls-1" d="m653.5,420.05c-.21,0-.39-.08-.54-.23-.15-.15-.22-.34-.22-.56s.07-.42.22-.56.33-.22.54-.22.39.07.54.22.22.33.22.56-.07.41-.22.56c-.15.15-.33.23-.54.23Z"/><path class="cls-1" d="m655.74,419.98v-.74l4.2-4.12c.38-.38.67-.71.87-.99s.32-.55.39-.8c.07-.25.1-.49.1-.71,0-.59-.2-1.05-.6-1.39s-.99-.5-1.77-.5c-.6,0-1.12.09-1.58.27-.46.18-.85.47-1.18.85l-.74-.64c.39-.46.9-.82,1.52-1.07.62-.25,1.3-.38,2.07-.38.68,0,1.28.11,1.78.32.5.22.89.53,1.16.95s.41.9.41,1.46c0,.33-.05.65-.14.97-.09.32-.26.65-.49,1-.24.35-.58.75-1.03,1.19l-3.86,3.78-.29-.4h6.27v.92h-7.09Z"/><path class="cls-1" d="m668.24,420.06c-.89,0-1.65-.2-2.27-.6s-1.08-.98-1.4-1.73c-.32-.76-.48-1.66-.48-2.72,0-1.15.19-2.11.58-2.88.39-.77.93-1.36,1.62-1.75s1.5-.59,2.41-.59c.45,0,.89.04,1.3.13s.78.23,1.1.42l-.42.84c-.26-.17-.56-.3-.9-.37s-.69-.11-1.07-.11c-1.09,0-1.96.35-2.61,1.04s-.97,1.73-.97,3.1c0,.21.01.47.04.79.02.31.08.62.17.93l-.36-.27c.11-.5.31-.93.62-1.28.31-.35.69-.62,1.16-.8.46-.18.97-.27,1.52-.27.67,0,1.27.13,1.78.38.51.25.91.6,1.2,1.05.29.45.43.99.43,1.6s-.15,1.17-.45,1.64c-.3.47-.71.83-1.23,1.08-.53.25-1.12.38-1.77.38Zm-.04-.88c.48,0,.91-.09,1.28-.27.37-.18.66-.43.87-.77s.32-.72.32-1.16c0-.66-.23-1.19-.69-1.59-.46-.4-1.08-.59-1.86-.59-.52,0-.97.1-1.36.29s-.69.46-.91.79c-.22.33-.33.71-.33,1.13,0,.37.1.71.3,1.05s.5.6.9.81.89.31,1.47.31Z"/><rect class="cls-2" x="789.93" y="466.39" width="68.61" height="32.47" rx="12" ry="12"/><path class="cls-1" d="m809.3,483.43v-.9h3.78v.9h-3.78Z"/><path class="cls-1" d="m818.85,486.98c-.78,0-1.47-.2-2.08-.61s-1.08-1-1.43-1.76c-.35-.77-.52-1.69-.52-2.77s.17-2,.52-2.76c.35-.77.82-1.35,1.43-1.76s1.3-.61,2.08-.61,1.47.21,2.08.61,1.08,1,1.44,1.76c.35.76.53,1.69.53,2.76s-.18,2-.53,2.77c-.35.76-.83,1.35-1.44,1.76s-1.3.61-2.08.61Zm0-.95c.6,0,1.12-.16,1.56-.48.44-.32.79-.79,1.04-1.42.25-.62.38-1.38.38-2.29s-.12-1.67-.38-2.29c-.25-.62-.6-1.09-1.04-1.42-.44-.32-.96-.48-1.56-.48s-1.09.16-1.54.48c-.45.32-.8.79-1.05,1.42-.25.62-.38,1.38-.38,2.29s.12,1.67.38,2.29c.25.62.6,1.09,1.05,1.42.45.32.97.48,1.54.48Z"/><path class="cls-1" d="m825,486.97c-.21,0-.39-.08-.54-.23-.15-.15-.22-.34-.22-.56s.07-.42.22-.56.33-.22.54-.22.39.07.54.22.22.33.22.56-.07.41-.22.56c-.15.15-.33.23-.54.23Z"/><path class="cls-1" d="m830.44,486.98c-.73,0-1.42-.12-2.07-.35-.65-.24-1.17-.55-1.57-.95l.5-.82c.33.34.77.62,1.32.84s1.16.33,1.81.33c.84,0,1.48-.18,1.93-.55.45-.37.67-.86.67-1.47s-.22-1.11-.66-1.47c-.44-.37-1.13-.55-2.07-.55h-.72v-.77l3.12-3.91.14.4h-5.63v-.92h6.5v.74l-3.12,3.91-.51-.33h.39c1.21,0,2.12.27,2.72.81s.9,1.23.9,2.08c0,.57-.14,1.08-.4,1.53-.27.45-.68.81-1.22,1.07s-1.22.39-2.04.39Z"/><path class="cls-1" d="m837.33,486.9v-9.67l.46.49h-2.84v-.92h3.42v10.11h-1.04Z"/></g></svg>