<?xml version="1.0" encoding="UTF-8"?><svg xmlns="http://www.w3.org/2000/svg" viewBox="0 0 888.19 691.49"><defs><style>.cls-1{fill:#008cff;}.cls-2,.cls-3{fill:#fff;}.cls-4,.cls-5{stroke-linecap:round;}.cls-4,.cls-5,.cls-6,.cls-7,.cls-8,.cls-9,.cls-10{fill:none;}.cls-4,.cls-5,.cls-7,.cls-3,.cls-8,.cls-9,.cls-10{stroke:#008cff;stroke-linejoin:round;}.cls-4,.cls-5,.cls-10{stroke-width:10px;}.cls-5{stroke-dasharray:0 0 12.11 12.11;}.cls-6{stroke:#fff;stroke-miterlimit:10;}.cls-7{stroke-dasharray:0 0 12.86 12.86;}.cls-7,.cls-3,.cls-8,.cls-9{stroke-width:2px;}.cls-8{stroke-dasharray:0 0 11.48 11.48;}</style></defs><g id="Warstwa_2"><line class="cls-6" x1="77.01" y1="622.03" x2="870.01" y2="622.03"/><path class="cls-2" d="m62.26,626.38c-.78,0-1.47-.21-2.08-.61s-1.08-1-1.43-1.76c-.35-.76-.52-1.69-.52-2.76s.17-2,.52-2.77c.35-.76.82-1.35,1.43-1.76.61-.41,1.3-.61,2.08-.61s1.47.21,2.08.61c.61.41,1.08,1,1.44,1.76.35.77.53,1.69.53,2.77s-.18,2-.53,2.76c-.35.77-.83,1.35-1.44,1.76s-1.3.61-2.08.61Zm0-.95c.6,0,1.12-.16,1.56-.48.44-.32.79-.79,1.04-1.42.25-.62.38-1.38.38-2.29s-.12-1.67-.38-2.29c-.25-.62-.6-1.09-1.04-1.42-.44-.32-.96-.48-1.56-.48s-1.09.16-1.54.48c-.45.32-.8.79-1.05,1.42-.25.62-.38,1.38-.38,2.29s.12,1.67.38,2.29c.25.62.6,1.09,1.05,1.42.45.32.97.48,1.54.48Z"/><line class="cls-6" x1="77.01" y1="555.11" x2="870.01" y2="555.11"/><path class="cls-2" d="m54.78,559.38v-9.67l.46.49h-2.84v-.92h3.42v10.11h-1.04Z"/><path class="cls-2" d="m62.26,559.47c-.78,0-1.47-.21-2.08-.61s-1.08-1-1.43-1.76c-.35-.76-.52-1.69-.52-2.76s.17-2,.52-2.77c.35-.76.82-1.35,1.43-1.76.61-.41,1.3-.61,2.08-.61s1.47.21,2.08.61c.61.41,1.08,1,1.44,1.76.35.77.53,1.69.53,2.77s-.18,2-.53,2.76c-.35.77-.83,1.35-1.44,1.76s-1.3.61-2.08.61Zm0-.95c.6,0,1.12-.16,1.56-.48.44-.32.79-.79,1.04-1.42.25-.62.38-1.38.38-2.29s-.12-1.67-.38-2.29c-.25-.62-.6-1.09-1.04-1.42-.44-.32-.96-.48-1.56-.48s-1.09.16-1.54.48c-.45.32-.8.79-1.05,1.42-.25.62-.38,1.38-.38,2.29s.12,1.67.38,2.29c.25.62.6,1.09,1.05,1.42.45.32.97.48,1.54.48Z"/><line class="cls-6" x1="77.01" y1="488.2" x2="870.01" y2="488.2"/><path class="cls-2" d="m49.87,492.46v-.74l4.2-4.12c.38-.38.67-.71.87-.99s.32-.55.39-.8c.07-.25.1-.49.1-.71,0-.59-.2-1.05-.6-1.39-.4-.34-.99-.5-1.77-.5-.6,0-1.12.09-1.58.27-.46.18-.85.47-1.18.85l-.74-.63c.39-.46.9-.82,1.52-1.07.62-.25,1.3-.38,2.06-.38.68,0,1.28.11,1.78.33.5.22.89.53,1.16.95s.41.9.41,1.46c0,.33-.05.65-.14.97-.09.32-.26.65-.49,1-.24.35-.58.75-1.03,1.19l-3.86,3.78-.29-.4h6.27v.92h-7.09Z"/><path class="cls-2" d="m62.26,492.55c-.78,0-1.47-.21-2.08-.61s-1.08-1-1.43-1.76c-.35-.76-.52-1.69-.52-2.76s.17-2,.52-2.77c.35-.76.82-1.35,1.43-1.76.61-.41,1.3-.61,2.08-.61s1.47.21,2.08.61c.61.41,1.08,1,1.44,1.76.35.77.53,1.69.53,2.77s-.18,2-.53,2.76c-.35.77-.83,1.35-1.44,1.76s-1.3.61-2.08.61Zm0-.95c.6,0,1.12-.16,1.56-.48.44-.32.79-.79,1.04-1.42.25-.62.38-1.38.38-2.29s-.12-1.67-.38-2.29c-.25-.62-.6-1.09-1.04-1.42-.44-.32-.96-.48-1.56-.48s-1.09.16-1.54.48c-.45.32-.8.79-1.05,1.42-.25.62-.38,1.38-.38,2.29s.12,1.67.38,2.29c.25.62.6,1.09,1.05,1.42.45.32.97.48,1.54.48Z"/><line class="cls-6" x1="77.01" y1="421.28" x2="870.01" y2="421.28"/><path class="cls-2" d="m53.11,425.63c-.73,0-1.42-.12-2.07-.35-.65-.24-1.17-.55-1.57-.95l.51-.82c.33.34.77.62,1.32.84s1.16.33,1.81.33c.84,0,1.48-.18,1.93-.55.45-.37.67-.86.67-1.47s-.22-1.11-.66-1.47c-.44-.37-1.13-.55-2.07-.55h-.72v-.77l3.12-3.91.14.4h-5.63v-.92h6.5v.74l-3.12,3.91-.51-.33h.39c1.21,0,2.12.27,2.72.81s.9,1.23.9,2.08c0,.57-.14,1.08-.4,1.53-.27.45-.68.81-1.22,1.07-.54.26-1.23.39-2.04.39Z"/><path class="cls-2" d="m62.26,425.63c-.78,0-1.47-.21-2.08-.61s-1.08-1-1.43-1.76c-.35-.76-.52-1.69-.52-2.76s.17-2,.52-2.77c.35-.76.82-1.35,1.43-1.76.61-.41,1.3-.61,2.08-.61s1.47.21,2.08.61c.61.41,1.08,1,1.44,1.76.35.77.53,1.69.53,2.77s-.18,2-.53,2.76c-.35.77-.83,1.35-1.44,1.76s-1.3.61-2.08.61Zm0-.95c.6,0,1.12-.16,1.56-.48.44-.32.79-.79,1.04-1.42.25-.62.38-1.38.38-2.29s-.12-1.67-.38-2.29c-.25-.62-.6-1.09-1.04-1.42-.44-.32-.96-.48-1.56-.48s-1.09.16-1.54.48c-.45.32-.8.79-1.05,1.42-.25.62-.38,1.38-.38,2.29s.12,1.67.38,2.29c.25.62.6,1.09,1.05,1.42.45.32.97.48,1.54.48Z"/><line class="cls-6" x1="77.01" y1="354.36" x2="870.01" y2="354.36"/><path class="cls-2" d="m48.52,355.97v-.75l5.36-6.7h1.16l-5.31,6.7-.56-.17h8.13v.92h-8.76Zm5.7,2.66v-2.66l.03-.92v-2.34h1.01v5.92h-1.04Z"/><path class="cls-2" d="m62.26,358.71c-.78,0-1.47-.21-2.08-.61s-1.08-1-1.43-1.76c-.35-.76-.52-1.69-.52-2.76s.17-2,.52-2.77c.35-.76.82-1.35,1.43-1.76.61-.41,1.3-.61,2.08-.61s1.47.21,2.08.61c.61.41,1.08,1,1.44,1.76.35.77.53,1.69.53,2.77s-.18,2-.53,2.76c-.35.77-.83,1.35-1.44,1.76s-1.3.61-2.08.61Zm0-.95c.6,0,1.12-.16,1.56-.48.44-.32.79-.79,1.04-1.42.25-.62.38-1.38.38-2.29s-.12-1.67-.38-2.29c-.25-.62-.6-1.09-1.04-1.42-.44-.32-.96-.48-1.56-.48s-1.09.16-1.54.48c-.45.32-.8.79-1.05,1.42-.25.62-.38,1.38-.38,2.29s.12,1.67.38,2.29c.25.62.6,1.09,1.05,1.42.45.32.97.48,1.54.48Z"/><line class="cls-6" x1="77.01" y1="287.44" x2="870.01" y2="287.44"/><path class="cls-2" d="m53.25,291.8c-.72,0-1.41-.12-2.06-.35-.65-.24-1.17-.55-1.56-.95l.51-.82c.32.34.75.62,1.31.84.55.22,1.15.33,1.8.33.86,0,1.51-.19,1.96-.57.45-.38.67-.88.67-1.5,0-.43-.1-.81-.31-1.12-.21-.31-.56-.56-1.05-.73-.49-.17-1.17-.26-2.02-.26h-2.15l.52-5.07h5.53v.92h-5.11l.53-.51-.45,4.25-.53-.52h1.89c1.02,0,1.84.13,2.45.38s1.06.6,1.34,1.05c.27.45.41.97.41,1.57s-.14,1.09-.4,1.55c-.27.47-.67.83-1.21,1.1-.54.27-1.22.4-2.05.4Z"/><path class="cls-2" d="m62.26,291.8c-.78,0-1.47-.21-2.08-.61s-1.08-1-1.43-1.76c-.35-.76-.52-1.69-.52-2.76s.17-2,.52-2.77c.35-.76.82-1.35,1.43-1.76.61-.41,1.3-.61,2.08-.61s1.47.21,2.08.61c.61.41,1.08,1,1.44,1.76.35.77.53,1.69.53,2.77s-.18,2-.53,2.76c-.35.77-.83,1.35-1.44,1.76s-1.3.61-2.08.61Zm0-.95c.6,0,1.12-.16,1.56-.48.44-.32.79-.79,1.04-1.42.25-.62.38-1.38.38-2.29s-.12-1.67-.38-2.29c-.25-.62-.6-1.09-1.04-1.42-.44-.32-.96-.48-1.56-.48s-1.09.16-1.54.48c-.45.32-.8.79-1.05,1.42-.25.62-.38,1.38-.38,2.29s.12,1.67.38,2.29c.25.62.6,1.09,1.05,1.42.45.32.97.48,1.54.48Z"/><line class="cls-6" x1="77.01" y1="220.53" x2="870.01" y2="220.53"/><path class="cls-2" d="m53.59,224.88c-.9,0-1.65-.2-2.27-.6s-1.08-.98-1.4-1.73c-.32-.76-.48-1.66-.48-2.72,0-1.15.19-2.11.58-2.88.39-.78.93-1.36,1.62-1.75.69-.39,1.5-.59,2.41-.59.45,0,.89.04,1.3.13.41.09.78.23,1.1.42l-.42.84c-.26-.17-.56-.3-.9-.37s-.69-.11-1.07-.11c-1.09,0-1.96.35-2.61,1.04-.65.69-.97,1.73-.97,3.1,0,.21.01.47.04.79s.08.62.17.93l-.36-.27c.11-.5.31-.93.62-1.28s.69-.62,1.16-.8c.46-.18.97-.27,1.52-.27.67,0,1.27.12,1.78.38s.91.6,1.2,1.05c.29.45.43.99.43,1.6s-.15,1.17-.45,1.64-.71.83-1.23,1.08c-.52.25-1.11.38-1.77.38Zm-.04-.88c.48,0,.91-.09,1.28-.27.37-.18.66-.43.87-.76.21-.33.32-.72.32-1.16,0-.66-.23-1.19-.69-1.59-.46-.39-1.08-.59-1.86-.59-.52,0-.97.1-1.36.29-.39.19-.69.46-.91.79-.22.33-.33.71-.33,1.13,0,.37.1.71.3,1.05s.5.6.9.81c.4.21.89.31,1.47.31Z"/><path class="cls-2" d="m62.26,224.88c-.78,0-1.47-.21-2.08-.61s-1.08-1-1.43-1.76c-.35-.76-.52-1.69-.52-2.76s.17-2,.52-2.77c.35-.76.82-1.35,1.43-1.76.61-.41,1.3-.61,2.08-.61s1.47.21,2.08.61c.61.41,1.08,1,1.44,1.76.35.77.53,1.69.53,2.77s-.18,2-.53,2.76c-.35.77-.83,1.35-1.44,1.76s-1.3.61-2.08.61Zm0-.95c.6,0,1.12-.16,1.56-.48.44-.32.79-.79,1.04-1.42.25-.62.38-1.38.38-2.29s-.12-1.67-.38-2.29c-.25-.62-.6-1.09-1.04-1.42-.44-.32-.96-.48-1.56-.48s-1.09.16-1.54.48c-.45.32-.8.79-1.05,1.42-.25.62-.38,1.38-.38,2.29s.12,1.67.38,2.29c.25.62.6,1.09,1.05,1.42.45.32.97.48,1.54.48Z"/><line class="cls-6" x1="77.01" y1="153.61" x2="870.01" y2="153.61"/><path class="cls-2" d="m51.8,157.87l4.36-9.65.32.46h-6.25l.53-.51v2.4h-1.03v-2.82h7.42v.74l-4.23,9.37h-1.13Z"/><path class="cls-2" d="m62.26,157.96c-.78,0-1.47-.21-2.08-.61s-1.08-1-1.43-1.76c-.35-.76-.52-1.69-.52-2.76s.17-2,.52-2.77c.35-.76.82-1.35,1.43-1.76.61-.41,1.3-.61,2.08-.61s1.47.21,2.08.61c.61.41,1.08,1,1.44,1.76.35.77.53,1.69.53,2.77s-.18,2-.53,2.76c-.35.77-.83,1.35-1.44,1.76s-1.3.61-2.08.61Zm0-.95c.6,0,1.12-.16,1.56-.48.44-.32.79-.79,1.04-1.42.25-.62.38-1.38.38-2.29s-.12-1.67-.38-2.29c-.25-.62-.6-1.09-1.04-1.42-.44-.32-.96-.48-1.56-.48s-1.09.16-1.54.48c-.45.32-.8.79-1.05,1.42-.25.62-.38,1.38-.38,2.29s.12,1.67.38,2.29c.25.62.6,1.09,1.05,1.42.45.32.97.48,1.54.48Z"/><line class="cls-6" x1="77.01" y1="86.69" x2="870.01" y2="86.69"/><path class="cls-2" d="m52.86,91.04c-.81,0-1.5-.12-2.09-.35-.58-.23-1.03-.57-1.34-1-.31-.44-.47-.96-.47-1.55s.15-1.07.46-1.48.75-.72,1.33-.95c.58-.22,1.29-.33,2.12-.33s1.52.11,2.11.33c.59.22,1.04.54,1.35.95.31.41.47.9.47,1.48s-.16,1.11-.48,1.55c-.32.44-.77.77-1.36,1-.59.23-1.29.35-2.09.35Zm0-5.07c-.75,0-1.39-.1-1.91-.3-.52-.2-.93-.49-1.21-.87-.28-.38-.42-.83-.42-1.37,0-.56.15-1.04.44-1.44.29-.4.71-.71,1.23-.92.53-.21,1.15-.32,1.86-.32s1.34.11,1.87.32c.53.21.95.52,1.25.92.3.4.45.88.45,1.44s-.14.98-.42,1.37c-.28.38-.69.67-1.22.87s-1.18.3-1.93.3Zm0,4.19c.9,0,1.6-.18,2.1-.55s.76-.86.76-1.49-.25-1.12-.76-1.48c-.51-.36-1.21-.54-2.1-.54s-1.59.18-2.09.54c-.5.36-.75.85-.75,1.48s.25,1.12.75,1.49,1.2.55,2.09.55Zm0-4.88c.79,0,1.41-.16,1.85-.49.44-.33.66-.76.66-1.31,0-.58-.23-1.03-.69-1.35-.46-.32-1.07-.48-1.83-.48s-1.37.16-1.82.48c-.45.32-.68.77-.68,1.34s.22,1,.66,1.33c.44.33,1.05.49,1.84.49Z"/><path class="cls-2" d="m62.26,91.04c-.78,0-1.47-.21-2.08-.61s-1.08-1-1.43-1.76c-.35-.76-.52-1.69-.52-2.76s.17-2,.52-2.77c.35-.76.82-1.35,1.43-1.76.61-.41,1.3-.61,2.08-.61s1.47.21,2.08.61c.61.41,1.08,1,1.44,1.76.35.77.53,1.69.53,2.77s-.18,2-.53,2.76c-.35.77-.83,1.35-1.44,1.76s-1.3.61-2.08.61Zm0-.95c.6,0,1.12-.16,1.56-.48.44-.32.79-.79,1.04-1.42.25-.62.38-1.38.38-2.29s-.12-1.67-.38-2.29c-.25-.62-.6-1.09-1.04-1.42-.44-.32-.96-.48-1.56-.48s-1.09.16-1.54.48c-.45.32-.8.79-1.05,1.42-.25.62-.38,1.38-.38,2.29s.12,1.67.38,2.29c.25.62.6,1.09,1.05,1.42.45.32.97.48,1.54.48Z"/><path class="cls-2" d="m17.36,520.17c0,.76-.13,1.47-.38,2.12s-.62,1.21-1.08,1.69-1.01.85-1.63,1.11c-.62.26-1.3.4-2.04.4s-1.42-.13-2.04-.4c-.62-.27-1.17-.64-1.63-1.11s-.83-1.04-1.08-1.68c-.25-.64-.38-1.35-.38-2.12s.13-1.46.38-2.11.61-1.21,1.08-1.68c.46-.48,1.01-.85,1.63-1.11.63-.26,1.31-.4,2.05-.4s1.42.13,2.05.4c.63.26,1.17.64,1.63,1.11s.82,1.04,1.08,1.68.38,1.35.38,2.11Zm-.95,0c0-.61-.1-1.17-.31-1.68-.21-.51-.5-.96-.88-1.34s-.82-.68-1.33-.89c-.51-.21-1.06-.32-1.67-.32s-1.16.11-1.67.32c-.5.21-.95.51-1.33.89-.38.38-.67.83-.88,1.34-.21.52-.31,1.08-.31,1.68s.1,1.17.31,1.69c.21.52.5.97.88,1.35s.82.68,1.33.89c.51.22,1.06.32,1.67.32s1.15-.11,1.66-.32c.51-.22.96-.51,1.34-.89.38-.38.67-.83.88-1.35.21-.52.31-1.08.31-1.69Z"/><path class="cls-2" d="m16.98,509.64c0,.72-.16,1.37-.47,1.95s-.75,1.03-1.31,1.36c-.56.33-1.2.5-1.92.5s-1.36-.17-1.91-.5c-.55-.33-.98-.79-1.29-1.36-.31-.58-.46-1.23-.46-1.95,0-.67.14-1.28.42-1.82.28-.54.69-.97,1.24-1.28s1.22-.48,2.01-.48,1.46.16,2.01.48.97.75,1.26,1.28c.29.54.43,1.15.43,1.82Zm3.16-.19c0,.69-.1,1.36-.3,1.99s-.49,1.15-.87,1.54l-.78-.52c.32-.36.57-.8.76-1.32.19-.52.28-1.08.28-1.67,0-.96-.22-1.67-.67-2.12-.45-.45-1.14-.68-2.09-.68h-1.89l-1.3-.14-1.3.1h-2.3v-.98h6.66c1.31,0,2.27.32,2.88.96.61.64.92,1.59.92,2.84Zm-4.07.09c0-.56-.12-1.05-.35-1.49-.24-.43-.56-.78-.98-1.03s-.9-.38-1.45-.38-1.03.13-1.44.38c-.41.25-.74.59-.97,1.03-.24.43-.35.93-.35,1.49s.12,1.04.35,1.48c.24.44.56.78.97,1.03.41.25.9.37,1.44.37s1.03-.12,1.45-.37c.42-.25.75-.59.98-1.03.24-.44.35-.93.35-1.48Z"/><path class="cls-2" d="m8.51,500.65l-1.79-1.98v-1.37l1.79,2.34v1.01Zm8.84-.94c0,.73-.17,1.39-.5,1.97-.33.58-.79,1.04-1.37,1.38-.58.34-1.25.5-2,.5s-1.43-.17-2.01-.5c-.58-.34-1.03-.79-1.36-1.37-.33-.58-.49-1.24-.49-1.98s.16-1.42.49-2,.78-1.04,1.36-1.37,1.25-.5,2.01-.5,1.42.17,2,.5c.58.33,1.04.79,1.37,1.38.33.59.5,1.25.5,1.99Zm-.91,0c0-.55-.12-1.03-.37-1.46-.25-.42-.59-.76-1.04-1-.45-.25-.96-.37-1.55-.37s-1.12.12-1.56.37c-.44.25-.79.58-1.03,1s-.37.9-.37,1.44.12,1.02.37,1.44c.25.42.59.76,1.03,1.01.44.25.96.38,1.56.38s1.1-.12,1.55-.38c.45-.25.79-.59,1.04-1.01.25-.42.37-.9.37-1.43Z"/><path class="cls-2" d="m17.27,493.74H6.56v-1.03h10.71v1.03Z"/><path class="cls-2" d="m9.62,485.99c0-.62.12-1.16.35-1.62.24-.47.59-.83,1.08-1.1s1.09-.4,1.82-.4h4.4v1.03h-4.3c-.8,0-1.4.2-1.81.6-.41.4-.61.96-.61,1.68,0,.54.11,1.01.32,1.41.22.4.53.71.94.92.41.22.9.33,1.48.33h3.99v1.02h-7.58v-.98h2.08l-.39.16c-.55-.24-.98-.63-1.29-1.16s-.47-1.16-.47-1.89Z"/><path class="cls-2" d="m17.27,475.35h-1.67l-.27.04h-2.8c-.64,0-1.14.18-1.49.54-.35.36-.52.9-.52,1.61,0,.49.08.96.25,1.4.16.44.38.82.65,1.13l-.77.46c-.33-.39-.58-.85-.76-1.39s-.27-1.11-.27-1.7c0-.98.24-1.74.73-2.27.49-.53,1.23-.8,2.22-.8h4.71v.98Zm.07,2.61c0,.57-.09,1.06-.28,1.48-.19.42-.45.74-.78.96-.33.22-.71.33-1.15.33-.39,0-.75-.09-1.08-.28s-.58-.5-.78-.92c-.2-.43-.3-1-.3-1.73v-2.61h.76v2.58c0,.73.13,1.24.39,1.52.26.28.58.43.97.43.43,0,.78-.17,1.04-.5s.39-.81.39-1.42-.13-1.08-.4-1.49c-.26-.42-.65-.72-1.15-.92l.71-.23c.5.19.9.53,1.2,1,.3.48.45,1.08.45,1.8Z"/><path class="cls-2" d="m17.34,464.71c0,.73-.17,1.39-.5,1.97s-.79,1.04-1.37,1.38c-.58.34-1.25.51-2,.51s-1.43-.17-2.01-.51-1.03-.79-1.36-1.37-.49-1.24-.49-1.98.16-1.42.49-2c.33-.58.78-1.04,1.36-1.37s1.25-.5,2.01-.5,1.42.17,2,.5c.58.33,1.04.79,1.37,1.38s.5,1.25.5,1.99Zm-.91,0c0-.55-.12-1.04-.37-1.46-.25-.42-.59-.76-1.04-1-.45-.25-.96-.37-1.55-.37s-1.12.12-1.56.37c-.44.25-.79.58-1.03,1s-.37.9-.37,1.44.12,1.02.37,1.45c.25.42.59.76,1.03,1.01.44.25.96.38,1.56.38s1.1-.12,1.55-.38c.45-.25.79-.59,1.04-1.01.25-.42.37-.9.37-1.43Z"/><path class="cls-2" d="m17.34,455.6c0,.75-.17,1.42-.5,2.01s-.79,1.06-1.37,1.39c-.58.34-1.25.5-2,.5s-1.43-.17-2.01-.5c-.58-.34-1.03-.8-1.36-1.39s-.49-1.26-.49-2.01c0-.64.13-1.23.38-1.75.25-.52.63-.93,1.13-1.23l.52.77c-.38.26-.67.58-.85.97s-.27.8-.27,1.26c0,.54.12,1.03.37,1.46s.59.78,1.03,1.03c.44.25.96.38,1.56.38s1.12-.12,1.56-.38c.44-.25.79-.59,1.03-1.03.25-.43.37-.92.37-1.46,0-.45-.09-.87-.27-1.26-.18-.38-.46-.71-.84-.97l.52-.77c.49.3.86.71,1.12,1.23.25.52.38,1.1.38,1.75Z"/><path class="cls-2" d="m17.34,447.52c0,.79-.17,1.48-.5,2.08s-.79,1.06-1.37,1.4c-.58.34-1.25.5-2,.5s-1.42-.16-1.99-.48c-.58-.32-1.03-.77-1.37-1.33-.33-.56-.5-1.2-.5-1.9s.16-1.34.48-1.9c.32-.55.77-.99,1.36-1.31.58-.32,1.25-.48,2.01-.48.05,0,.1,0,.15,0,.05,0,.11,0,.17,0v6.6h-.77v-6.05l.3.4c-.55,0-1.04.12-1.46.35-.43.24-.76.55-1,.96s-.36.87-.36,1.4.12.99.36,1.4c.24.41.58.74,1.01.97.43.23.93.35,1.49.35h.16c.58,0,1.08-.13,1.52-.38.44-.25.78-.61,1.02-1.07.25-.46.37-.98.37-1.57,0-.46-.08-.89-.25-1.29-.16-.4-.41-.74-.75-1.03l.66-.58c.4.34.71.76.92,1.26s.32,1.06.32,1.67Z"/><path class="cls-2" d="m9.62,438.15c0-.62.12-1.16.35-1.62.24-.47.59-.83,1.08-1.1s1.09-.4,1.82-.4h4.4v1.03h-4.3c-.8,0-1.4.2-1.81.6-.41.4-.61.96-.61,1.68,0,.54.11,1.01.32,1.41.22.4.53.71.94.92.41.22.9.33,1.48.33h3.99v1.02h-7.58v-.98h2.08l-.39.16c-.55-.24-.98-.63-1.29-1.16s-.47-1.16-.47-1.89Z"/><path class="cls-2" d="m17.27,427.51h-1.67l-.27.04h-2.8c-.64,0-1.14.18-1.49.54-.35.36-.52.9-.52,1.61,0,.49.08.96.25,1.4.16.44.38.82.65,1.13l-.77.46c-.33-.39-.58-.85-.76-1.39s-.27-1.11-.27-1.71c0-.98.24-1.74.73-2.27.49-.54,1.23-.8,2.22-.8h4.71v.98Zm.07,2.61c0,.57-.09,1.06-.28,1.48-.19.42-.45.74-.78.96-.33.22-.71.33-1.15.33-.39,0-.75-.09-1.08-.28-.32-.19-.58-.5-.78-.92s-.3-1-.3-1.73v-2.61h.76v2.58c0,.73.13,1.24.39,1.52.26.29.58.43.97.43.43,0,.78-.17,1.04-.5s.39-.81.39-1.42-.13-1.08-.4-1.49c-.26-.42-.65-.72-1.15-.92l.71-.23c.5.19.9.53,1.2,1,.3.48.45,1.08.45,1.8Z"/><path class="cls-2" d="m17.27,419.96H6.56v-1.03h5.37l1.53.14,1.53-.1h2.28v.98Zm.07-3.91c0,.67-.15,1.26-.46,1.79-.3.53-.74.95-1.32,1.26-.58.31-1.28.46-2.09.46s-1.53-.16-2.1-.47c-.57-.31-1.01-.73-1.31-1.26-.3-.53-.45-1.12-.45-1.78,0-.72.16-1.37.48-1.94s.77-1.02,1.35-1.35c.58-.33,1.25-.49,2.02-.49s1.43.16,2.01.49c.58.33,1.04.78,1.36,1.35s.49,1.22.49,1.94Zm-.91.07c0-.54-.12-1.02-.37-1.44-.25-.42-.59-.76-1.04-1.01-.45-.25-.96-.38-1.55-.38s-1.12.12-1.56.38c-.44.25-.79.59-1.03,1.01s-.37.9-.37,1.44.12,1.02.37,1.45c.25.43.59.77,1.03,1.01.44.25.96.37,1.56.37s1.1-.12,1.55-.37c.45-.25.79-.58,1.04-1.01.25-.43.37-.91.37-1.45Z"/><path class="cls-2" d="m8.51,408.02l-1.79-1.98v-1.37l1.79,2.34v1.01Zm8.84-.94c0,.73-.17,1.39-.5,1.97-.33.58-.79,1.04-1.37,1.38-.58.34-1.25.5-2,.5s-1.43-.17-2.01-.5-1.03-.79-1.36-1.37-.49-1.24-.49-1.98.16-1.42.49-2c.33-.58.78-1.04,1.36-1.37s1.25-.5,2.01-.5,1.42.17,2,.5c.58.33,1.04.79,1.37,1.38.33.59.5,1.25.5,1.99Zm-.91,0c0-.55-.12-1.03-.37-1.46-.25-.42-.59-.76-1.04-1-.45-.25-.96-.37-1.55-.37s-1.12.12-1.56.37c-.44.25-.79.58-1.03,1-.25.42-.37.91-.37,1.44s.12,1.02.37,1.44.59.76,1.03,1.01c.44.25.96.38,1.56.38s1.1-.12,1.55-.38c.45-.25.79-.59,1.04-1.01.25-.42.37-.9.37-1.43Z"/><path class="cls-2" d="m17.27,401.11H6.56v-1.03h10.71v1.03Z"/><path class="cls-2" d="m17.34,394.1c0,.64-.12,1.21-.36,1.69-.24.48-.6.85-1.08,1.12-.48.26-1.08.4-1.8.4h-4.4v-1.02h4.29c.81,0,1.42-.2,1.83-.6s.61-.96.61-1.68c0-.53-.11-.99-.33-1.38-.22-.39-.53-.69-.95-.89-.41-.21-.91-.31-1.49-.31h-3.97v-1.03h7.58v.98h-2.08l.38-.16c.56.24.99.61,1.31,1.12.31.5.47,1.09.47,1.77Z"/><path class="cls-2" d="m17.27,382.2l-7.58,2.86v-.98l7.03-2.6v.45l-7.03-2.67v-.88l7.03-2.64v.45l-7.03-2.64v-.94l7.58,2.87v.97l-6.61,2.54v-.3l6.61,2.56v.97Z"/><path class="cls-2" d="m17.34,365.23c0,.63-.09,1.22-.27,1.78-.18.56-.4,1-.67,1.31l-.81-.46c.23-.31.43-.7.6-1.18.17-.48.25-.99.25-1.52,0-.72-.11-1.24-.34-1.56-.23-.32-.53-.48-.9-.48-.28,0-.5.09-.66.27-.16.18-.28.41-.36.7-.08.29-.15.61-.21.97-.06.36-.12.71-.2,1.06s-.19.67-.34.96c-.15.29-.35.52-.61.7-.26.18-.61.27-1.04.27s-.78-.12-1.11-.35c-.33-.23-.58-.57-.77-1.02-.19-.45-.28-.99-.28-1.64,0-.49.07-.98.2-1.47.13-.49.3-.89.51-1.21l.82.45c-.23.34-.4.7-.5,1.08-.1.38-.15.77-.15,1.15,0,.68.12,1.19.35,1.51.24.32.54.48.9.48.29,0,.51-.09.68-.27.16-.18.29-.41.38-.71.09-.29.17-.62.22-.97s.13-.7.21-1.05.19-.67.33-.97c.14-.29.34-.53.59-.71.26-.18.59-.27,1-.27.44,0,.83.12,1.15.37.32.24.57.6.75,1.07.18.47.27,1.03.27,1.7Z"/><path class="cls-2" d="m17.27,360.22H6.56v-1.03h10.71v1.03Zm-1.96-.81l-1.31-.03-4.3-4.72v-1.26l3.19,3.33.49.58,1.93,2.09Zm1.96-5.07l-3.94,3.16-.79-.66,4.74-3.75v1.26Z"/><path class="cls-2" d="m17.27,346.94h-1.67l-.27.04h-2.8c-.64,0-1.14.18-1.49.54-.35.36-.52.9-.52,1.61,0,.49.08.96.25,1.4.16.44.38.82.65,1.13l-.77.46c-.33-.39-.58-.85-.76-1.39s-.27-1.11-.27-1.71c0-.98.24-1.74.73-2.27.49-.54,1.23-.8,2.22-.8h4.71v.98Zm.07,2.61c0,.57-.09,1.06-.28,1.48-.19.42-.45.74-.78.96-.33.22-.71.33-1.15.33-.39,0-.75-.09-1.08-.28-.32-.19-.58-.5-.78-.92s-.3-1-.3-1.73v-2.61h.76v2.58c0,.73.13,1.24.39,1.52.26.29.58.43.97.43.43,0,.78-.17,1.04-.5s.39-.81.39-1.42-.13-1.08-.4-1.49c-.26-.42-.65-.72-1.15-.92l.71-.23c.5.19.9.53,1.2,1,.3.48.45,1.08.45,1.8Z"/><path class="cls-2" d="m17.27,343.17H6.56v-1.02h10.71v1.02Z"/><path class="cls-2" d="m8.02,338.76c0,.21-.07.39-.22.53s-.32.22-.52.22-.37-.07-.51-.22-.21-.32-.21-.53.07-.39.2-.53c.13-.14.3-.22.5-.22s.39.07.53.21.22.32.22.54Zm9.26.52h-7.58v-1.02h7.58v1.02Z"/><path class="cls-2" d="m17.27,328.53l-10.11,4.48v-1.16l9.52-4.19v.64l-9.52-4.22v-1.08l10.11,4.48v1.05Z"/><path class="cls-2" d="m17.27,323.46l-10.11-4.62v-1.05l10.11-4.62v1.13l-9.49,4.25v-.43l9.49,4.25v1.11Zm-2.7-1.82l-.87-.32v-5.88l.87-.32v6.51Z"/><path class="cls-2" d="m17.36,308.7c0,.75-.12,1.47-.37,2.16-.25.69-.56,1.22-.95,1.6l-.82-.42c.35-.36.64-.84.87-1.44s.35-1.23.35-1.9-.08-1.15-.24-1.55c-.16-.4-.37-.69-.64-.88-.27-.19-.57-.28-.9-.28-.39,0-.71.11-.95.34-.24.23-.43.52-.57.89-.14.37-.26.77-.37,1.21-.11.44-.22.89-.34,1.33s-.28.85-.48,1.22-.47.67-.8.9c-.33.23-.77.34-1.31.34-.5,0-.96-.13-1.38-.4-.42-.26-.76-.67-1.01-1.22-.25-.55-.38-1.25-.38-2.11,0-.57.08-1.13.24-1.69s.38-1.04.66-1.44l.85.36c-.29.43-.5.89-.64,1.38-.13.49-.2.96-.2,1.41,0,.61.08,1.11.25,1.5s.38.69.66.87c.27.19.58.28.93.28.4,0,.71-.11.95-.34.24-.23.43-.52.56-.9s.25-.78.36-1.22c.11-.44.22-.88.35-1.32.13-.44.29-.84.48-1.21.2-.37.46-.67.79-.9s.76-.34,1.29-.34c.49,0,.95.13,1.36.4s.76.68,1.01,1.23c.25.55.38,1.26.38,2.13Z"/><path class="cls-2" d="m190.65,34.16c-1.86,0-3.57-.31-5.13-.92s-2.92-1.47-4.08-2.57c-1.16-1.1-2.05-2.39-2.69-3.88-.64-1.48-.95-3.11-.95-4.88s.32-3.39.95-4.88c.63-1.48,1.53-2.78,2.69-3.88,1.16-1.1,2.52-1.96,4.08-2.57,1.56-.61,3.26-.92,5.1-.92s3.56.31,5.12.92c1.55.61,2.91,1.47,4.06,2.57,1.16,1.1,2.05,2.39,2.69,3.88.63,1.49.95,3.11.95,4.88s-.32,3.4-.95,4.9c-.64,1.5-1.53,2.79-2.69,3.88-1.16,1.09-2.51,1.94-4.06,2.55-1.55.61-3.25.92-5.08.92Zm-.03-3.88c1.2,0,2.31-.2,3.33-.61,1.02-.41,1.9-.99,2.65-1.75.75-.76,1.33-1.64,1.75-2.65s.63-2.12.63-3.35-.21-2.34-.63-3.35c-.42-1.01-1-1.89-1.75-2.65-.75-.76-1.63-1.34-2.65-1.75-1.02-.41-2.13-.61-3.33-.61s-2.31.2-3.31.61c-1.01.41-1.89.99-2.65,1.75s-1.35,1.64-1.77,2.65c-.42,1.01-.63,2.12-.63,3.35s.21,2.31.63,3.33c.42,1.02,1,1.91,1.75,2.67.75.76,1.63,1.34,2.65,1.75,1.02.41,2.13.61,3.33.61Z"/><path class="cls-2" d="m215.41,33.01c-1.72,0-3.28-.37-4.68-1.1s-2.49-1.76-3.3-3.08c-.8-1.31-1.21-2.86-1.21-4.62s.4-3.28,1.21-4.59c.8-1.31,1.9-2.33,3.3-3.06,1.39-.72,2.95-1.09,4.68-1.09,1.54,0,2.92.31,4.15.92,1.22.61,2.2,1.56,2.94,2.86.74,1.29,1.1,2.95,1.1,4.96s-.37,3.68-1.1,4.98c-.74,1.3-1.72,2.27-2.94,2.89-1.22.62-2.61.93-4.15.93Zm.54,7.65c-1.68,0-3.31-.22-4.91-.66s-2.91-1.08-3.93-1.92l1.9-3.2c.79.66,1.8,1.18,3.01,1.58,1.21.4,2.44.6,3.69.6,1.99,0,3.46-.46,4.39-1.38.93-.92,1.39-2.29,1.39-4.13v-3.23l.34-4.11-.14-4.11v-4.42h4.05v15.4c0,3.29-.84,5.71-2.52,7.26-1.68,1.55-4.1,2.33-7.28,2.33Zm.1-11.25c1.06,0,2.02-.22,2.86-.66.84-.44,1.49-1.05,1.96-1.84.46-.78.7-1.68.7-2.7s-.23-1.92-.7-2.7c-.46-.78-1.12-1.38-1.96-1.8-.84-.42-1.79-.63-2.86-.63s-2.02.21-2.87.63c-.85.42-1.51,1.02-1.97,1.8-.46.78-.7,1.68-.7,2.7s.23,1.92.7,2.7c.46.78,1.12,1.39,1.97,1.84s1.81.66,2.87.66Z"/><path class="cls-2" d="m239.48,34.06c-1.86,0-3.51-.4-4.96-1.21-1.45-.8-2.6-1.91-3.43-3.32-.84-1.41-1.26-3-1.26-4.79s.42-3.42,1.26-4.81c.84-1.39,1.98-2.49,3.43-3.28,1.45-.79,3.11-1.19,4.96-1.19s3.55.4,5.01,1.19c1.46.79,2.61,1.88,3.43,3.26.83,1.38,1.24,2.99,1.24,4.83s-.41,3.39-1.24,4.79c-.83,1.41-1.97,2.51-3.43,3.32s-3.13,1.21-5.01,1.21Zm0-3.64c1.04,0,1.97-.23,2.79-.68.82-.45,1.46-1.11,1.92-1.97.46-.86.7-1.87.7-3.03s-.23-2.19-.7-3.04c-.46-.85-1.11-1.5-1.92-1.96-.82-.45-1.73-.68-2.75-.68s-1.97.23-2.77.68c-.8.45-1.44,1.11-1.92,1.96s-.71,1.87-.71,3.04.24,2.17.71,3.03,1.12,1.52,1.92,1.97c.8.45,1.72.68,2.74.68Zm-2.89-17.24l4.59-4.66h5l-5.92,4.66h-3.67Z"/><path class="cls-2" d="m253.25,33.82V8.6h4.25v25.23h-4.25Z"/><path class="cls-2" d="m273.37,15.46c1.45,0,2.75.28,3.89.85s2.05,1.43,2.7,2.6c.66,1.17.99,2.67.99,4.5v10.4h-4.25v-9.86c0-1.61-.38-2.81-1.14-3.6-.76-.79-1.82-1.19-3.18-1.19-1,0-1.88.2-2.65.61-.77.41-1.37,1.01-1.79,1.82-.42.8-.63,1.82-.63,3.04v9.18h-4.25V15.67h4.05v4.9l-.71-1.5c.63-1.16,1.56-2.05,2.77-2.67,1.21-.62,2.61-.94,4.2-.94Z"/><path class="cls-2" d="m291.84,34.06c-1.36,0-2.55-.23-3.57-.7s-1.81-1.11-2.36-1.94c-.56-.83-.83-1.76-.83-2.8s.24-1.94.73-2.75c.49-.82,1.29-1.46,2.4-1.94,1.11-.48,2.58-.71,4.42-.71h5.27v2.82h-4.96c-1.45,0-2.43.23-2.92.7s-.75,1.04-.75,1.72c0,.77.31,1.38.92,1.84.61.45,1.46.68,2.55.68s1.98-.24,2.81-.71c.83-.48,1.42-1.18,1.78-2.11l.71,2.55c-.41,1.07-1.14,1.89-2.19,2.48-1.05.59-2.39.88-3.99.88Zm5.71-.24v-3.67l-.24-.78v-6.43c0-1.25-.37-2.22-1.12-2.91-.75-.69-1.88-1.04-3.4-1.04-1.02,0-2.02.16-3.01.48s-1.82.76-2.5,1.33l-1.67-3.09c.97-.75,2.14-1.31,3.48-1.68s2.75-.56,4.2-.56c2.63,0,4.66.63,6.1,1.89,1.44,1.26,2.16,3.2,2.16,5.83v10.64h-4.01Z"/><path class="cls-2" d="m324.54,34.06c-1.86,0-3.51-.4-4.96-1.21-1.45-.8-2.6-1.91-3.43-3.32-.84-1.41-1.26-3-1.26-4.79s.42-3.42,1.26-4.81c.84-1.39,1.98-2.49,3.43-3.28,1.45-.79,3.11-1.19,4.96-1.19s3.55.4,5.01,1.19c1.46.79,2.61,1.88,3.43,3.26.83,1.38,1.24,2.99,1.24,4.83s-.41,3.39-1.24,4.79c-.83,1.41-1.97,2.51-3.43,3.32s-3.13,1.21-5.01,1.21Zm0-3.64c1.04,0,1.97-.23,2.79-.68.82-.45,1.46-1.11,1.92-1.97.46-.86.7-1.87.7-3.03s-.23-2.19-.7-3.04c-.46-.85-1.11-1.5-1.92-1.96-.82-.45-1.73-.68-2.75-.68s-1.97.23-2.77.68c-.8.45-1.44,1.11-1.92,1.96s-.71,1.87-.71,3.04.24,2.17.71,3.03,1.12,1.52,1.92,1.97c.8.45,1.72.68,2.74.68Z"/><path class="cls-2" d="m346.64,34.06c-1.9,0-3.6-.4-5.08-1.21-1.48-.8-2.65-1.91-3.49-3.32-.84-1.41-1.26-3-1.26-4.79s.42-3.42,1.26-4.81c.84-1.39,2-2.49,3.49-3.28,1.48-.79,3.18-1.19,5.08-1.19,1.77,0,3.33.36,4.67,1.07,1.35.71,2.37,1.76,3.08,3.15l-3.26,1.9c-.54-.86-1.21-1.5-1.99-1.9-.78-.41-1.63-.61-2.53-.61-1.04,0-1.98.23-2.82.68-.84.45-1.5,1.11-1.97,1.96s-.71,1.87-.71,3.04.24,2.19.71,3.04c.48.85,1.13,1.5,1.97,1.96.84.45,1.78.68,2.82.68.91,0,1.75-.2,2.53-.61.78-.41,1.44-1.04,1.99-1.9l3.26,1.9c-.7,1.36-1.73,2.41-3.08,3.14-1.35.74-2.91,1.11-4.67,1.11Z"/><path class="cls-2" d="m366.33,34.06c-2.02,0-3.78-.4-5.29-1.21-1.51-.8-2.67-1.91-3.5-3.32-.83-1.41-1.24-3-1.24-4.79s.4-3.42,1.21-4.81c.8-1.39,1.92-2.49,3.33-3.28,1.42-.79,3.03-1.19,4.84-1.19s3.34.39,4.73,1.16c1.38.77,2.47,1.86,3.26,3.26.79,1.41,1.19,3.06,1.19,4.96,0,.18,0,.39-.02.61-.01.23-.03.44-.05.65h-15.13v-2.82h12.89l-1.67.88c.02-1.04-.19-1.96-.65-2.75-.45-.79-1.07-1.42-1.85-1.87-.78-.45-1.68-.68-2.7-.68s-1.95.23-2.74.68c-.78.45-1.39,1.08-1.84,1.89s-.66,1.75-.66,2.84v.68c0,1.09.25,2.05.75,2.89.5.84,1.2,1.49,2.11,1.94.91.45,1.95.68,3.13.68,1.02,0,1.94-.16,2.75-.48.82-.32,1.54-.82,2.18-1.5l2.28,2.62c-.82.95-1.84,1.68-3.08,2.19-1.24.51-2.65.77-4.23.77Z"/><path class="cls-2" d="m389.24,15.46c1.45,0,2.75.28,3.89.85s2.05,1.43,2.7,2.6c.66,1.17.99,2.67.99,4.5v10.4h-4.25v-9.86c0-1.61-.38-2.81-1.14-3.6-.76-.79-1.82-1.19-3.18-1.19-1,0-1.88.2-2.65.61-.77.41-1.37,1.01-1.79,1.82-.42.8-.63,1.82-.63,3.04v9.18h-4.25V15.67h4.05v4.9l-.71-1.5c.63-1.16,1.56-2.05,2.77-2.67,1.21-.62,2.61-.94,4.2-.94Z"/><path class="cls-2" d="m407.71,34.06c-1.36,0-2.55-.23-3.57-.7s-1.81-1.11-2.36-1.94c-.56-.83-.83-1.76-.83-2.8s.24-1.94.73-2.75c.49-.82,1.29-1.46,2.4-1.94,1.11-.48,2.58-.71,4.42-.71h5.27v2.82h-4.96c-1.45,0-2.43.23-2.92.7s-.75,1.04-.75,1.72c0,.77.31,1.38.92,1.84.61.45,1.46.68,2.55.68s1.98-.24,2.81-.71c.83-.48,1.42-1.18,1.78-2.11l.71,2.55c-.41,1.07-1.14,1.89-2.19,2.48-1.05.59-2.39.88-3.99.88Zm5.71-.24v-3.67l-.24-.78v-6.43c0-1.25-.37-2.22-1.12-2.91-.75-.69-1.88-1.04-3.4-1.04-1.02,0-2.02.16-3.01.48s-1.82.76-2.5,1.33l-1.67-3.09c.97-.75,2.14-1.31,3.48-1.68s2.75-.56,4.2-.56c2.63,0,4.66.63,6.1,1.89,1.44,1.26,2.16,3.2,2.16,5.83v10.64h-4.01Z"/><path class="cls-2" d="m432.25,33.82V8.6h4.25v11.29l-.34,4.83.14,4.83v4.28h-4.05Zm10.06.24c-1.54,0-2.91-.34-4.11-1.02-1.2-.68-2.15-1.71-2.84-3.08-.69-1.37-1.04-3.11-1.04-5.22s.36-3.88,1.07-5.24c.71-1.36,1.68-2.37,2.89-3.04,1.21-.67,2.56-1,4.03-1,1.79,0,3.37.39,4.74,1.16,1.37.77,2.46,1.85,3.26,3.23s1.21,3.01,1.21,4.9-.4,3.51-1.21,4.9-1.89,2.46-3.26,3.25c-1.37.78-2.95,1.17-4.74,1.17Zm-.48-3.64c1.02,0,1.93-.23,2.74-.68.8-.45,1.45-1.11,1.92-1.97.48-.86.71-1.87.71-3.03s-.24-2.19-.71-3.04c-.48-.85-1.12-1.5-1.92-1.96-.8-.45-1.72-.68-2.74-.68s-1.94.23-2.75.68c-.82.45-1.46,1.11-1.94,1.96s-.71,1.87-.71,3.04.24,2.17.71,3.03,1.12,1.52,1.94,1.97c.82.45,1.73.68,2.75.68Z"/><path class="cls-2" d="m463.74,34.06c-1.86,0-3.51-.4-4.96-1.21-1.45-.8-2.6-1.91-3.43-3.32-.84-1.41-1.26-3-1.26-4.79s.42-3.42,1.26-4.81c.84-1.39,1.98-2.49,3.43-3.28,1.45-.79,3.11-1.19,4.96-1.19s3.55.4,5.01,1.19c1.46.79,2.61,1.88,3.43,3.26.83,1.38,1.24,2.99,1.24,4.83s-.41,3.39-1.24,4.79c-.83,1.41-1.97,2.51-3.43,3.32s-3.13,1.21-5.01,1.21Zm0-3.64c1.04,0,1.97-.23,2.79-.68.82-.45,1.46-1.11,1.92-1.97.46-.86.7-1.87.7-3.03s-.23-2.19-.7-3.04c-.46-.85-1.11-1.5-1.92-1.96-.82-.45-1.73-.68-2.75-.68s-1.97.23-2.77.68c-.8.45-1.44,1.11-1.92,1.96-.48.85-.71,1.87-.71,3.04s.24,2.17.71,3.03c.48.86,1.12,1.52,1.92,1.97.8.45,1.72.68,2.74.68Zm-2.89-17.24l4.59-4.66h5l-5.92,4.66h-3.67Z"/><path class="cls-2" d="m477.51,33.82V8.6h4.25v25.23h-4.25Z"/><path class="cls-2" d="m495.02,34.06c-1.54,0-2.9-.29-4.08-.87s-2.1-1.46-2.75-2.65c-.66-1.19-.99-2.69-.99-4.5v-10.37h4.25v9.79c0,1.63.37,2.85,1.11,3.66.74.8,1.79,1.21,3.14,1.21,1,0,1.86-.2,2.6-.61.74-.41,1.31-1.02,1.73-1.84.42-.82.63-1.82.63-3.03v-9.18h4.25v18.16h-4.05v-4.9l.71,1.5c-.61,1.18-1.51,2.08-2.69,2.7-1.18.62-2.47.94-3.88.94Z"/><path class="cls-2" d="m523.88,33.82l-6.66-18.16h4.01l5.71,16.01h-1.9l5.98-16.01h3.57l5.81,16.01h-1.87l5.88-16.01h3.77l-6.7,18.16h-4.08l-5.3-14.18h1.26l-5.41,14.18h-4.08Z"/><path class="cls-2" d="m566.11,34.06c-1.52,0-2.98-.2-4.37-.6-1.39-.4-2.5-.88-3.32-1.44l1.63-3.23c.82.52,1.79.95,2.92,1.29,1.13.34,2.27.51,3.4.51,1.34,0,2.31-.18,2.91-.54.6-.36.9-.85.9-1.46,0-.5-.2-.88-.61-1.14s-.94-.46-1.6-.59c-.66-.14-1.39-.26-2.19-.37s-1.61-.27-2.41-.46-1.54-.48-2.19-.85-1.19-.88-1.6-1.51-.61-1.47-.61-2.52c0-1.16.33-2.16.99-3.01.66-.85,1.58-1.51,2.77-1.97,1.19-.46,2.6-.7,4.23-.7,1.22,0,2.46.14,3.71.41,1.25.27,2.28.66,3.09,1.16l-1.63,3.23c-.86-.52-1.73-.88-2.6-1.07-.87-.19-1.74-.29-2.6-.29-1.29,0-2.25.19-2.87.58-.62.39-.93.87-.93,1.46,0,.54.2.95.61,1.22.41.27.94.49,1.6.65s1.39.29,2.19.39c.8.1,1.6.25,2.4.46.79.2,1.52.48,2.19.83.67.35,1.21.84,1.62,1.48.41.63.61,1.46.61,2.48,0,1.13-.33,2.12-1,2.96-.67.84-1.62,1.49-2.84,1.96s-2.69.7-4.39.7Z"/><path class="cls-2" d="m578.01,33.82V8.6h4.25v25.23h-4.25Zm3.47-4.05l.1-5.34,9.49-8.77h5.1l-8.06,8.09-2.24,1.87-4.39,4.15Zm10.23,4.05l-6.63-8.19,2.69-3.4,9.11,11.59h-5.17Z"/><path class="cls-2" d="m604.77,34.06c-1.36,0-2.55-.23-3.57-.7-1.02-.46-1.81-1.11-2.36-1.94-.56-.83-.83-1.76-.83-2.8s.24-1.94.73-2.75c.49-.82,1.29-1.46,2.4-1.94,1.11-.48,2.58-.71,4.42-.71h5.27v2.82h-4.96c-1.45,0-2.43.23-2.92.7-.5.46-.75,1.04-.75,1.72,0,.77.31,1.38.92,1.84.61.45,1.46.68,2.55.68s1.98-.24,2.8-.71c.83-.48,1.42-1.18,1.79-2.11l.71,2.55c-.41,1.07-1.14,1.89-2.19,2.48-1.05.59-2.39.88-3.99.88Zm5.71-.24v-3.67l-.24-.78v-6.43c0-1.25-.37-2.22-1.12-2.91s-1.88-1.04-3.4-1.04c-1.02,0-2.02.16-3.01.48-.99.32-1.82.76-2.5,1.33l-1.67-3.09c.97-.75,2.14-1.31,3.49-1.68s2.75-.56,4.2-.56c2.63,0,4.66.63,6.1,1.89,1.44,1.26,2.16,3.2,2.16,5.83v10.64h-4.01Z"/><path class="cls-2" d="m619.93,33.82V8.6h4.25v25.23h-4.25Z"/><path class="cls-2" d="m631.9,12.67c-.79,0-1.44-.25-1.96-.75-.51-.5-.76-1.1-.76-1.8s.25-1.33.76-1.82c.51-.49,1.16-.73,1.96-.73s1.45.23,1.96.7.77,1.05.77,1.75c0,.75-.25,1.38-.75,1.89-.5.51-1.16.76-1.97.76Zm-2.14,21.15V15.67h4.25v18.16h-4.25Z"/><path class="cls-2" d="m656.41,33.82l-10.4-23.8h4.79l9.28,21.52h-2.75l9.38-21.52h4.42l-10.37,23.8h-4.35Z"/><path class="cls-2" d="m669.54,33.82l10.71-23.8h4.35l10.74,23.8h-4.62l-9.21-21.45h1.77l-9.18,21.45h-4.56Zm4.93-5.51l1.19-3.47h12.85l1.19,3.47h-15.23Z"/><path class="cls-2" d="m705.75,34.16c-1.86,0-3.64-.27-5.34-.8-1.7-.53-3.05-1.22-4.05-2.06l1.53-3.43c.95.75,2.13,1.37,3.54,1.87,1.41.5,2.84.75,4.32.75,1.25,0,2.25-.14,3.03-.41.77-.27,1.34-.64,1.7-1.1s.54-.99.54-1.58c0-.73-.26-1.31-.78-1.75-.52-.44-1.2-.79-2.02-1.05-.83-.26-1.75-.5-2.75-.73-1.01-.23-2.02-.49-3.03-.8-1.01-.31-1.93-.7-2.75-1.19-.83-.49-1.5-1.14-2.02-1.96-.52-.82-.78-1.86-.78-3.13s.34-2.48,1.04-3.55c.69-1.08,1.75-1.94,3.16-2.58,1.42-.65,3.21-.97,5.39-.97,1.43,0,2.84.18,4.25.54,1.41.36,2.63.88,3.67,1.56l-1.39,3.43c-1.07-.63-2.17-1.11-3.3-1.41-1.13-.31-2.22-.46-3.26-.46-1.22,0-2.22.15-2.97.44-.76.29-1.32.68-1.67,1.16-.35.48-.53,1.02-.53,1.63,0,.73.25,1.31.76,1.75.51.44,1.18.79,2.01,1.04.83.25,1.75.49,2.77.73,1.02.24,2.03.5,3.04.8,1.01.29,1.93.68,2.75,1.16.83.48,1.5,1.12,2.01,1.94.51.82.77,1.85.77,3.09s-.35,2.44-1.04,3.52c-.69,1.08-1.75,1.94-3.18,2.58-1.43.65-3.23.97-5.41.97Z"/><path class="cls-2" d="m434.9,667.4v-.85h4.69v.85h-4.69Zm3.58,6.8c-.71,0-1.26-.19-1.65-.58-.38-.38-.58-.93-.58-1.63v-7.12h1.02v7.06c0,.44.11.78.34,1.02.23.24.55.36.97.36.45,0,.83-.13,1.13-.39l.36.74c-.2.18-.45.32-.73.4-.28.09-.58.13-.87.13Z"/><path class="cls-2" d="m441.86,677c-.36,0-.7-.06-1.02-.17-.32-.12-.6-.29-.83-.52l.48-.77c.19.18.4.33.63.43.23.1.48.15.76.15.34,0,.63-.09.87-.28.25-.19.48-.52.7-.99l.49-1.11.12-.16,3.12-7.03h1.01l-3.8,8.49c-.21.49-.45.88-.7,1.17-.26.29-.53.49-.83.61-.3.12-.63.18-1,.18Zm2.02-2.66l-3.49-7.8h1.07l3.09,6.96-.66.84Z"/><path class="cls-2" d="m452.46,673.84c-.72,0-1.37-.16-1.95-.47-.58-.31-1.03-.75-1.36-1.31-.33-.56-.5-1.2-.5-1.92s.17-1.36.5-1.91c.33-.55.79-.98,1.36-1.29.58-.31,1.23-.46,1.95-.46.67,0,1.28.14,1.82.42s.97.69,1.29,1.24.48,1.22.48,2.01-.16,1.46-.48,2.01-.75.97-1.29,1.26c-.54.29-1.15.43-1.82.43Zm.19,3.16c-.69,0-1.36-.1-1.99-.3-.64-.2-1.15-.49-1.54-.87l.52-.78c.36.32.8.57,1.32.76.52.19,1.08.28,1.67.28.96,0,1.67-.22,2.12-.67.45-.45.68-1.14.68-2.09v-1.89l.14-1.3-.1-1.3v-2.3h.98v6.66c0,1.31-.32,2.27-.96,2.88-.64.61-1.59.92-2.84.92Zm-.09-4.07c.56,0,1.05-.12,1.49-.35.43-.24.78-.56,1.03-.98s.38-.9.38-1.45-.13-1.03-.38-1.44c-.25-.41-.59-.74-1.03-.97-.43-.24-.93-.35-1.49-.35s-1.04.12-1.48.35c-.44.24-.78.56-1.03.97-.25.41-.37.9-.37,1.44s.12,1.03.37,1.45.59.75,1.03.98c.44.24.93.35,1.48.35Z"/><path class="cls-2" d="m462.39,674.2c-.73,0-1.39-.17-1.97-.5-.58-.33-1.04-.79-1.38-1.37-.34-.58-.5-1.25-.5-2s.17-1.43.5-2.01.79-1.03,1.37-1.36c.58-.33,1.24-.49,1.98-.49s1.42.16,2,.49c.58.33,1.04.78,1.37,1.36s.5,1.25.5,2.01-.17,1.42-.5,2c-.33.58-.79,1.04-1.38,1.37s-1.25.5-1.99.5Zm0-.91c.55,0,1.03-.12,1.46-.37.42-.25.76-.59,1-1.04.25-.45.37-.96.37-1.55s-.12-1.12-.37-1.56c-.25-.44-.58-.79-1-1.03s-.9-.37-1.44-.37-1.02.12-1.44.37-.76.59-1.01,1.03c-.25.44-.38.96-.38,1.56s.12,1.1.38,1.55c.25.45.59.79,1.01,1.04.42.25.9.37,1.43.37Z"/><path class="cls-2" d="m471.37,674.2c-.72,0-1.37-.16-1.94-.49-.57-.33-1.02-.78-1.35-1.36-.33-.58-.49-1.25-.49-2.01s.16-1.44.49-2.02c.33-.58.78-1.03,1.35-1.35.57-.32,1.22-.48,1.94-.48.66,0,1.26.15,1.78.45.52.3.94.73,1.26,1.31.31.57.47,1.27.47,2.1s-.15,1.52-.46,2.09c-.31.58-.72,1.02-1.25,1.32-.53.3-1.12.46-1.8.46Zm.07-.91c.54,0,1.02-.12,1.45-.37.43-.25.76-.59,1.01-1.04.25-.45.37-.96.37-1.55s-.12-1.12-.37-1.56c-.25-.44-.58-.79-1.01-1.03-.43-.25-.91-.37-1.45-.37s-1.01.12-1.43.37-.76.59-1.01,1.03c-.25.44-.38.96-.38,1.56s.12,1.1.38,1.55c.25.45.59.79,1.01,1.04.42.25.9.37,1.43.37Zm2.86.84v-2.28l.1-1.53-.14-1.53v-5.37h1.03v10.71h-.98Z"/><path class="cls-2" d="m482.01,666.47c.62,0,1.16.12,1.62.35.47.24.83.59,1.1,1.08s.4,1.09.4,1.82v4.4h-1.03v-4.3c0-.8-.2-1.4-.6-1.81-.4-.41-.96-.61-1.68-.61-.54,0-1.01.11-1.41.32-.4.22-.71.53-.92.94-.22.41-.33.9-.33,1.48v3.99h-1.02v-7.58h.98v2.08l-.16-.39c.24-.55.63-.98,1.16-1.29s1.16-.47,1.89-.47Z"/><path class="cls-2" d="m488.43,664.87c-.21,0-.39-.07-.53-.22s-.22-.32-.22-.52.07-.37.22-.51.32-.21.53-.21.39.07.53.2.22.3.22.5-.07.39-.21.53-.32.22-.54.22Zm-.52,9.26v-7.58h1.02v7.58h-1.02Z"/><path class="cls-2" d="m495.01,674.2c-.79,0-1.48-.17-2.08-.5s-1.06-.79-1.4-1.37c-.34-.58-.51-1.25-.51-2s.16-1.42.48-1.99c.32-.58.76-1.03,1.33-1.37.56-.33,1.2-.5,1.9-.5s1.35.16,1.9.48.99.77,1.31,1.36c.32.58.48,1.25.48,2.01,0,.05,0,.1,0,.15,0,.05,0,.11,0,.17h-6.6v-.77h6.05l-.4.3c0-.55-.12-1.04-.35-1.46-.24-.43-.56-.76-.96-1s-.87-.36-1.4-.36-.99.12-1.4.36-.74.58-.97,1.01c-.23.43-.35.93-.35,1.49v.16c0,.58.13,1.08.38,1.52.26.44.61.78,1.07,1.02.46.25.98.37,1.57.37.46,0,.89-.08,1.29-.25.4-.16.74-.41,1.03-.75l.58.66c-.34.4-.76.71-1.26.92-.5.21-1.06.32-1.67.32Z"/><path class="cls-2" d="m79.2,642.17c-.78,0-1.47-.21-2.08-.61s-1.08-1-1.43-1.76c-.35-.76-.52-1.69-.52-2.76s.17-2,.52-2.77c.35-.76.82-1.35,1.43-1.76.61-.41,1.3-.61,2.08-.61s1.47.21,2.08.61c.61.41,1.08,1,1.44,1.76.35.77.53,1.69.53,2.77s-.18,2-.53,2.76c-.35.77-.83,1.35-1.44,1.76s-1.3.61-2.08.61Zm0-.95c.6,0,1.12-.16,1.56-.48.44-.32.79-.79,1.04-1.42.25-.62.38-1.38.38-2.29s-.12-1.67-.38-2.29c-.25-.62-.6-1.09-1.04-1.42-.44-.32-.96-.48-1.56-.48s-1.09.16-1.54.48c-.45.32-.8.79-1.05,1.42-.25.62-.38,1.38-.38,2.29s.12,1.67.38,2.29c.25.62.6,1.09,1.05,1.42.45.32.97.48,1.54.48Z"/><path class="cls-2" d="m285.71,642.17c-.9,0-1.65-.2-2.27-.6s-1.08-.98-1.4-1.73-.48-1.66-.48-2.72c0-1.15.2-2.11.58-2.88.39-.78.93-1.36,1.62-1.75.69-.39,1.5-.59,2.41-.59.45,0,.89.04,1.3.13.41.09.78.23,1.1.42l-.42.84c-.26-.17-.56-.3-.89-.37s-.69-.11-1.07-.11c-1.09,0-1.96.35-2.61,1.04-.65.69-.97,1.73-.97,3.1,0,.21.01.47.04.79.02.31.08.62.17.93l-.36-.27c.11-.5.31-.93.62-1.28.31-.35.69-.62,1.16-.8.46-.18.97-.27,1.52-.27.67,0,1.27.12,1.78.38.51.25.91.6,1.2,1.05.29.45.43.99.43,1.6s-.15,1.17-.45,1.64c-.3.47-.71.83-1.23,1.08s-1.11.38-1.77.38Zm-.04-.88c.48,0,.91-.09,1.28-.27.37-.18.66-.43.87-.76.21-.33.32-.72.32-1.16,0-.66-.23-1.19-.69-1.59-.46-.39-1.08-.59-1.86-.59-.52,0-.97.1-1.36.29-.39.19-.69.46-.91.79s-.33.71-.33,1.13c0,.37.1.71.3,1.05s.5.6.9.81c.4.21.89.31,1.46.31Z"/><path class="cls-2" d="m467.79,642.08v-9.67l.46.49h-2.84v-.92h3.42v10.11h-1.04Z"/><path class="cls-2" d="m471.05,642.08v-.74l4.2-4.12c.38-.38.67-.71.87-.99s.32-.55.39-.8c.07-.25.1-.49.1-.71,0-.59-.2-1.05-.6-1.39-.4-.34-.99-.5-1.77-.5-.6,0-1.12.09-1.58.27-.46.18-.85.47-1.18.85l-.74-.63c.39-.46.9-.82,1.52-1.07.62-.25,1.3-.38,2.06-.38.68,0,1.28.11,1.78.33.5.22.89.53,1.16.95s.41.9.41,1.46c0,.33-.05.65-.14.97-.09.32-.25.65-.49,1-.24.35-.58.75-1.03,1.19l-3.86,3.78-.29-.4h6.27v.92h-7.09Z"/><path class="cls-2" d="m654.05,642.08v-9.67l.46.49h-2.85v-.92h3.42v10.11h-1.04Z"/><path class="cls-2" d="m661.34,642.17c-.81,0-1.5-.12-2.09-.35-.58-.23-1.03-.57-1.34-1-.31-.44-.47-.96-.47-1.55s.15-1.07.46-1.48c.3-.41.75-.72,1.33-.95.58-.22,1.29-.33,2.12-.33s1.52.11,2.11.33c.59.22,1.04.54,1.35.95s.47.9.47,1.48-.16,1.11-.48,1.55c-.32.44-.77.77-1.36,1-.59.23-1.29.35-2.09.35Zm0-5.07c-.75,0-1.39-.1-1.91-.3-.53-.2-.93-.49-1.21-.87-.28-.38-.42-.83-.42-1.37,0-.56.15-1.04.44-1.44.29-.4.71-.71,1.23-.92.53-.21,1.15-.32,1.86-.32s1.33.11,1.87.32c.53.21.95.52,1.25.92.3.4.45.88.45,1.44s-.14.98-.42,1.37c-.28.38-.69.67-1.22.87s-1.18.3-1.93.3Zm0,4.19c.9,0,1.6-.18,2.1-.55.51-.37.76-.86.76-1.49s-.25-1.12-.76-1.48c-.5-.36-1.21-.54-2.1-.54s-1.59.18-2.09.54c-.5.36-.75.85-.75,1.48s.25,1.12.75,1.49,1.2.55,2.09.55Zm0-4.88c.79,0,1.41-.16,1.85-.49.44-.33.66-.76.66-1.31,0-.58-.23-1.03-.69-1.35-.46-.32-1.07-.48-1.83-.48s-1.37.16-1.82.48c-.45.32-.68.77-.68,1.34s.22,1,.66,1.33c.44.33,1.05.49,1.84.49Z"/><path class="cls-2" d="m837.38,642.08v-.74l4.2-4.12c.38-.38.67-.71.87-.99s.32-.55.39-.8c.07-.25.1-.49.1-.71,0-.59-.2-1.05-.6-1.39-.4-.34-.99-.5-1.77-.5-.6,0-1.12.09-1.58.27-.46.18-.85.47-1.18.85l-.74-.63c.39-.46.9-.82,1.52-1.07.62-.25,1.3-.38,2.06-.38.68,0,1.28.11,1.78.33.5.22.89.53,1.16.95s.41.9.41,1.46c0,.33-.05.65-.14.97-.09.32-.25.65-.49,1-.24.35-.58.75-1.03,1.19l-3.86,3.78-.29-.4h6.27v.92h-7.09Z"/><path class="cls-2" d="m845.26,639.42v-.75l5.36-6.7h1.16l-5.31,6.7-.56-.17h8.13v.92h-8.76Zm5.7,2.66v-2.66l.03-.92v-2.34h1.01v5.92h-1.04Z"/></g><g id="Warstwa_5"><line class="cls-9" x1="83.98" y1="203.04" x2="83.98" y2="133.65"/><rect class="cls-1" x="77.48" y="132.65" width="13" height="2"/><line class="cls-9" x1="83.98" y1="213.21" x2="83.98" y2="219.21"/><line class="cls-8" x1="83.98" y1="230.69" x2="83.98" y2="270.87"/><line class="cls-9" x1="83.98" y1="276.61" x2="83.98" y2="282.61"/><rect class="cls-1" x="77.48" y="281.61" width="13" height="2"/><line class="cls-9" x1="274.48" y1="310.34" x2="274.48" y2="316.34"/><line class="cls-7" x1="274.48" y1="329.2" x2="274.48" y2="425.66"/><line class="cls-9" x1="274.48" y1="432.09" x2="274.48" y2="438.09"/><rect class="cls-1" x="267.98" y="437.09" width="13" height="2"/><line class="cls-9" x1="472.88" y1="360.41" x2="472.88" y2="366.41"/><line class="cls-7" x1="472.88" y1="379.27" x2="472.88" y2="475.73"/><line class="cls-9" x1="472.88" y1="482.16" x2="472.88" y2="488.16"/><rect class="cls-1" x="466.38" y="487.16" width="13" height="2"/><line class="cls-9" x1="664.5" y1="398.81" x2="664.5" y2="404.81"/><line class="cls-7" x1="664.5" y1="417.67" x2="664.5" y2="514.13"/><line class="cls-9" x1="664.5" y1="520.56" x2="664.5" y2="526.56"/><rect class="cls-1" x="658" y="525.56" width="13" height="2"/><line class="cls-9" x1="860.64" y1="423.28" x2="860.64" y2="429.28"/><line class="cls-7" x1="860.64" y1="442.14" x2="860.64" y2="538.6"/><line class="cls-9" x1="860.64" y1="545.03" x2="860.64" y2="551.03"/><rect class="cls-1" x="854.14" y="550.03" width="13" height="2"/><line class="cls-9" x1="275.23" y1="305.44" x2="275.23" y2="192"/><rect class="cls-1" x="268.73" y="191" width="13" height="2"/><line class="cls-9" x1="476.64" y1="343.09" x2="476.64" y2="229.64"/><rect class="cls-1" x="470.14" y="228.64" width="13" height="2"/><line class="cls-9" x1="663.75" y1="383" x2="663.75" y2="250.35"/><rect class="cls-1" x="657.25" y="249.35" width="13" height="2"/><line class="cls-9" x1="860.27" y1="394.67" x2="860.27" y2="262.02"/><rect class="cls-1" x="853.77" y="261.02" width="13" height="2"/></g><g id="Warstwa_3"><polyline class="cls-10" points="78.34 212.36 273.73 319.66 471.94 376.97 670.15 393.07 866.67 411.14"/></g><g id="Warstwa_3_kopia"><line class="cls-4" x1="78.34" y1="205.53" x2="83.6" y2="208.42"/><polyline class="cls-5" points="94.21 214.25 273.73 312.83 475.89 353.49 670.15 386.24 854.66 403.21"/><line class="cls-4" x1="860.69" y1="403.76" x2="866.67" y2="404.31"/></g><g id="Warstwa_4"><circle class="cls-3" cx="83.42" cy="211.52" r="13.18"/><circle class="cls-3" cx="273.73" cy="313.73" r="13.92"/><circle class="cls-3" cx="474.76" cy="351.6" r="13.92"/><circle class="cls-1" cx="473.18" cy="378.33" r="10.75"/><circle class="cls-3" cx="664.22" cy="388.83" r="13.92"/><circle class="cls-3" cx="860.74" cy="406.9" r="13.92"/></g></svg>