<?xml version="1.0" encoding="UTF-8"?><svg xmlns="http://www.w3.org/2000/svg" viewBox="0 0 990 900"><defs><style>.cls-1{fill:#fff;}.cls-2{fill:#e42e26;}.cls-3{fill:#62a4d8;}.cls-4{fill:none;stroke:#fff;stroke-miterlimit:10;}</style></defs><g id="Warstwa_2"><line class="cls-4" x1="99.67" y1="791.36" x2="944.46" y2="791.36"/><path class="cls-1" d="m51.04,796.76c-.96,0-1.81-.26-2.56-.77-.74-.52-1.33-1.25-1.75-2.21-.42-.95-.63-2.09-.63-3.41s.21-2.46.63-3.41c.42-.95,1-1.69,1.75-2.21.74-.52,1.6-.77,2.56-.77s1.83.26,2.56.77c.74.52,1.32,1.25,1.74,2.21.42.95.63,2.09.63,3.41s-.21,2.46-.63,3.41c-.42.95-1,1.69-1.74,2.21-.74.52-1.59.77-2.56.77Zm0-.85c.8,0,1.51-.22,2.11-.66.6-.44,1.07-1.07,1.4-1.9.34-.83.5-1.82.5-2.99s-.17-2.17-.5-3c-.34-.82-.8-1.45-1.4-1.89-.6-.44-1.3-.66-2.11-.66s-1.49.22-2.1.66c-.61.44-1.08,1.07-1.41,1.89-.34.82-.5,1.82-.5,3s.17,2.16.5,2.99c.34.83.81,1.46,1.41,1.9.61.44,1.3.66,2.1.66Z"/><path class="cls-1" d="m57.81,799.25l.7-3.04.09.52c-.23,0-.42-.07-.57-.22-.15-.14-.23-.32-.23-.54s.07-.4.23-.54c.15-.14.33-.22.53-.22.23,0,.41.08.55.22.14.15.21.33.21.53,0,.08,0,.17-.02.25-.01.08-.03.17-.05.25s-.05.19-.09.32l-.7,2.45h-.65Z"/><path class="cls-1" d="m66.09,796.76c-.96,0-1.81-.26-2.56-.77-.74-.52-1.33-1.25-1.75-2.21-.42-.95-.63-2.09-.63-3.41s.21-2.46.63-3.41c.42-.95,1-1.69,1.75-2.21.74-.52,1.6-.77,2.56-.77s1.83.26,2.56.77c.74.52,1.32,1.25,1.74,2.21.42.95.63,2.09.63,3.41s-.21,2.46-.63,3.41c-.42.95-1,1.69-1.74,2.21-.74.52-1.59.77-2.56.77Zm0-.85c.8,0,1.51-.22,2.11-.66.6-.44,1.07-1.07,1.4-1.9.34-.83.5-1.82.5-2.99s-.17-2.17-.5-3c-.34-.82-.8-1.45-1.4-1.89-.6-.44-1.3-.66-2.11-.66s-1.49.22-2.1.66c-.61.44-1.08,1.07-1.41,1.89-.34.82-.5,1.82-.5,3s.17,2.16.5,2.99c.34.83.81,1.46,1.41,1.9.61.44,1.3.66,2.1.66Z"/><line class="cls-4" x1="99.67" y1="614.46" x2="944.46" y2="614.46"/><path class="cls-1" d="m52.37,619.87c-.96,0-1.81-.26-2.56-.77-.74-.52-1.33-1.25-1.75-2.21-.42-.95-.63-2.09-.63-3.41s.21-2.46.63-3.41c.42-.95,1-1.69,1.75-2.21.74-.52,1.6-.77,2.56-.77s1.83.26,2.56.77c.74.52,1.32,1.25,1.74,2.21.42.95.63,2.09.63,3.41s-.21,2.46-.63,3.41c-.42.95-1,1.69-1.74,2.21-.74.52-1.59.77-2.56.77Zm0-.85c.8,0,1.51-.22,2.11-.66.6-.44,1.07-1.07,1.4-1.9.34-.83.5-1.82.5-2.99s-.17-2.17-.5-3c-.34-.82-.8-1.45-1.4-1.89-.6-.44-1.3-.66-2.11-.66s-1.49.22-2.1.66c-.61.44-1.08,1.07-1.41,1.89-.34.82-.5,1.82-.5,3s.17,2.16.5,2.99c.34.83.81,1.46,1.41,1.9.61.44,1.3.66,2.1.66Z"/><path class="cls-1" d="m59.14,622.35l.7-3.04.09.52c-.23,0-.42-.07-.57-.22-.15-.14-.23-.32-.23-.54s.07-.4.23-.54c.15-.14.33-.22.53-.22.23,0,.41.08.55.22.14.15.21.33.21.53,0,.08,0,.17-.02.25-.01.08-.03.17-.05.25s-.05.19-.09.32l-.7,2.45h-.65Z"/><path class="cls-1" d="m62.62,619.78v-.65l5.33-5.29c.5-.5.88-.94,1.13-1.32s.42-.73.51-1.05c.09-.32.14-.64.14-.95,0-.79-.27-1.42-.81-1.88-.54-.46-1.33-.69-2.38-.69-.79,0-1.49.12-2.08.36-.59.24-1.11.61-1.54,1.1l-.65-.58c.48-.55,1.09-.98,1.83-1.28.74-.3,1.57-.45,2.51-.45.83,0,1.54.14,2.15.41.61.27,1.07.65,1.4,1.15s.5,1.09.5,1.77c0,.41-.06.81-.17,1.2-.11.39-.32.8-.61,1.23-.29.43-.72.92-1.27,1.48l-5,4.99-.31-.36h7.97v.83h-8.66Z"/><line class="cls-4" x1="99.67" y1="437.57" x2="944.46" y2="437.57"/><path class="cls-1" d="m52.64,442.98c-.96,0-1.81-.26-2.56-.77-.74-.52-1.33-1.25-1.75-2.21-.42-.95-.63-2.09-.63-3.41s.21-2.46.63-3.41c.42-.95,1-1.69,1.75-2.21.74-.52,1.6-.77,2.56-.77s1.83.26,2.56.77c.74.52,1.32,1.25,1.74,2.21.42.95.63,2.09.63,3.41s-.21,2.46-.63,3.41c-.42.95-1,1.69-1.74,2.21-.74.52-1.59.77-2.56.77Zm0-.85c.8,0,1.51-.22,2.11-.66.6-.44,1.07-1.07,1.4-1.9.34-.83.5-1.82.5-2.99s-.17-2.17-.5-3c-.34-.82-.8-1.45-1.4-1.89-.6-.44-1.3-.66-2.11-.66s-1.49.22-2.1.66c-.61.44-1.08,1.07-1.41,1.89-.34.82-.5,1.82-.5,3s.17,2.16.5,2.99c.34.83.81,1.46,1.41,1.9.61.44,1.3.66,2.1.66Z"/><path class="cls-1" d="m59.41,445.46l.7-3.04.09.52c-.23,0-.42-.07-.57-.22-.15-.14-.23-.32-.23-.54s.07-.4.23-.54c.15-.14.33-.22.53-.22.23,0,.41.08.55.22.14.15.21.33.21.53,0,.08,0,.17-.02.25-.01.08-.03.17-.05.25s-.05.19-.09.32l-.7,2.45h-.65Z"/><path class="cls-1" d="m66.86,442.98c-.91,0-1.77-.16-2.56-.47-.8-.31-1.42-.72-1.86-1.22l.47-.7c.38.44.92.81,1.62,1.11.7.29,1.47.44,2.32.44,1.16,0,2.04-.26,2.63-.79s.88-1.21.88-2.05c0-.6-.14-1.12-.41-1.55-.28-.43-.74-.76-1.4-1-.66-.23-1.56-.35-2.7-.35h-2.56l.67-6.1h6.68v.83h-6.3l.45-.43-.59,5.35-.43-.47h2.29c1.28,0,2.31.15,3.07.46.76.31,1.31.74,1.66,1.29s.51,1.2.51,1.94c0,.7-.16,1.33-.49,1.89-.32.56-.81,1.01-1.47,1.34-.65.33-1.47.5-2.46.5Z"/><line class="cls-4" x1="99.67" y1="260.67" x2="944.46" y2="260.67"/><path class="cls-1" d="m51.13,266.08c-.96,0-1.81-.26-2.56-.77-.74-.52-1.33-1.25-1.75-2.21-.42-.95-.63-2.09-.63-3.41s.21-2.46.63-3.41c.42-.95,1-1.69,1.75-2.21.74-.52,1.6-.77,2.56-.77s1.83.26,2.56.77c.74.52,1.32,1.25,1.74,2.21.42.95.63,2.09.63,3.41s-.21,2.46-.63,3.41c-.42.95-1,1.69-1.74,2.21-.74.52-1.59.77-2.56.77Zm0-.85c.8,0,1.51-.22,2.11-.66.6-.44,1.07-1.07,1.4-1.9.34-.83.5-1.82.5-2.99s-.17-2.17-.5-3c-.34-.82-.8-1.45-1.4-1.89-.6-.44-1.3-.66-2.11-.66s-1.49.22-2.1.66c-.61.44-1.08,1.07-1.41,1.89-.34.82-.5,1.82-.5,3s.17,2.16.5,2.99c.34.83.81,1.46,1.41,1.9.61.44,1.3.66,2.1.66Z"/><path class="cls-1" d="m57.9,268.57l.7-3.04.09.52c-.23,0-.42-.07-.57-.22-.15-.14-.23-.32-.23-.54s.07-.4.23-.54c.15-.14.33-.22.53-.22.23,0,.41.08.55.22.14.15.21.33.21.53,0,.08,0,.17-.02.25-.01.08-.03.17-.05.25s-.05.19-.09.32l-.7,2.45h-.65Z"/><path class="cls-1" d="m66.31,266.08c-1,0-1.85-.14-2.56-.43s-1.25-.7-1.63-1.22c-.38-.53-.57-1.16-.57-1.89s.19-1.31.56-1.82c.37-.5.91-.89,1.62-1.16.71-.27,1.57-.41,2.57-.41s1.87.13,2.58.41c.71.27,1.26.66,1.64,1.16.38.5.57,1.11.57,1.82s-.19,1.36-.58,1.89c-.38.53-.93.94-1.65,1.22s-1.57.43-2.56.43Zm0-6.41c-.91,0-1.69-.12-2.33-.37s-1.13-.6-1.47-1.07-.5-1.03-.5-1.67.18-1.25.53-1.74.85-.86,1.5-1.12,1.4-.4,2.27-.4,1.64.13,2.29.4,1.15.64,1.51,1.12c.36.49.54,1.07.54,1.74s-.17,1.21-.51,1.67c-.34.47-.84.83-1.49,1.07-.65.25-1.43.37-2.34.37Zm0,5.62c1.21,0,2.16-.25,2.84-.74.68-.49,1.03-1.16,1.03-2.02s-.34-1.51-1.03-2-1.63-.74-2.84-.74-2.15.25-2.83.74c-.67.49-1.01,1.16-1.01,2s.34,1.52,1.01,2.02c.67.49,1.61.74,2.83.74Zm0-6.25c1.08,0,1.92-.22,2.52-.67.6-.44.9-1.04.9-1.78s-.31-1.39-.93-1.84c-.62-.44-1.45-.67-2.49-.67s-1.85.22-2.47.67c-.61.44-.92,1.05-.92,1.82s.3,1.36.89,1.8c.59.44,1.43.67,2.49.67Z"/><line class="cls-4" x1="99.67" y1="83.78" x2="944.46" y2="83.78"/><path class="cls-1" d="m59.14,89.1v-12.2l.41.43h-3.49v-.83h4v12.6h-.92Z"/><path class="cls-1" d="m63.3,91.67l.7-3.04.09.52c-.23,0-.42-.07-.57-.22-.15-.14-.23-.32-.23-.54s.07-.4.23-.54c.15-.14.33-.22.53-.22.23,0,.41.08.55.22.14.15.21.33.21.53,0,.08,0,.17-.02.25-.01.08-.03.17-.05.25s-.05.19-.09.32l-.7,2.45h-.65Z"/><path class="cls-1" d="m68.9,89.1v-12.2l.41.43h-3.49v-.83h4v12.6h-.92Z"/></g><g id="Warstwa_3"><path class="cls-1" d="m97.32,872.42v-17.38h2.21v3.43l-.14,2.95.24,2.95v8.04h-2.3Zm6.74-4.51c-1.06,0-2.02-.24-2.89-.73s-1.57-1.21-2.09-2.17c-.52-.96-.78-2.16-.78-3.6s.25-2.64.76-3.6,1.19-1.68,2.06-2.16c.87-.48,1.85-.72,2.94-.72,1.25,0,2.35.27,3.31.82.96.54,1.72,1.3,2.28,2.27.56.97.84,2.1.84,3.4s-.28,2.43-.84,3.41c-.56.98-1.32,1.74-2.28,2.28s-2.06.82-3.31.82Zm-.19-2.02c.82,0,1.55-.18,2.2-.55.65-.37,1.16-.89,1.54-1.57.38-.68.56-1.47.56-2.36s-.19-1.7-.56-2.36-.89-1.18-1.54-1.55c-.65-.37-1.38-.55-2.2-.55s-1.52.18-2.17.55c-.65.37-1.16.88-1.54,1.55-.38.66-.56,1.45-.56,2.36s.19,1.68.56,2.36c.38.68.89,1.2,1.54,1.57.65.37,1.37.55,2.17.55Z"/><path class="cls-1" d="m130.32,863.46l-10.75-4.08v-2.02l10.75-4.08v1.97l-9.98,3.77v-1.3l9.98,3.77v1.97Zm-10.75,4.3v-1.9h10.75v1.9h-10.75Z"/><path class="cls-1" d="m146.4,867.95c-1.31,0-2.48-.34-3.52-1.01-1.03-.67-1.85-1.65-2.45-2.93-.6-1.28-.9-2.83-.9-4.66s.3-3.38.9-4.66c.6-1.28,1.42-2.26,2.45-2.93,1.03-.67,2.2-1.01,3.52-1.01s2.46.34,3.5,1.01c1.04.67,1.86,1.65,2.45,2.93s.89,2.83.89,4.66-.3,3.38-.89,4.66c-.59,1.28-1.41,2.26-2.45,2.93-1.04.67-2.21,1.01-3.5,1.01Zm0-2.14c.88,0,1.65-.24,2.32-.72.66-.48,1.18-1.2,1.56-2.16s.56-2.15.56-3.58-.19-2.62-.56-3.58-.9-1.68-1.56-2.16c-.66-.48-1.44-.72-2.32-.72s-1.66.24-2.33.72c-.67.48-1.2,1.2-1.57,2.16s-.56,2.15-.56,3.58.19,2.62.56,3.58.9,1.68,1.57,2.16c.67.48,1.45.72,2.33.72Z"/><path class="cls-1" d="m155.38,871.31l1.2-4.85.31,1.39c-.46,0-.85-.14-1.16-.43-.31-.29-.47-.68-.47-1.18s.16-.87.47-1.18c.31-.3.69-.46,1.14-.46s.84.16,1.13.47c.29.31.43.7.43,1.16,0,.16-.01.32-.04.47-.02.15-.06.33-.12.53-.06.2-.14.44-.25.73l-1.13,3.34h-1.51Z"/><path class="cls-1" d="m167.28,867.95c-1.31,0-2.48-.34-3.52-1.01-1.03-.67-1.85-1.65-2.45-2.93-.6-1.28-.9-2.83-.9-4.66s.3-3.38.9-4.66c.6-1.28,1.42-2.26,2.45-2.93,1.03-.67,2.2-1.01,3.52-1.01s2.46.34,3.5,1.01c1.04.67,1.86,1.65,2.45,2.93s.89,2.83.89,4.66-.3,3.38-.89,4.66c-.59,1.28-1.41,2.26-2.45,2.93-1.04.67-2.21,1.01-3.5,1.01Zm0-2.14c.88,0,1.65-.24,2.32-.72.66-.48,1.18-1.2,1.56-2.16s.56-2.15.56-3.58-.19-2.62-.56-3.58-.9-1.68-1.56-2.16c-.66-.48-1.44-.72-2.32-.72s-1.66.24-2.33.72c-.67.48-1.2,1.2-1.57,2.16s-.56,2.15-.56,3.58.19,2.62.56,3.58.9,1.68,1.57,2.16c.67.48,1.45.72,2.33.72Z"/><path class="cls-1" d="m179.26,867.76v-15.84l1.03,1.13h-4.82v-2.09h6.17v16.8h-2.38Z"/><path class="cls-2" d="m210,867.9c-1.3,0-2.45-.28-3.47-.84-1.02-.56-1.81-1.33-2.39-2.3-.58-.98-.86-2.1-.86-3.36s.29-2.38.86-3.36,1.37-1.74,2.39-2.29c1.02-.55,2.17-.83,3.47-.83,1.15,0,2.18.23,3.08.68.9.46,1.6,1.13,2.1,2.03l-1.75,1.13c-.42-.62-.92-1.08-1.52-1.38-.6-.3-1.24-.44-1.93-.44-.83,0-1.58.18-2.23.55-.66.37-1.18.88-1.56,1.55s-.58,1.45-.58,2.36.19,1.7.58,2.38c.38.67.9,1.19,1.56,1.56s1.4.55,2.23.55c.69,0,1.33-.15,1.93-.44.6-.3,1.11-.76,1.52-1.38l1.75,1.1c-.5.88-1.2,1.56-2.1,2.03-.9.47-1.93.71-3.08.71Z"/><path class="cls-2" d="m224.79,854.92c1.04,0,1.96.2,2.75.6.79.4,1.41,1.01,1.86,1.82s.67,1.85.67,3.1v7.32h-2.3v-7.06c0-1.23-.3-2.16-.9-2.78-.6-.62-1.44-.94-2.53-.94-.82,0-1.53.16-2.14.48s-1.08.79-1.4,1.42c-.33.62-.49,1.4-.49,2.33v6.55h-2.3v-17.81h2.3v8.52l-.46-.91c.42-.83,1.06-1.48,1.92-1.94s1.87-.7,3.02-.7Z"/><path class="cls-2" d="m239.79,867.9c-1.28,0-2.42-.28-3.41-.84-.99-.56-1.78-1.33-2.35-2.32-.58-.98-.86-2.1-.86-3.35s.29-2.38.86-3.36,1.36-1.74,2.35-2.29c.99-.55,2.13-.83,3.41-.83s2.4.28,3.4.83c1,.55,1.78,1.31,2.35,2.28.57.97.85,2.09.85,3.37s-.29,2.38-.85,3.36c-.57.98-1.35,1.74-2.35,2.3-1,.56-2.13.84-3.4.84Zm0-2.02c.82,0,1.55-.18,2.2-.55.65-.37,1.16-.89,1.52-1.57.37-.68.55-1.47.55-2.36s-.18-1.7-.55-2.36-.88-1.18-1.52-1.55c-.65-.37-1.38-.55-2.2-.55s-1.54.18-2.18.55c-.64.37-1.15.88-1.54,1.55s-.58,1.45-.58,2.36.19,1.68.58,2.36c.38.68.9,1.2,1.54,1.57.64.37,1.37.55,2.18.55Z"/><path class="cls-2" d="m256.37,854.92c1.04,0,1.96.2,2.75.6.79.4,1.41,1.01,1.86,1.82s.67,1.85.67,3.1v7.32h-2.3v-7.06c0-1.23-.3-2.16-.9-2.78-.6-.62-1.44-.94-2.53-.94-.82,0-1.53.16-2.14.48s-1.08.79-1.4,1.42c-.33.62-.49,1.4-.49,2.33v6.55h-2.3v-12.72h2.21v3.43l-.36-.91c.42-.83,1.06-1.48,1.92-1.94s1.87-.7,3.02-.7Z"/><path class="cls-2" d="m271.18,867.9c-1.23,0-2.33-.27-3.3-.82s-1.73-1.3-2.29-2.28c-.56-.98-.84-2.11-.84-3.41s.28-2.43.84-3.4c.56-.97,1.32-1.72,2.29-2.27.97-.54,2.07-.82,3.3-.82,1.07,0,2.04.24,2.9.72.86.48,1.56,1.2,2.08,2.16.52.96.78,2.16.78,3.6s-.25,2.64-.76,3.6-1.19,1.68-2.05,2.17c-.86.49-1.85.73-2.95.73Zm.19-2.02c.8,0,1.52-.18,2.17-.55.65-.37,1.16-.89,1.54-1.57.38-.68.56-1.47.56-2.36s-.19-1.7-.56-2.36-.89-1.18-1.54-1.55c-.65-.37-1.37-.55-2.17-.55s-1.54.18-2.18.55c-.64.37-1.15.88-1.54,1.55s-.58,1.45-.58,2.36.19,1.68.58,2.36c.38.68.9,1.2,1.54,1.57.64.37,1.37.55,2.18.55Zm4.34,1.87v-3.43l.14-2.95-.24-2.95v-8.47h2.3v17.81h-2.21Z"/><path class="cls-2" d="m282.29,867.76v-12.72h2.21v3.46l-.22-.86c.35-.88.94-1.55,1.78-2.02s1.86-.7,3.07-.7v2.23c-.1-.02-.19-.02-.28-.02h-.25c-1.23,0-2.21.37-2.93,1.1-.72.74-1.08,1.8-1.08,3.19v6.34h-2.3Z"/><path class="cls-2" d="m297.29,867.9c-1.28,0-2.42-.28-3.41-.84-.99-.56-1.78-1.33-2.35-2.32-.58-.98-.86-2.1-.86-3.35s.29-2.38.86-3.36,1.36-1.74,2.35-2.29c.99-.55,2.13-.83,3.41-.83s2.4.28,3.4.83c1,.55,1.78,1.31,2.35,2.28.57.97.85,2.09.85,3.37s-.29,2.38-.85,3.36c-.57.98-1.35,1.74-2.35,2.3-1,.56-2.13.84-3.4.84Zm0-2.02c.82,0,1.55-.18,2.2-.55.65-.37,1.16-.89,1.52-1.57.37-.68.55-1.47.55-2.36s-.18-1.7-.55-2.36-.88-1.18-1.52-1.55c-.65-.37-1.38-.55-2.2-.55s-1.54.18-2.18.55c-.64.37-1.15.88-1.54,1.55s-.58,1.45-.58,2.36.19,1.68.58,2.36c.38.68.9,1.2,1.54,1.57.64.37,1.37.55,2.18.55Z"/><path class="cls-2" d="m308.24,852.59c-.45,0-.82-.14-1.12-.43s-.44-.64-.44-1.06.15-.79.44-1.08.67-.43,1.12-.43.82.14,1.12.42c.3.28.44.63.44,1.04s-.14.8-.43,1.09c-.29.3-.66.44-1.13.44Zm-1.15,15.17v-12.72h2.3v12.72h-2.3Z"/><path class="cls-2" d="m311.96,856.94v-1.9h8.11v1.9h-8.11Zm6.19,10.97c-1.28,0-2.27-.34-2.98-1.03-.7-.69-1.06-1.67-1.06-2.95v-11.66h2.3v11.57c0,.69.17,1.22.52,1.58s.84.55,1.48.55c.72,0,1.32-.2,1.8-.6l.72,1.66c-.35.3-.77.53-1.26.67-.49.14-1,.22-1.52.22Z"/><path class="cls-2" d="m324.03,872.56c-.61,0-1.2-.1-1.78-.3s-1.07-.49-1.49-.88l.98-1.73c.32.3.67.54,1.06.7.38.16.79.24,1.22.24.56,0,1.02-.14,1.39-.43s.71-.8,1.03-1.54l.79-1.75.24-.29,4.99-11.54h2.26l-6.17,13.99c-.37.9-.78,1.6-1.24,2.11s-.96.88-1.5,1.09c-.54.22-1.14.32-1.8.32Zm3.02-4.39l-5.81-13.13h2.4l4.94,11.33-1.54,1.8Z"/><path class="cls-2" d="m343.68,854.92c1.04,0,1.96.2,2.75.6.79.4,1.41,1.01,1.86,1.82s.67,1.85.67,3.1v7.32h-2.3v-7.06c0-1.23-.3-2.16-.9-2.78-.6-.62-1.44-.94-2.53-.94-.82,0-1.53.16-2.14.48s-1.08.79-1.4,1.42c-.33.62-.49,1.4-.49,2.33v6.55h-2.3v-12.72h2.21v3.43l-.36-.91c.42-.83,1.06-1.48,1.92-1.94s1.87-.7,3.02-.7Z"/><path class="cls-2" d="m356.96,867.9c-.94,0-1.77-.16-2.48-.48s-1.26-.76-1.64-1.33c-.38-.57-.58-1.21-.58-1.93s.16-1.31.49-1.87c.33-.56.86-1.01,1.61-1.34s1.75-.5,3.01-.5h4.03v1.66h-3.94c-1.15,0-1.93.19-2.33.58-.4.38-.6.85-.6,1.39,0,.62.25,1.12.74,1.5.5.38,1.18.56,2.06.56s1.62-.19,2.27-.58c.65-.38,1.12-.94,1.4-1.68l.46,1.58c-.3.75-.84,1.35-1.61,1.79-.77.44-1.74.66-2.9.66Zm4.18-.14v-2.69l-.12-.5v-4.58c0-.98-.28-1.73-.85-2.27-.57-.54-1.42-.8-2.56-.8-.75,0-1.49.12-2.21.37-.72.25-1.33.58-1.82,1l-.96-1.73c.66-.53,1.44-.93,2.36-1.21s1.88-.42,2.89-.42c1.74,0,3.09.42,4.03,1.27.94.85,1.42,2.14,1.42,3.89v7.68h-2.18Z"/><path class="cls-3" d="m392.93,867.23c-1.23,0-2.33-.26-3.3-.78-.97-.52-1.74-1.24-2.3-2.17-.57-.93-.85-2-.85-3.22s.28-2.31.85-3.23c.57-.92,1.33-1.64,2.3-2.15.97-.51,2.07-.77,3.3-.77,1.09,0,2.08.22,2.98.66.9.44,1.61,1.12,2.15,2.03s.8,2.06.8,3.46-.27,2.52-.8,3.43-1.25,1.6-2.15,2.05c-.9.46-1.89.68-2.98.68Zm.29,5.33c-1.17,0-2.3-.16-3.4-.49-1.1-.33-1.99-.8-2.68-1.4l1.1-1.78c.59.51,1.32.92,2.18,1.21s1.77.44,2.71.44c1.5,0,2.61-.35,3.31-1.06s1.06-1.78,1.06-3.22v-2.69l.24-2.52-.12-2.54v-3.48h2.18v10.99c0,2.24-.56,3.89-1.68,4.94-1.12,1.06-2.76,1.58-4.92,1.58Zm-.02-7.34c.85,0,1.6-.18,2.26-.53.66-.35,1.17-.84,1.55-1.46s.56-1.34.56-2.16-.19-1.54-.56-2.16-.89-1.11-1.55-1.45c-.66-.34-1.41-.52-2.26-.52s-1.6.17-2.27.52c-.66.34-1.18.83-1.56,1.45-.38.62-.56,1.34-.56,2.16s.19,1.54.56,2.16c.38.62.9,1.11,1.56,1.46.66.35,1.42.53,2.27.53Z"/><path class="cls-3" d="m404.21,867.76v-17.81h2.3v17.81h-2.3Z"/><path class="cls-3" d="m416.25,867.9c-1.09,0-2.04-.2-2.87-.6-.82-.4-1.46-1.01-1.92-1.84s-.68-1.86-.68-3.11v-7.32h2.3v7.06c0,1.25.3,2.18.9,2.81.6.62,1.44.94,2.53.94.8,0,1.5-.16,2.09-.49s1.05-.81,1.37-1.44.48-1.4.48-2.29v-6.58h2.3v12.72h-2.18v-3.43l.36.91c-.42.85-1.04,1.5-1.87,1.97s-1.77.7-2.81.7Z"/><path class="cls-3" d="m427.15,867.76v-17.81h2.3v17.81h-2.3Zm1.87-3.07l.05-2.95,7.32-6.7h2.78l-5.62,5.52-1.25,1.06-3.29,3.07Zm7.85,3.07l-4.99-6.19,1.49-1.85,6.34,8.04h-2.83Z"/><path class="cls-3" d="m446.85,867.9c-1.28,0-2.42-.28-3.41-.84-.99-.56-1.78-1.33-2.35-2.32-.58-.98-.86-2.1-.86-3.35s.29-2.38.86-3.36,1.36-1.74,2.35-2.29c.99-.55,2.13-.83,3.41-.83s2.4.28,3.4.83c1,.55,1.78,1.31,2.35,2.28.57.97.85,2.09.85,3.37s-.29,2.38-.85,3.36c-.57.98-1.35,1.74-2.35,2.3-1,.56-2.13.84-3.4.84Zm0-2.02c.82,0,1.55-.18,2.2-.55.65-.37,1.16-.89,1.52-1.57.37-.68.55-1.47.55-2.36s-.18-1.7-.55-2.36-.88-1.18-1.52-1.55c-.65-.37-1.38-.55-2.2-.55s-1.54.18-2.18.55c-.64.37-1.15.88-1.54,1.55s-.58,1.45-.58,2.36.19,1.68.58,2.36c.38.68.9,1.2,1.54,1.57.64.37,1.37.55,2.18.55Z"/><path class="cls-3" d="m455.23,867.76v-1.49l8.16-10.13.46.79h-8.47v-1.9h10.32v1.51l-8.16,10.1-.53-.79h8.88v1.9h-10.66Z"/><path class="cls-3" d="m472.68,867.9c-.94,0-1.77-.16-2.48-.48s-1.26-.76-1.64-1.33c-.38-.57-.58-1.21-.58-1.93s.16-1.31.49-1.87c.33-.56.86-1.01,1.61-1.34s1.75-.5,3.01-.5h4.03v1.66h-3.94c-1.15,0-1.93.19-2.33.58-.4.38-.6.85-.6,1.39,0,.62.25,1.12.74,1.5.5.38,1.18.56,2.06.56s1.62-.19,2.27-.58c.65-.38,1.12-.94,1.4-1.68l.46,1.58c-.3.75-.84,1.35-1.61,1.79-.77.44-1.74.66-2.9.66Zm4.18-.14v-2.69l-.12-.5v-4.58c0-.98-.28-1.73-.85-2.27-.57-.54-1.42-.8-2.56-.8-.75,0-1.49.12-2.21.37-.72.25-1.33.58-1.82,1l-.96-1.73c.66-.53,1.44-.93,2.36-1.21s1.88-.42,2.89-.42c1.74,0,3.09.42,4.03,1.27.94.85,1.42,2.14,1.42,3.89v7.68h-2.18Z"/><path class="cls-3" d="m499.22,854.92c1.02,0,1.93.2,2.71.6.78.4,1.4,1.01,1.84,1.82.44.82.66,1.85.66,3.1v7.32h-2.3v-7.06c0-1.23-.29-2.16-.86-2.78s-1.38-.94-2.42-.94c-.77,0-1.44.16-2.02.48s-1.02.79-1.33,1.42c-.31.62-.47,1.4-.47,2.33v6.55h-2.3v-7.06c0-1.23-.28-2.16-.85-2.78-.57-.62-1.38-.94-2.44-.94-.75,0-1.42.16-1.99.48-.58.32-1.02.79-1.34,1.42s-.48,1.4-.48,2.33v6.55h-2.3v-12.72h2.21v3.38l-.36-.86c.4-.83,1.02-1.48,1.85-1.94s1.8-.7,2.9-.7c1.22,0,2.26.3,3.14.9.88.6,1.46,1.51,1.73,2.72l-.94-.38c.38-.98,1.06-1.76,2.02-2.35s2.08-.89,3.36-.89Z"/><path class="cls-3" d="m509.83,852.59c-.45,0-.82-.14-1.12-.43s-.44-.64-.44-1.06.15-.79.44-1.08.67-.43,1.12-.43.82.14,1.12.42c.3.28.44.63.44,1.04s-.14.8-.43,1.09c-.29.3-.66.44-1.13.44Zm-1.15,15.17v-12.72h2.3v12.72h-2.3Z"/><path class="cls-3" d="m522.16,854.92c1.04,0,1.96.2,2.75.6.79.4,1.41,1.01,1.86,1.82s.67,1.85.67,3.1v7.32h-2.3v-7.06c0-1.23-.3-2.16-.9-2.78-.6-.62-1.44-.94-2.53-.94-.82,0-1.53.16-2.14.48s-1.08.79-1.4,1.42c-.33.62-.49,1.4-.49,2.33v6.55h-2.3v-12.72h2.21v3.43l-.36-.91c.42-.83,1.06-1.48,1.92-1.94s1.87-.7,3.02-.7Z"/><path class="cls-3" d="m535.44,867.9c-.94,0-1.77-.16-2.48-.48s-1.26-.76-1.64-1.33c-.38-.57-.58-1.21-.58-1.93s.16-1.31.49-1.87c.33-.56.86-1.01,1.61-1.34s1.75-.5,3.01-.5h4.03v1.66h-3.94c-1.15,0-1.93.19-2.33.58-.4.38-.6.85-.6,1.39,0,.62.25,1.12.74,1.5.5.38,1.18.56,2.06.56s1.62-.19,2.27-.58c.65-.38,1.12-.94,1.4-1.68l.46,1.58c-.3.75-.84,1.35-1.61,1.79-.77.44-1.74.66-2.9.66Zm4.18-.14v-2.69l-.12-.5v-4.58c0-.98-.28-1.73-.85-2.27-.57-.54-1.42-.8-2.56-.8-.75,0-1.49.12-2.21.37-.72.25-1.33.58-1.82,1l-.96-1.73c.66-.53,1.44-.93,2.36-1.21s1.88-.42,2.89-.42c1.74,0,3.09.42,4.03,1.27.94.85,1.42,2.14,1.42,3.89v7.68h-2.18Z"/></g></svg>