<svg xmlns="http://www.w3.org/2000/svg" viewBox="0 0 800 400"><defs><style>.cls-1,.cls-10,.cls-6,.cls-7,.cls-9{fill:#fff;}.cls-2,.cls-3,.cls-5,.cls-8{fill:none;}.cls-11,.cls-12,.cls-13,.cls-2,.cls-3{stroke:#fff;}.cls-10,.cls-11,.cls-12,.cls-13,.cls-2,.cls-3,.cls-5,.cls-6,.cls-7,.cls-8,.cls-9{stroke-miterlimit:10;}.cls-3{stroke-width:0.25px;opacity:0.5;}.cls-4{fill:#e42627;}.cls-5,.cls-6,.cls-7{stroke:#5caee0;}.cls-5,.cls-6,.cls-8,.cls-9{stroke-width:4px;}.cls-10,.cls-11,.cls-12,.cls-13,.cls-7{stroke-width:2px;}.cls-10,.cls-8,.cls-9{stroke:#e42628;}.cls-11,.cls-14{fill:#5c9fd7;}.cls-12,.cls-15{fill:#1c5d9d;}.cls-13,.cls-16{fill:#e42628;}.cls-17{fill:#5caee0;}</style></defs><title>wykres_Dreisler_01</title><g id="Warstwa_1" data-name="Warstwa 1"><path class="cls-1" d="M13.81,273.69a4.13,4.13,0,0,1-.53,2.11,3.69,3.69,0,0,1-1.5,1.4,4.9,4.9,0,0,1-2.27.5,4.9,4.9,0,0,1-2.27-.5,3.58,3.58,0,0,1-1.49-1.39,4.5,4.5,0,0,1,0-4.24,3.6,3.6,0,0,1,1.49-1.4,4.86,4.86,0,0,1,2.26-.5,4.92,4.92,0,0,1,2.28.5,3.69,3.69,0,0,1,1.5,1.4A4.12,4.12,0,0,1,13.81,273.69Zm-1.3,0a2.16,2.16,0,0,0-.8-1.79,3.37,3.37,0,0,0-2.2-.64,3.41,3.41,0,0,0-2.2.63,2.44,2.44,0,0,0,0,3.58,3.35,3.35,0,0,0,2.2.64,3.37,3.37,0,0,0,2.2-.64A2.15,2.15,0,0,0,12.51,273.69Z"/><path class="cls-1" d="M13.81,264.25a4.36,4.36,0,0,1-.53,2.23,3.55,3.55,0,0,1-1.49,1.43,4.92,4.92,0,0,1-2.28.49,4.9,4.9,0,0,1-2.27-.49,3.6,3.6,0,0,1-1.49-1.43,4.46,4.46,0,0,1-.53-2.23A5,5,0,0,1,5.39,263a3.8,3.8,0,0,1,.47-1.1.79.79,0,0,1,.48-.37.68.68,0,0,1,.51.07.63.63,0,0,1,.31.39.67.67,0,0,1-.14.58,2.91,2.91,0,0,0-.34.79,3.69,3.69,0,0,0-.1.87,2.42,2.42,0,0,0,.76,1.93,3.22,3.22,0,0,0,2.17.66,3.25,3.25,0,0,0,2.18-.66,2.42,2.42,0,0,0,.77-1.93,3.8,3.8,0,0,0-.11-.89,3.18,3.18,0,0,0-.35-.83.71.71,0,0,1-.13-.57.6.6,0,0,1,.29-.37.73.73,0,0,1,.48-.08.78.78,0,0,1,.46.32,3.57,3.57,0,0,1,.53,1.13A5.09,5.09,0,0,1,13.81,264.25Z"/><path class="cls-1" d="M13.69,259.27a.71.71,0,0,1-.8.81H6.15a.72.72,0,0,1-.81-.81V255a.53.53,0,0,1,.6-.61.54.54,0,0,1,.61.61v3.58h2.3V255.3a.53.53,0,0,1,.6-.61.54.54,0,0,1,.61.61v3.32h2.42V255a.54.54,0,0,1,.61-.61.53.53,0,0,1,.6.61Z"/><path class="cls-1" d="M13.79,252.3a.64.64,0,0,1-.74.71H6a.77.77,0,0,1-.57-.19.62.62,0,0,1-.19-.48.64.64,0,0,1,.1-.4,1.79,1.79,0,0,1,.34-.33l5.48-4.23H6A.71.71,0,1,1,6,246h7.11a.77.77,0,0,1,.52.17.59.59,0,0,1,.19.45.78.78,0,0,1-.11.43,1.56,1.56,0,0,1-.34.35l-5.5,4.23h5.21C13.54,251.6,13.79,251.83,13.79,252.3Z"/><path class="cls-1" d="M13.79,244.07a.65.65,0,0,1-.29.59.69.69,0,0,1-.68,0l-6.93-3.13a1.15,1.15,0,0,1-.49-.37.9.9,0,0,1-.15-.51.86.86,0,0,1,.15-.49,1.15,1.15,0,0,1,.49-.37l6.93-3.14a.71.71,0,0,1,.69,0,.61.61,0,0,1,.28.56.79.79,0,0,1-.16.52,1.49,1.49,0,0,1-.49.33l-1.38.59v4.07l1.38.58a1.59,1.59,0,0,1,.49.32A.65.65,0,0,1,13.79,244.07ZM7,240.67l3.56,1.5v-3L7,240.64Z"/><path class="cls-1" d="M13.69,231.32a.71.71,0,0,1-.8.81H6.15a.72.72,0,0,1-.81-.81v-2.84a3.16,3.16,0,0,1,.58-2,1.91,1.91,0,0,1,1.59-.72A1.89,1.89,0,0,1,9.38,227a2.14,2.14,0,0,1,.71-1.11,2,2,0,0,1,1.27-.39,2.08,2.08,0,0,1,1.72.75,3.21,3.21,0,0,1,.61,2.09Zm-4.81-.65v-1.93c0-1-.39-1.55-1.19-1.55s-1.2.52-1.2,1.55v1.93Zm3.66,0v-2.13c0-1-.41-1.56-1.25-1.56S10,227.5,10,228.54v2.13Z"/><path class="cls-1" d="M4.56,219.64a.45.45,0,0,1,.16.32.49.49,0,0,1-.09.31.44.44,0,0,1-.26.17.38.38,0,0,1-.32-.06l-1.36-.92a.53.53,0,0,1-.26-.41.66.66,0,0,1,.47-.68.46.46,0,0,1,.42.14Zm9.25.6a4.13,4.13,0,0,1-.53,2.11,3.62,3.62,0,0,1-1.5,1.4,4.78,4.78,0,0,1-2.27.5,4.78,4.78,0,0,1-2.27-.5,3.58,3.58,0,0,1-1.49-1.39,4.51,4.51,0,0,1,0-4.24,3.6,3.6,0,0,1,1.49-1.4,4.86,4.86,0,0,1,2.26-.5,4.92,4.92,0,0,1,2.28.5,3.69,3.69,0,0,1,1.5,1.4A4.12,4.12,0,0,1,13.81,220.24Zm-1.3,0a2.17,2.17,0,0,0-.8-1.79,3.37,3.37,0,0,0-2.2-.64,3.41,3.41,0,0,0-2.2.63,2.46,2.46,0,0,0,0,3.59,3.41,3.41,0,0,0,2.2.64,3.43,3.43,0,0,0,2.2-.64A2.19,2.19,0,0,0,12.51,220.24Z"/><path class="cls-1" d="M13.69,213.91a.68.68,0,0,1-.78.77H6.08a.76.76,0,1,1,0-1.51H12.4v-3.44a.58.58,0,0,1,.64-.66.58.58,0,0,1,.65.66Z"/><path class="cls-1" d="M13.81,204.89a3.6,3.6,0,0,1-.89,2.62,3.55,3.55,0,0,1-2.65.91H6a.76.76,0,1,1,0-1.52h4.24a2.46,2.46,0,0,0,1.69-.51,2,2,0,0,0,.56-1.5c0-1.34-.75-2-2.25-2H6a.68.68,0,0,1-.77-.76.67.67,0,0,1,.77-.75h4.25a3.63,3.63,0,0,1,2.65.89A3.57,3.57,0,0,1,13.81,204.89Z"/><path class="cls-1" d="M13.79,193.47a.84.84,0,0,1-.64.83l-7,2.48a.7.7,0,0,1-.64-.06.71.71,0,0,1-.26-.62.76.76,0,0,1,.15-.5,1,1,0,0,1,.46-.28l5.64-1.9-5.62-2q-.63-.23-.63-.75a.64.64,0,0,1,.15-.45,1.32,1.32,0,0,1,.49-.29L11.58,188l-5.72-2a1.09,1.09,0,0,1-.46-.28.74.74,0,0,1-.15-.49.63.63,0,0,1,.26-.55.67.67,0,0,1,.64-.05l7,2.5a1,1,0,0,1,.47.31.73.73,0,0,1,.16.51.76.76,0,0,1-.16.51,1.1,1.1,0,0,1-.48.3l-5.49,1.93,5.5,1.95a1.12,1.12,0,0,1,.47.3A.72.72,0,0,1,13.79,193.47Z"/><path class="cls-1" d="M13.81,177.14a6.7,6.7,0,0,1-.18,1.55,3.9,3.9,0,0,1-.53,1.3.69.69,0,0,1-.44.34.75.75,0,0,1-.49-.05.56.56,0,0,1-.32-.32.54.54,0,0,1,.09-.5,3.75,3.75,0,0,0,.45-1.1,5.36,5.36,0,0,0,.14-1.22,2.31,2.31,0,0,0-.31-1.36,1,1,0,0,0-.81-.43.77.77,0,0,0-.65.3,2.7,2.7,0,0,0-.4,1l-.27,1.3c-.31,1.49-1.08,2.23-2.28,2.23a2.29,2.29,0,0,1-1.37-.42,2.73,2.73,0,0,1-.9-1.14,4.3,4.3,0,0,1-.32-1.7,5,5,0,0,1,.18-1.35,4,4,0,0,1,.52-1.15.67.67,0,0,1,.41-.28.69.69,0,0,1,.45.06.55.55,0,0,1,.29.34.68.68,0,0,1-.1.53,3.33,3.33,0,0,0-.36.89,4.3,4.3,0,0,0-.11,1,2.07,2.07,0,0,0,.35,1.28,1.07,1.07,0,0,0,.9.46.87.87,0,0,0,.68-.28,2.17,2.17,0,0,0,.4-1l.27-1.29a3.56,3.56,0,0,1,.78-1.75,1.85,1.85,0,0,1,1.42-.57,2.22,2.22,0,0,1,1.32.4,2.69,2.69,0,0,1,.88,1.14A4.48,4.48,0,0,1,13.81,177.14Z"/><path class="cls-1" d="M13.79,171.79q0,.75-.78.75H6A.76.76,0,1,1,6,171H9v0l-3.41-3.39a1.83,1.83,0,0,1-.29-.38,1,1,0,0,1-.09-.43.6.6,0,0,1,.18-.49.49.49,0,0,1,.41-.12.79.79,0,0,1,.44.23l3.08,3.12,3.33-3.29a.69.69,0,0,1,.49-.25.57.57,0,0,1,.44.15.73.73,0,0,1,.17.51.75.75,0,0,1-.12.45,2.69,2.69,0,0,1-.34.4L9.83,171v0H13A.68.68,0,0,1,13.79,171.79Z"/><path class="cls-1" d="M13.79,164.88a.64.64,0,0,1-.29.59.66.66,0,0,1-.68,0l-6.93-3.13A1.08,1.08,0,0,1,5.4,162a.84.84,0,0,1-.15-.5A.84.84,0,0,1,5.4,161a1.16,1.16,0,0,1,.49-.38l6.93-3.13a.71.71,0,0,1,.69,0,.62.62,0,0,1,.28.57.83.83,0,0,1-.16.52,1.34,1.34,0,0,1-.49.32l-1.38.59v4.08l1.38.58a1.43,1.43,0,0,1,.49.32A.64.64,0,0,1,13.79,164.88ZM7,161.48,10.55,163v-3L7,161.46Z"/><path class="cls-1" d="M13.69,155.38a.68.68,0,0,1-.78.77H6.08a.76.76,0,1,1,0-1.51H12.4V151.2a.58.58,0,0,1,.64-.66.58.58,0,0,1,.65.66Z"/><path class="cls-1" d="M13.79,148.74a.68.68,0,0,1-.78.76H6A.76.76,0,1,1,6,148h7A.68.68,0,0,1,13.79,148.74Z"/><path class="cls-1" d="M13.79,139.63a.91.91,0,0,1-.59.87l-6.94,3.09a.72.72,0,0,1-.73,0,.7.7,0,0,1-.28-.61.79.79,0,0,1,.15-.52,1.16,1.16,0,0,1,.44-.29l5.91-2.54-5.92-2.55a1.11,1.11,0,0,1-.43-.31.72.72,0,0,1-.15-.49.65.65,0,0,1,.28-.58.7.7,0,0,1,.73,0l6.94,3.09a1.17,1.17,0,0,1,.44.32A.86.86,0,0,1,13.79,139.63Z"/><path class="cls-1" d="M13.79,135.13a.64.64,0,0,1-.29.59.66.66,0,0,1-.68,0l-6.93-3.13a1.08,1.08,0,0,1-.49-.37.84.84,0,0,1-.15-.5.84.84,0,0,1,.15-.49,1.16,1.16,0,0,1,.49-.38l6.93-3.13a.71.71,0,0,1,.69,0,.62.62,0,0,1,.28.57.83.83,0,0,1-.16.52,1.34,1.34,0,0,1-.49.32l-1.38.59v4.08l1.38.58a1.43,1.43,0,0,1,.49.32A.64.64,0,0,1,13.79,135.13ZM7,131.73l3.56,1.51v-3L7,131.71Z"/><path class="cls-1" d="M13.81,123.62a6.7,6.7,0,0,1-.18,1.55,3.9,3.9,0,0,1-.53,1.3.69.69,0,0,1-.44.34.82.82,0,0,1-.49,0,.56.56,0,0,1-.32-.32.54.54,0,0,1,.09-.5,3.75,3.75,0,0,0,.45-1.1,5.36,5.36,0,0,0,.14-1.22,2.31,2.31,0,0,0-.31-1.36,1,1,0,0,0-.81-.43.77.77,0,0,0-.65.3,2.7,2.7,0,0,0-.4,1l-.27,1.3C9.78,126,9,126.7,7.81,126.7a2.29,2.29,0,0,1-1.37-.42,2.79,2.79,0,0,1-.9-1.14,4.3,4.3,0,0,1-.32-1.7,5,5,0,0,1,.18-1.35,4,4,0,0,1,.52-1.15.63.63,0,0,1,.41-.28.69.69,0,0,1,.45.06.55.55,0,0,1,.29.34.68.68,0,0,1-.1.53,3.33,3.33,0,0,0-.36.89,4.3,4.3,0,0,0-.11,1,2.09,2.09,0,0,0,.35,1.28,1.07,1.07,0,0,0,.9.46.87.87,0,0,0,.68-.28,2.17,2.17,0,0,0,.4-1l.27-1.29a3.56,3.56,0,0,1,.78-1.75,1.85,1.85,0,0,1,1.42-.57,2.22,2.22,0,0,1,1.32.4,2.69,2.69,0,0,1,.88,1.14A4.48,4.48,0,0,1,13.81,123.62Z"/><path class="cls-1" d="M15.62,111A8.49,8.49,0,0,1,13.18,112a11,11,0,0,1-2.6.32A10.41,10.41,0,0,1,8,112a8.81,8.81,0,0,1-2.45-1,.56.56,0,0,1-.26-.35.6.6,0,0,1,0-.42.53.53,0,0,1,.3-.29.76.76,0,0,1,.55,0,13.43,13.43,0,0,0,2.21.62,11.3,11.3,0,0,0,2.22.21,11.42,11.42,0,0,0,2.21-.22,17,17,0,0,0,2.22-.61.76.76,0,0,1,.55,0,.59.59,0,0,1,.33.71A.57.57,0,0,1,15.62,111Z"/><path class="cls-1" d="M13.81,105.72A2.59,2.59,0,0,1,12.69,108a5.53,5.53,0,0,1-3.19.78A5.46,5.46,0,0,1,6.31,108a2.64,2.64,0,0,1-1.09-2.27,2.61,2.61,0,0,1,1.09-2.26,5.45,5.45,0,0,1,3.18-.78,5.54,5.54,0,0,1,3.2.78A2.58,2.58,0,0,1,13.81,105.72Zm-1.24,0a1.27,1.27,0,0,0-.75-1.19,5.44,5.44,0,0,0-2.33-.38,5.19,5.19,0,0,0-2.3.38,1.34,1.34,0,0,0,0,2.38,5,5,0,0,0,2.3.39,5.26,5.26,0,0,0,2.33-.39A1.27,1.27,0,0,0,12.57,105.72Z"/><path class="cls-1" d="M11.11,100.86a.61.61,0,0,1-.17.43.61.61,0,0,1-.42.17.6.6,0,0,1-.43-.17.6.6,0,0,1-.16-.43V98.33a.57.57,0,0,1,.59-.59.58.58,0,0,1,.59.59Z"/><path class="cls-1" d="M13.69,95.18a.57.57,0,0,1-.64.65c-.41,0-.61-.21-.61-.65V93.86H7.07l.61,1a.63.63,0,0,1,.08.52.64.64,0,0,1-.3.35A.66.66,0,0,1,7,95.8a.61.61,0,0,1-.42-.33l-1-1.64a4.16,4.16,0,0,1-.24-.47,1.07,1.07,0,0,1-.1-.44.63.63,0,0,1,.13-.41.57.57,0,0,1,.45-.17h6.61V91.13c0-.43.2-.65.61-.65a.57.57,0,0,1,.64.65Z"/><path class="cls-1" d="M13.81,86.37a2.57,2.57,0,0,1-1.12,2.26,5.45,5.45,0,0,1-3.19.79,5.38,5.38,0,0,1-3.19-.79,2.9,2.9,0,0,1,0-4.53,5.53,5.53,0,0,1,3.18-.77,5.54,5.54,0,0,1,3.2.78A2.58,2.58,0,0,1,13.81,86.37Zm-1.24,0a1.27,1.27,0,0,0-.75-1.19,5.44,5.44,0,0,0-2.33-.38,5.19,5.19,0,0,0-2.3.38,1.34,1.34,0,0,0,0,2.38,5,5,0,0,0,2.3.39,5.26,5.26,0,0,0,2.33-.39A1.27,1.27,0,0,0,12.57,86.37Z"/><path class="cls-1" d="M13.81,76.16a3.22,3.22,0,0,1-.37,1.59,2.53,2.53,0,0,1-1.06,1,3.33,3.33,0,0,1-1.61.37,3.23,3.23,0,0,1-1.6-.37,2.58,2.58,0,0,1-1-1,3.33,3.33,0,0,1-.36-1.59,3.73,3.73,0,0,1,.11-.84,2.71,2.71,0,0,1,.36-.86.52.52,0,0,1,.36-.28.61.61,0,0,1,.69.36.51.51,0,0,1-.06.44,2.07,2.07,0,0,0-.31,1,1.49,1.49,0,0,0,.48,1.19,2,2,0,0,0,1.37.42,2.11,2.11,0,0,0,1.38-.42,1.47,1.47,0,0,0,.5-1.19,2.25,2.25,0,0,0-.29-1,.45.45,0,0,1-.06-.44.47.47,0,0,1,.28-.27.64.64,0,0,1,.41,0,.55.55,0,0,1,.36.28,2.79,2.79,0,0,1,.34.82A3.16,3.16,0,0,1,13.81,76.16Z"/><path class="cls-1" d="M13.79,72.49a.66.66,0,0,1-.76.74H8.55a.73.73,0,1,1,0-1.45h.24a1.83,1.83,0,0,1-.74-.72A2.07,2.07,0,0,1,7.78,70a1.63,1.63,0,0,1,1.14-1.7,2,2,0,0,1-.84-.78,2.25,2.25,0,0,1-.3-1.16c0-1.31.8-2,2.38-2H13a.67.67,0,0,1,.76.75c0,.49-.25.73-.76.73H10.22a1.68,1.68,0,0,0-1,.22.86.86,0,0,0-.31.74,1.11,1.11,0,0,0,.41.91,1.75,1.75,0,0,0,1.13.33H13a.75.75,0,1,1,0,1.49H10.22a1.77,1.77,0,0,0-1,.21.85.85,0,0,0-.31.73,1.11,1.11,0,0,0,.41.91,1.69,1.69,0,0,0,1.13.34H13C13.54,71.75,13.79,72,13.79,72.49Z"/><path class="cls-1" d="M15.62,62a.57.57,0,0,1,.27.35.6.6,0,0,1,0,.42.53.53,0,0,1-.3.29A.74.74,0,0,1,15,63a12.92,12.92,0,0,0-2.22-.63,12.27,12.27,0,0,0-2.21-.2,11.29,11.29,0,0,0-2.22.22A17.12,17.12,0,0,0,6.15,63a.76.76,0,0,1-.55,0,.52.52,0,0,1-.3-.3.58.58,0,0,1,0-.41A.53.53,0,0,1,5.53,62,8.62,8.62,0,0,1,8,60.91a10.45,10.45,0,0,1,5.21,0A8.75,8.75,0,0,1,15.62,62Z"/><rect class="cls-2" x="51.55" y="10.8" width="745.44" height="299.68" rx="6.82"/><path class="cls-1" d="M28.45,300.8a.74.74,0,0,1-.55-.17.69.69,0,0,1-.17-.5.77.77,0,0,1,.11-.39,2,2,0,0,1,.31-.41l2.38-2.53a4.52,4.52,0,0,0,.78-1,2,2,0,0,0,.23-.94c0-.8-.48-1.2-1.45-1.2a2.82,2.82,0,0,0-.81.11,2.69,2.69,0,0,0-.81.38.55.55,0,0,1-.49.11.57.57,0,0,1-.34-.29.7.7,0,0,1-.08-.47.66.66,0,0,1,.3-.43,4.24,4.24,0,0,1,1.14-.52,4.69,4.69,0,0,1,1.28-.17,3.11,3.11,0,0,1,2,.6,2.13,2.13,0,0,1,.72,1.73,3.18,3.18,0,0,1-.36,1.46,7,7,0,0,1-1.13,1.5l-1.84,1.92h3.09c.44,0,.65.2.65.61a.57.57,0,0,1-.65.64Z"/><path class="cls-1" d="M35.65,302.07a.53.53,0,0,1-.32.22.34.34,0,0,1-.3-.07.34.34,0,0,1-.15-.26.62.62,0,0,1,.16-.38,1.51,1.51,0,0,0,.22-.36,2.28,2.28,0,0,0,.13-.36.88.88,0,0,1-.59-.27.86.86,0,0,1-.22-.62.88.88,0,0,1,.23-.62.86.86,0,0,1,.64-.24.78.78,0,0,1,.65.28,1.18,1.18,0,0,1,.24.8,3.19,3.19,0,0,1-.13.89A3.15,3.15,0,0,1,35.65,302.07Z"/><path class="cls-1" d="M40.47,300.92a2.58,2.58,0,0,1-2.26-1.12,5.53,5.53,0,0,1-.78-3.19,5.46,5.46,0,0,1,.78-3.19,2.92,2.92,0,0,1,4.53,0,5.45,5.45,0,0,1,.78,3.18,5.54,5.54,0,0,1-.78,3.2A2.59,2.59,0,0,1,40.47,300.92Zm0-1.24a1.25,1.25,0,0,0,1.19-.75,5.26,5.26,0,0,0,.39-2.33,5,5,0,0,0-.39-2.3,1.25,1.25,0,0,0-1.19-.72,1.27,1.27,0,0,0-1.18.72,5,5,0,0,0-.39,2.3,5.26,5.26,0,0,0,.39,2.33A1.27,1.27,0,0,0,40.47,299.68Z"/><line class="cls-3" x1="46.65" y1="296.28" x2="796.98" y2="296.28"/><path class="cls-1" d="M28.45,261.73a.79.79,0,0,1-.55-.17.73.73,0,0,1-.17-.51.82.82,0,0,1,.11-.39,2,2,0,0,1,.31-.4l2.38-2.54a4.5,4.5,0,0,0,.78-1,2,2,0,0,0,.23-.94c0-.81-.48-1.21-1.45-1.21a3.22,3.22,0,0,0-.81.11,2.73,2.73,0,0,0-.81.39.58.58,0,0,1-.49.1.54.54,0,0,1-.34-.29.69.69,0,0,1-.08-.47.67.67,0,0,1,.3-.42,4,4,0,0,1,1.14-.52,4.71,4.71,0,0,1,1.28-.18,3.11,3.11,0,0,1,2,.6,2.14,2.14,0,0,1,.72,1.73,3.15,3.15,0,0,1-.36,1.46,6.54,6.54,0,0,1-1.13,1.5l-1.84,1.92h3.09c.44,0,.65.21.65.62a.57.57,0,0,1-.65.64Z"/><path class="cls-1" d="M35.65,263a.56.56,0,0,1-.32.21.38.38,0,0,1-.3-.06.34.34,0,0,1-.15-.27.59.59,0,0,1,.16-.37,1.57,1.57,0,0,0,.22-.37,1.89,1.89,0,0,0,.13-.35.94.94,0,0,1-.59-.28.83.83,0,0,1-.22-.61.88.88,0,0,1,.23-.62.87.87,0,0,1,.64-.25.81.81,0,0,1,.65.28,1.19,1.19,0,0,1,.24.8,3.26,3.26,0,0,1-.13.9A3.15,3.15,0,0,1,35.65,263Z"/><path class="cls-1" d="M40.55,261.85a5.18,5.18,0,0,1-1.28-.17,4,4,0,0,1-1.2-.51.7.7,0,0,1-.34-.43.72.72,0,0,1,.07-.48.59.59,0,0,1,.35-.29.64.64,0,0,1,.52.09,4.86,4.86,0,0,0,.89.38,3.71,3.71,0,0,0,1,.13,1.65,1.65,0,0,0,1.17-.39,1.32,1.32,0,0,0,.42-1,1.51,1.51,0,0,0-.4-1.08,1.5,1.5,0,0,0-1.11-.4,2.28,2.28,0,0,0-.73.12,2.11,2.11,0,0,0-.7.43,1.17,1.17,0,0,1-.27.19.86.86,0,0,1-.36.08c-.4,0-.6-.19-.6-.58V254a.58.58,0,0,1,.66-.66h3.9q.66,0,.66.63c0,.41-.22.62-.66.62H39.42v2.27a2.46,2.46,0,0,1,1.54-.48,2.67,2.67,0,0,1,1.38.34,2.35,2.35,0,0,1,.91.94,2.8,2.8,0,0,1,.33,1.39,2.76,2.76,0,0,1-.37,1.44,2.53,2.53,0,0,1-1.05,1A3.51,3.51,0,0,1,40.55,261.85Z"/><line class="cls-3" x1="46.65" y1="257.2" x2="796.98" y2="257.2"/><path class="cls-1" d="M30.27,222.77a5.71,5.71,0,0,1-1.33-.17,3.83,3.83,0,0,1-1.2-.49.83.83,0,0,1-.35-.46.61.61,0,0,1,.06-.46.6.6,0,0,1,.36-.28.71.71,0,0,1,.55.09,4,4,0,0,0,.93.38,4.08,4.08,0,0,0,.93.11c1.06,0,1.6-.42,1.6-1.26a1,1,0,0,0-.4-.88,2,2,0,0,0-1.15-.29h-.76a.73.73,0,0,1-.51-.16.64.64,0,0,1-.17-.47A.64.64,0,0,1,29,218a.73.73,0,0,1,.51-.16h.61a1.58,1.58,0,0,0,1.06-.33,1.12,1.12,0,0,0,.39-.9,1,1,0,0,0-.36-.83,1.66,1.66,0,0,0-1.05-.29,3.54,3.54,0,0,0-.82.1,3.24,3.24,0,0,0-.85.38.55.55,0,0,1-.5.08.64.64,0,0,1-.35-.28.61.61,0,0,1-.07-.46.65.65,0,0,1,.33-.42,4.29,4.29,0,0,1,2.39-.68,3.12,3.12,0,0,1,2,.59A2,2,0,0,1,33,216.4a2.05,2.05,0,0,1-.35,1.18,1.94,1.94,0,0,1-.93.74,2,2,0,0,1,1.12.74,2.3,2.3,0,0,1-.4,3.06A3.44,3.44,0,0,1,30.27,222.77Z"/><path class="cls-1" d="M35.65,223.92a.58.58,0,0,1-.32.22.38.38,0,0,1-.3-.07.34.34,0,0,1-.15-.27.61.61,0,0,1,.16-.37,1.57,1.57,0,0,0,.22-.37,1.89,1.89,0,0,0,.13-.35.88.88,0,0,1-.59-.27,1,1,0,0,1,0-1.24.86.86,0,0,1,.64-.24.78.78,0,0,1,.65.28,1.17,1.17,0,0,1,.24.79,3.21,3.21,0,0,1-.13.9A3.15,3.15,0,0,1,35.65,223.92Z"/><path class="cls-1" d="M40.47,222.77a2.58,2.58,0,0,1-2.26-1.12,5.55,5.55,0,0,1-.78-3.19,5.46,5.46,0,0,1,.78-3.19,2.9,2.9,0,0,1,4.53,0,5.45,5.45,0,0,1,.78,3.18,5.56,5.56,0,0,1-.78,3.2A2.59,2.59,0,0,1,40.47,222.77Zm0-1.24a1.25,1.25,0,0,0,1.19-.75,5.29,5.29,0,0,0,.39-2.33,5.11,5.11,0,0,0-.39-2.31,1.26,1.26,0,0,0-1.19-.71,1.28,1.28,0,0,0-1.18.71,5.11,5.11,0,0,0-.39,2.31,5.29,5.29,0,0,0,.39,2.33A1.27,1.27,0,0,0,40.47,221.53Z"/><line class="cls-3" x1="46.65" y1="218.13" x2="796.98" y2="218.13"/><path class="cls-1" d="M30.27,183.69a5.68,5.68,0,0,1-1.33-.16,3.84,3.84,0,0,1-1.2-.5.83.83,0,0,1-.35-.46.61.61,0,0,1,.06-.46.6.6,0,0,1,.36-.28.77.77,0,0,1,.55.1,3.91,3.91,0,0,0,.93.37,3.59,3.59,0,0,0,.93.11c1.06,0,1.6-.42,1.6-1.25a1.05,1.05,0,0,0-.4-.89,2,2,0,0,0-1.15-.29h-.76a.73.73,0,0,1-.51-.16.64.64,0,0,1-.17-.46.62.62,0,0,1,.17-.46.69.69,0,0,1,.51-.17h.61a1.58,1.58,0,0,0,1.06-.33,1.1,1.1,0,0,0,.39-.9,1,1,0,0,0-.36-.83,1.66,1.66,0,0,0-1.05-.29,3.07,3.07,0,0,0-.82.11,3.18,3.18,0,0,0-.85.37.59.59,0,0,1-.5.09.66.66,0,0,1-.35-.29.59.59,0,0,1-.07-.45.65.65,0,0,1,.33-.43,4.28,4.28,0,0,1,2.39-.67,3.12,3.12,0,0,1,2,.58,2,2,0,0,1,.73,1.63,2,2,0,0,1-.35,1.18,1.94,1.94,0,0,1-.93.74,2,2,0,0,1,1.12.74,2.11,2.11,0,0,1,.41,1.31,2.13,2.13,0,0,1-.81,1.76A3.44,3.44,0,0,1,30.27,183.69Z"/><path class="cls-1" d="M35.65,184.84a.53.53,0,0,1-.32.22A.34.34,0,0,1,35,185a.34.34,0,0,1-.15-.26.62.62,0,0,1,.16-.38,1.51,1.51,0,0,0,.22-.36,2.28,2.28,0,0,0,.13-.36.88.88,0,0,1-.59-.27.86.86,0,0,1-.22-.62.88.88,0,0,1,.23-.62.86.86,0,0,1,.64-.24.78.78,0,0,1,.65.28,1.18,1.18,0,0,1,.24.8,3.19,3.19,0,0,1-.13.89A3.15,3.15,0,0,1,35.65,184.84Z"/><path class="cls-1" d="M40.55,183.69a5.16,5.16,0,0,1-1.28-.16,4,4,0,0,1-1.2-.51.72.72,0,0,1-.34-.44.7.7,0,0,1,.07-.47.61.61,0,0,1,.35-.3.64.64,0,0,1,.52.09,3.78,3.78,0,0,0,.89.38,3.32,3.32,0,0,0,1,.13,1.7,1.7,0,0,0,1.17-.38,1.34,1.34,0,0,0,.42-1,1.4,1.4,0,0,0-1.51-1.48,2,2,0,0,0-.73.13,2,2,0,0,0-.7.43,1.58,1.58,0,0,1-.27.18.74.74,0,0,1-.36.09c-.4,0-.6-.19-.6-.58v-3.87a.59.59,0,0,1,.66-.67h3.9q.66,0,.66.63t-.66.63H39.42v2.26a2.52,2.52,0,0,1,1.54-.47,2.76,2.76,0,0,1,1.38.33,2.42,2.42,0,0,1,.91.94,2.83,2.83,0,0,1,.33,1.39,2.71,2.71,0,0,1-.37,1.44,2.41,2.41,0,0,1-1.05,1A3.39,3.39,0,0,1,40.55,183.69Z"/><line class="cls-3" x1="46.65" y1="179.05" x2="796.98" y2="179.05"/><path class="cls-1" d="M31.77,144.59a.78.78,0,0,1-.56-.2.75.75,0,0,1-.2-.56v-.92H28.09a1,1,0,0,1-.59-.16.52.52,0,0,1-.22-.47,1,1,0,0,1,.1-.43,4.69,4.69,0,0,1,.36-.59l3.25-4.7a1.22,1.22,0,0,1,.37-.38.78.78,0,0,1,.46-.13.76.76,0,0,1,.51.18.78.78,0,0,1,.2.58v4.84h.58c.46,0,.68.21.68.63s-.22.63-.68.63h-.58v.92a.75.75,0,0,1-.2.56A.78.78,0,0,1,31.77,144.59ZM31,141.65v-3.18l-2.18,3.18Z"/><path class="cls-1" d="M35.65,145.76a.53.53,0,0,1-.32.22.38.38,0,0,1-.3-.06.37.37,0,0,1-.15-.27.59.59,0,0,1,.16-.37,1.57,1.57,0,0,0,.22-.37,2,2,0,0,0,.13-.36.88.88,0,0,1-.59-.27.85.85,0,0,1-.22-.61.9.9,0,0,1,.23-.63.86.86,0,0,1,.64-.24.78.78,0,0,1,.65.28,1.19,1.19,0,0,1,.24.8,3.19,3.19,0,0,1-.13.89A3,3,0,0,1,35.65,145.76Z"/><path class="cls-1" d="M40.47,144.61a2.58,2.58,0,0,1-2.26-1.12,5.53,5.53,0,0,1-.78-3.19,5.41,5.41,0,0,1,.78-3.18,2.9,2.9,0,0,1,4.53,0,5.39,5.39,0,0,1,.78,3.17,5.54,5.54,0,0,1-.78,3.2A2.59,2.59,0,0,1,40.47,144.61Zm0-1.24a1.25,1.25,0,0,0,1.19-.75,5.23,5.23,0,0,0,.39-2.33,5,5,0,0,0-.39-2.3,1.25,1.25,0,0,0-1.19-.72,1.27,1.27,0,0,0-1.18.72,5,5,0,0,0-.39,2.3,5.23,5.23,0,0,0,.39,2.33A1.27,1.27,0,0,0,40.47,143.37Z"/><line class="cls-3" x1="46.65" y1="139.97" x2="796.98" y2="139.97"/><path class="cls-1" d="M31.77,105.51a.68.68,0,0,1-.76-.76v-.92H28.09a1,1,0,0,1-.59-.15.54.54,0,0,1-.22-.48,1,1,0,0,1,.1-.42,4.66,4.66,0,0,1,.36-.6L31,97.48a1.34,1.34,0,0,1,.37-.38.86.86,0,0,1,.46-.13.72.72,0,0,1,.51.19.74.74,0,0,1,.2.57v4.85h.58c.46,0,.68.2.68.62s-.22.63-.68.63h-.58v.92a.68.68,0,0,1-.76.76ZM31,102.58V99.39l-2.18,3.19Z"/><path class="cls-1" d="M35.65,106.69a.56.56,0,0,1-.32.21.38.38,0,0,1-.3-.06.34.34,0,0,1-.15-.27.59.59,0,0,1,.16-.37,1.57,1.57,0,0,0,.22-.37,1.89,1.89,0,0,0,.13-.35.94.94,0,0,1-.59-.28.83.83,0,0,1-.22-.61.88.88,0,0,1,.23-.62.87.87,0,0,1,.64-.25.81.81,0,0,1,.65.28,1.19,1.19,0,0,1,.24.8,3.26,3.26,0,0,1-.13.9A3.15,3.15,0,0,1,35.65,106.69Z"/><path class="cls-1" d="M40.55,105.54a5.18,5.18,0,0,1-1.28-.17,4,4,0,0,1-1.2-.51.7.7,0,0,1-.34-.43.69.69,0,0,1,.07-.47.58.58,0,0,1,.35-.3.64.64,0,0,1,.52.09,4.86,4.86,0,0,0,.89.38,3.71,3.71,0,0,0,1,.13,1.65,1.65,0,0,0,1.17-.39,1.32,1.32,0,0,0,.42-1,1.51,1.51,0,0,0-.4-1.08,1.5,1.5,0,0,0-1.11-.4,2.28,2.28,0,0,0-.73.12,2.11,2.11,0,0,0-.7.43,1.17,1.17,0,0,1-.27.19.73.73,0,0,1-.36.08c-.4,0-.6-.19-.6-.58V97.73a.58.58,0,0,1,.66-.66h3.9q.66,0,.66.63c0,.41-.22.62-.66.62H39.42v2.27a2.46,2.46,0,0,1,1.54-.48,2.67,2.67,0,0,1,1.38.34,2.35,2.35,0,0,1,.91.94,2.8,2.8,0,0,1,.33,1.39,2.76,2.76,0,0,1-.37,1.44,2.53,2.53,0,0,1-1.05,1A3.51,3.51,0,0,1,40.55,105.54Z"/><line class="cls-3" x1="46.65" y1="100.89" x2="796.98" y2="100.89"/><path class="cls-1" d="M30.5,66.46a5.24,5.24,0,0,1-1.28-.17A4.08,4.08,0,0,1,28,65.78a.67.67,0,0,1-.34-.43.68.68,0,0,1,.06-.47.61.61,0,0,1,.35-.3.66.66,0,0,1,.53.09,4,4,0,0,0,.89.38,3.32,3.32,0,0,0,1,.13,1.7,1.7,0,0,0,1.17-.38,1.36,1.36,0,0,0,.42-1,1.41,1.41,0,0,0-1.51-1.48,2.24,2.24,0,0,0-.73.12,2.29,2.29,0,0,0-.7.43,1.17,1.17,0,0,1-.27.19.74.74,0,0,1-.36.09.52.52,0,0,1-.6-.58V58.65a.58.58,0,0,1,.66-.66h3.9q.66,0,.66.63t-.66.63H29.38v2.26A2.45,2.45,0,0,1,30.92,61a2.76,2.76,0,0,1,1.38.33,2.42,2.42,0,0,1,.91.94,3.12,3.12,0,0,1,0,2.83,2.59,2.59,0,0,1-1.05,1A3.52,3.52,0,0,1,30.5,66.46Z"/><path class="cls-1" d="M35.65,67.61a.58.58,0,0,1-.32.22.34.34,0,0,1-.3-.07.34.34,0,0,1-.15-.26.62.62,0,0,1,.16-.38,1.74,1.74,0,0,0,.22-.36,2.28,2.28,0,0,0,.13-.36.88.88,0,0,1-.59-.27,1,1,0,0,1,0-1.24.86.86,0,0,1,.64-.24.78.78,0,0,1,.65.28,1.18,1.18,0,0,1,.24.8,3.19,3.19,0,0,1-.13.89A3.15,3.15,0,0,1,35.65,67.61Z"/><path class="cls-1" d="M40.47,66.46a2.58,2.58,0,0,1-2.26-1.12,5.55,5.55,0,0,1-.78-3.19A5.46,5.46,0,0,1,38.21,59a2.9,2.9,0,0,1,4.53,0,5.45,5.45,0,0,1,.78,3.18,5.56,5.56,0,0,1-.78,3.2A2.59,2.59,0,0,1,40.47,66.46Zm0-1.24a1.25,1.25,0,0,0,1.19-.75,5.29,5.29,0,0,0,.39-2.33,5.11,5.11,0,0,0-.39-2.31,1.26,1.26,0,0,0-1.19-.71,1.28,1.28,0,0,0-1.18.71,5.11,5.11,0,0,0-.39,2.31,5.29,5.29,0,0,0,.39,2.33A1.27,1.27,0,0,0,40.47,65.22Z"/><line class="cls-3" x1="46.65" y1="61.82" x2="796.98" y2="61.82"/><path class="cls-1" d="M30.5,27.38a5.22,5.22,0,0,1-1.28-.16A4.08,4.08,0,0,1,28,26.71a.72.72,0,0,1-.34-.44.69.69,0,0,1,.06-.47.64.64,0,0,1,.35-.3.66.66,0,0,1,.53.09,3.62,3.62,0,0,0,.89.38,3.32,3.32,0,0,0,1,.13,1.7,1.7,0,0,0,1.17-.38,1.34,1.34,0,0,0,.42-1,1.46,1.46,0,0,0-.41-1.07,1.48,1.48,0,0,0-1.1-.41,2,2,0,0,0-.73.13,2,2,0,0,0-.7.43,1.58,1.58,0,0,1-.27.18.74.74,0,0,1-.36.09c-.4,0-.6-.19-.6-.58V19.58a.59.59,0,0,1,.66-.67h3.9q.66,0,.66.63t-.66.63H29.38v2.26A2.52,2.52,0,0,1,30.92,22a2.67,2.67,0,0,1,1.38.34,2.33,2.33,0,0,1,.91.93,3.12,3.12,0,0,1,0,2.83,2.53,2.53,0,0,1-1.05,1A3.4,3.4,0,0,1,30.5,27.38Z"/><path class="cls-1" d="M35.65,28.53a.53.53,0,0,1-.32.22.38.38,0,0,1-.3-.06.37.37,0,0,1-.15-.27.57.57,0,0,1,.16-.37,1.8,1.8,0,0,0,.22-.37,2.28,2.28,0,0,0,.13-.36.88.88,0,0,1-.59-.27.86.86,0,0,1-.22-.62.88.88,0,0,1,.23-.62.86.86,0,0,1,.64-.24.78.78,0,0,1,.65.28,1.18,1.18,0,0,1,.24.8,3.19,3.19,0,0,1-.13.89A3.15,3.15,0,0,1,35.65,28.53Z"/><path class="cls-1" d="M40.55,27.38a5.16,5.16,0,0,1-1.28-.16,4,4,0,0,1-1.2-.51.72.72,0,0,1-.34-.44.69.69,0,0,1,.07-.47.61.61,0,0,1,.35-.3.64.64,0,0,1,.52.09,3.78,3.78,0,0,0,.89.38,3.32,3.32,0,0,0,1,.13,1.7,1.7,0,0,0,1.17-.38,1.34,1.34,0,0,0,.42-1A1.4,1.4,0,0,0,40.6,23.2a2,2,0,0,0-.73.13,2,2,0,0,0-.7.43,1.58,1.58,0,0,1-.27.18.74.74,0,0,1-.36.09c-.4,0-.6-.19-.6-.58V19.58a.59.59,0,0,1,.66-.67h3.9q.66,0,.66.63t-.66.63H39.42v2.26A2.52,2.52,0,0,1,41,22a2.67,2.67,0,0,1,1.38.34,2.33,2.33,0,0,1,.91.93,2.83,2.83,0,0,1,.33,1.39,2.71,2.71,0,0,1-.37,1.44,2.41,2.41,0,0,1-1.05,1A3.39,3.39,0,0,1,40.55,27.38Z"/><line class="cls-3" x1="46.65" y1="22.74" x2="796.98" y2="22.74"/><line class="cls-2" x1="73.18" y1="352.18" x2="199.7" y2="352.18"/><polygon class="cls-1" points="75.16 355.08 64.32 352.18 75.16 349.27 75.16 355.08"/><line class="cls-2" x1="461.62" y1="352.18" x2="335.09" y2="352.18"/><polygon class="cls-1" points="459.63 349.27 470.48 352.18 459.63 355.08 459.63 349.27"/><path class="cls-1" d="M217.48,356.31a5.55,5.55,0,0,1-2.82-.67,4.41,4.41,0,0,1-1.81-1.89,6.9,6.9,0,0,1,0-5.76,4.46,4.46,0,0,1,1.81-1.89,5.65,5.65,0,0,1,2.82-.66,5.91,5.91,0,0,1,1.62.21,4.81,4.81,0,0,1,1.4.6,1,1,0,0,1,.46.6.91.91,0,0,1-.09.65.84.84,0,0,1-.49.39.87.87,0,0,1-.74-.18,3.56,3.56,0,0,0-1-.43,4.53,4.53,0,0,0-1.1-.13,3.06,3.06,0,0,0-2.44,1,4.94,4.94,0,0,0,0,5.51,3,3,0,0,0,2.44,1,4.79,4.79,0,0,0,1.13-.14,4.41,4.41,0,0,0,1.05-.44.9.9,0,0,1,.72-.17.73.73,0,0,1,.47.37.85.85,0,0,1,.1.61,1,1,0,0,1-.41.58,4.51,4.51,0,0,1-1.43.67A6.44,6.44,0,0,1,217.48,356.31Z"/><path class="cls-1" d="M223.08,356.16a1,1,0,0,1-.74-.26.82.82,0,0,1-.21-.69,1.76,1.76,0,0,1,.36-.87l5.28-7.15h-4.84c-.57,0-.86-.27-.86-.81s.29-.8.86-.8h6.21a1,1,0,0,1,.74.27.82.82,0,0,1,.22.67,1.71,1.71,0,0,1-.38.88l-5.28,7.15h5.07c.57,0,.86.27.86.8s-.29.81-.86.81Z"/><path class="cls-1" d="M231.67,356.28a.82.82,0,0,1-.75-.36.87.87,0,0,1,0-.87l4-8.77a1.53,1.53,0,0,1,.47-.63,1.17,1.17,0,0,1,.64-.19,1.11,1.11,0,0,1,.62.19,1.45,1.45,0,0,1,.47.63l4,8.77a.92.92,0,0,1,0,.88.78.78,0,0,1-.72.35,1,1,0,0,1-.65-.2,1.68,1.68,0,0,1-.42-.62l-.75-1.75h-5.16l-.73,1.75a1.79,1.79,0,0,1-.41.62A.85.85,0,0,1,231.67,356.28Zm4.31-8.61-1.91,4.52h3.84l-1.9-4.52Z"/><path class="cls-1" d="M246.25,356.31a7.89,7.89,0,0,1-1.95-.23,5.07,5.07,0,0,1-1.66-.67.89.89,0,0,1-.42-.55,1,1,0,0,1,.05-.63.73.73,0,0,1,.41-.4.66.66,0,0,1,.63.11,5.16,5.16,0,0,0,1.4.57,6.43,6.43,0,0,0,1.54.18,2.92,2.92,0,0,0,1.73-.4,1.2,1.2,0,0,0,.54-1,1,1,0,0,0-.38-.83,3.4,3.4,0,0,0-1.32-.49l-1.65-.35c-1.88-.4-2.82-1.36-2.82-2.89a2.89,2.89,0,0,1,.53-1.73,3.4,3.4,0,0,1,1.45-1.14,5.36,5.36,0,0,1,2.15-.4,6.36,6.36,0,0,1,1.71.22,4.92,4.92,0,0,1,1.45.66.81.81,0,0,1,.36.52.86.86,0,0,1-.07.57.74.74,0,0,1-.43.36.85.85,0,0,1-.68-.13,4.3,4.3,0,0,0-1.13-.45,5.32,5.32,0,0,0-1.23-.14,2.66,2.66,0,0,0-1.62.44,1.35,1.35,0,0,0-.58,1.14,1.09,1.09,0,0,0,.36.86,2.63,2.63,0,0,0,1.23.51l1.63.34a4.68,4.68,0,0,1,2.22,1,2.35,2.35,0,0,1,.72,1.8,2.77,2.77,0,0,1-.51,1.66,3.2,3.2,0,0,1-1.44,1.12A5.61,5.61,0,0,1,246.25,356.31Z"/><path class="cls-1" d="M257.11,356.16a.86.86,0,0,1-1-1v-8.65a1,1,0,1,1,1.92,0v8h4.35c.56,0,.84.26.84.8a.74.74,0,0,1-.84.83Z"/><path class="cls-1" d="M265.59,356.16a.9.9,0,0,1-1-1v-8.53a.9.9,0,0,1,1-1h5.35q.78,0,.78.75a.69.69,0,0,1-.78.79h-4.53V350h4.2a.76.76,0,1,1,0,1.52h-4.2v3.08h4.53a.77.77,0,1,1,0,1.53Z"/><path class="cls-1" d="M278.43,356.31a5.62,5.62,0,0,1-2.83-.67,4.46,4.46,0,0,1-1.81-1.89,6.9,6.9,0,0,1,0-5.76,4.52,4.52,0,0,1,1.81-1.89,5.72,5.72,0,0,1,2.83-.66,5.91,5.91,0,0,1,1.62.21,4.75,4.75,0,0,1,1.39.6,1,1,0,0,1,.47.6.91.91,0,0,1-.09.65.79.79,0,0,1-1.23.21,3.62,3.62,0,0,0-1-.43,4.45,4.45,0,0,0-1.09-.13,3.09,3.09,0,0,0-2.45,1,4.94,4.94,0,0,0,0,5.51,3,3,0,0,0,2.45,1,4.71,4.71,0,0,0,1.12-.14,4.41,4.41,0,0,0,1.05-.44.9.9,0,0,1,.72-.17.78.78,0,0,1,.48.37.9.9,0,0,1,.09.61,1,1,0,0,1-.4.58,4.61,4.61,0,0,1-1.43.67A6.49,6.49,0,0,1,278.43,356.31Z"/><path class="cls-1" d="M284,356.16a1,1,0,0,1-.74-.26.85.85,0,0,1-.21-.69,1.79,1.79,0,0,1,.37-.87l5.28-7.15h-4.85c-.57,0-.85-.27-.85-.81s.28-.8.85-.8h6.21a1,1,0,0,1,.75.27.85.85,0,0,1,.21.67,1.69,1.69,0,0,1-.37.88l-5.28,7.15h5.07c.57,0,.85.27.85.8s-.28.81-.85.81Z"/><path class="cls-1" d="M293.68,356.16a.9.9,0,0,1-1-1v-8.53a.9.9,0,0,1,1-1H299q.78,0,.78.75a.69.69,0,0,1-.78.79h-4.53V350h4.2a.76.76,0,1,1,0,1.52h-4.2v3.08H299a.77.77,0,1,1,0,1.53Z"/><path class="cls-1" d="M302.52,356.28a.81.81,0,0,1-.9-.93v-8.93a1,1,0,0,1,.23-.71.81.81,0,0,1,.61-.25.92.92,0,0,1,.52.13,2.91,2.91,0,0,1,.41.43l5.35,6.94v-6.58a.9.9,0,1,1,1.79,0v9a1,1,0,0,1-.21.66.72.72,0,0,1-.57.24,1,1,0,0,1-.55-.13,2.27,2.27,0,0,1-.44-.44l-5.36-7v6.6C303.4,356,303.11,356.28,302.52,356.28Z"/><path class="cls-1" d="M313.8,356.28a.86.86,0,0,1-1-1v-8.83c0-.67.32-1,1-1s1,.33,1,1v8.83A.86.86,0,0,1,313.8,356.28Z"/><path class="cls-1" d="M317.17,356.28a.82.82,0,0,1-.75-.36.87.87,0,0,1,0-.87l4-8.77a1.45,1.45,0,0,1,.47-.63,1.15,1.15,0,0,1,.64-.19,1.13,1.13,0,0,1,.62.19,1.53,1.53,0,0,1,.47.63l4,8.77a.92.92,0,0,1,0,.88.78.78,0,0,1-.72.35,1,1,0,0,1-.66-.2,1.8,1.8,0,0,1-.41-.62l-.75-1.75h-5.16l-.73,1.75a1.79,1.79,0,0,1-.41.62A.85.85,0,0,1,317.17,356.28Zm4.31-8.61-1.91,4.52h3.84l-1.9-4.52Z"/></g><g id="Warstwa_2" data-name="Warstwa 2"><line class="cls-3" x1="64.32" y1="10.8" x2="64.32" y2="317.29"/><path class="cls-1" d="M64.32,329a2.59,2.59,0,0,1-2.26-1.12,5.47,5.47,0,0,1-.79-3.19,5.38,5.38,0,0,1,.79-3.19,2.89,2.89,0,0,1,4.52,0,5.45,5.45,0,0,1,.78,3.18,5.56,5.56,0,0,1-.78,3.2A2.61,2.61,0,0,1,64.32,329Zm0-1.25a1.26,1.26,0,0,0,1.19-.74,5.47,5.47,0,0,0,.38-2.33,5.27,5.27,0,0,0-.38-2.31,1.35,1.35,0,0,0-2.38,0,5.11,5.11,0,0,0-.39,2.31,5.29,5.29,0,0,0,.39,2.33A1.26,1.26,0,0,0,64.32,327.71Z"/><line class="cls-3" x1="132.01" y1="10.8" x2="132.01" y2="317.29"/><path class="cls-1" d="M126.75,328.84a.57.57,0,0,1-.65-.64c0-.41.22-.62.65-.62h1.33v-5.36l-1,.6a.62.62,0,0,1-.51.09.65.65,0,0,1-.35-.3.63.63,0,0,1-.07-.47.61.61,0,0,1,.33-.42l1.63-1a2.69,2.69,0,0,1,.48-.24,1,1,0,0,1,.43-.1.64.64,0,0,1,.42.13.55.55,0,0,1,.16.45v6.6h1.21c.44,0,.65.21.65.62a.57.57,0,0,1-.65.64Z"/><path class="cls-1" d="M135.63,329a5.3,5.3,0,0,1-1.28-.17,4.08,4.08,0,0,1-1.19-.51.67.67,0,0,1-.34-.43.69.69,0,0,1,.07-.47.55.55,0,0,1,.35-.3.64.64,0,0,1,.52.09,4,4,0,0,0,.89.38,3.32,3.32,0,0,0,1,.13,1.65,1.65,0,0,0,1.17-.39,1.32,1.32,0,0,0,.42-1,1.46,1.46,0,0,0-.41-1.07,1.43,1.43,0,0,0-1.1-.41,2.28,2.28,0,0,0-.73.12,2.11,2.11,0,0,0-.7.43,1.17,1.17,0,0,1-.27.19.74.74,0,0,1-.36.09.52.52,0,0,1-.6-.58v-3.88a.58.58,0,0,1,.66-.66h3.9q.66,0,.66.63t-.66.63h-3.08V324a2.46,2.46,0,0,1,1.54-.48,2.77,2.77,0,0,1,1.38.34,2.42,2.42,0,0,1,.91.94,3,3,0,0,1,0,2.83,2.59,2.59,0,0,1-1.05,1A3.52,3.52,0,0,1,135.63,329Z"/><line class="cls-3" x1="199.7" y1="10.8" x2="199.7" y2="317.29"/><path class="cls-1" d="M196,329a5.69,5.69,0,0,1-1.32-.17,3.61,3.61,0,0,1-1.2-.5.74.74,0,0,1-.35-.45.61.61,0,0,1,.06-.46.55.55,0,0,1,.36-.28.71.71,0,0,1,.55.09,4,4,0,0,0,.93.38,4.08,4.08,0,0,0,.93.11c1.06,0,1.6-.42,1.6-1.26a1,1,0,0,0-.4-.88,2,2,0,0,0-1.16-.29h-.75a.71.71,0,0,1-.51-.16.66.66,0,0,1-.17-.47.64.64,0,0,1,.17-.46.71.71,0,0,1,.51-.16h.61a1.6,1.6,0,0,0,1.06-.33,1.12,1.12,0,0,0,.39-.91,1,1,0,0,0-.36-.82,1.7,1.7,0,0,0-1.05-.29,3.15,3.15,0,0,0-.83.1,3.66,3.66,0,0,0-.84.37.56.56,0,0,1-.5.09.61.61,0,0,1-.35-.28.66.66,0,0,1-.08-.46.67.67,0,0,1,.34-.42,4.29,4.29,0,0,1,2.39-.68,3.12,3.12,0,0,1,2,.59,2,2,0,0,1,.73,1.63,2.05,2.05,0,0,1-.35,1.18,1.87,1.87,0,0,1-.93.73,2,2,0,0,1,1.52,2.05,2.11,2.11,0,0,1-.8,1.76A3.47,3.47,0,0,1,196,329Z"/><path class="cls-1" d="M203.26,329a2.61,2.61,0,0,1-2.27-1.12,5.55,5.55,0,0,1-.78-3.19,5.46,5.46,0,0,1,.78-3.19,2.64,2.64,0,0,1,2.27-1.09,2.61,2.61,0,0,1,2.26,1.09,5.45,5.45,0,0,1,.78,3.18,5.56,5.56,0,0,1-.78,3.2A2.61,2.61,0,0,1,203.26,329Zm0-1.25a1.26,1.26,0,0,0,1.19-.74,5.47,5.47,0,0,0,.38-2.33,5.27,5.27,0,0,0-.38-2.31,1.35,1.35,0,0,0-2.38,0,5.11,5.11,0,0,0-.39,2.31,5.29,5.29,0,0,0,.39,2.33A1.26,1.26,0,0,0,203.26,327.71Z"/><line class="cls-3" x1="470.48" y1="10.8" x2="470.48" y2="317.29"/><path class="cls-1" d="M466.27,329a3.57,3.57,0,0,1-1-.16,3.67,3.67,0,0,1-1-.48.61.61,0,0,1-.27-.4.81.81,0,0,1,.07-.46.59.59,0,0,1,.32-.3.62.62,0,0,1,.51.09,2.82,2.82,0,0,0,.75.33,2.55,2.55,0,0,0,.72.1,1.85,1.85,0,0,0,1.57-.72,3.58,3.58,0,0,0,.55-2.16v-.34a2.16,2.16,0,0,1-.81,1,2.31,2.31,0,0,1-1.28.36,2.35,2.35,0,0,1-2.15-1.29,3.16,3.16,0,0,1,0-2.83,2.5,2.5,0,0,1,1-1,3.13,3.13,0,0,1,3.83.73,4.82,4.82,0,0,1,.85,3.06,5.09,5.09,0,0,1-.95,3.28A3.22,3.22,0,0,1,466.27,329Zm.44-4.32a1.38,1.38,0,0,0,1-.43,1.6,1.6,0,0,0,.39-1.11,1.57,1.57,0,0,0-.39-1.11,1.5,1.5,0,0,0-2.08,0,1.57,1.57,0,0,0-.39,1.11,1.6,1.6,0,0,0,.39,1.11A1.38,1.38,0,0,0,466.71,324.64Z"/><path class="cls-1" d="M474,329a2.59,2.59,0,0,1-2.26-1.12,5.54,5.54,0,0,1-.79-3.19,5.46,5.46,0,0,1,.79-3.19,2.9,2.9,0,0,1,4.53,0,7,7,0,0,1,0,6.38A2.59,2.59,0,0,1,474,329Zm0-1.25a1.25,1.25,0,0,0,1.19-.74,5.31,5.31,0,0,0,.38-2.33,5.13,5.13,0,0,0-.38-2.31,1.35,1.35,0,0,0-2.38,0,5.11,5.11,0,0,0-.39,2.31,5.29,5.29,0,0,0,.39,2.33A1.26,1.26,0,0,0,474,327.71Z"/><line class="cls-3" x1="605.86" y1="61.82" x2="605.86" y2="317.29"/><path class="cls-1" d="M597.05,328.84a.57.57,0,0,1-.65-.64c0-.41.22-.62.65-.62h1.33v-5.36l-1,.6a.57.57,0,0,1-.86-.21.69.69,0,0,1-.08-.47.66.66,0,0,1,.34-.42l1.63-1a2.69,2.69,0,0,1,.48-.24,1,1,0,0,1,.43-.1.64.64,0,0,1,.42.13.55.55,0,0,1,.16.45v6.6h1.21c.44,0,.65.21.65.62a.57.57,0,0,1-.65.64Z"/><path class="cls-1" d="M603.88,328.84a.79.79,0,0,1-.55-.17.7.7,0,0,1-.17-.5.83.83,0,0,1,.11-.4,2,2,0,0,1,.31-.4l2.38-2.53a4.75,4.75,0,0,0,.78-1,2,2,0,0,0,.23-.94c0-.81-.48-1.21-1.45-1.21a3.22,3.22,0,0,0-.81.11,3,3,0,0,0-.81.39.55.55,0,0,1-.49.1.54.54,0,0,1-.34-.29.67.67,0,0,1-.08-.46.66.66,0,0,1,.3-.43,4,4,0,0,1,1.14-.52,4.71,4.71,0,0,1,1.28-.18,3,3,0,0,1,2,.61,2.13,2.13,0,0,1,.72,1.73,3.11,3.11,0,0,1-.36,1.45,6.79,6.79,0,0,1-1.13,1.51l-1.84,1.91h3.09c.44,0,.65.21.65.62a.57.57,0,0,1-.65.64Z"/><path class="cls-1" d="M613,329a2.59,2.59,0,0,1-2.26-1.12,5.47,5.47,0,0,1-.79-3.19,5.38,5.38,0,0,1,.79-3.19,2.9,2.9,0,0,1,4.53,0,7,7,0,0,1,0,6.38A2.59,2.59,0,0,1,613,329Zm0-1.25a1.26,1.26,0,0,0,1.19-.74,5.31,5.31,0,0,0,.38-2.33,5.13,5.13,0,0,0-.38-2.31,1.35,1.35,0,0,0-2.38,0,5.11,5.11,0,0,0-.39,2.31,5.29,5.29,0,0,0,.39,2.33A1.26,1.26,0,0,0,613,327.71Z"/><line class="cls-3" x1="741.25" y1="10.8" x2="741.25" y2="317.29"/><path class="cls-4" d="M732.45,328.84a.79.79,0,0,1-.9-.89.78.78,0,0,1,.9-.87h1.06v-4.23l-.72.44a.86.86,0,0,1-.58.14.75.75,0,0,1-.46-.23.87.87,0,0,1-.25-.46.92.92,0,0,1,0-.54.94.94,0,0,1,.42-.47l1.64-1a2.09,2.09,0,0,1,1.12-.33,1,1,0,0,1,.7.23.87.87,0,0,1,.25.67v5.8h1a.78.78,0,0,1,.9.87.79.79,0,0,1-.9.89Z"/><path class="cls-4" d="M741.19,329a5.71,5.71,0,0,1-1.2-.13,4.81,4.81,0,0,1-1.16-.4.94.94,0,0,1-.44-.44.83.83,0,0,1-.09-.53.9.9,0,0,1,.65-.76.8.8,0,0,1,.59.09,3.91,3.91,0,0,0,.81.29,3.83,3.83,0,0,0,.79.09,1.52,1.52,0,0,0,.94-.26.88.88,0,0,0,.33-.73.93.93,0,0,0-.32-.74,1.23,1.23,0,0,0-.85-.28,2,2,0,0,0-.52.07,2,2,0,0,0-.57.27l-.36.16a1.22,1.22,0,0,1-.46.09c-.55,0-.83-.26-.83-.77v-3.58a.82.82,0,0,1,.92-.92h3.72a.8.8,0,0,1,.91.89c0,.58-.3.87-.91.87h-2.59v1.47a2.65,2.65,0,0,1,1.25-.28,2.77,2.77,0,0,1,1.4.34,2.36,2.36,0,0,1,.94.94,3.05,3.05,0,0,1-.06,2.91,2.63,2.63,0,0,1-1.14,1A4.08,4.08,0,0,1,741.19,329Z"/><path class="cls-4" d="M748.35,329a2.73,2.73,0,0,1-2.36-1.13,5.37,5.37,0,0,1-.82-3.2,5.22,5.22,0,0,1,.82-3.18,3.09,3.09,0,0,1,4.73,0,5.18,5.18,0,0,1,.82,3.16,5.42,5.42,0,0,1-.82,3.22A2.74,2.74,0,0,1,748.35,329Zm0-1.73a.91.91,0,0,0,.85-.62,5.14,5.14,0,0,0,.28-2,4.8,4.8,0,0,0-.28-1.94.9.9,0,0,0-.85-.59.88.88,0,0,0-.84.59,4.8,4.8,0,0,0-.28,1.94,5.14,5.14,0,0,0,.28,2A.89.89,0,0,0,748.35,327.24Z"/></g><g id="Warstwa_4" data-name="Warstwa 4"><polyline class="cls-5" points="64.32 40.53 131.9 78.66 199.77 95.95 470.48 95.95 605.86 122.56 741.25 122.56"/><circle class="cls-6" cx="64.32" cy="42.09" r="5.99"/><line class="cls-7" x1="64.32" y1="21.55" x2="64.32" y2="36.1"/><line class="cls-7" x1="69.47" y1="22.47" x2="59.16" y2="22.47"/><circle class="cls-6" cx="131.68" cy="79.95" r="5.99"/><line class="cls-7" x1="131.68" y1="59.41" x2="131.68" y2="73.96"/><line class="cls-7" x1="136.84" y1="60.33" x2="126.53" y2="60.33"/><circle class="cls-6" cx="199.48" cy="96.26" r="5.99"/><line class="cls-7" x1="199.48" y1="75.73" x2="199.48" y2="90.27"/><line class="cls-7" x1="204.64" y1="76.64" x2="194.33" y2="76.64"/><circle class="cls-6" cx="470.48" cy="94.5" r="5.99"/><line class="cls-7" x1="470.48" y1="73.96" x2="470.48" y2="88.51"/><line class="cls-7" x1="475.63" y1="74.88" x2="465.32" y2="74.88"/><line class="cls-7" x1="470.48" y1="116.03" x2="470.48" y2="101.48"/><line class="cls-7" x1="465.32" y1="115.11" x2="475.63" y2="115.11"/><circle class="cls-6" cx="605.86" cy="122.78" r="5.99"/><line class="cls-7" x1="605.86" y1="102.25" x2="605.86" y2="116.79"/><line class="cls-7" x1="611.02" y1="103.16" x2="600.71" y2="103.16"/><line class="cls-7" x1="605.86" y1="144.31" x2="605.86" y2="129.76"/><line class="cls-7" x1="600.71" y1="143.4" x2="611.02" y2="143.4"/><circle class="cls-6" cx="741.25" cy="122.28" r="5.99"/><line class="cls-7" x1="741.25" y1="101.75" x2="741.25" y2="116.3"/><line class="cls-7" x1="746.4" y1="102.66" x2="736.09" y2="102.66"/><line class="cls-7" x1="741.25" y1="143.81" x2="741.25" y2="129.26"/><line class="cls-7" x1="736.09" y1="142.9" x2="746.4" y2="142.9"/></g><g id="Warstwa_5" data-name="Warstwa 5"><polyline class="cls-8" points="64.22 79.95 131.68 133.64 199.77 160.64 470.48 199.49 605.86 249.81 741.25 266.03"/><circle class="cls-9" cx="64.22" cy="81.98" r="5.99"/><line class="cls-10" x1="64.22" y1="61.44" x2="64.22" y2="75.99"/><line class="cls-10" x1="69.37" y1="62.36" x2="59.06" y2="62.36"/><line class="cls-10" x1="64.22" y1="103.51" x2="64.22" y2="88.96"/><line class="cls-10" x1="59.06" y1="102.6" x2="69.37" y2="102.6"/><circle class="cls-9" cx="133.22" cy="131.56" r="5.99"/><line class="cls-10" x1="133.22" y1="111.02" x2="133.22" y2="125.57"/><line class="cls-10" x1="138.37" y1="111.94" x2="128.06" y2="111.94"/><line class="cls-10" x1="133.22" y1="153.09" x2="133.22" y2="138.54"/><line class="cls-10" x1="128.06" y1="152.18" x2="138.37" y2="152.18"/><circle class="cls-9" cx="199.7" cy="160.14" r="5.99"/><line class="cls-10" x1="199.7" y1="139.61" x2="199.7" y2="154.16"/><line class="cls-10" x1="204.86" y1="140.52" x2="194.55" y2="140.52"/><line class="cls-10" x1="199.7" y1="181.68" x2="199.7" y2="167.13"/><line class="cls-10" x1="194.55" y1="180.76" x2="204.86" y2="180.76"/><circle class="cls-9" cx="470.48" cy="199.5" r="5.99"/><line class="cls-10" x1="470.48" y1="178.97" x2="470.48" y2="193.52"/><line class="cls-10" x1="475.63" y1="179.88" x2="465.32" y2="179.88"/><line class="cls-10" x1="470.48" y1="221.03" x2="470.48" y2="206.48"/><line class="cls-10" x1="465.32" y1="220.12" x2="475.63" y2="220.12"/><circle class="cls-9" cx="605.86" cy="249.81" r="5.99"/><line class="cls-10" x1="605.86" y1="229.28" x2="605.86" y2="243.82"/><line class="cls-10" x1="611.02" y1="230.19" x2="600.71" y2="230.19"/><line class="cls-10" x1="605.86" y1="271.34" x2="605.86" y2="256.79"/><line class="cls-10" x1="600.71" y1="270.43" x2="611.02" y2="270.43"/><circle class="cls-9" cx="740.42" cy="265.54" r="5.99"/><line class="cls-10" x1="740.42" y1="245" x2="740.42" y2="259.55"/><line class="cls-10" x1="745.57" y1="245.92" x2="735.26" y2="245.92"/><line class="cls-10" x1="740.42" y1="287.07" x2="740.42" y2="272.52"/><line class="cls-10" x1="735.26" y1="286.15" x2="745.57" y2="286.15"/><path class="cls-1" d="M469,170.94c-.27-.16-.31-.4-.1-.72l.88-1.4-1.63.06a.76.76,0,0,1-.43-.11.39.39,0,0,1-.16-.34.35.35,0,0,1,.16-.32.63.63,0,0,1,.43-.1l1.65.06-.89-1.42q-.31-.48.09-.72a.38.38,0,0,1,.37,0,.71.71,0,0,1,.31.33l.78,1.5.77-1.5a.71.71,0,0,1,.31-.33.42.42,0,0,1,.39,0c.25.17.27.41.07.73l-.88,1.41,1.65-.06a.6.6,0,0,1,.42.1.35.35,0,0,1,.16.32.39.39,0,0,1-.16.34.72.72,0,0,1-.42.11l-1.64-.06.87,1.4c.21.32.19.55-.07.7a.37.37,0,0,1-.39.05.71.71,0,0,1-.31-.33l-.77-1.5-.8,1.5a.7.7,0,0,1-.3.33A.34.34,0,0,1,469,170.94Z"/><path class="cls-1" d="M601,219.45c-.27-.16-.3-.4-.1-.72l.88-1.4-1.63.06a.69.69,0,0,1-.43-.11.38.38,0,0,1-.16-.34.36.36,0,0,1,.16-.32.69.69,0,0,1,.43-.1l1.65.06-.89-1.42q-.32-.48.09-.72a.38.38,0,0,1,.37,0,.71.71,0,0,1,.31.33l.78,1.5.78-1.5a.7.7,0,0,1,.3-.33.42.42,0,0,1,.39,0c.25.17.27.41.07.73l-.88,1.41,1.65-.06a.66.66,0,0,1,.42.1.36.36,0,0,1,.16.32.38.38,0,0,1-.16.34.66.66,0,0,1-.42.11l-1.64-.06.87,1.4c.21.32.19.55-.07.7a.37.37,0,0,1-.39,0,.7.7,0,0,1-.3-.33l-.78-1.5-.8,1.5a.7.7,0,0,1-.3.33A.34.34,0,0,1,601,219.45Z"/><path class="cls-1" d="M607.78,219.45c-.27-.16-.3-.4-.1-.72l.88-1.4-1.63.06a.69.69,0,0,1-.43-.11.38.38,0,0,1-.16-.34.36.36,0,0,1,.16-.32.69.69,0,0,1,.43-.1l1.65.06-.89-1.42q-.32-.48.09-.72a.38.38,0,0,1,.37,0,.71.71,0,0,1,.31.33l.78,1.5.78-1.5a.7.7,0,0,1,.3-.33.42.42,0,0,1,.39,0c.25.17.27.41.07.73l-.88,1.41,1.65-.06a.66.66,0,0,1,.42.1.36.36,0,0,1,.16.32.38.38,0,0,1-.16.34.66.66,0,0,1-.42.11l-1.64-.06.87,1.4c.21.32.19.55-.07.7a.37.37,0,0,1-.39,0,.7.7,0,0,1-.3-.33l-.78-1.5-.8,1.5a.7.7,0,0,1-.3.33A.34.34,0,0,1,607.78,219.45Z"/><path class="cls-1" d="M735.59,240c-.27-.16-.31-.4-.11-.72l.89-1.39-1.64.06a.78.78,0,0,1-.43-.11.41.41,0,0,1-.15-.34.37.37,0,0,1,.15-.32.64.64,0,0,1,.43-.1l1.65.06-.88-1.43q-.32-.48.09-.72a.36.36,0,0,1,.36,0,.67.67,0,0,1,.31.33l.78,1.5.78-1.5a.67.67,0,0,1,.31-.33.4.4,0,0,1,.38,0c.25.17.28.42.08.74l-.89,1.41,1.65-.06a.64.64,0,0,1,.43.1.38.38,0,0,1,.16.32.41.41,0,0,1-.16.34.78.78,0,0,1-.43.11l-1.63-.06.87,1.39c.21.32.18.56-.08.71a.36.36,0,0,1-.38,0,.67.67,0,0,1-.31-.33l-.78-1.5-.79,1.5a.7.7,0,0,1-.3.33A.34.34,0,0,1,735.59,240Z"/><path class="cls-1" d="M742.34,240c-.27-.16-.31-.4-.11-.72l.89-1.39-1.64.06a.78.78,0,0,1-.43-.11.41.41,0,0,1-.15-.34.37.37,0,0,1,.15-.32.64.64,0,0,1,.43-.1l1.65.06-.88-1.43q-.32-.48.09-.72a.36.36,0,0,1,.36,0,.67.67,0,0,1,.31.33l.78,1.5.78-1.5a.67.67,0,0,1,.31-.33.4.4,0,0,1,.38,0c.25.17.28.42.08.74l-.89,1.41,1.65-.06a.64.64,0,0,1,.43.1.38.38,0,0,1,.16.32.41.41,0,0,1-.16.34.78.78,0,0,1-.43.11l-1.63-.06.87,1.39c.21.32.18.56-.08.71a.36.36,0,0,1-.38,0,.67.67,0,0,1-.31-.33l-.78-1.5-.79,1.5a.7.7,0,0,1-.3.33A.34.34,0,0,1,742.34,240Z"/></g><g id="Warstwa_6" data-name="Warstwa 6"><path class="cls-4" d="M486.37,46.21a2.07,2.07,0,0,1-2.12-2.12,2,2,0,0,1,.61-1.49,2.07,2.07,0,0,1,1.51-.59h6a2.07,2.07,0,0,1,1.51.59,2,2,0,0,1,.61,1.49,2.07,2.07,0,0,1-2.12,2.12Z"/><path class="cls-4" d="M505,52.56a14.55,14.55,0,0,1-3.06-.34,11.76,11.76,0,0,1-3-1,2.39,2.39,0,0,1-1.13-1.11,2.41,2.41,0,0,1,.3-2.6,2.2,2.2,0,0,1,1.13-.71,2.05,2.05,0,0,1,1.51.25,9.78,9.78,0,0,0,2.07.72,9.3,9.3,0,0,0,2,.24,3.8,3.8,0,0,0,2.39-.66,2.24,2.24,0,0,0,.85-1.88,2.35,2.35,0,0,0-.82-1.88,3.15,3.15,0,0,0-2.17-.71,5.35,5.35,0,0,0-1.32.18,4.69,4.69,0,0,0-1.46.69c-.25.12-.55.26-.93.41a3.08,3.08,0,0,1-1.16.23c-1.41,0-2.12-.66-2.12-2V33.27a2.08,2.08,0,0,1,2.36-2.35H510a2,2,0,0,1,2.33,2.26c0,1.5-.78,2.24-2.33,2.24h-6.62v3.75a6.78,6.78,0,0,1,3.21-.73,7.19,7.19,0,0,1,3.56.86,6.2,6.2,0,0,1,2.41,2.41,7.25,7.25,0,0,1,.86,3.59,7.15,7.15,0,0,1-1,3.83,6.79,6.79,0,0,1-2.9,2.54A10.39,10.39,0,0,1,505,52.56Z"/><path class="cls-4" d="M523.27,52.56a7,7,0,0,1-6-2.89c-1.4-1.92-2.09-4.65-2.09-8.17s.69-6.26,2.09-8.12a7.91,7.91,0,0,1,12.08,0c1.4,1.86,2.09,4.56,2.09,8.09s-.69,6.28-2.09,8.2A7,7,0,0,1,523.27,52.56Zm0-4.42a2.28,2.28,0,0,0,2.16-1.58,13.45,13.45,0,0,0,.71-5.09,12.63,12.63,0,0,0-.71-5,2.31,2.31,0,0,0-4.32,0,12.63,12.63,0,0,0-.71,5,13.45,13.45,0,0,0,.71,5.09A2.28,2.28,0,0,0,523.27,48.14Z"/><path class="cls-4" d="M538.93,43.61a5.18,5.18,0,0,1-4.22-1.8,7.18,7.18,0,0,1-1.5-4.76,7,7,0,0,1,1.51-4.73,5.28,5.28,0,0,1,4.21-1.74,5.2,5.2,0,0,1,4.17,1.77,7,7,0,0,1,1.51,4.7,7.18,7.18,0,0,1-1.5,4.76A5.14,5.14,0,0,1,538.93,43.61Zm0-3.32a1.14,1.14,0,0,0,1.05-.73,6,6,0,0,0,.37-2.51,5.72,5.72,0,0,0-.38-2.48,1.15,1.15,0,0,0-1-.69,1.17,1.17,0,0,0-1.09.68,5.85,5.85,0,0,0-.37,2.49,6.09,6.09,0,0,0,.37,2.54A1.15,1.15,0,0,0,538.93,40.29Zm4.38,11.39a1.9,1.9,0,0,1-2.72.79,2,2,0,0,1-.92-1.14,1.85,1.85,0,0,1,.25-1.61L550.5,31.49a2,2,0,0,1,1.27-1.06,1.92,1.92,0,0,1,1.42.25,2.06,2.06,0,0,1,.92,1.13,1.91,1.91,0,0,1-.25,1.62Zm11.57.88a5.16,5.16,0,0,1-4.18-1.79A7.11,7.11,0,0,1,549.2,46a7.07,7.07,0,0,1,1.51-4.75,5.84,5.84,0,0,1,8.37,0A7,7,0,0,1,560.6,46a7.11,7.11,0,0,1-1.5,4.74A5.2,5.2,0,0,1,554.88,52.56Zm0-3.3a1.18,1.18,0,0,0,1.08-.72,6,6,0,0,0,.37-2.51,5.73,5.73,0,0,0-.37-2.48,1.19,1.19,0,0,0-1.08-.69,1.14,1.14,0,0,0-1,.66,5.71,5.71,0,0,0-.37,2.51,5.91,5.91,0,0,0,.37,2.52A1.12,1.12,0,0,0,554.88,49.26Z"/><path class="cls-4" d="M565.19,41.74a1.55,1.55,0,0,1-.83-1.11,1.86,1.86,0,0,1,.41-1.4l.84-1.24-1.42.09a1.92,1.92,0,0,1-1.42-.33,1.76,1.76,0,0,1,0-2.54,2,2,0,0,1,1.42-.36l1.42.12-.81-1.24a2,2,0,0,1-.41-1.42,1.61,1.61,0,0,1,.86-1.12,1.45,1.45,0,0,1,1.37-.14,2,2,0,0,1,1,1.14l.75,1.69.73-1.69a1.93,1.93,0,0,1,1-1.14,1.46,1.46,0,0,1,1.4.17,1.56,1.56,0,0,1,.87,1.13,2,2,0,0,1-.42,1.41L571.08,35l1.42-.09a1.93,1.93,0,0,1,1.44.33,1.79,1.79,0,0,1,0,2.54,1.93,1.93,0,0,1-1.44.33L571.08,38l.85,1.24a2,2,0,0,1,.42,1.39,1.57,1.57,0,0,1-.87,1.12,1.47,1.47,0,0,1-1.38.18,2,2,0,0,1-1-1.12L568.36,39l-.78,1.75a2.09,2.09,0,0,1-1,1.13A1.42,1.42,0,0,1,565.19,41.74Z"/><path class="cls-4" d="M579,41.74a1.55,1.55,0,0,1-.83-1.11,1.86,1.86,0,0,1,.41-1.4l.84-1.24-1.42.09a1.93,1.93,0,0,1-1.42-.33,1.76,1.76,0,0,1,0-2.54,2,2,0,0,1,1.42-.36l1.42.12-.81-1.24a2,2,0,0,1-.41-1.42,1.61,1.61,0,0,1,.86-1.12,1.47,1.47,0,0,1,1.38-.14,2,2,0,0,1,1,1.14l.75,1.69.73-1.69a1.91,1.91,0,0,1,1-1.14,1.45,1.45,0,0,1,1.39.17,1.56,1.56,0,0,1,.87,1.13,2,2,0,0,1-.42,1.41L584.86,35l1.42-.09a1.93,1.93,0,0,1,1.44.33,1.79,1.79,0,0,1,0,2.54,1.93,1.93,0,0,1-1.44.33L584.86,38l.85,1.24a2,2,0,0,1,.42,1.39,1.57,1.57,0,0,1-.87,1.12,1.47,1.47,0,0,1-1.38.18,2,2,0,0,1-1-1.12L582.14,39l-.78,1.75a2.06,2.06,0,0,1-1,1.13A1.42,1.42,0,0,1,579,41.74Z"/><path class="cls-4" d="M595.54,52.8a.5.5,0,0,1-.56-.57V43.85q0-.57.54-.57a.51.51,0,0,1,.58.57v.73a2.13,2.13,0,0,1,.91-1,2.74,2.74,0,0,1,1.41-.36,3,3,0,0,1,1.59.43,2.8,2.8,0,0,1,1,1.22,4.94,4.94,0,0,1,0,3.75,2.8,2.8,0,0,1-1,1.22,2.87,2.87,0,0,1-1.59.44A2.82,2.82,0,0,1,597,50a2.19,2.19,0,0,1-.91-1v3.24A.5.5,0,0,1,595.54,52.8Zm2.64-3.4a1.92,1.92,0,0,0,1.53-.68,3.6,3.6,0,0,0,0-3.89,1.94,1.94,0,0,0-1.53-.67,1.92,1.92,0,0,0-1.52.67,3.55,3.55,0,0,0,0,3.89A1.9,1.9,0,0,0,598.18,49.4Z"/><path class="cls-4" d="M606,50.31a3.32,3.32,0,0,1-1.73-.44,2.82,2.82,0,0,1-1.12-1.22,4.57,4.57,0,0,1,0-3.74,2.88,2.88,0,0,1,1.12-1.22,3.58,3.58,0,0,1,3.44,0,2.84,2.84,0,0,1,1.13,1.22,4.57,4.57,0,0,1,0,3.74,2.79,2.79,0,0,1-1.13,1.22A3.3,3.3,0,0,1,606,50.31Zm0-.91a1.9,1.9,0,0,0,1.52-.68,3.55,3.55,0,0,0,0-3.89,2.08,2.08,0,0,0-3.06,0,3.66,3.66,0,0,0,0,3.89A1.91,1.91,0,0,0,606,49.4Z"/><path class="cls-4" d="M611.51,50.28c-.37,0-.56-.2-.56-.59V43.85c0-.38.18-.57.55-.57a.5.5,0,0,1,.56.57v.68a2.25,2.25,0,0,1,.85-1,2.4,2.4,0,0,1,1.27-.33,1.93,1.93,0,0,1,2.05,1.39,2.37,2.37,0,0,1,.91-1,2.64,2.64,0,0,1,1.38-.37c1.52,0,2.27.9,2.27,2.69v3.75a.51.51,0,0,1-.57.59c-.38,0-.56-.2-.56-.59V46a2.3,2.3,0,0,0-.33-1.38,1.25,1.25,0,0,0-1.09-.44,1.6,1.6,0,0,0-1.31.58,2.38,2.38,0,0,0-.49,1.57v3.36a.52.52,0,0,1-.58.59c-.37,0-.56-.2-.56-.59V46a2.3,2.3,0,0,0-.33-1.38,1.24,1.24,0,0,0-1.08-.44,1.61,1.61,0,0,0-1.32.58,2.38,2.38,0,0,0-.49,1.57v3.36A.51.51,0,0,1,611.51,50.28Z"/><path class="cls-4" d="M623.46,41.74c-.49,0-.74-.23-.74-.7s.25-.69.74-.69.75.23.75.69S624,41.74,623.46,41.74Zm0,8.51c-.37,0-.55-.2-.55-.61V43.91c0-.4.18-.6.55-.6s.58.2.58.6v5.73C624,50.05,623.85,50.25,623.46,50.25Z"/><path class="cls-4" d="M629.22,50.31a3.45,3.45,0,0,1-2.55-1,3.5,3.5,0,0,1-.94-2.57,3.94,3.94,0,0,1,.42-1.85,3.12,3.12,0,0,1,1.16-1.25,3.29,3.29,0,0,1,1.7-.44,2.75,2.75,0,0,1,2.17.89,3.57,3.57,0,0,1,.78,2.44c0,.29-.16.44-.49.44h-4.63a2.59,2.59,0,0,0,.67,1.77,2.31,2.31,0,0,0,1.71.61,3.85,3.85,0,0,0,.94-.12,2.84,2.84,0,0,0,.92-.43c.22-.14.39-.17.54-.08a.42.42,0,0,1,.22.38.52.52,0,0,1-.28.46,3.61,3.61,0,0,1-1.1.52A4.59,4.59,0,0,1,629.22,50.31ZM629,44.09a2,2,0,0,0-1.53.6,2.71,2.71,0,0,0-.66,1.59H631a2.45,2.45,0,0,0-.54-1.61A1.73,1.73,0,0,0,629,44.09Zm.77,8.78a1.52,1.52,0,0,1-1.07-.36,1.29,1.29,0,0,1-.4-1,1.81,1.81,0,0,1,.35-1,2.56,2.56,0,0,1,1-.78l.4.5a2,2,0,0,0-.63.46,1.08,1.08,0,0,0-.29.75.72.72,0,0,0,.23.59.86.86,0,0,0,.58.19,1.85,1.85,0,0,0,.49-.08c.17-.05.29,0,.36.07a.37.37,0,0,1,.06.33.34.34,0,0,1-.24.25,1.31,1.31,0,0,1-.42.11Z"/><path class="cls-4" d="M636.19,50.31a2.87,2.87,0,0,1-1.59-.44,2.8,2.8,0,0,1-1.05-1.22,4.94,4.94,0,0,1,0-3.75,2.8,2.8,0,0,1,1.05-1.22,3,3,0,0,1,1.59-.43,2.83,2.83,0,0,1,1.41.35,2.27,2.27,0,0,1,.9,1V40.79a.51.51,0,0,1,.58-.58c.37,0,.55.2.55.58v8.9c0,.39-.18.59-.55.59a.51.51,0,0,1-.57-.59V49a2.29,2.29,0,0,1-.91,1A2.74,2.74,0,0,1,636.19,50.31Zm.24-.91a1.93,1.93,0,0,0,1.53-.68,3.6,3.6,0,0,0,0-3.89,2,2,0,0,0-1.53-.67,1.91,1.91,0,0,0-1.53.67,3.6,3.6,0,0,0,0,3.89A1.89,1.89,0,0,0,636.43,49.4Z"/><path class="cls-4" d="M641.89,50.18a.41.41,0,0,1-.45-.31.7.7,0,0,1,.18-.63l3.74-5h-3.53a.4.4,0,0,1-.46-.45c0-.29.15-.43.46-.43h4.3a.48.48,0,0,1,.52.3.64.64,0,0,1-.16.61l-3.78,5h3.7c.31,0,.46.15.46.43a.4.4,0,0,1-.46.45Z"/><path class="cls-4" d="M649.67,52.8a.43.43,0,0,1-.43-.24.68.68,0,0,1,0-.56l.86-1.93-2.58-6a.61.61,0,0,1,0-.56.54.54,0,0,1,.52-.24.6.6,0,0,1,.57.45l2.11,5.16,2.13-5.16a.76.76,0,0,1,.24-.35.53.53,0,0,1,.36-.1.44.44,0,0,1,.44.24.64.64,0,0,1,0,.54l-3.58,8.29a.85.85,0,0,1-.25.35A.56.56,0,0,1,649.67,52.8Z"/><path class="cls-4" d="M659.75,50.18a.56.56,0,0,1-.63-.63V40.94a.56.56,0,0,1,.63-.63h2.7a5.07,5.07,0,0,1,3.7,1.27,4.85,4.85,0,0,1,1.3,3.66,4.89,4.89,0,0,1-1.3,3.67,5.07,5.07,0,0,1-3.7,1.27Zm.52-1h2.1c2.58,0,3.86-1.32,3.86-4s-1.28-4-3.86-4h-2.1Z"/><path class="cls-4" d="M672.49,50.31a2.91,2.91,0,0,1-2.57-1.3,6.71,6.71,0,0,1-.89-3.77,6.66,6.66,0,0,1,.89-3.77,3.24,3.24,0,0,1,5.16,0,6.68,6.68,0,0,1,.87,3.76,6.72,6.72,0,0,1-.89,3.78A2.93,2.93,0,0,1,672.49,50.31Zm0-1a1.87,1.87,0,0,0,1.75-1,6.54,6.54,0,0,0,.56-3.08,6.36,6.36,0,0,0-.56-3.08,1.86,1.86,0,0,0-1.75-1,1.89,1.89,0,0,0-1.74,1,6.33,6.33,0,0,0-.57,3.07,6.4,6.4,0,0,0,.57,3.08A1.87,1.87,0,0,0,672.49,49.31Z"/><path class="cls-4" d="M683.51,50.31a2.77,2.77,0,0,1-1.25-.27,2.4,2.4,0,0,1-.88-.75,1.92,1.92,0,0,1-.32-1.07,1.73,1.73,0,0,1,.38-1.17,2.37,2.37,0,0,1,1.28-.63,12.67,12.67,0,0,1,2.43-.19h.45V45.8a1.78,1.78,0,0,0-.36-1.25,1.48,1.48,0,0,0-1.14-.39,3.74,3.74,0,0,0-1,.13,5,5,0,0,0-1,.4.43.43,0,0,1-.4.05.42.42,0,0,1-.22-.25.55.55,0,0,1,0-.36.48.48,0,0,1,.27-.29,5.94,5.94,0,0,1,1.21-.45,5.39,5.39,0,0,1,1.16-.14,2.64,2.64,0,0,1,1.95.65,2.72,2.72,0,0,1,.64,2v3.79c0,.39-.18.59-.52.59s-.55-.2-.55-.59V49a2,2,0,0,1-.82,1A2.37,2.37,0,0,1,683.51,50.31Zm.18-.86a1.75,1.75,0,0,0,1.37-.58,2.07,2.07,0,0,0,.54-1.47V47h-.44a11.87,11.87,0,0,0-1.78.1,1.58,1.58,0,0,0-.91.37.91.91,0,0,0-.26.7,1.19,1.19,0,0,0,.4.94A1.53,1.53,0,0,0,683.69,49.45Z"/><path class="cls-4" d="M693.18,50.18a.56.56,0,0,1-.63-.63V40.94a.56.56,0,0,1,.63-.63h2.71a5.06,5.06,0,0,1,3.69,1.27,4.85,4.85,0,0,1,1.3,3.66,4.89,4.89,0,0,1-1.3,3.67,5.06,5.06,0,0,1-3.69,1.27Zm.52-1h2.1q3.87,0,3.87-4t-3.87-4h-2.1Z"/><path class="cls-4" d="M703.89,50.18c-.35,0-.53-.17-.53-.5s.18-.48.53-.48h1.82V41.66l-1.42,1a.46.46,0,0,1-.7-.16.5.5,0,0,1-.07-.36.57.57,0,0,1,.26-.35l1.93-1.27a2.45,2.45,0,0,1,.35-.19,1.09,1.09,0,0,1,.34-.07.43.43,0,0,1,.46.49v8.5h1.68c.36,0,.53.16.53.48s-.17.5-.53.5Z"/><path class="cls-4" d="M714.53,50.31a5.49,5.49,0,0,1-1.6-.24,4.28,4.28,0,0,1-1.42-.74.55.55,0,0,1-.25-.34.56.56,0,0,1,.07-.38.47.47,0,0,1,.29-.22.51.51,0,0,1,.42.1,4.17,4.17,0,0,0,2.48.8,2.18,2.18,0,0,0,1.61-.58,2,2,0,0,0,.59-1.51,2.28,2.28,0,0,0-.56-1.58,2,2,0,0,0-1.54-.62,2.8,2.8,0,0,0-1.12.23,2.43,2.43,0,0,0-.91.71.83.83,0,0,1-.23.19.61.61,0,0,1-.3.08.44.44,0,0,1-.51-.49V40.84a.47.47,0,0,1,.53-.53h4.76c.36,0,.54.17.54.49s-.18.49-.54.49h-4.15v3.53a2.89,2.89,0,0,1,2.14-.81,3.23,3.23,0,0,1,1.61.39,2.68,2.68,0,0,1,1.06,1.1,3.57,3.57,0,0,1,.37,1.64,3.25,3.25,0,0,1-.41,1.64,2.85,2.85,0,0,1-1.16,1.12A3.65,3.65,0,0,1,714.53,50.31Z"/><path class="cls-4" d="M722.72,50.31a2.92,2.92,0,0,1-2.57-1.3,6.71,6.71,0,0,1-.88-3.77,6.67,6.67,0,0,1,.88-3.77,3.24,3.24,0,0,1,5.16,0,6.68,6.68,0,0,1,.87,3.76,6.72,6.72,0,0,1-.89,3.78A2.93,2.93,0,0,1,722.72,50.31Zm0-1a1.87,1.87,0,0,0,1.75-1,6.54,6.54,0,0,0,.56-3.08,6.36,6.36,0,0,0-.56-3.08,1.86,1.86,0,0,0-1.75-1,1.89,1.89,0,0,0-1.74,1,6.33,6.33,0,0,0-.57,3.07,6.4,6.4,0,0,0,.57,3.08A1.87,1.87,0,0,0,722.72,49.31Z"/></g><g id="Warstwa_7" data-name="Warstwa 7"><path class="cls-11" d="M747.7,354.07c3.76,1.37,7.32,3.48,7.32,7.16a5.46,5.46,0,0,1-1,3.13,9,9,0,0,1-.94-.45,4.34,4.34,0,0,1-1-.6c1.33-4-2.32-7.72-4.42-9.24"/><path class="cls-11" d="M738.16,366.55v0Z"/><path class="cls-11" d="M738.16,366.5v0Z"/><path class="cls-11" d="M744.09,365.93l-.48,0a3.1,3.1,0,0,1-3.34-2.78,2.58,2.58,0,0,1,1-2,3.35,3.35,0,0,0-.17,1.05,4.09,4.09,0,0,0,3,3.71"/><path class="cls-11" d="M725.07,363.4A19.91,19.91,0,1,0,736,345.64h0a19.92,19.92,0,0,0-10.91,17.76m22.73-7.2c1.69,1.77,3.55,4.1,2.67,6.71a6.29,6.29,0,0,1-5,4c-2,.34-5.73-.2-6.15-2.73-.34-2.06,1.65-3.83,2.14-5.76.59-2.37-.79-5-1.85-7.08a35.07,35.07,0,0,0-3-4.92c.33-.16.67-.32,1-.46.57-.25,1.15-.45,1.73-.64a46.31,46.31,0,0,0,3.49,5.56M745,382.33a19.09,19.09,0,0,1-3.63-.35,17.56,17.56,0,0,0,1.56-7.25c-.12-1.58-1-1.76-1.93-3a7.38,7.38,0,0,1-1.48-3.25,8.88,8.88,0,0,0,6.18,1.33,11.37,11.37,0,0,0,6.35-3.93,4.59,4.59,0,0,0,.66.42c-.51,1.37-1,2.77-1.49,4.13a25.23,25.23,0,0,1-2.38,4.55,26.62,26.62,0,0,0-3.52,7.3Zm-17.44-11.56a19,19,0,0,1,8.26-23.92,31.76,31.76,0,0,1,2.55,4c1.33,2.44,3,5.28,2.13,7.71-.63,1.74-2.58,3.74-2,5.9.52,1.93,2.18,3,4.44,3.39a7.91,7.91,0,0,0,5.75-1.23,6.27,6.27,0,0,0,2.89-4.87c0-2.23-1.28-4.13-2.73-5.7-1.74-1.88-3.74-3.48-5.25-5.57a51.38,51.38,0,0,1-3.38-5.36,18.93,18.93,0,0,1,4.76-.6A18.93,18.93,0,0,1,758.36,350a18.92,18.92,0,0,1-12.16,32.27,28.49,28.49,0,0,1,3.9-7.65c1.57-2.44,2.35-5.25,3.38-8,.09-.25.18-.49.28-.74l0-.08a4.43,4.43,0,0,1-.74-.31c-.14-.08-.78-.47-1.22-.79a11,11,0,0,1-6.38,4.23,9.09,9.09,0,0,1-6.28-1.68c-.34-.21-.67-.43-1-.65v0c0,.2.39,3.09.76,4.61s1.22,3.33,1.34,5a9.62,9.62,0,0,1-1,5.17c-.55-.18-1.09-.37-1.62-.6a19.08,19.08,0,0,1-10.07-10.07"/><path class="cls-12" d="M747,340.4a23.34,23.34,0,1,0,23.34,23.33A23.33,23.33,0,0,0,747,340.4m0,41.73a18.4,18.4,0,1,1,18.41-18.4A18.4,18.4,0,0,1,747,382.13"/><path class="cls-11" d="M748.75,338.49v8.9a16.16,16.16,0,1,1-18.17,17H721.7a25,25,0,1,0,27-25.92"/><polygon class="cls-13" points="754.03 361.57 762.52 363.67 762.3 365.03 773.32 365.66 764.86 363.33 765.04 361.9 754.03 361.57"/><polygon class="cls-13" points="753.02 360.71 762.88 356.39 763.68 357.89 774.88 350.25 764.9 354.31 764 352.79 753.02 360.71"/><polygon class="cls-13" points="752.69 359.44 757.39 352.06 758.61 352.71 762.73 342.47 757.82 349.74 756.52 349.12 752.69 359.44"/><path class="cls-14" d="M747.7,354.07c3.76,1.37,7.32,3.48,7.32,7.16a5.46,5.46,0,0,1-1,3.13,9,9,0,0,1-.94-.45,4.34,4.34,0,0,1-1-.6c1.33-4-2.32-7.72-4.42-9.24"/><path class="cls-14" d="M738.16,366.55v0Z"/><path class="cls-14" d="M738.16,366.5v0Z"/><path class="cls-14" d="M744.09,365.93l-.48,0a3.1,3.1,0,0,1-3.34-2.78,2.58,2.58,0,0,1,1-2,3.35,3.35,0,0,0-.17,1.05,4.09,4.09,0,0,0,3,3.71"/><path class="cls-14" d="M725.07,363.4A19.91,19.91,0,1,0,736,345.64h0a19.92,19.92,0,0,0-10.91,17.76m22.73-7.2c1.69,1.77,3.55,4.1,2.67,6.71a6.29,6.29,0,0,1-5,4c-2,.34-5.73-.2-6.15-2.73-.34-2.06,1.65-3.83,2.14-5.76.59-2.37-.79-5-1.85-7.08a35.07,35.07,0,0,0-3-4.92c.33-.16.67-.32,1-.46.57-.25,1.15-.45,1.73-.64a46.31,46.31,0,0,0,3.49,5.56M745,382.33a19.09,19.09,0,0,1-3.63-.35,17.56,17.56,0,0,0,1.56-7.25c-.12-1.58-1-1.76-1.93-3a7.38,7.38,0,0,1-1.48-3.25,8.88,8.88,0,0,0,6.18,1.33,11.37,11.37,0,0,0,6.35-3.93,4.59,4.59,0,0,0,.66.42c-.51,1.37-1,2.77-1.49,4.13a25.23,25.23,0,0,1-2.38,4.55,26.62,26.62,0,0,0-3.52,7.3Zm-17.44-11.56a19,19,0,0,1,8.26-23.92,31.76,31.76,0,0,1,2.55,4c1.33,2.44,3,5.28,2.13,7.71-.63,1.74-2.58,3.74-2,5.9.52,1.93,2.18,3,4.44,3.39a7.91,7.91,0,0,0,5.75-1.23,6.27,6.27,0,0,0,2.89-4.87c0-2.23-1.28-4.13-2.73-5.7-1.74-1.88-3.74-3.48-5.25-5.57a51.38,51.38,0,0,1-3.38-5.36,18.93,18.93,0,0,1,4.76-.6A18.93,18.93,0,0,1,758.36,350a18.92,18.92,0,0,1-12.16,32.27,28.49,28.49,0,0,1,3.9-7.65c1.57-2.44,2.35-5.25,3.38-8,.09-.25.18-.49.28-.74l0-.08a4.43,4.43,0,0,1-.74-.31c-.14-.08-.78-.47-1.22-.79a11,11,0,0,1-6.38,4.23,9.09,9.09,0,0,1-6.28-1.68c-.34-.21-.67-.43-1-.65v0c0,.2.39,3.09.76,4.61s1.22,3.33,1.34,5a9.62,9.62,0,0,1-1,5.17c-.55-.18-1.09-.37-1.62-.6a19.08,19.08,0,0,1-10.07-10.07"/><path class="cls-15" d="M747,340.4a23.34,23.34,0,1,0,23.34,23.33A23.33,23.33,0,0,0,747,340.4m0,41.73a18.4,18.4,0,1,1,18.41-18.4A18.4,18.4,0,0,1,747,382.13"/><path class="cls-14" d="M748.75,338.49v8.9a16.16,16.16,0,1,1-18.17,17H721.7a25,25,0,1,0,27-25.92"/><polygon class="cls-16" points="754.03 361.57 762.52 363.67 762.3 365.03 773.32 365.66 764.86 363.33 765.04 361.9 754.03 361.57"/><polygon class="cls-16" points="753.02 360.71 762.88 356.39 763.68 357.89 774.88 350.25 764.9 354.31 764 352.79 753.02 360.71"/><polygon class="cls-16" points="752.69 359.44 757.39 352.06 758.61 352.71 762.73 342.47 757.82 349.74 756.52 349.12 752.69 359.44"/><path class="cls-17" d="M558.06,360.54h-1.34a2,2,0,1,1-2.05-2.05,2,2,0,0,1,2.05,2.05h2.68a4.73,4.73,0,1,0-4.73,4.72,4.73,4.73,0,0,0,4.73-4.72Z"/><path class="cls-16" d="M558.06,375.38h-1.33a2.06,2.06,0,1,1-2.06-2.06,2.05,2.05,0,0,1,2.06,2.06h2.66a4.72,4.72,0,1,0-4.72,4.71,4.72,4.72,0,0,0,4.72-4.71Z"/><path class="cls-1" d="M487.57,361.17a.43.43,0,0,1-.22-.31.48.48,0,0,1,.11-.38l.49-.76-.87,0a.61.61,0,0,1-.4-.11.38.38,0,0,1-.15-.34.4.4,0,0,1,.15-.33.56.56,0,0,1,.4-.1l.88.06-.49-.77a.51.51,0,0,1-.11-.39.4.4,0,0,1,.22-.29.38.38,0,0,1,.37,0,.63.63,0,0,1,.29.31l.42.87.41-.87a.63.63,0,0,1,.29-.31.4.4,0,0,1,.38,0c.26.16.3.39.1.69l-.49.76.88-.06a.56.56,0,0,1,.4.1.4.4,0,0,1,.15.33.38.38,0,0,1-.15.34.61.61,0,0,1-.4.11l-.88,0,.49.76a.54.54,0,0,1,.12.38.47.47,0,0,1-.61.33.59.59,0,0,1-.28-.3l-.42-.88-.42.88a.57.57,0,0,1-.29.3A.38.38,0,0,1,487.57,361.17Z"/><path class="cls-1" d="M492.46,367a.59.59,0,0,1-.67-.68v-6a.59.59,0,0,1,.66-.68.6.6,0,0,1,.67.68v.22a1.66,1.66,0,0,1,.67-.67,2.11,2.11,0,0,1,1-.25A2.22,2.22,0,0,1,496,360a2.19,2.19,0,0,1,.81.94,3.82,3.82,0,0,1,0,2.92,2.17,2.17,0,0,1-.81,1,2.2,2.2,0,0,1-1.21.34,2,2,0,0,1-1-.25,1.64,1.64,0,0,1-.68-.65v2.13A.6.6,0,0,1,492.46,367Zm2-2.94a1.2,1.2,0,0,0,1-.43,2.43,2.43,0,0,0,0-2.58,1.22,1.22,0,0,0-1-.42,1.24,1.24,0,0,0-1,.42,2.49,2.49,0,0,0,0,2.58A1.21,1.21,0,0,0,494.45,364.1Z"/><path class="cls-1" d="M502.91,364.45l-4.3-1.82a.74.74,0,0,1,0-1.4l4.3-1.83a.42.42,0,0,1,.39,0,.47.47,0,0,1,.24.26.56.56,0,0,1,0,.36.43.43,0,0,1-.28.28l-3.9,1.64,3.9,1.64a.44.44,0,0,1,.28.27.56.56,0,0,1,0,.36.5.5,0,0,1-.24.26A.45.45,0,0,1,502.91,364.45Z"/><path class="cls-1" d="M507.24,365.13a2.36,2.36,0,0,1-2.06-1,5.07,5.07,0,0,1-.71-2.9,5,5,0,0,1,.71-2.9,2.64,2.64,0,0,1,4.12,0,5,5,0,0,1,.7,2.89,5,5,0,0,1-.71,2.91A2.34,2.34,0,0,1,507.24,365.13Zm0-1.13a1.14,1.14,0,0,0,1.08-.68,4.89,4.89,0,0,0,.35-2.12,4.76,4.76,0,0,0-.35-2.1,1.15,1.15,0,0,0-1.08-.65,1.17,1.17,0,0,0-1.08.65,4.62,4.62,0,0,0-.35,2.1,4.75,4.75,0,0,0,.35,2.12A1.16,1.16,0,0,0,507.24,364Z"/><path class="cls-1" d="M512,366.17a.48.48,0,0,1-.29.2.34.34,0,0,1-.28-.06.29.29,0,0,1-.12-.24.46.46,0,0,1,.13-.34,1.52,1.52,0,0,0,.21-.33,3.43,3.43,0,0,0,.12-.33.84.84,0,0,1-.54-.24.79.79,0,0,1-.21-.57.8.8,0,0,1,.22-.56.76.76,0,0,1,.58-.22.72.72,0,0,1,.59.25,1.06,1.06,0,0,1,.22.73,2.94,2.94,0,0,1-.12.81A2.79,2.79,0,0,1,512,366.17Z"/><path class="cls-1" d="M516.37,365.13a2.35,2.35,0,0,1-2.06-1,5,5,0,0,1-.71-2.9,4.91,4.91,0,0,1,.71-2.9,2.64,2.64,0,0,1,4.12,0,5,5,0,0,1,.7,2.89,5.08,5.08,0,0,1-.71,2.91A2.34,2.34,0,0,1,516.37,365.13Zm0-1.13a1.16,1.16,0,0,0,1.08-.68,4.89,4.89,0,0,0,.35-2.12,4.76,4.76,0,0,0-.35-2.1,1.22,1.22,0,0,0-2.16,0,4.6,4.6,0,0,0-.36,2.1,4.73,4.73,0,0,0,.36,2.12A1.15,1.15,0,0,0,516.37,364Z"/><path class="cls-1" d="M522.89,365.13a4.82,4.82,0,0,1-1.17-.15,3.73,3.73,0,0,1-1.08-.47.61.61,0,0,1-.31-.39.64.64,0,0,1,.06-.43.57.57,0,0,1,.32-.27.58.58,0,0,1,.48.08,3.74,3.74,0,0,0,.8.35,3.6,3.6,0,0,0,.88.11,1.49,1.49,0,0,0,1.06-.35,1.21,1.21,0,0,0,.38-.94,1.3,1.3,0,0,0-.37-1,1.33,1.33,0,0,0-1-.37,1.92,1.92,0,0,0-.67.11,2,2,0,0,0-.63.39,1.21,1.21,0,0,1-.25.17.72.72,0,0,1-.32.08c-.37,0-.55-.18-.55-.53V358a.53.53,0,0,1,.6-.6h3.54c.41,0,.61.19.61.57s-.2.57-.61.57h-2.79v2.06a2.21,2.21,0,0,1,1.39-.43,2.53,2.53,0,0,1,1.26.3,2.26,2.26,0,0,1,.83.85,2.73,2.73,0,0,1,.29,1.27,2.58,2.58,0,0,1-.33,1.31,2.31,2.31,0,0,1-.95.88A3.25,3.25,0,0,1,522.89,365.13Z"/><path class="cls-1" d="M565.76,365.1c-.46,0-.68-.23-.68-.71v-6.26a.61.61,0,0,1,.69-.7h2.6a2.75,2.75,0,0,1,1.92.62,2.59,2.59,0,0,1,0,3.5,2.71,2.71,0,0,1-1.92.63h-1.92v2.21C566.45,364.87,566.22,365.1,565.76,365.1Zm.69-4h1.7c1,0,1.49-.43,1.49-1.29s-.5-1.28-1.49-1.28h-1.7Z"/><path class="cls-1" d="M572.79,365a.63.63,0,0,1-.7-.71V358.1a.69.69,0,1,1,1.38,0v5.75h3.12c.4,0,.6.19.6.58a.53.53,0,0,1-.6.59Z"/><path class="cls-1" d="M578.06,365.1a.57.57,0,0,1-.54-.25.62.62,0,0,1,0-.63l2.84-6.29a1,1,0,0,1,.34-.45.78.78,0,0,1,.46-.14.77.77,0,0,1,.44.14,1,1,0,0,1,.34.45l2.85,6.29a.65.65,0,0,1,0,.63.56.56,0,0,1-.52.25.68.68,0,0,1-.47-.14,1.35,1.35,0,0,1-.3-.45l-.53-1.25H579.3l-.52,1.25a1.45,1.45,0,0,1-.29.45A.59.59,0,0,1,578.06,365.1Zm3.08-6.17-1.36,3.24h2.75l-1.36-3.24Z"/><path class="cls-1" d="M589.36,365.13a4,4,0,0,1-2-.48,3.16,3.16,0,0,1-1.3-1.36,5,5,0,0,1,0-4.14,3.19,3.19,0,0,1,1.3-1.35,4,4,0,0,1,2-.48,4.56,4.56,0,0,1,1.16.15,3.64,3.64,0,0,1,1,.43.69.69,0,0,1,.33.44.61.61,0,0,1-.06.46.57.57,0,0,1-.36.28.6.6,0,0,1-.52-.12,2.53,2.53,0,0,0-.72-.31,3,3,0,0,0-.79-.1,2.19,2.19,0,0,0-1.75.69,3.52,3.52,0,0,0,0,4,2.16,2.16,0,0,0,1.75.7,3.21,3.21,0,0,0,.81-.1,3.08,3.08,0,0,0,.75-.32.67.67,0,0,1,.52-.12.56.56,0,0,1,.34.26.67.67,0,0,1,.07.44.69.69,0,0,1-.29.42,3.16,3.16,0,0,1-1,.48A4.53,4.53,0,0,1,589.36,365.13Z"/><path class="cls-1" d="M593.88,365a.65.65,0,0,1-.73-.73v-6.13a.64.64,0,0,1,.73-.73h3.84a.49.49,0,0,1,.56.54.5.5,0,0,1-.56.56h-3.25v2.09h3a.49.49,0,0,1,.56.55c0,.36-.18.54-.56.54h-3v2.21h3.25a.55.55,0,1,1,0,1.1Z"/><path class="cls-1" d="M600.3,365a.65.65,0,0,1-.73-.73v-6.13a.65.65,0,0,1,.73-.73h2.59a2.91,2.91,0,0,1,1.85.52,1.75,1.75,0,0,1,.66,1.45,1.8,1.8,0,0,1-.32,1.06,1.77,1.77,0,0,1-.86.64,1.92,1.92,0,0,1,1,.64,1.83,1.83,0,0,1,.36,1.16,1.91,1.91,0,0,1-.68,1.56,3,3,0,0,1-1.9.56Zm.6-4.37h1.75c.94,0,1.41-.36,1.41-1.09s-.47-1.09-1.41-1.09H600.9Zm0,3.32h1.93c.95,0,1.42-.38,1.42-1.14s-.47-1.14-1.42-1.14H600.9Z"/><path class="cls-1" d="M610.38,365.13a3.75,3.75,0,0,1-1.92-.49,3.24,3.24,0,0,1-1.28-1.36,5,5,0,0,1,0-4.13,3.31,3.31,0,0,1,1.27-1.35,4.12,4.12,0,0,1,3.86,0,3.38,3.38,0,0,1,1.27,1.35,5,5,0,0,1,0,4.13,3.34,3.34,0,0,1-1.27,1.36A3.76,3.76,0,0,1,610.38,365.13Zm0-1.19a2,2,0,0,0,1.62-.72,3.77,3.77,0,0,0,0-4,2.23,2.23,0,0,0-3.26,0,3.11,3.11,0,0,0-.58,2,3.15,3.15,0,0,0,.58,2A2,2,0,0,0,610.38,363.94Z"/><path class="cls-1" d="M567.69,378.37a5.89,5.89,0,0,1-1.4-.16,3.67,3.67,0,0,1-1.19-.49.65.65,0,0,1-.31-.39.76.76,0,0,1,0-.45.52.52,0,0,1,.29-.29.47.47,0,0,1,.46.08,3.77,3.77,0,0,0,1,.41,5,5,0,0,0,1.11.13,2.12,2.12,0,0,0,1.24-.29.87.87,0,0,0,.39-.74.73.73,0,0,0-.28-.59,2.4,2.4,0,0,0-.94-.35l-1.18-.25c-1.35-.29-2-1-2-2.08a2.12,2.12,0,0,1,.38-1.24,2.43,2.43,0,0,1,1-.81,3.75,3.75,0,0,1,1.54-.29,4.51,4.51,0,0,1,1.23.16,3.28,3.28,0,0,1,1,.47.56.56,0,0,1,.26.37.63.63,0,0,1,0,.41.53.53,0,0,1-.31.26.58.58,0,0,1-.49-.09,2.79,2.79,0,0,0-.81-.32,3.49,3.49,0,0,0-.88-.1,1.9,1.9,0,0,0-1.16.31,1,1,0,0,0-.42.82.77.77,0,0,0,.26.62,2,2,0,0,0,.88.36l1.17.24a3.36,3.36,0,0,1,1.59.72,1.66,1.66,0,0,1,.52,1.29,2,2,0,0,1-.36,1.19,2.35,2.35,0,0,1-1,.8A4.07,4.07,0,0,1,567.69,378.37Z"/><path class="cls-1" d="M572.56,378.35a.62.62,0,0,1-.69-.71V371.3c0-.48.23-.71.69-.71a.62.62,0,0,1,.69.71v6.34A.62.62,0,0,1,572.56,378.35Z"/><path class="cls-1" d="M575,378.35a.6.6,0,0,1-.54-.26.62.62,0,0,1,0-.63l2.84-6.29a1,1,0,0,1,.34-.45.8.8,0,0,1,.46-.13.81.81,0,0,1,.45.13,1,1,0,0,1,.33.45l2.86,6.29a.67.67,0,0,1,0,.63.56.56,0,0,1-.52.26.68.68,0,0,1-.47-.15,1.09,1.09,0,0,1-.29-.44l-.54-1.25h-3.7l-.53,1.25a1.52,1.52,0,0,1-.29.45A.63.63,0,0,1,575,378.35Zm3.09-6.18-1.37,3.24h2.76l-1.37-3.24Z"/><path class="cls-1" d="M583.6,378.35a.62.62,0,0,1-.69-.71v-6.27a.62.62,0,0,1,.7-.7h2.59a2.81,2.81,0,0,1,1.93.6,2.13,2.13,0,0,1,.68,1.67,2.05,2.05,0,0,1-1.71,2.16,1.59,1.59,0,0,1,.9.83l.81,1.49a.78.78,0,0,1,.07.64c-.08.19-.26.29-.56.29a.77.77,0,0,1-.47-.13,1,1,0,0,1-.32-.38l-1.09-2a1.05,1.05,0,0,0-.46-.49,1.61,1.61,0,0,0-.67-.12h-1v2.41A.62.62,0,0,1,583.6,378.35Zm.69-4.15H586c1,0,1.5-.41,1.5-1.22s-.5-1.22-1.5-1.22h-1.68Z"/><path class="cls-1" d="M593.77,378.37a4,4,0,0,1-2-.48,3.28,3.28,0,0,1-1.3-1.36,5,5,0,0,1,0-4.13,3.28,3.28,0,0,1,1.3-1.36,4.14,4.14,0,0,1,2-.47,4.5,4.5,0,0,1,1.16.15,3.25,3.25,0,0,1,1,.43.7.7,0,0,1,.34.43.69.69,0,0,1-.07.47.58.58,0,0,1-.35.28.65.65,0,0,1-.53-.13,2.31,2.31,0,0,0-.72-.31,3.49,3.49,0,0,0-.79-.1,2.18,2.18,0,0,0-1.75.7,3.55,3.55,0,0,0,0,3.95,2.18,2.18,0,0,0,1.75.7,3.1,3.1,0,0,0,.81-.1,2.5,2.5,0,0,0,.75-.32.67.67,0,0,1,.52-.12.61.61,0,0,1,.34.27.59.59,0,0,1,.07.43.69.69,0,0,1-.29.42,3.16,3.16,0,0,1-1,.48A4.53,4.53,0,0,1,593.77,378.37Z"/><path class="cls-1" d="M597.79,378.26a.7.7,0,0,1-.54-.19.58.58,0,0,1-.15-.49,1.24,1.24,0,0,1,.27-.62l3.78-5.13h-3.47c-.41,0-.62-.2-.62-.59s.21-.57.62-.57h4.45a.74.74,0,0,1,.54.19.6.6,0,0,1,.15.49,1.2,1.2,0,0,1-.27.63l-3.79,5.13h3.64c.41,0,.62.19.62.57s-.21.58-.62.58Z"/><path class="cls-1" d="M604,378.35a.57.57,0,0,1-.53-.26.62.62,0,0,1,0-.63l2.84-6.29a1,1,0,0,1,.34-.45.84.84,0,0,1,.9,0,1,1,0,0,1,.34.45l2.85,6.29a.64.64,0,0,1,0,.63.55.55,0,0,1-.51.26.68.68,0,0,1-.47-.15,1.2,1.2,0,0,1-.3-.44l-.54-1.25h-3.7l-.53,1.25a1.52,1.52,0,0,1-.29.45A.62.62,0,0,1,604,378.35Zm3.09-6.18-1.37,3.24h2.76l-1.37-3.24Z"/><path class="cls-1" d="M612.53,378.35c-.43,0-.64-.22-.64-.67v-6.4a.74.74,0,0,1,.16-.52.6.6,0,0,1,.44-.17.63.63,0,0,1,.37.09,1.79,1.79,0,0,1,.3.31l3.84,5v-4.73a.64.64,0,1,1,1.28,0v6.46a.73.73,0,0,1-.15.48.53.53,0,0,1-.41.17.63.63,0,0,1-.39-.1,1.31,1.31,0,0,1-.32-.31l-3.84-5v4.74C613.17,378.13,613,378.35,612.53,378.35Z"/><path class="cls-1" d="M626.38,378.37a4.06,4.06,0,0,1-2-.48,3.2,3.2,0,0,1-1.29-1.36,5,5,0,0,1,0-4.13,3.2,3.2,0,0,1,1.29-1.36,4.17,4.17,0,0,1,2-.47,4.58,4.58,0,0,1,1.17.15,3.36,3.36,0,0,1,1,.43.72.72,0,0,1,.33.43.63.63,0,0,1-.06.47.6.6,0,0,1-.36.28.66.66,0,0,1-.53-.13,2.31,2.31,0,0,0-.72-.31,3.47,3.47,0,0,0-.78-.1,2.18,2.18,0,0,0-1.76.7,3.55,3.55,0,0,0,0,3.95,2.18,2.18,0,0,0,1.76.7,3.08,3.08,0,0,0,.8-.1,2.67,2.67,0,0,0,.76-.32.65.65,0,0,1,.51-.12.55.55,0,0,1,.34.27.59.59,0,0,1,.07.43.65.65,0,0,1-.29.42,3.16,3.16,0,0,1-1,.48A4.48,4.48,0,0,1,626.38,378.37Z"/><path class="cls-1" d="M630.86,378.35a.62.62,0,0,1-.69-.71V371.3c0-.48.23-.71.69-.71s.69.23.69.71v2.54h3.91V371.3c0-.48.23-.71.69-.71s.68.23.68.71v6.34c0,.47-.22.71-.68.71a.62.62,0,0,1-.69-.71V375h-3.91v2.65A.62.62,0,0,1,630.86,378.35Z"/><path class="cls-1" d="M641.89,378.37a3.66,3.66,0,0,1-1.92-.49,3.21,3.21,0,0,1-1.27-1.36,4.94,4.94,0,0,1,0-4.12A3.21,3.21,0,0,1,640,371a4.18,4.18,0,0,1,3.85,0,3.21,3.21,0,0,1,1.27,1.36,4.4,4.4,0,0,1,.45,2.05,4.45,4.45,0,0,1-.45,2.07,3.21,3.21,0,0,1-1.27,1.36A3.64,3.64,0,0,1,641.89,378.37Zm0-1.18a2,2,0,0,0,1.63-.73,3.74,3.74,0,0,0,0-4,2,2,0,0,0-1.63-.71,2,2,0,0,0-1.62.71,3.74,3.74,0,0,0,0,4A2,2,0,0,0,641.89,377.19Z"/><path class="cls-1" d="M647.59,378.35a.58.58,0,0,1-.65-.67v-6.4a.74.74,0,0,1,.17-.52.6.6,0,0,1,.43-.17.67.67,0,0,1,.38.09,1.49,1.49,0,0,1,.29.31l3.84,5v-4.73a.65.65,0,1,1,1.29,0v6.46a.68.68,0,0,1-.16.48.51.51,0,0,1-.4.17.68.68,0,0,1-.4-.1,1.5,1.5,0,0,1-.31-.31l-3.85-5v4.74C648.22,378.13,648,378.35,647.59,378.35Z"/><path class="cls-1" d="M655.72,378.26a.65.65,0,0,1-.73-.73v-6.12a.65.65,0,0,1,.73-.74h2.09a4.17,4.17,0,0,1,3,1,4.32,4.32,0,0,1,0,5.62,4.13,4.13,0,0,1-3,1Zm.65-1.14h1.36a2.66,2.66,0,0,0,0-5.31h-1.36Z"/><path class="cls-1" d="M663.88,378.35c-.46,0-.68-.24-.68-.71v-6.27a.62.62,0,0,1,.69-.7h2.6a2.84,2.84,0,0,1,1.93.6,2.12,2.12,0,0,1,.67,1.67,2.16,2.16,0,0,1-.44,1.41,2.2,2.2,0,0,1-1.27.75,1.58,1.58,0,0,1,.91.83l.8,1.49a.71.71,0,0,1,.07.64c-.07.19-.26.29-.55.29a.77.77,0,0,1-.47-.13,1,1,0,0,1-.33-.38l-1.08-2a1.1,1.1,0,0,0-.46-.49,1.64,1.64,0,0,0-.67-.12h-1v2.41A.62.62,0,0,1,663.88,378.35Zm.69-4.15h1.68c1,0,1.51-.41,1.51-1.22s-.5-1.22-1.51-1.22h-1.68Z"/><path class="cls-1" d="M673.93,378.37a3.67,3.67,0,0,1-1.93-.49,3.28,3.28,0,0,1-1.27-1.36,4.94,4.94,0,0,1,0-4.12A3.21,3.21,0,0,1,672,371a3.83,3.83,0,0,1,1.93-.47,3.79,3.79,0,0,1,1.92.47,3.21,3.21,0,0,1,1.27,1.36,4.4,4.4,0,0,1,.46,2.05,4.45,4.45,0,0,1-.46,2.07,3.21,3.21,0,0,1-1.27,1.36A3.61,3.61,0,0,1,673.93,378.37Zm0-1.18a2,2,0,0,0,1.62-.73,3.07,3.07,0,0,0,.58-2,3.11,3.11,0,0,0-.57-2,2.23,2.23,0,0,0-3.26,0,3.74,3.74,0,0,0,0,4A2,2,0,0,0,673.93,377.19Z"/><path class="cls-1" d="M679.66,378.35a.62.62,0,0,1-.69-.71V371.3c0-.48.23-.71.69-.71s.69.23.69.71v6.34A.62.62,0,0,1,679.66,378.35Z"/><path class="cls-1" d="M684.53,378.35a.62.62,0,0,1-.69-.71v-5.81h-2.1a.52.52,0,0,1-.59-.59.51.51,0,0,1,.59-.57h5.58a.51.51,0,0,1,.59.57.52.52,0,0,1-.59.59h-2.1v5.81A.62.62,0,0,1,684.53,378.35Z"/><path class="cls-1" d="M691.33,378.35q-.69,0-.69-.72v-2.86l-2.3-3.24a.61.61,0,0,1-.13-.41.68.68,0,0,1,.18-.38.64.64,0,0,1,.45-.15.89.89,0,0,1,.74.44l1.77,2.52,1.79-2.52a1.34,1.34,0,0,1,.33-.34.72.72,0,0,1,.4-.1.55.55,0,0,1,.56.3.64.64,0,0,1-.12.65L692,374.79v2.84Q692,378.35,691.33,378.35Z"/><path class="cls-1" d="M696.51,378.35a.58.58,0,0,1-.65-.67v-6.4a.74.74,0,0,1,.17-.52.6.6,0,0,1,.43-.17.67.67,0,0,1,.38.09,1.49,1.49,0,0,1,.29.31l3.84,5v-4.73a.65.65,0,1,1,1.29,0v6.46a.68.68,0,0,1-.16.48.51.51,0,0,1-.4.17.68.68,0,0,1-.4-.1,1.5,1.5,0,0,1-.31-.31l-3.85-5v4.74C697.14,378.13,696.93,378.35,696.51,378.35Z"/><path class="cls-1" d="M706.41,378.35q-.69,0-.69-.72v-2.86l-2.3-3.24a.56.56,0,0,1-.13-.41.57.57,0,0,1,.18-.38.64.64,0,0,1,.45-.15.89.89,0,0,1,.74.44l1.77,2.52,1.79-2.52a1.19,1.19,0,0,1,.33-.34.72.72,0,0,1,.4-.1.53.53,0,0,1,.55.3.61.61,0,0,1-.11.65l-2.29,3.25v2.84Q707.1,378.35,706.41,378.35Z"/><path class="cls-1" d="M482.2,374.41a.46.46,0,0,1-.22-.3.51.51,0,0,1,.11-.39l.49-.75-.87,0a.61.61,0,0,1-.4-.1.46.46,0,0,1,0-.68.56.56,0,0,1,.4-.09l.88.05-.49-.76a.55.55,0,0,1-.11-.4.42.42,0,0,1,.22-.29.36.36,0,0,1,.37,0,.59.59,0,0,1,.29.31l.42.86.41-.86a.59.59,0,0,1,.29-.31.37.37,0,0,1,.38,0c.26.16.3.4.1.7l-.49.75.88-.05a.56.56,0,0,1,.4.09.46.46,0,0,1,0,.68.61.61,0,0,1-.4.1l-.88,0,.49.75a.5.5,0,0,1,.12.38.43.43,0,0,1-.22.3.41.41,0,0,1-.38,0,.63.63,0,0,1-.29-.31l-.42-.87-.42.87a.66.66,0,0,1-.28.31A.43.43,0,0,1,482.2,374.41Z"/><path class="cls-1" d="M487.08,374.41a.48.48,0,0,1-.23-.3.56.56,0,0,1,.11-.39l.5-.75-.88,0a.6.6,0,0,1-.39-.1.46.46,0,0,1,0-.68.54.54,0,0,1,.39-.09l.89.05-.5-.76a.6.6,0,0,1-.11-.4.44.44,0,0,1,.23-.29.35.35,0,0,1,.37,0,.59.59,0,0,1,.29.31l.42.86.41-.86a.56.56,0,0,1,.29-.31.36.36,0,0,1,.37,0c.27.16.3.4.11.7l-.49.75.88-.05a.57.57,0,0,1,.4.09.46.46,0,0,1,0,.68.63.63,0,0,1-.4.1l-.88,0,.49.75a.54.54,0,0,1,.11.38.47.47,0,0,1-.6.34.61.61,0,0,1-.28-.31l-.42-.87-.42.87a.63.63,0,0,1-.29.31A.41.41,0,0,1,487.08,374.41Z"/><path class="cls-1" d="M492,380.29a.6.6,0,0,1-.67-.68v-6a.66.66,0,1,1,1.32,0v.23a1.71,1.71,0,0,1,.68-.68,2.07,2.07,0,0,1,1-.25,2.25,2.25,0,0,1,1.22.33,2.37,2.37,0,0,1,.81.95,3.38,3.38,0,0,1,.29,1.45,3.46,3.46,0,0,1-.29,1.46,2.26,2.26,0,0,1-.81,1,2.2,2.2,0,0,1-1.22.33,2.08,2.08,0,0,1-1-.24,1.73,1.73,0,0,1-.69-.65v2.13A.6.6,0,0,1,492,380.29Zm2-2.94a1.22,1.22,0,0,0,1-.44,2,2,0,0,0,.36-1.29,1.94,1.94,0,0,0-.36-1.28,1.21,1.21,0,0,0-1-.43,1.2,1.2,0,0,0-1,.43,1.94,1.94,0,0,0-.37,1.28,2,2,0,0,0,.37,1.29A1.21,1.21,0,0,0,494,377.35Z"/><path class="cls-1" d="M502.42,377.69l-4.31-1.82a.74.74,0,0,1,0-1.4l4.31-1.83a.48.48,0,0,1,.39,0,.47.47,0,0,1,.23.27.55.55,0,0,1,0,.36.5.5,0,0,1-.29.28l-3.89,1.63,3.89,1.64a.46.46,0,0,1,.29.27.56.56,0,0,1,0,.36.45.45,0,0,1-.23.26A.42.42,0,0,1,502.42,377.69Z"/><path class="cls-1" d="M506.75,378.37a2.35,2.35,0,0,1-2.06-1,5,5,0,0,1-.71-2.9,4.87,4.87,0,0,1,.71-2.89,2.64,2.64,0,0,1,4.12,0,4.94,4.94,0,0,1,.7,2.88,5.08,5.08,0,0,1-.71,2.91A2.34,2.34,0,0,1,506.75,378.37Zm0-1.13a1.16,1.16,0,0,0,1.08-.68,4.89,4.89,0,0,0,.35-2.12,4.68,4.68,0,0,0-.35-2.09,1.22,1.22,0,0,0-2.16,0,4.52,4.52,0,0,0-.36,2.09,4.73,4.73,0,0,0,.36,2.12A1.15,1.15,0,0,0,506.75,377.24Z"/><path class="cls-1" d="M511.49,379.41a.48.48,0,0,1-.29.2.34.34,0,0,1-.28-.06.29.29,0,0,1-.13-.24.49.49,0,0,1,.14-.34,1.52,1.52,0,0,0,.21-.33,1.74,1.74,0,0,0,.11-.32.85.85,0,0,1-.53-.25.78.78,0,0,1-.21-.56.77.77,0,0,1,.22-.57.78.78,0,0,1,.58-.22.73.73,0,0,1,.59.26,1.09,1.09,0,0,1,.22.72,3,3,0,0,1-.13.81A2.56,2.56,0,0,1,511.49,379.41Z"/><path class="cls-1" d="M515.87,378.37a2.33,2.33,0,0,1-2-1,5,5,0,0,1-.71-2.9,4.87,4.87,0,0,1,.71-2.89,2.63,2.63,0,0,1,4.11,0,4.94,4.94,0,0,1,.71,2.88,5.08,5.08,0,0,1-.71,2.91A2.36,2.36,0,0,1,515.87,378.37Zm0-1.13a1.14,1.14,0,0,0,1.08-.68,4.75,4.75,0,0,0,.35-2.12,4.55,4.55,0,0,0-.35-2.09,1.13,1.13,0,0,0-1.08-.65,1.15,1.15,0,0,0-1.08.65,4.68,4.68,0,0,0-.35,2.09,4.89,4.89,0,0,0,.35,2.12A1.16,1.16,0,0,0,515.87,377.24Z"/><path class="cls-1" d="M522.33,378.37a2.36,2.36,0,0,1-2.06-1,5,5,0,0,1-.71-2.9,5,5,0,0,1,.71-2.89,2.64,2.64,0,0,1,4.12,0,4.94,4.94,0,0,1,.71,2.88,5.08,5.08,0,0,1-.71,2.91A2.36,2.36,0,0,1,522.33,378.37Zm0-1.13a1.14,1.14,0,0,0,1.08-.68,4.89,4.89,0,0,0,.35-2.12,4.68,4.68,0,0,0-.35-2.09,1.13,1.13,0,0,0-1.08-.65,1.15,1.15,0,0,0-1.08.65,4.68,4.68,0,0,0-.35,2.09,4.89,4.89,0,0,0,.35,2.12A1.16,1.16,0,0,0,522.33,377.24Z"/><path class="cls-1" d="M527.24,378.26a.51.51,0,0,1-.59-.58c0-.37.19-.56.59-.56h1.2v-4.87l-.91.54a.55.55,0,0,1-.47.08.57.57,0,0,1-.32-.27.63.63,0,0,1-.06-.43.58.58,0,0,1,.3-.38l1.48-.89a3,3,0,0,1,.44-.22,1,1,0,0,1,.39-.09.6.6,0,0,1,.38.12.49.49,0,0,1,.15.4v6h1.1c.39,0,.59.19.59.56a.52.52,0,0,1-.59.58Z"/></g></svg>