<?xml version="1.0" encoding="UTF-8"?><svg id="Warstwa_3" xmlns="http://www.w3.org/2000/svg" viewBox="0 0 990.96 996.61"><defs><style>.cls-1{fill:#fff;}.cls-2{fill:#e42e26;}.cls-3{fill:#0c167d;}.cls-4{fill:#62a4d8;}</style></defs><rect class="cls-1" x="-8.34" y="-8.76" width="1006.3" height="336.72"/><rect class="cls-4" x="-8.34" y="444.04" width="1006.3" height="155.35"/><rect class="cls-2" x="-8.34" y="630.53" width="1006.3" height="370.4"/><path class="cls-3" d="m173.58,99.54v-36.4h4.26l16.33,27.51h-2.29l16.12-27.51h4.26l.05,36.4h-4.99l-.05-28.55h1.2l-14.35,24.13h-2.39l-14.46-24.13h1.3v28.55h-4.99Z"/><path class="cls-3" d="m234.78,99.85c-2.95,0-5.54-.61-7.77-1.82-2.24-1.21-3.97-2.88-5.2-4.99-1.23-2.11-1.85-4.54-1.85-7.28s.6-5.17,1.79-7.28c1.2-2.11,2.84-3.77,4.94-4.97,2.1-1.2,4.46-1.79,7.1-1.79s5.03.59,7.07,1.77c2.04,1.18,3.65,2.83,4.81,4.97,1.16,2.13,1.74,4.62,1.74,7.46,0,.21,0,.45-.03.73-.02.28-.04.54-.08.78h-23.45v-3.59h20.85l-2.03,1.25c.03-1.77-.33-3.35-1.09-4.73-.76-1.39-1.81-2.47-3.15-3.25-1.33-.78-2.89-1.17-4.65-1.17s-3.28.39-4.63,1.17c-1.35.78-2.41,1.87-3.17,3.28-.76,1.4-1.14,3.01-1.14,4.81v.83c0,1.84.42,3.48,1.27,4.91.85,1.44,2.04,2.56,3.56,3.35,1.52.8,3.28,1.2,5.25,1.2,1.63,0,3.11-.28,4.45-.83,1.33-.55,2.5-1.39,3.51-2.5l2.76,3.22c-1.25,1.46-2.8,2.57-4.65,3.33-1.85.76-3.93,1.14-6.21,1.14Z"/><path class="cls-3" d="m250.38,76.08v-4.11h17.58v4.11h-17.58Zm13.42,23.76c-2.77,0-4.92-.75-6.45-2.24-1.53-1.49-2.29-3.62-2.29-6.4v-25.27h4.99v25.06c0,1.49.37,2.63,1.12,3.43.75.8,1.81,1.2,3.2,1.2,1.56,0,2.86-.43,3.9-1.3l1.56,3.59c-.76.66-1.67,1.14-2.73,1.46-1.06.31-2.16.47-3.3.47Z"/><path class="cls-3" d="m283.92,99.85c-2.05,0-3.84-.35-5.38-1.04-1.54-.69-2.73-1.66-3.56-2.89s-1.25-2.63-1.25-4.19.36-2.84,1.07-4.06c.71-1.21,1.87-2.18,3.48-2.91,1.61-.73,3.79-1.09,6.53-1.09h8.74v3.59h-8.53c-2.5,0-4.18.42-5.04,1.25-.87.83-1.3,1.84-1.3,3.02,0,1.35.54,2.44,1.61,3.25,1.07.81,2.56,1.22,4.47,1.22s3.51-.42,4.91-1.25,2.42-2.04,3.04-3.64l.99,3.43c-.66,1.63-1.82,2.92-3.48,3.87-1.66.95-3.76,1.43-6.29,1.43Zm9.05-.31v-5.82l-.26-1.09v-9.93c0-2.11-.62-3.75-1.85-4.91-1.23-1.16-3.08-1.74-5.54-1.74-1.63,0-3.22.27-4.78.81-1.56.54-2.88,1.26-3.95,2.16l-2.08-3.74c1.42-1.14,3.13-2.02,5.12-2.63,1.99-.61,4.08-.91,6.27-.91,3.78,0,6.69.92,8.74,2.76,2.04,1.84,3.07,4.65,3.07,8.42v16.64h-4.73Z"/><path class="cls-3" d="m315.02,99.85c-2.05,0-3.84-.35-5.38-1.04-1.54-.69-2.73-1.66-3.56-2.89s-1.25-2.63-1.25-4.19.36-2.84,1.07-4.06c.71-1.21,1.87-2.18,3.48-2.91,1.61-.73,3.79-1.09,6.53-1.09h8.74v3.59h-8.53c-2.5,0-4.18.42-5.04,1.25-.87.83-1.3,1.84-1.3,3.02,0,1.35.54,2.44,1.61,3.25,1.07.81,2.56,1.22,4.47,1.22s3.51-.42,4.91-1.25,2.42-2.04,3.04-3.64l.99,3.43c-.66,1.63-1.82,2.92-3.48,3.87-1.66.95-3.76,1.43-6.29,1.43Zm9.05-.31v-5.82l-.26-1.09v-9.93c0-2.11-.62-3.75-1.85-4.91-1.23-1.16-3.08-1.74-5.54-1.74-1.63,0-3.22.27-4.78.81-1.56.54-2.88,1.26-3.95,2.16l-2.08-3.74c1.42-1.14,3.13-2.02,5.12-2.63,1.99-.61,4.08-.91,6.27-.91,3.78,0,6.69.92,8.74,2.76,2.04,1.84,3.07,4.65,3.07,8.42v16.64h-4.73Z"/><path class="cls-3" d="m352.77,71.72c2.25,0,4.24.43,5.95,1.3,1.72.87,3.06,2.18,4.03,3.95s1.46,4,1.46,6.71v15.86h-4.99v-15.29c0-2.67-.65-4.68-1.95-6.03s-3.13-2.03-5.49-2.03c-1.77,0-3.31.35-4.63,1.04-1.32.69-2.33,1.72-3.04,3.07-.71,1.35-1.07,3.03-1.07,5.04v14.2h-4.99v-27.56h4.78v7.44l-.78-1.98c.9-1.8,2.29-3.21,4.16-4.21,1.87-1,4.06-1.51,6.55-1.51Z"/><path class="cls-3" d="m381.53,99.85c-2.05,0-3.84-.35-5.38-1.04-1.54-.69-2.73-1.66-3.56-2.89s-1.25-2.63-1.25-4.19.36-2.84,1.07-4.06c.71-1.21,1.87-2.18,3.48-2.91,1.61-.73,3.79-1.09,6.53-1.09h8.74v3.59h-8.53c-2.5,0-4.18.42-5.04,1.25-.87.83-1.3,1.84-1.3,3.02,0,1.35.54,2.44,1.61,3.25,1.07.81,2.56,1.22,4.47,1.22s3.51-.42,4.91-1.25,2.42-2.04,3.04-3.64l.99,3.43c-.66,1.63-1.82,2.92-3.48,3.87-1.66.95-3.76,1.43-6.29,1.43Zm9.05-.31v-5.82l-.26-1.09v-9.93c0-2.11-.62-3.75-1.85-4.91-1.23-1.16-3.08-1.74-5.54-1.74-1.63,0-3.22.27-4.78.81-1.56.54-2.88,1.26-3.95,2.16l-2.08-3.74c1.42-1.14,3.13-2.02,5.12-2.63,1.99-.61,4.08-.91,6.27-.91,3.78,0,6.69.92,8.74,2.76,2.04,1.84,3.07,4.65,3.07,8.42v16.64h-4.73Z"/><path class="cls-3" d="m404.56,99.54v-38.58h4.99v38.58h-4.99Z"/><path class="cls-3" d="m421.57,66.67c-.97,0-1.78-.31-2.42-.94s-.96-1.39-.96-2.29.32-1.72.96-2.34c.64-.62,1.45-.94,2.42-.94s1.78.3,2.42.91c.64.61.96,1.36.96,2.26s-.31,1.72-.94,2.37c-.62.64-1.44.96-2.44.96Zm-2.5,32.86v-27.56h4.99v27.56h-4.99Z"/><path class="cls-3" d="m430.93,99.54v-3.22l17.68-21.94.99,1.72h-18.36v-4.11h22.36v3.28l-17.68,21.89-1.14-1.72h19.24v4.11h-23.09Z"/><path class="cls-3" d="m468.73,99.85c-2.05,0-3.84-.35-5.38-1.04-1.54-.69-2.73-1.66-3.56-2.89s-1.25-2.63-1.25-4.19.36-2.84,1.07-4.06c.71-1.21,1.87-2.18,3.48-2.91,1.61-.73,3.79-1.09,6.53-1.09h8.74v3.59h-8.53c-2.5,0-4.18.42-5.04,1.25-.87.83-1.3,1.84-1.3,3.02,0,1.35.54,2.44,1.61,3.25,1.07.81,2.56,1.22,4.47,1.22s3.51-.42,4.91-1.25,2.42-2.04,3.04-3.64l.99,3.43c-.66,1.63-1.82,2.92-3.48,3.87-1.66.95-3.76,1.43-6.29,1.43Zm9.05-.31v-5.82l-.26-1.09v-9.93c0-2.11-.62-3.75-1.85-4.91-1.23-1.16-3.08-1.74-5.54-1.74-1.63,0-3.22.27-4.78.81-1.56.54-2.88,1.26-3.95,2.16l-2.08-3.74c1.42-1.14,3.13-2.02,5.12-2.63,1.99-.61,4.08-.91,6.27-.91,3.78,0,6.69.92,8.74,2.76,2.04,1.84,3.07,4.65,3.07,8.42v16.64h-4.73Z"/><path class="cls-3" d="m506.48,99.54v-36.4h4.26l16.33,27.51h-2.29l16.12-27.51h4.26l.05,36.4h-4.99l-.05-28.55h1.2l-14.35,24.13h-2.39l-14.46-24.13h1.3v28.55h-4.99Z"/><path class="cls-3" d="m567.42,99.85c-2.81,0-5.31-.61-7.51-1.82-2.2-1.21-3.93-2.88-5.17-4.99-1.25-2.11-1.87-4.54-1.87-7.28s.62-5.17,1.87-7.28c1.25-2.11,2.97-3.77,5.17-4.97,2.2-1.2,4.71-1.79,7.51-1.79,2.5,0,4.72.49,6.68,1.48,1.96.99,3.48,2.45,4.55,4.39l-3.8,2.44c-.9-1.35-2-2.35-3.3-2.99-1.3-.64-2.7-.96-4.19-.96-1.8,0-3.42.4-4.84,1.2-1.42.8-2.55,1.92-3.38,3.35-.83,1.44-1.25,3.15-1.25,5.12s.42,3.69,1.25,5.15,1.96,2.58,3.38,3.38c1.42.8,3.03,1.2,4.84,1.2,1.49,0,2.89-.32,4.19-.96,1.3-.64,2.4-1.64,3.3-2.99l3.8,2.39c-1.07,1.91-2.59,3.37-4.55,4.39-1.96,1.02-4.19,1.53-6.68,1.53Z"/><path class="cls-3" d="m580.32,99.54l16.48-36.4h5.15l16.54,36.4h-5.46l-14.72-33.49h2.08l-14.72,33.49h-5.36Zm7.02-9.1l1.4-4.16h20.49l1.51,4.16h-23.4Z"/><path class="cls-3" d="m623.17,99.54v-38.58h4.99v38.58h-4.99Z"/><path class="cls-3" d="m640.17,66.67c-.97,0-1.78-.31-2.42-.94s-.96-1.39-.96-2.29.32-1.72.96-2.34c.64-.62,1.45-.94,2.42-.94s1.78.3,2.42.91c.64.61.96,1.36.96,2.26s-.31,1.72-.94,2.37c-.62.64-1.44.96-2.44.96Zm-2.5,32.86v-27.56h4.99v27.56h-4.99Z"/><path class="cls-3" d="m666.9,71.72c2.25,0,4.24.43,5.95,1.3,1.72.87,3.06,2.18,4.03,3.95s1.46,4,1.46,6.71v15.86h-4.99v-15.29c0-2.67-.65-4.68-1.95-6.03s-3.13-2.03-5.49-2.03c-1.77,0-3.31.35-4.63,1.04-1.32.69-2.33,1.72-3.04,3.07-.71,1.35-1.07,3.03-1.07,5.04v14.2h-4.99v-27.56h4.78v7.44l-.78-1.98c.9-1.8,2.29-3.21,4.16-4.21,1.87-1,4.06-1.51,6.55-1.51Z"/><path class="cls-3" d="m698.98,99.85c-2.67,0-5.05-.59-7.15-1.77-2.1-1.18-3.75-2.83-4.97-4.94-1.21-2.11-1.82-4.58-1.82-7.38s.61-5.26,1.82-7.36c1.21-2.1,2.87-3.73,4.97-4.91,2.1-1.18,4.48-1.77,7.15-1.77,2.32,0,4.42.52,6.29,1.56,1.87,1.04,3.37,2.6,4.5,4.68,1.13,2.08,1.69,4.68,1.69,7.8s-.55,5.72-1.64,7.8-2.57,3.65-4.45,4.71c-1.87,1.06-4,1.59-6.4,1.59Zm.42-4.37c1.73,0,3.3-.4,4.71-1.2,1.4-.8,2.51-1.93,3.33-3.41.81-1.47,1.22-3.18,1.22-5.12s-.41-3.68-1.22-5.12c-.82-1.44-1.92-2.56-3.33-3.35-1.4-.8-2.97-1.2-4.71-1.2s-3.35.4-4.73,1.2c-1.39.8-2.5,1.92-3.33,3.35-.83,1.44-1.25,3.15-1.25,5.12s.42,3.65,1.25,5.12c.83,1.47,1.94,2.61,3.33,3.41,1.39.8,2.96,1.2,4.73,1.2Zm9.41,4.06v-7.44l.31-6.4-.52-6.4v-18.36h4.99v38.58h-4.78Z"/><path class="cls-3" d="m734.86,99.85c-2.77,0-5.24-.61-7.38-1.82-2.15-1.21-3.85-2.89-5.1-5.02-1.25-2.13-1.87-4.55-1.87-7.25s.62-5.17,1.87-7.28c1.25-2.11,2.95-3.77,5.1-4.97,2.15-1.2,4.61-1.79,7.38-1.79s5.19.6,7.36,1.79c2.17,1.2,3.87,2.84,5.1,4.94,1.23,2.1,1.85,4.53,1.85,7.31s-.62,5.17-1.85,7.28c-1.23,2.11-2.93,3.78-5.1,4.99-2.17,1.21-4.62,1.82-7.36,1.82Zm0-4.37c1.77,0,3.35-.4,4.76-1.2,1.4-.8,2.5-1.93,3.3-3.41.8-1.47,1.2-3.18,1.2-5.12s-.4-3.68-1.2-5.12c-.8-1.44-1.9-2.56-3.3-3.35-1.4-.8-2.99-1.2-4.76-1.2s-3.35.4-4.73,1.2c-1.39.8-2.5,1.92-3.33,3.35-.83,1.44-1.25,3.15-1.25,5.12s.42,3.65,1.25,5.12c.83,1.47,1.94,2.61,3.33,3.41,1.39.8,2.96,1.2,4.73,1.2Z"/><path class="cls-3" d="m770.79,71.72c2.25,0,4.24.43,5.95,1.3,1.72.87,3.06,2.18,4.03,3.95s1.46,4,1.46,6.71v15.86h-4.99v-15.29c0-2.67-.65-4.68-1.95-6.03s-3.13-2.03-5.49-2.03c-1.77,0-3.31.35-4.63,1.04-1.32.69-2.33,1.72-3.04,3.07-.71,1.35-1.07,3.03-1.07,5.04v14.2h-4.99v-27.56h4.78v7.44l-.78-1.98c.9-1.8,2.29-3.21,4.16-4.21,1.87-1,4.06-1.51,6.55-1.51Z"/><path class="cls-3" d="m799.55,99.85c-2.05,0-3.84-.35-5.38-1.04-1.54-.69-2.73-1.66-3.56-2.89s-1.25-2.63-1.25-4.19.36-2.84,1.07-4.06c.71-1.21,1.87-2.18,3.48-2.91,1.61-.73,3.79-1.09,6.53-1.09h8.74v3.59h-8.53c-2.5,0-4.18.42-5.04,1.25-.87.83-1.3,1.84-1.3,3.02,0,1.35.54,2.44,1.61,3.25,1.07.81,2.56,1.22,4.47,1.22s3.51-.42,4.91-1.25,2.42-2.04,3.04-3.64l.99,3.43c-.66,1.63-1.82,2.92-3.48,3.87-1.66.95-3.76,1.43-6.29,1.43Zm9.05-.31v-5.82l-.26-1.09v-9.93c0-2.11-.62-3.75-1.85-4.91-1.23-1.16-3.08-1.74-5.54-1.74-1.63,0-3.22.27-4.78.81-1.56.54-2.88,1.26-3.95,2.16l-2.08-3.74c1.42-1.14,3.13-2.02,5.12-2.63,1.99-.61,4.08-.91,6.27-.91,3.78,0,6.69.92,8.74,2.76,2.04,1.84,3.07,4.65,3.07,8.42v16.64h-4.73Z"/><path class="cls-3" d="m73.71,160.35c-1.66-2.65-2.94-5.71-3.84-9.18-.9-3.48-1.35-7.22-1.35-11.23s.45-7.77,1.35-11.28c.9-3.5,2.18-6.55,3.84-9.14h3.97c-1.75,3.08-3.03,6.3-3.84,9.66-.81,3.36-1.22,6.94-1.22,10.75s.41,7.4,1.22,10.75c.81,3.36,2.09,6.58,3.84,9.66h-3.97Z"/><path class="cls-3" d="m86.76,151.89v-28.8l1.88,2.05h-8.77v-3.8h11.21v30.54h-4.32Z"/><path class="cls-3" d="m103.03,151.89l12.96-28.71,1.13,1.96h-18.15l2.18-2.14v7.59h-4.19v-9.25h23.04v2.97l-12.35,27.57h-4.62Z"/><path class="cls-3" d="m129.43,151.89v-28.8l1.88,2.05h-8.77v-3.8h11.21v30.54h-4.32Z"/><path class="cls-3" d="m152.9,152.24c-2.39,0-4.52-.61-6.39-1.83s-3.36-3-4.45-5.32c-1.09-2.33-1.64-5.15-1.64-8.46s.55-6.14,1.64-8.46c1.09-2.33,2.57-4.1,4.45-5.32s4.01-1.83,6.39-1.83,4.48.61,6.37,1.83c1.89,1.22,3.37,3,4.45,5.32,1.08,2.33,1.61,5.15,1.61,8.46s-.54,6.14-1.61,8.46c-1.08,2.33-2.56,4.1-4.45,5.32-1.89,1.22-4.01,1.83-6.37,1.83Zm0-3.88c1.6,0,3-.44,4.21-1.31s2.15-2.18,2.84-3.93,1.03-3.91,1.03-6.5-.34-4.76-1.03-6.5-1.63-3.05-2.84-3.93-2.61-1.31-4.21-1.31-3.01.44-4.23,1.31-2.17,2.18-2.86,3.93-1.03,3.91-1.03,6.5.34,4.76,1.03,6.5,1.64,3.05,2.86,3.93,2.63,1.31,4.23,1.31Z"/><path class="cls-3" d="m183.13,160.35v-31.59h4.01v6.24l-.26,5.37.44,5.37v14.62h-4.19Zm12.26-8.2c-1.92,0-3.67-.44-5.26-1.33-1.59-.89-2.85-2.2-3.8-3.95-.95-1.75-1.42-3.93-1.42-6.54s.46-4.8,1.38-6.54c.92-1.75,2.17-3.05,3.75-3.93,1.58-.87,3.37-1.31,5.34-1.31,2.27,0,4.28.5,6.02,1.48,1.75.99,3.13,2.36,4.14,4.12,1.02,1.76,1.53,3.82,1.53,6.17s-.51,4.42-1.53,6.2c-1.02,1.77-2.4,3.16-4.14,4.14-1.75.99-3.75,1.48-6.02,1.48Zm-.35-3.67c1.48,0,2.81-.33,3.99-1,1.18-.67,2.11-1.62,2.79-2.86.68-1.24,1.02-2.67,1.02-4.3s-.34-3.09-1.02-4.3c-.68-1.21-1.62-2.14-2.79-2.81-1.18-.67-2.51-1-3.99-1s-2.77.33-3.95,1c-1.18.67-2.11,1.61-2.79,2.81-.68,1.21-1.03,2.64-1.03,4.3s.34,3.06,1.03,4.3c.68,1.24,1.61,2.19,2.79,2.86,1.18.67,2.49,1,3.95,1Z"/><path class="cls-3" d="m219.43,152.15c-1.72,0-3.22-.29-4.52-.87-1.29-.58-2.29-1.39-2.99-2.42-.7-1.03-1.05-2.2-1.05-3.51s.3-2.38.89-3.4c.6-1.02,1.57-1.83,2.92-2.44s3.18-.92,5.48-.92h7.33v3.01h-7.16c-2.09,0-3.51.35-4.23,1.05-.73.7-1.09,1.54-1.09,2.53,0,1.13.45,2.04,1.35,2.73.9.68,2.15,1.03,3.75,1.03s2.95-.35,4.12-1.05c1.18-.7,2.03-1.72,2.55-3.05l.83,2.88c-.55,1.37-1.53,2.45-2.92,3.25-1.4.8-3.16,1.2-5.28,1.2Zm7.59-.26v-4.89l-.22-.92v-8.33c0-1.77-.52-3.15-1.55-4.12-1.03-.97-2.58-1.46-4.65-1.46-1.37,0-2.71.23-4.01.68-1.31.45-2.41,1.05-3.32,1.81l-1.75-3.14c1.19-.96,2.62-1.69,4.3-2.2,1.67-.51,3.42-.76,5.26-.76,3.17,0,5.61.77,7.33,2.31,1.72,1.54,2.57,3.9,2.57,7.07v13.96h-3.97Z"/><path class="cls-3" d="m248.84,152.15c-2.36,0-4.46-.51-6.3-1.53-1.85-1.02-3.29-2.41-4.34-4.19-1.05-1.77-1.57-3.81-1.57-6.11s.52-4.33,1.57-6.11c1.05-1.77,2.49-3.16,4.34-4.17,1.85-1,3.95-1.51,6.3-1.51,2.09,0,3.96.41,5.61,1.24,1.64.83,2.92,2.06,3.82,3.69l-3.18,2.05c-.76-1.13-1.68-1.97-2.77-2.51-1.09-.54-2.26-.81-3.51-.81-1.51,0-2.87.33-4.06,1-1.19.67-2.14,1.61-2.84,2.81-.7,1.21-1.05,2.64-1.05,4.3s.35,3.1,1.05,4.32,1.64,2.17,2.84,2.84c1.19.67,2.54,1,4.06,1,1.25,0,2.42-.27,3.51-.81,1.09-.54,2.01-1.37,2.77-2.51l3.18,2.01c-.9,1.6-2.17,2.83-3.82,3.69-1.64.86-3.51,1.29-5.61,1.29Z"/><path class="cls-3" d="m260.71,160.62c-.96,0-1.88-.12-2.77-.35-.89-.23-1.64-.58-2.25-1.05l1.35-3.23c.87.73,2.01,1.09,3.4,1.09,1.1,0,1.96-.34,2.55-1.03.6-.68.89-1.69.89-3.03v-24.26h4.19v24.17c0,2.36-.63,4.22-1.9,5.61-1.26,1.38-3.09,2.07-5.47,2.07Zm5.28-36.3c-.81,0-1.49-.26-2.03-.79-.54-.52-.81-1.16-.81-1.92s.27-1.44.81-1.96c.54-.52,1.21-.79,2.03-.79s1.49.25,2.03.76c.54.51.81,1.14.81,1.9s-.26,1.45-.79,1.99c-.52.54-1.21.81-2.05.81Z"/><path class="cls-3" d="m286.36,152.15c-2.47,0-4.65-.51-6.52-1.53-1.88-1.02-3.33-2.41-4.36-4.19-1.03-1.77-1.55-3.81-1.55-6.11s.5-4.33,1.51-6.11c1-1.77,2.38-3.16,4.14-4.17s3.75-1.51,5.96-1.51,4.22.5,5.93,1.48c1.72.99,3.06,2.38,4.04,4.17.97,1.79,1.46,3.88,1.46,6.26,0,.17,0,.38-.02.61-.01.23-.04.45-.07.65h-19.68v-3.01h17.5l-1.7,1.05c.03-1.48-.28-2.81-.92-3.97-.64-1.16-1.52-2.07-2.64-2.73-1.12-.65-2.42-.98-3.91-.98s-2.75.33-3.88.98c-1.13.65-2.02,1.57-2.66,2.75-.64,1.18-.96,2.52-.96,4.04v.7c0,1.54.36,2.92,1.07,4.12.71,1.21,1.71,2.15,2.99,2.81,1.28.67,2.75,1,4.41,1,1.37,0,2.61-.23,3.73-.7,1.12-.46,2.1-1.16,2.95-2.09l2.31,2.71c-1.05,1.22-2.35,2.15-3.91,2.79-1.56.64-3.29.96-5.21.96Z"/><path class="cls-3" d="m315.11,128.55c1.89,0,3.56.36,5,1.09,1.44.73,2.57,1.83,3.38,3.32.81,1.48,1.22,3.36,1.22,5.63v13.31h-4.19v-12.83c0-2.24-.55-3.93-1.64-5.06-1.09-1.13-2.63-1.7-4.6-1.7-1.48,0-2.78.29-3.88.87-1.11.58-1.96,1.44-2.55,2.57-.6,1.13-.89,2.55-.89,4.23v11.91h-4.19v-23.12h4.01v6.24l-.65-1.66c.76-1.51,1.92-2.69,3.49-3.53,1.57-.84,3.4-1.27,5.5-1.27Z"/><path class="cls-3" d="m329.16,132.21v-3.45h14.75v3.45h-14.75Zm11.26,19.94c-2.33,0-4.13-.62-5.41-1.88-1.28-1.25-1.92-3.04-1.92-5.37v-21.2h4.19v21.03c0,1.25.31,2.21.94,2.88.62.67,1.52,1,2.68,1,1.31,0,2.4-.36,3.27-1.09l1.31,3.01c-.64.55-1.4.96-2.29,1.22-.89.26-1.81.39-2.77.39Z"/><path class="cls-3" d="m359.66,152.15c-2.33,0-4.39-.51-6.2-1.53-1.8-1.02-3.23-2.42-4.28-4.21-1.05-1.79-1.57-3.82-1.57-6.09s.52-4.33,1.57-6.11c1.05-1.77,2.47-3.16,4.28-4.17,1.8-1,3.87-1.51,6.2-1.51s4.36.5,6.17,1.51c1.82,1,3.24,2.39,4.28,4.14,1.03,1.76,1.55,3.8,1.55,6.13s-.52,4.33-1.55,6.11c-1.03,1.77-2.46,3.17-4.28,4.19-1.82,1.02-3.88,1.53-6.17,1.53Zm0-3.67c1.48,0,2.81-.33,3.99-1,1.18-.67,2.1-1.62,2.77-2.86s1-2.67,1-4.3-.33-3.09-1-4.3c-.67-1.21-1.59-2.14-2.77-2.81-1.18-.67-2.51-1-3.99-1s-2.81.33-3.97,1c-1.16.67-2.09,1.61-2.79,2.81-.7,1.21-1.05,2.64-1.05,4.3s.35,3.06,1.05,4.3,1.63,2.19,2.79,2.86c1.16.67,2.49,1,3.97,1Zm-3.32-23.08l5.93-5.67h5.32l-7.33,5.67h-3.93Z"/><path class="cls-3" d="m381.69,151.89l-8.59-23.12h3.97l7.63,20.94h-1.88l7.94-20.94h3.53l7.77,20.94h-1.83l7.81-20.94h3.75l-8.64,23.12h-4.01l-7.29-19.11h1.22l-7.37,19.11h-4.01Z"/><path class="cls-3" d="m425.54,151.89v-2.71l14.83-18.41.83,1.44h-15.4v-3.45h18.76v2.75l-14.83,18.37-.96-1.44h16.14v3.45h-19.37Z"/><path class="cls-3" d="m476.5,152.24c-2.33,0-4.47-.39-6.44-1.16-1.96-.77-3.67-1.86-5.1-3.27-1.44-1.41-2.57-3.06-3.38-4.95-.81-1.89-1.22-3.97-1.22-6.24s.41-4.35,1.22-6.24c.81-1.89,1.95-3.54,3.4-4.95,1.45-1.41,3.16-2.5,5.13-3.27,1.96-.77,4.11-1.16,6.44-1.16s4.53.4,6.52,1.2c1.99.8,3.69,1.99,5.08,3.56l-2.83,2.75c-1.16-1.22-2.47-2.13-3.93-2.73-1.46-.6-3.01-.89-4.67-.89s-3.31.29-4.78.87c-1.47.58-2.74,1.4-3.82,2.44-1.08,1.05-1.91,2.29-2.51,3.73-.6,1.44-.89,3-.89,4.69s.3,3.25.89,4.69c.6,1.44,1.43,2.68,2.51,3.73,1.08,1.05,2.35,1.86,3.82,2.44,1.47.58,3.06.87,4.78.87s3.21-.3,4.67-.89c1.45-.6,2.76-1.52,3.93-2.77l2.83,2.75c-1.4,1.57-3.09,2.76-5.08,3.58-1.99.81-4.18,1.22-6.57,1.22Z"/><path class="cls-3" d="m506.12,128.55c1.89,0,3.56.36,5,1.09,1.44.73,2.57,1.83,3.38,3.32.81,1.48,1.22,3.36,1.22,5.63v13.31h-4.19v-12.83c0-2.24-.55-3.93-1.64-5.06-1.09-1.13-2.63-1.7-4.6-1.7-1.48,0-2.78.29-3.88.87-1.11.58-1.96,1.44-2.55,2.57-.6,1.13-.89,2.55-.89,4.23v11.91h-4.19v-32.37h4.19v15.49l-.83-1.66c.76-1.51,1.92-2.69,3.49-3.53,1.57-.84,3.4-1.27,5.5-1.27Z"/><path class="cls-3" d="m521.39,151.89v-2.97l20.55-25.48.48,1.7h-20.72v-3.8h24.65v2.97l-20.46,25.48-.52-1.7h21.55v3.8h-25.52Z"/><path class="cls-3" d="m561.66,152.24c-2.33,0-4.55-.36-6.67-1.07-2.12-.71-3.8-1.64-5.02-2.77l1.61-3.4c1.16,1.02,2.65,1.86,4.45,2.53,1.8.67,3.68,1,5.63,1,1.77,0,3.21-.2,4.32-.61,1.11-.41,1.92-.97,2.44-1.68.52-.71.79-1.52.79-2.42,0-1.05-.34-1.89-1.03-2.53-.68-.64-1.57-1.16-2.66-1.55s-2.29-.73-3.6-1.03c-1.31-.29-2.62-.63-3.95-1.02-1.32-.39-2.53-.89-3.62-1.51s-1.97-1.43-2.64-2.47c-.67-1.03-1-2.36-1-3.99s.42-3.02,1.24-4.34c.83-1.32,2.11-2.38,3.84-3.19,1.73-.8,3.93-1.2,6.61-1.2,1.77,0,3.53.23,5.28.7,1.75.47,3.26,1.13,4.54,2.01l-1.44,3.49c-1.31-.87-2.69-1.51-4.14-1.9s-2.87-.59-4.23-.59c-1.72,0-3.13.22-4.23.65-1.11.44-1.91,1.02-2.42,1.75-.51.73-.76,1.54-.76,2.44,0,1.08.34,1.93,1.02,2.57.68.64,1.57,1.15,2.66,1.53,1.09.38,2.29.72,3.6,1.03,1.31.31,2.62.65,3.95,1.03,1.32.38,2.53.87,3.62,1.48s1.97,1.43,2.64,2.44c.67,1.02,1,2.33,1,3.93s-.42,2.97-1.26,4.3c-.84,1.32-2.15,2.39-3.91,3.19-1.76.8-3.98,1.2-6.65,1.2Z"/><path class="cls-3" d="m590.98,151.89v-32.37h4.19v32.37h-4.19Zm3.4-5.58l.09-5.37,13.31-12.17h5.06l-10.21,10.03-2.27,1.92-5.98,5.58Zm14.27,5.58l-9.08-11.26,2.71-3.36,11.52,14.62h-5.15Z"/><path class="cls-3" d="m626.8,152.15c-2.33,0-4.39-.51-6.2-1.53-1.8-1.02-3.23-2.42-4.28-4.21-1.05-1.79-1.57-3.82-1.57-6.09s.52-4.33,1.57-6.11c1.05-1.77,2.47-3.16,4.28-4.17,1.8-1,3.87-1.51,6.2-1.51s4.36.5,6.17,1.51c1.82,1,3.24,2.39,4.28,4.14,1.03,1.76,1.55,3.8,1.55,6.13s-.52,4.33-1.55,6.11c-1.03,1.77-2.46,3.17-4.28,4.19-1.82,1.02-3.88,1.53-6.17,1.53Zm0-3.67c1.48,0,2.81-.33,3.99-1,1.18-.67,2.1-1.62,2.77-2.86s1-2.67,1-4.3-.33-3.09-1-4.3c-.67-1.21-1.59-2.14-2.77-2.81-1.18-.67-2.51-1-3.99-1s-2.81.33-3.97,1c-1.16.67-2.09,1.61-2.79,2.81-.7,1.21-1.05,2.64-1.05,4.3s.35,3.06,1.05,4.3,1.63,2.19,2.79,2.86c1.16.67,2.49,1,3.97,1Z"/><path class="cls-3" d="m644.6,151.89v-32.37h4.19v32.37h-4.19Z"/><path class="cls-3" d="m663.53,152.15c-1.72,0-3.22-.29-4.52-.87-1.29-.58-2.29-1.39-2.99-2.42-.7-1.03-1.05-2.2-1.05-3.51s.3-2.38.89-3.4c.6-1.02,1.57-1.83,2.92-2.44s3.18-.92,5.48-.92h7.33v3.01h-7.16c-2.09,0-3.51.35-4.23,1.05-.73.7-1.09,1.54-1.09,2.53,0,1.13.45,2.04,1.35,2.73.9.68,2.15,1.03,3.75,1.03s2.95-.35,4.12-1.05c1.18-.7,2.03-1.72,2.55-3.05l.83,2.88c-.55,1.37-1.53,2.45-2.92,3.25-1.4.8-3.16,1.2-5.28,1.2Zm7.59-.26v-4.89l-.22-.92v-8.33c0-1.77-.52-3.15-1.55-4.12-1.03-.97-2.58-1.46-4.65-1.46-1.37,0-2.71.23-4.01.68-1.31.45-2.41,1.05-3.32,1.81l-1.75-3.14c1.19-.96,2.62-1.69,4.3-2.2,1.67-.51,3.42-.76,5.26-.76,3.17,0,5.61.77,7.33,2.31,1.72,1.54,2.57,3.9,2.57,7.07v13.96h-3.97Z"/><path class="cls-3" d="m695.21,128.55c1.89,0,3.56.36,5,1.09,1.44.73,2.57,1.83,3.38,3.32.81,1.48,1.22,3.36,1.22,5.63v13.31h-4.19v-12.83c0-2.24-.55-3.93-1.64-5.06-1.09-1.13-2.63-1.7-4.6-1.7-1.48,0-2.78.29-3.88.87-1.11.58-1.96,1.44-2.55,2.57-.6,1.13-.89,2.55-.89,4.23v11.91h-4.19v-23.12h4.01v6.24l-.65-1.66c.76-1.51,1.92-2.69,3.49-3.53,1.57-.84,3.4-1.27,5.5-1.27Z"/><path class="cls-3" d="m719.34,152.15c-1.72,0-3.22-.29-4.52-.87-1.29-.58-2.29-1.39-2.99-2.42-.7-1.03-1.05-2.2-1.05-3.51s.3-2.38.89-3.4c.6-1.02,1.57-1.83,2.92-2.44s3.18-.92,5.48-.92h7.33v3.01h-7.16c-2.09,0-3.51.35-4.23,1.05-.73.7-1.09,1.54-1.09,2.53,0,1.13.45,2.04,1.35,2.73.9.68,2.15,1.03,3.75,1.03s2.95-.35,4.12-1.05c1.18-.7,2.03-1.72,2.55-3.05l.83,2.88c-.55,1.37-1.53,2.45-2.92,3.25-1.4.8-3.16,1.2-5.28,1.2Zm7.59-.26v-4.89l-.22-.92v-8.33c0-1.77-.52-3.15-1.55-4.12-1.03-.97-2.58-1.46-4.65-1.46-1.37,0-2.71.23-4.01.68-1.31.45-2.41,1.05-3.32,1.81l-1.75-3.14c1.19-.96,2.62-1.69,4.3-2.2,1.67-.51,3.42-.76,5.26-.76,3.17,0,5.61.77,7.33,2.31,1.72,1.54,2.57,3.9,2.57,7.07v13.96h-3.97Z"/><path class="cls-3" d="m752.49,124.32c-.81,0-1.49-.26-2.03-.79-.54-.52-.81-1.16-.81-1.92s.27-1.44.81-1.96c.54-.52,1.21-.79,2.03-.79s1.49.25,2.03.76c.54.51.81,1.14.81,1.9s-.26,1.45-.79,1.99c-.52.54-1.21.81-2.05.81Zm-2.09,27.57v-23.12h4.19v23.12h-4.19Z"/><path class="cls-3" d="m774.31,151.89v-32.37h4.19v15.4l-.44,5.37.26,5.37v6.24h-4.01Zm12.26.26c-1.98,0-3.76-.44-5.34-1.33-1.59-.89-2.84-2.2-3.75-3.95-.92-1.75-1.38-3.93-1.38-6.54s.47-4.8,1.42-6.54c.95-1.75,2.21-3.05,3.8-3.93,1.58-.87,3.34-1.31,5.26-1.31,2.27,0,4.28.5,6.02,1.48,1.75.99,3.13,2.36,4.14,4.12,1.02,1.76,1.53,3.82,1.53,6.17s-.51,4.42-1.53,6.2c-1.02,1.77-2.4,3.16-4.14,4.14-1.75.99-3.75,1.48-6.02,1.48Zm-.35-3.67c1.48,0,2.81-.33,3.99-1,1.18-.67,2.11-1.62,2.79-2.86.68-1.24,1.02-2.67,1.02-4.3s-.34-3.09-1.02-4.3c-.68-1.21-1.62-2.14-2.79-2.81-1.18-.67-2.51-1-3.99-1s-2.77.33-3.95,1c-1.18.67-2.11,1.61-2.79,2.81-.68,1.21-1.03,2.64-1.03,4.3s.34,3.06,1.03,4.3c.68,1.24,1.61,2.19,2.79,2.86,1.18.67,2.49,1,3.95,1Z"/><path class="cls-3" d="m806.16,124.32c-.81,0-1.49-.26-2.03-.79-.54-.52-.81-1.16-.81-1.92s.27-1.44.81-1.96c.54-.52,1.21-.79,2.03-.79s1.49.25,2.03.76c.54.51.81,1.14.81,1.9s-.26,1.45-.79,1.99c-.52.54-1.21.81-2.05.81Zm-2.09,27.57v-23.12h4.19v23.12h-4.19Z"/><path class="cls-3" d="m826.14,152.15c-2.33,0-4.39-.51-6.2-1.53-1.8-1.02-3.23-2.42-4.28-4.21-1.05-1.79-1.57-3.82-1.57-6.09s.52-4.33,1.57-6.11c1.05-1.77,2.47-3.16,4.28-4.17,1.8-1,3.87-1.51,6.2-1.51s4.36.5,6.17,1.51c1.82,1,3.24,2.39,4.28,4.14,1.03,1.76,1.55,3.8,1.55,6.13s-.52,4.33-1.55,6.11c-1.03,1.77-2.46,3.17-4.28,4.19-1.82,1.02-3.88,1.53-6.17,1.53Zm0-3.67c1.48,0,2.81-.33,3.99-1,1.18-.67,2.1-1.62,2.77-2.86s1-2.67,1-4.3-.33-3.09-1-4.3c-.67-1.21-1.59-2.14-2.77-2.81-1.18-.67-2.51-1-3.99-1s-2.81.33-3.97,1c-1.16.67-2.09,1.61-2.79,2.81-.7,1.21-1.05,2.64-1.05,4.3s.35,3.06,1.05,4.3,1.63,2.19,2.79,2.86c1.16.67,2.49,1,3.97,1Z"/><path class="cls-3" d="m853.5,152.15c-2.24,0-4.24-.49-6-1.48-1.76-.99-3.15-2.37-4.17-4.14-1.02-1.77-1.53-3.84-1.53-6.2s.51-4.41,1.53-6.17c1.02-1.76,2.41-3.13,4.17-4.12,1.76-.99,3.76-1.48,6-1.48,1.95,0,3.71.44,5.28,1.31,1.57.87,2.83,2.18,3.77,3.93.95,1.75,1.42,3.93,1.42,6.54s-.46,4.8-1.37,6.54c-.92,1.75-2.16,3.06-3.73,3.95-1.57.89-3.36,1.33-5.37,1.33Zm.35-3.67c1.45,0,2.77-.33,3.95-1,1.18-.67,2.11-1.62,2.79-2.86.68-1.24,1.03-2.67,1.03-4.3s-.34-3.09-1.03-4.3c-.68-1.21-1.61-2.14-2.79-2.81-1.18-.67-2.49-1-3.95-1s-2.81.33-3.97,1c-1.16.67-2.09,1.61-2.79,2.81-.7,1.21-1.05,2.64-1.05,4.3s.35,3.06,1.05,4.3,1.63,2.19,2.79,2.86c1.16.67,2.49,1,3.97,1Zm7.9,3.4v-6.24l.26-5.37-.44-5.37v-15.4h4.19v32.37h-4.01Z"/><path class="cls-3" d="m873.7,151.89v-23.12h4.01v6.28l-.39-1.57c.64-1.6,1.72-2.82,3.23-3.67,1.51-.84,3.37-1.27,5.58-1.27v4.06c-.17-.03-.34-.04-.5-.04h-.46c-2.24,0-4.01.67-5.32,2.01-1.31,1.34-1.96,3.27-1.96,5.8v11.52h-4.19Z"/><path class="cls-3" d="m896.34,152.15c-1.72,0-3.22-.29-4.52-.87-1.29-.58-2.29-1.39-2.99-2.42-.7-1.03-1.05-2.2-1.05-3.51s.3-2.38.89-3.4c.6-1.02,1.57-1.83,2.92-2.44s3.18-.92,5.48-.92h7.33v3.01h-7.16c-2.09,0-3.51.35-4.23,1.05-.73.7-1.09,1.54-1.09,2.53,0,1.13.45,2.04,1.35,2.73.9.68,2.15,1.03,3.75,1.03s2.95-.35,4.12-1.05c1.18-.7,2.03-1.72,2.55-3.05l.83,2.88c-.55,1.37-1.53,2.45-2.92,3.25-1.4.8-3.16,1.2-5.28,1.2Zm7.59-.26v-4.89l-.22-.92v-8.33c0-1.77-.52-3.15-1.55-4.12-1.03-.97-2.58-1.46-4.65-1.46-1.37,0-2.71.23-4.01.68-1.31.45-2.41,1.05-3.32,1.81l-1.75-3.14c1.19-.96,2.62-1.69,4.3-2.2,1.67-.51,3.42-.76,5.26-.76,3.17,0,5.61.77,7.33,2.31,1.72,1.54,2.57,3.9,2.57,7.07v13.96h-3.97Z"/><path class="cls-3" d="m914.01,158.35l2.18-8.81.57,2.53c-.84,0-1.55-.26-2.12-.79-.57-.52-.85-1.24-.85-2.14s.28-1.58.85-2.14c.57-.55,1.26-.83,2.07-.83s1.53.28,2.05.85c.52.57.79,1.27.79,2.12,0,.29-.02.57-.07.85-.04.28-.12.6-.22.96-.1.36-.25.81-.46,1.33l-2.05,6.06h-2.75Z"/><path class="cls-3" d="m261.1,204.25v-28.8l1.88,2.05h-8.77v-3.8h11.21v30.54h-4.32Z"/><path class="cls-3" d="m281.95,204.6c-2.15,0-4.24-.33-6.26-1-2.02-.67-3.67-1.57-4.95-2.71l2.01-3.45c1.02.96,2.34,1.75,3.97,2.36s3.36.92,5.19.92c2.33,0,4.12-.49,5.37-1.48,1.25-.99,1.88-2.31,1.88-3.97,0-1.13-.28-2.12-.83-2.97-.55-.84-1.5-1.49-2.86-1.94-1.35-.45-3.21-.68-5.56-.68h-6.94l1.61-15.97h17.23v3.8h-15.62l2.27-2.14-1.26,12.61-2.27-2.09h5.89c3.05,0,5.51.39,7.37,1.18,1.86.79,3.21,1.87,4.06,3.25.84,1.38,1.27,2.97,1.27,4.78s-.42,3.34-1.27,4.78-2.12,2.59-3.82,3.45c-1.7.86-3.86,1.29-6.48,1.29Z"/><path class="cls-3" d="m310.75,204.25v-32.37h4.19v15.4l-.44,5.37.26,5.37v6.24h-4.01Zm12.26.26c-1.98,0-3.76-.44-5.34-1.33-1.59-.89-2.84-2.2-3.75-3.95-.92-1.75-1.38-3.93-1.38-6.54s.47-4.8,1.42-6.54c.95-1.75,2.21-3.05,3.8-3.93,1.58-.87,3.34-1.31,5.26-1.31,2.27,0,4.28.5,6.02,1.48,1.75.99,3.13,2.36,4.14,4.12,1.02,1.76,1.53,3.82,1.53,6.17s-.51,4.42-1.53,6.2c-1.02,1.77-2.4,3.16-4.14,4.14-1.75.99-3.75,1.48-6.02,1.48Zm-.35-3.67c1.48,0,2.81-.33,3.99-1,1.18-.67,2.11-1.62,2.79-2.86.68-1.24,1.02-2.67,1.02-4.3s-.34-3.09-1.02-4.3c-.68-1.21-1.62-2.14-2.79-2.81-1.18-.67-2.51-1-3.99-1s-2.77.33-3.95,1c-1.18.67-2.11,1.61-2.79,2.81-.68,1.21-1.03,2.64-1.03,4.3s.34,3.06,1.03,4.3c.68,1.24,1.61,2.19,2.79,2.86,1.18.67,2.49,1,3.95,1Z"/><path class="cls-3" d="m347.05,204.51c-1.72,0-3.22-.29-4.52-.87-1.29-.58-2.29-1.39-2.99-2.42-.7-1.03-1.05-2.2-1.05-3.51s.3-2.38.89-3.4c.6-1.02,1.57-1.83,2.92-2.44s3.18-.92,5.48-.92h7.33v3.01h-7.16c-2.09,0-3.51.35-4.23,1.05-.73.7-1.09,1.54-1.09,2.53,0,1.13.45,2.04,1.35,2.73.9.68,2.15,1.03,3.75,1.03s2.95-.35,4.12-1.05c1.18-.7,2.03-1.72,2.55-3.05l.83,2.88c-.55,1.37-1.53,2.45-2.92,3.25-1.4.8-3.16,1.2-5.28,1.2Zm7.59-.26v-4.89l-.22-.92v-8.33c0-1.77-.52-3.15-1.55-4.12-1.03-.97-2.58-1.46-4.65-1.46-1.37,0-2.71.23-4.01.68-1.31.45-2.41,1.05-3.32,1.81l-1.75-3.14c1.19-.96,2.62-1.69,4.3-2.2,1.67-.51,3.42-.76,5.26-.76,3.17,0,5.61.77,7.33,2.31,1.72,1.54,2.57,3.9,2.57,7.07v13.96h-3.97Z"/><path class="cls-3" d="m375.93,204.51c-2.24,0-4.24-.49-6-1.48-1.76-.99-3.15-2.37-4.17-4.14-1.02-1.77-1.53-3.84-1.53-6.2s.51-4.41,1.53-6.17c1.02-1.76,2.41-3.13,4.17-4.12,1.76-.99,3.76-1.48,6-1.48,1.95,0,3.71.44,5.28,1.31,1.57.87,2.83,2.18,3.77,3.93.95,1.75,1.42,3.93,1.42,6.54s-.46,4.8-1.37,6.54c-.92,1.75-2.16,3.06-3.73,3.95-1.57.89-3.36,1.33-5.37,1.33Zm.35-3.67c1.45,0,2.77-.33,3.95-1,1.18-.67,2.11-1.62,2.79-2.86.68-1.24,1.03-2.67,1.03-4.3s-.34-3.09-1.03-4.3c-.68-1.21-1.61-2.14-2.79-2.81-1.18-.67-2.49-1-3.95-1s-2.81.33-3.97,1c-1.16.67-2.09,1.61-2.79,2.81-.7,1.21-1.05,2.64-1.05,4.3s.35,3.06,1.05,4.3,1.63,2.19,2.79,2.86c1.16.67,2.49,1,3.97,1Zm7.9,3.4v-6.24l.26-5.37-.44-5.37v-15.4h4.19v32.37h-4.01Z"/><path class="cls-3" d="m402.89,204.51c-1.72,0-3.22-.29-4.52-.87-1.29-.58-2.29-1.39-2.99-2.42-.7-1.03-1.05-2.2-1.05-3.51s.3-2.38.89-3.4c.6-1.02,1.57-1.83,2.92-2.44s3.18-.92,5.48-.92h7.33v3.01h-7.16c-2.09,0-3.51.35-4.23,1.05-.73.7-1.09,1.54-1.09,2.53,0,1.13.45,2.04,1.35,2.73.9.68,2.15,1.03,3.75,1.03s2.95-.35,4.12-1.05c1.18-.7,2.03-1.72,2.55-3.05l.83,2.88c-.55,1.37-1.53,2.45-2.92,3.25-1.4.8-3.16,1.2-5.28,1.2Zm7.59-.26v-4.89l-.22-.92v-8.33c0-1.77-.52-3.15-1.55-4.12-1.03-.97-2.58-1.46-4.65-1.46-1.37,0-2.71.23-4.01.68-1.31.45-2.41,1.05-3.32,1.81l-1.75-3.14c1.19-.96,2.62-1.69,4.3-2.2,1.67-.51,3.42-.76,5.26-.76,3.17,0,5.61.77,7.33,2.31,1.72,1.54,2.57,3.9,2.57,7.07v13.96h-3.97Z"/><path class="cls-3" d="m434.57,180.9c1.89,0,3.56.36,5,1.09,1.44.73,2.57,1.83,3.38,3.32.81,1.48,1.22,3.36,1.22,5.63v13.31h-4.19v-12.83c0-2.24-.55-3.93-1.64-5.06-1.09-1.13-2.63-1.7-4.6-1.7-1.48,0-2.78.29-3.88.87-1.11.58-1.96,1.44-2.55,2.57-.6,1.13-.89,2.55-.89,4.23v11.91h-4.19v-23.12h4.01v6.24l-.65-1.66c.76-1.51,1.92-2.69,3.49-3.53,1.57-.84,3.4-1.27,5.5-1.27Zm-4.62-3.14l5.93-5.67h5.32l-7.33,5.67h-3.93Z"/><path class="cls-3" d="m463.67,204.25v-32.37h4.19v32.37h-4.19Zm3.4-5.58l.09-5.37,13.31-12.17h5.06l-10.21,10.03-2.27,1.92-5.98,5.58Zm14.27,5.58l-9.08-11.26,2.71-3.36,11.52,14.62h-5.15Z"/><path class="cls-3" d="m490.54,204.25v-32.37h4.19v32.37h-4.19Z"/><path class="cls-3" d="m504.81,176.67c-.81,0-1.49-.26-2.03-.79-.54-.52-.81-1.16-.81-1.92s.27-1.44.81-1.96c.54-.52,1.21-.79,2.03-.79s1.49.25,2.03.76c.54.51.81,1.14.81,1.9s-.26,1.45-.79,1.99c-.52.54-1.21.81-2.05.81Zm-2.09,27.57v-23.12h4.19v23.12h-4.19Z"/><path class="cls-3" d="m527.24,180.9c1.89,0,3.56.36,5,1.09,1.44.73,2.57,1.83,3.38,3.32.81,1.48,1.22,3.36,1.22,5.63v13.31h-4.19v-12.83c0-2.24-.55-3.93-1.64-5.06-1.09-1.13-2.63-1.7-4.6-1.7-1.48,0-2.78.29-3.88.87-1.11.58-1.96,1.44-2.55,2.57-.6,1.13-.89,2.55-.89,4.23v11.91h-4.19v-23.12h4.01v6.24l-.65-1.66c.76-1.51,1.92-2.69,3.49-3.53,1.57-.84,3.4-1.27,5.5-1.27Z"/><path class="cls-3" d="m546.69,176.67c-.81,0-1.49-.26-2.03-.79-.54-.52-.81-1.16-.81-1.92s.27-1.44.81-1.96c.54-.52,1.21-.79,2.03-.79s1.49.25,2.03.76c.54.51.81,1.14.81,1.9s-.26,1.45-.79,1.99c-.52.54-1.21.81-2.05.81Zm-2.09,27.57v-23.12h4.19v23.12h-4.19Z"/><path class="cls-3" d="m566.85,204.51c-2.36,0-4.46-.51-6.3-1.53-1.85-1.02-3.29-2.41-4.34-4.19-1.05-1.77-1.57-3.81-1.57-6.11s.52-4.33,1.57-6.11c1.05-1.77,2.49-3.16,4.34-4.17,1.85-1,3.95-1.51,6.3-1.51,2.09,0,3.96.41,5.61,1.24,1.64.83,2.92,2.06,3.82,3.69l-3.18,2.05c-.76-1.13-1.68-1.97-2.77-2.51-1.09-.54-2.26-.81-3.51-.81-1.51,0-2.87.33-4.06,1-1.19.67-2.14,1.61-2.84,2.81-.7,1.21-1.05,2.64-1.05,4.3s.35,3.1,1.05,4.32,1.64,2.17,2.84,2.84c1.19.67,2.54,1,4.06,1,1.25,0,2.42-.27,3.51-.81,1.09-.54,2.01-1.37,2.77-2.51l3.18,2.01c-.9,1.6-2.17,2.83-3.82,3.69-1.64.86-3.51,1.29-5.61,1.29Z"/><path class="cls-3" d="m579.15,204.25v-2.71l14.83-18.41.83,1.44h-15.4v-3.45h18.76v2.75l-14.83,18.37-.96-1.44h16.14v3.45h-19.37Z"/><path class="cls-3" d="m616.46,180.9c1.89,0,3.56.36,5,1.09,1.44.73,2.57,1.83,3.38,3.32.81,1.48,1.22,3.36,1.22,5.63v13.31h-4.19v-12.83c0-2.24-.55-3.93-1.64-5.06-1.09-1.13-2.63-1.7-4.6-1.7-1.48,0-2.78.29-3.88.87-1.11.58-1.96,1.44-2.55,2.57-.6,1.13-.89,2.55-.89,4.23v11.91h-4.19v-23.12h4.01v6.24l-.65-1.66c.76-1.51,1.92-2.69,3.49-3.53,1.57-.84,3.4-1.27,5.5-1.27Z"/><path class="cls-3" d="m634.39,212.97c-1.11,0-2.18-.18-3.23-.55-1.05-.36-1.95-.89-2.71-1.59l1.79-3.14c.58.55,1.22.97,1.92,1.27.7.29,1.44.44,2.22.44,1.02,0,1.86-.26,2.53-.79.67-.52,1.29-1.45,1.88-2.79l1.44-3.19.44-.52,9.07-20.99h4.1l-11.21,25.44c-.67,1.63-1.42,2.91-2.25,3.84-.83.93-1.74,1.59-2.73,1.98-.99.39-2.08.59-3.27.59Zm5.5-7.98l-10.56-23.87h4.36l8.99,20.59-2.79,3.27Z"/><path class="cls-3" d="m667.2,204.51c-2.36,0-4.46-.51-6.3-1.53-1.85-1.02-3.29-2.41-4.34-4.19-1.05-1.77-1.57-3.81-1.57-6.11s.52-4.33,1.57-6.11c1.05-1.77,2.49-3.16,4.34-4.17,1.85-1,3.95-1.51,6.3-1.51,2.09,0,3.96.41,5.61,1.24,1.64.83,2.92,2.06,3.82,3.69l-3.18,2.05c-.76-1.13-1.68-1.97-2.77-2.51-1.09-.54-2.26-.81-3.51-.81-1.51,0-2.87.33-4.06,1-1.19.67-2.14,1.61-2.84,2.81-.7,1.21-1.05,2.64-1.05,4.3s.35,3.1,1.05,4.32,1.64,2.17,2.84,2.84c1.19.67,2.54,1,4.06,1,1.25,0,2.42-.27,3.51-.81,1.09-.54,2.01-1.37,2.77-2.51l3.18,2.01c-.9,1.6-2.17,2.83-3.82,3.69-1.64.86-3.51,1.29-5.61,1.29Z"/><path class="cls-3" d="m694.07,180.9c1.89,0,3.56.36,5,1.09,1.44.73,2.57,1.83,3.38,3.32.81,1.48,1.22,3.36,1.22,5.63v13.31h-4.19v-12.83c0-2.24-.55-3.93-1.64-5.06-1.09-1.13-2.63-1.7-4.6-1.7-1.48,0-2.78.29-3.88.87-1.11.58-1.96,1.44-2.55,2.57-.6,1.13-.89,2.55-.89,4.23v11.91h-4.19v-32.37h4.19v15.49l-.83-1.66c.76-1.51,1.92-2.69,3.49-3.53,1.57-.84,3.4-1.27,5.5-1.27Z"/><path class="cls-3" d="m712.83,212.71h-3.97c1.77-3.08,3.07-6.3,3.88-9.66.81-3.36,1.22-6.94,1.22-10.75s-.41-7.4-1.22-10.75c-.81-3.36-2.11-6.58-3.88-9.66h3.97c1.72,2.59,3.02,5.64,3.91,9.14.89,3.51,1.33,7.26,1.33,11.28s-.44,7.76-1.33,11.23c-.89,3.48-2.19,6.54-3.91,9.18Z"/><path class="cls-3" d="m724.53,210.7l2.18-8.81.57,2.53c-.84,0-1.55-.26-2.12-.79-.57-.52-.85-1.24-.85-2.14s.28-1.58.85-2.14c.57-.55,1.26-.83,2.07-.83s1.53.28,2.05.85c.52.57.79,1.27.79,2.12,0,.29-.02.57-.07.85-.04.28-.12.6-.22.96-.1.36-.25.81-.46,1.33l-2.05,6.06h-2.75Z"/><path class="cls-3" d="m375.84,256.95c-1.8,0-3.49-.38-5.06-1.13-1.57-.76-2.85-1.85-3.84-3.27l2.53-2.97c.84,1.16,1.8,2.06,2.86,2.68,1.06.63,2.23.94,3.51.94,3.49,0,5.24-2.06,5.24-6.2v-17.15h-11.04v-3.8h15.36v20.72c0,3.4-.81,5.95-2.42,7.63-1.61,1.69-3.99,2.53-7.13,2.53Z"/><path class="cls-3" d="m389.02,256.6l13.83-30.54h4.32l13.87,30.54h-4.58l-12.35-28.1h1.75l-12.35,28.1h-4.49Zm5.89-7.64l1.18-3.49h17.19l1.26,3.49h-19.63Z"/><path class="cls-3" d="m425.58,256.6v-30.54h3.58l13.7,23.08h-1.92l13.53-23.08h3.58l.04,30.54h-4.19l-.04-23.95h1l-12.04,20.24h-2.01l-12.13-20.24h1.09v23.95h-4.19Z"/><path class="cls-3" d="m462.62,256.6l13.83-30.54h4.32l13.87,30.54h-4.58l-12.35-28.1h1.75l-12.35,28.1h-4.49Zm5.89-7.64l1.18-3.49h17.19l1.26,3.49h-19.63Z"/><path class="cls-3" d="m507.95,256.6v-2.97l12.43-12c1.1-1.05,1.93-1.97,2.46-2.77.54-.8.9-1.54,1.09-2.23.19-.68.28-1.35.28-1.99,0-1.57-.55-2.81-1.66-3.71-1.11-.9-2.72-1.35-4.84-1.35-1.63,0-3.1.27-4.41.81-1.31.54-2.44,1.37-3.4,2.51l-2.97-2.57c1.16-1.48,2.73-2.62,4.69-3.42,1.96-.8,4.12-1.2,6.48-1.2,2.12,0,3.97.34,5.54,1.03,1.57.68,2.78,1.67,3.64,2.94.86,1.28,1.29,2.79,1.29,4.54,0,.99-.13,1.96-.39,2.92-.26.96-.76,1.98-1.48,3.05-.73,1.08-1.77,2.28-3.14,3.62l-11.08,10.69-1.05-1.7h18.46v3.8h-21.95Z"/><path class="cls-3" d="m545.91,256.95c-2.39,0-4.52-.61-6.39-1.83s-3.36-3-4.45-5.32c-1.09-2.33-1.64-5.15-1.64-8.46s.55-6.14,1.64-8.46c1.09-2.33,2.57-4.1,4.45-5.32s4.01-1.83,6.39-1.83,4.48.61,6.37,1.83c1.89,1.22,3.37,3,4.45,5.32,1.08,2.33,1.61,5.15,1.61,8.46s-.54,6.14-1.61,8.46c-1.08,2.33-2.56,4.1-4.45,5.32-1.89,1.22-4.01,1.83-6.37,1.83Zm0-3.88c1.6,0,3-.44,4.21-1.31s2.15-2.18,2.84-3.93,1.03-3.91,1.03-6.5-.34-4.76-1.03-6.5-1.63-3.05-2.84-3.93-2.61-1.31-4.21-1.31-3.01.44-4.23,1.31-2.17,2.18-2.86,3.93-1.03,3.91-1.03,6.5.34,4.76,1.03,6.5,1.64,3.05,2.86,3.93,2.63,1.31,4.23,1.31Z"/><path class="cls-3" d="m575.01,256.95c-2.39,0-4.52-.61-6.39-1.83s-3.36-3-4.45-5.32c-1.09-2.33-1.64-5.15-1.64-8.46s.55-6.14,1.64-8.46c1.09-2.33,2.57-4.1,4.45-5.32s4.01-1.83,6.39-1.83,4.48.61,6.37,1.83c1.89,1.22,3.37,3,4.45,5.32,1.08,2.33,1.61,5.15,1.61,8.46s-.54,6.14-1.61,8.46c-1.08,2.33-2.56,4.1-4.45,5.32-1.89,1.22-4.01,1.83-6.37,1.83Zm0-3.88c1.6,0,3-.44,4.21-1.31s2.15-2.18,2.84-3.93,1.03-3.91,1.03-6.5-.34-4.76-1.03-6.5-1.63-3.05-2.84-3.93-2.61-1.31-4.21-1.31-3.01.44-4.23,1.31-2.17,2.18-2.86,3.93-1.03,3.91-1.03,6.5.34,4.76,1.03,6.5,1.64,3.05,2.86,3.93,2.63,1.31,4.23,1.31Z"/><path class="cls-3" d="m604.11,256.95c-2.39,0-4.52-.61-6.39-1.83s-3.36-3-4.45-5.32c-1.09-2.33-1.64-5.15-1.64-8.46s.55-6.14,1.64-8.46c1.09-2.33,2.57-4.1,4.45-5.32s4.01-1.83,6.39-1.83,4.48.61,6.37,1.83c1.89,1.22,3.37,3,4.45,5.32,1.08,2.33,1.61,5.15,1.61,8.46s-.54,6.14-1.61,8.46c-1.08,2.33-2.56,4.1-4.45,5.32-1.89,1.22-4.01,1.83-6.37,1.83Zm0-3.88c1.6,0,3-.44,4.21-1.31s2.15-2.18,2.84-3.93,1.03-3.91,1.03-6.5-.34-4.76-1.03-6.5-1.63-3.05-2.84-3.93-2.61-1.31-4.21-1.31-3.01.44-4.23,1.31-2.17,2.18-2.86,3.93-1.03,3.91-1.03,6.5.34,4.76,1.03,6.5,1.64,3.05,2.86,3.93,2.63,1.31,4.23,1.31Z"/><path class="cls-1" d="m94.7,714.21l-10.24-27.56h4.73l9.1,24.96h-2.24l9.46-24.96h4.21l9.26,24.96h-2.18l9.31-24.96h4.47l-10.3,27.56h-4.78l-8.68-22.78h1.46l-8.79,22.78h-4.78Z"/><path class="cls-1" d="m149.61,724.3v-37.65h4.78v7.44l-.31,6.4.52,6.4v17.42h-4.99Zm14.61-9.78c-2.29,0-4.38-.53-6.27-1.59-1.89-1.06-3.4-2.63-4.52-4.71-1.13-2.08-1.69-4.68-1.69-7.8s.55-5.72,1.64-7.8,2.58-3.64,4.47-4.68,4.01-1.56,6.37-1.56c2.7,0,5.1.59,7.18,1.77,2.08,1.18,3.73,2.82,4.94,4.91,1.21,2.1,1.82,4.55,1.82,7.36s-.61,5.27-1.82,7.38c-1.21,2.11-2.86,3.76-4.94,4.94-2.08,1.18-4.47,1.77-7.18,1.77Zm-.42-4.37c1.77,0,3.35-.4,4.76-1.2,1.4-.8,2.51-1.93,3.33-3.41.81-1.47,1.22-3.18,1.22-5.12s-.41-3.68-1.22-5.12-1.92-2.56-3.33-3.35c-1.4-.8-2.99-1.2-4.76-1.2s-3.3.4-4.71,1.2c-1.4.8-2.51,1.92-3.33,3.35s-1.22,3.15-1.22,5.12.41,3.65,1.22,5.12c.81,1.47,1.92,2.61,3.33,3.41,1.4.8,2.97,1.2,4.71,1.2Z"/><path class="cls-1" d="m196.88,714.52c-2.77,0-5.24-.61-7.38-1.82-2.15-1.21-3.85-2.89-5.1-5.02-1.25-2.13-1.87-4.55-1.87-7.25s.62-5.17,1.87-7.28c1.25-2.11,2.95-3.77,5.1-4.97,2.15-1.2,4.61-1.79,7.38-1.79s5.19.6,7.36,1.79c2.17,1.2,3.87,2.84,5.1,4.94,1.23,2.1,1.85,4.53,1.85,7.31s-.62,5.17-1.85,7.28c-1.23,2.12-2.93,3.78-5.1,4.99-2.17,1.21-4.62,1.82-7.36,1.82Zm0-4.37c1.77,0,3.35-.4,4.76-1.2,1.4-.8,2.5-1.93,3.3-3.41.8-1.47,1.2-3.18,1.2-5.12s-.4-3.68-1.2-5.12c-.8-1.44-1.9-2.56-3.3-3.35-1.4-.8-2.99-1.2-4.76-1.2s-3.35.4-4.73,1.2c-1.39.8-2.5,1.92-3.33,3.35s-1.25,3.15-1.25,5.12.42,3.65,1.25,5.12c.83,1.47,1.94,2.61,3.33,3.41,1.39.8,2.96,1.2,4.73,1.2Z"/><path class="cls-1" d="m218.09,714.21v-27.56h4.78v7.49l-.47-1.87c.76-1.91,2.04-3.36,3.85-4.37,1.8-1,4.02-1.51,6.66-1.51v4.84c-.21-.03-.41-.05-.6-.05h-.55c-2.67,0-4.78.8-6.34,2.39-1.56,1.59-2.34,3.9-2.34,6.92v13.73h-4.99Z"/><path class="cls-1" d="m250.59,714.52c-2.77,0-5.24-.61-7.38-1.82-2.15-1.21-3.85-2.89-5.1-5.02-1.25-2.13-1.87-4.55-1.87-7.25s.62-5.17,1.87-7.28c1.25-2.11,2.95-3.77,5.1-4.97,2.15-1.2,4.61-1.79,7.38-1.79s5.19.6,7.36,1.79c2.17,1.2,3.87,2.84,5.1,4.94,1.23,2.1,1.85,4.53,1.85,7.31s-.62,5.17-1.85,7.28c-1.23,2.12-2.93,3.78-5.1,4.99-2.17,1.21-4.62,1.82-7.36,1.82Zm0-4.37c1.77,0,3.35-.4,4.76-1.2,1.4-.8,2.5-1.93,3.3-3.41.8-1.47,1.2-3.18,1.2-5.12s-.4-3.68-1.2-5.12c-.8-1.44-1.9-2.56-3.3-3.35-1.4-.8-2.99-1.2-4.76-1.2s-3.35.4-4.73,1.2c-1.39.8-2.5,1.92-3.33,3.35s-1.25,3.15-1.25,5.12.42,3.65,1.25,5.12c.83,1.47,1.94,2.61,3.33,3.41,1.39.8,2.96,1.2,4.73,1.2Zm-3.95-27.51l7.07-6.76h6.34l-8.74,6.76h-4.68Z"/><path class="cls-1" d="m276.85,714.21l-10.24-27.56h4.73l9.1,24.96h-2.24l9.46-24.96h4.21l9.26,24.96h-2.18l9.31-24.96h4.47l-10.3,27.56h-4.78l-8.68-22.78h1.46l-8.79,22.78h-4.78Z"/><path class="cls-1" d="m332.49,686.39c2.25,0,4.24.43,5.95,1.3,1.72.87,3.06,2.18,4.03,3.95.97,1.77,1.46,4,1.46,6.71v15.86h-4.99v-15.29c0-2.67-.65-4.68-1.95-6.03-1.3-1.35-3.13-2.03-5.49-2.03-1.77,0-3.31.35-4.63,1.04-1.32.69-2.33,1.72-3.04,3.07-.71,1.35-1.07,3.03-1.07,5.04v14.2h-4.99v-27.56h4.78v7.44l-.78-1.98c.9-1.8,2.29-3.21,4.16-4.21,1.87-1,4.06-1.51,6.55-1.51Z"/><path class="cls-1" d="m361.25,714.52c-2.05,0-3.84-.35-5.38-1.04-1.54-.69-2.73-1.66-3.56-2.89s-1.25-2.63-1.25-4.19.36-2.84,1.07-4.06c.71-1.21,1.87-2.18,3.48-2.91,1.61-.73,3.79-1.09,6.53-1.09h8.74v3.59h-8.53c-2.5,0-4.18.42-5.04,1.25-.87.83-1.3,1.84-1.3,3.02,0,1.35.54,2.44,1.61,3.25,1.07.82,2.56,1.22,4.47,1.22s3.51-.42,4.91-1.25,2.42-2.04,3.04-3.64l.99,3.43c-.66,1.63-1.82,2.92-3.48,3.87-1.66.95-3.76,1.43-6.29,1.43Zm9.05-.31v-5.82l-.26-1.09v-9.93c0-2.11-.62-3.75-1.85-4.91-1.23-1.16-3.08-1.74-5.54-1.74-1.63,0-3.22.27-4.78.81-1.56.54-2.88,1.26-3.95,2.16l-2.08-3.74c1.42-1.14,3.13-2.02,5.12-2.63,1.99-.61,4.08-.91,6.27-.91,3.78,0,6.69.92,8.74,2.76,2.04,1.84,3.07,4.65,3.07,8.42v16.64h-4.73Z"/><path class="cls-1" d="m399,686.39c2.25,0,4.24.43,5.95,1.3,1.72.87,3.06,2.18,4.03,3.95.97,1.77,1.46,4,1.46,6.71v15.86h-4.99v-15.29c0-2.67-.65-4.68-1.95-6.03-1.3-1.35-3.13-2.03-5.49-2.03-1.77,0-3.31.35-4.63,1.04-1.32.69-2.33,1.72-3.04,3.07-.71,1.35-1.07,3.03-1.07,5.04v14.2h-4.99v-27.56h4.78v7.44l-.78-1.98c.9-1.8,2.29-3.21,4.16-4.21,1.87-1,4.06-1.51,6.55-1.51Z"/><path class="cls-1" d="m422.19,681.35c-.97,0-1.78-.31-2.42-.94s-.96-1.39-.96-2.29.32-1.72.96-2.34,1.45-.94,2.42-.94,1.78.3,2.42.91c.64.61.96,1.36.96,2.26s-.31,1.72-.94,2.37c-.62.64-1.44.96-2.44.96Zm-2.5,32.86v-27.56h4.99v27.56h-4.99Z"/><path class="cls-1" d="m445.8,714.52c-2.36,0-4.43-.43-6.21-1.3-1.79-.87-3.17-2.19-4.16-3.98-.99-1.79-1.48-4.03-1.48-6.73v-15.86h4.99v15.29c0,2.7.65,4.73,1.95,6.08,1.3,1.35,3.13,2.03,5.49,2.03,1.73,0,3.24-.35,4.52-1.07,1.28-.71,2.27-1.75,2.96-3.12.69-1.37,1.04-3.02,1.04-4.97v-14.25h4.99v27.56h-4.73v-7.44l.78,1.98c-.9,1.84-2.25,3.26-4.06,4.26-1.8,1.01-3.83,1.51-6.08,1.51Z"/><path class="cls-1" d="m494.78,714.52c-2.67,0-5.05-.59-7.15-1.77-2.1-1.18-3.75-2.83-4.97-4.94-1.21-2.11-1.82-4.58-1.82-7.38s.61-5.26,1.82-7.36c1.21-2.1,2.87-3.74,4.97-4.91,2.1-1.18,4.48-1.77,7.15-1.77,2.32,0,4.42.52,6.29,1.56s3.37,2.6,4.5,4.68c1.13,2.08,1.69,4.68,1.69,7.8s-.55,5.72-1.64,7.8-2.57,3.65-4.45,4.71-4,1.59-6.4,1.59Zm.42-4.37c1.73,0,3.3-.4,4.71-1.2,1.4-.8,2.51-1.93,3.33-3.41.81-1.47,1.22-3.18,1.22-5.12s-.41-3.68-1.22-5.12c-.82-1.44-1.92-2.56-3.33-3.35-1.4-.8-2.97-1.2-4.71-1.2s-3.35.4-4.73,1.2c-1.39.8-2.5,1.92-3.33,3.35s-1.25,3.15-1.25,5.12.42,3.65,1.25,5.12c.83,1.47,1.94,2.61,3.33,3.41,1.39.8,2.96,1.2,4.73,1.2Zm9.41,4.06v-7.44l.31-6.4-.52-6.4v-18.36h4.99v38.58h-4.78Z"/><path class="cls-1" d="m530.66,714.52c-2.77,0-5.24-.61-7.38-1.82-2.15-1.21-3.85-2.89-5.1-5.02-1.25-2.13-1.87-4.55-1.87-7.25s.62-5.17,1.87-7.28c1.25-2.11,2.95-3.77,5.1-4.97,2.15-1.2,4.61-1.79,7.38-1.79s5.19.6,7.36,1.79c2.17,1.2,3.87,2.84,5.1,4.94,1.23,2.1,1.85,4.53,1.85,7.31s-.62,5.17-1.85,7.28c-1.23,2.12-2.93,3.78-5.1,4.99-2.17,1.21-4.62,1.82-7.36,1.82Zm0-4.37c1.77,0,3.35-.4,4.76-1.2,1.4-.8,2.5-1.93,3.3-3.41.8-1.47,1.2-3.18,1.2-5.12s-.4-3.68-1.2-5.12c-.8-1.44-1.9-2.56-3.3-3.35-1.4-.8-2.99-1.2-4.76-1.2s-3.35.4-4.73,1.2c-1.39.8-2.5,1.92-3.33,3.35s-1.25,3.15-1.25,5.12.42,3.65,1.25,5.12c.83,1.47,1.94,2.61,3.33,3.41,1.39.8,2.96,1.2,4.73,1.2Z"/><path class="cls-1" d="m577.3,713.07c-2.67,0-5.05-.56-7.15-1.69-2.1-1.13-3.76-2.7-4.99-4.71-1.23-2.01-1.85-4.33-1.85-6.97s.62-5,1.85-6.99c1.23-1.99,2.89-3.54,4.99-4.65,2.1-1.11,4.48-1.66,7.15-1.66,2.36,0,4.51.48,6.45,1.43,1.94.95,3.49,2.42,4.65,4.39,1.16,1.98,1.74,4.47,1.74,7.49s-.58,5.46-1.74,7.44c-1.16,1.98-2.71,3.46-4.65,4.45-1.94.99-4.09,1.48-6.45,1.48Zm.62,11.54c-2.53,0-4.98-.36-7.36-1.07-2.38-.71-4.31-1.72-5.8-3.04l2.39-3.85c1.28,1.11,2.86,1.98,4.73,2.63,1.87.64,3.83.96,5.88.96,3.26,0,5.65-.76,7.18-2.29,1.52-1.53,2.29-3.85,2.29-6.97v-5.82l.52-5.46-.26-5.51v-7.54h4.73v23.82c0,4.85-1.21,8.42-3.64,10.71-2.43,2.29-5.98,3.43-10.66,3.43Zm-.05-15.91c1.84,0,3.47-.38,4.89-1.14,1.42-.76,2.54-1.82,3.35-3.17.81-1.35,1.22-2.91,1.22-4.68s-.41-3.33-1.22-4.68c-.82-1.35-1.93-2.4-3.35-3.15-1.42-.75-3.05-1.12-4.89-1.12s-3.48.37-4.91,1.12c-1.44.75-2.57,1.79-3.38,3.15-.82,1.35-1.22,2.91-1.22,4.68s.41,3.33,1.22,4.68c.81,1.35,1.94,2.41,3.38,3.17,1.44.76,3.08,1.14,4.91,1.14Z"/><path class="cls-1" d="m601.74,714.21v-38.58h4.99v38.58h-4.99Z"/><path class="cls-1" d="m627.85,714.52c-2.36,0-4.43-.43-6.21-1.3-1.79-.87-3.17-2.19-4.16-3.98-.99-1.79-1.48-4.03-1.48-6.73v-15.86h4.99v15.29c0,2.7.65,4.73,1.95,6.08,1.3,1.35,3.13,2.03,5.49,2.03,1.73,0,3.24-.35,4.52-1.07,1.28-.71,2.27-1.75,2.96-3.12.69-1.37,1.04-3.02,1.04-4.97v-14.25h4.99v27.56h-4.73v-7.44l.78,1.98c-.9,1.84-2.25,3.26-4.06,4.26-1.8,1.01-3.83,1.51-6.08,1.51Z"/><path class="cls-1" d="m651.46,714.21v-38.58h4.99v38.58h-4.99Zm4.06-6.66l.1-6.4,15.86-14.51h6.03l-12.17,11.96-2.7,2.29-7.12,6.66Zm17,6.66l-10.82-13.42,3.22-4,13.73,17.42h-6.14Z"/><path class="cls-1" d="m694.15,714.52c-2.77,0-5.24-.61-7.38-1.82-2.15-1.21-3.85-2.89-5.1-5.02-1.25-2.13-1.87-4.55-1.87-7.25s.62-5.17,1.87-7.28c1.25-2.11,2.95-3.77,5.1-4.97,2.15-1.2,4.61-1.79,7.38-1.79s5.19.6,7.36,1.79c2.17,1.2,3.87,2.84,5.1,4.94,1.23,2.1,1.85,4.53,1.85,7.31s-.62,5.17-1.85,7.28c-1.23,2.12-2.93,3.78-5.1,4.99-2.17,1.21-4.62,1.82-7.36,1.82Zm0-4.37c1.77,0,3.35-.4,4.76-1.2,1.4-.8,2.5-1.93,3.3-3.41.8-1.47,1.2-3.18,1.2-5.12s-.4-3.68-1.2-5.12c-.8-1.44-1.9-2.56-3.3-3.35-1.4-.8-2.99-1.2-4.76-1.2s-3.35.4-4.73,1.2c-1.39.8-2.5,1.92-3.33,3.35s-1.25,3.15-1.25,5.12.42,3.65,1.25,5.12c.83,1.47,1.94,2.61,3.33,3.41,1.39.8,2.96,1.2,4.73,1.2Z"/><path class="cls-1" d="m712.29,714.21v-3.22l17.68-21.94.99,1.72h-18.36v-4.11h22.36v3.28l-17.68,21.89-1.14-1.72h19.24v4.11h-23.09Z"/><path class="cls-1" d="m750.1,714.52c-2.05,0-3.84-.35-5.38-1.04-1.54-.69-2.73-1.66-3.56-2.89s-1.25-2.63-1.25-4.19.36-2.84,1.07-4.06c.71-1.21,1.87-2.18,3.48-2.91,1.61-.73,3.79-1.09,6.53-1.09h8.74v3.59h-8.53c-2.5,0-4.18.42-5.04,1.25-.87.83-1.3,1.84-1.3,3.02,0,1.35.54,2.44,1.61,3.25,1.07.82,2.56,1.22,4.47,1.22s3.51-.42,4.91-1.25,2.42-2.04,3.04-3.64l.99,3.43c-.66,1.63-1.82,2.92-3.48,3.87-1.66.95-3.76,1.43-6.29,1.43Zm9.05-.31v-5.82l-.26-1.09v-9.93c0-2.11-.62-3.75-1.85-4.91-1.23-1.16-3.08-1.74-5.54-1.74-1.63,0-3.22.27-4.78.81-1.56.54-2.88,1.26-3.95,2.16l-2.08-3.74c1.42-1.14,3.13-2.02,5.12-2.63,1.99-.61,4.08-.91,6.27-.91,3.78,0,6.69.92,8.74,2.76,2.04,1.84,3.07,4.65,3.07,8.42v16.64h-4.73Z"/><path class="cls-1" d="m807.61,686.39c2.22,0,4.18.43,5.88,1.3,1.7.87,3.02,2.18,3.98,3.95.95,1.77,1.43,4,1.43,6.71v15.86h-4.99v-15.29c0-2.67-.62-4.68-1.87-6.03-1.25-1.35-3-2.03-5.25-2.03-1.66,0-3.12.35-4.37,1.04s-2.21,1.72-2.89,3.07c-.68,1.35-1.01,3.03-1.01,5.04v14.2h-4.99v-15.29c0-2.67-.62-4.68-1.85-6.03-1.23-1.35-2.99-2.03-5.28-2.03-1.63,0-3.07.35-4.32,1.04s-2.22,1.72-2.91,3.07c-.69,1.35-1.04,3.03-1.04,5.04v14.2h-4.99v-27.56h4.78v7.33l-.78-1.87c.87-1.8,2.2-3.21,4-4.21,1.8-1,3.9-1.51,6.29-1.51,2.63,0,4.91.65,6.81,1.95,1.91,1.3,3.15,3.27,3.74,5.9l-2.03-.83c.83-2.11,2.29-3.81,4.37-5.1s4.51-1.92,7.28-1.92Z"/><path class="cls-1" d="m830.59,681.35c-.97,0-1.78-.31-2.42-.94s-.96-1.39-.96-2.29.32-1.72.96-2.34,1.45-.94,2.42-.94,1.78.3,2.42.91c.64.61.96,1.36.96,2.26s-.31,1.72-.94,2.37c-.62.64-1.44.96-2.44.96Zm-2.5,32.86v-27.56h4.99v27.56h-4.99Z"/><path class="cls-1" d="m857.32,686.39c2.25,0,4.24.43,5.95,1.3,1.72.87,3.06,2.18,4.03,3.95.97,1.77,1.46,4,1.46,6.71v15.86h-4.99v-15.29c0-2.67-.65-4.68-1.95-6.03-1.3-1.35-3.13-2.03-5.49-2.03-1.77,0-3.31.35-4.63,1.04-1.32.69-2.33,1.72-3.04,3.07-.71,1.35-1.07,3.03-1.07,5.04v14.2h-4.99v-27.56h4.78v7.44l-.78-1.98c.9-1.8,2.29-3.21,4.16-4.21,1.87-1,4.06-1.51,6.55-1.51Z"/><path class="cls-1" d="m878.69,724.61c-1.32,0-2.6-.22-3.85-.65s-2.32-1.07-3.22-1.9l2.13-3.74c.69.66,1.46,1.16,2.29,1.51.83.35,1.72.52,2.65.52,1.21,0,2.22-.31,3.02-.94.8-.62,1.54-1.73,2.24-3.33l1.72-3.8.52-.62,10.82-25.01h4.89l-13.36,30.32c-.8,1.94-1.69,3.47-2.68,4.58s-2.07,1.9-3.25,2.37c-1.18.47-2.48.7-3.9.7Zm6.55-9.52l-12.58-28.44h5.2l10.71,24.54-3.33,3.9Z"/><path class="cls-1" d="m72.91,776.61l-10.24-27.56h4.73l9.1,24.96h-2.24l9.46-24.96h4.21l9.26,24.96h-2.18l9.31-24.96h4.47l-10.3,27.56h-4.78l-8.68-22.78h1.46l-8.79,22.78h-4.78Z"/><path class="cls-1" d="m114.61,787.01c-1.32,0-2.6-.22-3.85-.65-1.25-.43-2.32-1.07-3.22-1.9l2.13-3.74c.69.66,1.46,1.16,2.29,1.51.83.35,1.72.52,2.65.52,1.21,0,2.22-.31,3.02-.94.8-.62,1.54-1.73,2.24-3.33l1.72-3.8.52-.62,10.82-25.01h4.89l-13.36,30.32c-.8,1.94-1.69,3.47-2.68,4.58-.99,1.11-2.07,1.9-3.25,2.37-1.18.47-2.48.7-3.9.7Zm6.55-9.52l-12.58-28.44h5.2l10.71,24.54-3.33,3.9Z"/><path class="cls-1" d="m142.48,776.61v-38.58h4.99v38.58h-4.99Zm4.06-6.66l.1-6.4,15.86-14.51h6.03l-12.17,11.96-2.7,2.29-7.12,6.66Zm17,6.66l-10.82-13.42,3.22-4,13.73,17.42h-6.14Z"/><path class="cls-1" d="m182.06,776.92c-2.05,0-3.84-.35-5.38-1.04-1.54-.69-2.73-1.66-3.56-2.89s-1.25-2.63-1.25-4.19.36-2.84,1.07-4.06c.71-1.21,1.87-2.18,3.48-2.91,1.61-.73,3.79-1.09,6.53-1.09h8.74v3.59h-8.53c-2.5,0-4.18.42-5.04,1.25-.87.83-1.3,1.84-1.3,3.02,0,1.35.54,2.44,1.61,3.25,1.07.81,2.56,1.22,4.47,1.22s3.51-.42,4.91-1.25,2.42-2.04,3.04-3.64l.99,3.43c-.66,1.63-1.82,2.92-3.48,3.87-1.66.95-3.76,1.43-6.29,1.43Zm9.05-.31v-5.82l-.26-1.09v-9.93c0-2.11-.62-3.75-1.85-4.91-1.23-1.16-3.08-1.74-5.54-1.74-1.63,0-3.22.27-4.78.81-1.56.54-2.88,1.26-3.95,2.16l-2.08-3.74c1.42-1.14,3.13-2.02,5.12-2.63,1.99-.61,4.08-.91,6.27-.91,3.78,0,6.69.92,8.74,2.76,2.04,1.84,3.07,4.65,3.07,8.42v16.64h-4.73Z"/><path class="cls-1" d="m202.44,776.61v-3.22l17.68-21.94.99,1.72h-18.36v-4.11h22.36v3.28l-17.68,21.89-1.14-1.72h19.24v4.11h-23.09Z"/><path class="cls-1" d="m243.78,776.92c-2.36,0-4.43-.43-6.21-1.3-1.79-.87-3.17-2.19-4.16-3.98s-1.48-4.03-1.48-6.73v-15.86h4.99v15.29c0,2.7.65,4.73,1.95,6.08,1.3,1.35,3.13,2.03,5.49,2.03,1.73,0,3.24-.36,4.52-1.07,1.28-.71,2.27-1.75,2.96-3.12.69-1.37,1.04-3.02,1.04-4.97v-14.25h4.99v27.56h-4.73v-7.44l.78,1.98c-.9,1.84-2.25,3.26-4.06,4.26-1.8,1.01-3.83,1.51-6.08,1.51Z"/><path class="cls-1" d="m263.85,787.01c-1.14,0-2.24-.14-3.3-.42-1.06-.28-1.95-.69-2.68-1.25l1.61-3.85c1.04.87,2.39,1.3,4.06,1.3,1.32,0,2.33-.41,3.04-1.22.71-.82,1.07-2.02,1.07-3.61v-28.91h4.99v28.81c0,2.81-.75,5.04-2.26,6.68-1.51,1.65-3.68,2.47-6.53,2.47Zm6.29-43.26c-.97,0-1.78-.31-2.42-.94-.64-.62-.96-1.39-.96-2.29s.32-1.72.96-2.34c.64-.62,1.45-.94,2.42-.94s1.78.3,2.42.91c.64.61.96,1.36.96,2.26s-.31,1.72-.94,2.37-1.44.96-2.44.96Z"/><path class="cls-1" d="m294.43,776.92c-2.95,0-5.54-.61-7.77-1.82-2.24-1.21-3.97-2.88-5.2-4.99-1.23-2.11-1.85-4.54-1.85-7.28s.6-5.17,1.79-7.28c1.2-2.11,2.84-3.77,4.94-4.97,2.1-1.2,4.46-1.79,7.1-1.79s5.03.59,7.07,1.77c2.04,1.18,3.65,2.83,4.81,4.97,1.16,2.13,1.74,4.62,1.74,7.46,0,.21,0,.45-.03.73-.02.28-.04.54-.08.78h-23.45v-3.59h20.85l-2.03,1.25c.03-1.77-.33-3.35-1.09-4.73-.76-1.39-1.81-2.47-3.15-3.25-1.33-.78-2.89-1.17-4.65-1.17s-3.28.39-4.63,1.17c-1.35.78-2.41,1.87-3.17,3.28s-1.14,3.01-1.14,4.81v.83c0,1.84.42,3.48,1.27,4.91.85,1.44,2.04,2.56,3.56,3.35,1.52.8,3.28,1.2,5.25,1.2,1.63,0,3.11-.28,4.45-.83,1.33-.55,2.5-1.39,3.51-2.5l2.76,3.22c-1.25,1.46-2.8,2.57-4.65,3.33s-3.93,1.14-6.21,1.14Z"/><path class="cls-1" d="m333.79,776.61l-10.24-27.56h4.73l9.1,24.96h-2.24l9.46-24.96h4.21l9.26,24.96h-2.18l9.31-24.96h4.47l-10.3,27.56h-4.78l-8.68-22.78h1.46l-8.79,22.78h-4.78Z"/><path class="cls-1" d="m377.21,743.75c-.97,0-1.78-.31-2.42-.94s-.96-1.39-.96-2.29.32-1.72.96-2.34c.64-.62,1.45-.94,2.42-.94s1.78.3,2.42.91c.64.61.96,1.36.96,2.26s-.31,1.72-.94,2.37-1.44.96-2.44.96Zm-2.5,32.86v-27.56h4.99v27.56h-4.99Z"/><path class="cls-1" d="m407.16,788.26c-1.91,0-3.42-.5-4.55-1.51-1.13-1.01-1.69-2.32-1.69-3.95,0-1.18.33-2.44.99-3.77.66-1.33,1.73-2.57,3.22-3.72l1.77.73c-.8.28-1.66.49-2.57.65-.92.16-1.86.23-2.83.23-2.95,0-5.54-.61-7.77-1.82-2.24-1.21-3.97-2.88-5.2-4.99-1.23-2.11-1.85-4.54-1.85-7.28s.6-5.17,1.79-7.28c1.2-2.11,2.84-3.77,4.94-4.97,2.1-1.2,4.46-1.79,7.1-1.79s5.03.59,7.07,1.77c2.04,1.18,3.65,2.83,4.81,4.97,1.16,2.13,1.74,4.62,1.74,7.46,0,.21,0,.45-.03.73-.02.28-.04.54-.08.78h-23.45v-3.59h20.85l-2.03,1.25c.03-1.77-.33-3.35-1.09-4.73-.76-1.39-1.81-2.47-3.15-3.25-1.33-.78-2.89-1.17-4.65-1.17s-3.28.39-4.63,1.17c-1.35.78-2.41,1.87-3.17,3.28s-1.14,3.01-1.14,4.81v.83c0,1.84.42,3.48,1.27,4.91.85,1.44,2.04,2.56,3.56,3.35,1.52.8,3.28,1.2,5.25,1.2,1.63,0,3.11-.28,4.45-.83,1.33-.55,2.5-1.39,3.51-2.5l2.76,3.22c-.28.35-.59.66-.94.94-.35.28-.71.59-1.09.94-1.53,1.28-2.71,2.41-3.56,3.38-.85.97-1.45,1.84-1.79,2.6-.35.76-.52,1.49-.52,2.18,0,.97.3,1.69.91,2.16.61.47,1.38.7,2.31.7.55,0,1.12-.09,1.69-.26.57-.17,1.07-.38,1.48-.62l.99,2.55c-.66.38-1.39.68-2.18.91-.8.23-1.63.34-2.5.34Z"/><path class="cls-1" d="m421.05,776.61v-38.58h4.99v38.58h-4.99Zm4.06-6.66l.1-6.4,15.86-14.51h6.03l-12.17,11.96-2.7,2.29-7.12,6.66Zm17,6.66l-10.82-13.42,3.22-4,13.73,17.42h-6.14Z"/><path class="cls-1" d="m460.1,776.92c-2.29,0-4.46-.31-6.53-.94-2.06-.62-3.68-1.39-4.86-2.29l2.08-3.95c1.18.8,2.63,1.47,4.37,2.03,1.73.55,3.5.83,5.3.83,2.32,0,4-.33,5.02-.99,1.02-.66,1.53-1.58,1.53-2.76,0-.87-.31-1.54-.94-2.03-.62-.49-1.45-.85-2.47-1.09-1.02-.24-2.16-.46-3.41-.65-1.25-.19-2.5-.43-3.74-.73-1.25-.29-2.39-.71-3.43-1.25-1.04-.54-1.87-1.28-2.5-2.24-.62-.95-.94-2.23-.94-3.82s.47-3.12,1.4-4.37c.94-1.25,2.26-2.21,3.98-2.89,1.72-.68,3.75-1.01,6.11-1.01,1.8,0,3.63.22,5.49.65,1.85.43,3.37,1.05,4.55,1.85l-2.13,3.95c-1.25-.83-2.55-1.4-3.9-1.72-1.35-.31-2.7-.47-4.06-.47-2.18,0-3.81.36-4.89,1.07-1.07.71-1.61,1.62-1.61,2.73,0,.94.32,1.66.96,2.16.64.5,1.47.89,2.5,1.17,1.02.28,2.16.51,3.41.7,1.25.19,2.5.43,3.74.73,1.25.29,2.38.7,3.41,1.22,1.02.52,1.85,1.25,2.5,2.18.64.94.96,2.18.96,3.74,0,1.66-.49,3.1-1.46,4.32-.97,1.21-2.34,2.16-4.11,2.83-1.77.68-3.88,1.01-6.34,1.01Z"/><path class="cls-1" d="m475.59,776.61v-3.22l17.68-21.94.99,1.72h-18.36v-4.11h22.36v3.28l-17.68,21.89-1.14-1.72h19.24v4.11h-23.09Z"/><path class="cls-1" d="m506.01,787.01c-1.32,0-2.6-.22-3.85-.65-1.25-.43-2.32-1.07-3.22-1.9l2.13-3.74c.69.66,1.46,1.16,2.29,1.51.83.35,1.72.52,2.65.52,1.21,0,2.22-.31,3.02-.94.8-.62,1.54-1.73,2.24-3.33l1.72-3.8.52-.62,10.82-25.01h4.89l-13.36,30.32c-.8,1.94-1.69,3.47-2.68,4.58-.99,1.11-2.07,1.9-3.25,2.37-1.18.47-2.48.7-3.9.7Zm6.55-9.52l-12.58-28.44h5.2l10.71,24.54-3.33,3.9Z"/><path class="cls-1" d="m560.14,776.92c-2.95,0-5.54-.61-7.77-1.82-2.24-1.21-3.97-2.88-5.2-4.99-1.23-2.11-1.85-4.54-1.85-7.28s.6-5.17,1.79-7.28c1.2-2.11,2.84-3.77,4.94-4.97,2.1-1.2,4.46-1.79,7.1-1.79s5.03.59,7.07,1.77c2.04,1.18,3.65,2.83,4.81,4.97,1.16,2.13,1.74,4.62,1.74,7.46,0,.21,0,.45-.03.73-.02.28-.04.54-.08.78h-23.45v-3.59h20.85l-2.03,1.25c.03-1.77-.33-3.35-1.09-4.73-.76-1.39-1.81-2.47-3.15-3.25-1.33-.78-2.89-1.17-4.65-1.17s-3.28.39-4.63,1.17c-1.35.78-2.41,1.87-3.17,3.28s-1.14,3.01-1.14,4.81v.83c0,1.84.42,3.48,1.27,4.91.85,1.44,2.04,2.56,3.56,3.35,1.52.8,3.28,1.2,5.25,1.2,1.63,0,3.11-.28,4.45-.83,1.33-.55,2.5-1.39,3.51-2.5l2.76,3.22c-1.25,1.46-2.8,2.57-4.65,3.33s-3.93,1.14-6.21,1.14Z"/><path class="cls-1" d="m575.75,753.16v-4.11h17.58v4.11h-17.58Zm4.68,23.45v-30c0-2.7.79-4.86,2.37-6.47,1.58-1.61,3.82-2.42,6.73-2.42,1.07,0,2.11.13,3.09.39.99.26,1.83.67,2.52,1.22l-1.51,3.8c-.52-.42-1.11-.74-1.77-.96-.66-.23-1.35-.34-2.08-.34-1.46,0-2.57.41-3.33,1.22-.76.82-1.14,2.02-1.14,3.61v3.69l.1,2.29v23.97h-4.99Z"/><path class="cls-1" d="m609.91,776.92c-2.95,0-5.54-.61-7.77-1.82-2.24-1.21-3.97-2.88-5.2-4.99-1.23-2.11-1.85-4.54-1.85-7.28s.6-5.17,1.79-7.28c1.2-2.11,2.84-3.77,4.94-4.97,2.1-1.2,4.46-1.79,7.1-1.79s5.03.59,7.07,1.77c2.04,1.18,3.65,2.83,4.81,4.97,1.16,2.13,1.74,4.62,1.74,7.46,0,.21,0,.45-.03.73-.02.28-.04.54-.08.78h-23.45v-3.59h20.85l-2.03,1.25c.03-1.77-.33-3.35-1.09-4.73-.76-1.39-1.81-2.47-3.15-3.25-1.33-.78-2.89-1.17-4.65-1.17s-3.28.39-4.63,1.17c-1.35.78-2.41,1.87-3.17,3.28s-1.14,3.01-1.14,4.81v.83c0,1.84.42,3.48,1.27,4.91.85,1.44,2.04,2.56,3.56,3.35,1.52.8,3.28,1.2,5.25,1.2,1.63,0,3.11-.28,4.45-.83,1.33-.55,2.5-1.39,3.51-2.5l2.76,3.22c-1.25,1.46-2.8,2.57-4.65,3.33s-3.93,1.14-6.21,1.14Z"/><path class="cls-1" d="m629.46,776.61v-38.58h4.99v38.58h-4.99Zm4.06-6.66l.1-6.4,15.86-14.51h6.03l-12.17,11.96-2.7,2.29-7.12,6.66Zm17,6.66l-10.82-13.42,3.22-4,13.73,17.42h-6.14Z"/><path class="cls-1" d="m657.54,753.16v-4.11h17.58v4.11h-17.58Zm13.42,23.76c-2.77,0-4.92-.75-6.45-2.24-1.53-1.49-2.29-3.62-2.29-6.4v-25.27h4.99v25.06c0,1.49.37,2.63,1.12,3.43.75.8,1.81,1.2,3.2,1.2,1.56,0,2.86-.43,3.9-1.3l1.56,3.59c-.76.66-1.67,1.14-2.73,1.46-1.06.31-2.16.47-3.3.47Z"/><path class="cls-1" d="m697.01,776.61v-38.58h4.99v38.58h-4.99Zm4.06-6.66l.1-6.4,15.86-14.51h6.03l-12.17,11.96-2.7,2.29-7.12,6.66Zm17,6.66l-10.82-13.42,3.22-4,13.73,17.42h-6.14Z"/><path class="cls-1" d="m729.04,776.61v-38.58h4.99v38.58h-4.99Z"/><path class="cls-1" d="m746.04,743.75c-.97,0-1.78-.31-2.42-.94s-.96-1.39-.96-2.29.32-1.72.96-2.34c.64-.62,1.45-.94,2.42-.94s1.78.3,2.42.91c.64.61.96,1.36.96,2.26s-.31,1.72-.94,2.37-1.44.96-2.44.96Zm-2.5,32.86v-27.56h4.99v27.56h-4.99Z"/><path class="cls-1" d="m772.77,748.79c2.25,0,4.24.43,5.95,1.3,1.72.87,3.06,2.18,4.03,3.95.97,1.77,1.46,4,1.46,6.71v15.86h-4.99v-15.29c0-2.67-.65-4.68-1.95-6.03-1.3-1.35-3.13-2.03-5.49-2.03-1.77,0-3.31.35-4.63,1.04-1.32.69-2.33,1.72-3.04,3.07-.71,1.35-1.07,3.03-1.07,5.04v14.2h-4.99v-27.56h4.78v7.44l-.78-1.98c.9-1.8,2.29-3.21,4.16-4.21,1.87-1,4.06-1.51,6.55-1.51Z"/><path class="cls-1" d="m795.96,743.75c-.97,0-1.78-.31-2.42-.94s-.96-1.39-.96-2.29.32-1.72.96-2.34c.64-.62,1.45-.94,2.42-.94s1.78.3,2.42.91c.64.61.96,1.36.96,2.26s-.31,1.72-.94,2.37-1.44.96-2.44.96Zm-2.5,32.86v-27.56h4.99v27.56h-4.99Z"/><path class="cls-1" d="m819.99,776.92c-2.81,0-5.31-.61-7.51-1.82-2.2-1.21-3.93-2.88-5.17-4.99s-1.87-4.54-1.87-7.28.62-5.17,1.87-7.28c1.25-2.11,2.97-3.77,5.17-4.97,2.2-1.2,4.71-1.79,7.51-1.79,2.5,0,4.72.49,6.68,1.48,1.96.99,3.48,2.45,4.55,4.39l-3.8,2.44c-.9-1.35-2-2.35-3.3-2.99-1.3-.64-2.7-.96-4.19-.96-1.8,0-3.42.4-4.84,1.2-1.42.8-2.55,1.92-3.38,3.35-.83,1.44-1.25,3.15-1.25,5.12s.42,3.69,1.25,5.15,1.96,2.58,3.38,3.38c1.42.8,3.03,1.2,4.84,1.2,1.49,0,2.89-.32,4.19-.96,1.3-.64,2.4-1.64,3.3-2.99l3.8,2.39c-1.07,1.91-2.59,3.37-4.55,4.39-1.96,1.02-4.19,1.53-6.68,1.53Z"/><path class="cls-1" d="m834.65,776.61v-3.22l17.68-21.94.99,1.72h-18.36v-4.11h22.36v3.28l-17.68,21.89-1.14-1.72h19.24v4.11h-23.09Z"/><path class="cls-1" d="m879.11,748.79c2.25,0,4.24.43,5.95,1.3,1.72.87,3.06,2.18,4.03,3.95.97,1.77,1.46,4,1.46,6.71v15.86h-4.99v-15.29c0-2.67-.65-4.68-1.95-6.03-1.3-1.35-3.13-2.03-5.49-2.03-1.77,0-3.31.35-4.63,1.04-1.32.69-2.33,1.72-3.04,3.07-.71,1.35-1.07,3.03-1.07,5.04v14.2h-4.99v-27.56h4.78v7.44l-.78-1.98c.9-1.8,2.29-3.21,4.16-4.21,1.87-1,4.06-1.51,6.55-1.51Z"/><path class="cls-1" d="m900.48,787.01c-1.32,0-2.6-.22-3.85-.65-1.25-.43-2.32-1.07-3.22-1.9l2.13-3.74c.69.66,1.46,1.16,2.29,1.51.83.35,1.72.52,2.65.52,1.21,0,2.22-.31,3.02-.94.8-.62,1.54-1.73,2.24-3.33l1.72-3.8.52-.62,10.82-25.01h4.89l-13.36,30.32c-.8,1.94-1.69,3.47-2.68,4.58-.99,1.11-2.07,1.9-3.25,2.37-1.18.47-2.48.7-3.9.7Zm6.55-9.52l-12.58-28.44h5.2l10.71,24.54-3.33,3.9Z"/><path class="cls-1" d="m148.54,839.01l-10.24-27.56h4.73l9.1,24.96h-2.24l9.46-24.96h4.21l9.26,24.96h-2.18l9.31-24.96h4.47l-10.3,27.56h-4.78l-8.68-22.78h1.46l-8.79,22.78h-4.78Z"/><path class="cls-1" d="m211.36,839.32c-2.29,0-4.46-.31-6.53-.94-2.06-.62-3.68-1.39-4.86-2.29l2.08-3.95c1.18.8,2.63,1.47,4.37,2.03,1.73.55,3.5.83,5.3.83,2.32,0,4-.33,5.02-.99,1.02-.66,1.53-1.58,1.53-2.76,0-.87-.31-1.54-.94-2.03s-1.45-.85-2.47-1.09c-1.02-.24-2.16-.46-3.41-.65s-2.5-.43-3.74-.73c-1.25-.29-2.39-.71-3.43-1.25-1.04-.54-1.87-1.28-2.5-2.24s-.94-2.23-.94-3.82.47-3.12,1.4-4.37c.94-1.25,2.26-2.21,3.98-2.89,1.72-.68,3.75-1.01,6.11-1.01,1.8,0,3.63.22,5.49.65,1.85.43,3.37,1.05,4.55,1.85l-2.13,3.95c-1.25-.83-2.55-1.4-3.9-1.72-1.35-.31-2.7-.47-4.06-.47-2.18,0-3.81.36-4.89,1.07-1.07.71-1.61,1.62-1.61,2.73,0,.94.32,1.66.96,2.16.64.5,1.47.89,2.5,1.17,1.02.28,2.16.51,3.41.7,1.25.19,2.5.43,3.74.73,1.25.29,2.38.7,3.41,1.22,1.02.52,1.85,1.25,2.5,2.18.64.94.96,2.18.96,3.74,0,1.66-.49,3.1-1.46,4.32-.97,1.21-2.34,2.16-4.11,2.83-1.77.68-3.88,1.01-6.34,1.01Z"/><path class="cls-1" d="m229.51,839.01v-38.58h4.99v38.58h-4.99Zm4.06-6.66l.1-6.4,15.86-14.51h6.03l-12.17,11.96-2.7,2.29-7.12,6.66Zm17,6.66l-10.82-13.42,3.22-4,13.73,17.42h-6.14Z"/><path class="cls-1" d="m269.08,839.32c-2.05,0-3.84-.35-5.38-1.04-1.54-.69-2.73-1.66-3.56-2.89s-1.25-2.63-1.25-4.19.36-2.84,1.07-4.06c.71-1.21,1.87-2.18,3.48-2.91,1.61-.73,3.79-1.09,6.53-1.09h8.74v3.59h-8.53c-2.5,0-4.18.42-5.04,1.25-.87.83-1.3,1.84-1.3,3.02,0,1.35.54,2.44,1.61,3.25,1.07.82,2.56,1.22,4.47,1.22s3.51-.42,4.91-1.25,2.42-2.04,3.04-3.64l.99,3.43c-.66,1.63-1.82,2.92-3.48,3.87-1.66.95-3.76,1.43-6.29,1.43Zm9.05-.31v-5.82l-.26-1.09v-9.93c0-2.11-.62-3.75-1.85-4.91-1.23-1.16-3.08-1.74-5.54-1.74-1.63,0-3.22.27-4.78.81-1.56.54-2.88,1.26-3.95,2.16l-2.08-3.74c1.42-1.14,3.13-2.02,5.12-2.63,1.99-.61,4.08-.91,6.27-.91,3.78,0,6.69.92,8.74,2.76,2.04,1.84,3.07,4.65,3.07,8.42v16.64h-4.73Z"/><path class="cls-1" d="m292.11,839.01v-38.58h4.99v38.58h-4.99Z"/><path class="cls-1" d="m309.12,806.15c-.97,0-1.78-.31-2.42-.94s-.96-1.39-.96-2.29.32-1.72.96-2.34,1.45-.94,2.42-.94,1.78.3,2.42.91c.64.61.96,1.36.96,2.26s-.31,1.72-.94,2.37c-.62.64-1.44.96-2.44.96Zm-2.5,32.86v-27.56h4.99v27.56h-4.99Z"/><path class="cls-1" d="m352.12,839.43c-2.77,0-5.33-.46-7.67-1.38-2.34-.92-4.37-2.22-6.08-3.9-1.72-1.68-3.06-3.65-4.03-5.9-.97-2.25-1.46-4.73-1.46-7.44s.49-5.18,1.46-7.44c.97-2.25,2.32-4.22,4.06-5.9,1.73-1.68,3.77-2.98,6.11-3.9,2.34-.92,4.9-1.38,7.67-1.38s5.4.48,7.77,1.43c2.38.95,4.39,2.37,6.06,4.24l-3.38,3.28c-1.39-1.46-2.95-2.54-4.68-3.25-1.73-.71-3.59-1.07-5.56-1.07s-3.94.35-5.69,1.04c-1.75.69-3.27,1.66-4.55,2.91-1.28,1.25-2.28,2.73-2.99,4.45-.71,1.72-1.07,3.58-1.07,5.59s.35,3.87,1.07,5.59c.71,1.72,1.71,3.2,2.99,4.45,1.28,1.25,2.8,2.22,4.55,2.91,1.75.69,3.65,1.04,5.69,1.04s3.83-.35,5.56-1.07,3.29-1.81,4.68-3.3l3.38,3.28c-1.66,1.87-3.68,3.29-6.06,4.26-2.37.97-4.98,1.46-7.83,1.46Z"/><path class="cls-1" d="m383.37,839.32c-2.77,0-5.24-.61-7.38-1.82-2.15-1.21-3.85-2.89-5.1-5.02-1.25-2.13-1.87-4.55-1.87-7.25s.62-5.17,1.87-7.28c1.25-2.11,2.95-3.77,5.1-4.97,2.15-1.2,4.61-1.79,7.38-1.79s5.19.6,7.36,1.79c2.17,1.2,3.87,2.84,5.1,4.94,1.23,2.1,1.85,4.53,1.85,7.31s-.62,5.17-1.85,7.28c-1.23,2.12-2.93,3.78-5.1,4.99-2.17,1.21-4.62,1.82-7.36,1.82Zm0-4.37c1.77,0,3.35-.4,4.76-1.2,1.4-.8,2.5-1.93,3.3-3.41.8-1.47,1.2-3.18,1.2-5.12s-.4-3.68-1.2-5.12c-.8-1.44-1.9-2.56-3.3-3.35-1.4-.8-2.99-1.2-4.76-1.2s-3.35.4-4.73,1.2c-1.39.8-2.5,1.92-3.33,3.35s-1.25,3.15-1.25,5.12.42,3.65,1.25,5.12c.83,1.47,1.94,2.61,3.33,3.41,1.39.8,2.96,1.2,4.73,1.2Z"/><path class="cls-1" d="m419.3,811.19c2.25,0,4.24.43,5.95,1.3,1.72.87,3.06,2.18,4.03,3.95.97,1.77,1.46,4,1.46,6.71v15.86h-4.99v-15.29c0-2.67-.65-4.68-1.95-6.03-1.3-1.35-3.13-2.03-5.49-2.03-1.77,0-3.31.35-4.63,1.04-1.32.69-2.33,1.72-3.04,3.07-.71,1.35-1.07,3.03-1.07,5.04v14.2h-4.99v-38.58h4.99v18.46l-.99-1.98c.9-1.8,2.29-3.21,4.16-4.21,1.87-1,4.06-1.51,6.55-1.51Z"/><path class="cls-1" d="m452.27,839.32c-2.95,0-5.54-.61-7.77-1.82-2.24-1.21-3.97-2.88-5.2-4.99-1.23-2.11-1.85-4.54-1.85-7.28s.6-5.17,1.79-7.28c1.2-2.11,2.84-3.77,4.94-4.97,2.1-1.2,4.46-1.79,7.1-1.79s5.03.59,7.07,1.77c2.04,1.18,3.65,2.83,4.81,4.97,1.16,2.13,1.74,4.62,1.74,7.46,0,.21,0,.45-.03.73-.02.28-.04.54-.08.78h-23.45v-3.59h20.85l-2.03,1.25c.03-1.77-.33-3.34-1.09-4.73-.76-1.39-1.81-2.47-3.15-3.25-1.33-.78-2.89-1.17-4.65-1.17s-3.28.39-4.63,1.17c-1.35.78-2.41,1.87-3.17,3.28-.76,1.4-1.14,3.01-1.14,4.81v.83c0,1.84.42,3.48,1.27,4.91s2.04,2.56,3.56,3.35c1.52.8,3.28,1.2,5.25,1.2,1.63,0,3.11-.28,4.45-.83,1.33-.55,2.5-1.39,3.51-2.5l2.76,3.22c-1.25,1.46-2.8,2.57-4.65,3.33-1.85.76-3.93,1.14-6.21,1.14Z"/><path class="cls-1" d="m486.54,811.19c2.25,0,4.24.43,5.95,1.3,1.72.87,3.06,2.18,4.03,3.95.97,1.77,1.46,4,1.46,6.71v15.86h-4.99v-15.29c0-2.67-.65-4.68-1.95-6.03-1.3-1.35-3.13-2.03-5.49-2.03-1.77,0-3.31.35-4.63,1.04-1.32.69-2.33,1.72-3.04,3.07-.71,1.35-1.07,3.03-1.07,5.04v14.2h-4.99v-27.56h4.78v7.44l-.78-1.98c.9-1.8,2.29-3.21,4.16-4.21,1.87-1,4.06-1.51,6.55-1.51Z"/><path class="cls-1" d="m506.09,816.65l-.31-14.04h4.37l-.36,14.04h-3.69Z"/><path class="cls-1" d="m526.21,839.32c-2.05,0-3.84-.35-5.38-1.04-1.54-.69-2.73-1.66-3.56-2.89s-1.25-2.63-1.25-4.19.36-2.84,1.07-4.06c.71-1.21,1.87-2.18,3.48-2.91,1.61-.73,3.79-1.09,6.53-1.09h8.74v3.59h-8.53c-2.5,0-4.18.42-5.04,1.25-.87.83-1.3,1.84-1.3,3.02,0,1.35.54,2.44,1.61,3.25,1.07.82,2.56,1.22,4.47,1.22s3.51-.42,4.91-1.25,2.42-2.04,3.04-3.64l.99,3.43c-.66,1.63-1.82,2.92-3.48,3.87-1.66.95-3.76,1.43-6.29,1.43Zm9.05-.31v-5.82l-.26-1.09v-9.93c0-2.11-.62-3.75-1.85-4.91-1.23-1.16-3.08-1.74-5.54-1.74-1.63,0-3.22.27-4.78.81-1.56.54-2.88,1.26-3.95,2.16l-2.08-3.74c1.42-1.14,3.13-2.02,5.12-2.63,1.99-.61,4.08-.91,6.27-.91,3.78,0,6.69.92,8.74,2.76,2.04,1.84,3.07,4.65,3.07,8.42v16.64h-4.73Z"/><path class="cls-1" d="m569.06,839.01l-10.24-27.56h4.73l9.1,24.96h-2.24l9.46-24.96h4.21l9.26,24.96h-2.18l9.31-24.96h4.47l-10.3,27.56h-4.78l-8.68-22.78h1.46l-8.79,22.78h-4.78Z"/><path class="cls-1" d="m621.32,839.01v-3.22l17.68-21.94.99,1.72h-18.36v-4.11h22.36v3.28l-17.68,21.89-1.14-1.72h19.24v4.11h-23.09Z"/><path class="cls-1" d="m659.13,839.32c-2.05,0-3.84-.35-5.38-1.04-1.54-.69-2.73-1.66-3.56-2.89s-1.25-2.63-1.25-4.19.36-2.84,1.07-4.06c.71-1.21,1.87-2.18,3.48-2.91,1.61-.73,3.79-1.09,6.53-1.09h8.74v3.59h-8.53c-2.5,0-4.18.42-5.04,1.25-.87.83-1.3,1.84-1.3,3.02,0,1.35.54,2.44,1.61,3.25,1.07.82,2.56,1.22,4.47,1.22s3.51-.42,4.91-1.25,2.42-2.04,3.04-3.64l.99,3.43c-.66,1.63-1.82,2.92-3.48,3.87-1.66.95-3.76,1.43-6.29,1.43Zm9.05-.31v-5.82l-.26-1.09v-9.93c0-2.11-.62-3.75-1.85-4.91-1.23-1.16-3.08-1.74-5.54-1.74-1.63,0-3.22.27-4.78.81-1.56.54-2.88,1.26-3.95,2.16l-2.08-3.74c1.42-1.14,3.13-2.02,5.12-2.63,1.99-.61,4.08-.91,6.27-.91,3.78,0,6.69.92,8.74,2.76,2.04,1.84,3.07,4.65,3.07,8.42v16.64h-4.73Z"/><path class="cls-1" d="m682.16,839.01v-38.58h4.99v38.58h-4.99Zm4.06-6.66l.1-6.4,15.86-14.51h6.03l-12.17,11.96-2.7,2.29-7.12,6.66Zm17,6.66l-10.82-13.42,3.22-4,13.73,17.42h-6.14Z"/><path class="cls-1" d="m713.83,839.01v-27.56h4.78v7.49l-.47-1.87c.76-1.91,2.04-3.36,3.85-4.37,1.8-1,4.02-1.51,6.66-1.51v4.84c-.21-.03-.41-.05-.6-.05h-.55c-2.67,0-4.78.8-6.34,2.39-1.56,1.59-2.34,3.9-2.34,6.92v13.73h-4.99Z"/><path class="cls-1" d="m746.8,839.32c-2.95,0-5.54-.61-7.77-1.82-2.24-1.21-3.97-2.88-5.2-4.99-1.23-2.11-1.85-4.54-1.85-7.28s.6-5.17,1.79-7.28c1.2-2.11,2.84-3.77,4.94-4.97,2.1-1.2,4.46-1.79,7.1-1.79s5.03.59,7.07,1.77c2.04,1.18,3.65,2.83,4.81,4.97,1.16,2.13,1.74,4.62,1.74,7.46,0,.21,0,.45-.03.73-.02.28-.04.54-.08.78h-23.45v-3.59h20.85l-2.03,1.25c.03-1.77-.33-3.34-1.09-4.73-.76-1.39-1.81-2.47-3.15-3.25-1.33-.78-2.89-1.17-4.65-1.17s-3.28.39-4.63,1.17c-1.35.78-2.41,1.87-3.17,3.28-.76,1.4-1.14,3.01-1.14,4.81v.83c0,1.84.42,3.48,1.27,4.91s2.04,2.56,3.56,3.35c1.52.8,3.28,1.2,5.25,1.2,1.63,0,3.11-.28,4.45-.83,1.33-.55,2.5-1.39,3.51-2.5l2.76,3.22c-1.25,1.46-2.8,2.57-4.65,3.33-1.85.76-3.93,1.14-6.21,1.14Z"/><path class="cls-1" d="m774.25,839.32c-2.29,0-4.46-.31-6.53-.94-2.06-.62-3.68-1.39-4.86-2.29l2.08-3.95c1.18.8,2.63,1.47,4.37,2.03,1.73.55,3.5.83,5.3.83,2.32,0,4-.33,5.02-.99,1.02-.66,1.53-1.58,1.53-2.76,0-.87-.31-1.54-.94-2.03s-1.45-.85-2.47-1.09c-1.02-.24-2.16-.46-3.41-.65s-2.5-.43-3.74-.73c-1.25-.29-2.39-.71-3.43-1.25-1.04-.54-1.87-1.28-2.5-2.24s-.94-2.23-.94-3.82.47-3.12,1.4-4.37c.94-1.25,2.26-2.21,3.98-2.89,1.72-.68,3.75-1.01,6.11-1.01,1.8,0,3.63.22,5.49.65,1.85.43,3.37,1.05,4.55,1.85l-2.13,3.95c-1.25-.83-2.55-1.4-3.9-1.72-1.35-.31-2.7-.47-4.06-.47-2.18,0-3.81.36-4.89,1.07-1.07.71-1.61,1.62-1.61,2.73,0,.94.32,1.66.96,2.16.64.5,1.47.89,2.5,1.17,1.02.28,2.16.51,3.41.7,1.25.19,2.5.43,3.74.73,1.25.29,2.38.7,3.41,1.22,1.02.52,1.85,1.25,2.5,2.18.64.94.96,2.18.96,3.74,0,1.66-.49,3.1-1.46,4.32-.97,1.21-2.34,2.16-4.11,2.83-1.77.68-3.88,1.01-6.34,1.01Z"/><path class="cls-1" d="m794.9,806.15c-.97,0-1.78-.31-2.42-.94s-.96-1.39-.96-2.29.32-1.72.96-2.34,1.45-.94,2.42-.94,1.78.3,2.42.91c.64.61.96,1.36.96,2.26s-.31,1.72-.94,2.37c-.62.64-1.44.96-2.44.96Zm-2.5,32.86v-27.56h4.99v27.56h-4.99Z"/><path class="cls-1" d="m819.18,839.32c-2.95,0-5.54-.61-7.77-1.82-2.24-1.21-3.97-2.88-5.2-4.99-1.23-2.11-1.85-4.54-1.85-7.28s.6-5.17,1.79-7.28c1.2-2.11,2.84-3.77,4.94-4.97,2.1-1.2,4.46-1.79,7.1-1.79s5.03.59,7.07,1.77c2.04,1.18,3.65,2.83,4.81,4.97,1.16,2.13,1.74,4.62,1.74,7.46,0,.21,0,.45-.03.73-.02.28-.04.54-.08.78h-23.45v-3.59h20.85l-2.03,1.25c.03-1.77-.33-3.34-1.09-4.73-.76-1.39-1.81-2.47-3.15-3.25-1.33-.78-2.89-1.17-4.65-1.17s-3.28.39-4.63,1.17c-1.35.78-2.41,1.87-3.17,3.28-.76,1.4-1.14,3.01-1.14,4.81v.83c0,1.84.42,3.48,1.27,4.91s2.04,2.56,3.56,3.35c1.52.8,3.28,1.2,5.25,1.2,1.63,0,3.11-.28,4.45-.83,1.33-.55,2.5-1.39,3.51-2.5l2.76,3.22c-1.25,1.46-2.8,2.57-4.65,3.33-1.85.76-3.93,1.14-6.21,1.14Z"/><path class="cls-1" d="m147.29,901.41v-27.56h4.78v7.49l-.47-1.87c.76-1.91,2.04-3.36,3.85-4.37,1.8-1,4.02-1.51,6.66-1.51v4.84c-.21-.03-.41-.05-.6-.05h-.55c-2.67,0-4.78.8-6.34,2.39-1.56,1.59-2.34,3.9-2.34,6.92v13.73h-4.99Z"/><path class="cls-1" d="m180.26,901.72c-2.95,0-5.54-.61-7.77-1.82-2.24-1.21-3.97-2.88-5.2-4.99-1.23-2.11-1.85-4.54-1.85-7.28s.6-5.17,1.79-7.28c1.2-2.11,2.84-3.77,4.94-4.97,2.1-1.2,4.46-1.79,7.1-1.79s5.03.59,7.07,1.77c2.04,1.18,3.65,2.83,4.81,4.97,1.16,2.13,1.74,4.62,1.74,7.46,0,.21,0,.45-.03.73-.02.28-.04.54-.08.78h-23.45v-3.59h20.85l-2.03,1.25c.03-1.77-.33-3.34-1.09-4.73-.76-1.39-1.81-2.47-3.15-3.25-1.33-.78-2.89-1.17-4.65-1.17s-3.28.39-4.63,1.17c-1.35.78-2.41,1.87-3.17,3.28-.76,1.4-1.14,3.01-1.14,4.81v.83c0,1.84.42,3.48,1.27,4.91s2.04,2.56,3.56,3.35c1.52.8,3.28,1.2,5.25,1.2,1.63,0,3.11-.28,4.45-.83,1.33-.55,2.5-1.39,3.51-2.5l2.76,3.22c-1.25,1.46-2.8,2.57-4.65,3.33-1.85.76-3.93,1.14-6.21,1.14Z"/><path class="cls-1" d="m211.2,901.72c-2.67,0-5.05-.59-7.15-1.77-2.1-1.18-3.75-2.83-4.97-4.94-1.21-2.11-1.82-4.58-1.82-7.38s.61-5.26,1.82-7.36c1.21-2.1,2.87-3.74,4.97-4.91,2.1-1.18,4.48-1.77,7.15-1.77,2.32,0,4.42.52,6.29,1.56s3.37,2.6,4.5,4.68c1.13,2.08,1.69,4.68,1.69,7.8s-.55,5.72-1.64,7.8-2.57,3.65-4.45,4.71-4,1.59-6.4,1.59Zm.42-4.37c1.73,0,3.3-.4,4.71-1.2,1.4-.8,2.51-1.93,3.33-3.41.81-1.47,1.22-3.18,1.22-5.12s-.41-3.68-1.22-5.12c-.82-1.44-1.92-2.56-3.33-3.35-1.4-.8-2.97-1.2-4.71-1.2s-3.35.4-4.73,1.2c-1.39.8-2.5,1.92-3.33,3.35s-1.25,3.15-1.25,5.12.42,3.65,1.25,5.12c.83,1.47,1.94,2.61,3.33,3.41,1.39.8,2.96,1.2,4.73,1.2Zm9.41,4.06v-7.44l.31-6.4-.52-6.4v-18.36h4.99v38.58h-4.78Z"/><path class="cls-1" d="m246.87,901.72c-2.36,0-4.43-.43-6.21-1.3-1.79-.87-3.17-2.19-4.16-3.98-.99-1.79-1.48-4.03-1.48-6.73v-15.86h4.99v15.29c0,2.7.65,4.73,1.95,6.08,1.3,1.35,3.13,2.03,5.49,2.03,1.73,0,3.24-.35,4.52-1.07,1.28-.71,2.27-1.75,2.96-3.12.69-1.37,1.04-3.02,1.04-4.97v-14.25h4.99v27.56h-4.73v-7.44l.78,1.98c-.9,1.84-2.25,3.26-4.06,4.26-1.8,1.01-3.83,1.51-6.08,1.51Z"/><path class="cls-1" d="m270.48,901.41v-38.58h4.99v38.58h-4.99Zm4.06-6.66l.1-6.4,15.86-14.51h6.03l-12.17,11.96-2.7,2.29-7.12,6.66Zm17,6.66l-10.82-13.42,3.22-4,13.73,17.42h-6.14Z"/><path class="cls-1" d="m313.17,901.72c-2.77,0-5.24-.61-7.38-1.82-2.15-1.21-3.85-2.89-5.1-5.02-1.25-2.13-1.87-4.55-1.87-7.25s.62-5.17,1.87-7.28c1.25-2.11,2.95-3.77,5.1-4.97,2.15-1.2,4.61-1.79,7.38-1.79s5.19.6,7.36,1.79c2.17,1.2,3.87,2.84,5.1,4.94,1.23,2.1,1.85,4.53,1.85,7.31s-.62,5.17-1.85,7.28c-1.23,2.12-2.93,3.78-5.1,4.99-2.17,1.21-4.62,1.82-7.36,1.82Zm0-4.37c1.77,0,3.35-.4,4.76-1.2,1.4-.8,2.5-1.93,3.3-3.41.8-1.47,1.2-3.18,1.2-5.12s-.4-3.68-1.2-5.12c-.8-1.44-1.9-2.56-3.3-3.35-1.4-.8-2.99-1.2-4.76-1.2s-3.35.4-4.73,1.2c-1.39.8-2.5,1.92-3.33,3.35s-1.25,3.15-1.25,5.12.42,3.65,1.25,5.12c.83,1.47,1.94,2.61,3.33,3.41,1.39.8,2.96,1.2,4.73,1.2Z"/><path class="cls-1" d="m339.43,901.41l-10.24-27.56h4.73l9.1,24.96h-2.24l9.46-24.96h4.21l9.26,24.96h-2.18l9.31-24.96h4.47l-10.3,27.56h-4.78l-8.68-22.78h1.46l-8.79,22.78h-4.78Z"/><path class="cls-1" d="m387.53,901.72c-2.05,0-3.84-.35-5.38-1.04-1.54-.69-2.73-1.66-3.56-2.89s-1.25-2.63-1.25-4.19.36-2.84,1.07-4.06c.71-1.21,1.87-2.18,3.48-2.91,1.61-.73,3.79-1.09,6.53-1.09h8.74v3.59h-8.53c-2.5,0-4.18.42-5.04,1.25-.87.83-1.3,1.84-1.3,3.02,0,1.35.54,2.44,1.61,3.25,1.07.82,2.56,1.22,4.47,1.22s3.51-.42,4.91-1.25,2.42-2.04,3.04-3.64l.99,3.43c-.66,1.63-1.82,2.92-3.48,3.87-1.66.95-3.76,1.43-6.29,1.43Zm9.05-.31v-5.82l-.26-1.09v-9.93c0-2.11-.62-3.75-1.85-4.91-1.23-1.16-3.08-1.74-5.54-1.74-1.63,0-3.22.27-4.78.81-1.56.54-2.88,1.26-3.95,2.16l-2.08-3.74c1.42-1.14,3.13-2.02,5.12-2.63,1.99-.61,4.08-.91,6.27-.91,3.78,0,6.69.92,8.74,2.76,2.04,1.84,3.07,4.65,3.07,8.42v16.64h-4.73Z"/><path class="cls-1" d="m425.28,873.59c2.25,0,4.24.43,5.95,1.3,1.72.87,3.06,2.18,4.03,3.95.97,1.77,1.46,4,1.46,6.71v15.86h-4.99v-15.29c0-2.67-.65-4.68-1.95-6.03-1.3-1.35-3.13-2.03-5.49-2.03-1.77,0-3.31.35-4.63,1.04-1.32.69-2.33,1.72-3.04,3.07-.71,1.35-1.07,3.03-1.07,5.04v14.2h-4.99v-27.56h4.78v7.44l-.78-1.98c.9-1.8,2.29-3.21,4.16-4.21,1.87-1,4.06-1.51,6.55-1.51Z"/><path class="cls-1" d="m448.48,868.55c-.97,0-1.78-.31-2.42-.94s-.96-1.39-.96-2.29.32-1.72.96-2.34,1.45-.94,2.42-.94,1.78.3,2.42.91c.64.61.96,1.36.96,2.26s-.31,1.72-.94,2.37c-.62.64-1.44.96-2.44.96Zm-2.5,32.86v-27.56h4.99v27.56h-4.99Z"/><path class="cls-1" d="m468.55,901.72c-2.05,0-3.84-.35-5.38-1.04-1.54-.69-2.73-1.66-3.56-2.89s-1.25-2.63-1.25-4.19.36-2.84,1.07-4.06c.71-1.21,1.87-2.18,3.48-2.91,1.61-.73,3.79-1.09,6.53-1.09h8.74v3.59h-8.53c-2.5,0-4.18.42-5.04,1.25-.87.83-1.3,1.84-1.3,3.02,0,1.35.54,2.44,1.61,3.25,1.07.82,2.56,1.22,4.47,1.22s3.51-.42,4.91-1.25,2.42-2.04,3.04-3.64l.99,3.43c-.66,1.63-1.82,2.92-3.48,3.87-1.66.95-3.76,1.43-6.29,1.43Zm9.05-.31v-5.82l-.26-1.09v-9.93c0-2.11-.62-3.75-1.85-4.91-1.23-1.16-3.08-1.74-5.54-1.74-1.63,0-3.22.27-4.78.81-1.56.54-2.88,1.26-3.95,2.16l-2.08-3.74c1.42-1.14,3.13-2.02,5.12-2.63,1.99-.61,4.08-.91,6.27-.91,3.78,0,6.69.92,8.74,2.76,2.04,1.84,3.07,4.65,3.07,8.42v16.64h-4.73Z"/><path class="cls-1" d="m516.96,901.72c-2.67,0-5.05-.59-7.15-1.77-2.1-1.18-3.75-2.83-4.97-4.94-1.21-2.11-1.82-4.58-1.82-7.38s.61-5.26,1.82-7.36c1.21-2.1,2.87-3.74,4.97-4.91,2.1-1.18,4.48-1.77,7.15-1.77,2.32,0,4.42.52,6.29,1.56s3.37,2.6,4.5,4.68c1.13,2.08,1.69,4.68,1.69,7.8s-.55,5.72-1.64,7.8-2.57,3.65-4.45,4.71-4,1.59-6.4,1.59Zm.42-4.37c1.73,0,3.3-.4,4.71-1.2,1.4-.8,2.51-1.93,3.33-3.41.81-1.47,1.22-3.18,1.22-5.12s-.41-3.68-1.22-5.12c-.82-1.44-1.92-2.56-3.33-3.35-1.4-.8-2.97-1.2-4.71-1.2s-3.35.4-4.73,1.2c-1.39.8-2.5,1.92-3.33,3.35s-1.25,3.15-1.25,5.12.42,3.65,1.25,5.12c.83,1.47,1.94,2.61,3.33,3.41,1.39.8,2.96,1.2,4.73,1.2Zm9.41,4.06v-7.44l.31-6.4-.52-6.4v-18.36h4.99v38.58h-4.78Z"/><path class="cls-1" d="m552.84,901.72c-2.77,0-5.24-.61-7.38-1.82-2.15-1.21-3.85-2.89-5.1-5.02-1.25-2.13-1.87-4.55-1.87-7.25s.62-5.17,1.87-7.28c1.25-2.11,2.95-3.77,5.1-4.97,2.15-1.2,4.61-1.79,7.38-1.79s5.19.6,7.36,1.79c2.17,1.2,3.87,2.84,5.1,4.94,1.23,2.1,1.85,4.53,1.85,7.31s-.62,5.17-1.85,7.28c-1.23,2.12-2.93,3.78-5.1,4.99-2.17,1.21-4.62,1.82-7.36,1.82Zm0-4.37c1.77,0,3.35-.4,4.76-1.2,1.4-.8,2.5-1.93,3.3-3.41.8-1.47,1.2-3.18,1.2-5.12s-.4-3.68-1.2-5.12c-.8-1.44-1.9-2.56-3.3-3.35-1.4-.8-2.99-1.2-4.76-1.2s-3.35.4-4.73,1.2c-1.39.8-2.5,1.92-3.33,3.35s-1.25,3.15-1.25,5.12.42,3.65,1.25,5.12c.83,1.47,1.94,2.61,3.33,3.41,1.39.8,2.96,1.2,4.73,1.2Z"/><path class="cls-1" d="m574.05,901.41v-38.58h4.99v38.58h-4.99Z"/><path class="cls-1" d="m600.83,901.72c-2.95,0-5.54-.61-7.77-1.82-2.24-1.21-3.97-2.88-5.2-4.99-1.23-2.11-1.85-4.54-1.85-7.28s.6-5.17,1.79-7.28c1.2-2.11,2.84-3.77,4.94-4.97,2.1-1.2,4.46-1.79,7.1-1.79s5.03.59,7.07,1.77c2.04,1.18,3.65,2.83,4.81,4.97,1.16,2.13,1.74,4.62,1.74,7.46,0,.21,0,.45-.03.73-.02.28-.04.54-.08.78h-23.45v-3.59h20.85l-2.03,1.25c.03-1.77-.33-3.34-1.09-4.73-.76-1.39-1.81-2.47-3.15-3.25-1.33-.78-2.89-1.17-4.65-1.17s-3.28.39-4.63,1.17c-1.35.78-2.41,1.87-3.17,3.28-.76,1.4-1.14,3.01-1.14,4.81v.83c0,1.84.42,3.48,1.27,4.91s2.04,2.56,3.56,3.35c1.52.8,3.28,1.2,5.25,1.2,1.63,0,3.11-.28,4.45-.83,1.33-.55,2.5-1.39,3.51-2.5l2.76,3.22c-1.25,1.46-2.8,2.57-4.65,3.33-1.85.76-3.93,1.14-6.21,1.14Z"/><path class="cls-1" d="m631.83,900.27c-2.67,0-5.05-.56-7.15-1.69-2.1-1.13-3.76-2.7-4.99-4.71-1.23-2.01-1.85-4.33-1.85-6.97s.62-5,1.85-6.99c1.23-1.99,2.89-3.54,4.99-4.65,2.1-1.11,4.48-1.66,7.15-1.66,2.36,0,4.51.48,6.45,1.43,1.94.95,3.49,2.42,4.65,4.39,1.16,1.98,1.74,4.47,1.74,7.49s-.58,5.46-1.74,7.44c-1.16,1.98-2.71,3.46-4.65,4.45-1.94.99-4.09,1.48-6.45,1.48Zm.62,11.54c-2.53,0-4.98-.36-7.36-1.07-2.38-.71-4.31-1.72-5.8-3.04l2.39-3.85c1.28,1.11,2.86,1.98,4.73,2.63,1.87.64,3.83.96,5.88.96,3.26,0,5.65-.76,7.18-2.29,1.52-1.53,2.29-3.85,2.29-6.97v-5.82l.52-5.46-.26-5.51v-7.54h4.73v23.82c0,4.85-1.21,8.42-3.64,10.71-2.43,2.29-5.98,3.43-10.66,3.43Zm-.05-15.91c1.84,0,3.47-.38,4.89-1.14,1.42-.76,2.54-1.82,3.35-3.17.81-1.35,1.22-2.91,1.22-4.68s-.41-3.33-1.22-4.68c-.82-1.35-1.93-2.4-3.35-3.15-1.42-.75-3.05-1.12-4.89-1.12s-3.48.37-4.91,1.12c-1.44.75-2.57,1.79-3.38,3.15-.82,1.35-1.22,2.91-1.22,4.68s.41,3.33,1.22,4.68c.81,1.35,1.94,2.41,3.38,3.17,1.44.76,3.08,1.14,4.91,1.14Z"/><path class="cls-1" d="m656.27,901.41v-38.58h4.99v38.58h-4.99Z"/><path class="cls-1" d="m673.27,868.55c-.97,0-1.78-.31-2.42-.94s-.96-1.39-.96-2.29.32-1.72.96-2.34,1.45-.94,2.42-.94,1.78.3,2.42.91c.64.61.96,1.36.96,2.26s-.31,1.72-.94,2.37c-.62.64-1.44.96-2.44.96Zm-2.5,32.86v-27.56h4.99v27.56h-4.99Z"/><path class="cls-1" d="m691.1,901.41l-10.24-27.56h4.73l9.1,24.96h-2.24l9.46-24.96h4.21l9.26,24.96h-2.18l9.31-24.96h4.47l-10.3,27.56h-4.78l-8.68-22.78h1.46l-8.79,22.78h-4.78Z"/><path class="cls-1" d="m743.05,901.72c-2.77,0-5.24-.61-7.38-1.82-2.15-1.21-3.85-2.89-5.1-5.02-1.25-2.13-1.87-4.55-1.87-7.25s.62-5.17,1.87-7.28c1.25-2.11,2.95-3.77,5.1-4.97,2.15-1.2,4.61-1.79,7.38-1.79s5.19.6,7.36,1.79c2.17,1.2,3.87,2.84,5.1,4.94,1.23,2.1,1.85,4.53,1.85,7.31s-.62,5.17-1.85,7.28c-1.23,2.12-2.93,3.78-5.1,4.99-2.17,1.21-4.62,1.82-7.36,1.82Zm0-4.37c1.77,0,3.35-.4,4.76-1.2,1.4-.8,2.5-1.93,3.3-3.41.8-1.47,1.2-3.18,1.2-5.12s-.4-3.68-1.2-5.12c-.8-1.44-1.9-2.56-3.3-3.35-1.4-.8-2.99-1.2-4.76-1.2s-3.35.4-4.73,1.2c-1.39.8-2.5,1.92-3.33,3.35s-1.25,3.15-1.25,5.12.42,3.65,1.25,5.12c.83,1.47,1.94,2.61,3.33,3.41,1.39.8,2.96,1.2,4.73,1.2Z"/><path class="cls-1" d="m772.17,901.72c-2.29,0-4.46-.31-6.53-.94-2.06-.62-3.68-1.39-4.86-2.29l2.08-3.95c1.18.8,2.63,1.47,4.37,2.03,1.73.55,3.5.83,5.3.83,2.32,0,4-.33,5.02-.99,1.02-.66,1.53-1.58,1.53-2.76,0-.87-.31-1.54-.94-2.03s-1.45-.85-2.47-1.09c-1.02-.24-2.16-.46-3.41-.65s-2.5-.43-3.74-.73c-1.25-.29-2.39-.71-3.43-1.25-1.04-.54-1.87-1.28-2.5-2.24s-.94-2.23-.94-3.82.47-3.12,1.4-4.37c.94-1.25,2.26-2.21,3.98-2.89,1.72-.68,3.75-1.01,6.11-1.01,1.8,0,3.63.22,5.49.65,1.85.43,3.37,1.05,4.55,1.85l-2.13,3.95c-1.25-.83-2.55-1.4-3.9-1.72-1.35-.31-2.7-.47-4.06-.47-2.18,0-3.81.36-4.89,1.07-1.07.71-1.61,1.62-1.61,2.73,0,.94.32,1.66.96,2.16.64.5,1.47.89,2.5,1.17,1.02.28,2.16.51,3.41.7,1.25.19,2.5.43,3.74.73,1.25.29,2.38.7,3.41,1.22,1.02.52,1.85,1.25,2.5,2.18.64.94.96,2.18.96,3.74,0,1.66-.49,3.1-1.46,4.32-.97,1.21-2.34,2.16-4.11,2.83-1.77.68-3.88,1.01-6.34,1.01Zm-3.64-31.88l7.07-6.76h6.34l-8.74,6.76h-4.68Z"/><path class="cls-1" d="m802.33,901.72c-2.81,0-5.31-.61-7.51-1.82-2.2-1.21-3.93-2.88-5.17-4.99-1.25-2.11-1.87-4.54-1.87-7.28s.62-5.17,1.87-7.28c1.25-2.11,2.97-3.77,5.17-4.97,2.2-1.2,4.71-1.79,7.51-1.79,2.5,0,4.72.49,6.68,1.48,1.96.99,3.48,2.45,4.55,4.39l-3.8,2.44c-.9-1.35-2-2.35-3.3-2.99-1.3-.64-2.7-.96-4.19-.96-1.8,0-3.42.4-4.84,1.2-1.42.8-2.55,1.92-3.38,3.35s-1.25,3.15-1.25,5.12.42,3.69,1.25,5.15,1.96,2.58,3.38,3.38c1.42.8,3.03,1.2,4.84,1.2,1.49,0,2.89-.32,4.19-.96s2.4-1.64,3.3-2.99l3.8,2.39c-1.07,1.91-2.59,3.37-4.55,4.39-1.96,1.02-4.19,1.53-6.68,1.53Z"/><path class="cls-1" d="m822.14,868.55c-.97,0-1.78-.31-2.42-.94s-.96-1.39-.96-2.29.32-1.72.96-2.34,1.45-.94,2.42-.94,1.78.3,2.42.91c.64.61.96,1.36.96,2.26s-.31,1.72-.94,2.37c-.62.64-1.44.96-2.44.96Zm-2.5,32.86v-27.56h4.99v27.56h-4.99Z"/><path class="cls-1" d="m370.42,963.81v-38.58h4.99v18.36l-.52,6.4.31,6.4v7.44h-4.78Zm14.61.31c-2.36,0-4.48-.53-6.37-1.59-1.89-1.06-3.38-2.63-4.47-4.71s-1.64-4.68-1.64-7.8.56-5.72,1.69-7.8c1.13-2.08,2.63-3.64,4.52-4.68,1.89-1.04,3.98-1.56,6.27-1.56,2.7,0,5.1.59,7.18,1.77,2.08,1.18,3.73,2.82,4.94,4.91,1.21,2.1,1.82,4.55,1.82,7.36s-.61,5.27-1.82,7.38c-1.21,2.12-2.86,3.76-4.94,4.94-2.08,1.18-4.47,1.77-7.18,1.77Zm-.42-4.37c1.77,0,3.35-.4,4.76-1.2,1.4-.8,2.51-1.93,3.33-3.41.81-1.47,1.22-3.18,1.22-5.12s-.41-3.68-1.22-5.12c-.81-1.44-1.92-2.56-3.33-3.35-1.4-.8-2.99-1.2-4.76-1.2s-3.3.4-4.71,1.2c-1.4.8-2.51,1.92-3.33,3.35-.81,1.44-1.22,3.15-1.22,5.12s.41,3.65,1.22,5.12c.81,1.47,1.92,2.61,3.33,3.41,1.4.8,2.97,1.2,4.71,1.2Z"/><path class="cls-1" d="m417.69,964.12c-2.77,0-5.24-.61-7.38-1.82-2.15-1.21-3.85-2.89-5.1-5.02s-1.87-4.55-1.87-7.25.62-5.17,1.87-7.28c1.25-2.11,2.95-3.77,5.1-4.97,2.15-1.2,4.61-1.79,7.38-1.79s5.19.6,7.36,1.79c2.17,1.2,3.87,2.84,5.1,4.94,1.23,2.1,1.85,4.53,1.85,7.31s-.62,5.17-1.85,7.28c-1.23,2.11-2.93,3.78-5.1,4.99-2.17,1.21-4.62,1.82-7.36,1.82Zm0-4.37c1.77,0,3.35-.4,4.76-1.2,1.4-.8,2.5-1.93,3.3-3.41.8-1.47,1.2-3.18,1.2-5.12s-.4-3.68-1.2-5.12c-.8-1.44-1.9-2.56-3.3-3.35s-2.99-1.2-4.76-1.2-3.35.4-4.73,1.2-2.5,1.92-3.33,3.35c-.83,1.44-1.25,3.15-1.25,5.12s.42,3.65,1.25,5.12c.83,1.47,1.94,2.61,3.33,3.41,1.39.8,2.96,1.2,4.73,1.2Zm-3.95-27.51l7.07-6.76h6.34l-8.74,6.76h-4.68Z"/><path class="cls-1" d="m438.91,963.81v-38.58h4.99v38.58h-4.99Z"/><path class="cls-1" d="m465.22,964.12c-2.77,0-5.24-.61-7.38-1.82-2.15-1.21-3.85-2.89-5.1-5.02s-1.87-4.55-1.87-7.25.62-5.17,1.87-7.28c1.25-2.11,2.95-3.77,5.1-4.97,2.15-1.2,4.61-1.79,7.38-1.79s5.19.6,7.36,1.79c2.17,1.2,3.87,2.84,5.1,4.94,1.23,2.1,1.85,4.53,1.85,7.31s-.62,5.17-1.85,7.28c-1.23,2.11-2.93,3.78-5.1,4.99-2.17,1.21-4.62,1.82-7.36,1.82Zm0-4.37c1.77,0,3.35-.4,4.76-1.2,1.4-.8,2.5-1.93,3.3-3.41.8-1.47,1.2-3.18,1.2-5.12s-.4-3.68-1.2-5.12c-.8-1.44-1.9-2.56-3.3-3.35s-2.99-1.2-4.76-1.2-3.35.4-4.73,1.2-2.5,1.92-3.33,3.35c-.83,1.44-1.25,3.15-1.25,5.12s.42,3.65,1.25,5.12c.83,1.47,1.94,2.61,3.33,3.41,1.39.8,2.96,1.2,4.73,1.2Z"/><path class="cls-1" d="m491.48,963.81l-10.24-27.56h4.73l9.1,24.96h-2.24l9.46-24.96h4.21l9.26,24.96h-2.18l9.31-24.96h4.47l-10.3,27.56h-4.78l-8.68-22.78h1.46l-8.79,22.78h-4.78Z"/><path class="cls-1" d="m533.18,974.21c-1.32,0-2.6-.22-3.85-.65-1.25-.43-2.32-1.07-3.22-1.9l2.13-3.74c.69.66,1.46,1.16,2.29,1.51.83.35,1.72.52,2.65.52,1.21,0,2.22-.31,3.02-.94.8-.62,1.54-1.73,2.24-3.33l1.72-3.8.52-.62,10.82-25.01h4.89l-13.36,30.32c-.8,1.94-1.69,3.47-2.68,4.58-.99,1.11-2.07,1.9-3.25,2.37-1.18.47-2.48.7-3.9.7Zm6.55-9.52l-12.58-28.44h5.2l10.71,24.54-3.33,3.9Z"/><path class="cls-1" d="m572.29,964.12c-2.81,0-5.31-.61-7.51-1.82-2.2-1.21-3.93-2.88-5.17-4.99s-1.87-4.54-1.87-7.28.62-5.17,1.87-7.28c1.25-2.11,2.97-3.77,5.17-4.97,2.2-1.2,4.71-1.79,7.51-1.79,2.5,0,4.72.49,6.68,1.48,1.96.99,3.48,2.45,4.55,4.39l-3.8,2.44c-.9-1.35-2-2.35-3.3-2.99-1.3-.64-2.7-.96-4.19-.96-1.8,0-3.42.4-4.84,1.2-1.42.8-2.55,1.92-3.38,3.35-.83,1.44-1.25,3.15-1.25,5.12s.42,3.69,1.25,5.15,1.96,2.58,3.38,3.38c1.42.8,3.03,1.2,4.84,1.2,1.49,0,2.89-.32,4.19-.96,1.3-.64,2.4-1.64,3.3-2.99l3.8,2.39c-1.07,1.91-2.59,3.37-4.55,4.39-1.96,1.02-4.19,1.53-6.68,1.53Z"/><path class="cls-1" d="m604.32,935.99c2.25,0,4.24.43,5.95,1.3,1.72.87,3.06,2.18,4.03,3.95.97,1.77,1.46,4,1.46,6.71v15.86h-4.99v-15.29c0-2.67-.65-4.68-1.95-6.03-1.3-1.35-3.13-2.03-5.49-2.03-1.77,0-3.31.35-4.63,1.04-1.32.69-2.33,1.72-3.04,3.07-.71,1.35-1.07,3.03-1.07,5.04v14.2h-4.99v-38.58h4.99v18.46l-.99-1.98c.9-1.8,2.29-3.21,4.16-4.21,1.87-1,4.06-1.51,6.55-1.51Z"/><path class="cls-1" d="m85.83,540.3c-3.3,0-6.47-.44-9.5-1.33-3.03-.88-5.47-2.04-7.32-3.45l3.25-7.2c1.77,1.26,3.86,2.29,6.28,3.1,2.42.81,4.87,1.21,7.35,1.21,1.89,0,3.41-.19,4.57-.56,1.16-.37,2.01-.89,2.57-1.56.55-.67.83-1.43.83-2.3,0-1.1-.43-1.98-1.3-2.63-.87-.65-2.01-1.18-3.42-1.59s-2.98-.81-4.69-1.18-3.42-.84-5.13-1.39-3.27-1.26-4.69-2.12-2.57-2.01-3.45-3.42-1.33-3.22-1.33-5.43c0-2.36.64-4.51,1.92-6.46s3.21-3.5,5.78-4.66c2.58-1.16,5.81-1.74,9.71-1.74,2.6,0,5.15.3,7.67.91,2.52.61,4.74,1.53,6.67,2.74l-2.95,7.26c-1.93-1.1-3.86-1.92-5.78-2.45-1.93-.53-3.82-.8-5.67-.8s-3.36.22-4.54.65c-1.18.43-2.03.99-2.54,1.68-.51.69-.77,1.49-.77,2.39,0,1.06.43,1.92,1.3,2.57.86.65,2.01,1.17,3.42,1.56,1.42.39,2.98.79,4.69,1.18,1.71.39,3.42.85,5.13,1.36,1.71.51,3.27,1.2,4.69,2.06,1.42.87,2.57,2.01,3.45,3.42.89,1.42,1.33,3.21,1.33,5.37,0,2.32-.65,4.45-1.95,6.37-1.3,1.93-3.24,3.48-5.81,4.66-2.58,1.18-5.83,1.77-9.76,1.77Z"/><path class="cls-1" d="m109.9,539.59v-41.3h9.56v41.3h-9.56Z"/><path class="cls-1" d="m123.83,539.59l18.41-41.3h9.44l18.47,41.3h-10.03l-15.11-36.46h3.78l-15.16,36.46h-9.79Zm9.21-8.85l2.54-7.26h21.24l2.6,7.26h-26.38Z"/><path class="cls-1" d="m174.45,539.59v-41.3h17.88c3.7,0,6.88.6,9.56,1.8,2.67,1.2,4.74,2.92,6.2,5.16,1.46,2.24,2.18,4.92,2.18,8.03s-.73,5.71-2.18,7.94c-1.46,2.22-3.52,3.92-6.2,5.1-2.68,1.18-5.86,1.77-9.56,1.77h-12.57l4.25-4.19v15.7h-9.56Zm9.56-14.63l-4.25-4.48h12.04c2.95,0,5.15-.64,6.61-1.92,1.46-1.28,2.18-3.04,2.18-5.28s-.73-4.05-2.18-5.31c-1.46-1.26-3.66-1.89-6.61-1.89h-12.04l4.25-4.54v23.42Zm16.7,14.63l-10.33-14.99h10.21l10.44,14.99h-10.33Z"/><path class="cls-1" d="m237.59,540.3c-3.19,0-6.15-.52-8.88-1.56-2.74-1.04-5.1-2.53-7.11-4.46-2.01-1.93-3.57-4.19-4.69-6.79s-1.68-5.45-1.68-8.56.56-5.96,1.68-8.56c1.12-2.6,2.69-4.86,4.72-6.79,2.03-1.93,4.4-3.41,7.11-4.46,2.71-1.04,5.68-1.56,8.91-1.56,3.58,0,6.82.62,9.71,1.86,2.89,1.24,5.32,3.06,7.29,5.46l-6.14,5.66c-1.42-1.61-2.99-2.82-4.72-3.63-1.73-.81-3.62-1.21-5.66-1.21-1.93,0-3.7.32-5.31.94-1.61.63-3.01,1.53-4.19,2.71-1.18,1.18-2.09,2.58-2.74,4.19-.65,1.61-.97,3.4-.97,5.37s.33,3.76.97,5.37c.65,1.61,1.56,3.01,2.74,4.19,1.18,1.18,2.58,2.09,4.19,2.71,1.61.63,3.38.94,5.31.94,2.04,0,3.93-.4,5.66-1.21,1.73-.81,3.3-2.04,4.72-3.69l6.14,5.67c-1.97,2.4-4.4,4.23-7.29,5.49-2.89,1.26-6.15,1.89-9.77,1.89Z"/><path class="cls-1" d="m258.42,539.59v-6.2l25.55-30.8,1.18,3.48h-26.26v-7.79h34.75v6.2l-25.49,30.8-1.18-3.48h27.55v7.79h-36.11Z"/><path class="cls-1" d="m295.23,539.59l18.41-41.3h9.44l18.47,41.3h-10.03l-15.11-36.46h3.78l-15.16,36.46h-9.79Zm9.21-8.85l2.54-7.26h21.24l2.6,7.26h-26.38Z"/><path class="cls-1" d="m345.86,539.59v-41.3h7.91l24.37,29.74h-3.83v-29.74h9.44v41.3h-7.85l-24.43-29.74h3.83v29.74h-9.44Z"/><path class="cls-1" d="m430,540.3c-3.19,0-6.15-.52-8.88-1.56-2.74-1.04-5.1-2.53-7.11-4.46-2.01-1.93-3.57-4.19-4.69-6.79s-1.68-5.45-1.68-8.56.56-5.96,1.68-8.56c1.12-2.6,2.69-4.86,4.72-6.79,2.03-1.93,4.4-3.41,7.11-4.46,2.71-1.04,5.68-1.56,8.91-1.56,3.58,0,6.82.62,9.71,1.86,2.89,1.24,5.32,3.06,7.29,5.46l-6.14,5.66c-1.42-1.61-2.99-2.82-4.72-3.63-1.73-.81-3.62-1.21-5.66-1.21-1.93,0-3.7.32-5.31.94-1.61.63-3.01,1.53-4.19,2.71-1.18,1.18-2.09,2.58-2.74,4.19-.65,1.61-.97,3.4-.97,5.37s.33,3.76.97,5.37c.65,1.61,1.56,3.01,2.74,4.19,1.18,1.18,2.58,2.09,4.19,2.71,1.61.63,3.38.94,5.31.94,2.04,0,3.93-.4,5.66-1.21,1.73-.81,3.3-2.04,4.72-3.69l6.14,5.67c-1.97,2.4-4.4,4.23-7.29,5.49-2.89,1.26-6.15,1.89-9.77,1.89Z"/><path class="cls-1" d="m463.04,539.59h-9.56v-41.3h9.56v41.3Zm19.47-16.93h-20.18v-8.08h20.18v8.08Zm-.71-24.37h9.56v41.3h-9.56v-41.3Z"/><path class="cls-1" d="m521.22,540.3c-3.27,0-6.28-.53-9.06-1.59-2.77-1.06-5.17-2.56-7.2-4.48-2.03-1.93-3.6-4.19-4.72-6.79-1.12-2.6-1.68-5.43-1.68-8.5s.56-5.9,1.68-8.5c1.12-2.6,2.7-4.86,4.75-6.79,2.04-1.93,4.45-3.42,7.2-4.48,2.75-1.06,5.74-1.59,8.97-1.59s6.26.53,9,1.59c2.73,1.06,5.11,2.56,7.14,4.48,2.03,1.93,3.61,4.18,4.75,6.76,1.14,2.58,1.71,5.42,1.71,8.53s-.57,5.91-1.71,8.53c-1.14,2.62-2.72,4.88-4.75,6.79-2.03,1.91-4.41,3.39-7.14,4.46-2.73,1.06-5.71,1.59-8.94,1.59Zm-.06-8.14c1.85,0,3.55-.31,5.1-.94,1.55-.63,2.92-1.53,4.1-2.71,1.18-1.18,2.09-2.58,2.74-4.19.65-1.61.97-3.4.97-5.37s-.33-3.76-.97-5.37c-.65-1.61-1.55-3.01-2.71-4.19-1.16-1.18-2.53-2.08-4.1-2.71-1.57-.63-3.29-.94-5.13-.94s-3.55.32-5.1.94c-1.55.63-2.92,1.53-4.1,2.71-1.18,1.18-2.09,2.58-2.74,4.19-.65,1.61-.97,3.4-.97,5.37s.33,3.71.97,5.34c.65,1.63,1.55,3.04,2.71,4.22,1.16,1.18,2.53,2.09,4.1,2.71,1.57.63,3.28.94,5.13.94Z"/><path class="cls-1" d="m550.96,539.59v-41.3h7.91l24.37,29.74h-3.83v-29.74h9.44v41.3h-7.85l-24.43-29.74h3.83v29.74h-9.44Z"/><path class="cls-1" d="m598.63,539.59v-41.3h18.76c4.48,0,8.44.86,11.86,2.57,3.42,1.71,6.1,4.1,8.03,7.17,1.93,3.07,2.89,6.71,2.89,10.92s-.96,7.8-2.89,10.89c-1.93,3.09-4.6,5.49-8.03,7.2-3.42,1.71-7.38,2.57-11.86,2.57h-18.76Zm9.56-7.85h8.73c2.75,0,5.14-.52,7.17-1.56,2.03-1.04,3.6-2.53,4.72-4.46,1.12-1.93,1.68-4.19,1.68-6.79s-.56-4.91-1.68-6.82c-1.12-1.91-2.69-3.38-4.72-4.42-2.03-1.04-4.42-1.56-7.17-1.56h-8.73v25.61Z"/><path class="cls-1" d="m647.37,539.59v-41.3h17.88c3.7,0,6.88.6,9.56,1.8,2.67,1.2,4.74,2.92,6.2,5.16,1.46,2.24,2.18,4.92,2.18,8.03s-.73,5.71-2.18,7.94c-1.46,2.22-3.52,3.92-6.2,5.1-2.68,1.18-5.86,1.77-9.56,1.77h-12.57l4.25-4.19v15.7h-9.56Zm9.56-14.63l-4.25-4.48h12.04c2.95,0,5.15-.64,6.61-1.92,1.46-1.28,2.18-3.04,2.18-5.28s-.73-4.05-2.18-5.31c-1.46-1.26-3.66-1.89-6.61-1.89h-12.04l4.25-4.54v23.42Zm16.7,14.63l-10.33-14.99h10.21l10.44,14.99h-10.33Z"/><path class="cls-1" d="m710.8,540.3c-3.27,0-6.28-.53-9.06-1.59-2.77-1.06-5.17-2.56-7.2-4.48-2.03-1.93-3.6-4.19-4.72-6.79-1.12-2.6-1.68-5.43-1.68-8.5s.56-5.9,1.68-8.5c1.12-2.6,2.7-4.86,4.75-6.79,2.04-1.93,4.45-3.42,7.2-4.48,2.75-1.06,5.74-1.59,8.97-1.59s6.26.53,9,1.59c2.73,1.06,5.11,2.56,7.14,4.48,2.03,1.93,3.61,4.18,4.75,6.76,1.14,2.58,1.71,5.42,1.71,8.53s-.57,5.91-1.71,8.53c-1.14,2.62-2.72,4.88-4.75,6.79-2.03,1.91-4.41,3.39-7.14,4.46-2.73,1.06-5.71,1.59-8.94,1.59Zm-.06-8.14c1.85,0,3.55-.31,5.1-.94,1.55-.63,2.92-1.53,4.1-2.71,1.18-1.18,2.09-2.58,2.74-4.19.65-1.61.97-3.4.97-5.37s-.33-3.76-.97-5.37c-.65-1.61-1.55-3.01-2.71-4.19-1.16-1.18-2.53-2.08-4.1-2.71-1.57-.63-3.29-.94-5.13-.94s-3.55.32-5.1.94c-1.55.63-2.92,1.53-4.1,2.71-1.18,1.18-2.09,2.58-2.74,4.19-.65,1.61-.97,3.4-.97,5.37s.33,3.71.97,5.34c.65,1.63,1.55,3.04,2.71,4.22,1.16,1.18,2.53,2.09,4.1,2.71,1.57.63,3.28.94,5.13.94Z"/><path class="cls-1" d="m740.54,539.59v-41.3h9.56v41.3h-9.56Z"/><path class="cls-1" d="m768.45,539.59v-33.51h-13.22v-7.79h35.99v7.79h-13.22v33.51h-9.56Z"/><path class="cls-1" d="m805.85,539.59v-16.88l2.18,5.78-18.17-30.21h10.15l13.93,23.19h-5.84l13.98-23.19h9.38l-18.17,30.21,2.12-5.78v16.88h-9.56Z"/><path class="cls-1" d="m835.06,539.59v-41.3h7.91l24.37,29.74h-3.83v-29.74h9.44v41.3h-7.85l-24.43-29.74h3.83v29.74h-9.44Z"/><path class="cls-1" d="m893,539.59v-16.88l2.18,5.78-18.17-30.21h10.15l13.93,23.19h-5.84l13.98-23.19h9.38l-18.17,30.21,2.12-5.78v16.88h-9.56Z"/></svg>