<?xml version="1.0" encoding="UTF-8"?><svg id="Warstwa_3" xmlns="http://www.w3.org/2000/svg" viewBox="0 0 211.82 39.03"><defs><style>.cls-1{fill:#fff;}.cls-2{fill:#62a4d8;}</style></defs><path class="cls-1" d="m8.14,26.9c-1.38,0-2.61-.34-3.7-1.02-1.09-.68-1.94-1.67-2.57-2.96s-.94-2.86-.94-4.7.31-3.41.94-4.7c.62-1.3,1.48-2.28,2.57-2.96,1.09-.68,2.32-1.02,3.7-1.02s2.63.34,3.71,1.02c1.08.68,1.93,1.67,2.56,2.96.62,1.3.94,2.86.94,4.7s-.31,3.41-.94,4.7-1.48,2.28-2.56,2.96c-1.08.68-2.32,1.02-3.71,1.02Zm0-3.29c.66,0,1.23-.18,1.72-.55s.87-.95,1.15-1.75.42-1.83.42-3.1-.14-2.29-.42-3.1c-.28-.8-.66-1.38-1.15-1.75s-1.06-.55-1.72-.55-1.2.18-1.69.55c-.49.37-.87.95-1.15,1.75-.28.8-.42,1.83-.42,3.1s.14,2.3.42,3.1c.28.8.66,1.38,1.15,1.75.49.37,1.05.55,1.69.55Z"/><path class="cls-1" d="m17.06,30.3l1.58-5.76.53,2.16c-.69,0-1.25-.2-1.69-.6-.44-.4-.66-.95-.66-1.66s.22-1.26.67-1.68,1-.62,1.66-.62,1.22.21,1.66.64c.43.42.65.98.65,1.67,0,.21-.02.41-.05.61s-.09.44-.18.72c-.09.28-.23.64-.42,1.07l-1.37,3.46h-2.38Z"/><path class="cls-1" d="m23.02,23.08v-2.62l7.92-10.66h4.08l-7.75,10.66-1.9-.55h13.22v3.17h-15.58Zm9.05,3.53v-3.53l.12-3.17v-3.14h3.67v9.84h-3.79Z"/><path class="cls-1" d="m39.55,23.08v-2.62l7.92-10.66h4.08l-7.75,10.66-1.9-.55h13.22v3.17h-15.58Zm9.05,3.53v-3.53l.12-3.17v-3.14h3.67v9.84h-3.79Z"/><path class="cls-2" d="m109.68,24.73v-11.2h1.71l4.9,8.18h-.9l4.82-8.18h1.71l.02,11.2h-1.97l-.02-8.11h.42l-4.1,6.83h-.93l-4.16-6.83h.48v8.11h-1.98Z"/><path class="cls-2" d="m123.38,24.73l5.04-11.2h2.05l5.06,11.2h-2.18l-4.34-10.1h.83l-4.32,10.1h-2.14Zm2.32-2.59l.56-1.63h6.05l.56,1.63h-7.17Z"/><path class="cls-2" d="m136.24,20.97l-.85-1.1,5.52-4.18.85,1.09-5.52,4.19Zm.86,3.76v-11.2h2.08v9.44h5.86v1.76h-7.94Z"/><path class="cls-2" d="m148.27,24.73v-4.43l.46,1.28-4.86-8.05h2.22l3.9,6.48h-1.25l3.94-6.48h2.05l-4.86,8.05.48-1.28v4.43h-2.08Z"/><path class="cls-2" d="m162.59,22.99h6.32v1.74h-8.4v-11.2h8.18v1.74h-6.1v7.71Zm-.16-4.8h5.57v1.71h-5.57v-1.71Z"/><path class="cls-2" d="m173.31,24.73h-2.08v-11.2h8.18v1.74h-6.1v9.46Zm-.18-6.05h5.58v1.76h-5.58v-1.76Z"/><path class="cls-2" d="m183.5,22.99h6.32v1.74h-8.4v-11.2h8.18v1.74h-6.1v7.71Zm-.16-4.8h5.57v1.71h-5.57v-1.71Z"/><path class="cls-2" d="m192.14,24.73v-11.2h2.08v11.2h-2.08Zm1.86-2.64l-.11-2.46,5.87-6.1h2.34l-4.88,5.18-1.15,1.26-2.06,2.11Zm5.95,2.64l-4.29-5.1,1.38-1.52,5.34,6.62h-2.43Z"/><path class="cls-2" d="m205.36,24.73v-9.44h-3.71v-1.76h9.5v1.76h-3.71v9.44h-2.08Z"/><path class="cls-1" d="m96.02,20.37l-9.65,10.84c-.35.38-.75.68-1.19.88-.45.21-.92.31-1.42.31-.94,0-1.74-.31-2.38-.93s-.97-1.38-.97-2.29c0-.5.1-.97.29-1.43.19-.46.47-.87.83-1.23l2.63-2.63h-17.25c-.98,0-1.81-.34-2.49-1.01-.68-.67-1.01-1.51-1.01-2.52s.34-1.81,1.01-2.49,1.51-1.02,2.49-1.02h17.25l-2.63-3.02c-.37-.4-.65-.81-.84-1.24s-.28-.85-.28-1.28c0-.81.33-1.51,1-2.1.66-.59,1.45-.88,2.36-.88.51,0,.99.11,1.44.32s.84.5,1.16.88l9.65,10.82Z"/></svg>