<svg xmlns="http://www.w3.org/2000/svg" viewBox="0 0 40 40"><defs><style>.cls-1{fill:#60a1d8;}.cls-2{fill:#1c3e7a;}</style></defs><title>obrazek_1</title><g id="Warstwa_1" data-name="Warstwa 1"><path class="cls-1" d="M17.3,25l.16,0,.08,0,.14.24,0,.08v.1l0,.1,0,.05,0,0a.54.54,0,0,0-.28,0l-.13,0a3.05,3.05,0,0,1-.56.15h-.05l-.06,0-.05,0,0-.06,0-.19v-.07c.17-.17.37-.07.5-.11h0l.09,0,.08-.07.07-.09Z"/><path class="cls-1" d="M18.6,24.45l0-.07.08-.08.06-.05.06,0h.07l.06,0a.84.84,0,0,1,.18.38l0,.1c.24.44-.42.18-.64.38l-.06,0,0,0-.11,0,0,0-.11.14,0,0c-.19.12-.34-.08-.36-.24l0-.07c-.11-.28,0-.48.39-.43h.14l.05,0,.2-.13Z"/><path class="cls-1" d="M20.46,23.71l.24-.1.24-.11.21-.17.1-.09.11-.09h.15c.2.2,0,.51.23.73l0,.05,0,.1-.12.21-.05,0-.07,0h-.45a.88.88,0,0,0-.29.06l-.09,0c-.19.06-.39.11-.61.19l-.1,0-.1.06a.58.58,0,0,1-.49.12.45.45,0,0,1-.19-.63l.08-.08.12,0h.12a3.9,3.9,0,0,0,.78-.22Z"/><path class="cls-1" d="M24.36,22l.15-.21,0-.06a.44.44,0,0,1,.3-.32l.08,0c.29-.21.54.07.8.18l.08,0c.32.11.12.56-.13.69l-.09,0c-.44.24-.95.25-1.36.5l-.13.07a3.74,3.74,0,0,1-.58.33l-.12.07c-.2.18-.46.28-.67.47l-.12.07-.25.1-.13,0a.5.5,0,0,1-.4-.69l.08-.13a11.78,11.78,0,0,1,1.41-.54l.14-.07c.23-.11.45-.23.68-.36l.15-.1Z"/><path class="cls-1" d="M14.64,22.79l.08,0c.13-.05.36-.14.4.06v.09l0,.08,0,.16v.08c.06.39-.41.14-.6.15s-.55.22-.81.07l-.09-.08v-.21l.09-.11A.39.39,0,0,1,14,23a1.25,1.25,0,0,0,.6-.16"/><path class="cls-1" d="M16.09,22.56l.1,0c.2-.07.38-.16.58-.24l.08,0,.23-.1h.07l.05.07,0,.08,0,.08,0,.08c.19.27.14.72-.25.7l-.1,0h-.31a1.17,1.17,0,0,0-.84.17l-.06,0-.07,0c-.19.07-.31,0-.35-.14l0-.08c.06-.18-.09-.28,0-.43s.26-.16.43-.16H16Z"/><path class="cls-1" d="M19,22l.21,0c.24,0,.44-.2.67-.26l.07,0c.17-.06.39-.2.59-.08l.05,0c.06.06.07.15,0,.31l0,.06,0,.06v.07a2.52,2.52,0,0,1,.17.44c0,.15-.15.2-.3.17H20.3l-.07,0-.08,0a2.73,2.73,0,0,0-.64,0,5.81,5.81,0,0,0-.72,0l-.27,0h-.08l-.16,0-.15,0-.08,0a.5.5,0,0,1-.59-.07l0-.06,0-.23,0-.08c0-.12,0-.31.07-.39s.38,0,.51,0a2.17,2.17,0,0,0,.44,0c.2,0,.41,0,.62,0"/><path class="cls-1" d="M22.35,21.45a2,2,0,0,0,.34,0l.4-.18a5.77,5.77,0,0,0,.81-.34,1.08,1.08,0,0,1,.8-.24l.11,0a.45.45,0,0,1,.39.3.66.66,0,0,1-.17.33l-.1.07a1.66,1.66,0,0,1-.8.16,1.9,1.9,0,0,0-.81.17c-.27.12-.55.17-.81.29l-.09,0a4.46,4.46,0,0,1-1.17.49h-.12a.31.31,0,0,1-.28-.09.49.49,0,0,1,0-.66l.11-.09a2.06,2.06,0,0,1,1.11-.16l.12,0Z"/><path class="cls-1" d="M13.2,20.13a.65.65,0,0,0,.27-.08c.1-.07.28-.21.37-.05s0,.28,0,.4,0,.3-.09.37h-.08a1.52,1.52,0,0,0-.87-.07h-.09a.31.31,0,0,1-.34-.26l0-.08c0-.27.26-.38.48-.27h.33Z"/><path class="cls-1" d="M14.83,20a1.24,1.24,0,0,0,.51,0,3.12,3.12,0,0,0,.43-.15c.41-.16.32.31.37.56s.1.36-.05.47l-.35,0a1.79,1.79,0,0,0-.4-.09,3.12,3.12,0,0,0-.75,0,1.67,1.67,0,0,1-.44.06c-.28,0-.24-.33-.23-.53l0-.08,0-.08a.3.3,0,0,1,.32-.21h.09l.46.08"/><path class="cls-1" d="M18.05,20a2.53,2.53,0,0,0,1-.05,1.24,1.24,0,0,1,.44-.11h.1l.07,0c.15.11.13.28.1.46l0,.11c-.08.21,0,.36,0,.57l-.05.06c-.24.22-.62-.07-.85-.16a1.7,1.7,0,0,0-.55-.13c-.19,0-.37,0-.56,0a8.51,8.51,0,0,0-1,0,.46.46,0,0,1-.57-.37v-.1a.49.49,0,0,1,.37-.47,1.35,1.35,0,0,1,.49.07,4.51,4.51,0,0,0,.82,0Z"/><path class="cls-1" d="M22.24,20A15.45,15.45,0,0,0,24,19.71c.23-.05.68-.27.91-.14l.07,0,.06.07,0,.09a.9.9,0,0,0,0,.28v.1c.09.34-.07.47-.29.49h-.15a7.22,7.22,0,0,0-3,.22A2.57,2.57,0,0,1,20,21L20,20.93l-.07-.1,0-.13v-.19l0-.07,0-.09c.09-.24.44-.19.6-.38l.09,0a.89.89,0,0,1,.46,0l.16,0a4.45,4.45,0,0,0,1,0"/><path class="cls-1" d="M13.91,17.32a1.24,1.24,0,0,0,.33,0c.09,0,.18-.11.28-.11s.12.25.11.34,0,.39-.1.45-.23,0-.32-.06a.91.91,0,0,0-.43-.1.4.4,0,0,1-.37-.14l-.05-.25c.05-.11.22-.09.31-.09Z"/><path class="cls-1" d="M15.54,17.35h.08a1.11,1.11,0,0,0,.48,0l.06,0,.13,0,.08,0c.22.08.2.37.08.63s0,.25-.09.35-.29-.09-.38-.14a1.74,1.74,0,0,0-.75-.11.8.8,0,0,1-.46-.06.38.38,0,0,1-.11-.37c0-.25.18-.32.41-.31l.47.05"/><path class="cls-1" d="M18.18,17.72a2.66,2.66,0,0,0,.39.07h.08c.22,0,.43-.12.69-.11h.09c.15,0,.28,0,.32.16l0,.09v.18l-.05.21,0,.08c0,.18.06.36-.09.52s-.41.15-.64,0a3,3,0,0,0-.9-.43,5,5,0,0,0-.66-.08l-.29,0h-.3l-.26-.12a.8.8,0,0,1,.07-.6c.11-.24.32-.19.54-.15s.69.1,1,.19"/><path class="cls-1" d="M22.07,18.36a9.82,9.82,0,0,0,1.8,0l.14,0,.12,0,.13-.06c.23-.09.54-.29.79,0a.62.62,0,0,1,.1.36v.13c0,.27.05.57-.15.73s-.51,0-.78-.11a6.37,6.37,0,0,0-2.17-.3h-.16a3.77,3.77,0,0,0-1.3.07l-.15,0a.8.8,0,0,1-.58-.11l-.08-.11a.62.62,0,0,1,.36-.77.85.85,0,0,1,.63,0l.14,0a6.27,6.27,0,0,0,1.16.23"/><path class="cls-1" d="M18.76,14.64a1.7,1.7,0,0,0,.71,0c.12,0,.29-.07.37.05s-.06.25-.13.33a.43.43,0,0,0-.13.36c0,.37-.35.16-.51,0a1.55,1.55,0,0,0-.38-.21c-.25-.09-.67-.14-.67-.5s.43-.25.62-.15l0,0Z"/><path class="cls-1" d="M21.24,15.21a2.1,2.1,0,0,0,.75.06.4.4,0,0,1,.42.15l0,.12a1.1,1.1,0,0,0-.28.82l-.18.13-.12,0a2,2,0,0,1-.7-.46,1.5,1.5,0,0,0-.92-.26.53.53,0,0,1-.33-.13l-.05,0,0-.05,0-.13v-.17l0-.14L19.9,15l.07-.08c.38-.35.88.21,1.27.32"/><path class="cls-1" d="M23,15.49h.21c.18.11.33.25.51.35a6.51,6.51,0,0,1,.73.41,2.09,2.09,0,0,0,.87.46l.08,0a.67.67,0,0,1,.37.27l.05.08,0,.09.05.08v.19l0,.09a.56.56,0,0,1-.22.24l-.08.05a.65.65,0,0,1-.56,0c-.18-.07-.26-.24-.37-.39a2,2,0,0,0-.29-.29,2.25,2.25,0,0,0-.88-.49h-.3c-.31,0-.81,0-.75-.49v-.09c0-.22,0-.42.18-.54l.11,0h.16l.07,0Z"/><path class="cls-1" d="M26.57,21.37a.4.4,0,0,1,.27.47l-.07,0c-.1,0-.3.05-.4,0l-.06-.06,0-.11a.38.38,0,0,1,.2-.27l.08,0Z"/><path class="cls-1" d="M27.12,20.88l.15,0a.66.66,0,0,1,.39.38.33.33,0,0,1-.32.45c-.33,0-.94-.35-.54-.68a.61.61,0,0,1,.32-.18"/><path class="cls-1" d="M25.54,20.52l.23-.05a1.63,1.63,0,0,1,.49,0h.08c.22,0,.68,0,.63.36l0,.07c-.14.15-.33.27-.49.42l-.07.07c-.15.16-.3.3-.54.22a.84.84,0,0,1-.44-.39.6.6,0,0,1,0-.54Z"/><path class="cls-1" d="M26.42,19.33c.31,0,.63-.06.79.21a1,1,0,0,1,0,.6.42.42,0,0,1-.4.32l-.11,0h-.08a.78.78,0,0,0-.34,0H26c-.25,0-.51.12-.72-.07l0-.06c0-.21-.1-.41.09-.62a.83.83,0,0,1,.62-.23c.15,0,.32-.05.51-.08"/><path class="cls-1" d="M27.6,19.86c.18,0,.39.09.44.3l0,.08a.53.53,0,0,1,0,.33l0,.08c-.12.27-.32.47-.56.27l-.06,0-.06,0-.13-.11A1,1,0,0,1,27.3,20l.1-.11.14-.07Z"/><path class="cls-1" d="M27.34,19.74l.09,0,.1,0a.27.27,0,0,0,.38-.21.79.79,0,0,0-.29-.77c-.32-.32-.72-.77-1.14-.32l-.06.06c-.16.15-.36.35-.31.55s.36.15.55.13h.2c.21.06.52.21.48.44Z"/><path class="cls-1" d="M26,17.58c.36-.06.53.48.46.75s-.28.28-.35.47,0,.28-.13.4a.56.56,0,0,1-.39.19c-.28,0-.4-.09-.38-.35a1.93,1.93,0,0,0,0-.48c0-.15-.11-.32-.06-.47s.31-.2.47-.18l.19-.13.12-.18Z"/><path class="cls-1" d="M31.17,22.24h.63a5.07,5.07,0,0,1,.57,0v-.9c-.33,0-.66,0-1,0h0a7,7,0,0,1-1.44-.15,3.31,3.31,0,0,1-.85-.4l-.14-.08-.13-.06h-.12l-.14,0-.14.07c-.3.21.1.61,0,.91l-.05.15-.08.16c-.12.15,0,.25.17.3.39.12.85-.11,1.25-.13s1,0,1.51,0"/><path class="cls-1" d="M29.47,20.52l.15-.05a1.7,1.7,0,0,1,.42-.1l.17,0,.15,0,.37-.06.13,0a1.4,1.4,0,0,1,.61,0l.16,0a3.67,3.67,0,0,0,.74,0V19a17.23,17.23,0,0,1-2.15-.23l-.12,0c-.29-.14-.5-.5-.91-.53l-.28-.08a1.8,1.8,0,0,0-1.17,0l-.08.07-.08.1c-.13.21.1.42.27.67l.1.15a1.6,1.6,0,0,1,.23.45l0,.12a1,1,0,0,1,0,.49l0,.17c0,.28.06.63.41.53s.56-.2.88-.29"/><path class="cls-1" d="M20.19,5.94A14.52,14.52,0,1,0,34.71,20.45,14.51,14.51,0,0,0,20.19,5.94m0,26A11.45,11.45,0,1,1,31.64,20.45,11.44,11.44,0,0,1,20.19,31.9"/><path class="cls-2" d="M20.38,4.69v5.59a10.19,10.19,0,0,1,10,9.54h5.6A15.78,15.78,0,0,0,20.38,4.69"/><polygon class="cls-1" points="28.4 16.39 32.96 15.06 33.22 15.76 38.56 13.06 33.96 14.27 33.66 13.55 28.4 16.39"/><polygon class="cls-1" points="27.7 16.26 31.14 11.56 31.92 12.04 35.1 5.41 31.52 10.03 30.69 9.56 27.7 16.26"/><polygon class="cls-1" points="27.19 15.76 27.39 11.02 28.14 10.99 27.29 5.07 26.96 9.81 26.18 9.87 27.19 15.76"/></g></svg>