<svg xmlns="http://www.w3.org/2000/svg" viewBox="0 0 40 40"><defs><style>.cls-1{fill:#fff;}.cls-2{fill:#60a1d8;}</style></defs><title>obrazek_5</title><g id="Warstwa_1" data-name="Warstwa 1"><path class="cls-1" d="M24.8,22.09a12,12,0,0,0-.46-1.79,2.11,2.11,0,0,0-.94-1.25c-.64-.29-1.13.14-1.63.48a.74.74,0,0,1-1,0l.12-.09a.34.34,0,0,0,.08-.29h0a3.45,3.45,0,0,0-.22-.64,2.17,2.17,0,0,0-1.48-1.19,2.39,2.39,0,0,0-.53-.06,3,3,0,0,0-2.24,1,2.59,2.59,0,0,0-.2,3,2.3,2.3,0,0,0,1,.85,3,3,0,0,0,.52.2,3,3,0,0,0,.52.1h.21a.37.37,0,0,0,.28-.13l.07-.2a1.19,1.19,0,0,1,.51.32,3.59,3.59,0,0,1,.8,1.76,11.59,11.59,0,0,1,.09,3c-.07,1-.1,2.11-.24,3.15h.7c.14-1.14.19-2.3.26-3.45a10.32,10.32,0,0,0-.22-3.28,3.54,3.54,0,0,0-1.14-1.94,1.56,1.56,0,0,0-.87-.33,1.86,1.86,0,0,1,.37-1.24,1.61,1.61,0,0,1,.84-.58,1.6,1.6,0,0,0,.75.68,1.69,1.69,0,0,0,1.78-.42c.2-.14.42-.29.66-.16a1.32,1.32,0,0,1,.43.63,8.56,8.56,0,0,1,.49,1.8,5.1,5.1,0,0,1,0,2.2,18.94,18.94,0,0,1-.83,2.44,14.7,14.7,0,0,0-.74,3.65h.71a15.65,15.65,0,0,1,.79-3.7,16.19,16.19,0,0,0,.8-2.44,6,6,0,0,0-.07-2.2M19.92,18.8h-.06a2.32,2.32,0,0,0-1.31.87A2.51,2.51,0,0,0,18,21.4h0v.21h-.11a2.74,2.74,0,0,1-.4-.15,1.71,1.71,0,0,1-.68-.6A1.88,1.88,0,0,1,17,18.64a2.33,2.33,0,0,1,1.71-.87,1.09,1.09,0,0,1,.36,0,1.46,1.46,0,0,1,1,.81l.06.13Z"/><path class="cls-1" d="M12.59,19.94a9.62,9.62,0,0,0,1.81-1.85A2.89,2.89,0,0,0,14.07,14l-.32-.23A9.26,9.26,0,0,0,10.24,12v.73a9.22,9.22,0,0,1,1.94.83,5,5,0,0,1,2,1.88,2.1,2.1,0,0,1-.22,2,9.45,9.45,0,0,1-3.56,3.11l-.16.09v.77h0A10.48,10.48,0,0,0,12.52,20"/><path class="cls-1" d="M17.33,22.6A3.18,3.18,0,0,1,15.65,21a1.73,1.73,0,0,1-.11-.32,2.88,2.88,0,0,1,.5-2.62,3.35,3.35,0,0,1,.81-.74l.31-.19A3.7,3.7,0,0,1,19.8,17c.2,0,.3-.11.27-.22-.12-.34-.36-.49-.51-.93a2,2,0,0,1-.09-.35,3.64,3.64,0,0,1,.18-1.85A23,23,0,0,1,20.81,11a6.11,6.11,0,0,0,.66-2.55,3.81,3.81,0,0,0-.86-2.24h-.89l.06.1a3.37,3.37,0,0,1,1,2.6,7.82,7.82,0,0,1-.94,2.56C19.12,13,18.39,14.6,19,16.16a3.84,3.84,0,0,0-.48,0,4,4,0,0,0-3,1.54,3.57,3.57,0,0,0-.33,4,4.61,4.61,0,0,0-3.27.24c-.38.2-.79.53-1.22.77l-.23.11-.17.07v.72a4.49,4.49,0,0,0,.2,1.71,1.76,1.76,0,0,0,2,.9,2.71,2.71,0,0,0,1.59-1.54,4.35,4.35,0,0,0,.33-1,6.84,6.84,0,0,0,0-1.43,7.53,7.53,0,0,1,1.22.31l.24.09c.58.38.47.61.38,1.09,0,.12,0,.24-.07.36a5.59,5.59,0,0,1-.26.72,16.38,16.38,0,0,0-.49,1.79,1.84,1.84,0,0,1-1,.94,11.33,11.33,0,0,1-1.54.72,1.51,1.51,0,0,1-.46.13,1.32,1.32,0,0,1-.57-.28A13.8,13.8,0,0,1,10.4,26.8l-.14-.13v1A7.46,7.46,0,0,0,11.86,29a1.58,1.58,0,0,0,1.45-.08c1-.42,2.45-1,2.8-2.14.09-.3.12-.63.18-.94a6.52,6.52,0,0,1,.46-1.28l.1-.26.07-.26c0-.73.7-1,.58-1.2s-.06-.13-.18-.18M13.55,24a2.58,2.58,0,0,1-1,1.38A1,1,0,0,1,11.18,25a.72.72,0,0,1-.09-.2A5.79,5.79,0,0,1,11,23.22c.18-.1.45-.25.62-.36a3.9,3.9,0,0,1,2.08-.73h0c0,.34,0,.67,0,1a3,3,0,0,1-.19.88"/><path class="cls-2" d="M20.73,3.67A15.89,15.89,0,1,0,36.62,19.56,15.88,15.88,0,0,0,20.73,3.67h0m0,28.42A12.53,12.53,0,1,1,33.26,19.56h0A12.53,12.53,0,0,1,20.73,32.09"/><path class="cls-1" d="M21.91,2.37V8.43A11,11,0,1,1,9.54,20h-6A17,17,0,1,0,21.91,2.37"/></g></svg>