<svg id="Warstwa_1" data-name="Warstwa 1" xmlns="http://www.w3.org/2000/svg" viewBox="0 0 363.26 57.77"><defs><style>.cls-1{fill:#61a2d8;}.cls-2{fill:#0a59a4;}.cls-3{fill:#fff;}.cls-4{fill:#e42629;}</style></defs><title>Structum_logo</title><rect class="cls-1" x="0.45" y="50.89" width="105.01" height="5.35"/><rect class="cls-2" x="257.83" y="50.89" width="105.01" height="5.35"/><path class="cls-3" d="M246.54,15.05a1.39,1.39,0,0,1-.8.19h-.59V13.66h.64a1.25,1.25,0,0,1,.74.19.79.79,0,0,1,0,1.2M248,17.78h0a6.93,6.93,0,0,0-.6-1.09,1.72,1.72,0,0,0-.7-.59,2.26,2.26,0,0,0,1.05-.52,1.55,1.55,0,0,0,.46-1.23,1.64,1.64,0,0,0-.54-1.36,2.32,2.32,0,0,0-1.46-.42h-2.47v6.29h1.39V16.35a1,1,0,0,1,.48.11,2.44,2.44,0,0,1,.51.73c.21.41.47,1,.77,1.67h1.62Zm1.69.3h0a4.43,4.43,0,0,1-1.51,1.72,3.68,3.68,0,0,1-2.1.64A3.63,3.63,0,0,1,244,19.8a4.38,4.38,0,0,1-1.52-1.72,5.15,5.15,0,0,1-.56-2.38,5.21,5.21,0,0,1,.33-1.84,4.85,4.85,0,0,1,.9-1.51,4.28,4.28,0,0,1,1.34-1,3.74,3.74,0,0,1,3.2,0,4.27,4.27,0,0,1,1.35,1,4.88,4.88,0,0,1,.9,1.51,5.23,5.23,0,0,1,.32,1.84,5.17,5.17,0,0,1-.56,2.37m1.16-4.67h0a5.84,5.84,0,0,0-1.11-1.87,5.19,5.19,0,0,0-1.66-1.25,4.61,4.61,0,0,0-2-.45,4.55,4.55,0,0,0-2,.45,5.34,5.34,0,0,0-1.67,1.26,6,6,0,0,0-1.12,1.88,6.34,6.34,0,0,0-.4,2.27,6.44,6.44,0,0,0,.69,2.95,5.46,5.46,0,0,0,1.89,2.14,4.64,4.64,0,0,0,5.18,0,5.46,5.46,0,0,0,1.89-2.14,6.28,6.28,0,0,0,.7-2.94,6.47,6.47,0,0,0-.41-2.3m-12.73,9.27h0a18.07,18.07,0,0,0-1-6.31,8,8,0,0,0-3-4,8.8,8.8,0,0,0-5-1.38,10,10,0,0,0-5.33,1.41,17,17,0,0,0-4.47,4.18A8.88,8.88,0,0,0,217.83,14a7.23,7.23,0,0,0-2-1.78,8.09,8.09,0,0,0-2.29-.92,10.67,10.67,0,0,0-2.44-.27,10.12,10.12,0,0,0-4.8,1.1,14.08,14.08,0,0,0-4.08,3.53V11.46h-8.93V40.11h8.93V23.35c.13-.18.45-.64.94-1.37a15.6,15.6,0,0,1,1.25-1.66,5.39,5.39,0,0,1,1.35-1,3.71,3.71,0,0,1,1.81-.45,3,3,0,0,1,2.88,1.57,9.9,9.9,0,0,1,.81,4.45V40.11h8.94V23.35a20.9,20.9,0,0,1,2.36-3.21,4,4,0,0,1,3-1.27,3,3,0,0,1,2.77,1.5,9.24,9.24,0,0,1,.87,4.52V40.11h8.94ZM187.62,11.46h-8.93V28.31a21.67,21.67,0,0,1-2.33,3.24,3.92,3.92,0,0,1-3.08,1.26,2.82,2.82,0,0,1-3-1.76,11.4,11.4,0,0,1-.68-4.1V11.46h-8.93V28.31a20.92,20.92,0,0,0,1.68,8.56q1.68,3.8,7.4,3.79a10.15,10.15,0,0,0,5-1.14,13.85,13.85,0,0,0,3.94-3.46v4h8.93ZM157.14,30.57h0a12.12,12.12,0,0,1-5.59,2,3.8,3.8,0,0,1-2.44-.66,2.68,2.68,0,0,1-1-1.65,16.1,16.1,0,0,1-.17-2.58V18.54h8.51V11.46H148V3h-1l-12,13.8v1.78h4V30q0,10.7,9.63,10.69a16.71,16.71,0,0,0,4.66-.71,18.72,18.72,0,0,0,3.83-1.46Zm-24.2.28h0c-1.63.57-3,1-4.16,1.3a12,12,0,0,1-3,.45,6.17,6.17,0,0,1-2.82-.73,5.79,5.79,0,0,1-2.32-2.29,7.4,7.4,0,0,1-.92-3.82q0-3.42,1.84-5.05a6.23,6.23,0,0,1,4.22-1.63,21.79,21.79,0,0,1,6.81,1.58v-8A25.56,25.56,0,0,0,129,11.47a18.86,18.86,0,0,0-4.55-.45,14.43,14.43,0,0,0-7,1.58A11.82,11.82,0,0,0,113,16.51a15.36,15.36,0,0,0-2.11,4.83,18.77,18.77,0,0,0-.61,4.42,19.74,19.74,0,0,0,.59,4.41A16,16,0,0,0,113,35.08a12.12,12.12,0,0,0,4.4,4,14.22,14.22,0,0,0,7,1.59,19.71,19.71,0,0,0,3.38-.27,18.56,18.56,0,0,0,2.78-.68c.82-.27,1.61-.56,2.35-.88ZM105.78,11.46H96.84V28.31a21.67,21.67,0,0,1-2.32,3.24,4,4,0,0,1-3.09,1.26,2.8,2.8,0,0,1-3-1.76A11.4,11.4,0,0,1,87.8,27V11.46H78.86V28.31a20.92,20.92,0,0,0,1.68,8.56c1.13,2.53,3.59,3.79,7.4,3.79a10.13,10.13,0,0,0,5-1.14,13.85,13.85,0,0,0,3.94-3.46v4h8.94Zm-31.3.07h0A6.34,6.34,0,0,0,71.84,11a6.45,6.45,0,0,0-5,2.44,14.65,14.65,0,0,0-3,5v-7H54.94V40.11h8.94V27.83a14.5,14.5,0,0,1,2.63-5.34,4.34,4.34,0,0,1,3.25-1.44,5.72,5.72,0,0,1,4.11,2.19l3.29-10.16a19,19,0,0,0-2.68-1.55M51,30.57h0q-3.47,2-5.59,2A3.8,3.8,0,0,1,43,31.94a2.73,2.73,0,0,1-1-1.65,16.1,16.1,0,0,1-.17-2.58V18.54h8.51V11.46H41.86V3h-1l-12,13.8v1.78h4V30q0,10.7,9.63,10.69A16.82,16.82,0,0,0,47.22,40,18.6,18.6,0,0,0,51,38.49ZM24.36,23.36h0a13.3,13.3,0,0,0-3.73-3.88,58.29,58.29,0,0,0-6.34-3.79,14.18,14.18,0,0,1-3.08-2,2.66,2.66,0,0,1-.86-2,2.76,2.76,0,0,1,.86-2.07A3.92,3.92,0,0,1,14,8.73a11.73,11.73,0,0,1,5.52,1.35,27.47,27.47,0,0,1,4.69,3.06V4A14.9,14.9,0,0,0,22,2.74a20.61,20.61,0,0,0-4-1.43A20.8,20.8,0,0,0,12.69.67,14.23,14.23,0,0,0,5.85,2.19,9.85,9.85,0,0,0,1.69,6.26,11.71,11.71,0,0,0,.32,12a11.24,11.24,0,0,0,1.36,5.66,12.63,12.63,0,0,0,3.49,4,29.61,29.61,0,0,0,5,2.94A18,18,0,0,1,14,26.76a3.29,3.29,0,0,1,1.34,2.65,3.08,3.08,0,0,1-.78,1.86c-.53.67-1.67,1-3.44,1a12.27,12.27,0,0,1-5.4-1.21A35.68,35.68,0,0,1,.62,28v9.54A29.73,29.73,0,0,0,6,39.65a27,27,0,0,0,4.12.86q1.55.15,2.61.15a15.52,15.52,0,0,0,6.77-1.42,10.68,10.68,0,0,0,4.6-4.08,11.75,11.75,0,0,0,1.65-6.31,10.34,10.34,0,0,0-1.35-5.49"/><path class="cls-4" d="M356.7,41.82a2.43,2.43,0,0,1,1.55,2.12A2.25,2.25,0,0,1,357,46a6.77,6.77,0,0,1-3.46.73c-3.16,0-4.74-1-4.74-2.89a2.39,2.39,0,0,1,1.09-2,4.54,4.54,0,0,1,2.78-.79,8.56,8.56,0,0,1,4,.82m-.83-16.15h0a3.29,3.29,0,0,1,1,2.42,3.25,3.25,0,0,1-.95,2.4,3.31,3.31,0,0,1-5.69-2.36,3.38,3.38,0,0,1,1-2.42,3.06,3.06,0,0,1,2.32-1,3.23,3.23,0,0,1,2.4,1m-5,8.14h0a4.36,4.36,0,0,0-2,1.07,2.28,2.28,0,0,0-.72,1.63q0,1.17,1.71,2.37c-2.88.73-4.33,2.36-4.33,4.9a5,5,0,0,0,2.18,4.27,9.72,9.72,0,0,0,5.84,1.6,9.54,9.54,0,0,0,5.78-1.59,5,5,0,0,0,2.16-4.24,4.78,4.78,0,0,0-1.23-3.37,5.13,5.13,0,0,0-1.63-1.22,25.55,25.55,0,0,0-4-1.18,10.79,10.79,0,0,1-2.56-.86,1.22,1.22,0,0,1-.71-1.07c0-.76.62-1.24,1.85-1.44a11.28,11.28,0,0,0,3.93-1.2,5.62,5.62,0,0,0,2-2.15,6,6,0,0,0,.76-2.86,5.25,5.25,0,0,0-.39-2.08,7.56,7.56,0,0,0-1.39-2h3.47V21.48h-7a8.07,8.07,0,0,0-5.46,1.73,5.91,5.91,0,0,0-2,4.71,6.12,6.12,0,0,0,3.77,5.89m-14.28-9.49h0a2.87,2.87,0,0,1,2.5,1.23A6,6,0,0,1,340,29.1v11h3.37v-11q0-4.06-1.6-6.05a5,5,0,0,0-4.09-2q-3,0-5.67,3.37-1.78-3.37-5-3.37c-1.65,0-3.33.94-5.06,2.82V21.48h-3.38V40.11h3.38V26.57a9.08,9.08,0,0,1,2-1.84,3.81,3.81,0,0,1,2-.52,2.88,2.88,0,0,1,2.66,1.22,8.73,8.73,0,0,1,.77,4.32V40.11h3.38V26.57a5.1,5.1,0,0,1,3.92-2.25M310.22,18.2h0a21,21,0,0,1,1.2,7.85,19.87,19.87,0,0,1-1.25,7.77c-.83,1.91-2,2.86-3.4,2.86s-2.57-1-3.39-2.86a20.51,20.51,0,0,1-1.22-7.89,19.8,19.8,0,0,1,1.25-7.79q1.26-2.86,3.4-2.87H307q2,0,3.23,2.93m-9.41-2.75h0A20.72,20.72,0,0,0,298.45,26q0,6.53,2.29,10.48t6.05,4q3.72,0,6-4a20.76,20.76,0,0,0,2.34-10.49,20.67,20.67,0,0,0-2.34-10.37c-1.55-2.72-3.52-4.09-5.9-4.09s-4.56,1.35-6.13,4m-9.59,2.75h0a21.27,21.27,0,0,1,1.19,7.85,19.89,19.89,0,0,1-1.24,7.77c-.83,1.91-2,2.86-3.4,2.86s-2.57-1-3.39-2.86a20.49,20.49,0,0,1-1.23-7.89,19.78,19.78,0,0,1,1.26-7.79q1.26-2.86,3.39-2.87H288q2,0,3.23,2.93m-9.41-2.75h0A20.72,20.72,0,0,0,279.45,26q0,6.53,2.28,10.48t6.06,4q3.72,0,6-4t2.33-10.49a20.67,20.67,0,0,0-2.33-10.37c-1.55-2.72-3.52-4.09-5.9-4.09s-4.56,1.35-6.13,4M263.17,26.52h0a7.5,7.5,0,0,1,3-.41,6.35,6.35,0,0,1,4.31,1.51,5,5,0,0,1,.14,7.41,5.57,5.57,0,0,1-3.94,1.49,9.64,9.64,0,0,1-5.48-2v4.17a12.47,12.47,0,0,0,6.13,1.66,8.25,8.25,0,0,0,6.23-2.51,9,9,0,0,0,2.4-6.49A8.77,8.77,0,0,0,273.54,25a8.24,8.24,0,0,0-6.19-2.5,7,7,0,0,0-.8,0V15.38h8.12V11.79h-11.5Z"/><path class="cls-3" d="M117.1,50.13l0,.81a4.45,4.45,0,0,0-1.62-.32,2.93,2.93,0,0,0-2.06.71,2.78,2.78,0,0,0,0,3.83,2.94,2.94,0,0,0,2.08.7,4.44,4.44,0,0,0,1.59-.29l0,.85a5.83,5.83,0,0,1-1.7.23,4.08,4.08,0,0,1-2.8-.9,3.11,3.11,0,0,1-1-2.45,3.16,3.16,0,0,1,1-2.5,4.07,4.07,0,0,1,2.8-.94,5,5,0,0,1,1.7.27"/><polygon class="cls-3" points="123.56 56.63 122.55 56.63 122.55 53.51 119.28 53.51 119.28 56.63 118.27 56.63 118.27 49.88 119.28 49.88 119.28 52.74 122.55 52.74 122.55 49.88 123.56 49.88 123.56 56.63"/><path class="cls-3" d="M131.53,53.26a3.57,3.57,0,0,1-.88,2.56,3.51,3.51,0,0,1-4.78,0,4.14,4.14,0,0,1,0-5.13,3.54,3.54,0,0,1,4.78,0,3.58,3.58,0,0,1,.88,2.57m-1,0a3,3,0,0,0-.62-2,2.12,2.12,0,0,0-3.22,0,3.52,3.52,0,0,0,0,4,2.12,2.12,0,0,0,3.22,0,3,3,0,0,0,.62-2"/><path class="cls-3" d="M138.52,56.63h-1.24l-3.19-5.3a4.75,4.75,0,0,1-.35-.9,12.42,12.42,0,0,1,.15,1.25v5H133V49.88h1.27l3.14,5.25a6.15,6.15,0,0,1,.36.91,7.27,7.27,0,0,1-.14-1.18v-5h.93Z"/><path class="cls-3" d="M146,53.28a3,3,0,0,1-1,2.47,4.62,4.62,0,0,1-3,.88h-1.67V49.88H142q4.07,0,4.06,3.4M145,53.23c0-1.73-.95-2.59-2.85-2.59h-.83v5.2h.82a3,3,0,0,0,2.11-.69,2.48,2.48,0,0,0,.75-1.92"/><path class="cls-3" d="M152.31,56.63h-1.08l-.95-2.21a1.22,1.22,0,0,0-.48-.61,1.62,1.62,0,0,0-.8-.16h-.58v3h-1V49.88h2c1.65,0,2.47.58,2.47,1.73,0,.89-.52,1.44-1.57,1.65a1,1,0,0,1,.58.33,2.76,2.76,0,0,1,.37.62Zm-1.5-4.89c0-.75-.55-1.13-1.64-1.13h-.75v2.3h.78a2,2,0,0,0,1.19-.32,1,1,0,0,0,.42-.85"/><path class="cls-3" d="M159.54,53.26a3.57,3.57,0,0,1-.88,2.56,3.51,3.51,0,0,1-4.78,0,4.14,4.14,0,0,1,0-5.13,3.54,3.54,0,0,1,4.78,0,3.58,3.58,0,0,1,.88,2.57m-1,0a3,3,0,0,0-.62-2,2,2,0,0,0-1.61-.74,2,2,0,0,0-1.61.74,3.52,3.52,0,0,0,0,4,2,2,0,0,0,1.61.74,2,2,0,0,0,1.61-.74,3,3,0,0,0,.62-2"/><rect class="cls-3" x="160.98" y="49.88" width="1.01" height="6.75"/><polygon class="cls-3" points="168.02 50.67 166.01 50.67 166.01 56.63 164.99 56.63 164.99 50.67 162.97 50.67 162.97 49.88 168.02 49.88 168.02 50.67"/><rect class="cls-3" x="169.01" y="49.88" width="1.01" height="6.75"/><path class="cls-3" d="M177.36,56.63h-1.24l-3.19-5.3a4.75,4.75,0,0,1-.35-.9,12.42,12.42,0,0,1,.15,1.25v5h-.92V49.88h1.26l3.14,5.25a6.15,6.15,0,0,1,.36.91,7.27,7.27,0,0,1-.14-1.18v-5h.93Z"/><rect class="cls-3" x="179.13" y="49.88" width="1.01" height="6.75"/><path class="cls-3" d="M190.46,56.63h-1.23l-3.2-5.3a4.94,4.94,0,0,1-.34-.9,12.42,12.42,0,0,1,.15,1.25v5h-.93V49.88h1.27l3.14,5.25a6.5,6.5,0,0,1,.35.91,7,7,0,0,1-.13-1.18v-5h.92Z"/><path class="cls-3" d="M198.32,56.63h-1.09l-.7-1.73H193.1l-.69,1.73h-1l2.88-6.75h1.22Zm-2.08-2.49-1.38-3.43-1.44,3.43Z"/><polygon class="cls-3" points="202.97 50.67 200.95 50.67 200.95 56.63 199.93 56.63 199.93 50.67 197.91 50.67 197.91 49.88 202.97 49.88 202.97 50.67"/><path class="cls-3" d="M208.84,56.63h-1.08l-.95-2.21a1.22,1.22,0,0,0-.48-.61,1.62,1.62,0,0,0-.8-.16H205v3h-1V49.88h2c1.65,0,2.47.58,2.47,1.73,0,.89-.52,1.44-1.57,1.65a1,1,0,0,1,.58.33,2.76,2.76,0,0,1,.37.62Zm-1.5-4.89c0-.75-.55-1.13-1.64-1.13H205v2.3h.78a2,2,0,0,0,1.19-.32,1,1,0,0,0,.42-.85"/><rect class="cls-3" x="209.89" y="49.88" width="1.01" height="6.75"/><rect class="cls-3" x="212.68" y="49.88" width="1.01" height="6.75"/><path class="cls-3" d="M222.46,54.71a1.74,1.74,0,0,1-.67,1.41,2.61,2.61,0,0,1-1.73.56,5.4,5.4,0,0,1-1.85-.3l.11-.91a3.77,3.77,0,0,0,1.67.43,1.71,1.71,0,0,0,1-.27.82.82,0,0,0,.38-.7,1.11,1.11,0,0,0-.51-.9,15.7,15.7,0,0,0-1.39-.79,2,2,0,0,1-1.24-1.69,1.49,1.49,0,0,1,.64-1.25,2.92,2.92,0,0,1,1.76-.47,5.05,5.05,0,0,1,1.53.23l-.1.82a3.38,3.38,0,0,0-1.42-.3,1.94,1.94,0,0,0-1,.23.7.7,0,0,0-.37.63.86.86,0,0,0,.36.66,5,5,0,0,0,1,.58,6,6,0,0,1,1.4.92,1.56,1.56,0,0,1,.48,1.11"/><path class="cls-3" d="M229.26,53.79c0,2-.91,3-2.72,3s-2.68-1-2.68-2.87v-4h1v4c0,1.41.57,2.12,1.71,2.12s1.76-.74,1.76-2.21V49.88h.93Z"/><polygon class="cls-3" points="234.98 56.63 231.09 56.63 231.09 49.88 232.1 49.88 232.1 55.84 234.98 55.84 234.98 56.63"/><polygon class="cls-3" points="239.66 50.62 236.93 50.62 236.93 52.78 239.54 52.78 239.54 53.54 236.93 53.54 236.93 56.63 235.92 56.63 235.92 49.88 239.66 49.88 239.66 50.62"/><path class="cls-3" d="M246.53,56.63h-1.1l-.69-1.73h-3.43l-.7,1.73h-1l2.88-6.75h1.23Zm-2.08-2.49-1.39-3.43-1.43,3.43Z"/><path class="cls-3" d="M251.31,54.71a1.77,1.77,0,0,1-.67,1.41,2.65,2.65,0,0,1-1.74.56,5.4,5.4,0,0,1-1.85-.3l.11-.91a3.8,3.8,0,0,0,1.67.43,1.77,1.77,0,0,0,1-.27.84.84,0,0,0,.38-.7,1.11,1.11,0,0,0-.51-.9c-.14-.1-.61-.37-1.4-.79a2,2,0,0,1-1.23-1.69,1.48,1.48,0,0,1,.63-1.25,2.92,2.92,0,0,1,1.76-.47,5.17,5.17,0,0,1,1.54.23l-.11.82a3.35,3.35,0,0,0-1.42-.3,1.94,1.94,0,0,0-1,.23.71.71,0,0,0-.36.63.85.85,0,0,0,.35.66,5.38,5.38,0,0,0,1,.58,5.79,5.79,0,0,1,1.4.92,1.57,1.57,0,0,1,.49,1.11"/></svg>