<svg xmlns="http://www.w3.org/2000/svg" viewBox="0 0 800 400"><defs><style>.cls-1,.cls-10,.cls-6,.cls-7,.cls-9{fill:#fff;}.cls-2,.cls-3,.cls-5,.cls-8{fill:none;}.cls-11,.cls-12,.cls-13,.cls-2,.cls-3{stroke:#fff;}.cls-10,.cls-11,.cls-12,.cls-13,.cls-2,.cls-3,.cls-5,.cls-6,.cls-7,.cls-8,.cls-9{stroke-miterlimit:10;}.cls-3{stroke-width:0.25px;opacity:0.5;}.cls-4{fill:#e42627;}.cls-5,.cls-6,.cls-7{stroke:#5caee0;}.cls-5,.cls-6,.cls-8,.cls-9{stroke-width:4px;}.cls-10,.cls-11,.cls-12,.cls-13,.cls-7{stroke-width:2px;}.cls-10,.cls-8,.cls-9{stroke:#e42628;}.cls-11,.cls-14{fill:#5c9fd7;}.cls-12,.cls-15{fill:#1c5d9d;}.cls-13,.cls-16{fill:#e42628;}.cls-17{fill:#5caee0;}</style></defs><title>wykres_Dreisler_02</title><g id="Warstwa_1" data-name="Warstwa 1"><path class="cls-1" d="M13.69,317.52a.71.71,0,0,1-.8.8H6.15a.71.71,0,0,1-.81-.8v-2.3A4.53,4.53,0,0,1,6.42,312a4.05,4.05,0,0,1,3.09-1.14A4.05,4.05,0,0,1,12.6,312a4.49,4.49,0,0,1,1.09,3.24Zm-1.25-.71v-1.5c0-1.92-1-2.89-2.93-2.89a2.57,2.57,0,0,0-2.91,2.89v1.5Z"/><path class="cls-1" d="M13.69,309.13a.81.81,0,0,1-.2.59.66.66,0,0,1-.54.16,1.35,1.35,0,0,1-.69-.29l-5.65-4.17v3.83c0,.45-.21.67-.64.67s-.63-.22-.63-.67v-4.9a.77.77,0,0,1,.21-.59.66.66,0,0,1,.53-.17,1.33,1.33,0,0,1,.7.29l5.65,4.17v-4c0-.45.2-.67.62-.67s.64.22.64.67Z"/><path class="cls-1" d="M13.79,301.55a.68.68,0,0,1-.78.76H6a.76.76,0,1,1,0-1.52h7A.68.68,0,0,1,13.79,301.55Z"/><path class="cls-1" d="M13.69,298.16a.71.71,0,0,1-.8.81H6.15a.72.72,0,0,1-.81-.81v-4.22a.54.54,0,0,1,.6-.62.54.54,0,0,1,.61.62v3.57h2.3V294.2a.54.54,0,0,1,.6-.62.54.54,0,0,1,.61.62v3.31h2.42v-3.57a.55.55,0,0,1,.61-.62.54.54,0,0,1,.6.62Z"/><path class="cls-1" d="M13.79,291.19a.64.64,0,0,1-.74.71H6a.81.81,0,0,1-.57-.18.77.77,0,0,1-.09-.89,2.16,2.16,0,0,1,.34-.33l5.48-4.23H6a.71.71,0,1,1,0-1.41h7.11a.77.77,0,0,1,.52.17.59.59,0,0,1,.19.45.76.76,0,0,1-.11.43,1.37,1.37,0,0,1-.34.35l-5.5,4.23h5.21C13.54,290.49,13.79,290.72,13.79,291.19Z"/><path class="cls-1" d="M13.79,282.33a.64.64,0,0,1-.74.71H6a.81.81,0,0,1-.57-.18.65.65,0,0,1-.19-.48.67.67,0,0,1,.1-.41,2.16,2.16,0,0,1,.34-.33l5.48-4.22H6A.71.71,0,1,1,6,276h7.11a.77.77,0,0,1,.52.17.59.59,0,0,1,.19.45.76.76,0,0,1-.11.43,1.37,1.37,0,0,1-.34.35l-5.5,4.23h5.21C13.54,281.63,13.79,281.86,13.79,282.33Z"/><path class="cls-1" d="M13.79,274.1a.64.64,0,0,1-.29.59.66.66,0,0,1-.68,0l-6.93-3.13a1.08,1.08,0,0,1-.49-.37.91.91,0,0,1,0-1,1.15,1.15,0,0,1,.49-.37l6.93-3.14a.74.74,0,0,1,.69,0,.6.6,0,0,1,.28.57.78.78,0,0,1-.16.51,1.35,1.35,0,0,1-.49.33l-1.38.59v4.07l1.38.59a1.43,1.43,0,0,1,.49.31A.66.66,0,0,1,13.79,274.1ZM7,270.7l3.56,1.5v-3L7,270.68Z"/><path class="cls-1" d="M13.69,261.36a.71.71,0,0,1-.8.8H6.15a.71.71,0,0,1-.81-.8v-2.3a4.53,4.53,0,0,1,1.08-3.24,4.05,4.05,0,0,1,3.09-1.14,4.05,4.05,0,0,1,3.09,1.14,4.49,4.49,0,0,1,1.09,3.24Zm-1.25-.71v-1.5c0-1.92-1-2.89-2.93-2.89a2.57,2.57,0,0,0-2.91,2.89v1.5Z"/><path class="cls-1" d="M13.79,253.23a.64.64,0,0,1-.29.59.66.66,0,0,1-.68,0l-6.93-3.13a1.08,1.08,0,0,1-.49-.37.84.84,0,0,1-.15-.5.84.84,0,0,1,.15-.49,1.16,1.16,0,0,1,.49-.38l6.93-3.14a.74.74,0,0,1,.69,0,.6.6,0,0,1,.28.57.83.83,0,0,1-.16.52,1.34,1.34,0,0,1-.49.32l-1.38.59v4.08l1.38.58a1.43,1.43,0,0,1,.49.32A.64.64,0,0,1,13.79,253.23ZM7,249.83l3.56,1.51v-3L7,249.81Z"/><path class="cls-1" d="M13.79,242.28a.83.83,0,0,1-.64.82l-7,2.48a.67.67,0,0,1-.64-.05.72.72,0,0,1-.26-.62.75.75,0,0,1,.15-.5,1,1,0,0,1,.46-.29l5.64-1.89-5.62-2a.79.79,0,0,1-.63-.76A.64.64,0,0,1,5.4,239a1.32,1.32,0,0,1,.49-.28l5.69-2-5.72-1.95a1.1,1.1,0,0,1-.46-.29.71.71,0,0,1-.15-.48.65.65,0,0,1,.26-.56.7.7,0,0,1,.64,0l7,2.5a1.13,1.13,0,0,1,.47.31.89.89,0,0,1,0,1,1,1,0,0,1-.48.31l-5.49,1.93,5.5,1.94a1.12,1.12,0,0,1,.47.3A.74.74,0,0,1,13.79,242.28Z"/><path class="cls-1" d="M13.79,231.27A.68.68,0,0,1,13,232H6a.76.76,0,1,1,0-1.51H9v0l-3.41-3.4a1.42,1.42,0,0,1-.29-.38.93.93,0,0,1-.09-.42.59.59,0,0,1,.18-.49.49.49,0,0,1,.41-.12.73.73,0,0,1,.44.23L9.36,229l3.33-3.28a.75.75,0,0,1,.49-.26.57.57,0,0,1,.44.16.71.71,0,0,1,.17.51.77.77,0,0,1-.12.45,2.69,2.69,0,0,1-.34.4l-3.5,3.49v0H13Q13.79,230.52,13.79,231.27Z"/><path class="cls-1" d="M13.79,224.37a.65.65,0,0,1-.29.59.66.66,0,0,1-.68,0l-6.93-3.13a1.08,1.08,0,0,1-.49-.37.89.89,0,0,1-.15-.5.87.87,0,0,1,.15-.5,1.15,1.15,0,0,1,.49-.37l6.93-3.14a.74.74,0,0,1,.69,0,.6.6,0,0,1,.28.57.78.78,0,0,1-.16.51,1.49,1.49,0,0,1-.49.33l-1.38.59V223l1.38.59a1.43,1.43,0,0,1,.49.31A.65.65,0,0,1,13.79,224.37ZM7,221l3.56,1.5v-3L7,221Z"/><path class="cls-1" d="M13.79,211.72a.64.64,0,0,1-.74.71H6a.81.81,0,0,1-.57-.18.65.65,0,0,1-.19-.48.67.67,0,0,1,.1-.41,2.16,2.16,0,0,1,.34-.33l5.48-4.22H6a.64.64,0,0,1-.72-.72q0-.69.72-.69h7.11a.77.77,0,0,1,.52.16.59.59,0,0,1,.19.45.76.76,0,0,1-.11.43,1.37,1.37,0,0,1-.34.35L7.84,211h5.21C13.54,211,13.79,211.25,13.79,211.72Z"/><path class="cls-1" d="M13.69,202.8a.68.68,0,0,1-.78.77H6.08a.76.76,0,1,1,0-1.51H12.4v-3.44A.58.58,0,0,1,13,198a.58.58,0,0,1,.65.66Z"/><path class="cls-1" d="M13.79,196.16a.68.68,0,0,1-.78.76H6.11a.68.68,0,0,1-.77-.77v-2.86A3,3,0,0,1,6,191.17,2.47,2.47,0,0,1,8,190.43a2.47,2.47,0,0,1,1.92.74,3,3,0,0,1,.7,2.12v2.11H13A.68.68,0,0,1,13.79,196.16Zm-4.42-.76v-1.87c0-1.09-.47-1.64-1.42-1.64s-1.41.55-1.41,1.64v1.87Z"/><path class="cls-1" d="M13.69,189.09a.78.78,0,0,1-.2.58.67.67,0,0,1-.54.17,1.45,1.45,0,0,1-.69-.29l-5.65-4.17v3.83c0,.45-.21.67-.64.67s-.63-.22-.63-.67V184.3a.75.75,0,0,1,.21-.58.7.7,0,0,1,.53-.18,1.44,1.44,0,0,1,.7.3L12.43,188v-4c0-.45.2-.68.62-.68s.64.23.64.68Z"/><path class="cls-1" d="M15.62,174.19a8.49,8.49,0,0,1-2.44,1.06,10.56,10.56,0,0,1-5.2,0,8.81,8.81,0,0,1-2.45-1.05.53.53,0,0,1-.26-.35.6.6,0,0,1,0-.42.53.53,0,0,1,.3-.29.76.76,0,0,1,.55,0,14.57,14.57,0,0,0,2.21.63,12.14,12.14,0,0,0,2.22.2,10.69,10.69,0,0,0,2.21-.22,17,17,0,0,0,2.22-.61.76.76,0,0,1,.55,0,.59.59,0,0,1,.33.71A.55.55,0,0,1,15.62,174.19Z"/><path class="cls-1" d="M13.79,169.51a.85.85,0,0,1-.62.85l-4.38,1.72a.77.77,0,0,1-.7,0,.64.64,0,0,1-.28-.61.7.7,0,0,1,.12-.42,1,1,0,0,1,.47-.29l3.56-1.3L8.3,168.1a.71.71,0,0,1,0-1.35l3.7-1.34L8.36,164.1a.82.82,0,0,1-.43-.3.75.75,0,0,1-.12-.41.54.54,0,0,1,.3-.56.86.86,0,0,1,.68,0l4.38,1.7a.88.88,0,0,1,.62.85.86.86,0,0,1-.62.86L10,167.47l3.2,1.19A.84.84,0,0,1,13.79,169.51Z"/><path class="cls-1" d="M15.92,157.7a.66.66,0,0,1-.75.74H8.55a.73.73,0,1,1,0-1.46H8.8a1.84,1.84,0,0,1-.74-.75,2.34,2.34,0,0,1-.28-1.13,2.49,2.49,0,0,1,.37-1.34,2.4,2.4,0,0,1,1-.89,3.71,3.71,0,0,1,1.6-.32,3.82,3.82,0,0,1,1.61.32,2.4,2.4,0,0,1,1,.89,2.36,2.36,0,0,1,.37,1.34,2.28,2.28,0,0,1-.27,1.11,1.9,1.9,0,0,1-.71.75h2.34A.66.66,0,0,1,15.92,157.7Zm-3.23-2.19a1.3,1.3,0,0,0-.48-1.06,2.15,2.15,0,0,0-1.42-.41,2.1,2.1,0,0,0-1.41.41,1.29,1.29,0,0,0-.47,1.06,1.33,1.33,0,0,0,.47,1.07,2.1,2.1,0,0,0,1.41.4,2.15,2.15,0,0,0,1.42-.4A1.34,1.34,0,0,0,12.69,155.51Z"/><path class="cls-1" d="M13.79,150.57a.67.67,0,0,1-.76.76H8.55a.72.72,0,1,1,0-1.44h.37a2,2,0,0,1-1.14-1.83c0-.34.16-.53.58-.57s.65.17.7.62l0,.26a1.39,1.39,0,0,0,1.49,1.46H13A.66.66,0,0,1,13.79,150.57Z"/><path class="cls-1" d="M13.69,146.27a.57.57,0,0,1-.19.47.69.69,0,0,1-.47.13.9.9,0,0,1-.52-.25L9,143.83v2.52a.49.49,0,0,1-.55.56.5.5,0,0,1-.56-.56v-3.51a.67.67,0,0,1,.19-.53.63.63,0,0,1,.46-.15.83.83,0,0,1,.51.24l3.52,2.82v-2.65a.5.5,0,0,1,.56-.57c.37,0,.55.19.55.57Z"/><path class="cls-1" d="M13.81,138.28a3.54,3.54,0,0,1-.37,1.69,2.57,2.57,0,0,1-1,1.1,3.13,3.13,0,0,1-1.6.38,3.17,3.17,0,0,1-1.57-.37,2.69,2.69,0,0,1-1.06-1,2.89,2.89,0,0,1-.39-1.5,2.52,2.52,0,0,1,.78-2,3.1,3.1,0,0,1,2.14-.71c.29,0,.43.19.43.57V140a1.58,1.58,0,0,0,1.56-1.77,3.76,3.76,0,0,0-.08-.7,2.48,2.48,0,0,0-.27-.73.66.66,0,0,1-.11-.52.47.47,0,0,1,.25-.3.63.63,0,0,1,.43,0,.66.66,0,0,1,.39.34,3,3,0,0,1,.39.95A4.61,4.61,0,0,1,13.81,138.28Zm-5,.21a1.42,1.42,0,0,0,.4,1.06,1.75,1.75,0,0,0,1.09.48v-2.91a1.74,1.74,0,0,0-1.11.4A1.26,1.26,0,0,0,8.79,138.49Z"/><path class="cls-1" d="M13.81,132.74c0,1.32-.74,2-2.21,2H6a.74.74,0,1,1,0-1.48h5.54c.71,0,1.06-.3,1.06-.89v-.18c0-.06,0-.11,0-.17a.18.18,0,0,1,.09-.22,1.07,1.07,0,0,1,.45-.06.76.76,0,0,1,.46.12.54.54,0,0,1,.21.39A4.12,4.12,0,0,1,13.81,132.74Z"/><path class="cls-1" d="M6.72,130.2a.94.94,0,0,1-.21.65.75.75,0,0,1-.57.23.72.72,0,0,1-.58-.23.94.94,0,0,1-.21-.65c0-.58.26-.87.79-.87S6.72,129.62,6.72,130.2Zm7.06,0a.68.68,0,0,1-.22.55.89.89,0,0,1-.59.19H8.62c-.53,0-.8-.25-.8-.74s.27-.74.8-.74H13a.84.84,0,0,1,.59.19A.67.67,0,0,1,13.78,130.2Z"/><path class="cls-1" d="M13.81,125.24a3.22,3.22,0,0,1-.37,1.59,2.53,2.53,0,0,1-1.06,1,3.33,3.33,0,0,1-1.61.37,3.23,3.23,0,0,1-1.6-.37,2.52,2.52,0,0,1-1-1,3.33,3.33,0,0,1-.36-1.59,3.89,3.89,0,0,1,.11-.85,2.66,2.66,0,0,1,.36-.85.52.52,0,0,1,.36-.28.61.61,0,0,1,.42.06.59.59,0,0,1,.27.29.54.54,0,0,1-.06.45,2.18,2.18,0,0,0-.31,1,1.5,1.5,0,0,0,.48,1.19,2,2,0,0,0,1.37.42,2.11,2.11,0,0,0,1.38-.42,1.48,1.48,0,0,0,.5-1.19,2.25,2.25,0,0,0-.29-1,.45.45,0,0,1-.06-.44.47.47,0,0,1,.28-.27.64.64,0,0,1,.41,0,.54.54,0,0,1,.36.27,3.18,3.18,0,0,1,.35.83A3.54,3.54,0,0,1,13.81,125.24Z"/><path class="cls-1" d="M13.69,122a.54.54,0,0,1-.19.46.6.6,0,0,1-.47.13.83.83,0,0,1-.52-.24L9,119.53V122c0,.38-.18.57-.55.57A.5.5,0,0,1,7.9,122v-3.5a.66.66,0,0,1,.19-.53.59.59,0,0,1,.46-.15.83.83,0,0,1,.51.24l3.52,2.82v-2.65a.5.5,0,0,1,.56-.57c.37,0,.55.19.55.57Z"/><path class="cls-1" d="M13.81,114a3.57,3.57,0,0,1-.37,1.69,2.63,2.63,0,0,1-1,1.1,3.24,3.24,0,0,1-1.6.38,3.17,3.17,0,0,1-1.57-.37,2.69,2.69,0,0,1-1.06-1,2.89,2.89,0,0,1-.39-1.5,2.52,2.52,0,0,1,.78-2,3.06,3.06,0,0,1,2.14-.72c.29,0,.43.19.43.57v3.58A1.58,1.58,0,0,0,12.69,114a3.75,3.75,0,0,0-.08-.69,2.38,2.38,0,0,0-.27-.73.67.67,0,0,1-.11-.52.47.47,0,0,1,.25-.3.57.57,0,0,1,.43,0,.68.68,0,0,1,.39.33,3.17,3.17,0,0,1,.39,1A4.61,4.61,0,0,1,13.81,114Zm-5,.21a1.44,1.44,0,0,0,.4,1.06,1.86,1.86,0,0,0,1.09.48v-2.91a1.8,1.8,0,0,0-1.11.39A1.29,1.29,0,0,0,8.79,114.19Z"/><path class="cls-1" d="M13.79,109.68c0,.49-.25.73-.76.73H8.55a.72.72,0,1,1,0-1.44H8.8a2.08,2.08,0,0,1-.76-.8A2.47,2.47,0,0,1,7.78,107c0-1.37.8-2.05,2.38-2.05H13c.51,0,.76.24.76.73a.67.67,0,0,1-.76.75h-2.8a1.55,1.55,0,0,0-1,.25,1,1,0,0,0-.31.79,1.37,1.37,0,0,0,.41,1,1.55,1.55,0,0,0,1.09.38H13A.67.67,0,0,1,13.79,109.68Z"/><path class="cls-1" d="M6.72,102.75a.94.94,0,0,1-.21.65.75.75,0,0,1-.57.23.72.72,0,0,1-.58-.23.94.94,0,0,1-.21-.65c0-.58.26-.88.79-.88S6.72,102.17,6.72,102.75Zm7.06,0a.68.68,0,0,1-.22.55.89.89,0,0,1-.59.19H8.62c-.53,0-.8-.25-.8-.74s.27-.75.8-.75H13a.89.89,0,0,1,.59.19A.7.7,0,0,1,13.78,102.75Z"/><path class="cls-1" d="M13.81,98.37c0,1.42-.8,2.13-2.39,2.13H8.55a.65.65,0,0,1-.74-.73A.66.66,0,0,1,8.55,99h2.89a1.36,1.36,0,0,0,.91-.25,1,1,0,0,0,.3-.79,1.26,1.26,0,0,0-.41-1,1.49,1.49,0,0,0-1.08-.38H8.55a.74.74,0,1,1,0-1.48H13c.51,0,.76.24.76.72s-.25.72-.76.72h-.2A1.94,1.94,0,0,1,13.81,98.37Z"/><path class="cls-1" d="M13.79,89.66a.66.66,0,0,1-.76.74H8.55a.73.73,0,1,1,0-1.45H8.8a2,2,0,0,1-.76-.8A2.44,2.44,0,0,1,7.78,87c0-1.36.8-2,2.38-2H13a.66.66,0,0,1,.76.74c0,.5-.25.74-.76.74h-2.8a1.55,1.55,0,0,0-1,.26,1,1,0,0,0-.31.79,1.35,1.35,0,0,0,.41,1,1.52,1.52,0,0,0,1.09.39H13A.66.66,0,0,1,13.79,89.66Z"/><path class="cls-1" d="M13.81,81.56a2.52,2.52,0,0,1-.24,1.12,1.85,1.85,0,0,1-.66.77,1.62,1.62,0,0,1-.93.28,1.49,1.49,0,0,1-1-.33,2,2,0,0,1-.54-1.08,9.69,9.69,0,0,1-.16-2V79.9H10a1.14,1.14,0,0,0-.85.27A1.16,1.16,0,0,0,8.9,81a3.28,3.28,0,0,0,.08.74,4.59,4.59,0,0,0,.28.84.5.5,0,0,1,0,.47.46.46,0,0,1-.32.25.61.61,0,0,1-.44,0A.59.59,0,0,1,8.2,83a5,5,0,0,1-.32-1,4.45,4.45,0,0,1-.1-.92,2.65,2.65,0,0,1,.59-1.88,2.41,2.41,0,0,1,1.82-.61H13c.51,0,.76.22.76.68s-.25.7-.76.7h-.26a1.64,1.64,0,0,1,.76.64A1.86,1.86,0,0,1,13.81,81.56Zm-1-.31a1.28,1.28,0,0,0-.4-1,1.41,1.41,0,0,0-1-.39h-.26v.41a4.85,4.85,0,0,0,.17,1.54.63.63,0,0,0,.62.44.82.82,0,0,0,.64-.28A1.06,1.06,0,0,0,12.79,81.25Z"/><path class="cls-1" d="M13.81,71.56a2.36,2.36,0,0,1-1.41,2.22,3.67,3.67,0,0,1-1.61.32,3.57,3.57,0,0,1-1.6-.32,2.4,2.4,0,0,1-1-.89,2.48,2.48,0,0,1-.37-1.33,2.29,2.29,0,0,1,.27-1.12,1.86,1.86,0,0,1,.73-.74H6a.74.74,0,0,1,0-1.48h7c.51,0,.76.24.76.73s-.25.73-.76.73h-.25a1.81,1.81,0,0,1,.75.75A2.23,2.23,0,0,1,13.81,71.56Zm-1.12-.42a1.3,1.3,0,0,0-.48-1.06,2.15,2.15,0,0,0-1.42-.41,2.1,2.1,0,0,0-1.41.41,1.29,1.29,0,0,0-.47,1.06,1.33,1.33,0,0,0,.47,1.07,2.1,2.1,0,0,0,1.41.4,2.15,2.15,0,0,0,1.42-.4A1.34,1.34,0,0,0,12.69,71.14Z"/><path class="cls-1" d="M6.72,65.94a.94.94,0,0,1-.21.65.75.75,0,0,1-.57.23.72.72,0,0,1-.58-.23.94.94,0,0,1-.21-.65c0-.58.26-.87.79-.87S6.72,65.36,6.72,65.94Zm7.06,0a.68.68,0,0,1-.22.55.89.89,0,0,1-.59.19H8.62c-.53,0-.8-.25-.8-.74s.27-.74.8-.74H13a.84.84,0,0,1,.59.19A.67.67,0,0,1,13.78,65.94Z"/><path class="cls-1" d="M13.79,62.92a.66.66,0,0,1-.76.74H6a.74.74,0,1,1,0-1.48h4.38v0L8.3,60.2a3.73,3.73,0,0,1-.36-.42.76.76,0,0,1-.13-.48A.62.62,0,0,1,8,58.83a.49.49,0,0,1,.38-.16.67.67,0,0,1,.45.21l1.87,1.78,2.13-2a.59.59,0,0,1,.46-.19.52.52,0,0,1,.38.19.68.68,0,0,1,.15.45,1,1,0,0,1-.13.53,2.85,2.85,0,0,1-.39.43l-2.16,2.06v0H13C13.54,62.18,13.79,62.42,13.79,62.92Z"/><path class="cls-1" d="M13.81,55.33c0,1.32-.74,2-2.21,2H6a.74.74,0,1,1,0-1.48h5.54c.71,0,1.06-.3,1.06-.89v-.18s0-.11,0-.16a.19.19,0,0,1,.09-.23,1.07,1.07,0,0,1,.45-.06.76.76,0,0,1,.46.12.54.54,0,0,1,.21.39A4.36,4.36,0,0,1,13.81,55.33Z"/><path class="cls-1" d="M13.81,51a3.1,3.1,0,0,1-.37,1.56,2.52,2.52,0,0,1-1,1,3.3,3.3,0,0,1-1.61.37,3.26,3.26,0,0,1-1.6-.37,2.52,2.52,0,0,1-1-1,3.47,3.47,0,0,1,0-3.12,2.54,2.54,0,0,1,1-1,3.37,3.37,0,0,1,1.6-.36,3.41,3.41,0,0,1,1.61.36,2.54,2.54,0,0,1,1,1A3.1,3.1,0,0,1,13.81,51Zm-1.12,0a1.34,1.34,0,0,0-.48-1.07,2.15,2.15,0,0,0-1.42-.4,2.1,2.1,0,0,0-1.41.4A1.33,1.33,0,0,0,8.91,51,1.29,1.29,0,0,0,9.38,52a2.1,2.1,0,0,0,1.41.41A2.15,2.15,0,0,0,12.21,52,1.3,1.3,0,0,0,12.69,51Z"/><path class="cls-1" d="M13.79,45.69a.67.67,0,0,1-.76.75H9V47c0,.4-.18.59-.55.59S7.9,47.38,7.9,47v-.54h0a2.48,2.48,0,0,1-1.83-.62A2.77,2.77,0,0,1,5.34,44l0-.4a.53.53,0,0,1,.13-.45A.61.61,0,0,1,5.81,43a.65.65,0,0,1,.39.12.43.43,0,0,1,.2.34v.16a1.55,1.55,0,0,0,.34,1,1.23,1.23,0,0,0,.9.31H7.9V44c0-.4.19-.59.56-.59S9,43.55,9,44v1h4C13.54,45,13.79,45.2,13.79,45.69Z"/><path class="cls-1" d="M13.81,39.82a3.57,3.57,0,0,1-.37,1.69,2.55,2.55,0,0,1-1,1.09,3.14,3.14,0,0,1-1.6.39,3.17,3.17,0,0,1-1.57-.37,2.76,2.76,0,0,1-1.06-1,2.89,2.89,0,0,1-.39-1.5,2.52,2.52,0,0,1,.78-2,3.06,3.06,0,0,1,2.14-.72c.29,0,.43.19.43.57v3.58a1.58,1.58,0,0,0,1.56-1.78,3.75,3.75,0,0,0-.08-.69,2.38,2.38,0,0,0-.27-.73.67.67,0,0,1-.11-.52.47.47,0,0,1,.25-.3.63.63,0,0,1,.43,0,.74.74,0,0,1,.39.34,3.22,3.22,0,0,1,.39,1A4.69,4.69,0,0,1,13.81,39.82Zm-5,.21a1.42,1.42,0,0,0,.4,1,1.81,1.81,0,0,0,1.09.49V38.65a1.86,1.86,0,0,0-1.11.4A1.27,1.27,0,0,0,8.79,40Z"/><path class="cls-1" d="M13.79,35.52c0,.49-.25.73-.76.73H8.55a.72.72,0,1,1,0-1.44H8.8A2.08,2.08,0,0,1,8,34a2.5,2.5,0,0,1-.26-1.13c0-1.37.8-2.05,2.38-2.05H13c.51,0,.76.24.76.73a.67.67,0,0,1-.76.75h-2.8a1.55,1.55,0,0,0-1,.25,1,1,0,0,0-.31.79,1.39,1.39,0,0,0,.41,1,1.55,1.55,0,0,0,1.09.38H13A.67.67,0,0,1,13.79,35.52Z"/><path class="cls-1" d="M13.81,27.42a2.48,2.48,0,0,1-.24,1.11,1.85,1.85,0,0,1-.66.77,1.62,1.62,0,0,1-.93.28,1.49,1.49,0,0,1-1-.33,2,2,0,0,1-.54-1.08,9.62,9.62,0,0,1-.16-2v-.41H10a1.14,1.14,0,0,0-.85.26,1.16,1.16,0,0,0-.26.87,3.28,3.28,0,0,0,.08.74,4.36,4.36,0,0,0,.28.84A.48.48,0,0,1,9,29.2a.67.67,0,0,1-.44,0,.54.54,0,0,1-.33-.36,5.12,5.12,0,0,1-.32-1,4.6,4.6,0,0,1-.1-.92A2.66,2.66,0,0,1,8.37,25a2.41,2.41,0,0,1,1.82-.61H13c.51,0,.76.23.76.69s-.25.69-.76.69h-.26a1.64,1.64,0,0,1,.76.64A1.89,1.89,0,0,1,13.81,27.42Zm-1-.31a1.28,1.28,0,0,0-.4-1,1.45,1.45,0,0,0-1-.38h-.26v.4a4.92,4.92,0,0,0,.17,1.55.63.63,0,0,0,.62.43.81.81,0,0,0,.64-.27A1.09,1.09,0,0,0,12.79,27.11Z"/><path class="cls-1" d="M13.79,22.11c0,.49-.25.73-.76.73H6a.65.65,0,0,1-.74-.73A.66.66,0,0,1,6,21.36h4.38v0L8.3,19.39A3.73,3.73,0,0,1,7.94,19a.78.78,0,0,1-.13-.48A.61.61,0,0,1,8,18a.49.49,0,0,1,.38-.16.67.67,0,0,1,.45.21l1.87,1.78,2.13-2a.65.65,0,0,1,.46-.2.57.57,0,0,1,.38.2.68.68,0,0,1,.15.45,1,1,0,0,1-.13.53,2.85,2.85,0,0,1-.39.43l-2.16,2.06v0H13A.67.67,0,0,1,13.79,22.11Z"/><path class="cls-1" d="M15.62,15.6a.53.53,0,0,1,.27.35.61.61,0,0,1,0,.42.57.57,0,0,1-.3.29.79.79,0,0,1-.54,0A12.14,12.14,0,0,0,12.79,16a12.28,12.28,0,0,0-2.21-.19A11.3,11.3,0,0,0,8.36,16a15.74,15.74,0,0,0-2.21.62.75.75,0,0,1-.55,0,.5.5,0,0,1-.3-.3.58.58,0,0,1,0-.41.52.52,0,0,1,.26-.34A8.37,8.37,0,0,1,8,14.54a10.45,10.45,0,0,1,5.21,0A8.49,8.49,0,0,1,15.62,15.6Z"/><rect class="cls-2" x="51.55" y="10.8" width="745.44" height="299.68" rx="6.82"/><path class="cls-1" d="M33.44,300.92a5.16,5.16,0,0,1-1.28-.16,4.26,4.26,0,0,1-1.2-.51.7.7,0,0,1-.33-.44.64.64,0,0,1,.06-.47A.69.69,0,0,1,31,299a.66.66,0,0,1,.53.09,3.62,3.62,0,0,0,.89.38,3.32,3.32,0,0,0,1,.13,1.69,1.69,0,0,0,1.16-.38,1.34,1.34,0,0,0,.42-1,1.45,1.45,0,0,0-.4-1.07,1.49,1.49,0,0,0-1.1-.41,2.1,2.1,0,0,0-.74.13,1.92,1.92,0,0,0-.69.43,2.27,2.27,0,0,1-.28.18.73.73,0,0,1-.35.09c-.4,0-.61-.19-.61-.58v-3.87a.59.59,0,0,1,.67-.67h3.89c.45,0,.67.21.67.63s-.22.63-.67.63H32.31V296a2.54,2.54,0,0,1,1.54-.47,2.76,2.76,0,0,1,1.38.33,2.44,2.44,0,0,1,.92.94,2.94,2.94,0,0,1,.32,1.39,2.71,2.71,0,0,1-.37,1.44,2.44,2.44,0,0,1-1,1A3.45,3.45,0,0,1,33.44,300.92Z"/><path class="cls-1" d="M40.47,300.92a2.58,2.58,0,0,1-2.26-1.12,5.53,5.53,0,0,1-.78-3.19,5.46,5.46,0,0,1,.78-3.19,2.92,2.92,0,0,1,4.53,0,5.45,5.45,0,0,1,.78,3.18,5.54,5.54,0,0,1-.78,3.2A2.6,2.6,0,0,1,40.47,300.92Zm0-1.24a1.25,1.25,0,0,0,1.19-.75,5.26,5.26,0,0,0,.39-2.33,5,5,0,0,0-.39-2.3,1.25,1.25,0,0,0-1.19-.72,1.27,1.27,0,0,0-1.18.72,5,5,0,0,0-.39,2.3,5.26,5.26,0,0,0,.39,2.33A1.27,1.27,0,0,0,40.47,299.68Z"/><line class="cls-3" x1="46.65" y1="296.28" x2="796.98" y2="296.28"/><path class="cls-1" d="M33.68,261.85a2.87,2.87,0,0,1-2.4-1.09,4.86,4.86,0,0,1-.85-3.06,5.07,5.07,0,0,1,.95-3.28A3.25,3.25,0,0,1,34,253.26a3.59,3.59,0,0,1,1.06.16,3.75,3.75,0,0,1,1,.48.57.57,0,0,1,.28.4.74.74,0,0,1-.08.46.57.57,0,0,1-.32.29.55.55,0,0,1-.51-.09,3.66,3.66,0,0,0-.75-.33,2.94,2.94,0,0,0-.71-.09,1.86,1.86,0,0,0-1.58.72,3.58,3.58,0,0,0-.54,2.16v.34a2.08,2.08,0,0,1,.8-1,2.31,2.31,0,0,1,1.28-.37,2.39,2.39,0,0,1,1.28.35,2.45,2.45,0,0,1,.88.95,3.14,3.14,0,0,1,0,2.82,2.63,2.63,0,0,1-1,1A2.76,2.76,0,0,1,33.68,261.85Zm-.09-1.21a1.36,1.36,0,0,0,1-.42,1.74,1.74,0,0,0,0-2.22,1.46,1.46,0,0,0-2.07,0,1.74,1.74,0,0,0,0,2.22A1.35,1.35,0,0,0,33.59,260.64Z"/><path class="cls-1" d="M40.47,261.85a2.61,2.61,0,0,1-2.26-1.12,5.55,5.55,0,0,1-.78-3.19,5.46,5.46,0,0,1,.78-3.19,2.9,2.9,0,0,1,4.53,0,5.41,5.41,0,0,1,.78,3.17,5.6,5.6,0,0,1-.78,3.21A2.62,2.62,0,0,1,40.47,261.85Zm0-1.25a1.26,1.26,0,0,0,1.19-.74,5.31,5.31,0,0,0,.39-2.34,5.06,5.06,0,0,0-.39-2.3,1.25,1.25,0,0,0-1.19-.72,1.27,1.27,0,0,0-1.18.72,5.06,5.06,0,0,0-.39,2.3,5.31,5.31,0,0,0,.39,2.34A1.27,1.27,0,0,0,40.47,260.6Z"/><line class="cls-3" x1="46.65" y1="257.2" x2="796.98" y2="257.2"/><path class="cls-1" d="M31.85,222.75a.61.61,0,0,1-.55-1l3.3-6.2H31c-.45,0-.67-.21-.67-.63s.22-.64.67-.64h4.58a.79.79,0,0,1,.52.17.59.59,0,0,1,.2.47,1.31,1.31,0,0,1-.07.46,3.7,3.7,0,0,1-.19.42l-3.36,6.43A.91.91,0,0,1,31.85,222.75Z"/><path class="cls-1" d="M40.47,222.77a2.58,2.58,0,0,1-2.26-1.12,5.55,5.55,0,0,1-.78-3.19,5.46,5.46,0,0,1,.78-3.19,2.9,2.9,0,0,1,4.53,0,5.45,5.45,0,0,1,.78,3.18,5.56,5.56,0,0,1-.78,3.2A2.6,2.6,0,0,1,40.47,222.77Zm0-1.24a1.25,1.25,0,0,0,1.19-.75,5.29,5.29,0,0,0,.39-2.33,5.11,5.11,0,0,0-.39-2.31,1.26,1.26,0,0,0-1.19-.71,1.28,1.28,0,0,0-1.18.71,5.11,5.11,0,0,0-.39,2.31,5.29,5.29,0,0,0,.39,2.33A1.27,1.27,0,0,0,40.47,221.53Z"/><line class="cls-3" x1="46.65" y1="218.13" x2="796.98" y2="218.13"/><path class="cls-1" d="M33.37,183.69a3.68,3.68,0,0,1-2.28-.63,2,2,0,0,1-.82-1.74,2.14,2.14,0,0,1,.39-1.29,2.11,2.11,0,0,1,1-.74,2,2,0,0,1-.9-.76,2.18,2.18,0,0,1-.32-1.17,2,2,0,0,1,.78-1.66,3.37,3.37,0,0,1,2.11-.59,3.4,3.4,0,0,1,2.12.59,2,2,0,0,1,.78,1.66,2.11,2.11,0,0,1-.33,1.17,1.86,1.86,0,0,1-.88.76,2,2,0,0,1,1,.75,2.2,2.2,0,0,1,.38,1.28,2,2,0,0,1-.82,1.74A3.68,3.68,0,0,1,33.37,183.69Zm0-1.18c1.13,0,1.69-.43,1.69-1.29s-.56-1.28-1.69-1.28a2,2,0,0,0-1.26.32,1.11,1.11,0,0,0-.44,1,1.13,1.13,0,0,0,.44,1A2,2,0,0,0,33.37,182.51Zm0-3.76a1.65,1.65,0,0,0,1.09-.33,1.1,1.1,0,0,0,.4-.91,1.06,1.06,0,0,0-.4-.89,1.65,1.65,0,0,0-1.09-.33,1.63,1.63,0,0,0-1.09.33,1.08,1.08,0,0,0-.39.89,1.12,1.12,0,0,0,.39.91A1.63,1.63,0,0,0,33.37,178.75Z"/><path class="cls-1" d="M40.47,183.69a2.58,2.58,0,0,1-2.26-1.12,5.53,5.53,0,0,1-.78-3.19,5.46,5.46,0,0,1,.78-3.19,2.92,2.92,0,0,1,4.53,0,5.45,5.45,0,0,1,.78,3.18,5.54,5.54,0,0,1-.78,3.2A2.6,2.6,0,0,1,40.47,183.69Zm0-1.24a1.25,1.25,0,0,0,1.19-.75,5.26,5.26,0,0,0,.39-2.33,5,5,0,0,0-.39-2.3,1.25,1.25,0,0,0-1.19-.72,1.27,1.27,0,0,0-1.18.72,5,5,0,0,0-.39,2.3,5.26,5.26,0,0,0,.39,2.33A1.27,1.27,0,0,0,40.47,182.45Z"/><line class="cls-3" x1="46.65" y1="179.05" x2="796.98" y2="179.05"/><path class="cls-1" d="M32.72,144.61a3.69,3.69,0,0,1-1.06-.16,3.4,3.4,0,0,1-1-.48.57.57,0,0,1-.26-.39.72.72,0,0,1,.06-.46.54.54,0,0,1,.33-.3.6.6,0,0,1,.5.09,2.73,2.73,0,0,0,1.47.42,1.87,1.87,0,0,0,1.58-.72,3.57,3.57,0,0,0,.54-2.15v-.35a2,2,0,0,1-.81,1,2.2,2.2,0,0,1-1.27.37,2.5,2.5,0,0,1-1.28-.34,2.4,2.4,0,0,1-.88-1,3.14,3.14,0,0,1,0-2.82,2.52,2.52,0,0,1,1-1,2.81,2.81,0,0,1,1.43-.36,2.89,2.89,0,0,1,2.4,1.08,4.89,4.89,0,0,1,.85,3.06,5,5,0,0,1-1,3.28A3.2,3.2,0,0,1,32.72,144.61Zm.44-4.32a1.32,1.32,0,0,0,1-.43,1.74,1.74,0,0,0,0-2.22,1.49,1.49,0,0,0-2.07,0,1.74,1.74,0,0,0,0,2.22A1.33,1.33,0,0,0,33.16,140.29Z"/><path class="cls-1" d="M40.47,144.61a2.58,2.58,0,0,1-2.26-1.12,5.53,5.53,0,0,1-.78-3.19,5.41,5.41,0,0,1,.78-3.18,2.9,2.9,0,0,1,4.53,0,5.39,5.39,0,0,1,.78,3.17,5.54,5.54,0,0,1-.78,3.2A2.6,2.6,0,0,1,40.47,144.61Zm0-1.24a1.25,1.25,0,0,0,1.19-.75,5.23,5.23,0,0,0,.39-2.33,5,5,0,0,0-.39-2.3,1.25,1.25,0,0,0-1.19-.72,1.27,1.27,0,0,0-1.18.72,5,5,0,0,0-.39,2.3,5.23,5.23,0,0,0,.39,2.33A1.27,1.27,0,0,0,40.47,143.37Z"/><line class="cls-3" x1="46.65" y1="139.97" x2="796.98" y2="139.97"/><path class="cls-1" d="M24.56,105.42a.57.57,0,0,1-.65-.64c0-.41.21-.62.65-.62h1.32V98.8l-1,.6a.59.59,0,0,1-.52.08.63.63,0,0,1-.35-.29.69.69,0,0,1-.07-.47.61.61,0,0,1,.33-.42l1.64-1a3,3,0,0,1,.47-.25,1.26,1.26,0,0,1,.44-.1.64.64,0,0,1,.41.14.54.54,0,0,1,.17.44v6.61h1.21c.43,0,.65.21.65.62a.57.57,0,0,1-.65.64Z"/><path class="cls-1" d="M33.37,105.54a2.59,2.59,0,0,1-2.26-1.12,5.54,5.54,0,0,1-.79-3.19A5.46,5.46,0,0,1,31.11,98a2.9,2.9,0,0,1,4.53,0,5.49,5.49,0,0,1,.77,3.17,5.6,5.6,0,0,1-.78,3.21A2.59,2.59,0,0,1,33.37,105.54Zm0-1.25a1.27,1.27,0,0,0,1.19-.74,5.33,5.33,0,0,0,.38-2.34,5.11,5.11,0,0,0-.38-2.3,1.26,1.26,0,0,0-1.19-.72,1.28,1.28,0,0,0-1.19.72,5.09,5.09,0,0,0-.39,2.3,5.31,5.31,0,0,0,.39,2.34A1.29,1.29,0,0,0,33.37,104.29Z"/><path class="cls-1" d="M40.47,105.54a2.61,2.61,0,0,1-2.26-1.12,5.55,5.55,0,0,1-.78-3.19A5.46,5.46,0,0,1,38.21,98a2.9,2.9,0,0,1,4.53,0,5.41,5.41,0,0,1,.78,3.17,5.6,5.6,0,0,1-.78,3.21A2.62,2.62,0,0,1,40.47,105.54Zm0-1.25a1.26,1.26,0,0,0,1.19-.74,5.31,5.31,0,0,0,.39-2.34,5.09,5.09,0,0,0-.39-2.3,1.25,1.25,0,0,0-1.19-.72,1.27,1.27,0,0,0-1.18.72,5.09,5.09,0,0,0-.39,2.3,5.31,5.31,0,0,0,.39,2.34A1.27,1.27,0,0,0,40.47,104.29Z"/><line class="cls-3" x1="46.65" y1="100.89" x2="796.98" y2="100.89"/><path class="cls-1" d="M24.56,66.34a.57.57,0,0,1-.65-.64c0-.41.21-.61.65-.61h1.32V59.72l-1,.6a.6.6,0,0,1-.52.09.67.67,0,0,1-.42-.77.61.61,0,0,1,.33-.42l1.64-1a3,3,0,0,1,.47-.24,1.07,1.07,0,0,1,.44-.1.63.63,0,0,1,.41.13.55.55,0,0,1,.17.45v6.61h1.21c.43,0,.65.2.65.61a.57.57,0,0,1-.65.64Z"/><path class="cls-1" d="M31.66,66.34A.57.57,0,0,1,31,65.7c0-.41.22-.61.65-.61H33V59.72l-1,.6a.58.58,0,0,1-.51.09.65.65,0,0,1-.35-.3.69.69,0,0,1-.07-.47.61.61,0,0,1,.33-.42l1.63-1a3.58,3.58,0,0,1,.48-.24,1,1,0,0,1,.44-.1.63.63,0,0,1,.41.13.55.55,0,0,1,.17.45v6.61h1.2c.44,0,.66.2.66.61s-.22.64-.66.64Z"/><path class="cls-1" d="M40.47,66.46a2.58,2.58,0,0,1-2.26-1.12,5.55,5.55,0,0,1-.78-3.19A5.46,5.46,0,0,1,38.21,59a2.9,2.9,0,0,1,4.53,0,5.45,5.45,0,0,1,.78,3.18,5.56,5.56,0,0,1-.78,3.2A2.6,2.6,0,0,1,40.47,66.46Zm0-1.24a1.25,1.25,0,0,0,1.19-.75,5.29,5.29,0,0,0,.39-2.33,5.11,5.11,0,0,0-.39-2.31,1.26,1.26,0,0,0-1.19-.71,1.28,1.28,0,0,0-1.18.71,5.11,5.11,0,0,0-.39,2.31,5.29,5.29,0,0,0,.39,2.33A1.27,1.27,0,0,0,40.47,65.22Z"/><line class="cls-3" x1="46.65" y1="61.82" x2="796.98" y2="61.82"/><path class="cls-1" d="M24.56,27.26a.57.57,0,0,1-.65-.64c0-.41.21-.61.65-.61h1.32V20.64l-1,.61a.59.59,0,0,1-.52.08A.64.64,0,0,1,24,21a.66.66,0,0,1-.07-.46.61.61,0,0,1,.33-.42l1.64-1a4.16,4.16,0,0,1,.47-.24,1.07,1.07,0,0,1,.44-.1.59.59,0,0,1,.41.14.53.53,0,0,1,.17.44V26h1.21c.43,0,.65.2.65.61a.57.57,0,0,1-.65.64Z"/><path class="cls-1" d="M31.39,27.26a.73.73,0,0,1-.55-.17.65.65,0,0,1-.17-.5.68.68,0,0,1,.11-.39,2.34,2.34,0,0,1,.3-.41l2.38-2.53a4,4,0,0,0,.78-1,2,2,0,0,0,.24-.94c0-.8-.48-1.21-1.45-1.21a3,3,0,0,0-1.63.5.53.53,0,0,1-.48.11.63.63,0,0,1-.35-.29.69.69,0,0,1-.07-.47.6.6,0,0,1,.3-.43A4.24,4.24,0,0,1,31.94,19a4.62,4.62,0,0,1,1.27-.17,3.12,3.12,0,0,1,2.06.6A2.13,2.13,0,0,1,36,21.13a3.07,3.07,0,0,1-.37,1.46,6.67,6.67,0,0,1-1.13,1.5L32.66,26h3.09c.43,0,.65.2.65.61a.57.57,0,0,1-.65.64Z"/><path class="cls-1" d="M40.47,27.38a2.58,2.58,0,0,1-2.26-1.12,5.53,5.53,0,0,1-.78-3.19,5.41,5.41,0,0,1,.78-3.18,2.9,2.9,0,0,1,4.53,0,5.39,5.39,0,0,1,.78,3.17,5.54,5.54,0,0,1-.78,3.2A2.6,2.6,0,0,1,40.47,27.38Zm0-1.24a1.25,1.25,0,0,0,1.19-.75,5.23,5.23,0,0,0,.39-2.33,5,5,0,0,0-.39-2.3A1.25,1.25,0,0,0,40.47,20a1.27,1.27,0,0,0-1.18.72,5,5,0,0,0-.39,2.3,5.23,5.23,0,0,0,.39,2.33A1.27,1.27,0,0,0,40.47,26.14Z"/><line class="cls-3" x1="46.65" y1="22.74" x2="796.98" y2="22.74"/><line class="cls-2" x1="73.18" y1="352.18" x2="199.7" y2="352.18"/><polygon class="cls-1" points="75.16 355.08 64.32 352.18 75.16 349.27 75.16 355.08"/><line class="cls-2" x1="461.62" y1="352.18" x2="335.09" y2="352.18"/><polygon class="cls-1" points="459.63 349.27 470.48 352.18 459.63 355.08 459.63 349.27"/><path class="cls-1" d="M217.48,356.31a5.55,5.55,0,0,1-2.82-.67,4.41,4.41,0,0,1-1.81-1.89,6.9,6.9,0,0,1,0-5.76,4.46,4.46,0,0,1,1.81-1.89,5.65,5.65,0,0,1,2.82-.66,5.91,5.91,0,0,1,1.62.21,4.81,4.81,0,0,1,1.4.6,1,1,0,0,1,.46.6.91.91,0,0,1-.09.65.84.84,0,0,1-.49.39.87.87,0,0,1-.74-.18,3.56,3.56,0,0,0-1-.43,4.53,4.53,0,0,0-1.1-.13,3.06,3.06,0,0,0-2.44,1,4.94,4.94,0,0,0,0,5.51,3,3,0,0,0,2.44,1,4.79,4.79,0,0,0,1.13-.14,4.41,4.41,0,0,0,1.05-.44.9.9,0,0,1,.72-.17.73.73,0,0,1,.47.37.85.85,0,0,1,.1.61,1,1,0,0,1-.41.58,4.51,4.51,0,0,1-1.43.67A6.44,6.44,0,0,1,217.48,356.31Z"/><path class="cls-1" d="M223.08,356.16a1,1,0,0,1-.74-.26.82.82,0,0,1-.21-.69,1.76,1.76,0,0,1,.36-.87l5.28-7.15h-4.84c-.57,0-.86-.27-.86-.81s.29-.8.86-.8h6.21a1,1,0,0,1,.74.27.82.82,0,0,1,.22.67,1.71,1.71,0,0,1-.38.88l-5.28,7.15h5.07c.57,0,.86.27.86.8s-.29.81-.86.81Z"/><path class="cls-1" d="M231.67,356.28a.82.82,0,0,1-.75-.36.87.87,0,0,1,0-.87l4-8.77a1.53,1.53,0,0,1,.47-.63,1.17,1.17,0,0,1,.64-.19,1.11,1.11,0,0,1,.62.19,1.45,1.45,0,0,1,.47.63l4,8.77a.92.92,0,0,1,0,.88.78.78,0,0,1-.72.35,1,1,0,0,1-.65-.2,1.68,1.68,0,0,1-.42-.62l-.75-1.75h-5.16l-.73,1.75a1.79,1.79,0,0,1-.41.62A.85.85,0,0,1,231.67,356.28Zm4.31-8.61-1.91,4.52h3.84l-1.9-4.52Z"/><path class="cls-1" d="M246.25,356.31a8,8,0,0,1-2-.23,5.1,5.1,0,0,1-1.65-.67.89.89,0,0,1-.42-.55,1,1,0,0,1,.05-.63.73.73,0,0,1,.41-.4.66.66,0,0,1,.63.11,5.16,5.16,0,0,0,1.4.57,6.43,6.43,0,0,0,1.54.18,2.92,2.92,0,0,0,1.73-.4,1.2,1.2,0,0,0,.54-1,1,1,0,0,0-.38-.83,3.4,3.4,0,0,0-1.32-.49l-1.65-.35c-1.88-.4-2.82-1.36-2.82-2.89a2.89,2.89,0,0,1,.53-1.73,3.4,3.4,0,0,1,1.45-1.14,5.36,5.36,0,0,1,2.15-.4,6.36,6.36,0,0,1,1.71.22,4.92,4.92,0,0,1,1.45.66.81.81,0,0,1,.36.52.86.86,0,0,1-.07.57.74.74,0,0,1-.43.36.85.85,0,0,1-.68-.13,4.3,4.3,0,0,0-1.13-.45,5.32,5.32,0,0,0-1.23-.14,2.66,2.66,0,0,0-1.62.44,1.35,1.35,0,0,0-.58,1.14,1.09,1.09,0,0,0,.36.86,2.63,2.63,0,0,0,1.23.51l1.63.34a4.68,4.68,0,0,1,2.22,1,2.35,2.35,0,0,1,.72,1.8,2.77,2.77,0,0,1-.51,1.66,3.2,3.2,0,0,1-1.44,1.12A5.61,5.61,0,0,1,246.25,356.31Z"/><path class="cls-1" d="M257.11,356.16a.86.86,0,0,1-1-1v-8.65a1,1,0,1,1,1.92,0v8h4.35c.56,0,.84.26.84.8a.74.74,0,0,1-.84.83Z"/><path class="cls-1" d="M265.59,356.16a.9.9,0,0,1-1-1v-8.53a.9.9,0,0,1,1-1h5.35q.78,0,.78.75a.69.69,0,0,1-.78.79h-4.53V350h4.2a.76.76,0,1,1,0,1.52h-4.2v3.08h4.53a.77.77,0,1,1,0,1.53Z"/><path class="cls-1" d="M278.43,356.31a5.59,5.59,0,0,1-2.83-.67,4.46,4.46,0,0,1-1.81-1.89,6.9,6.9,0,0,1,0-5.76,4.52,4.52,0,0,1,1.81-1.89,5.69,5.69,0,0,1,2.83-.66,5.91,5.91,0,0,1,1.62.21,4.75,4.75,0,0,1,1.39.6,1,1,0,0,1,.47.6.91.91,0,0,1-.09.65.79.79,0,0,1-1.23.21,3.62,3.62,0,0,0-1-.43,4.45,4.45,0,0,0-1.09-.13,3.09,3.09,0,0,0-2.45,1,4.94,4.94,0,0,0,0,5.51,3,3,0,0,0,2.45,1,4.71,4.71,0,0,0,1.12-.14,4.41,4.41,0,0,0,1.05-.44.9.9,0,0,1,.72-.17.78.78,0,0,1,.48.37.9.9,0,0,1,.09.61,1,1,0,0,1-.4.58,4.61,4.61,0,0,1-1.43.67A6.49,6.49,0,0,1,278.43,356.31Z"/><path class="cls-1" d="M284,356.16a1,1,0,0,1-.74-.26.85.85,0,0,1-.21-.69,1.79,1.79,0,0,1,.37-.87l5.28-7.15h-4.85c-.57,0-.85-.27-.85-.81s.28-.8.85-.8h6.21a1,1,0,0,1,.75.27.85.85,0,0,1,.21.67,1.69,1.69,0,0,1-.37.88l-5.28,7.15h5.07c.57,0,.85.27.85.8s-.28.81-.85.81Z"/><path class="cls-1" d="M293.68,356.16a.9.9,0,0,1-1-1v-8.53a.9.9,0,0,1,1-1H299q.78,0,.78.75a.69.69,0,0,1-.78.79h-4.53V350h4.2a.76.76,0,1,1,0,1.52h-4.2v3.08H299a.77.77,0,1,1,0,1.53Z"/><path class="cls-1" d="M302.52,356.28a.81.81,0,0,1-.9-.93v-8.93a1,1,0,0,1,.23-.71.81.81,0,0,1,.61-.25.87.87,0,0,1,.51.13,2.46,2.46,0,0,1,.42.43l5.35,6.94v-6.58a.9.9,0,1,1,1.79,0v9a1,1,0,0,1-.21.66.72.72,0,0,1-.57.24,1,1,0,0,1-.55-.13,2.27,2.27,0,0,1-.44-.44l-5.36-7v6.6C303.4,356,303.11,356.28,302.52,356.28Z"/><path class="cls-1" d="M313.8,356.28a.86.86,0,0,1-1-1v-8.83c0-.67.32-1,1-1s1,.33,1,1v8.83A.86.86,0,0,1,313.8,356.28Z"/><path class="cls-1" d="M317.17,356.28a.82.82,0,0,1-.75-.36.87.87,0,0,1,0-.87l4-8.77a1.45,1.45,0,0,1,.47-.63,1.15,1.15,0,0,1,.64-.19,1.13,1.13,0,0,1,.62.19,1.53,1.53,0,0,1,.47.63l4,8.77a.92.92,0,0,1,0,.88.78.78,0,0,1-.72.35,1,1,0,0,1-.66-.2,1.8,1.8,0,0,1-.41-.62l-.75-1.75h-5.16l-.73,1.75a1.79,1.79,0,0,1-.41.62A.85.85,0,0,1,317.17,356.28Zm4.31-8.61-1.91,4.52h3.84l-1.9-4.52Z"/></g><g id="Warstwa_2" data-name="Warstwa 2"><line class="cls-3" x1="64.32" y1="10.8" x2="64.32" y2="317.29"/><path class="cls-1" d="M64.32,329a2.62,2.62,0,0,1-2.27-1.12,5.55,5.55,0,0,1-.78-3.19,5.46,5.46,0,0,1,.78-3.19,2.65,2.65,0,0,1,2.27-1.09,2.61,2.61,0,0,1,2.26,1.09,5.45,5.45,0,0,1,.78,3.18,5.56,5.56,0,0,1-.78,3.2A2.61,2.61,0,0,1,64.32,329Zm0-1.25a1.26,1.26,0,0,0,1.19-.74,5.47,5.47,0,0,0,.38-2.33,5.27,5.27,0,0,0-.38-2.31,1.35,1.35,0,0,0-2.38,0,5.11,5.11,0,0,0-.39,2.31,5.29,5.29,0,0,0,.39,2.33A1.26,1.26,0,0,0,64.32,327.71Z"/><line class="cls-3" x1="132.01" y1="10.8" x2="132.01" y2="317.29"/><path class="cls-1" d="M126.75,328.84a.57.57,0,0,1-.65-.64c0-.41.22-.62.65-.62h1.33v-5.36l-1,.6a.62.62,0,0,1-.51.09.65.65,0,0,1-.35-.3.63.63,0,0,1-.07-.47.61.61,0,0,1,.33-.42l1.63-1a2.69,2.69,0,0,1,.48-.24,1,1,0,0,1,.43-.1.64.64,0,0,1,.42.13.55.55,0,0,1,.16.45v6.6h1.21c.44,0,.65.21.65.62a.57.57,0,0,1-.65.64Z"/><path class="cls-1" d="M135.63,329a5.1,5.1,0,0,1-1.27-.17,4,4,0,0,1-1.2-.51.67.67,0,0,1-.34-.43.69.69,0,0,1,.07-.47.55.55,0,0,1,.35-.3.64.64,0,0,1,.52.09,4,4,0,0,0,.89.38,3.32,3.32,0,0,0,1,.13,1.65,1.65,0,0,0,1.17-.39,1.32,1.32,0,0,0,.42-1,1.46,1.46,0,0,0-.41-1.07,1.43,1.43,0,0,0-1.1-.41,2.28,2.28,0,0,0-.73.12,2.11,2.11,0,0,0-.7.43,1.17,1.17,0,0,1-.27.19.74.74,0,0,1-.36.09.52.52,0,0,1-.6-.58v-3.88a.58.58,0,0,1,.66-.66h3.9q.66,0,.66.63t-.66.63h-3.08V324a2.46,2.46,0,0,1,1.54-.48,2.77,2.77,0,0,1,1.38.34,2.42,2.42,0,0,1,.91.94,3,3,0,0,1,0,2.83,2.53,2.53,0,0,1-1.05,1A3.52,3.52,0,0,1,135.63,329Z"/><line class="cls-3" x1="199.7" y1="10.8" x2="199.7" y2="317.29"/><path class="cls-1" d="M196,329a5.69,5.69,0,0,1-1.32-.17,3.61,3.61,0,0,1-1.2-.5.74.74,0,0,1-.35-.45.61.61,0,0,1,.06-.46.55.55,0,0,1,.36-.28.71.71,0,0,1,.55.09,4,4,0,0,0,.93.38,4.08,4.08,0,0,0,.93.11c1.06,0,1.6-.42,1.6-1.26a1,1,0,0,0-.4-.88,2,2,0,0,0-1.16-.29h-.75a.71.71,0,0,1-.51-.16.66.66,0,0,1-.17-.47.64.64,0,0,1,.17-.46.71.71,0,0,1,.51-.16h.61a1.62,1.62,0,0,0,1.06-.33,1.12,1.12,0,0,0,.39-.91,1,1,0,0,0-.36-.82,1.7,1.7,0,0,0-1.05-.29,3.15,3.15,0,0,0-.83.1,3.66,3.66,0,0,0-.84.37.56.56,0,0,1-.5.09.61.61,0,0,1-.35-.28.66.66,0,0,1-.08-.46.67.67,0,0,1,.34-.42,4.29,4.29,0,0,1,2.39-.68,3.12,3.12,0,0,1,2,.59,2,2,0,0,1,.73,1.63,2.05,2.05,0,0,1-.35,1.18,1.87,1.87,0,0,1-.93.73,2,2,0,0,1,1.52,2.05,2.11,2.11,0,0,1-.8,1.76A3.47,3.47,0,0,1,196,329Z"/><path class="cls-1" d="M203.26,329a2.61,2.61,0,0,1-2.27-1.12,5.55,5.55,0,0,1-.78-3.19,5.46,5.46,0,0,1,.78-3.19,2.64,2.64,0,0,1,2.27-1.09,2.61,2.61,0,0,1,2.26,1.09,5.45,5.45,0,0,1,.78,3.18,5.56,5.56,0,0,1-.78,3.2A2.61,2.61,0,0,1,203.26,329Zm0-1.25a1.26,1.26,0,0,0,1.19-.74,5.47,5.47,0,0,0,.38-2.33,5.27,5.27,0,0,0-.38-2.31,1.35,1.35,0,0,0-2.38,0,5.11,5.11,0,0,0-.39,2.31,5.29,5.29,0,0,0,.39,2.33A1.26,1.26,0,0,0,203.26,327.71Z"/><line class="cls-3" x1="470.48" y1="10.8" x2="470.48" y2="317.29"/><path class="cls-4" d="M466.19,329a4.32,4.32,0,0,1-1-.12,4.05,4.05,0,0,1-.94-.35.89.89,0,0,1-.4-.39,1,1,0,0,1-.08-.51,1.13,1.13,0,0,1,.19-.48.8.8,0,0,1,.41-.29.82.82,0,0,1,.58.07,2.84,2.84,0,0,0,.66.22,3.11,3.11,0,0,0,.59.06c1.19,0,1.78-.73,1.78-2.2v-.08a1.82,1.82,0,0,1-.74.79,2.38,2.38,0,0,1-2.36-.07,2.38,2.38,0,0,1-.87-1,3,3,0,0,1-.32-1.4,2.93,2.93,0,0,1,.37-1.5,2.59,2.59,0,0,1,1-1,2.93,2.93,0,0,1,1.5-.37,3.08,3.08,0,0,1,2.54,1.1,4.84,4.84,0,0,1,.9,3.13,5.68,5.68,0,0,1-.46,2.36,3.33,3.33,0,0,1-1.32,1.5A3.89,3.89,0,0,1,466.19,329Zm.52-4.65a1,1,0,0,0,.74-.32,1.39,1.39,0,0,0,0-1.67,1,1,0,0,0-1.48,0,1.39,1.39,0,0,0,0,1.67A1,1,0,0,0,466.71,324.32Z"/><path class="cls-4" d="M474,329a2.75,2.75,0,0,1-2.37-1.13,5.44,5.44,0,0,1-.82-3.2,5.29,5.29,0,0,1,.82-3.18,3.1,3.1,0,0,1,4.74,0,5.25,5.25,0,0,1,.81,3.16,5.49,5.49,0,0,1-.81,3.22A2.76,2.76,0,0,1,474,329Zm0-1.73a.91.91,0,0,0,.85-.62,5.38,5.38,0,0,0,.27-2,5,5,0,0,0-.27-1.94.91.91,0,0,0-1.7,0,5,5,0,0,0-.28,1.94,5.34,5.34,0,0,0,.28,2A.91.91,0,0,0,474,327.24Z"/><line class="cls-3" x1="605.86" y1="61.82" x2="605.86" y2="317.29"/><path class="cls-1" d="M597.05,328.84a.57.57,0,0,1-.65-.64c0-.41.22-.62.65-.62h1.33v-5.36l-1,.6a.57.57,0,0,1-.86-.21.69.69,0,0,1-.08-.47.66.66,0,0,1,.34-.42l1.63-1a2.69,2.69,0,0,1,.48-.24,1,1,0,0,1,.43-.1.64.64,0,0,1,.42.13.55.55,0,0,1,.16.45v6.6h1.21c.44,0,.65.21.65.62a.57.57,0,0,1-.65.64Z"/><path class="cls-1" d="M603.88,328.84a.79.79,0,0,1-.55-.17.7.7,0,0,1-.17-.5.83.83,0,0,1,.11-.4,2,2,0,0,1,.31-.4l2.38-2.53a4.75,4.75,0,0,0,.78-1,2,2,0,0,0,.23-.94c0-.81-.48-1.21-1.45-1.21a3.22,3.22,0,0,0-.81.11,3,3,0,0,0-.81.39.55.55,0,0,1-.49.1.54.54,0,0,1-.34-.29.67.67,0,0,1-.08-.46.66.66,0,0,1,.3-.43,4,4,0,0,1,1.14-.52,4.71,4.71,0,0,1,1.28-.18,3,3,0,0,1,2,.61,2.13,2.13,0,0,1,.72,1.73,3.11,3.11,0,0,1-.36,1.45,6.79,6.79,0,0,1-1.13,1.51l-1.84,1.91h3.09c.44,0,.65.21.65.62a.57.57,0,0,1-.65.64Z"/><path class="cls-1" d="M613,329a2.59,2.59,0,0,1-2.26-1.12,5.47,5.47,0,0,1-.79-3.19,5.38,5.38,0,0,1,.79-3.19,2.9,2.9,0,0,1,4.53,0,7,7,0,0,1,0,6.38A2.59,2.59,0,0,1,613,329Zm0-1.25a1.26,1.26,0,0,0,1.19-.74,5.31,5.31,0,0,0,.38-2.33,5.13,5.13,0,0,0-.38-2.31,1.35,1.35,0,0,0-2.38,0,5.11,5.11,0,0,0-.39,2.31,5.29,5.29,0,0,0,.39,2.33A1.26,1.26,0,0,0,613,327.71Z"/><line class="cls-3" x1="741.25" y1="10.8" x2="741.25" y2="317.29"/><path class="cls-1" d="M732.44,328.84a.57.57,0,0,1-.65-.64c0-.41.21-.62.65-.62h1.32v-5.36l-1,.6a.64.64,0,0,1-.52.09.67.67,0,0,1-.42-.77.61.61,0,0,1,.33-.42l1.64-1a2.32,2.32,0,0,1,.47-.24,1.07,1.07,0,0,1,.44-.1.63.63,0,0,1,.41.13.55.55,0,0,1,.17.45v6.6h1.21c.43,0,.65.21.65.62a.57.57,0,0,1-.65.64Z"/><path class="cls-1" d="M741.32,329a5.18,5.18,0,0,1-1.28-.17,4.26,4.26,0,0,1-1.2-.51.67.67,0,0,1-.27-.9.61.61,0,0,1,.35-.3.67.67,0,0,1,.53.09,4.18,4.18,0,0,0,.88.38,3.42,3.42,0,0,0,1,.13,1.65,1.65,0,0,0,1.17-.39,1.32,1.32,0,0,0,.42-1,1.39,1.39,0,0,0-1.5-1.48,2.3,2.3,0,0,0-.74.12,2.21,2.21,0,0,0-.7.43,1.17,1.17,0,0,1-.27.19.73.73,0,0,1-.35.09c-.41,0-.61-.2-.61-.58v-3.88a.59.59,0,0,1,.67-.66h3.89c.44,0,.67.21.67.63s-.23.63-.67.63h-3.08V324a2.46,2.46,0,0,1,1.54-.48,2.77,2.77,0,0,1,1.38.34,2.35,2.35,0,0,1,.91.94,2.83,2.83,0,0,1,.33,1.39,2.76,2.76,0,0,1-.37,1.44,2.47,2.47,0,0,1-1.05,1A3.51,3.51,0,0,1,741.32,329Z"/><path class="cls-1" d="M748.35,329a2.61,2.61,0,0,1-2.26-1.12,5.55,5.55,0,0,1-.78-3.19,5.46,5.46,0,0,1,.78-3.19,2.9,2.9,0,0,1,4.53,0,5.45,5.45,0,0,1,.78,3.18,5.56,5.56,0,0,1-.78,3.2A2.62,2.62,0,0,1,748.35,329Zm0-1.25a1.24,1.24,0,0,0,1.19-.74,5.29,5.29,0,0,0,.39-2.33,5.11,5.11,0,0,0-.39-2.31,1.25,1.25,0,0,0-1.19-.71,1.26,1.26,0,0,0-1.18.71,5.11,5.11,0,0,0-.39,2.31,5.29,5.29,0,0,0,.39,2.33A1.26,1.26,0,0,0,748.35,327.71Z"/></g><g id="Warstwa_4" data-name="Warstwa 4"><polyline class="cls-5" points="64.32 21.55 131.9 63.22 199.77 81.98 470.48 131.56 605.86 128.27 741.25 148.8"/><circle class="cls-6" cx="64.32" cy="21.05" r="5.99"/><line class="cls-7" x1="64.32" y1="0.52" x2="64.32" y2="15.07"/><line class="cls-7" x1="69.47" y1="1.43" x2="59.16" y2="1.43"/><line class="cls-7" x1="64.32" y1="42.59" x2="64.32" y2="28.04"/><line class="cls-7" x1="59.16" y1="41.67" x2="69.47" y2="41.67"/><circle class="cls-6" cx="131.4" cy="62.72" r="5.99"/><line class="cls-7" x1="131.4" y1="42.18" x2="131.4" y2="56.73"/><line class="cls-7" x1="136.55" y1="43.1" x2="126.25" y2="43.1"/><line class="cls-7" x1="131.4" y1="84.25" x2="131.4" y2="69.7"/><line class="cls-7" x1="126.25" y1="83.33" x2="136.55" y2="83.33"/><circle class="cls-6" cx="198.85" cy="81.98" r="5.99"/><line class="cls-7" x1="198.85" y1="61.44" x2="198.85" y2="75.99"/><line class="cls-7" x1="204.01" y1="62.36" x2="193.7" y2="62.36"/><line class="cls-7" x1="198.85" y1="103.51" x2="198.85" y2="88.96"/><line class="cls-7" x1="193.7" y1="102.6" x2="204.01" y2="102.6"/><circle class="cls-6" cx="470.48" cy="131.06" r="5.99"/><line class="cls-7" x1="470.48" y1="110.53" x2="470.48" y2="125.07"/><line class="cls-7" x1="475.63" y1="111.44" x2="465.32" y2="111.44"/><line class="cls-7" x1="470.48" y1="152.59" x2="470.48" y2="138.04"/><line class="cls-7" x1="465.32" y1="151.68" x2="475.63" y2="151.68"/><circle class="cls-6" cx="605.55" cy="127.96" r="5.99"/><line class="cls-7" x1="605.55" y1="107.42" x2="605.55" y2="121.97"/><line class="cls-7" x1="610.7" y1="108.34" x2="600.39" y2="108.34"/><line class="cls-7" x1="605.55" y1="149.49" x2="605.55" y2="134.94"/><line class="cls-7" x1="600.39" y1="148.57" x2="610.7" y2="148.57"/><circle class="cls-6" cx="740.42" cy="148.99" r="5.99"/><line class="cls-7" x1="740.42" y1="128.45" x2="740.42" y2="143"/><line class="cls-7" x1="745.57" y1="129.37" x2="735.26" y2="129.37"/><line class="cls-7" x1="740.42" y1="170.52" x2="740.42" y2="155.97"/><line class="cls-7" x1="735.26" y1="169.61" x2="745.57" y2="169.61"/></g><g id="Warstwa_5" data-name="Warstwa 5"><polyline class="cls-8" points="64.22 61.66 131.68 101.75 199.77 160.64 470.48 237.4 605.86 249.81 741.25 257.2"/><circle class="cls-9" cx="64.22" cy="62.44" r="5.99"/><line class="cls-10" x1="64.22" y1="41.91" x2="64.22" y2="56.45"/><line class="cls-10" x1="69.37" y1="42.82" x2="59.06" y2="42.82"/><line class="cls-10" x1="64.22" y1="83.97" x2="64.22" y2="69.42"/><line class="cls-10" x1="59.06" y1="83.06" x2="69.37" y2="83.06"/><circle class="cls-9" cx="132.01" cy="101.52" r="5.99"/><line class="cls-10" x1="132.01" y1="80.98" x2="132.01" y2="95.53"/><line class="cls-10" x1="137.17" y1="81.9" x2="126.86" y2="81.9"/><line class="cls-10" x1="132.01" y1="123.05" x2="132.01" y2="108.5"/><line class="cls-10" x1="126.86" y1="122.13" x2="137.17" y2="122.13"/><circle class="cls-9" cx="198.85" cy="160.14" r="5.99"/><line class="cls-10" x1="198.85" y1="139.61" x2="198.85" y2="154.16"/><line class="cls-10" x1="204.01" y1="140.52" x2="193.7" y2="140.52"/><line class="cls-10" x1="198.85" y1="181.68" x2="198.85" y2="167.13"/><line class="cls-10" x1="193.7" y1="180.76" x2="204.01" y2="180.76"/><circle class="cls-9" cx="470.48" cy="238.29" r="5.99"/><line class="cls-10" x1="470.48" y1="217.75" x2="470.48" y2="232.3"/><line class="cls-10" x1="475.63" y1="218.67" x2="465.32" y2="218.67"/><line class="cls-10" x1="470.48" y1="259.82" x2="470.48" y2="245.27"/><line class="cls-10" x1="465.32" y1="258.9" x2="475.63" y2="258.9"/><circle class="cls-9" cx="605.55" cy="252.05" r="5.99"/><line class="cls-10" x1="605.55" y1="231.51" x2="605.55" y2="246.06"/><line class="cls-10" x1="610.7" y1="232.43" x2="600.39" y2="232.43"/><line class="cls-10" x1="605.55" y1="273.58" x2="605.55" y2="259.03"/><line class="cls-10" x1="600.39" y1="272.66" x2="610.7" y2="272.66"/><circle class="cls-9" cx="739.5" cy="259.32" r="5.99"/><line class="cls-10" x1="739.5" y1="238.79" x2="739.5" y2="253.33"/><line class="cls-10" x1="744.66" y1="239.7" x2="734.35" y2="239.7"/><line class="cls-10" x1="739.5" y1="280.85" x2="739.5" y2="266.3"/><line class="cls-10" x1="734.35" y1="279.94" x2="744.66" y2="279.94"/><path class="cls-1" d="M469,271c-.27-.16-.31-.4-.1-.72l.88-1.4-1.63.06a.76.76,0,0,1-.43-.11.39.39,0,0,1-.16-.34.35.35,0,0,1,.16-.32.63.63,0,0,1,.43-.1l1.65.06-.89-1.42q-.31-.48.09-.72a.38.38,0,0,1,.37,0,.71.71,0,0,1,.31.33l.78,1.5.77-1.5a.71.71,0,0,1,.31-.33.42.42,0,0,1,.39,0c.25.17.27.41.07.73l-.88,1.41,1.65-.06a.6.6,0,0,1,.42.1.35.35,0,0,1,.16.32.39.39,0,0,1-.16.34.72.72,0,0,1-.42.11l-1.64-.06.87,1.4c.21.32.19.55-.07.7a.37.37,0,0,1-.39.05.71.71,0,0,1-.31-.33l-.77-1.5-.8,1.5a.7.7,0,0,1-.3.33A.34.34,0,0,1,469,271Z"/><path class="cls-1" d="M198.25,193.86c-.27-.16-.31-.4-.11-.72l.89-1.39-1.64.05a.66.66,0,0,1-.42-.11.38.38,0,0,1-.16-.34A.36.36,0,0,1,197,191a.6.6,0,0,1,.42-.09L199,191l-.88-1.43q-.32-.48.09-.72a.38.38,0,0,1,.37,0,.73.73,0,0,1,.3.34l.78,1.5.78-1.5a.74.74,0,0,1,.31-.34.4.4,0,0,1,.38,0c.25.17.28.42.08.73l-.89,1.42,1.65-.06a.63.63,0,0,1,.43.09.36.36,0,0,1,.16.32.38.38,0,0,1-.16.34.69.69,0,0,1-.43.11l-1.63-.05.87,1.39c.21.32.18.55-.08.7a.34.34,0,0,1-.38,0,.71.71,0,0,1-.31-.33l-.78-1.5-.79,1.5a.7.7,0,0,1-.3.33A.34.34,0,0,1,198.25,193.86Z"/><path class="cls-1" d="M130.39,135.49c-.27-.16-.31-.4-.11-.72l.89-1.39-1.64.06a.66.66,0,0,1-.42-.12A.36.36,0,0,1,129,133a.38.38,0,0,1,.16-.33.66.66,0,0,1,.42-.09l1.65.06-.88-1.43q-.31-.48.09-.72a.38.38,0,0,1,.37,0,.7.7,0,0,1,.3.33l.78,1.5.78-1.5a.71.71,0,0,1,.31-.33.39.39,0,0,1,.38,0c.25.17.28.42.08.74l-.89,1.41,1.65-.06a.69.69,0,0,1,.43.09.38.38,0,0,1,.16.33.36.36,0,0,1-.16.33.69.69,0,0,1-.43.12l-1.63-.06.87,1.39c.21.32.18.56-.08.71a.35.35,0,0,1-.38,0,.71.71,0,0,1-.31-.33l-.78-1.5-.79,1.5a.7.7,0,0,1-.3.33A.34.34,0,0,1,130.39,135.49Z"/><path class="cls-1" d="M601,286.45c-.27-.16-.3-.4-.1-.72l.88-1.39-1.63.06a.76.76,0,0,1-.43-.11.39.39,0,0,1-.16-.34.35.35,0,0,1,.16-.32.63.63,0,0,1,.43-.1l1.65.06-.89-1.43q-.32-.48.09-.72a.38.38,0,0,1,.37,0,.71.71,0,0,1,.31.33l.78,1.5.78-1.5a.7.7,0,0,1,.3-.33.41.41,0,0,1,.39,0c.25.17.27.42.07.74l-.88,1.41,1.65-.06a.6.6,0,0,1,.42.1.35.35,0,0,1,.16.32.39.39,0,0,1-.16.34.72.72,0,0,1-.42.11l-1.64-.06.87,1.39c.21.32.19.56-.07.71a.37.37,0,0,1-.39,0,.7.7,0,0,1-.3-.33l-.78-1.5-.8,1.5a.7.7,0,0,1-.3.33A.34.34,0,0,1,601,286.45Z"/><path class="cls-1" d="M607.78,286.45c-.27-.16-.3-.4-.1-.72l.88-1.39-1.63.06a.76.76,0,0,1-.43-.11.39.39,0,0,1-.16-.34.35.35,0,0,1,.16-.32.63.63,0,0,1,.43-.1l1.65.06-.89-1.43q-.32-.48.09-.72a.38.38,0,0,1,.37,0,.71.71,0,0,1,.31.33l.78,1.5.78-1.5a.7.7,0,0,1,.3-.33.41.41,0,0,1,.39,0c.25.17.27.42.07.74l-.88,1.41,1.65-.06a.6.6,0,0,1,.42.1.35.35,0,0,1,.16.32.39.39,0,0,1-.16.34.72.72,0,0,1-.42.11l-1.64-.06.87,1.39c.21.32.19.56-.07.71a.37.37,0,0,1-.39,0,.7.7,0,0,1-.3-.33l-.78-1.5-.8,1.5a.7.7,0,0,1-.3.33A.34.34,0,0,1,607.78,286.45Z"/><path class="cls-1" d="M735.59,291.8c-.27-.16-.31-.4-.11-.72l.89-1.4-1.64.06a.71.71,0,0,1-.43-.11.39.39,0,0,1-.15-.34.38.38,0,0,1,.15-.32.71.71,0,0,1,.43-.1l1.65.06-.88-1.42q-.32-.48.09-.72a.36.36,0,0,1,.36,0,.67.67,0,0,1,.31.33l.78,1.5.78-1.5a.67.67,0,0,1,.31-.33.4.4,0,0,1,.38,0c.25.17.28.41.08.73l-.89,1.41,1.65-.06a.71.71,0,0,1,.43.1.39.39,0,0,1,.16.32.4.4,0,0,1-.16.34.71.71,0,0,1-.43.11l-1.63-.06.87,1.4c.21.32.18.55-.08.7a.36.36,0,0,1-.38.05.67.67,0,0,1-.31-.33L737,290l-.79,1.5a.7.7,0,0,1-.3.33A.34.34,0,0,1,735.59,291.8Z"/><path class="cls-1" d="M742.34,291.8c-.27-.16-.31-.4-.11-.72l.89-1.4-1.64.06a.71.71,0,0,1-.43-.11.39.39,0,0,1-.15-.34.38.38,0,0,1,.15-.32.71.71,0,0,1,.43-.1l1.65.06-.88-1.42q-.32-.48.09-.72a.36.36,0,0,1,.36,0,.67.67,0,0,1,.31.33l.78,1.5.78-1.5a.67.67,0,0,1,.31-.33.4.4,0,0,1,.38,0c.25.17.28.41.08.73l-.89,1.41,1.65-.06a.71.71,0,0,1,.43.1.39.39,0,0,1,.16.32.4.4,0,0,1-.16.34.71.71,0,0,1-.43.11l-1.63-.06.87,1.4c.21.32.18.55-.08.7a.36.36,0,0,1-.38.05.67.67,0,0,1-.31-.33l-.78-1.5-.79,1.5a.7.7,0,0,1-.3.33A.34.34,0,0,1,742.34,291.8Z"/></g><g id="Warstwa_6" data-name="Warstwa 6"><path class="cls-4" d="M493.26,46.21a2.07,2.07,0,0,1-2.12-2.12,2,2,0,0,1,.61-1.49,2.07,2.07,0,0,1,1.51-.59h6a2.07,2.07,0,0,1,1.51.59,2,2,0,0,1,.61,1.49,2.07,2.07,0,0,1-2.12,2.12Z"/><path class="cls-4" d="M511.88,52.56a14.55,14.55,0,0,1-3.06-.34,11.76,11.76,0,0,1-3-1,2.39,2.39,0,0,1-1.13-1.11,2.41,2.41,0,0,1,.3-2.6,2.2,2.2,0,0,1,1.13-.71,2.05,2.05,0,0,1,1.51.25,9.67,9.67,0,0,0,2.08.72,9.14,9.14,0,0,0,2,.24,3.8,3.8,0,0,0,2.39-.66,2.24,2.24,0,0,0,.85-1.88,2.35,2.35,0,0,0-.82-1.88,3.15,3.15,0,0,0-2.17-.71,5.41,5.41,0,0,0-1.32.18,4.69,4.69,0,0,0-1.46.69c-.25.12-.55.26-.93.41a3.08,3.08,0,0,1-1.16.23c-1.41,0-2.11-.66-2.11-2V33.27a2.07,2.07,0,0,1,2.35-2.35h9.49a2,2,0,0,1,2.33,2.26c0,1.5-.78,2.24-2.33,2.24h-6.62v3.75a6.78,6.78,0,0,1,3.21-.73,7.19,7.19,0,0,1,3.56.86,6.2,6.2,0,0,1,2.41,2.41,7.25,7.25,0,0,1,.86,3.59,7.15,7.15,0,0,1-1,3.83,6.73,6.73,0,0,1-2.9,2.54A10.39,10.39,0,0,1,511.88,52.56Z"/><path class="cls-4" d="M530.16,52.56a7,7,0,0,1-6-2.89C522.73,47.75,522,45,522,41.5s.7-6.26,2.09-8.12a7.93,7.93,0,0,1,12.09,0q2.09,2.79,2.08,8.09c0,3.54-.69,6.28-2.08,8.2A7,7,0,0,1,530.16,52.56Zm0-4.42a2.28,2.28,0,0,0,2.16-1.58,13.45,13.45,0,0,0,.71-5.09,12.63,12.63,0,0,0-.71-5,2.31,2.31,0,0,0-4.32,0,12.63,12.63,0,0,0-.71,5,13.45,13.45,0,0,0,.71,5.09A2.28,2.28,0,0,0,530.16,48.14Z"/><path class="cls-4" d="M545.82,43.61a5.18,5.18,0,0,1-4.22-1.8,7.18,7.18,0,0,1-1.5-4.76,7,7,0,0,1,1.52-4.73,5.87,5.87,0,0,1,8.37,0,7,7,0,0,1,1.51,4.7,7.18,7.18,0,0,1-1.5,4.76A5.14,5.14,0,0,1,545.82,43.61Zm0-3.32a1.14,1.14,0,0,0,1-.73,6,6,0,0,0,.37-2.51,5.72,5.72,0,0,0-.38-2.48,1.15,1.15,0,0,0-1-.69,1.17,1.17,0,0,0-1.09.68,5.89,5.89,0,0,0-.36,2.49,6.13,6.13,0,0,0,.36,2.54A1.15,1.15,0,0,0,545.82,40.29Zm4.38,11.39a2,2,0,0,1-1.29,1,2,2,0,0,1-1.43-.24,2.08,2.08,0,0,1-.92-1.14,1.85,1.85,0,0,1,.25-1.61l10.58-18.23a2,2,0,0,1,1.27-1.06,1.92,1.92,0,0,1,1.42.25,2.06,2.06,0,0,1,.92,1.13,1.91,1.91,0,0,1-.25,1.62Zm11.57.88a5.16,5.16,0,0,1-4.18-1.79,7.11,7.11,0,0,1-1.5-4.74,7.07,7.07,0,0,1,1.51-4.75,5.84,5.84,0,0,1,8.37,0A7,7,0,0,1,567.49,46a7.11,7.11,0,0,1-1.5,4.74A5.2,5.2,0,0,1,561.77,52.56Zm0-3.3a1.18,1.18,0,0,0,1.08-.72,6,6,0,0,0,.37-2.51,5.73,5.73,0,0,0-.37-2.48,1.19,1.19,0,0,0-1.08-.69,1.14,1.14,0,0,0-1,.66,5.71,5.71,0,0,0-.37,2.51,5.91,5.91,0,0,0,.37,2.52A1.12,1.12,0,0,0,561.77,49.26Z"/><path class="cls-4" d="M572.08,41.74a1.55,1.55,0,0,1-.83-1.11,1.86,1.86,0,0,1,.41-1.4L572.5,38l-1.42.09a1.92,1.92,0,0,1-1.42-.33,1.76,1.76,0,0,1,0-2.54,2,2,0,0,1,1.42-.36l1.42.12-.81-1.24a2,2,0,0,1-.41-1.42,1.61,1.61,0,0,1,.86-1.12,1.47,1.47,0,0,1,1.38-.14,2,2,0,0,1,1,1.14l.75,1.69.73-1.69a1.91,1.91,0,0,1,1-1.14,1.45,1.45,0,0,1,1.39.17,1.56,1.56,0,0,1,.87,1.13,2,2,0,0,1-.42,1.41L578,35l1.42-.09a1.93,1.93,0,0,1,1.44.33,1.79,1.79,0,0,1,0,2.54,1.93,1.93,0,0,1-1.44.33L578,38l.85,1.24a2,2,0,0,1,.42,1.39,1.57,1.57,0,0,1-.87,1.12,1.47,1.47,0,0,1-1.38.18,2,2,0,0,1-1-1.12L575.25,39l-.78,1.75a2.06,2.06,0,0,1-1,1.13A1.42,1.42,0,0,1,572.08,41.74Z"/><path class="cls-4" d="M602.33,52.8a.5.5,0,0,1-.56-.57V43.85c0-.38.18-.57.55-.57a.5.5,0,0,1,.57.57v.73a2.24,2.24,0,0,1,.91-1,2.75,2.75,0,0,1,1.42-.36,2.94,2.94,0,0,1,1.58.43,2.68,2.68,0,0,1,1.05,1.22,4.82,4.82,0,0,1,0,3.75,2.68,2.68,0,0,1-1.05,1.22,2.86,2.86,0,0,1-1.58.44,2.8,2.8,0,0,1-1.4-.35,2.13,2.13,0,0,1-.91-1v3.24A.51.51,0,0,1,602.33,52.8ZM605,49.4a1.9,1.9,0,0,0,1.52-.68,3.55,3.55,0,0,0,0-3.89,2.07,2.07,0,0,0-3,0,3.6,3.6,0,0,0,0,3.89A1.9,1.9,0,0,0,605,49.4Z"/><path class="cls-4" d="M612.76,50.31a3.31,3.31,0,0,1-1.72-.44,2.84,2.84,0,0,1-1.13-1.22,4.57,4.57,0,0,1,0-3.74A2.9,2.9,0,0,1,611,43.69a3.58,3.58,0,0,1,3.44,0,2.9,2.9,0,0,1,1.13,1.22,4.57,4.57,0,0,1,0,3.74,2.84,2.84,0,0,1-1.13,1.22A3.31,3.31,0,0,1,612.76,50.31Zm0-.91a1.9,1.9,0,0,0,1.53-.68,3.6,3.6,0,0,0,0-3.89,2.08,2.08,0,0,0-3.06,0,3.6,3.6,0,0,0,0,3.89A1.9,1.9,0,0,0,612.76,49.4Z"/><path class="cls-4" d="M618.31,50.28c-.38,0-.56-.2-.56-.59V43.85q0-.57.54-.57a.5.5,0,0,1,.56.57v.68a2.27,2.27,0,0,1,.86-1,2.4,2.4,0,0,1,1.27-.33,1.91,1.91,0,0,1,2,1.39,2.43,2.43,0,0,1,.91-1,2.7,2.7,0,0,1,1.39-.37c1.51,0,2.27.9,2.27,2.69v3.75a.52.52,0,0,1-.58.59c-.37,0-.56-.2-.56-.59V46a2.3,2.3,0,0,0-.33-1.38,1.23,1.23,0,0,0-1.08-.44,1.64,1.64,0,0,0-1.32.58,2.43,2.43,0,0,0-.49,1.57v3.36a.51.51,0,0,1-.57.59c-.37,0-.56-.2-.56-.59V46a2.3,2.3,0,0,0-.33-1.38,1.24,1.24,0,0,0-1.08-.44,1.64,1.64,0,0,0-1.33.58,2.43,2.43,0,0,0-.48,1.57v3.36A.51.51,0,0,1,618.31,50.28Z"/><path class="cls-4" d="M630.26,41.74c-.49,0-.74-.23-.74-.7s.25-.69.74-.69.74.23.74.69S630.76,41.74,630.26,41.74Zm0,8.51c-.37,0-.56-.2-.56-.61V43.91c0-.4.19-.6.56-.6a.52.52,0,0,1,.58.6v5.73C630.84,50.05,630.64,50.25,630.26,50.25Z"/><path class="cls-4" d="M636,50.31a3.42,3.42,0,0,1-2.55-1,3.46,3.46,0,0,1-.94-2.57,3.94,3.94,0,0,1,.42-1.85,3.09,3.09,0,0,1,1.15-1.25,3.3,3.3,0,0,1,1.71-.44,2.77,2.77,0,0,1,2.17.89,3.57,3.57,0,0,1,.78,2.44c0,.29-.16.44-.49.44h-4.63a2.55,2.55,0,0,0,.67,1.77,2.31,2.31,0,0,0,1.71.61,3.77,3.77,0,0,0,.93-.12,2.79,2.79,0,0,0,.93-.43.49.49,0,0,1,.54-.08.42.42,0,0,1,.22.38.52.52,0,0,1-.29.46,3.4,3.4,0,0,1-1.1.52A4.47,4.47,0,0,1,636,50.31Zm-.19-6.22a2,2,0,0,0-1.52.6,2.59,2.59,0,0,0-.66,1.59h4.13a2.56,2.56,0,0,0-.54-1.61A1.74,1.74,0,0,0,635.83,44.09Zm.77,8.78a1.56,1.56,0,0,1-1.07-.36,1.32,1.32,0,0,1-.4-1,1.76,1.76,0,0,1,.36-1,2.52,2.52,0,0,1,1-.78l.41.5a2,2,0,0,0-.63.46,1,1,0,0,0-.29.75.69.69,0,0,0,.23.59.85.85,0,0,0,.58.19,1.85,1.85,0,0,0,.49-.08c.17-.05.29,0,.35.07a.38.38,0,0,1,.07.33.34.34,0,0,1-.24.25,1.31,1.31,0,0,1-.42.11Z"/><path class="cls-4" d="M643,50.31a2.87,2.87,0,0,1-1.59-.44,2.8,2.8,0,0,1-1-1.22,4.94,4.94,0,0,1,0-3.75,2.8,2.8,0,0,1,1-1.22,3,3,0,0,1,1.59-.43,2.77,2.77,0,0,1,1.4.35,2.24,2.24,0,0,1,.91,1V40.79a.51.51,0,0,1,.57-.58c.38,0,.56.2.56.58v8.9c0,.39-.18.59-.56.59s-.56-.2-.56-.59V49a2.25,2.25,0,0,1-.92,1A2.68,2.68,0,0,1,643,50.31Zm.24-.91a1.9,1.9,0,0,0,1.52-.68,3.55,3.55,0,0,0,0-3.89,2.08,2.08,0,0,0-3.06,0,3.66,3.66,0,0,0,0,3.89A1.91,1.91,0,0,0,643.23,49.4Z"/><path class="cls-4" d="M648.69,50.18a.4.4,0,0,1-.45-.31.67.67,0,0,1,.18-.63l3.74-5h-3.53a.4.4,0,0,1-.46-.45c0-.29.15-.43.46-.43h4.3a.48.48,0,0,1,.52.3.64.64,0,0,1-.16.61l-3.78,5h3.7c.3,0,.46.15.46.43a.4.4,0,0,1-.46.45Z"/><path class="cls-4" d="M656.47,52.8a.42.42,0,0,1-.43-.24.68.68,0,0,1,0-.56l.85-1.93-2.57-6a.59.59,0,0,1,0-.56.53.53,0,0,1,.51-.24.62.62,0,0,1,.58.45l2.11,5.16,2.13-5.16a.76.76,0,0,1,.24-.35.53.53,0,0,1,.36-.1.43.43,0,0,1,.43.24.64.64,0,0,1,0,.54l-3.58,8.29a.85.85,0,0,1-.25.35A.58.58,0,0,1,656.47,52.8Z"/><path class="cls-4" d="M666.55,50.18a.56.56,0,0,1-.63-.63V40.94a.56.56,0,0,1,.63-.63h2.7a5.07,5.07,0,0,1,3.7,1.27,4.85,4.85,0,0,1,1.3,3.66,4.89,4.89,0,0,1-1.3,3.67,5.07,5.07,0,0,1-3.7,1.27Zm.52-1h2.1q3.86,0,3.86-4t-3.86-4h-2.1Z"/><path class="cls-4" d="M679.29,50.31a2.94,2.94,0,0,1-2.58-1.3,6.71,6.71,0,0,1-.88-3.77,6.67,6.67,0,0,1,.88-3.77,3,3,0,0,1,2.58-1.28,2.9,2.9,0,0,1,2.58,1.28,6.59,6.59,0,0,1,.88,3.76,6.72,6.72,0,0,1-.89,3.78A3,3,0,0,1,679.29,50.31Zm0-1a1.87,1.87,0,0,0,1.74-1,6.4,6.4,0,0,0,.57-3.08,6.49,6.49,0,0,0-.56-3.08,2,2,0,0,0-3.49,0,6.33,6.33,0,0,0-.57,3.07,6.4,6.4,0,0,0,.57,3.08A1.85,1.85,0,0,0,679.29,49.31Z"/><path class="cls-4" d="M690.31,50.31a2.84,2.84,0,0,1-1.26-.27,2.29,2.29,0,0,1-.87-.75,1.84,1.84,0,0,1-.32-1.07,1.68,1.68,0,0,1,.38-1.17,2.33,2.33,0,0,1,1.28-.63,12.63,12.63,0,0,1,2.42-.19h.45V45.8a1.83,1.83,0,0,0-.35-1.25,1.49,1.49,0,0,0-1.15-.39,3.72,3.72,0,0,0-1,.13,4.74,4.74,0,0,0-1,.4.43.43,0,0,1-.4.05.39.39,0,0,1-.22-.25.45.45,0,0,1,0-.36.48.48,0,0,1,.27-.29,5.73,5.73,0,0,1,1.21-.45,5.38,5.38,0,0,1,1.15-.14,2.66,2.66,0,0,1,2,.65,2.76,2.76,0,0,1,.63,2v3.79c0,.39-.17.59-.51.59s-.55-.2-.55-.59V49a2.11,2.11,0,0,1-.82,1A2.4,2.4,0,0,1,690.31,50.31Zm.18-.86a1.75,1.75,0,0,0,1.37-.58,2.1,2.1,0,0,0,.53-1.47V47H692a12,12,0,0,0-1.79.1,1.64,1.64,0,0,0-.91.37.94.94,0,0,0-.26.7,1.22,1.22,0,0,0,.4.94A1.58,1.58,0,0,0,690.49,49.45Z"/><path class="cls-4" d="M700,50.18a.56.56,0,0,1-.63-.63V40.94a.56.56,0,0,1,.63-.63h2.7a5.07,5.07,0,0,1,3.7,1.27,4.85,4.85,0,0,1,1.3,3.66,4.89,4.89,0,0,1-1.3,3.67,5.07,5.07,0,0,1-3.7,1.27Zm.52-1h2.1q3.85,0,3.86-4t-3.86-4h-2.1Z"/><path class="cls-4" d="M712,50.31a4,4,0,0,1-1.32-.25,3.68,3.68,0,0,1-1.2-.73.51.51,0,0,1-.2-.34.58.58,0,0,1,.08-.37.41.41,0,0,1,.27-.21.47.47,0,0,1,.4.11,3.13,3.13,0,0,0,1,.58,2.83,2.83,0,0,0,1,.19,2.42,2.42,0,0,0,2.11-1,5.17,5.17,0,0,0,.73-3v-.69a2.52,2.52,0,0,1-1,1.44,2.81,2.81,0,0,1-1.7.52,2.9,2.9,0,0,1-1.54-.4,2.72,2.72,0,0,1-1-1.1,3.22,3.22,0,0,1-.38-1.61,3.34,3.34,0,0,1,.4-1.66,2.91,2.91,0,0,1,1.1-1.13,3.14,3.14,0,0,1,1.63-.41,3.17,3.17,0,0,1,2.7,1.26A5.85,5.85,0,0,1,716,45a6.4,6.4,0,0,1-1,3.94A3.5,3.5,0,0,1,712,50.31Zm.42-4.78a2,2,0,0,0,1.53-.6,2.22,2.22,0,0,0,.59-1.59,2.19,2.19,0,0,0-.59-1.58,2.2,2.2,0,0,0-3,0,2.19,2.19,0,0,0-.59,1.58,2.22,2.22,0,0,0,.59,1.59A2,2,0,0,0,712.45,45.53Z"/><path class="cls-4" d="M721.12,50.31a2.94,2.94,0,0,1-2.58-1.3,6.8,6.8,0,0,1-.88-3.77,6.75,6.75,0,0,1,.88-3.77,3,3,0,0,1,2.58-1.28,2.9,2.9,0,0,1,2.58,1.28,6.59,6.59,0,0,1,.88,3.76,6.72,6.72,0,0,1-.89,3.78A2.93,2.93,0,0,1,721.12,50.31Zm0-1a1.85,1.85,0,0,0,1.74-1,6.4,6.4,0,0,0,.57-3.08,6.49,6.49,0,0,0-.56-3.08,2,2,0,0,0-3.49,0,6.33,6.33,0,0,0-.57,3.07,6.4,6.4,0,0,0,.57,3.08A1.87,1.87,0,0,0,721.12,49.31Z"/></g><g id="Warstwa_7" data-name="Warstwa 7"><path class="cls-11" d="M747.7,354.07c3.76,1.37,7.32,3.48,7.32,7.16a5.46,5.46,0,0,1-1,3.13,9,9,0,0,1-.94-.45,4.34,4.34,0,0,1-1-.6c1.33-4-2.32-7.72-4.42-9.24"/><path class="cls-11" d="M738.16,366.55v0Z"/><path class="cls-11" d="M738.16,366.5v0Z"/><path class="cls-11" d="M744.09,365.93l-.48,0a3.1,3.1,0,0,1-3.34-2.78,2.58,2.58,0,0,1,1-2,3.35,3.35,0,0,0-.17,1.05,4.09,4.09,0,0,0,3,3.71"/><path class="cls-11" d="M725.07,363.4A19.91,19.91,0,1,0,736,345.64h0a19.92,19.92,0,0,0-10.91,17.76m22.73-7.2c1.69,1.77,3.55,4.1,2.67,6.71a6.29,6.29,0,0,1-5,4c-2,.34-5.73-.2-6.15-2.73-.34-2.06,1.65-3.83,2.14-5.76.59-2.37-.79-5-1.85-7.08a35.07,35.07,0,0,0-3-4.92c.33-.16.67-.32,1-.46.57-.25,1.15-.45,1.73-.64a46.31,46.31,0,0,0,3.49,5.56M745,382.33a19.09,19.09,0,0,1-3.63-.35,17.56,17.56,0,0,0,1.56-7.25c-.12-1.58-1-1.76-1.93-3a7.38,7.38,0,0,1-1.48-3.25,8.88,8.88,0,0,0,6.18,1.33,11.37,11.37,0,0,0,6.35-3.93,4.59,4.59,0,0,0,.66.42c-.51,1.37-1,2.77-1.49,4.13a25.23,25.23,0,0,1-2.38,4.55,26.62,26.62,0,0,0-3.52,7.3Zm-17.44-11.56a19,19,0,0,1,8.26-23.92,31.76,31.76,0,0,1,2.55,4c1.33,2.44,3,5.28,2.13,7.71-.63,1.74-2.58,3.74-2,5.9.52,1.93,2.18,3,4.44,3.39a7.91,7.91,0,0,0,5.75-1.23,6.27,6.27,0,0,0,2.89-4.87c0-2.23-1.28-4.13-2.73-5.7-1.74-1.88-3.74-3.48-5.25-5.57a51.38,51.38,0,0,1-3.38-5.36,18.93,18.93,0,0,1,4.76-.6A18.93,18.93,0,0,1,758.36,350a18.92,18.92,0,0,1-12.16,32.27,28.49,28.49,0,0,1,3.9-7.65c1.57-2.44,2.35-5.25,3.38-8,.09-.25.18-.49.28-.74l0-.08a4.43,4.43,0,0,1-.74-.31c-.14-.08-.78-.47-1.22-.79a11,11,0,0,1-6.38,4.23,9.09,9.09,0,0,1-6.28-1.68c-.34-.21-.67-.43-1-.65v0c0,.2.39,3.09.76,4.61s1.22,3.33,1.34,5a9.62,9.62,0,0,1-1,5.17c-.55-.18-1.09-.37-1.62-.6a19.08,19.08,0,0,1-10.07-10.07"/><path class="cls-12" d="M747,340.4a23.34,23.34,0,1,0,23.34,23.33A23.33,23.33,0,0,0,747,340.4m0,41.73a18.4,18.4,0,1,1,18.41-18.4A18.4,18.4,0,0,1,747,382.13"/><path class="cls-11" d="M748.75,338.49v8.9a16.16,16.16,0,1,1-18.17,17H721.7a25,25,0,1,0,27-25.92"/><polygon class="cls-13" points="754.03 361.57 762.52 363.67 762.3 365.03 773.32 365.66 764.86 363.33 765.04 361.9 754.03 361.57"/><polygon class="cls-13" points="753.02 360.71 762.88 356.39 763.68 357.89 774.88 350.25 764.9 354.31 764 352.79 753.02 360.71"/><polygon class="cls-13" points="752.69 359.44 757.39 352.06 758.61 352.71 762.73 342.47 757.82 349.74 756.52 349.12 752.69 359.44"/><path class="cls-14" d="M747.7,354.07c3.76,1.37,7.32,3.48,7.32,7.16a5.46,5.46,0,0,1-1,3.13,9,9,0,0,1-.94-.45,4.34,4.34,0,0,1-1-.6c1.33-4-2.32-7.72-4.42-9.24"/><path class="cls-14" d="M738.16,366.55v0Z"/><path class="cls-14" d="M738.16,366.5v0Z"/><path class="cls-14" d="M744.09,365.93l-.48,0a3.1,3.1,0,0,1-3.34-2.78,2.58,2.58,0,0,1,1-2,3.35,3.35,0,0,0-.17,1.05,4.09,4.09,0,0,0,3,3.71"/><path class="cls-14" d="M725.07,363.4A19.91,19.91,0,1,0,736,345.64h0a19.92,19.92,0,0,0-10.91,17.76m22.73-7.2c1.69,1.77,3.55,4.1,2.67,6.71a6.29,6.29,0,0,1-5,4c-2,.34-5.73-.2-6.15-2.73-.34-2.06,1.65-3.83,2.14-5.76.59-2.37-.79-5-1.85-7.08a35.07,35.07,0,0,0-3-4.92c.33-.16.67-.32,1-.46.57-.25,1.15-.45,1.73-.64a46.31,46.31,0,0,0,3.49,5.56M745,382.33a19.09,19.09,0,0,1-3.63-.35,17.56,17.56,0,0,0,1.56-7.25c-.12-1.58-1-1.76-1.93-3a7.38,7.38,0,0,1-1.48-3.25,8.88,8.88,0,0,0,6.18,1.33,11.37,11.37,0,0,0,6.35-3.93,4.59,4.59,0,0,0,.66.42c-.51,1.37-1,2.77-1.49,4.13a25.23,25.23,0,0,1-2.38,4.55,26.62,26.62,0,0,0-3.52,7.3Zm-17.44-11.56a19,19,0,0,1,8.26-23.92,31.76,31.76,0,0,1,2.55,4c1.33,2.44,3,5.28,2.13,7.71-.63,1.74-2.58,3.74-2,5.9.52,1.93,2.18,3,4.44,3.39a7.91,7.91,0,0,0,5.75-1.23,6.27,6.27,0,0,0,2.89-4.87c0-2.23-1.28-4.13-2.73-5.7-1.74-1.88-3.74-3.48-5.25-5.57a51.38,51.38,0,0,1-3.38-5.36,18.93,18.93,0,0,1,4.76-.6A18.93,18.93,0,0,1,758.36,350a18.92,18.92,0,0,1-12.16,32.27,28.49,28.49,0,0,1,3.9-7.65c1.57-2.44,2.35-5.25,3.38-8,.09-.25.18-.49.28-.74l0-.08a4.43,4.43,0,0,1-.74-.31c-.14-.08-.78-.47-1.22-.79a11,11,0,0,1-6.38,4.23,9.09,9.09,0,0,1-6.28-1.68c-.34-.21-.67-.43-1-.65v0c0,.2.39,3.09.76,4.61s1.22,3.33,1.34,5a9.62,9.62,0,0,1-1,5.17c-.55-.18-1.09-.37-1.62-.6a19.08,19.08,0,0,1-10.07-10.07"/><path class="cls-15" d="M747,340.4a23.34,23.34,0,1,0,23.34,23.33A23.33,23.33,0,0,0,747,340.4m0,41.73a18.4,18.4,0,1,1,18.41-18.4A18.4,18.4,0,0,1,747,382.13"/><path class="cls-14" d="M748.75,338.49v8.9a16.16,16.16,0,1,1-18.17,17H721.7a25,25,0,1,0,27-25.92"/><polygon class="cls-16" points="754.03 361.57 762.52 363.67 762.3 365.03 773.32 365.66 764.86 363.33 765.04 361.9 754.03 361.57"/><polygon class="cls-16" points="753.02 360.71 762.88 356.39 763.68 357.89 774.88 350.25 764.9 354.31 764 352.79 753.02 360.71"/><polygon class="cls-16" points="752.69 359.44 757.39 352.06 758.61 352.71 762.73 342.47 757.82 349.74 756.52 349.12 752.69 359.44"/><path class="cls-17" d="M558.06,360.54h-1.34a2,2,0,1,1-2.05-2.05,2,2,0,0,1,2.05,2.05h2.68a4.73,4.73,0,1,0-4.73,4.72,4.73,4.73,0,0,0,4.73-4.72Z"/><path class="cls-16" d="M558.06,375.38h-1.33a2.06,2.06,0,1,1-2.06-2.06,2.05,2.05,0,0,1,2.06,2.06h2.66a4.72,4.72,0,1,0-4.72,4.71,4.72,4.72,0,0,0,4.72-4.71Z"/><path class="cls-1" d="M487.57,361.17a.43.43,0,0,1-.22-.31.48.48,0,0,1,.11-.38l.49-.76-.87,0a.61.61,0,0,1-.4-.11.38.38,0,0,1-.15-.34.4.4,0,0,1,.15-.33.56.56,0,0,1,.4-.1l.88.06-.49-.77a.51.51,0,0,1-.11-.39.4.4,0,0,1,.22-.29.38.38,0,0,1,.37,0,.63.63,0,0,1,.29.31l.42.87.41-.87a.63.63,0,0,1,.29-.31.4.4,0,0,1,.38,0c.26.16.3.39.1.69l-.49.76.88-.06a.56.56,0,0,1,.4.1.4.4,0,0,1,.15.33.38.38,0,0,1-.15.34.61.61,0,0,1-.4.11l-.88,0,.49.76a.54.54,0,0,1,.12.38.47.47,0,0,1-.61.33.59.59,0,0,1-.28-.3l-.42-.88-.42.88a.57.57,0,0,1-.29.3A.38.38,0,0,1,487.57,361.17Z"/><path class="cls-1" d="M492.46,367a.59.59,0,0,1-.67-.68v-6a.59.59,0,0,1,.66-.68.6.6,0,0,1,.67.68v.22a1.66,1.66,0,0,1,.67-.67,2.11,2.11,0,0,1,1-.25A2.22,2.22,0,0,1,496,360a2.19,2.19,0,0,1,.81.94,3.82,3.82,0,0,1,0,2.92,2.17,2.17,0,0,1-.81,1,2.2,2.2,0,0,1-1.21.34,2,2,0,0,1-1-.25,1.64,1.64,0,0,1-.68-.65v2.13A.6.6,0,0,1,492.46,367Zm2-2.94a1.2,1.2,0,0,0,1-.43,2.43,2.43,0,0,0,0-2.58,1.22,1.22,0,0,0-1-.42,1.24,1.24,0,0,0-1,.42,2.49,2.49,0,0,0,0,2.58A1.21,1.21,0,0,0,494.45,364.1Z"/><path class="cls-1" d="M502.91,364.45l-4.3-1.82a.74.74,0,0,1,0-1.4l4.3-1.83a.42.42,0,0,1,.39,0,.47.47,0,0,1,.24.26.56.56,0,0,1,0,.36.43.43,0,0,1-.28.28l-3.9,1.64,3.9,1.64a.44.44,0,0,1,.28.27.56.56,0,0,1,0,.36.5.5,0,0,1-.24.26A.45.45,0,0,1,502.91,364.45Z"/><path class="cls-1" d="M507.24,365.13a2.36,2.36,0,0,1-2.06-1,5.07,5.07,0,0,1-.71-2.9,5,5,0,0,1,.71-2.9,2.64,2.64,0,0,1,4.12,0,5,5,0,0,1,.7,2.89,5,5,0,0,1-.71,2.91A2.34,2.34,0,0,1,507.24,365.13Zm0-1.13a1.14,1.14,0,0,0,1.08-.68,4.89,4.89,0,0,0,.35-2.12,4.76,4.76,0,0,0-.35-2.1,1.15,1.15,0,0,0-1.08-.65,1.17,1.17,0,0,0-1.08.65,4.62,4.62,0,0,0-.35,2.1,4.75,4.75,0,0,0,.35,2.12A1.16,1.16,0,0,0,507.24,364Z"/><path class="cls-1" d="M512,366.17a.48.48,0,0,1-.29.2.34.34,0,0,1-.28-.06.29.29,0,0,1-.12-.24.46.46,0,0,1,.13-.34,1.52,1.52,0,0,0,.21-.33,3.43,3.43,0,0,0,.12-.33.84.84,0,0,1-.54-.24.79.79,0,0,1-.21-.57.8.8,0,0,1,.22-.56.76.76,0,0,1,.58-.22.72.72,0,0,1,.59.25,1.06,1.06,0,0,1,.22.73,2.94,2.94,0,0,1-.12.81A2.79,2.79,0,0,1,512,366.17Z"/><path class="cls-1" d="M516.37,365.13a2.35,2.35,0,0,1-2.06-1,5,5,0,0,1-.71-2.9,4.91,4.91,0,0,1,.71-2.9,2.64,2.64,0,0,1,4.12,0,5,5,0,0,1,.7,2.89,5.08,5.08,0,0,1-.71,2.91A2.34,2.34,0,0,1,516.37,365.13Zm0-1.13a1.16,1.16,0,0,0,1.08-.68,4.89,4.89,0,0,0,.35-2.12,4.76,4.76,0,0,0-.35-2.1,1.22,1.22,0,0,0-2.16,0,4.6,4.6,0,0,0-.36,2.1,4.73,4.73,0,0,0,.36,2.12A1.15,1.15,0,0,0,516.37,364Z"/><path class="cls-1" d="M522.89,365.13a4.82,4.82,0,0,1-1.17-.15,3.73,3.73,0,0,1-1.08-.47.61.61,0,0,1-.31-.39.64.64,0,0,1,.06-.43.57.57,0,0,1,.32-.27.58.58,0,0,1,.48.08,3.74,3.74,0,0,0,.8.35,3.6,3.6,0,0,0,.88.11,1.49,1.49,0,0,0,1.06-.35,1.21,1.21,0,0,0,.38-.94,1.3,1.3,0,0,0-.37-1,1.33,1.33,0,0,0-1-.37,1.92,1.92,0,0,0-.67.11,2,2,0,0,0-.63.39,1.21,1.21,0,0,1-.25.17.72.72,0,0,1-.32.08c-.37,0-.55-.18-.55-.53V358a.53.53,0,0,1,.6-.6h3.54c.41,0,.61.19.61.57s-.2.57-.61.57h-2.79v2.06a2.21,2.21,0,0,1,1.39-.43,2.53,2.53,0,0,1,1.26.3,2.26,2.26,0,0,1,.83.85,2.73,2.73,0,0,1,.29,1.27,2.58,2.58,0,0,1-.33,1.31,2.31,2.31,0,0,1-.95.88A3.25,3.25,0,0,1,522.89,365.13Z"/><path class="cls-1" d="M565.76,365.1c-.46,0-.68-.23-.68-.71v-6.26a.61.61,0,0,1,.69-.7h2.6a2.75,2.75,0,0,1,1.92.62,2.59,2.59,0,0,1,0,3.5,2.71,2.71,0,0,1-1.92.63h-1.92v2.21C566.45,364.87,566.22,365.1,565.76,365.1Zm.69-4h1.7c1,0,1.49-.43,1.49-1.29s-.5-1.28-1.49-1.28h-1.7Z"/><path class="cls-1" d="M572.79,365a.63.63,0,0,1-.7-.71V358.1a.69.69,0,1,1,1.38,0v5.75h3.12c.4,0,.6.19.6.58a.53.53,0,0,1-.6.59Z"/><path class="cls-1" d="M578.06,365.1a.57.57,0,0,1-.54-.25.62.62,0,0,1,0-.63l2.84-6.29a1,1,0,0,1,.34-.45.78.78,0,0,1,.46-.14.77.77,0,0,1,.44.14,1,1,0,0,1,.34.45l2.85,6.29a.65.65,0,0,1,0,.63.56.56,0,0,1-.52.25.68.68,0,0,1-.47-.14,1.35,1.35,0,0,1-.3-.45l-.53-1.25H579.3l-.52,1.25a1.45,1.45,0,0,1-.29.45A.59.59,0,0,1,578.06,365.1Zm3.08-6.17-1.36,3.24h2.75l-1.36-3.24Z"/><path class="cls-1" d="M589.36,365.13a4,4,0,0,1-2-.48,3.16,3.16,0,0,1-1.3-1.36,5,5,0,0,1,0-4.14,3.19,3.19,0,0,1,1.3-1.35,4,4,0,0,1,2-.48,4.56,4.56,0,0,1,1.16.15,3.64,3.64,0,0,1,1,.43.69.69,0,0,1,.33.44.61.61,0,0,1-.06.46.57.57,0,0,1-.36.28.6.6,0,0,1-.52-.12,2.53,2.53,0,0,0-.72-.31,3,3,0,0,0-.79-.1,2.19,2.19,0,0,0-1.75.69,3.52,3.52,0,0,0,0,4,2.16,2.16,0,0,0,1.75.7,3.21,3.21,0,0,0,.81-.1,3.08,3.08,0,0,0,.75-.32.67.67,0,0,1,.52-.12.56.56,0,0,1,.34.26.67.67,0,0,1,.07.44.69.69,0,0,1-.29.42,3.16,3.16,0,0,1-1,.48A4.53,4.53,0,0,1,589.36,365.13Z"/><path class="cls-1" d="M593.88,365a.65.65,0,0,1-.73-.73v-6.13a.64.64,0,0,1,.73-.73h3.84a.49.49,0,0,1,.56.54.5.5,0,0,1-.56.56h-3.25v2.09h3a.49.49,0,0,1,.56.55c0,.36-.18.54-.56.54h-3v2.21h3.25a.55.55,0,1,1,0,1.1Z"/><path class="cls-1" d="M600.3,365a.65.65,0,0,1-.73-.73v-6.13a.65.65,0,0,1,.73-.73h2.59a2.91,2.91,0,0,1,1.85.52,1.75,1.75,0,0,1,.66,1.45,1.8,1.8,0,0,1-.32,1.06,1.77,1.77,0,0,1-.86.64,1.92,1.92,0,0,1,1,.64,1.83,1.83,0,0,1,.36,1.16,1.91,1.91,0,0,1-.68,1.56,3,3,0,0,1-1.9.56Zm.6-4.37h1.75c.94,0,1.41-.36,1.41-1.09s-.47-1.09-1.41-1.09H600.9Zm0,3.32h1.93c.95,0,1.42-.38,1.42-1.14s-.47-1.14-1.42-1.14H600.9Z"/><path class="cls-1" d="M610.38,365.13a3.75,3.75,0,0,1-1.92-.49,3.24,3.24,0,0,1-1.28-1.36,5,5,0,0,1,0-4.13,3.31,3.31,0,0,1,1.27-1.35,4.12,4.12,0,0,1,3.86,0,3.38,3.38,0,0,1,1.27,1.35,5,5,0,0,1,0,4.13,3.34,3.34,0,0,1-1.27,1.36A3.76,3.76,0,0,1,610.38,365.13Zm0-1.19a2,2,0,0,0,1.62-.72,3.77,3.77,0,0,0,0-4,2.23,2.23,0,0,0-3.26,0,3.11,3.11,0,0,0-.58,2,3.15,3.15,0,0,0,.58,2A2,2,0,0,0,610.38,363.94Z"/><path class="cls-1" d="M567.69,378.37a5.89,5.89,0,0,1-1.4-.16,3.67,3.67,0,0,1-1.19-.49.65.65,0,0,1-.31-.39.76.76,0,0,1,0-.45.52.52,0,0,1,.29-.29.47.47,0,0,1,.46.08,3.77,3.77,0,0,0,1,.41,5,5,0,0,0,1.11.13,2.12,2.12,0,0,0,1.24-.29.87.87,0,0,0,.39-.74.73.73,0,0,0-.28-.59,2.4,2.4,0,0,0-.94-.35l-1.18-.25c-1.35-.29-2-1-2-2.08a2.12,2.12,0,0,1,.38-1.24,2.43,2.43,0,0,1,1-.81,3.75,3.75,0,0,1,1.54-.29,4.51,4.51,0,0,1,1.23.16,3.28,3.28,0,0,1,1,.47.56.56,0,0,1,.26.37.63.63,0,0,1,0,.41.53.53,0,0,1-.31.26.58.58,0,0,1-.49-.09,2.79,2.79,0,0,0-.81-.32,3.49,3.49,0,0,0-.88-.1,1.9,1.9,0,0,0-1.16.31,1,1,0,0,0-.42.82.77.77,0,0,0,.26.62,2,2,0,0,0,.88.36l1.17.24a3.36,3.36,0,0,1,1.59.72,1.66,1.66,0,0,1,.52,1.29,2,2,0,0,1-.36,1.19,2.35,2.35,0,0,1-1,.8A4.07,4.07,0,0,1,567.69,378.37Z"/><path class="cls-1" d="M572.56,378.35a.62.62,0,0,1-.69-.71V371.3c0-.48.23-.71.69-.71a.62.62,0,0,1,.69.71v6.34A.62.62,0,0,1,572.56,378.35Z"/><path class="cls-1" d="M575,378.35a.6.6,0,0,1-.54-.26.62.62,0,0,1,0-.63l2.84-6.29a1,1,0,0,1,.34-.45.8.8,0,0,1,.46-.13.81.81,0,0,1,.45.13,1,1,0,0,1,.33.45l2.86,6.29a.67.67,0,0,1,0,.63.56.56,0,0,1-.52.26.68.68,0,0,1-.47-.15,1.09,1.09,0,0,1-.29-.44l-.54-1.25h-3.7l-.53,1.25a1.52,1.52,0,0,1-.29.45A.63.63,0,0,1,575,378.35Zm3.09-6.18-1.37,3.24h2.76l-1.37-3.24Z"/><path class="cls-1" d="M583.6,378.35a.62.62,0,0,1-.69-.71v-6.27a.62.62,0,0,1,.7-.7h2.59a2.81,2.81,0,0,1,1.93.6,2.13,2.13,0,0,1,.68,1.67,2.05,2.05,0,0,1-1.71,2.16,1.59,1.59,0,0,1,.9.83l.81,1.49a.78.78,0,0,1,.07.64c-.08.19-.26.29-.56.29a.77.77,0,0,1-.47-.13,1,1,0,0,1-.32-.38l-1.09-2a1.05,1.05,0,0,0-.46-.49,1.61,1.61,0,0,0-.67-.12h-1v2.41A.62.62,0,0,1,583.6,378.35Zm.69-4.15H586c1,0,1.5-.41,1.5-1.22s-.5-1.22-1.5-1.22h-1.68Z"/><path class="cls-1" d="M593.77,378.37a4,4,0,0,1-2-.48,3.28,3.28,0,0,1-1.3-1.36,5,5,0,0,1,0-4.13,3.28,3.28,0,0,1,1.3-1.36,4.14,4.14,0,0,1,2-.47,4.5,4.5,0,0,1,1.16.15,3.25,3.25,0,0,1,1,.43.7.7,0,0,1,.34.43.69.69,0,0,1-.07.47.58.58,0,0,1-.35.28.65.65,0,0,1-.53-.13,2.31,2.31,0,0,0-.72-.31,3.49,3.49,0,0,0-.79-.1,2.18,2.18,0,0,0-1.75.7,3.55,3.55,0,0,0,0,3.95,2.18,2.18,0,0,0,1.75.7,3.1,3.1,0,0,0,.81-.1,2.5,2.5,0,0,0,.75-.32.67.67,0,0,1,.52-.12.61.61,0,0,1,.34.27.59.59,0,0,1,.07.43.69.69,0,0,1-.29.42,3.16,3.16,0,0,1-1,.48A4.53,4.53,0,0,1,593.77,378.37Z"/><path class="cls-1" d="M597.79,378.26a.7.7,0,0,1-.54-.19.58.58,0,0,1-.15-.49,1.24,1.24,0,0,1,.27-.62l3.78-5.13h-3.47c-.41,0-.62-.2-.62-.59s.21-.57.62-.57h4.45a.74.74,0,0,1,.54.19.6.6,0,0,1,.15.49,1.2,1.2,0,0,1-.27.63l-3.79,5.13h3.64c.41,0,.62.19.62.57s-.21.58-.62.58Z"/><path class="cls-1" d="M604,378.35a.57.57,0,0,1-.53-.26.62.62,0,0,1,0-.63l2.84-6.29a1,1,0,0,1,.34-.45.84.84,0,0,1,.9,0,1,1,0,0,1,.34.45l2.85,6.29a.64.64,0,0,1,0,.63.55.55,0,0,1-.51.26.68.68,0,0,1-.47-.15,1.2,1.2,0,0,1-.3-.44l-.54-1.25h-3.7l-.53,1.25a1.52,1.52,0,0,1-.29.45A.62.62,0,0,1,604,378.35Zm3.09-6.18-1.37,3.24h2.76l-1.37-3.24Z"/><path class="cls-1" d="M612.53,378.35c-.43,0-.64-.22-.64-.67v-6.4a.74.74,0,0,1,.16-.52.6.6,0,0,1,.44-.17.63.63,0,0,1,.37.09,1.79,1.79,0,0,1,.3.31l3.84,5v-4.73a.64.64,0,1,1,1.28,0v6.46a.73.73,0,0,1-.15.48.53.53,0,0,1-.41.17.63.63,0,0,1-.39-.1,1.31,1.31,0,0,1-.32-.31l-3.84-5v4.74C613.17,378.13,613,378.35,612.53,378.35Z"/><path class="cls-1" d="M626.38,378.37a4.06,4.06,0,0,1-2-.48,3.2,3.2,0,0,1-1.29-1.36,5,5,0,0,1,0-4.13,3.2,3.2,0,0,1,1.29-1.36,4.17,4.17,0,0,1,2-.47,4.58,4.58,0,0,1,1.17.15,3.36,3.36,0,0,1,1,.43.72.72,0,0,1,.33.43.63.63,0,0,1-.06.47.6.6,0,0,1-.36.28.66.66,0,0,1-.53-.13,2.31,2.31,0,0,0-.72-.31,3.47,3.47,0,0,0-.78-.1,2.18,2.18,0,0,0-1.76.7,3.55,3.55,0,0,0,0,3.95,2.18,2.18,0,0,0,1.76.7,3.08,3.08,0,0,0,.8-.1,2.67,2.67,0,0,0,.76-.32.65.65,0,0,1,.51-.12.55.55,0,0,1,.34.27.59.59,0,0,1,.07.43.65.65,0,0,1-.29.42,3.16,3.16,0,0,1-1,.48A4.48,4.48,0,0,1,626.38,378.37Z"/><path class="cls-1" d="M630.86,378.35a.62.62,0,0,1-.69-.71V371.3c0-.48.23-.71.69-.71s.69.23.69.71v2.54h3.91V371.3c0-.48.23-.71.69-.71s.68.23.68.71v6.34c0,.47-.22.71-.68.71a.62.62,0,0,1-.69-.71V375h-3.91v2.65A.62.62,0,0,1,630.86,378.35Z"/><path class="cls-1" d="M641.89,378.37a3.66,3.66,0,0,1-1.92-.49,3.21,3.21,0,0,1-1.27-1.36,4.94,4.94,0,0,1,0-4.12A3.21,3.21,0,0,1,640,371a4.18,4.18,0,0,1,3.85,0,3.21,3.21,0,0,1,1.27,1.36,4.4,4.4,0,0,1,.45,2.05,4.45,4.45,0,0,1-.45,2.07,3.21,3.21,0,0,1-1.27,1.36A3.64,3.64,0,0,1,641.89,378.37Zm0-1.18a2,2,0,0,0,1.63-.73,3.74,3.74,0,0,0,0-4,2,2,0,0,0-1.63-.71,2,2,0,0,0-1.62.71,3.74,3.74,0,0,0,0,4A2,2,0,0,0,641.89,377.19Z"/><path class="cls-1" d="M647.59,378.35a.58.58,0,0,1-.65-.67v-6.4a.74.74,0,0,1,.17-.52.6.6,0,0,1,.43-.17.67.67,0,0,1,.38.09,1.49,1.49,0,0,1,.29.31l3.84,5v-4.73a.65.65,0,1,1,1.29,0v6.46a.68.68,0,0,1-.16.48.51.51,0,0,1-.4.17.68.68,0,0,1-.4-.1,1.5,1.5,0,0,1-.31-.31l-3.85-5v4.74C648.22,378.13,648,378.35,647.59,378.35Z"/><path class="cls-1" d="M655.72,378.26a.65.65,0,0,1-.73-.73v-6.12a.65.65,0,0,1,.73-.74h2.09a4.17,4.17,0,0,1,3,1,4.32,4.32,0,0,1,0,5.62,4.13,4.13,0,0,1-3,1Zm.65-1.14h1.36a2.66,2.66,0,0,0,0-5.31h-1.36Z"/><path class="cls-1" d="M663.88,378.35c-.46,0-.68-.24-.68-.71v-6.27a.62.62,0,0,1,.69-.7h2.6a2.84,2.84,0,0,1,1.93.6,2.12,2.12,0,0,1,.67,1.67,2.16,2.16,0,0,1-.44,1.41,2.2,2.2,0,0,1-1.27.75,1.58,1.58,0,0,1,.91.83l.8,1.49a.71.71,0,0,1,.07.64c-.07.19-.26.29-.55.29a.77.77,0,0,1-.47-.13,1,1,0,0,1-.33-.38l-1.08-2a1.1,1.1,0,0,0-.46-.49,1.64,1.64,0,0,0-.67-.12h-1v2.41A.62.62,0,0,1,663.88,378.35Zm.69-4.15h1.68c1,0,1.51-.41,1.51-1.22s-.5-1.22-1.51-1.22h-1.68Z"/><path class="cls-1" d="M673.93,378.37a3.67,3.67,0,0,1-1.93-.49,3.28,3.28,0,0,1-1.27-1.36,4.94,4.94,0,0,1,0-4.12A3.21,3.21,0,0,1,672,371a3.83,3.83,0,0,1,1.93-.47,3.79,3.79,0,0,1,1.92.47,3.21,3.21,0,0,1,1.27,1.36,4.4,4.4,0,0,1,.46,2.05,4.45,4.45,0,0,1-.46,2.07,3.21,3.21,0,0,1-1.27,1.36A3.61,3.61,0,0,1,673.93,378.37Zm0-1.18a2,2,0,0,0,1.62-.73,3.07,3.07,0,0,0,.58-2,3.11,3.11,0,0,0-.57-2,2.23,2.23,0,0,0-3.26,0,3.74,3.74,0,0,0,0,4A2,2,0,0,0,673.93,377.19Z"/><path class="cls-1" d="M679.66,378.35a.62.62,0,0,1-.69-.71V371.3c0-.48.23-.71.69-.71s.69.23.69.71v6.34A.62.62,0,0,1,679.66,378.35Z"/><path class="cls-1" d="M684.53,378.35a.62.62,0,0,1-.69-.71v-5.81h-2.1a.52.52,0,0,1-.59-.59.51.51,0,0,1,.59-.57h5.58a.51.51,0,0,1,.59.57.52.52,0,0,1-.59.59h-2.1v5.81A.62.62,0,0,1,684.53,378.35Z"/><path class="cls-1" d="M691.33,378.35q-.69,0-.69-.72v-2.86l-2.3-3.24a.61.61,0,0,1-.13-.41.68.68,0,0,1,.18-.38.64.64,0,0,1,.45-.15.89.89,0,0,1,.74.44l1.77,2.52,1.79-2.52a1.34,1.34,0,0,1,.33-.34.72.72,0,0,1,.4-.1.55.55,0,0,1,.56.3.64.64,0,0,1-.12.65L692,374.79v2.84Q692,378.35,691.33,378.35Z"/><path class="cls-1" d="M696.51,378.35a.58.58,0,0,1-.65-.67v-6.4a.74.74,0,0,1,.17-.52.6.6,0,0,1,.43-.17.67.67,0,0,1,.38.09,1.49,1.49,0,0,1,.29.31l3.84,5v-4.73a.65.65,0,1,1,1.29,0v6.46a.68.68,0,0,1-.16.48.51.51,0,0,1-.4.17.68.68,0,0,1-.4-.1,1.5,1.5,0,0,1-.31-.31l-3.85-5v4.74C697.14,378.13,696.93,378.35,696.51,378.35Z"/><path class="cls-1" d="M706.41,378.35q-.69,0-.69-.72v-2.86l-2.3-3.24a.56.56,0,0,1-.13-.41.57.57,0,0,1,.18-.38.64.64,0,0,1,.45-.15.89.89,0,0,1,.74.44l1.77,2.52,1.79-2.52a1.19,1.19,0,0,1,.33-.34.72.72,0,0,1,.4-.1.53.53,0,0,1,.55.3.61.61,0,0,1-.11.65l-2.29,3.25v2.84Q707.1,378.35,706.41,378.35Z"/><path class="cls-1" d="M482.2,374.41a.46.46,0,0,1-.22-.3.51.51,0,0,1,.11-.39l.49-.75-.87,0a.61.61,0,0,1-.4-.1.46.46,0,0,1,0-.68.56.56,0,0,1,.4-.09l.88.05-.49-.76a.55.55,0,0,1-.11-.4.42.42,0,0,1,.22-.29.36.36,0,0,1,.37,0,.59.59,0,0,1,.29.31l.42.86.41-.86a.59.59,0,0,1,.29-.31.37.37,0,0,1,.38,0c.26.16.3.4.1.7l-.49.75.88-.05a.56.56,0,0,1,.4.09.46.46,0,0,1,0,.68.61.61,0,0,1-.4.1l-.88,0,.49.75a.5.5,0,0,1,.12.38.43.43,0,0,1-.22.3.41.41,0,0,1-.38,0,.63.63,0,0,1-.29-.31l-.42-.87-.42.87a.66.66,0,0,1-.28.31A.43.43,0,0,1,482.2,374.41Z"/><path class="cls-1" d="M487.08,374.41a.48.48,0,0,1-.23-.3.56.56,0,0,1,.11-.39l.5-.75-.88,0a.6.6,0,0,1-.39-.1.46.46,0,0,1,0-.68.54.54,0,0,1,.39-.09l.89.05-.5-.76a.6.6,0,0,1-.11-.4.44.44,0,0,1,.23-.29.35.35,0,0,1,.37,0,.59.59,0,0,1,.29.31l.42.86.41-.86a.56.56,0,0,1,.29-.31.36.36,0,0,1,.37,0c.27.16.3.4.11.7l-.49.75.88-.05a.57.57,0,0,1,.4.09.46.46,0,0,1,0,.68.63.63,0,0,1-.4.1l-.88,0,.49.75a.54.54,0,0,1,.11.38.47.47,0,0,1-.6.34.61.61,0,0,1-.28-.31l-.42-.87-.42.87a.63.63,0,0,1-.29.31A.41.41,0,0,1,487.08,374.41Z"/><path class="cls-1" d="M492,380.29a.6.6,0,0,1-.67-.68v-6a.66.66,0,1,1,1.32,0v.23a1.71,1.71,0,0,1,.68-.68,2.07,2.07,0,0,1,1-.25,2.25,2.25,0,0,1,1.22.33,2.37,2.37,0,0,1,.81.95,3.38,3.38,0,0,1,.29,1.45,3.46,3.46,0,0,1-.29,1.46,2.26,2.26,0,0,1-.81,1,2.2,2.2,0,0,1-1.22.33,2.08,2.08,0,0,1-1-.24,1.73,1.73,0,0,1-.69-.65v2.13A.6.6,0,0,1,492,380.29Zm2-2.94a1.22,1.22,0,0,0,1-.44,2,2,0,0,0,.36-1.29,1.94,1.94,0,0,0-.36-1.28,1.21,1.21,0,0,0-1-.43,1.2,1.2,0,0,0-1,.43,1.94,1.94,0,0,0-.37,1.28,2,2,0,0,0,.37,1.29A1.21,1.21,0,0,0,494,377.35Z"/><path class="cls-1" d="M502.42,377.69l-4.31-1.82a.74.74,0,0,1,0-1.4l4.31-1.83a.48.48,0,0,1,.39,0,.47.47,0,0,1,.23.27.55.55,0,0,1,0,.36.5.5,0,0,1-.29.28l-3.89,1.63,3.89,1.64a.46.46,0,0,1,.29.27.56.56,0,0,1,0,.36.45.45,0,0,1-.23.26A.42.42,0,0,1,502.42,377.69Z"/><path class="cls-1" d="M506.75,378.37a2.35,2.35,0,0,1-2.06-1,5,5,0,0,1-.71-2.9,4.87,4.87,0,0,1,.71-2.89,2.64,2.64,0,0,1,4.12,0,4.94,4.94,0,0,1,.7,2.88,5.08,5.08,0,0,1-.71,2.91A2.34,2.34,0,0,1,506.75,378.37Zm0-1.13a1.16,1.16,0,0,0,1.08-.68,4.89,4.89,0,0,0,.35-2.12,4.68,4.68,0,0,0-.35-2.09,1.22,1.22,0,0,0-2.16,0,4.52,4.52,0,0,0-.36,2.09,4.73,4.73,0,0,0,.36,2.12A1.15,1.15,0,0,0,506.75,377.24Z"/><path class="cls-1" d="M511.49,379.41a.48.48,0,0,1-.29.2.34.34,0,0,1-.28-.06.29.29,0,0,1-.13-.24.49.49,0,0,1,.14-.34,1.52,1.52,0,0,0,.21-.33,1.74,1.74,0,0,0,.11-.32.85.85,0,0,1-.53-.25.78.78,0,0,1-.21-.56.77.77,0,0,1,.22-.57.78.78,0,0,1,.58-.22.73.73,0,0,1,.59.26,1.09,1.09,0,0,1,.22.72,3,3,0,0,1-.13.81A2.56,2.56,0,0,1,511.49,379.41Z"/><path class="cls-1" d="M515.87,378.37a2.33,2.33,0,0,1-2-1,5,5,0,0,1-.71-2.9,4.87,4.87,0,0,1,.71-2.89,2.63,2.63,0,0,1,4.11,0,4.94,4.94,0,0,1,.71,2.88,5.08,5.08,0,0,1-.71,2.91A2.36,2.36,0,0,1,515.87,378.37Zm0-1.13a1.14,1.14,0,0,0,1.08-.68,4.75,4.75,0,0,0,.35-2.12,4.55,4.55,0,0,0-.35-2.09,1.13,1.13,0,0,0-1.08-.65,1.15,1.15,0,0,0-1.08.65,4.68,4.68,0,0,0-.35,2.09,4.89,4.89,0,0,0,.35,2.12A1.16,1.16,0,0,0,515.87,377.24Z"/><path class="cls-1" d="M522.33,378.37a2.36,2.36,0,0,1-2.06-1,5,5,0,0,1-.71-2.9,5,5,0,0,1,.71-2.89,2.64,2.64,0,0,1,4.12,0,4.94,4.94,0,0,1,.71,2.88,5.08,5.08,0,0,1-.71,2.91A2.36,2.36,0,0,1,522.33,378.37Zm0-1.13a1.14,1.14,0,0,0,1.08-.68,4.89,4.89,0,0,0,.35-2.12,4.68,4.68,0,0,0-.35-2.09,1.13,1.13,0,0,0-1.08-.65,1.15,1.15,0,0,0-1.08.65,4.68,4.68,0,0,0-.35,2.09,4.89,4.89,0,0,0,.35,2.12A1.16,1.16,0,0,0,522.33,377.24Z"/><path class="cls-1" d="M527.24,378.26a.51.51,0,0,1-.59-.58c0-.37.19-.56.59-.56h1.2v-4.87l-.91.54a.55.55,0,0,1-.47.08.57.57,0,0,1-.32-.27.63.63,0,0,1-.06-.43.58.58,0,0,1,.3-.38l1.48-.89a3,3,0,0,1,.44-.22,1,1,0,0,1,.39-.09.6.6,0,0,1,.38.12.49.49,0,0,1,.15.4v6h1.1c.39,0,.59.19.59.56a.52.52,0,0,1-.59.58Z"/></g></svg>